<?xml version="1.0" encoding="utf-8"?>
<!-- Generator: Adobe Illustrator 25.3.1, SVG Export Plug-In . SVG Version: 6.00 Build 0)  -->
<svg version="1.1" id="Calque_1" xmlns="http://www.w3.org/2000/svg" xmlns:xlink="http://www.w3.org/1999/xlink" x="0px" y="0px"
	 viewBox="0 0 206.5 221.2" style="enable-background:new 0 0 206.5 221.2;" xml:space="preserve">
<style type="text/css">
	.st0{fill:#FFFFFF;}
	.st1{fill:#010101;stroke:#010101;stroke-width:0.424;stroke-miterlimit:10;}
	.st2{fill:#010101;stroke:#010101;stroke-width:1.211;stroke-linecap:round;stroke-linejoin:round;}
	.st3{fill:#ED7009;stroke:#010101;stroke-width:0.727;stroke-linecap:round;stroke-linejoin:round;}
	.st4{fill:none;stroke:#010101;stroke-width:0.727;stroke-linecap:round;stroke-linejoin:round;}
	.st5{fill:#010101;}
	.st6{fill:#F5FA14;stroke:#010101;stroke-width:1.211;stroke-linecap:round;stroke-linejoin:round;}
	.st7{fill:#F5FA14;stroke:#010101;stroke-width:0.424;stroke-miterlimit:10;}
	.st8{fill:#010101;stroke:#010101;stroke-width:4.843;stroke-linecap:round;stroke-linejoin:round;}
	.st9{fill:#010101;stroke:#010101;stroke-width:1.762;stroke-linecap:round;stroke-linejoin:round;}
	.st10{fill:none;stroke:#010101;stroke-width:0.85;stroke-linecap:round;stroke-linejoin:round;}
</style>
<g id="Calque_2_1_">
	<g id="Calque_2-2">
		<path class="st0" d="M14.9,68.9c-1.1,0-2.1-0.5-2.8-1.3L1,54.5c-0.7-0.7-1-1.6-1-2.6V15.5c0-2,1.6-3.7,3.7-3.7c0,0,0,0,0,0h7
			c1.2,0,2.3,0.6,3,1.5l11,13.1c0.6,0.7,0.9,1.5,0.9,2.4V43l10.8,12.9c0.6,0.7,0.9,1.5,0.9,2.4v7c0,2-1.6,3.7-3.7,3.7c0,0,0,0,0,0
			L14.9,68.9z"/>
		<path class="st0" d="M132.6,221.2c-5.2,0.1-10.3-0.9-15.1-2.9l-20.9-9c-5.3,7.8-14.2,11.9-25.8,11.9c-4.6,0.1-9.1-0.7-13.4-2.2
			l-0.4-0.1c-31.5-11.1-31.8-11.2-31.9-11.2c-0.3-0.1-0.7-0.3-1.1-0.4l-0.1,0c-1.5-0.6-3-1.4-4.4-2.2l-0.1-0.1
			c-1.3-0.8-2.6-1.8-3.8-2.9l-0.2-0.1c-0.3-0.3-0.6-0.5-0.8-0.8l-0.1-0.1c-0.5-0.5-1.1-1.1-1.6-1.7l-0.1-0.1
			c-0.2-0.3-0.4-0.5-0.6-0.8l-0.3-0.3c-0.2-0.3-0.4-0.5-0.6-0.8l-0.2-0.4c-0.3-0.5-0.7-1-1-1.5l-0.2-0.3c-0.1-0.2-0.3-0.5-0.4-0.7
			c-0.1-0.2-0.2-0.4-0.3-0.6c-0.1-0.2-0.2-0.5-0.4-0.7c-0.1-0.2-0.2-0.4-0.3-0.6l-0.1-0.2c-0.1-0.2-0.2-0.4-0.2-0.5
			c-0.2-0.4-0.3-0.8-0.5-1.3c-0.1-0.2-0.2-0.7-0.2-0.7c-0.1-0.3-0.2-0.5-0.3-0.8c-0.1-0.2-0.1-0.5-0.2-0.7c-0.1-0.3-0.2-0.6-0.3-0.9
			l-0.2-0.6c-0.1-0.5-0.2-1-0.4-1.5l-0.1-0.5c-0.1-0.4-0.2-0.8-0.2-1.1L5.8,183c-0.1-0.4-0.1-0.7-0.2-1.1l-0.1-0.5
			c-0.1-0.6-0.1-1.1-0.2-1.7l0-0.2c-0.1-0.6-0.1-1-0.1-1.5l0-0.6c0-0.4,0-0.9-0.1-1.3l0-0.5c0-0.6,0-1.2,0-1.8v-10.7
			c0-2,1.6-3.7,3.7-3.7H28c0.5,0,1.1,0.1,1.6,0.3l15.8,7.4v-4c0-0.3,0-1.1,0-1.1l0-0.7l0-0.9l-0.1-0.8l0-0.3l-0.1-0.4l-17.9-8.8
			c-1.3-0.6-2.1-1.9-2.1-3.3V128c0-0.4,0.1-0.8,0.2-1.2L7,116.6c-1.2-0.6-1.9-1.9-1.9-3.2v-7c0-13.4,4.2-23.7,12.3-29.8
			c5.6-4.3,12.9-6.4,21.8-6.4c0.6,0,1.2,0,1.8,0l0.6,0c0.4,0,0.8,0,1.2,0.1c0.2,0,0.4,0,0.7,0.1c0.4,0,0.7,0.1,1.1,0.1l0.6,0.1
			c0.4,0.1,0.8,0.1,1.2,0.2l0.5,0.1c0.2,0,0.4,0.1,0.6,0.1l-0.2-1.9h-3.5c-1.1,0-2.1-0.5-2.8-1.3l-11-13.1c-0.2-0.3-0.4-0.5-0.5-0.8
			c-0.3-0.5-0.4-1.1-0.4-1.8V38.5c-2.9-3.5-7.1-8.5-7.7-9.1c-0.2-0.2-0.3-0.3-0.4-0.5c-0.3-0.5-0.6-1-0.7-1.5l-0.7-3.4
			c-0.2-0.8-0.1-1.6,0.3-2.3c-0.4-0.9-0.6-2-0.6-3c0-3.8,2.8-7,6.6-7.4c0.3-0.1,0.7-0.1,1-0.1c1.5,0,2.9,0.4,4.2,1.2
			c0.5-0.3,1.1-0.4,1.7-0.4h7.1c0.9,0,1.7,0.3,2.4,0.9c0.7-0.6,1.5-0.9,2.3-0.9h7c1,0,1.9,0.4,2.6,1.1c0.1,0.1,0.1,0.1,0.2,0.2
			l6.4,7.5v-5.1c0-2,1.6-3.7,3.7-3.7h7c1.2,0,2.3,0.6,3,1.5l6.2,7.5v-5.3c0-2,1.6-3.7,3.7-3.7c0,0,0,0,0,0h7.1
			c0.9,0,1.7,0.3,2.4,0.9c0.7-0.6,1.5-0.9,2.4-0.9h6.8c1.1,0,2.1,0.5,2.9,1.3l7.7,9.3l3.7-8.4c0.6-1.3,1.9-2.2,3.4-2.2h6.8
			c0.9,0,1.7,0.3,2.4,0.9c0.7-0.6,1.5-0.9,2.4-0.9h7.1c0.4,0,0.9,0.1,1.3,0.2c0.4-0.2,0.9-0.2,1.3-0.2h21.4c0.4,0,0.7,0.1,1,0.1
			c0.3-0.1,0.7-0.2,1-0.1h3.4c0-0.3,0-0.6,0.1-0.8c0-0.2,0.1-0.4,0.1-0.6l2.7-7.9c0.5-1.5,1.9-2.5,3.5-2.5h6.2
			c1.1,0,2.1,0.5,2.8,1.3l10.9,13.3c1,1.2,1.1,2.8,0.4,4.1l-1.7,3.1l3.9,4.5c0.6,0.7,0.9,1.5,0.9,2.4v7.1c0,2-1.6,3.7-3.7,3.7h-1.2
			l1.3,1.5c0.6,0.7,0.9,1.5,0.9,2.4v7c0,0.8-0.3,1.6-0.8,2.2l2.6,3c0.6,0.7,0.9,1.5,0.9,2.4v7.1c0,2-1.6,3.7-3.7,3.7c0,0,0,0,0,0
			h-18.7c-1.1,0-2.1-0.5-2.8-1.3l-2.7-3.3v0.9c0,2-1.6,3.7-3.7,3.7c0,0,0,0,0,0h-7.1c-1.1,0-2.1-0.5-2.8-1.3l-3.2-3.9v1.5
			c0,2-1.6,3.7-3.7,3.7c0,0,0,0,0,0h-7.1c-0.9,0-1.7-0.3-2.4-0.9c-0.7,0.6-1.5,0.9-2.4,0.9h-7.1c-1.1,0-2.2-0.5-2.9-1.4l-1.4-1.7
			c-0.6,1.2-1.9,2-3.3,2h-2.2c-1.1,0-2.1-0.5-2.8-1.3l-1-1.2c0,2-1.7,3.6-3.7,3.6h-7c-0.9,0-1.7-0.3-2.4-0.9
			c-0.7,0.6-1.5,0.9-2.4,0.9h-0.1l0.1,0.4c0,0.3,0,0.6,0,0.9c0.2,0,0.5,0,0.7-0.1c0.2,0,0.5,0,0.7,0l0.3,0c1.1-0.1,2.1-0.1,3-0.1
			c0.7,0,1.3,0,1.9,0l0.7,0c0.4,0,0.8,0,1.1,0.1c0.2,0,0.4,0,0.6,0l0.4,0c0.3,0,0.6,0.1,0.9,0.1c0.2,0,0.8,0.1,0.8,0.1l0.1,0
			c0.3,0,0.6,0.1,0.9,0.1c0.2,0,0.5,0.1,0.7,0.1l0.2,0c0.4,0.1,0.7,0.1,0.9,0.2c0.2,0,0.5,0.1,0.7,0.2c0.4,0.1,0.7,0.2,1,0.2
			s0.6,0.1,0.8,0.2c0.3,0.1,0.6,0.2,0.8,0.2s0.5,0.2,0.8,0.3c0.3,0.1,0.5,0.2,0.8,0.3c0.3,0.1,0.6,0.2,0.8,0.3
			c0.2,0.1,0.5,0.2,0.7,0.3c0.3,0.1,0.5,0.2,0.8,0.3c0.2,0.1,0.5,0.2,0.7,0.3c0.3,0.1,0.5,0.3,0.8,0.4c0.2,0.1,0.4,0.2,0.5,0.3
			l0.1,0.1c0.3,0.1,0.5,0.3,0.8,0.4c0.1,0.1,0.6,0.3,0.6,0.3c0.3,0.2,0.6,0.4,0.8,0.5c0.1,0.1,0.5,0.3,0.5,0.3
			c0.3,0.2,0.6,0.4,0.8,0.6c0.1,0.1,0.4,0.3,0.4,0.3c0.3,0.2,0.5,0.4,0.8,0.6c0.1,0.1,0.3,0.3,0.3,0.3c0.3,0.2,0.6,0.5,0.8,0.8
			l4.3,3.9c18.1,16.4,19.1,17.3,19.1,17.4c6.3,5.7,9.7,14.7,9.7,25.9v21.3c0.9,0.6,1.8,1.3,2.6,2.1l3.7,3.4l0.8-4.7
			c0.3-1.8,1.8-3.1,3.6-3.1h12.1c1,0,2,0.4,2.7,1.1l7.2,7.5c0.5,0.5,0.9,1.2,1,2l8.2,51.5c0.3,2-1,3.9-3.1,4.2c-0.2,0-0.4,0-0.6,0
			h-8.2c-0.9,0-1.8-0.3-2.5-0.9l-6.1-5.5l-0.5,3.3c-0.3,1.8-1.8,3.1-3.6,3.1h-7.4c-0.9,0-1.7-0.3-2.4-0.9l-0.8-0.7
			c-2.4,1.1-5.1,1.6-7.8,1.6h-6.3C151.7,217.8,143.2,221.2,132.6,221.2z"/>
		<polygon class="st1" points="80.6,70.6 69.3,68.4 66.2,80.1 69.9,84.6 81.2,86.8 84.3,75.1 		"/>
		<polygon class="st2" points="21.9,44.9 21.9,28.8 10.7,15.5 3.7,15.5 3.7,52 14.9,65.3 33.6,65.3 33.6,58.2 22.4,44.9 		"/>
		<path class="st2" d="M194.9,35.9v-7.1l-5.6-6.4v-0.1l2.9-5.3L181.3,3.7h-6.2l-2.7,8.1l3.4,3.7h-10.5v2.9h-0.1l-2-2.9l-21.4,0
			l-0.1,3.3h-0.2l-2.4-3.3h-7.1l0,6l-4.7-6h-6.8l-6.2,14.4l-0.5-1.1l-11-13.3h-6.8v6H96l-4.7-6h-7.1v31.2h-0.1v-0.2h-0.2v-0.2h-0.2
			V46h-0.2v-0.2h-0.2v-0.2h-0.2v-0.2h-0.2v-0.2h-0.7V28.8l-11-13.3h-7l0,30.9l-1.2-1.6h-0.6V28.6l-11.1-13h-7l0.1,5.7h-0.1l-4.8-5.7
			h-7l0,4.1l0,0c0,0-3-3.6-3.1-3.7c-0.7-0.8-1.8-1.3-2.8-1.2c-1,0.1-2,0.6-2.7,1.4c-0.7,0.7-1.1,1.7-1.1,2.7c0,0.8,0.2,1.6,0.7,2.3
			c0.1,0.1,0.1,0.1,0.2,0.2l0,0c0.1,0.1,0.1,0.1,0.2,0.2l0,0c0.1,0.1,0.1,0.1,0.2,0.2l0,0c0.1,0.1,0.1,0.1,0.2,0.2l0,0
			c0.1,0.1,0.1,0.1,0.2,0.2l0,0c0.1,0.1,0.1,0.1,0.2,0.2l0,0c0.1,0.1,0.1,0.1,0.2,0.2l0,0c0,0.1,0.1,0.1,0.1,0.2
			c-0.6,0.3-1.2,0.5-1.9,0.6l0.7,3.4c0,0,8.6,10.2,8.6,10.2c0,0,0.2,0.2,0.2,0.2c0,0,0,0,0,0v14.9l11,13.1h7.1v-5.8l4.7,5.8h18.7
			v-1.6l1.2,1.6h18.7v-1.6l1.2,1.6h7.1v-5.8l4.7,5.8h7V55.1l7.5,9.1h2.2l2.3-5.3l5.2,6.4h7.1v-5.8l4.7,5.8h7.1V53.5l9.8,11.8h7.1
			V54.2l9.3,11.1H195v-7.1l-6.5-7.6h3.8v-7l-6.5-7.5v-0.1H194.9z"/>
		<path class="st3" d="M10.7,15.5v29.4h11.7v7H3.7V15.5H10.7z"/>
		<path class="st3" d="M29.5,16c0.7,0.8,1,1.9,1,3c0.1,1.9-0.6,3.7-1.9,5.1c-1.3,1.4-3,2.3-4.8,2.6l-0.7-3.4
			c0.9-0.1,1.7-0.4,2.4-0.9c-0.8-0.2-1.5-0.7-1.9-1.4c-0.5-0.7-0.7-1.4-0.7-2.3c0-2.1,1.7-3.8,3.8-3.8C27.7,14.7,28.8,15.2,29.5,16z
			"/>
		<path class="st3" d="M32.6,15.5h7.1V52h-7.1V15.5z"/>
		<path class="st3" d="M51.5,15.5v29.4h11.7v7H44.4V15.5H51.5z"/>
		<path class="st3" d="M71.4,15.5v29.4h11.7v7H64.3V15.5H71.4z"/>
		<path class="st3" d="M84.3,15.5h7.1V52h-7.1V15.5z"/>
		<path class="st3" d="M127.4,15.5V52h-7.1V33.6l-7.5,17.2h-2.2l-7.5-17.2V52h-7V15.5h6.8l8.8,20.2l8.8-20.2L127.4,15.5z"/>
		<path class="st3" d="M132.2,15.5h7.1V52h-7.1V15.5z"/>
		<path class="st3" d="M163.2,15.5v7h-7.2V52H149V22.6h-7.2v-7H163.2z"/>
		<path class="st3" d="M184,15.5v7.1h-11.7v7.6h9v7h-9v7.6H184V52h-18.7V15.5H184z M181.3,3.7l-4.3,7.9h-4.6l2.7-7.9L181.3,3.7z"/>
		<polygon class="st4" points="3.7,15.5 3.7,52 22.4,52 22.4,44.9 10.8,44.9 10.8,15.5 		"/>
		<polygon class="st5" points="93.5,67 51.3,72.6 49.9,60.6 92,55 		"/>
		<polygon class="st5" points="93.6,67.1 51.4,72.7 49.9,60.6 92.1,55 		"/>
		<polygon class="st2" points="98.6,69.8 97.1,57.8 97,57.8 97,57.7 97,57.7 97,57.7 96.9,57.7 96.9,57.6 96.8,57.6 96.8,57.6 
			96.7,57.6 96.7,57.5 96.6,57.5 96.6,57.5 96.5,57.5 96.5,57.4 96.5,57.5 96.5,57.4 96.4,57.4 96.4,57.4 96.3,57.4 96.3,57.3 
			96.2,57.3 96.2,57.3 96.1,57.3 96.1,57.2 96,57.2 96,57.2 96,57.2 96,57.1 95.9,57.1 95.9,57.1 95.8,57.1 95.8,57 95.7,57 
			95.7,57 95.6,57 95.6,56.9 95.5,57 95.5,56.9 95.5,56.9 95.5,56.8 95.4,56.9 95.4,56.8 95.3,56.8 95.3,56.8 95.2,56.8 95.2,56.7 
			95.1,56.7 95.1,56.7 95,56.7 95,56.6 95,56.6 95,56.6 94.9,56.6 94.9,56.5 94.8,56.5 94.8,56.5 94.7,56.5 94.7,56.4 94.6,56.4 
			94.6,56.4 94.5,56.4 94.5,56.3 94.5,56.4 94.5,56.3 94.4,56.3 94.4,56.3 94.3,56.3 94.3,56.2 94.2,56.2 94.2,56.2 94.1,56.2 
			94.1,56.1 94,56.1 94,56.1 94,56.1 94,56 93.9,56 93.9,56 93.8,56 93.8,55.9 93.7,55.9 93.7,55.9 93.6,55.9 93.6,55.8 93.5,55.8 
			93.5,55.8 93.5,55.8 93.5,55.7 93.4,55.8 93.4,55.7 93.3,55.7 93.3,55.7 93.2,55.7 93.2,55.6 93.1,55.6 93.1,55.6 93,55.6 
			93,55.5 93,55.5 93,55.5 92.9,55.5 92.9,55.4 92.8,55.4 92.8,55.4 92.7,55.4 92.7,55.3 92.6,55.3 92.6,55.3 92.6,55.3 92.5,55.2 
			92.5,55.3 92.5,55.2 92.4,55.2 92.4,55.2 92.3,55.2 92.3,55.1 92.2,55.1 92.2,55.1 50,60.7 51.4,72.7 56.4,75.4 		"/>
		<polygon class="st6" points="93.5,67 51.3,72.6 49.9,60.6 92,55 		"/>
		<polygon class="st7" points="77.6,82.3 66.2,80.1 69.3,68.4 80.6,70.6 		"/>
		<path class="st5" d="M56.6,62.6l2.8,7.2L58,70l-0.4-1.1l-2,0.2l-0.2,1.2l-1.5,0.2l1-7.7L56.6,62.6z M55.5,60.3l0.8,1.5l-0.9,0.1
			l-1.1-1.5L55.5,60.3z M55.7,67.7l1.3-0.2l-0.9-2.3L55.7,67.7z"/>
		<path class="st5" d="M63,66.3l0.4,3l-1.4,0.2L61,62.1l2.7-0.3c1.2-0.1,2.3,0.7,2.5,1.9c0.1,1.2-0.7,2.3-1.9,2.5L63,66.3z
			 M62.6,63.3l0.2,1.6l1.3-0.2c0.4-0.1,0.7-0.4,0.7-0.9c-0.1-0.4-0.4-0.7-0.9-0.7L62.6,63.3z"/>
		<path class="st5" d="M69.2,61.1l2.8,7.2l-1.5,0.2l-0.4-1.1l-2,0.2l-0.2,1.2l-1.5,0.2l1-7.7L69.2,61.1z M68.3,66.1l1.3-0.2
			l-0.9-2.3L68.3,66.1z"/>
		<path class="st5" d="M73.6,65l0.4,3l-1.4,0.2l-0.9-7.4l2.7-0.3c1.2-0.2,2.3,0.7,2.5,1.9c0.1,0.5,0,0.9-0.2,1.3
			c-0.2,0.4-0.5,0.7-1,0.9l1.7,3l-1.6,0.2l-1.6-2.8L73.6,65z M73.3,62l0.2,1.6l1.3-0.2c0.4,0,0.7-0.4,0.7-0.9c0-0.2-0.1-0.4-0.3-0.5
			c-0.2-0.1-0.4-0.2-0.6-0.2L73.3,62z"/>
		<path class="st5" d="M81.4,59.5l0.2,1.4l-1.5,0.2l0.7,6l-1.4,0.2l-0.7-6l-1.5,0.2L77,60.1L81.4,59.5z"/>
		<path class="st5" d="M82,59.5l1.4-0.2l0.9,7.4l-1.4,0.2L82,59.5z"/>
		<path class="st5" d="M86.6,63.4l0.4,3l-1.4,0.2l-0.9-7.4l2.7-0.3c1.2-0.1,2.3,0.7,2.5,1.9c0.1,0.9-0.4,1.8-1.2,2.3l1.7,3l-1.6,0.2
			l-1.6-2.8L86.6,63.4z M86.2,60.4l0.2,1.6l1.3-0.2c0.4-0.1,0.7-0.4,0.7-0.9c-0.1-0.4-0.4-0.7-0.9-0.7L86.2,60.4z"/>
		<path class="st5" d="M72,71.2c1.4,0.3,2.2,1.6,1.9,3l-0.6,2.5c-0.3,1.3-1.6,2.1-2.9,1.8L68,78l1.6-7.3L72,71.2z M70.7,72.4l-1,4.5
			l1.1,0.2c0.5,0.1,1-0.2,1.2-0.7l0.6-2.5c0.1-0.6-0.2-1.1-0.8-1.3L70.7,72.4z"/>
		<path class="st5" d="M79,72.7l-0.3,1.4l-2.3-0.5L76,75.2l1.8,0.4L77.5,77l-1.8-0.4l-0.3,1.5l2.3,0.5L77.4,80l-3.8-0.8l1.6-7.3
			L79,72.7z"/>
		<path class="st8" d="M152.4,102.7c-0.1-0.1-23.3-21.2-23.5-21.3c-5.2-4.9-12.6-7.6-22-7.6c-1.2,0-2.5,0-3.6,0.1
			c-11.9,0.9-20.1,6.5-24.2,15.9c-0.5,1.1-0.9,2.3-1.3,3.5l-13.7-9.9c-0.2-0.1-5.2-3.8-5.4-3.9l0,0l0,0c-4.9-3.7-11.4-5.7-19.6-5.7
			c-20,0-30.3,11.8-30.3,32.6v7L35.1,128h-6.2v18.5l19.6,9.6c0.4,2.3,0.6,4.6,0.6,6.8v9.8L28,162.9H8.8v10.7
			c0,15.8,6,26.4,17.7,30.6c0.3,0.1,32.1,11.3,32.3,11.3c3.9,1.4,8,2.1,12.1,2c11.8,0,20-4.5,24.3-12.9l23.9,10.3
			c4.3,1.8,9,2.7,13.6,2.6c18.3,0,28.3-10.9,28.3-29.9v-61.8C160.9,115.6,158,107.7,152.4,102.7z"/>
		<path class="st0" d="M49.1,107.1c0-11.7-4.1-14.8-10.5-14.8S28,95.8,28,105v8.3H8.8v-7c0-20.7,10.4-32.6,30.3-32.6
			s30.3,11.8,30.3,32.6v3.3c0,13.9-4.4,22.6-14.2,26.6c10.2,4.4,14.2,14.1,14.2,27.2v10.2c0,20.7-10.4,32.6-30.3,32.6
			S8.8,194.4,8.8,173.6v-10.7H28v12c0,9.2,4.1,12.8,10.5,12.8s10.5-3.1,10.5-14.6v-10.2c0-12-4.1-16.5-13.3-16.5h-6.8V128h8
			c7.6,0,12.2-3.3,12.2-13.7V107.1z"/>
		<path class="st0" d="M76,106.3c0-20.7,10.9-32.5,30.9-32.5s30.9,11.8,30.9,32.5v67.3c0,20.7-10.9,32.6-30.9,32.6
			S76,194.4,76,173.6L76,106.3z M96.4,174.9c0,9.2,4.1,12.8,10.5,12.8s10.5-3.5,10.5-12.8V105c0-9.2-4.1-12.8-10.5-12.8
			S96.4,95.8,96.4,105V174.9z"/>
		<path class="st9" d="M194.6,156l-7.2-7.5h-12.1l-1.9,11.8c-0.4-0.5-0.8-1-1.3-1.5c0,0-7.8-7.2-7.8-7.2l-0.1-0.1c-2-1.9-5-3-8.8-3
			h-13l-0.1,52.5l8.5,6.5h12.8c3.5,0,6.2-0.8,8.2-2.4l2.8,2.4h7.4l1.4-9.3h3.7l0.4,2.9l7.2,6.5h8.2L194.6,156z M159.3,163.4v24.8
			c0,1-0.1,2-0.5,3v-27.8H159.3z"/>
		<path class="st0" d="M142.2,148.5h13.1c8.3,0,12.3,4.6,12.3,13v26.6c0,8.4-4.1,13-12.3,13h-13.1V148.5z M150.5,156v37.5h4.7
			c2.6,0,4.2-1.4,4.2-5.1v-27.3c0-3.8-1.6-5.1-4.2-5.1L150.5,156z"/>
		<path class="st10" d="M150.5,156v37.5h4.7c2.6,0,4.2-1.4,4.2-5.1v-27.3c0-3.8-1.6-5.1-4.2-5.1L150.5,156z"/>
		<path class="st0" d="M195.7,201.1h-8.3l-1.4-9.5h-10.1l-1.4,9.5h-7.6l8.4-52.5h12.1L195.7,201.1z M176.9,184.4h8l-4-26.6
			L176.9,184.4z"/>
	</g>
</g>
</svg>
