<?xml version="1.0" encoding="utf-8"?>
<!-- Generator: Adobe Illustrator 25.0.1, SVG Export Plug-In . SVG Version: 6.00 Build 0)  -->
<svg version="1.1" id="Layer_1" xmlns="http://www.w3.org/2000/svg" xmlns:xlink="http://www.w3.org/1999/xlink" x="0px" y="0px"
	 viewBox="0 0 449.3 428.7" style="enable-background:new 0 0 449.3 428.7;" xml:space="preserve">
<style type="text/css">
	.st0{fill:#5A2AFF;}
</style>
<g>
	<g>
		<g id="Layer_2_5_">
			<g id="Calque_1_4_">
				<path id="Path_75_4_" d="M324.3,111.2V316l-37.7-37.7c-2.8-2.8-7.1-2.8-9.9,0l0,0l-22.3,21.9c-2.8,2.8-2.8,7.1,0,9.9l0,0
					l88.4,88.4c2.8,2.8,7.1,2.8,9.9,0l0,0l88.4-88.4c2.6-2.8,2.6-7.1,0-9.9l-21.9-21.9c-2.8-2.8-7.1-2.8-9.9,0l0,0L371.3,316V111.2
					c0-3.7-3-6.9-6.9-6.9l0,0h-33.7c-3.9,0-6.9,3.2-7.1,6.9l0,0H324.3L324.3,111.2z"/>
				<path id="Path_76_4_" d="M230.6,394.9V190.1l37.7,37.7c2.8,2.8,7.1,2.8,9.7,0l0,0l0,0l21.9-21.9c2.8-2.8,2.8-7.1,0-9.7l0,0l0,0
					l-88.4-88.4c-2.8-2.8-7.1-2.8-9.7,0l0,0l0,0l-88.4,88.4c-2.6,2.8-2.6,6.9,0,9.7l0,0l0,0l21.9,21.9c2.8,2.8,7.1,2.8,9.9,0l0,0
					l37.7-37.7v204.9c0,3.7,3,6.9,6.9,6.9l0,0h33.9C227.5,401.8,230.4,398.6,230.6,394.9z"/>
			</g>
		</g>
		<g>
			<path d="M322.3,109.9v204.7l-37.7-37.9c-2.8-2.8-7.1-2.8-9.9,0l0,0l-22.3,21.9c-2.8,2.8-2.8,7.1,0,9.9l0,0l88.4,88.4
				c2.8,2.8,7.1,2.8,9.9,0l0,0l88.4-88.4c2.6-2.8,2.6-7.1,0-9.9l-21.5-21.9c-2.8-2.8-7.1-2.8-9.9,0l0,0l-38.1,37.7V109.9
				c0-3.7-3-6.9-6.9-6.9l0,0h-33.7c-3.9,0-6.9,3.2-7.1,6.9l0,0H322.3L322.3,109.9z"/>
			<path d="M228.7,393.3V188.6l37.7,37.7c2.8,2.8,7.1,2.8,9.7,0l0,0l0,0l21.9-21.9c2.8-2.8,2.8-7.1,0-9.7l0,0l0,0l-88.4-88.4
				c-2.8-2.8-7.1-2.8-9.7,0l0,0l0,0l-88.4,88.4c-2.6,2.8-2.6,6.9,0,9.7l0,0l0,0l21.9,21.9c2.8,2.8,7.1,2.8,9.9,0l0,0l37.7-37.7
				v204.9c0,3.7,3,6.9,6.9,6.9l0,0h33.9C225.5,400.2,228.7,397,228.7,393.3z"/>
		</g>
		<g>
			<path d="M320.6,108.3V313l-37.7-37.7c-2.8-2.8-7.1-2.8-9.9,0l0,0l-22.3,21.9c-2.8,2.8-2.8,7.1,0,9.9l0,0l88.4,88.4
				c2.8,2.8,7.1,2.8,9.9,0l0,0l88.4-88.4c2.6-2.8,2.6-7.1,0-9.9l-21.9-21.9c-2.8-2.8-7.1-2.8-9.9,0l0,0L367.5,313V108.3
				c0-3.7-3-6.9-6.9-6.9l0,0h-33.5c-3.9,0-6.9,3.2-7.1,6.9l0,0H320.6L320.6,108.3z"/>
			<path d="M226.9,391.7V187l37.7,37.7c2.8,2.8,7.1,2.8,9.7,0l0,0l0,0l21.9-21.9c2.8-2.8,2.8-7.1,0-9.7l0,0l0,0l-88.4-88.4
				c-2.8-2.8-7.1-2.8-9.7,0l0,0l0,0l-88.4,88.4c-2.6,2.8-2.6,6.9,0,9.7l0,0l0,0l21.9,21.9c2.8,2.8,7.1,2.8,9.9,0l0,0l37.7-37.7
				v204.9c0,3.7,3,6.9,6.9,6.9l0,0H220C223.7,398.6,226.9,395.7,226.9,391.7z"/>
		</g>
		<g>
			<path d="M318.8,106.7v204.7l-37.7-37.7c-2.8-2.8-7.1-2.8-9.9,0l0,0L249,295.7c-2.8,2.8-2.8,7.1,0,9.9l0,0l88.4,88.4
				c2.8,2.8,7.1,2.8,9.9,0l0,0l88.4-88.4c2.6-2.8,2.6-7.1,0-9.9l-21.7-21.9c-2.8-2.8-7.1-2.8-9.9,0l0,0l-38.1,37.7V106.7
				c0-3.7-3-6.9-6.9-6.9l0,0h-33.7c-3.9,0-6.9,3.2-7.1,6.9l0,0H318.8L318.8,106.7z"/>
			<path d="M224.9,390.3V185.6l37.7,37.7c2.8,2.8,7.1,2.8,9.7,0l0,0l0,0l21.9-21.9c2.8-2.8,2.8-7.1,0-9.7l0,0l0,0L206,103.2
				c-2.8-2.8-7.1-2.8-9.7,0l0,0l0,0L108,191.5c-2.6,2.8-2.6,6.9,0,9.7l0,0l0,0l21.9,21.9c2.8,2.8,7.1,2.8,9.9,0l0,0l37.7-37.7v204.9
				c0,3.7,3,6.9,6.9,6.9l0,0h33.9C221.8,397.2,224.9,394.1,224.9,390.3z"/>
		</g>
		<g>
			<path d="M316.8,105.3v204.7l-37.7-37.7c-2.8-2.8-7.1-2.8-9.9,0l0,0L247,294.3c-2.8,2.8-2.8,7.1,0,9.9l0,0l88.4,88.4
				c2.8,2.8,7.1,2.8,9.9,0l0,0l88.4-88.4c2.6-2.8,2.6-7.1,0-9.9l-21.7-22.1c-2.8-2.8-7.1-2.8-9.9,0l0,0L364,309.9V105.1
				c0-3.7-3-6.9-6.9-6.9l0,0h-33.7c-3.9,0-6.9,3.2-7.1,6.9l0,0L316.8,105.3L316.8,105.3z"/>
			<path d="M223.1,388.7V184l37.7,37.7c2.8,2.8,7.1,2.8,9.7,0l0,0l0,0l21.9-21.9c2.8-2.8,2.8-7.1,0-9.7l0,0l0,0L204,101.8
				c-2.8-2.8-7.1-2.8-9.7,0l0,0l0,0L106,189.9c-2.6,2.8-2.6,6.9,0,9.7l0,0l0,0l21.9,21.9c2.8,2.8,7.1,2.8,9.9,0l0,0l37.7-37.7v204.9
				c0,3.7,3,6.9,6.9,6.9l0,0h33.9C220,395.7,223.1,392.5,223.1,388.7z"/>
		</g>
		<g>
			<path d="M315,103.8v204.7l-37.7-37.7c-2.8-2.8-7.1-2.8-9.9,0l0,0l-22.3,21.7c-2.8,2.8-2.8,7.1,0,9.9l0,0l88.4,88.4
				c2.8,2.8,7.1,2.8,9.9,0l0,0l88.4-88.4c2.6-2.8,2.6-7.1,0-9.9l-21.9-21.9c-2.8-2.8-7.1-2.8-9.9,0l0,0L362,308.3V103.8
				c0-3.7-3-6.9-6.9-6.9l0,0h-33.7c-3.9,0-6.9,3.2-7.1,6.9l0,0H315L315,103.8z"/>
			<path d="M221.2,387.2V182.4l37.7,37.7c2.8,2.8,7.1,2.8,9.7,0l0,0l0,0l21.9-21.9c2.8-2.8,2.8-7.1,0-9.7l0,0l0,0L202,100.2
				c-2.8-2.8-7.1-2.8-9.7,0l0,0l0,0L104,188.6c-2.6,2.8-2.6,6.9,0,9.7l0,0l0,0l21.9,21.9c2.8,2.8,7.1,2.8,9.9,0l0,0l37.7-37.7v204.7
				c0,3.7,3,6.9,6.9,6.9l0,0h33.9C218,394.1,221.2,391.1,221.2,387.2z"/>
		</g>
		<g>
			<path d="M313.1,102.2v204.7l-37.7-37.7c-2.8-2.8-7.1-2.8-9.9,0l0,0l-22.3,21.9c-2.8,2.8-2.8,7.1,0,9.9l0,0l88.4,88.4
				c2.8,2.8,7.1,2.8,9.9,0l0,0l88.4-88.4c2.6-2.8,2.6-7.1,0-9.9l-21.9-21.9c-2.8-2.8-7.1-2.8-9.9,0l0,0L360,306.9V102.2
				c0-3.7-3-6.9-6.9-6.9l0,0h-33.7c-3.9,0-6.9,3.2-7.1,6.9l0,0H313.1L313.1,102.2z"/>
			<path d="M219.4,385.6V180.9l37.7,37.7c2.8,2.8,7.1,2.8,9.7,0l0,0l0,0l21.9-21.9c2.8-2.8,2.8-7.1,0-9.7l0,0l0,0l-88.4-88.4
				c-2.8-2.8-7.1-2.8-9.7,0l0,0l0,0L102.2,187c-2.6,2.8-2.6,6.9,0,9.7l0,0l0,0l21.9,21.9c2.8,2.8,7.1,2.8,9.9,0l0,0l37.7-37.7v204.9
				c0,3.7,3,6.9,6.9,6.9l0,0h33.9C216.2,392.7,219.4,389.5,219.4,385.6z"/>
		</g>
		<g>
			<path d="M311.3,100.6v204.7l-37.7-37.7c-2.8-2.8-7.1-2.8-9.9,0l0,0l-22.3,21.9c-2.8,2.8-2.8,7.1,0,9.9l0,0l88.4,88.4
				c2.8,2.8,7.1,2.8,9.9,0l0,0l88.4-88.4c2.6-2.8,2.6-7.1,0-9.9l-21.9-21.9c-2.8-2.8-7.1-2.8-9.9,0l0,0l-38.1,37.7V100.6
				c0-3.7-3-6.9-6.9-6.9l0,0h-33.7c-3.9,0-6.9,3.2-7.1,6.9l0,0H311.3L311.3,100.6z"/>
			<path d="M217.4,384.2V179.5l37.7,37.7c2.8,2.8,7.1,2.8,9.7,0l0,0l0,0l21.9-21.9c2.8-2.8,2.8-7.1,0-9.7l0,0l0,0l-88.4-88.4
				c-2.8-2.8-7.1-2.8-9.7,0l0,0l0,0l-88.4,88.2c-2.6,2.8-2.6,6.9,0,9.7l0,0l0,0l21.9,21.9c2.8,2.8,7.1,2.8,9.9,0l0,0l37.7-37.7
				v204.9c0,3.7,3,6.9,6.9,6.9l0,0h33.9C214.3,391.1,217.4,388,217.4,384.2z"/>
		</g>
		<g>
			<path d="M309.3,99.2v204.7l-37.7-37.7c-2.8-2.8-7.1-2.8-9.9,0l0,0l-22.3,21.9c-2.8,2.8-2.8,7.1,0,9.9l0,0l88.4,88.4
				c2.8,2.8,7.1,2.8,9.9,0l0,0l88.4-88.4c2.6-2.8,2.6-7.1,0-9.9l-21.9-21.9c-2.8-2.8-7.1-2.8-9.9,0l0,0l-37.7,37.5V99.2
				c0-3.7-3-6.9-6.9-6.9l0,0H316c-3.9,0-6.9,3.2-7.1,6.9l0,0H309.3L309.3,99.2z"/>
			<path d="M215.6,382.6V177.9l37.7,37.7c2.8,2.8,7.1,2.8,9.7,0l0,0l0,0l21.9-21.9c2.8-2.8,2.8-7.1,0-9.7l0,0l0,0l-88.4-88.4
				c-2.8-2.8-7.1-2.8-9.7,0l0,0l0,0L98.5,184c-2.6,2.8-2.6,6.9,0,9.7l0,0l0,0l21.9,21.9c2.8,2.8,7.1,2.8,9.9,0l0,0l37.7-37.7v204.9
				c0,3.7,3,6.9,6.9,6.9l0,0h33.9C212.5,389.5,215.6,386.4,215.6,382.6z"/>
		</g>
		<g>
			<path d="M307.6,97.6v204.7l-37.7-37.7c-2.8-2.8-7.1-2.8-9.9,0l0,0l-22.3,21.9c-2.8,2.8-2.8,7.1,0,9.9l0,0l88.4,88.4
				c2.8,2.8,7.1,2.8,9.9,0l0,0l88.4-88.4c2.6-2.8,2.6-7.1,0-9.9l-21.9-21.9c-2.8-2.8-7.1-2.8-9.9,0l0,0l-37.9,37.7V97.6
				c0-3.7-3-6.9-6.9-6.9l0,0h-33.7c-3.9,0-6.9,3.2-7.1,6.9l0,0H307.6L307.6,97.6z"/>
			<path d="M213.7,381.1V176.3l37.7,37.7c2.8,2.8,7.1,2.8,9.7,0l0,0l0,0l21.9-21.9c2.8-2.8,2.8-7.1,0-9.7l0,0l0,0l-88.4-88.4
				c-2.8-2.8-7.1-2.8-9.7,0l0,0l0,0l-88.4,88.4c-2.6,2.8-2.6,6.9,0,9.7l0,0l0,0l21.9,21.9c2.8,2.8,7.1,2.8,9.9,0l0,0l37.7-37.7
				v204.9c0,3.7,3,6.9,6.9,6.9l0,0h33.9C210.7,388,213.7,385,213.7,381.1z"/>
		</g>
		<g>
			<path d="M305.6,96.1v204.7l-37.7-37.7c-2.8-2.8-7.1-2.8-9.9,0l0,0L235.8,285c-2.8,2.8-2.8,7.1,0,9.9l0,0l88.4,88.4
				c2.8,2.8,7.1,2.8,9.9,0l0,0l88.4-88.4c2.6-2.8,2.6-7.1,0-9.9l-21.9-21.9c-2.8-2.8-7.1-2.8-9.9,0l0,0l-38.1,37.7V96.1
				c0-3.7-3-6.9-6.9-6.9l0,0h-33.7c-3.9,0-6.9,3.2-7.1,6.9l0,0H305.6L305.6,96.1z"/>
			<path d="M211.9,379.7V175l37.7,37.7c2.8,2.8,7.1,2.8,9.7,0l0,0l0,0l21.9-21.9c2.8-2.8,2.8-7.1,0-9.7l0,0l0,0l-88.4-88.4
				c-2.8-2.8-7.1-2.8-9.7,0l0,0l0,0l-88.4,88.4c-2.6,2.8-2.6,6.9,0,9.7l0,0l0,0l21.9,21.9c2.8,2.8,7.1,2.8,9.9,0l0,0l37.7-37.7
				v204.9c0,3.7,3,6.9,6.9,6.9l0,0H205C208.7,386.6,211.9,383.4,211.9,379.7z"/>
		</g>
		<g>
			<path d="M303.8,94.7v204.7l-37.7-37.7c-2.8-2.8-7.1-2.8-9.9,0l0,0L234,283.6c-2.8,2.8-2.8,7.1,0,9.9l0,0l88.4,88.4
				c2.8,2.8,7.1,2.8,9.9,0l0,0l88.4-88.4c2.6-2.8,2.6-7.1,0-9.9l-21.9-21.9c-2.8-2.8-7.1-2.8-9.9,0l0,0l-38.1,37.7V94.5
				c0-3.7-3-6.9-6.9-6.9l0,0h-33.7c-3.9,0-6.9,3.2-7.1,6.9l0,0L303.8,94.7L303.8,94.7z"/>
			<path d="M209.9,378.1V173.4l37.7,37.7c2.8,2.8,7.1,2.8,9.7,0l0,0l0,0l21.9-21.9c2.8-2.8,2.8-7.1,0-9.7l0,0l0,0L191,90.9
				c-2.8-2.8-7.1-2.8-9.7,0l0,0l0,0L93,179.3c-2.6,2.8-2.6,6.9,0,9.7l0,0l0,0l21.9,21.9c2.8,2.8,7.1,2.8,9.9,0l0,0l37.7-37.7v204.9
				c0,3.7,3,6.9,6.9,6.9l0,0h33.9C207,385,209.9,381.8,209.9,378.1z"/>
		</g>
		<g>
			<path d="M301.8,93.1v204.7l-37.7-37.7c-2.8-2.8-7.1-2.8-9.9,0l0,0L232,282c-2.8,2.8-2.8,7.1,0,9.9l0,0l88.4,88.4
				c2.8,2.8,7.1,2.8,9.9,0l0,0l88.4-88.4c2.6-2.8,2.6-7.1,0-9.9l-21.9-21.9c-2.8-2.8-7.1-2.8-9.9,0l0,0l-38.1,37.7V93.1
				c0-3.7-3-6.9-6.9-6.9l0,0h-33.7c-3.9,0-6.9,3.2-7.1,6.9l0,0H301.8L301.8,93.1z"/>
			<path d="M208.2,376.5V171.8l37.7,37.7c2.8,2.8,7.1,2.8,9.7,0l0,0l0,0l21.9-21.9c2.8-2.8,2.8-7.1,0-9.7l0,0l0,0L189,89.4
				c-2.8-2.8-7.1-2.8-9.7,0l0,0l0,0L91,177.7c-2.6,2.8-2.6,6.9,0,9.7l0,0l0,0l21.9,21.9c2.8,2.8,7.1,2.8,9.9,0l0,0l37.7-37.7v204.9
				c0,3.7,3,6.9,6.9,6.9l0,0h33.9C205,383.4,208.2,380.5,208.2,376.5z"/>
		</g>
		<g>
			<path d="M300.1,91.5v204.7l-37.7-37.7c-2.8-2.8-7.1-2.8-9.9,0l0,0l-22.3,21.9c-2.8,2.8-2.8,7.1,0,9.9l0,0l88.4,88.4
				c2.8,2.8,7.1,2.8,9.9,0l0,0l88.4-88.4c2.6-2.8,2.6-7.1,0-9.9l-21.9-21.9c-2.8-2.8-7.1-2.8-9.9,0l0,0L347,296.2V91.5
				c0-3.7-3-6.9-6.9-6.9l0,0h-33.7c-3.9,0-6.9,3.2-7.1,6.9l0,0H300.1L300.1,91.5z"/>
			<path d="M206.2,375.1V170.2l37.7,37.7c2.8,2.8,7.1,2.8,9.7,0l0,0l0,0l21.9-21.9c2.8-2.8,2.8-7.1,0-9.7l0,0l0,0L187,88
				c-2.8-2.8-7.1-2.8-9.7,0l0,0l0,0L89,176.3c-2.6,2.8-2.6,6.9,0,9.7l0,0l0,0l21.9,21.9c2.8,2.8,7.1,2.8,9.9,0l0,0l37.7-37.7v204.9
				c0,3.7,3,6.9,6.9,6.9l0,0h33.9C203.2,382,206.2,378.9,206.2,375.1z"/>
		</g>
		<g>
			<path d="M298.1,89.9v204.7L260.4,257c-2.8-2.8-7.1-2.8-9.9,0l0,0l-22.1,21.9c-2.8,2.8-2.8,7.1,0,9.9l0,0l88.4,88.4
				c2.8,2.8,7.1,2.8,9.9,0l0,0l88.4-88.4c2.6-2.8,2.6-7.1,0-9.9L393.2,257c-2.8-2.8-7.1-2.8-9.9,0l0,0l-38.1,37.7V89.9
				c0-3.7-3-6.9-6.9-6.9l0,0h-33.7c-3.9,0-6.9,3.2-7.1,6.9l0,0H298.1L298.1,89.9z"/>
			<path d="M204.4,373.6V168.8l37.7,37.7c2.8,2.8,7.1,2.8,9.7,0l0,0l0,0l21.9-21.9c2.8-2.8,2.8-7.1,0-9.7l0,0l0,0l-88.4-88.4
				c-2.8-2.8-7.1-2.8-9.7,0l0,0l0,0L87.3,175c-2.6,2.8-2.6,6.9,0,9.7l0,0l0,0l21.9,21.9c2.8,2.8,7.1,2.8,9.9,0l0,0l37.7-37.7v204.9
				c0,3.7,3,6.9,6.9,6.9l0,0h33.9C201.2,380.5,204.4,377.3,204.4,373.6z"/>
		</g>
		<g>
			<path d="M296.3,88.6v204.7l-37.7-37.7c-2.8-2.8-7.1-2.8-9.9,0l0,0l-22.3,21.7c-2.8,2.8-2.8,7.1,0,9.9l0,0l88.4,88.4
				c2.8,2.8,7.1,2.8,9.9,0l0,0l88.4-88.4c2.6-2.8,2.6-7.1,0-9.9l-21.9-21.9c-2.8-2.8-7.1-2.8-9.9,0l0,0l-38.1,37.7V88.6
				c0-3.7-3-6.9-6.9-6.9l0,0h-33.7c-3.9,0-6.9,3.2-7.1,6.9l0,0H296.3L296.3,88.6z"/>
			<path d="M202.4,372V167.3l37.7,37.7c2.8,2.8,7.1,2.8,9.7,0l0,0l0,0l21.9-21.9c2.8-2.8,2.8-7.1,0-9.7l0,0l0,0L183.3,85
				c-2.8-2.8-7.1-2.8-9.7,0l0,0l0,0l-88.4,88.4c-2.6,2.8-2.6,6.9,0,9.7l0,0l0,0l21.9,21.9c2.8,2.8,7.1,2.8,9.9,0l0,0l37.7-37.7
				v204.9c0,3.7,3,6.9,6.9,6.9l0,0h33.9C199.5,378.9,202.4,375.7,202.4,372z"/>
		</g>
		<g>
			<path d="M294.3,87v204.7L256.7,254c-2.8-2.8-7.1-2.8-9.9,0l0,0l-22.3,21.9c-2.8,2.8-2.8,7.1,0,9.9l0,0l88.4,88.4
				c2.8,2.8,7.1,2.8,9.9,0l0,0l88.4-88.4c2.6-2.8,2.6-7.1,0-9.9L389.2,254c-2.8-2.8-7.1-2.8-9.9,0l0,0l-38.1,37.7V87
				c0-3.7-3-6.9-6.9-6.9l0,0h-33.7c-3.9,0-6.9,3.2-7.1,6.9l0,0H294.3L294.3,87z"/>
			<path d="M200.7,370.4V165.7l37.7,37.7c2.8,2.8,7.1,2.8,9.7,0l0,0l0,0l21.9-21.9c2.8-2.8,2.8-7.1,0-9.7l0,0l0,0l-88.4-88.4
				c-2.8-2.8-7.1-2.8-9.7,0l0,0l0,0l-88.4,88.4c-2.6,2.8-2.6,6.9,0,9.7l0,0l0,0l21.9,21.9c2.8,2.8,7.1,2.8,9.9,0l0,0l37.7-37.7
				v204.9c0,3.7,3,6.9,6.9,6.9l0,0h33.9C197.5,377.3,200.7,374.4,200.7,370.4z"/>
		</g>
		<g>
			<path d="M292.6,85.4v204.7l-37.7-37.7c-2.8-2.8-7.1-2.8-9.9,0l0,0l-22.3,21.9c-2.8,2.8-2.8,7.1,0,9.9l0,0l88.4,88.4
				c2.8,2.8,7.1,2.8,9.9,0l0,0l88.4-88.4c2.6-2.8,2.6-7.1,0-9.9l-21.9-21.9c-2.8-2.8-7.1-2.8-9.9,0l0,0l-38.1,37.7V85.4
				c0-3.7-3-6.9-6.9-6.9l0,0h-33.7c-3.9,0-6.9,3.2-7.1,6.9l0,0H292.6L292.6,85.4z"/>
			<path d="M198.9,369V164.3l37.7,37.7c2.8,2.8,7.1,2.8,9.7,0l0,0l0,0l21.9-21.9c2.8-2.8,2.8-7.1,0-9.7l0,0l0,0l-88.4-88.4
				c-2.8-2.8-7.1-2.8-9.7,0l0,0l0,0l-88.6,88.2c-2.6,2.8-2.6,6.9,0,9.7l0,0l0,0l21.9,21.9c2.8,2.8,7.1,2.8,9.9,0l0,0l37.7-37.7V369
				c0,3.7,3,6.9,6.9,6.9l0,0h33.9C195.7,375.9,198.7,372.8,198.9,369z"/>
		</g>
		<g>
			<path d="M290.6,84v204.7l-37.7-37.7c-2.8-2.8-7.1-2.8-9.9,0l0,0L221,272.8c-2.8,2.8-2.8,7.1,0,9.9l0,0l88.4,88.4
				c2.8,2.8,7.1,2.8,9.9,0l0,0l88.4-88.4c2.6-2.8,2.6-7.1,0-9.9l-21.9-21.9c-2.8-2.8-7.1-2.8-9.9,0l0,0l-37.9,37.7V83.8
				c0-3.7-3-6.9-6.9-6.9l0,0h-33.7c-3.9,0-6.9,3.2-7.1,6.9l0,0L290.6,84L290.6,84z"/>
			<path d="M196.9,367.4V162.7l37.7,37.7c2.8,2.8,7.1,2.8,9.7,0l0,0l0,0l21.9-21.9c2.8-2.8,2.8-7.1,0-9.7l0,0l0,0l-88.4-88.4
				c-2.8-2.8-7.1-2.8-9.7,0l0,0l0,0l-88.4,88.4c-2.6,2.8-2.6,6.9,0,9.7l0,0l0,0l21.9,21.9c2.8,2.8,7.1,2.8,9.9,0l0,0l37.7-37.7
				v204.7c0,3.7,3,6.9,6.9,6.9l0,0H190C193.8,374.4,196.9,371.2,196.9,367.4z"/>
		</g>
		<g>
			<path d="M288.8,82.5v204.7l-37.7-37.7c-2.8-2.8-7.1-2.8-9.9,0l0,0L219,271.4c-2.8,2.8-2.8,7.1,0,9.9l0,0l88.4,88.4
				c2.8,2.8,7.1,2.8,9.9,0l0,0l88.4-88.4c2.6-2.8,2.6-7.1,0-9.9l-21.9-21.9c-2.8-2.8-7.1-2.8-9.9,0l0,0l-38.1,37.7V82.5
				c0-3.7-3-6.9-6.9-6.9l0,0h-33.7c-3.9,0-6.9,3.2-7.1,6.9l0,0H288.8L288.8,82.5z"/>
			<path d="M195.1,365.9V161.1l37.7,37.7c2.8,2.8,7.1,2.8,9.7,0l0,0l0,0l21.9-21.9c2.8-2.8,2.8-7.1,0-9.7l0,0l0,0L176,78.9
				c-2.8-2.8-7.1-2.8-9.7,0l0,0l0,0L78,167.3c-2.6,2.8-2.6,6.9,0,9.7l0,0l0,0l21.9,21.9c2.8,2.8,7.1,2.8,9.9,0l0,0l37.7-37.7v204.9
				c0,3.7,3,6.9,6.9,6.9l0,0h33.9C192,372.8,195.1,369.8,195.1,365.9z"/>
		</g>
		<g>
			<path d="M287,80.9v204.7l-37.7-37.7c-2.8-2.8-7.1-2.8-9.9,0l0,0l-22.3,21.9c-2.8,2.8-2.8,7.1,0,9.9l0,0l88.4,88.4
				c2.8,2.8,7.1,2.8,9.9,0l0,0l88.4-88.4c2.6-2.8,2.6-7.1,0-9.9l-21.9-21.9c-2.8-2.8-7.1-2.8-9.9,0l0,0L334,285.6V80.9
				c0-3.7-3-6.9-6.9-6.9l0,0h-33.5c-3.9,0-6.9,3.2-7.1,6.9l0,0H287L287,80.9z"/>
			<path d="M193.2,364.5V159.6l37.7,37.7c2.8,2.8,7.1,2.8,9.7,0l0,0l0,0l21.9-21.9c2.8-2.8,2.8-7.1,0-9.7l0,0l0,0L174,77.3
				c-2.8-2.8-7.1-2.8-9.7,0l0,0l0,0L76,165.7c-2.6,2.8-2.6,6.9,0,9.7l0,0l0,0l21.9,21.9c2.8,2.8,7.1,2.8,9.9,0l0,0l37.7-37.7v204.9
				c0,3.7,3,6.9,6.9,6.9l0,0h33.9C190,371.4,193.2,368.2,193.2,364.5z"/>
		</g>
		<g>
			<path d="M285.1,79.3V284l-37.7-37.7c-2.8-2.8-7.1-2.8-9.9,0l0,0l-22.3,21.9c-2.8,2.8-2.8,7.1,0,9.9l0,0l88.4,88.4
				c2.8,2.8,7.1,2.8,9.9,0l0,0l88.4-88.4c2.6-2.8,2.6-7.1,0-9.9l-21.9-21.9c-2.8-2.8-7.1-2.8-9.9,0l0,0L332,284V79.3
				c0-3.7-3-6.9-6.9-6.9l0,0h-33.5c-3.9,0-6.9,3.2-7.1,6.9l0,0H285.1L285.1,79.3z"/>
			<path d="M191.4,362.9V158.2l37.7,37.7c2.8,2.8,7.1,2.8,9.7,0l0,0l0,0l21.9-21.9c2.8-2.8,2.8-7.1,0-9.7l0,0l0,0l-88.4-88.4
				c-2.8-2.8-7.1-2.8-9.7,0l0,0l0,0l-88.4,88.4c-2.6,2.8-2.6,6.9,0,9.7l0,0l0,0l21.9,21.9c2.8,2.8,7.1,2.8,9.9,0l0,0l37.7-37.7
				v204.9c0,3.7,3,6.9,6.9,6.9l0,0h33.9C188.2,369.8,191.4,366.7,191.4,362.9z"/>
		</g>
		<g>
			<path d="M283.3,77.9v204.7L245.6,245c-2.8-2.8-7.1-2.8-9.9,0l0,0l-22.3,21.9c-2.8,2.8-2.8,7.1,0,9.9l0,0l88.4,88.4
				c2.8,2.8,7.1,2.8,9.9,0l0,0l88.4-88.4c2.6-2.8,2.6-7.1,0-9.9l-21.7-22.1c-2.8-2.8-7.1-2.8-9.9,0l0,0l-38.1,37.9V77.9
				c0-3.7-3-6.9-6.9-6.9l0,0h-33.7c-3.9,0-6.9,3.2-7.1,6.9l0,0H283.3L283.3,77.9z"/>
			<path d="M189.4,361.3V156.6l37.7,37.7c2.8,2.8,7.1,2.8,9.7,0l0,0l0,0l21.9-21.9c2.8-2.8,2.8-7.1,0-9.7l0,0l0,0l-88.4-88.4
				c-2.8-2.8-7.1-2.8-9.7,0l0,0l0,0l-88.4,88.4c-2.6,2.8-2.6,6.9,0,9.7l0,0l0,0l21.9,21.9c2.8,2.8,7.1,2.8,9.9,0l0,0l37.7-37.9
				v204.9c0,3.7,3,6.9,6.9,6.9l0,0h33.9C186.3,368.2,189.4,365.1,189.4,361.3z"/>
		</g>
		<g>
			<path d="M281.3,76.3v204.7l-37.7-37.7c-2.8-2.8-7.1-2.8-9.9,0l0,0l-22.3,21.9c-2.8,2.8-2.8,7.1,0,9.9l0,0l88.4,88.4
				c2.8,2.8,7.1,2.8,9.9,0l0,0l88.4-88.4c2.6-2.8,2.6-7.1,0-9.9l-21.7-21.9c-2.8-2.8-7.1-2.8-9.9,0l0,0l-38.1,37.7V76.3
				c0-3.7-3-6.9-6.9-6.9l0,0h-33.7c-3.9,0-6.9,3.2-7.1,6.9l0,0H281.3L281.3,76.3z"/>
			<path d="M187.6,359.8V155l37.7,37.7c2.8,2.8,7.1,2.8,9.7,0l0,0l0,0l21.9-21.9c2.8-2.8,2.8-7.1,0-9.7l0,0l0,0l-88.4-88.4
				c-2.8-2.8-7.1-2.8-9.7,0l0,0l0,0l-88.4,88.4c-2.6,2.8-2.6,6.9,0,9.7l0,0l0,0l21.9,21.9c2.8,2.8,7.1,2.8,9.9,0l0,0l37.7-37.7V360
				c0,3.7,3,6.9,6.9,6.9l0,0h33.9C184.5,366.7,187.6,363.7,187.6,359.8z"/>
		</g>
		<g>
			<path d="M279.5,74.8v204.7l-37.7-37.7c-2.8-2.8-7.1-2.8-9.9,0l0,0l-22.3,21.9c-2.8,2.8-2.8,7.1,0,9.9l0,0l88.4,88.4
				c2.8,2.8,7.1,2.8,9.9,0l0,0l88.4-88.4c2.6-2.8,2.6-7.1,0-9.9l-21.9-21.9c-2.8-2.8-7.1-2.8-9.9,0l0,0l-38.1,37.7V74.8
				c0-3.7-3-6.9-6.9-6.9l0,0h-33.7c-3.9,0-6.9,3.2-7.1,6.9l0,0H279.5L279.5,74.8z"/>
			<path d="M185.7,358.4V153.7l37.7,37.7c2.8,2.8,7.1,2.8,9.7,0l0,0l0,0l21.9-21.9c2.8-2.8,2.8-7.1,0-9.7l0,0l0,0l-88.4-88.4
				c-2.8-2.8-7.1-2.8-9.7,0l0,0l0,0l-88.4,88.4c-2.6,2.8-2.6,6.9,0,9.7l0,0l0,0l21.9,21.9c2.8,2.8,7.1,2.8,9.9,0l0,0l37.7-37.7
				v204.9c0,3.7,3,6.9,6.9,6.9l0,0h33.9C182.5,365.3,185.7,362.1,185.7,358.4z"/>
		</g>
		<g>
			<path d="M277.6,73.4v204.7l-37.7-37.7c-2.8-2.8-7.1-2.8-9.9,0l0,0l-22.3,21.9c-2.8,2.8-2.8,7.1,0,9.9l0,0l88.4,88.4
				c2.8,2.8,7.1,2.8,9.9,0l0,0l88.4-88.4c2.6-2.8,2.6-7.1,0-9.9l-21.9-21.9c-2.8-2.8-7.1-2.8-9.9,0l0,0l-38.1,37.7V73.2
				c0-3.7-3-6.9-6.9-6.9l0,0h-33.7c-3.9,0-6.9,3.2-7.1,6.9l0,0L277.6,73.4L277.6,73.4z"/>
			<path d="M183.9,356.8V152.1l37.7,37.7c2.8,2.8,7.1,2.8,9.7,0l0,0l0,0l21.9-21.9c2.8-2.8,2.8-7.1,0-9.7l0,0l0,0l-88.4-88.6
				c-2.8-2.8-7.1-2.8-9.7,0l0,0l0,0L66.7,158c-2.6,2.8-2.6,6.9,0,9.7l0,0l0,0l21.9,21.9c2.8,2.8,7.1,2.8,9.9,0l0,0l37.7-37.7v204.9
				c0,3.7,3,6.9,6.9,6.9l0,0H177C180.7,363.7,183.9,360.5,183.9,356.8z"/>
		</g>
		<g>
			<path d="M275.8,71.8v204.7l-37.7-37.7c-2.8-2.8-7.1-2.8-9.9,0l0,0L206,260.7c-2.8,2.8-2.8,7.1,0,9.9l0,0l88.4,88.4
				c2.8,2.8,7.1,2.8,9.9,0l0,0l88.4-88.4c2.6-2.8,2.6-7.1,0-9.9l-21.9-21.9c-2.8-2.8-7.1-2.8-9.9,0l0,0l-38.1,37.7V71.8
				c0-3.7-3-6.9-6.9-6.9l0,0h-33.7c-3.9,0-6.9,3.2-7.1,6.9l0,0H275.8L275.8,71.8z"/>
			<path d="M181.9,355.2V150.5l37.7,37.7c2.8,2.8,7.1,2.8,9.7,0l0,0l0,0l21.9-21.9c2.8-2.8,2.8-7.1,0-9.7l0,0l0,0l-88.4-88.4
				c-2.8-2.8-7.1-2.8-9.7,0l0,0l0,0l-88.4,88.2c-2.6,2.8-2.6,6.9,0,9.7l0,0l0,0L86.7,188c2.8,2.8,7.1,2.8,9.9,0l0,0l37.7-37.7v204.9
				c0,3.7,3,6.9,6.9,6.9l0,0H175C179,362.1,181.9,359.2,181.9,355.2z"/>
		</g>
		<g>
			<path d="M273.8,70.2v204.7l-37.7-37.7c-2.8-2.8-7.1-2.8-9.9,0l0,0L204,259.2c-2.8,2.8-2.8,7.1,0,9.9l0,0l88.4,88.4
				c2.8,2.8,7.1,2.8,9.9,0l0,0l88.4-88.4c2.6-2.8,2.6-7.1,0-9.9l-21.7-21.9c-2.8-2.8-7.1-2.8-9.9,0l0,0l-37.9,37.7V70.2
				c0-3.7-3-6.9-6.9-6.9l0,0h-33.7c-3.9,0-6.9,3.2-7.1,6.9l0,0H273.8L273.8,70.2z"/>
			<path d="M180.1,353.8V148.9l37.7,37.7c2.8,2.8,7.1,2.8,9.7,0l0,0l0,0l21.9-21.9c2.8-2.8,2.8-7.1,0-9.7l0,0l0,0L161,66.7
				c-2.8-2.8-7.1-2.8-9.7,0l0,0l0,0L63,155c-2.6,2.8-2.6,6.9,0,9.7l0,0l0,0l21.9,21.9c2.8,2.8,7.1,2.8,9.9,0l0,0l37.7-37.7v204.9
				c0,3.7,3,6.9,6.9,6.9l0,0h33.9C177,360.7,180.1,357.6,180.1,353.8z"/>
		</g>
		<g>
			<path d="M272.1,68.8v204.7l-37.7-37.7c-2.8-2.8-7.1-2.8-9.9,0l0,0l-22.3,21.9c-2.8,2.8-2.8,7.1,0,9.9l0,0l88.4,88.4
				c2.8,2.8,7.1,2.8,9.9,0l0,0l88.4-88.4c2.6-2.8,2.6-7.1,0-9.9l-21.9-21.9c-2.8-2.8-7.1-2.8-9.9,0l0,0l-37.9,37.5V68.6
				c0-3.7-3-6.9-6.9-6.9l0,0h-33.7c-3.9,0-6.9,3.2-7.1,6.9l0,0L272.1,68.8L272.1,68.8z"/>
			<path d="M178.2,352.3V147.5l37.7,37.7c2.8,2.8,7.1,2.8,9.7,0l0,0l0,0l21.9-21.9c2.8-2.8,2.8-7.1,0-9.7l0,0l0,0L159,65.3
				c-2.8-2.8-7.1-2.8-9.7,0l0,0l0,0L61,153.7c-2.6,2.8-2.6,6.9,0,9.7l0,0l0,0l21.9,21.9c2.8,2.8,7.1,2.8,9.9,0l0,0l37.7-37.7v204.9
				c0,3.7,3,6.9,6.9,6.9l0,0h33.9C175.2,359.2,178.2,356,178.2,352.3z"/>
		</g>
		<g>
			<path d="M270.1,67.3V272l-37.7-37.9c-2.8-2.8-7.1-2.8-9.9,0l0,0L200.3,256c-2.8,2.8-2.8,7.1,0,9.9l0,0l88.4,88.4
				c2.8,2.8,7.1,2.8,9.9,0l0,0l88.4-88.4c2.6-2.8,2.6-7.1,0-9.9l-21.9-21.9c-2.8-2.8-7.1-2.8-9.9,0l0,0L317,271.8V67.3
				c0-3.7-3-6.9-6.9-6.9l0,0h-33.7c-3.9,0-6.9,3.2-7.1,6.9l0,0H270.1L270.1,67.3z"/>
			<path d="M176.4,350.7V146l37.7,37.7c2.8,2.8,7.1,2.8,9.7,0l0,0l0,0l21.9-21.9c2.8-2.8,2.8-7.1,0-9.7l0,0l0,0l-88.4-88.4
				c-2.8-2.8-7.1-2.8-9.7,0l0,0l0,0l-88.4,88.4c-2.6,2.8-2.6,6.9,0,9.7l0,0l0,0l21.9,21.9c2.8,2.8,7.1,2.8,9.9,0l0,0l37.7-37.7
				v204.9c0,3.7,3,6.9,6.9,6.9l0,0h33.9C173.2,357.6,176.4,354.4,176.4,350.7z"/>
		</g>
		<g>
			<path d="M268.3,65.7v204.7l-37.7-37.7c-2.8-2.8-7.1-2.8-9.9,0l0,0l-22.3,21.9c-2.8,2.8-2.8,7.1,0,9.9l0,0l88.4,88.4
				c2.8,2.8,7.1,2.8,9.9,0l0,0l88.4-88.4c2.6-2.8,2.6-7.1,0-9.9l-21.9-21.9c-2.8-2.8-7.1-2.8-9.9,0l0,0l-38.1,37.7V65.7
				c0-3.7-3-6.9-6.9-6.9l0,0h-33.7c-3.9,0-6.9,3.2-7.1,6.9l0,0H268.3L268.3,65.7z"/>
			<path d="M174.4,349.1V144.4l37.7,37.7c2.8,2.8,7.1,2.8,9.7,0l0,0l0,0l21.9-21.9c2.8-2.8,2.8-7.1,0-9.7l0,0l0,0l-88.2-88.4
				c-2.8-2.8-7.1-2.8-9.7,0l0,0l0,0l-88.6,88.4c-2.6,2.8-2.6,6.9,0,9.7l0,0l0,0l21.9,21.9c2.8,2.8,7.1,2.8,9.9,0l0,0l37.7-37.7
				v204.9c0,3.7,3,6.9,6.9,6.9l0,0h33.9C171.5,356,174.4,353.1,174.4,349.1z"/>
		</g>
		<g>
			<path d="M266.3,64.1v204.7l-37.7-37.7c-2.8-2.8-7.1-2.8-9.9,0l0,0l-22.1,21.9c-2.8,2.8-2.8,7.1,0,9.9l0,0l88.4,88.4
				c2.8,2.8,7.1,2.8,9.9,0l0,0l88.4-88.4c2.6-2.8,2.6-7.1,0-9.9l-21.9-21.9c-2.8-2.8-7.1-2.8-9.9,0l0,0l-37.9,37.7V64.1
				c0-3.7-3-6.9-6.9-6.9l0,0H273c-3.9,0-6.9,3.2-7.1,6.9l0,0H266.3L266.3,64.1z"/>
			<path d="M172.6,347.7V143l37.7,37.7c2.8,2.8,7.1,2.8,9.7,0l0,0l0,0l21.9-21.9c2.8-2.8,2.8-7.1,0-9.7l0,0l0,0l-88.4-88.6
				c-2.8-2.8-7.1-2.8-9.7,0l0,0l0,0l-88.4,88.4c-2.6,2.8-2.6,6.9,0,9.7l0,0l0,0l21.9,21.9c2.8,2.8,7.1,2.8,9.9,0l0,0l37.7-37.7
				v204.9c0,3.7,3,6.9,6.9,6.9l0,0h33.9C169.5,354.6,172.6,351.5,172.6,347.7z"/>
		</g>
		<g>
			<path d="M264.6,62.7v204.7l-37.7-37.7c-2.8-2.8-7.1-2.8-9.9,0l0,0l-22.3,21.9c-2.8,2.8-2.8,7.1,0,9.9l0,0l88.4,88.4
				c2.8,2.8,7.1,2.8,9.9,0l0,0l88.4-88.4c2.6-2.8,2.6-7.1,0-9.9l-21.9-21.9c-2.8-2.8-7.1-2.8-9.9,0l0,0l-38.1,37.7V62.5
				c0-3.7-3-6.9-6.9-6.9l0,0h-33.7c-3.9,0-6.9,3.2-7.1,6.9l0,0L264.6,62.7L264.6,62.7z"/>
			<path d="M170.7,346.1V141.4l37.7,37.7c2.8,2.8,7.1,2.8,9.7,0l0,0l0,0l21.9-21.9c2.8-2.8,2.8-7.1,0-9.7l0,0l0,0l-88.4-88.4
				c-2.8-2.8-7.1-2.8-9.7,0l0,0l0,0l-88.4,88.4c-2.6,2.8-2.6,6.9,0,9.7l0,0l0,0l21.9,21.9c2.8,2.8,7.1,2.8,9.9,0l0,0l37.7-37.7
				v204.9c0,3.7,3,6.9,6.9,6.9l0,0h33.9C167.7,353.1,170.7,349.9,170.7,346.1z"/>
		</g>
		<g>
			<path d="M262.6,61.2v204.7l-37.7-37.7c-2.8-2.8-7.1-2.8-9.9,0l0,0L193,249.9c-2.8,2.8-2.8,7.1,0,9.9l0,0l88.4,88.4
				c2.8,2.8,7.1,2.8,9.9,0l0,0l88.4-88.4c2.6-2.8,2.6-7.1,0-9.9L357.6,228c-2.8-2.8-7.1-2.8-9.9,0l0,0l-38.1,37.7V61.2
				c0-3.7-3-6.9-6.9-6.9l0,0h-33.7c-3.9,0-6.9,3.2-7.1,6.9l0,0H262.6L262.6,61.2z"/>
			<path d="M168.9,344.6V139.8l37.7,37.7c2.8,2.8,7.1,2.8,9.7,0l0,0l0,0l21.9-21.9c2.8-2.8,2.8-7.1,0-9.7l0,0l0,0l-88.4-88.4
				c-2.8-2.8-7.1-2.8-9.7,0l0,0l0,0L51.7,146c-2.6,2.8-2.6,6.9,0,9.7l0,0l0,0l21.9,21.9c2.8,2.8,7.1,2.8,9.9,0l0,0l37.7-37.7v204.9
				c0,3.7,3,6.9,6.9,6.9l0,0H162C165.7,351.5,168.9,348.5,168.9,344.6z"/>
		</g>
		<g>
			<path d="M260.8,59.6v204.7l-37.7-37.7c-2.8-2.8-7.1-2.8-9.9,0l0,0L191,248.5c-2.8,2.8-2.8,7.1,0,9.9l0,0l88.4,88.4
				c2.8,2.8,7.1,2.8,9.9,0l0,0l88.4-88.4c2.6-2.8,2.6-7.1,0-9.9l-21.9-21.9c-2.8-2.8-7.1-2.8-9.9,0l0,0l-38.1,37.7V59.6
				c0-3.7-3-6.9-6.9-6.9l0,0h-33.7c-3.9,0-6.9,3.2-7.1,6.9l0,0H260.8L260.8,59.6z"/>
			<path d="M167.1,343.2V138.3l37.7,37.7c2.8,2.8,7.1,2.8,9.7,0l0,0l0,0l21.9-21.9c2.8-2.8,2.8-7.1,0-9.7l0,0l0,0L148,56
				c-2.8-2.8-7.1-2.8-9.7,0l0,0l0,0L50,144.4c-2.6,2.8-2.6,6.9,0,9.7l0,0l0,0l21.9,21.9c2.8,2.8,7.1,2.8,9.9,0l0,0l37.7-37.7v204.9
				c0,3.7,3,6.9,6.9,6.9l0,0h33.9C164,350.1,166.9,346.9,167.1,343.2z"/>
		</g>
		<g>
			<path d="M258.8,58.2v204.7l-37.7-37.7c-2.8-2.8-7.1-2.8-9.9,0l0,0L189,247.1c-2.8,2.8-2.8,7.1,0,9.9l0,0l88.4,88.4
				c2.8,2.8,7.1,2.8,9.9,0l0,0l88.4-88.4c2.6-2.8,2.6-7.1,0-9.9l-21.9-21.9c-2.8-2.8-7.1-2.8-9.9,0l0,0l-38.1,37.7V58
				c0-3.7-3-6.9-6.9-6.9l0,0h-33.7c-3.9,0-6.9,3.2-7.1,6.9l0,0L258.8,58.2L258.8,58.2z"/>
			<path d="M165.2,341.6V136.9l37.7,37.7c2.8,2.8,7.1,2.8,9.7,0l0,0l0,0l21.9-21.9c2.8-2.8,2.8-7.1,0-9.7l0,0l0,0L146,54.6
				c-2.8-2.8-7.1-2.8-9.7,0l0,0l0,0L48,143c-2.6,2.8-2.6,6.9,0,9.7l0,0l0,0l21.9,21.9c2.8,2.8,7.1,2.8,9.9,0l0,0l37.7-37.7v204.9
				c0,3.7,3,6.9,6.9,6.9l0,0h33.9C162,348.5,165.2,345.4,165.2,341.6z"/>
		</g>
		<g>
			<path d="M257.1,56.6v204.7l-37.7-37.9c-2.8-2.8-7.1-2.8-9.9,0l0,0l-22.3,21.9c-2.8,2.8-2.8,7.1,0,9.9l0,0l88.4,88.4
				c2.8,2.8,7.1,2.8,9.9,0l0,0l88.4-88.4c2.6-2.8,2.6-7.1,0-9.9l-21.7-21.9c-2.8-2.8-7.1-2.8-9.9,0l0,0l-38.1,37.7V56.6
				c0-3.7-3-6.9-6.9-6.9l0,0h-33.7c-3.9,0-6.9,3.2-7.1,6.9l0,0H257.1L257.1,56.6z"/>
			<path d="M163.4,340V135.3l37.7,37.7c2.8,2.8,7.1,2.8,9.7,0l0,0l0,0l21.9-21.9c2.8-2.8,2.8-7.1,0-9.7l0,0l0,0l-88.4-88.4
				c-2.8-2.8-7.1-2.8-9.7,0l0,0l0,0l-88.4,88.4c-2.6,2.8-2.6,6.9,0,9.7l0,0l0,0L68.1,173c2.8,2.8,7.1,2.8,9.9,0l0,0l37.7-37.7v204.9
				c0,3.7,3,6.9,6.9,6.9l0,0h33.9C160.2,346.9,163.2,343.8,163.4,340z"/>
		</g>
		<g>
			<path d="M255.1,55v204.7l-37.7-37.7c-2.8-2.8-7.1-2.8-9.9,0l0,0L185.3,244c-2.8,2.8-2.8,7.1,0,9.9l0,0l88.4,88.4
				c2.8,2.8,7.1,2.8,9.9,0l0,0l88.4-88.4c2.6-2.8,2.6-7.1,0-9.9L350,222.1c-2.8-2.8-7.1-2.8-9.9,0l0,0L302,259.8V55
				c0-3.7-3-6.9-6.9-6.9l0,0h-33.7c-3.9,0-6.9,3.2-7.1,6.9l0,0H255.1L255.1,55z"/>
			<path d="M161.4,338.5V133.7l37.7,37.7c2.8,2.8,7.1,2.8,9.7,0l0,0l0,0l21.9-21.9c2.8-2.8,2.8-7.1,0-9.7l0,0l0,0l-88.4-88.4
				c-2.8-2.8-7.1-2.8-9.7,0l0,0l0,0l-88.4,88.4c-2.6,2.8-2.6,6.9,0,9.7l0,0l0,0l21.9,21.9c2.8,2.8,7.1,2.8,9.9,0l0,0l37.7-37.7
				v204.9c0,3.7,3,6.9,6.9,6.9l0,0h33.9C158.3,345.4,161.4,342.4,161.4,338.5z"/>
		</g>
		<g>
			<path d="M253.3,53.5v204.7l-37.7-37.7c-2.8-2.8-7.1-2.8-9.9,0l0,0l-22.3,21.9c-2.8,2.8-2.8,7.1,0,9.9l0,0l88.4,88.4
				c2.8,2.8,7.1,2.8,9.9,0l0,0l88.4-88.4c2.6-2.8,2.6-7.1,0-9.9l-21.9-21.9c-2.8-2.8-7.1-2.8-9.9,0l0,0l-38.1,37.7V53.5
				c0-3.7-3-6.9-6.9-6.9l0,0h-33.7c-3.9,0-6.9,3.2-7.1,6.9l0,0H253.3L253.3,53.5z"/>
			<path d="M159.6,337.1V132.4l37.7,37.7c2.8,2.8,7.1,2.8,9.7,0l0,0l0,0l21.9-21.9c2.8-2.8,2.8-7.1,0-9.7l0,0l0,0l-88.4-88.6
				c-2.8-2.8-7.1-2.8-9.7,0l0,0l0,0l-88.4,88.4c-2.6,2.8-2.6,6.9,0,9.7l0,0l0,0l21.9,21.9c2.8,2.8,7.1,2.8,9.9,0l0,0l37.7-37.7
				v204.9c0,3.7,3,6.9,6.9,6.9l0,0h33.9C156.5,344,159.6,340.8,159.6,337.1z"/>
		</g>
		<g>
			<path d="M251.5,52.1v204.7l-37.7-37.7c-2.8-2.8-7.1-2.8-9.9,0l0,0L181.7,241c-2.8,2.8-2.8,7.1,0,9.9l0,0l88.4,88.4
				c2.8,2.8,7.1,2.8,9.9,0l0,0l88.4-88.4c2.6-2.8,2.6-7.1,0-9.9l-21.9-21.9c-2.8-2.8-7.1-2.8-9.9,0l0,0l-38.1,37.7V51.9
				c0-3.7-3-6.9-6.9-6.9l0,0H258c-3.9,0-6.9,3.2-7.1,6.9l0,0L251.5,52.1L251.5,52.1z"/>
			<path d="M157.7,335.5V130.8l37.7,37.7c2.8,2.8,7.1,2.8,9.7,0l0,0l0,0l21.9-21.9c2.8-2.8,2.8-7.1,0-9.7l0,0l0,0l-88.4-88.4
				c-2.8-2.8-7.1-2.8-9.7,0l0,0l0,0l-88.4,88.2c-2.6,2.8-2.6,6.9,0,9.7l0,0l0,0l21.9,21.9c2.8,2.8,7.1,2.8,9.9,0l0,0l37.7-37.7
				v204.9c0,3.7,3,6.9,6.9,6.9l0,0h33.9C154.5,342.4,157.7,339.2,157.7,335.5z"/>
		</g>
		<g>
			<path d="M249.6,50.5v204.7l-37.7-37.7c-2.8-2.8-7.1-2.8-9.9,0l0,0l-22.1,21.7c-2.8,2.8-2.8,7.1,0,9.9l0,0l88.4,88.4
				c2.8,2.8,7.1,2.8,9.9,0l0,0l88.4-88.4c2.6-2.8,2.6-7.1,0-9.9l-21.9-21.9c-2.8-2.8-7.1-2.8-9.9,0l0,0L296.7,255V50.5
				c0-3.7-3-6.9-6.9-6.9l0,0h-33.7c-3.9,0-6.9,3.2-7.1,6.9l0,0H249.6L249.6,50.5z"/>
			<path d="M155.9,333.9V129.2l37.7,37.7c2.8,2.8,7.1,2.8,9.7,0l0,0l0,0l21.9-21.9c2.8-2.8,2.8-7.1,0-9.7l0,0l0,0L136.8,47
				c-2.8-2.8-7.1-2.8-9.7,0l0,0l0,0l-88.4,88.4c-2.6,2.8-2.6,6.9,0,9.7l0,0l0,0l21.9,21.9c2.8,2.8,7.1,2.8,9.9,0l0,0l37.7-37.7
				v204.7c0,3.7,3,6.9,6.9,6.9l0,0H149C152.7,340.8,155.9,337.9,155.9,333.9z"/>
		</g>
		<g>
			<path d="M247.8,48.9v204.7L210.1,216c-2.8-2.8-7.1-2.8-9.9,0l0,0L178,237.9c-2.8,2.8-2.8,7.1,0,9.9l0,0l88.4,88.4
				c2.8,2.8,7.1,2.8,9.9,0l0,0l88.4-88.4c2.6-2.8,2.6-7.1,0-9.9L342.9,216c-2.8-2.8-7.1-2.8-9.9,0l0,0l-38.1,37.7V48.9
				c0-3.7-3-6.9-6.9-6.9l0,0h-33.7c-3.9,0-6.9,3.2-7.1,6.9l0,0H247.8L247.8,48.9z"/>
			<path d="M153.9,332.5V127.6l37.7,37.7c2.8,2.8,7.1,2.8,9.7,0l0,0l0,0l21.9-21.9c2.8-2.8,2.8-7.1,0-9.7l0,0l0,0l-88.4-88.4
				c-2.8-2.8-7.1-2.8-9.7,0l0,0l0,0l-88.4,88.4c-2.6,2.8-2.6,6.9,0,9.7l0,0l0,0l21.9,21.9c2.8,2.8,7.1,2.8,9.9,0l0,0l37.7-37.7
				v204.9c0,3.7,3,6.9,6.9,6.9l0,0H147C150.8,339.4,153.9,336.3,153.9,332.5z"/>
		</g>
		<g>
			<path d="M245.8,47.5v204.7l-37.7-37.7c-2.8-2.8-7.1-2.8-9.9,0l0,0L176,236.5c-2.8,2.8-2.8,7.1,0,9.9l0,0l88.4,88.4
				c2.8,2.8,7.1,2.8,9.9,0l0,0l88.4-88.4c2.6-2.8,2.6-7.1,0-9.9l-21.7-22.1c-2.8-2.8-7.1-2.8-9.9,0l0,0L293,252.1V47.3
				c0-3.7-3-6.9-6.9-6.9l0,0h-33.7c-3.9,0-6.9,3.2-7.1,6.9l0,0L245.8,47.5L245.8,47.5z"/>
			<path d="M152.1,331V126.2l37.7,37.7c2.8,2.8,7.1,2.8,9.7,0l0,0l0,0l21.9-21.9c2.8-2.8,2.8-7.1,0-9.7l0,0l0,0L133,44
				c-2.8-2.8-7.1-2.8-9.7,0l0,0l0,0L35,132.4c-2.6,2.8-2.6,6.9,0,9.7l0,0l0,0l21.9,21.9c2.8,2.8,7.1,2.8,9.9,0l0,0l37.7-37.7v204.9
				c0,3.7,3,6.9,6.9,6.9l0,0h33.9C149,337.9,152.1,334.7,152.1,331z"/>
		</g>
		<g>
			<path d="M244,46v204.7L206.4,213c-2.8-2.8-7.1-2.8-9.9,0l0,0l-22.3,21.9c-2.8,2.8-2.8,7.1,0,9.9l0,0l88.4,88.4
				c2.8,2.8,7.1,2.8,9.9,0l0,0l88.4-88.4c2.6-2.8,2.6-7.1,0-9.9L338.9,213c-2.8-2.8-7.1-2.8-9.9,0l0,0L291,250.7V46
				c0-3.7-3-6.9-6.9-6.9l0,0h-33.7c-3.9,0-6.9,3.2-7.1,6.9l0,0H244L244,46z"/>
			<path d="M150.2,329.4V124.7l37.7,37.7c2.8,2.8,7.1,2.8,9.7,0l0,0l0,0l21.9-21.9c2.8-2.8,2.8-7.1,0-9.7l0,0l0,0L131,42.4
				c-2.8-2.8-7.1-2.8-9.7,0l0,0l0,0L33,130.8c-2.6,2.8-2.6,6.9,0,9.7l0,0l0,0l21.9,21.9c2.8,2.8,7.1,2.8,9.9,0l0,0l37.7-37.7v204.9
				c0,3.7,3,6.9,6.9,6.9l0,0h33.9C147.2,336.3,150.2,333.3,150.2,329.4z"/>
		</g>
		<g>
			<path d="M242.1,44.4v204.7l-37.7-37.7c-2.8-2.8-7.1-2.8-9.9,0l0,0l-22.1,21.9c-2.8,2.8-2.8,7.1,0,9.9l0,0l88.4,88.4
				c2.8,2.8,7.1,2.8,9.9,0l0,0l88.4-88.4c2.6-2.8,2.6-7.1,0-9.9l-21.9-21.9c-2.8-2.8-7.1-2.8-9.9,0l0,0l-37.9,37.7V44.4
				c0-3.7-3-6.9-6.9-6.9l0,0h-33.7c-3.9,0-6.9,3.2-7.1,6.9l0,0H242.1L242.1,44.4z"/>
			<path d="M148.4,327.8V123.1l37.7,37.7c2.8,2.8,7.1,2.8,9.7,0l0,0l0,0l21.9-21.9c2.8-2.8,2.8-7.1,0-9.7l0,0l0,0l-88.4-88.4
				c-2.8-2.8-7.1-2.8-9.7,0l0,0l0,0l-88.4,88.4c-2.6,2.8-2.6,6.9,0,9.7l0,0l0,0l21.9,21.9c2.8,2.8,7.1,2.8,9.9,0l0,0l37.7-37.7V328
				c0,3.7,3,6.9,6.9,6.9l0,0h33.9C145.2,334.7,148.4,331.8,148.4,327.8z"/>
		</g>
		<g>
			<path d="M240.3,42.8v204.7l-37.7-37.7c-2.8-2.8-7.1-2.8-9.9,0l0,0l-22.3,21.9c-2.8,2.8-2.8,7.1,0,9.9l0,0l88.4,88.4
				c2.8,2.8,7.1,2.8,9.9,0l0,0l88.4-88.4c2.6-2.8,2.6-7.1,0-9.9l-21.9-21.9c-2.8-2.8-7.1-2.8-9.9,0l0,0l-38.1,37.7V42.8
				c0-3.7-3-6.9-6.9-6.9l0,0h-33.7c-3.9,0-6.9,3.2-7.1,6.9l0,0H240.3L240.3,42.8z"/>
			<path d="M146.4,326.4V121.7l37.7,37.7c2.8,2.8,7.1,2.8,9.7,0l0,0l0,0l21.9-21.9c2.8-2.8,2.8-7.1,0-9.7l0,0l0,0l-88.4-88.4
				c-2.8-2.8-7.1-2.8-9.7,0l0,0l0,0l-88.4,88.2c-2.6,2.8-2.6,6.9,0,9.7l0,0l0,0l21.9,21.9c2.8,2.8,7.1,2.8,9.9,0l0,0l37.7-37.7
				v204.9c0,3.7,3,6.9,6.9,6.9l0,0h33.9C143.5,333.3,146.4,330.2,146.4,326.4z"/>
		</g>
		<g>
			<path d="M238.3,41.4v204.7l-37.7-37.7c-2.8-2.8-7.1-2.8-9.9,0l0,0l-22.3,21.9c-2.8,2.8-2.8,7.1,0,9.9l0,0l88.4,88.4
				c2.8,2.8,7.1,2.8,9.9,0l0,0l88.4-88.4c2.6-2.8,2.6-7.1,0-9.9l-21.9-21.9c-2.8-2.8-7.1-2.8-9.9,0l0,0L285.7,246V41.2
				c0-3.7-3-6.9-6.9-6.9l0,0H245c-3.9,0-6.9,3.2-7.1,6.9l0,0L238.3,41.4L238.3,41.4z"/>
			<path d="M144.6,324.8V120.1l37.7,37.7c2.8,2.8,7.1,2.8,9.7,0l0,0l0,0l21.9-21.9c2.8-2.8,2.8-7.1,0-9.7l0,0l0,0l-88.4-88.4
				c-2.8-2.8-7.1-2.8-9.7,0l0,0l0,0l-88.4,88.4c-2.6,2.8-2.6,6.9,0,9.7l0,0l0,0l21.9,21.9c2.8,2.8,7.1,2.8,9.9,0l0,0l37.7-37.7V325
				c0,3.7,3,6.9,6.9,6.9l0,0h33.9C141.5,331.8,144.6,328.6,144.6,324.8z"/>
		</g>
		<g>
			<path d="M236.6,39.9v204.7l-37.7-37.9c-2.8-2.8-7.1-2.8-9.9,0l0,0l-22.3,21.9c-2.8,2.8-2.8,7.1,0,9.9l0,0l88.4,88.4
				c2.8,2.8,7.1,2.8,9.9,0l0,0l88.4-88.4c2.6-2.8,2.6-7.1,0-9.9l-21.9-21.9c-2.8-2.8-7.1-2.8-9.9,0l0,0l-37.9,37.9V39.9
				c0-3.7-3-6.9-6.9-6.9l0,0h-33.7c-3.9,0-6.9,3.2-7.1,6.9l0,0H236.6L236.6,39.9z"/>
			<path d="M142.7,323.3V118.5l37.7,37.7c2.8,2.8,7.1,2.8,9.7,0l0,0l0,0l21.9-21.9c2.8-2.8,2.8-7.1,0-9.7l0,0l0,0l-88.4-88.4
				c-2.8-2.8-7.1-2.8-9.7,0l0,0l0,0l-88.4,88.4c-2.6,2.8-2.6,6.9,0,9.7l0,0l0,0l21.9,21.9c2.8,2.8,7.1,2.8,9.9,0l0,0l37.7-37.7
				v204.9c0,3.7,3,6.9,6.9,6.9l0,0h33.9C139.7,330.2,142.7,327.2,142.7,323.3z"/>
		</g>
		<g>
			<path d="M234.6,38.3V243l-37.7-37.7c-2.8-2.8-7.1-2.8-9.9,0l0,0l-22.3,21.9c-2.8,2.8-2.8,7.1,0,9.9l0,0l88.4,88.4
				c2.8,2.8,7.1,2.8,9.9,0l0,0l88.4-88.4c2.6-2.8,2.6-7.1,0-9.9l-21.9-21.9c-2.8-2.8-7.1-2.8-9.9,0l0,0L281.5,243V38.3
				c0-3.7-3-6.9-6.9-6.9l0,0h-33.7c-3.9,0-6.9,3.2-7.1,6.9l0,0H234.6L234.6,38.3z"/>
			<path d="M140.9,321.9V117l37.7,37.7c2.8,2.8,7.1,2.8,9.7,0l0,0l0,0l21.9-21.9c2.8-2.8,2.8-7.1,0-9.7l0,0l0,0l-88.4-88.4
				c-2.8-2.8-7.1-2.8-9.7,0l0,0l0,0l-88.4,88.4c-2.6,2.8-2.6,6.9,0,9.7l0,0l0,0l21.9,21.9c2.8,2.8,7.1,2.8,9.9,0l0,0L93.2,117v204.9
				c0,3.7,3,6.9,6.9,6.9l0,0H134C137.7,328.8,140.9,325.6,140.9,321.9z"/>
		</g>
		<g>
			<path d="M232.8,36.9v204.7l-37.7-37.9c-2.8-2.8-7.1-2.8-9.9,0l0,0L163,225.6c-2.8,2.8-2.8,7.1,0,9.9l0,0l88.4,88.4
				c2.8,2.8,7.1,2.8,9.9,0l0,0l88.4-88.4c2.6-2.8,2.6-7.1,0-9.9l-21.7-21.9c-2.8-2.8-7.1-2.8-9.9,0l0,0l-38.1,37.7V36.7
				c0-3.7-3-6.9-6.9-6.9l0,0h-33.7c-3.9,0-6.9,3.2-7.1,6.9l0,0L232.8,36.9L232.8,36.9z"/>
			<path d="M138.9,320.3V115.6l37.7,37.7c2.8,2.8,7.1,2.8,9.7,0l0,0l0,0l21.9-21.9c2.8-2.8,2.8-7.1,0-9.7l0,0l0,0L120,33.1
				c-2.8-2.8-7.1-2.8-9.7,0l0,0l0,0L22,121.5c-2.6,2.8-2.6,6.9,0,9.7l0,0l0,0l21.9,21.9c2.8,2.8,7.1,2.8,9.9,0l0,0l37.7-37.7v204.9
				c0,3.7,3,6.9,6.9,6.9l0,0h33.9C136,327.2,138.9,324.1,138.9,320.3z"/>
		</g>
		<g>
			<path d="M230.8,35.3V240l-37.7-37.7c-2.8-2.8-7.1-2.8-9.9,0l0,0L161,224.3c-2.8,2.8-2.8,7.1,0,9.9l0,0l88.4,88.4
				c2.8,2.8,7.1,2.8,9.9,0l0,0l88.4-88.4c2.6-2.8,2.6-7.1,0-9.9l-21.9-21.9c-2.8-2.8-7.1-2.8-9.9,0l0,0L277.8,240V35.3
				c0-3.7-3-6.9-6.9-6.9l0,0h-33.7c-3.9,0-6.9,3.2-7.1,6.9l0,0H230.8L230.8,35.3z"/>
			<path d="M137.1,318.7V114l37.7,37.7c2.8,2.8,7.1,2.8,9.7,0l0,0l0,0l21.9-21.9c2.8-2.8,2.8-7.1,0-9.7l0,0l0,0L118,31.6
				c-2.8-2.8-7.1-2.8-9.7,0l0,0l0,0L20,119.9c-2.6,2.8-2.6,6.9,0,9.7l0,0l0,0l21.9,21.9c2.8,2.8,7.1,2.8,9.9,0l0,0l37.7-37.7v204.9
				c0,3.7,3,6.9,6.9,6.9l0,0h33.9C134,325.6,137.1,322.7,137.1,318.7z"/>
		</g>
		<g id="Layer_2_4_">
			<g id="Calque_1_3_">
				<path id="Path_75_3_" d="M229.1,33.7v204.7l-37.7-37.7c-2.8-2.8-7.1-2.8-9.9,0l0,0l-22.3,21.9c-2.8,2.8-2.8,7.1,0,9.9l0,0
					l88.4,88.4c2.8,2.8,7.1,2.8,9.9,0l0,0l88.4-88.4c2.6-2.8,2.6-7.1,0-9.9l-21.9-21.9c-2.8-2.8-7.1-2.8-9.9,0l0,0L276,238.5V33.7
					c0-3.7-3-6.9-6.9-6.9l0,0h-33.7c-3.9,0-6.9,3.2-7.1,6.9l0,0H229.1L229.1,33.7z"/>
				<path id="Path_76_3_" d="M135.4,317.2V112.4l37.7,37.7c2.8,2.8,7.1,2.8,9.7,0l0,0l0,0l21.9-21.9c2.8-2.8,2.8-7.1,0-9.7l0,0l0,0
					l-88.4-88.4c-2.8-2.8-7.1-2.8-9.7,0l0,0l0,0l-88.4,88.4c-2.6,2.8-2.6,6.9,0,9.7l0,0l0,0l21.9,21.9c2.8,2.8,7.1,2.8,9.9,0l0,0
					l37.7-37.7v204.9c0,3.7,3,6.9,6.9,6.9l0,0h33.9C132.2,324.1,135.2,321.1,135.4,317.2z"/>
			</g>
		</g>
	</g>
	<g id="Layer_2_1_">
		<g id="Calque_1">
			<g id="Path_75">
				<path class="st0" d="M252.7,321.9c-1.6,0-3.2-0.6-4.1-1.8l-88.4-88.4c-2.4-2.4-2.4-6.1,0-8.5l22.1-21.9c1.2-1.2,2.6-1.8,4.1-1.8
					c1.6,0,3.2,0.6,4.1,1.8l39.4,39.4V32.8h-0.4c0.4-2.8,3-4.9,5.9-4.9h33.9c3.2,0,5.9,2.8,5.9,5.9v207.1l39.6-39.4
					c1.2-1.2,2.6-1.8,4.1-1.8c1.6,0,3.2,0.6,4.1,1.8l21.9,21.9c2.2,2.4,2.2,6.1,0,8.5l-88.4,88.4
					C255.7,321.1,254.3,321.9,252.7,321.9z"/>
				<path d="M235.6,28.8L235.6,28.8h33.9c2.8,0,4.9,2.2,4.9,4.9v204.7v4.7l3.4-3.4l38.1-37.7c1-1,2.2-1.4,3.6-1.4
					c1.4,0,2.6,0.6,3.6,1.4l21.9,21.9c2,2,2,5.1,0,7.1l-88.4,88.4c-1,1-2.2,1.4-3.6,1.4c-1.4,0-2.6-0.6-3.6-1.4L161,231.2
					c-2-2-2-5.1,0-7.1l22.3-21.9c1-1,2.2-1.4,3.6-1.4c1.4,0,2.6,0.6,3.6,1.4l37.7,37.7l3.4,3.4v-4.7V33.7v-2l0,0
					C231.8,30,233.6,28.8,235.6,28.8 M235.6,26.8c-3.7,0-6.9,3.2-6.9,6.9l0,0h0.4l0,0v204.7l-37.7-37.7c-1.4-1.4-3.2-2-4.9-2
					s-3.6,0.6-4.9,2l-22.3,21.9c-2.8,2.8-2.8,7.1,0,9.9l88.4,88.4c1.4,1.4,3.2,2,4.9,2s3.6-0.6,4.9-2l88.4-88.4
					c2.6-2.8,2.6-7.1,0-9.9l-21.9-21.9c-1.4-1.4-3.2-2-4.9-2c-1.8,0-3.6,0.6-4.9,2L276,238.5V33.7c0-3.7-3-6.9-6.9-6.9l0,0H235.6
					L235.6,26.8L235.6,26.8z"/>
			</g>
			<g id="Path_76">
				<path class="st0" d="M94.4,323.3c-3.4,0-5.9-2.8-5.9-5.9V109.9L49,149.3c-1.2,1.2-2.6,1.8-4.1,1.8s-3.2-0.6-4.1-1.8l-21.9-21.9
					c-2.2-2.4-2.2-5.9,0-8.3l88.4-88.4c1.2-1.2,2.6-1.8,4.1-1.8s3,0.6,4.1,1.8l88.4,88.4c2.4,2.4,2.4,6.1,0,8.3l-21.9,21.9
					c-1.2,1.2-2.6,1.8-4.1,1.8c-1.6,0-3-0.6-4.1-1.8l-39.4-39.4V317c0,3.4-2.8,5.9-5.9,5.9H94.4V323.3z"/>
				<path d="M111.3,30c1.4,0,2.6,0.6,3.6,1.4l88.4,88.4c2,2,2,4.9,0,6.9l-21.9,21.9c-1,1-2.2,1.4-3.4,1.4c-1.4,0-2.6-0.6-3.6-1.4
					l-37.7-37.5l-3.4-3.4v4.7v204.7c0,2.8-2.2,4.9-4.9,4.9H94.5c-2.8,0-4.9-2.2-4.9-4.9V112.4v-4.7l-3.4,3.4l-37.9,37.5
					c-1,1-2.2,1.4-3.6,1.4c-1.4,0-2.6-0.6-3.6-1.4l-21.9-21.7c-2-2-2-4.9,0-6.9l88.4-88.4C108.7,30.6,110.1,30,111.3,30 M111.3,28
					c-1.8,0-3.6,0.6-4.9,2l0,0L18,118.3c-2.6,2.8-2.6,6.9,0,9.7l21.9,21.9c1.4,1.4,3.2,2,4.9,2s3.6-0.6,4.9-2l37.7-37.7v204.9
					c0,3.7,3,6.9,6.9,6.9l0,0h33.9c3.7,0,6.9-3.2,6.9-6.9V112.4l37.7,37.7c1.4,1.4,3.2,2,4.9,2s3.6-0.6,4.9-2l0,0l21.9-21.9
					c2.8-2.8,2.8-7.1,0-9.7l-88.4-88.4C114.9,28.8,113.1,28,111.3,28L111.3,28z"/>
			</g>
		</g>
	</g>
</g>
</svg>
