<?xml version="1.0" encoding="utf-8"?>
<!-- Generator: Adobe Illustrator 25.2.0, SVG Export Plug-In . SVG Version: 6.00 Build 0)  -->
<svg version="1.1" id="Layer_1" xmlns="http://www.w3.org/2000/svg" xmlns:xlink="http://www.w3.org/1999/xlink" x="0px" y="0px"
	 viewBox="0 0 137.2 124.3" style="enable-background:new 0 0 137.2 124.3;" xml:space="preserve">
<style type="text/css">
	.st0{fill:none;}
	.st1{fill:#FFFFFF;}
	.st2{fill:#009AFC;}
	.st3{fill-rule:evenodd;clip-rule:evenodd;fill:#0C0C0C;}
	.st4{fill-rule:evenodd;clip-rule:evenodd;fill:#009AFC;}
	.st5{fill-rule:evenodd;clip-rule:evenodd;fill:#FFFFFF;}
</style>
<g id="Layer_2_1_">
	<g id="Calque_1">
		<g id="Facebook">
			<path d="M112,18c-0.2-0.2-0.4-0.4-0.7-0.6s-0.4-0.4-0.6-0.6s-0.4-0.4-0.6-0.6s-0.5-0.5-0.7-0.7s-0.4-0.4-0.6-0.6
				s-0.4-0.4-0.7-0.6s-0.4-0.4-0.6-0.6s-0.4-0.4-0.7-0.7s-0.4-0.4-0.6-0.6s-0.4-0.4-0.7-0.7s-0.4-0.4-0.7-0.6s-0.4-0.4-0.6-0.6
				s-0.4-0.4-0.7-0.7s-0.4-0.4-0.6-0.6s-0.4-0.4-0.7-0.7s-0.4-0.4-0.6-0.6s-0.5-0.5-0.7-0.7s-0.4-0.4-0.6-0.6s-0.4-0.4-0.6-0.6
				c-1-1.1-2.1-2-3.4-2.8c-0.1-0.1-0.2-0.2-0.3-0.2l-0.2-0.1c-0.6-0.3-1.2-0.6-1.9-0.9l-0.3-0.1h-0.1c-1.7-0.6-3.4-0.9-5.2-0.9H15.2
				c-1.8,0-3.5,0.3-5.1,0.9H10L9.7,1.7C3.9,3.9,0,9.6,0,15.8V89c0,4.2,1.7,8.1,4.7,11l0,0C1.7,97.1,0,93.2,0,89
				c0,4.2,1.7,8.1,4.7,11c0.2,0.3,0.5,0.5,0.8,0.8c0.2,0.2,0.4,0.4,0.6,0.6s0.4,0.4,0.6,0.6s0.4,0.4,0.6,0.6s0.5,0.5,0.8,0.8
				l0.4,0.4c0.2,0.3,0.5,0.5,0.8,0.8s0.4,0.5,0.7,0.7s0.4,0.4,0.6,0.6s0.4,0.4,0.6,0.7s0.4,0.4,0.6,0.6s0.4,0.4,0.7,0.7
				s0.4,0.4,0.7,0.7s0.4,0.4,0.6,0.6l0.6,0.6l0.7,0.7c0.2,0.2,0.4,0.4,0.6,0.6s0.4,0.4,0.7,0.7s0.4,0.4,0.6,0.7
				c2.9,3,6.8,4.8,11,4.8c-4.2,0-8.1-1.7-11-4.8l0,0c2.9,3,6.8,4.7,11,4.7h73.2c2.3,0,4.5-0.5,6.5-1.5c-2,1-4.2,1.5-6.5,1.5
				c8.4,0,15.2-6.8,15.2-15.1V28.8C116.5,24.7,114.9,20.9,112,18z M110,16L110,16C110,16,110.1,16,110,16L110,16L110,16z
				 M109.4,15.4L109.4,15.4L109.4,15.4L109.4,15.4z M99.7,5.7L99.7,5.7L99.7,5.7z M5.5,100.8L5.5,100.8L5.5,100.8L5.5,100.8z
				 M6.1,101.4L6.1,101.4L6.1,101.4L6.1,101.4L6.1,101.4z M10,105.2L10,105.2L10,105.2C10,105.2,10,105.2,10,105.2L10,105.2z
				 M10.7,105.9L10.7,105.9L10.7,105.9L10.7,105.9L10.7,105.9z M11.2,106.5L11.2,106.5L11.2,106.5C11.3,106.5,11.3,106.5,11.2,106.5
				z M12.6,107.8L12.6,107.8C12.6,107.9,12.6,107.9,12.6,107.8L12.6,107.8L12.6,107.8z M13.2,108.4
				C13.2,108.4,13.2,108.4,13.2,108.4L13.2,108.4C13.3,108.4,13.3,108.4,13.2,108.4z M15.9,111.1L15.9,111.1L15.9,111.1L15.9,111.1
				L15.9,111.1z M16.4,111.7L16.4,111.7L16.4,111.7L16.4,111.7L16.4,111.7z M111.3,17.4L111.3,17.4c0,0-0.1-0.1-0.1-0.2
				S111.2,17.3,111.3,17.4z M110.7,16.7L110.7,16.7c-0.2-0.2-0.4-0.4-0.6-0.6l0,0C110.2,16.3,110.5,16.5,110.7,16.7z M110,16.1
				L110,16.1c-0.2-0.3-0.4-0.5-0.6-0.7l0,0C109.6,15.6,109.8,15.8,110,16.1L110,16.1z M109.3,15.4L109.3,15.4l-0.1-0.1L109.3,15.4z
				 M105.5,11.5L105.5,11.5c-0.2-0.2-0.4-0.4-0.6-0.6l0,0C105,11.1,105.3,11.3,105.5,11.5z M103.5,9.6L103.5,9.6
				c-0.2-0.2-0.4-0.4-0.6-0.6l0,0C103.1,9.1,103.3,9.3,103.5,9.6z M102.2,8.2L102.2,8.2c-0.2-0.2-0.4-0.4-0.6-0.6l0,0
				C101.8,7.9,102,8.1,102.2,8.2z M100.3,6.3L100.3,6.3c-0.2-0.2-0.4-0.4-0.6-0.6l0,0C99.9,5.9,100.1,6.1,100.3,6.3z M99.6,5.7
				L99.6,5.7c-0.3-0.4-0.7-0.7-1.1-1.1C98.9,5,99.3,5.3,99.6,5.7z M4.7,100L4.7,100L4.7,100L4.7,100z M4.7,100L4.7,100
				c0.2,0.3,0.5,0.5,0.7,0.7l0,0C5.2,100.5,5,100.3,4.7,100L4.7,100z M5.5,100.8L5.5,100.8c0.2,0.2,0.4,0.4,0.6,0.6l0,0
				C5.9,101.2,5.7,101,5.5,100.8L5.5,100.8z M6.1,101.3L6.1,101.3c0.2,0.2,0.4,0.4,0.6,0.5l0.1,0.1C6.5,101.8,6.3,101.6,6.1,101.3
				L6.1,101.3z M7.3,102.6L7.3,102.6c0.2,0.2,0.4,0.5,0.7,0.7l0,0C7.9,103.1,7.6,102.9,7.3,102.6L7.3,102.6z M9.3,104.6L9.3,104.6
				c0.2,0.2,0.4,0.4,0.6,0.6l0.1,0.1C9.8,105.1,9.5,104.8,9.3,104.6L9.3,104.6z M10,105.3L10,105.3c0.2,0.2,0.4,0.3,0.6,0.5
				c0,0,0,0,0.1,0L10,105.3z M10.7,105.9L10.7,105.9c0.2,0.2,0.4,0.4,0.6,0.5l0.1,0.1C11.1,106.3,10.9,106.1,10.7,105.9L10.7,105.9z
				 M11.3,106.6l0.2,0.3L11.3,106.6z M11.9,107.2L11.9,107.2c0.2,0.2,0.4,0.4,0.6,0.5l0.1,0.1C12.3,107.6,12.1,107.4,11.9,107.2
				L11.9,107.2z M12.6,107.9L12.6,107.9c0.2,0.2,0.4,0.4,0.6,0.6l0,0C13,108.3,12.8,108.1,12.6,107.9L12.6,107.9z M13.2,108.5
				L13.2,108.5c0.1,0.1,0.2,0.2,0.3,0.3C13.4,108.7,13.3,108.6,13.2,108.5L13.2,108.5z M13.9,109.2L13.9,109.2
				c0.2,0.2,0.4,0.4,0.5,0.5l0,0C14.3,109.5,14.1,109.4,13.9,109.2L13.9,109.2z M15.5,110.8l0.3,0.3l0,0L15.5,110.8z M15.8,111.1
				C15.8,111.1,15.8,111.1,15.8,111.1l0.6,0.6c0,0,0,0,0,0C16.2,111.5,16,111.3,15.8,111.1L15.8,111.1z M16.5,111.8L16.5,111.8
				l0.6,0.6l0,0C16.9,112.2,16.7,112,16.5,111.8L16.5,111.8z M17.1,112.4L17.1,112.4L17.1,112.4L17.1,112.4L17.1,112.4z"/>
			<path d="M9.7,1.7C3.9,3.9,0,9.6,0,15.8C0,9.6,3.9,3.9,9.7,1.7z"/>
			<path d="M15.2,0.6c-1.8,0-3.5,0.3-5.1,0.9C11.7,1,13.4,0.7,15.2,0.6z"/>
			<g id="Group_670">
				<path id="Path_1850" class="st0" d="M30.7,72.8h12.1v24.7l0,0V72.8H30.7V48.5l0,0V72.8z"/>
				<path id="Path_1851" class="st0" d="M90.7,6.4c4,1,6.8,4.7,6.8,8.8v73.2l0,0V15.2C97.5,11,94.7,7.4,90.7,6.4L90.7,6.4z"/>
				<path id="Path_1852" class="st0" d="M6.1,15.2c0-4.1,2.7-7.7,6.7-8.8C8.8,7.5,6.1,11.1,6.1,15.2L6.1,15.2z"/>
				<path id="Path_1853" class="st0" d="M85.9,48.5L85.9,48.5l-4,24.3l0,0L85.9,48.5z"/>
				<polygon id="Rectangle_3584" class="st0" points="67.1,42.5 85.3,42.5 85.3,42.5 				"/>
				<path id="Path_1855" class="st1" d="M61.1,42.5v12.1h17.6l-2,12.1H61.1v30.7H48.9V66.7H36.8V54.6h12.1V39.4
					c0-8.4,6.8-15.2,15.2-15.2h15.2v12.1H67.1C63.8,36.4,61.1,39.1,61.1,42.5z"/>
				<path id="Path_1856" class="st1" d="M93.5,0.9L93.5,0.9L93.5,0.9z"/>
				<path id="Path_1857" class="st1" d="M9.7,1C3.9,3.3,0,8.9,0,15.2l0,0C0,8.9,3.9,3.3,9.7,1z"/>
				<path id="Path_1858" class="st1" d="M10,0.9L10,0.9L10,0.9z"/>
				<path id="Path_1859" class="st1" d="M93.8,1c5.8,2.3,9.7,7.9,9.7,14.1l0,0C103.5,8.9,99.7,3.3,93.8,1z"/>
				<path id="Path_1860" class="st1" d="M97.5,88.4L97.5,88.4c0,2.7-1.2,5.3-3.3,7C96.3,93.7,97.5,91.1,97.5,88.4V15.2
					c0-2.1-0.7-4.2-2.1-5.8c1.3,1.6,2.1,3.7,2.1,5.8V88.4z"/>
				<path class="st2" d="M42.9,97.5H15.2c-5,0-9.1-4.1-9.1-9.1V15.2c0-5,4.1-9.1,9.1-9.1h73.2c5,0,9.1,4.1,9.1,9.1v73.2
					c0,5-4.1,9.1-9.1,9.1H67.1l0,0h-6.1V66.7h15.6l2-12.1H61.1V42.5c0-3.4,2.7-6.1,6.1-6.1h12.1V24.3H64.1
					c-8.4,0-15.1,6.8-15.2,15.2v15.2H36.8v12.1h12.1v30.8H42.9"/>
				<path id="Path_1862" class="st1" d="M6.1,88.4V15.2l0,0c0-2.1,0.7-4.2,2.1-5.8c-1.4,1.6-2.1,3.7-2.1,5.8L6.1,88.4
					c0,2.7,1.2,5.3,3.3,7C7.3,93.7,6.1,91.1,6.1,88.4z"/>
				<path id="Path_1866" class="st1" d="M15.2,97.5c-5,0-9.1-4.1-9.1-9.1V15.2l0,0v73.2C6.1,93.4,10.1,97.5,15.2,97.5z"/>
				<path id="Path_1868" d="M9.7,1L10,0.9L9.7,1z"/>
				<path id="Path_1869" d="M93.6,0.9L93.8,1L93.6,0.9z"/>
				<path id="Path_1870" d="M15.2,0c-1.8,0-3.5,0.3-5.2,0.9C11.7,0.3,13.4,0,15.2,0z"/>
				<path id="Path_1871" d="M88.4,0L88.4,0c1.8,0,3.5,0.3,5.2,0.9C91.9,0.3,90.1,0,88.4,0z"/>
				<path id="Path_1872" d="M12.8,6.4c0.8-0.2,1.6-0.3,2.4-0.3h73.2c2.7,0,5.3,1.2,7,3.3c-1.7-2.1-4.3-3.3-7-3.3H15.2
					c-2.7,0-5.3,1.2-7,3.3C9.4,7.9,11,6.9,12.8,6.4z"/>
				<path id="Path_1873" d="M88.4,103.5L88.4,103.5c8.4,0,15.2-6.8,15.2-15.2l0,0C103.5,96.7,96.7,103.5,88.4,103.5z"/>
				<path id="Path_1874" d="M0,88.4L0,88.4c0,8.4,6.8,15.2,15.2,15.2l0,0C6.8,103.5,0,96.7,0,88.4z"/>
				<rect id="Rectangle_3586" x="48.9" y="97.5" width="12.1" height="6.1"/>
				<path id="Path_1875" d="M93.8,1l-0.3-0.1l0,0C91.9,0.3,90.1,0,88.4,0H15.2c-1.8,0-3.5,0.3-5.2,0.9l0,0L9.7,1
					C3.8,3.3,0,8.9,0,15.2v73.2c0,8.4,6.8,15.2,15.2,15.2H49v-6.1H15.2c-5,0-9.1-4.1-9.1-9.1V15.2c0-5,4.1-9.1,9.1-9.1h73.2
					c5,0,9.1,4.1,9.1,9.1v73.2c0,5-4.1,9.1-9.1,9.1H61.1v6.1h27.3c8.4,0,15.2-6.8,15.2-15.2V15.2C103.6,8.9,99.7,3.3,93.8,1z"/>
				<path id="Path_1876" d="M88.4,6.1c0.8,0,1.5,0.1,2.3,0.3C89.9,6.2,89.1,6.1,88.4,6.1H15.2c-0.8,0-1.6,0.1-2.4,0.3
					c0.8-0.2,1.6-0.3,2.4-0.3H88.4z"/>
				<path id="Path_1877" d="M15.2,97.5c-2.1,0-4.2-0.7-5.8-2.1C11,96.7,13.1,97.5,15.2,97.5L15.2,97.5z"/>
				<path id="Path_1878" d="M67.1,97.5h21.2c2.1,0,4.2-0.7,5.8-2.1c-1.6,1.3-3.7,2.1-5.8,2.1H67.1z"/>
			</g>
		</g>
		<g id="Messanger">
			<path class="st3" d="M89.2,121.5c0.1,0.2,0.3,0.3,0.4,0.4c0.1,0.2,0.2,0.3,0.4,0.4c0.1,0.2,0.3,0.3,0.4,0.4
				c0.1,0.2,0.3,0.3,0.4,0.4c0.6,0.9,1.8,1.2,2.8,0.8l5.6-2.5c0.5-0.2,1-0.2,1.5-0.1c2.7,0.7,5.4,1.1,8.2,1.1
				c15.9,0,28.3-11.7,28.3-27.5c0-7-2.6-13.7-7.5-18.8c-0.1-0.1-0.2-0.3-0.4-0.4l-0.4-0.5c-0.1-0.1-0.3-0.3-0.4-0.4l-0.4-0.4
				l-0.4-0.4l-0.4-0.4l-0.4-0.5l-0.4-0.4c-0.2-0.2-0.3-0.3-0.4-0.5l-0.4-0.4c-0.2-0.2-0.3-0.3-0.4-0.5L125,71l-0.4-0.4l-0.4-0.5
				c-0.1-0.2-0.3-0.3-0.4-0.4l-0.4-0.4l-0.4-0.5l-0.3-0.4c-0.2-0.2-0.3-0.4-0.5-0.5c-5.5-5.9-13.2-9.1-21.3-9
				c-15.9,0-28.3,11.7-28.3,27.5C72.4,93.3,75,100,79.7,105l0.3,0.3l0.5,0.5c0.1,0.1,0.3,0.3,0.4,0.4l0.5,0.5
				c0.1,0.1,0.2,0.2,0.4,0.4l0.2,0.2c0.1,0.3,0.2,0.6,0.2,0.9l0.2,5c0,0.6,0.3,1.3,0.8,1.7c0.1,0.2,0.2,0.3,0.4,0.4
				c0.1,0.2,0.3,0.3,0.4,0.4c0.1,0.2,0.3,0.3,0.4,0.4c0.1,0.2,0.3,0.3,0.4,0.4c0.1,0.2,0.2,0.3,0.4,0.4c0.1,0.2,0.2,0.3,0.4,0.4
				c0.1,0.2,0.3,0.3,0.4,0.5c0.1,0.2,0.2,0.3,0.4,0.4c0.1,0.2,0.3,0.3,0.4,0.4c0.1,0.2,0.3,0.3,0.4,0.4c0.1,0.2,0.2,0.3,0.4,0.4
				c0.1,0.2,0.3,0.3,0.4,0.4c0.1,0.2,0.2,0.3,0.4,0.4"/>
			<g id="logo-2">
				<g id="Path-2-2">
					<path class="st4" d="M84.5,115.1c-1,0-1.8-0.8-1.8-1.8l-0.2-5c0-0.7-0.4-1.4-0.9-1.9c-5.7-5.1-8.8-12.4-8.7-20
						c0-15.4,12-27,27.9-27s27.9,11.6,27.9,27s-12,27-27.9,27c-2.7,0-5.4-0.4-8.1-1.1c-0.2-0.1-0.5-0.1-0.7-0.1
						c-0.4,0-0.7,0.1-1.1,0.2l-5.6,2.5C85,115,84.8,115.1,84.5,115.1L84.5,115.1z"/>
					<path d="M100.8,59.8c15.6,0,27.4,11.4,27.4,26.6s-11.8,26.6-27.4,26.6h-0.1c-2.7,0-5.3-0.3-7.9-1c-0.3-0.1-0.6-0.1-0.8-0.1
						c-0.4,0-0.9,0.1-1.3,0.3l-5.6,2.5c-0.2,0.1-0.4,0.1-0.6,0.1c-0.7,0-1.4-0.6-1.4-1.3l-0.2-5c0-0.9-0.4-1.8-1.1-2.4
						c-5.6-5-8.7-12.2-8.6-19.7C73.3,71.2,85.1,59.8,100.8,59.8 M100.8,58.9c-15.9,0-28.3,11.7-28.3,27.5
						c-0.1,7.7,3.1,15.1,8.9,20.3c0.5,0.4,0.7,1,0.8,1.6l0.2,5c0,1.2,1,2.2,2.3,2.2h0.1c0.3,0,0.6-0.1,0.8-0.2l5.6-2.5
						c0.5-0.2,1-0.2,1.5-0.1c2.6,0.7,5.4,1.1,8.1,1.1h0.1c15.9,0,28.3-11.7,28.3-27.5S116.7,58.9,100.8,58.9L100.8,58.9z"/>
				</g>
				<path id="Path-2-3" class="st5" d="M83.8,94.4l8.3-13.2c1.2-2,3.9-2.6,5.8-1.3c0,0,0,0,0,0l0.3,0.2l6.6,5c0.6,0.4,1.4,0.4,2,0
					l8.9-6.8c0.6-0.4,1.4-0.3,1.9,0.3c0.3,0.4,0.3,1,0.1,1.5l-8.3,13.2c-1.2,2-3.9,2.6-5.8,1.3c0,0,0,0,0,0l-0.3-0.2l-6.6-5
					c-0.6-0.4-1.4-0.4-2,0l-8.9,6.8c-0.6,0.5-1.4,0.5-1.9-0.1C83.4,95.6,83.3,94.9,83.8,94.4L83.8,94.4z"/>
			</g>
		</g>
	</g>
</g>
</svg>
