<svg xmlns="http://www.w3.org/2000/svg" xmlns:xlink="http://www.w3.org/1999/xlink" viewBox="0 0 77.33 76.82">
    <defs>
        <style>.cls-1{fill:#fff;}.cls-2{fill:url(#Dégradé_sans_nom_2);}.cls-3{fill:url(#Dégradé_sans_nom_2-2);}</style>
        <linearGradient id="Dégradé_sans_nom_2" x1="-638.69" y1="781.05" x2="-638.69" y2="780.05"
                        gradientTransform="matrix(55.62, 0, 0, -55.6, 35836.29, 43634.18)"
                        gradientUnits="userSpaceOnUse">
            <stop offset="0" stop-color="#c35052"/>
            <stop offset="1" stop-color="#7823b9"/>
        </linearGradient>
        <linearGradient id="Dégradé_sans_nom_2-2" x1="-638.97" y1="781.12" x2="-638.97" y2="780.12"
                        gradientTransform="matrix(22.62, 0, 0, -22.62, 14484.92, 17688.48)"
                        xlink:href="#Dégradé_sans_nom_2"/>
    </defs>
    <g id="Instagram">
        <g id="Group_882" data-name="Group 882">
            <path id="Path_2199" data-name="Path 2199"
                  d="M358.49,230.5a24.89,24.89,0,0,0-1.58-8.23,16.64,16.64,0,0,0-3.92-6,16.89,16.89,0,0,0-6-3.91,24.63,24.63,0,0,0-8.23-1.57c-3.63-.18-4.78-.22-14-.22s-10.37,0-14,.2a25,25,0,0,0-8.24,1.58,17.4,17.4,0,0,0-9.93,9.93,24.94,24.94,0,0,0-1.58,8.23c-.17,3.64-.21,4.79-.21,14s0,10.37.2,14a25,25,0,0,0,1.58,8.24,17.41,17.41,0,0,0,9.93,9.92,24.64,24.64,0,0,0,8.23,1.58c3.62.16,4.77.2,14,.2s10.36,0,14-.2a24.45,24.45,0,0,0,8.24-1.58,17.36,17.36,0,0,0,9.93-9.92,24.73,24.73,0,0,0,1.57-8.24c.16-3.62.21-4.78.21-14S358.65,234.12,358.49,230.5Zm-6.11,27.71a18.74,18.74,0,0,1-1.17,6.29,11.27,11.27,0,0,1-6.44,6.45,18.59,18.59,0,0,1-6.3,1.16c-3.58.16-4.65.2-13.71.2s-10.14,0-13.7-.2a18.59,18.59,0,0,1-6.3-1.16,11.24,11.24,0,0,1-6.43-6.44,18.73,18.73,0,0,1-1.16-6.29c-.16-3.58-.2-4.65-.2-13.71s0-10.14.2-13.7a18.83,18.83,0,0,1,1.16-6.3,10.37,10.37,0,0,1,2.55-3.9,10.6,10.6,0,0,1,3.9-2.53,18.79,18.79,0,0,1,6.29-1.17c3.58-.15,4.66-.2,13.71-.2s10.15,0,13.7.2a18.8,18.8,0,0,1,6.3,1.17,10.4,10.4,0,0,1,3.9,2.53,10.52,10.52,0,0,1,2.53,3.9,18.84,18.84,0,0,1,1.17,6.3c.16,3.58.2,4.65.2,13.7s0,10.12-.2,13.7Z"
                  transform="translate(-281.33 -201.59)"/>
            <path id="Path_2200" data-name="Path 2200" class="cls-1"
                  d="M352.38,230.81a18.84,18.84,0,0,0-1.17-6.3,10.52,10.52,0,0,0-2.53-3.9,10.4,10.4,0,0,0-3.9-2.53,18.8,18.8,0,0,0-6.3-1.17c-3.56-.15-4.64-.2-13.7-.2s-10.13,0-13.71.2a18.74,18.74,0,0,0-6.29,1.17,10.52,10.52,0,0,0-3.9,2.53,10.25,10.25,0,0,0-2.55,3.9,18.59,18.59,0,0,0-1.16,6.3c-.16,3.57-.2,4.65-.2,13.7s0,10.13.2,13.71a18.49,18.49,0,0,0,1.16,6.29,11.24,11.24,0,0,0,6.43,6.44,18.59,18.59,0,0,0,6.3,1.16c3.57.16,4.65.2,13.7.2s10.13,0,13.71-.2a18.83,18.83,0,0,0,6.3-1.16,11.27,11.27,0,0,0,6.44-6.45,18.74,18.74,0,0,0,1.17-6.29c.15-3.58.2-4.64.2-13.7S352.53,234.39,352.38,230.81Zm-27.63,31.12a17.44,17.44,0,1,1,17.43-17.44,17.43,17.43,0,0,1-17.43,17.44Zm18.12-31.49a4.07,4.07,0,1,1,4.07-4.07h0a4.07,4.07,0,0,1-4.07,4.07Z"
                  transform="translate(-281.33 -201.59)"/>
            <path id="Path_2201" data-name="Path 2201"
                  d="M324.75,227.05a17.44,17.44,0,1,0,17.43,17.44,17.43,17.43,0,0,0-17.43-17.44Zm0,28.75a11.31,11.31,0,1,1,11.31-11.31h0a11.32,11.32,0,0,1-11.31,11.3Z"
                  transform="translate(-281.33 -201.59)"/>
            <circle id="Ellipse_105" data-name="Ellipse 105" class="cls-1" cx="43.42" cy="42.9" r="11.31"/>
            <path id="Path_2202" data-name="Path 2202"
                  d="M346.94,226.37a4.07,4.07,0,1,1-4.07-4.08,4.07,4.07,0,0,1,4.07,4.08Z"
                  transform="translate(-281.33 -201.59)"/>
        </g>
        <g id="Group_886" data-name="Group 886">
            <g id="Group_883" data-name="Group 883">
                <path id="Path_2203" data-name="Path 2203"
                      d="M358,230.07a25.2,25.2,0,0,0-1.58-8.23,17,17,0,0,0-3.92-6,17.28,17.28,0,0,0-6-3.92,25.45,25.45,0,0,0-8.23-1.57c-3.63-.17-4.78-.22-14-.22s-10.37,0-14,.2a25.47,25.47,0,0,0-8.24,1.58,17.4,17.4,0,0,0-9.93,9.94,25.36,25.36,0,0,0-1.58,8.23c-.17,3.63-.21,4.78-.21,14s0,10.36.2,14a25,25,0,0,0,1.58,8.24,17.4,17.4,0,0,0,9.93,9.93,25.14,25.14,0,0,0,8.23,1.57c3.62.16,4.77.2,14,.2s10.36,0,14-.2a24.69,24.69,0,0,0,8.24-1.57,17.4,17.4,0,0,0,9.93-9.93A24.69,24.69,0,0,0,358,258c.16-3.62.21-4.77.21-14S358.2,233.69,358,230.07Z"
                      transform="translate(-281.33 -201.59)"/>
                <path id="Path_2204" data-name="Path 2204"
                      d="M351.93,257.78a18.84,18.84,0,0,1-1.17,6.3,11.22,11.22,0,0,1-6.44,6.44,18.84,18.84,0,0,1-6.3,1.17c-3.58.16-4.65.2-13.71.2s-10.14,0-13.7-.2a18.84,18.84,0,0,1-6.3-1.17,11.25,11.25,0,0,1-6.43-6.43,19.09,19.09,0,0,1-1.16-6.3c-.16-3.58-.2-4.65-.2-13.71s0-10.14.2-13.7a19.09,19.09,0,0,1,1.16-6.3,10.65,10.65,0,0,1,2.55-3.9,10.86,10.86,0,0,1,3.9-2.53,19.09,19.09,0,0,1,6.3-1.16c3.58-.16,4.65-.2,13.71-.2s10.14,0,13.7.2a19.09,19.09,0,0,1,6.3,1.16,11.25,11.25,0,0,1,6.43,6.43,19.09,19.09,0,0,1,1.16,6.3c.16,3.58.2,4.65.2,13.7S352.09,254.2,351.93,257.78Z"
                      transform="translate(-281.33 -201.59)"/>
            </g>
            <g id="Group_884" data-name="Group 884">
                <path id="Path_2205" data-name="Path 2205" class="cls-1"
                      d="M351.93,230.38a19.1,19.1,0,0,0-1.17-6.3,11.22,11.22,0,0,0-6.43-6.43,18.83,18.83,0,0,0-6.3-1.16c-3.56-.16-4.64-.2-13.7-.2s-10.13,0-13.71.2a19,19,0,0,0-6.29,1.16,10.73,10.73,0,0,0-3.9,2.53,10.57,10.57,0,0,0-2.55,3.9,18.83,18.83,0,0,0-1.16,6.3c-.16,3.57-.2,4.65-.2,13.7s0,10.13.2,13.71a19.09,19.09,0,0,0,1.16,6.3,11.25,11.25,0,0,0,6.43,6.43,18.84,18.84,0,0,0,6.3,1.17c3.57.16,4.65.2,13.7.2s10.13,0,13.71-.2a18.74,18.74,0,0,0,6.29-1.17,11.27,11.27,0,0,0,6.45-6.44,18.59,18.59,0,0,0,1.16-6.3c.16-3.58.2-4.64.2-13.7S352.09,234,351.93,230.38Z"
                      transform="translate(-281.33 -201.59)"/>
                <circle id="Ellipse_106" data-name="Ellipse 106" class="cls-1" cx="42.96" cy="42.47" r="17.43"/>
                <path id="Path_2206" data-name="Path 2206" class="cls-1"
                      d="M342.42,230a4.07,4.07,0,1,1,4.07-4.08h0A4.07,4.07,0,0,1,342.42,230Z"
                      transform="translate(-281.33 -201.59)"/>
            </g>
            <g id="Group_885" data-name="Group 885">
                <circle id="Ellipse_107" data-name="Ellipse 107" cx="42.96" cy="42.47" r="17.43"/>
                <circle id="Ellipse_108" data-name="Ellipse 108" cx="42.97" cy="42.47" r="11.31"/>
            </g>
            <circle id="Ellipse_109" data-name="Ellipse 109" class="cls-1" cx="42.97" cy="42.47" r="11.31"/>
            <path id="Path_2207" data-name="Path 2207"
                  d="M346.49,225.94a4.07,4.07,0,1,1-4.07-4.08,4.08,4.08,0,0,1,4.07,4.08Z"
                  transform="translate(-281.33 -201.59)"/>
        </g>
        <g id="Group_890" data-name="Group 890">
            <g id="Group_887" data-name="Group 887">
                <path id="Path_2208" data-name="Path 2208"
                      d="M357.58,229.64a25.08,25.08,0,0,0-1.57-8.22,17.13,17.13,0,0,0-3.92-6,17.35,17.35,0,0,0-6-3.91,25.46,25.46,0,0,0-8.23-1.58c-3.64-.16-4.79-.21-14-.21s-10.37,0-14,.2a25,25,0,0,0-8.24,1.58,17.33,17.33,0,0,0-9.92,9.93,25.2,25.2,0,0,0-1.58,8.23c-.17,3.63-.21,4.79-.21,14s0,10.36.2,14a25.2,25.2,0,0,0,1.57,8.24,17.42,17.42,0,0,0,9.94,9.93,25.09,25.09,0,0,0,8.22,1.58c3.63.16,4.78.2,14,.2s10.37,0,14-.2a24.74,24.74,0,0,0,8.24-1.58,17.33,17.33,0,0,0,9.92-9.93,24.65,24.65,0,0,0,1.58-8.24c.16-3.62.2-4.77.2-14S357.75,233.27,357.58,229.64Z"
                      transform="translate(-281.33 -201.59)"/>
                <path id="Path_2209" data-name="Path 2209"
                      d="M351.48,257.35a18.84,18.84,0,0,1-1.17,6.3,11.32,11.32,0,0,1-6.45,6.45,18.73,18.73,0,0,1-6.29,1.16c-3.58.16-4.65.2-13.71.2s-10.14,0-13.7-.2a19.09,19.09,0,0,1-6.3-1.16,11.26,11.26,0,0,1-6.43-6.44,19.07,19.07,0,0,1-1.16-6.29c-.16-3.58-.2-4.66-.2-13.71s0-10.15.2-13.7a18.83,18.83,0,0,1,1.16-6.3,10.49,10.49,0,0,1,2.55-3.9,10.6,10.6,0,0,1,3.9-2.53,18.79,18.79,0,0,1,6.29-1.17c3.58-.16,4.65-.2,13.71-.2s10.14,0,13.7.2a18.84,18.84,0,0,1,6.3,1.17,11.15,11.15,0,0,1,6.43,6.43,19.1,19.1,0,0,1,1.17,6.3c.16,3.58.2,4.65.2,13.7S351.63,253.78,351.48,257.35Z"
                      transform="translate(-281.33 -201.59)"/>
            </g>
            <g id="Group_888" data-name="Group 888">
                <path id="Path_2210" data-name="Path 2210" class="cls-1"
                      d="M351.48,230a19.1,19.1,0,0,0-1.17-6.3,10.75,10.75,0,0,0-2.54-3.9,10.61,10.61,0,0,0-3.89-2.53,19.09,19.09,0,0,0-6.3-1.16c-3.57-.16-4.64-.2-13.7-.2s-10.13,0-13.71.2a19.09,19.09,0,0,0-6.3,1.16,10.86,10.86,0,0,0-3.9,2.53,10.65,10.65,0,0,0-2.55,3.9,18.83,18.83,0,0,0-1.16,6.3c-.16,3.57-.2,4.66-.2,13.7s0,10.13.2,13.71a19.09,19.09,0,0,0,1.16,6.3,11.25,11.25,0,0,0,6.43,6.43,18.84,18.84,0,0,0,6.3,1.17c3.57.16,4.65.2,13.7.2s10.13,0,13.71-.2a18.6,18.6,0,0,0,6.3-1.17,11.22,11.22,0,0,0,6.44-6.44,18.6,18.6,0,0,0,1.17-6.3c.16-3.58.2-4.64.2-13.7S351.63,233.53,351.48,230Z"
                      transform="translate(-281.33 -201.59)"/>
                <circle id="Ellipse_110" data-name="Ellipse 110" class="cls-1" cx="42.52" cy="42.04" r="17.44"/>
                <path id="Path_2211" data-name="Path 2211" class="cls-1"
                      d="M342,229.58a4.07,4.07,0,1,1,4.07-4.07h0A4.08,4.08,0,0,1,342,229.58Z"
                      transform="translate(-281.33 -201.59)"/>
            </g>
            <g id="Group_889" data-name="Group 889">
                <circle id="Ellipse_111" data-name="Ellipse 111" cx="42.51" cy="42.04" r="17.43"/>
                <circle id="Ellipse_112" data-name="Ellipse 112" cx="42.51" cy="42.05" r="11.31"/>
            </g>
            <circle id="Ellipse_113" data-name="Ellipse 113" class="cls-1" cx="42.51" cy="42.04" r="11.31"/>
            <path id="Path_2212" data-name="Path 2212"
                  d="M346,225.51a4.07,4.07,0,1,1-4.07-4.07,4.08,4.08,0,0,1,4.07,4.07Z"
                  transform="translate(-281.33 -201.59)"/>
        </g>
        <g id="Group_894" data-name="Group 894">
            <g id="Group_891" data-name="Group 891">
                <path id="Path_2213" data-name="Path 2213"
                      d="M357.13,229.22a25.19,25.19,0,0,0-1.57-8.23,17.22,17.22,0,0,0-3.92-6,17.49,17.49,0,0,0-6-3.91,25.19,25.19,0,0,0-8.23-1.57c-3.63-.17-4.79-.22-14-.22s-10.37,0-14,.2a25.52,25.52,0,0,0-8.24,1.58,17.41,17.41,0,0,0-9.92,9.93,25.21,25.21,0,0,0-1.58,8.24c-.17,3.63-.21,4.78-.21,14s0,10.36.2,14a25.25,25.25,0,0,0,1.57,8.24,17.43,17.43,0,0,0,9.94,9.92,24.84,24.84,0,0,0,8.23,1.58c3.62.16,4.77.2,14,.2s10.37,0,14-.2a24.5,24.5,0,0,0,8.24-1.58,17.31,17.31,0,0,0,9.92-9.92,24.45,24.45,0,0,0,1.58-8.24c.16-3.62.2-4.78.2-14S357.3,232.84,357.13,229.22Z"
                      transform="translate(-281.33 -201.59)"/>
                <path id="Path_2214" data-name="Path 2214"
                      d="M351,256.93a18.54,18.54,0,0,1-1.17,6.29,11.27,11.27,0,0,1-6.44,6.45,18.83,18.83,0,0,1-6.3,1.16c-3.57.16-4.65.2-13.7.2s-10.15,0-13.7-.2a18.74,18.74,0,0,1-6.3-1.16,11.21,11.21,0,0,1-6.43-6.44,19,19,0,0,1-1.17-6.29c-.16-3.58-.2-4.66-.2-13.71s0-10.14.2-13.7a18.84,18.84,0,0,1,1.17-6.3,10.34,10.34,0,0,1,2.54-3.9,10.73,10.73,0,0,1,3.9-2.53,19.1,19.1,0,0,1,6.3-1.17c3.58-.16,4.66-.2,13.71-.2s10.14,0,13.7.2a18.84,18.84,0,0,1,6.3,1.17,10.6,10.6,0,0,1,3.9,2.53,10.73,10.73,0,0,1,2.53,3.9,19.1,19.1,0,0,1,1.17,6.3c.16,3.58.2,4.65.2,13.7S351.18,253.35,351,256.93Z"
                      transform="translate(-281.33 -201.59)"/>
            </g>
            <g id="Group_892" data-name="Group 892">
                <path id="Path_2215" data-name="Path 2215" class="cls-1"
                      d="M351,229.53a18.84,18.84,0,0,0-1.17-6.3,11.16,11.16,0,0,0-6.43-6.43,18.84,18.84,0,0,0-6.3-1.17c-3.56-.16-4.64-.2-13.7-.2s-10.13,0-13.71.2a19.09,19.09,0,0,0-6.29,1.17,10.73,10.73,0,0,0-3.9,2.53,10.49,10.49,0,0,0-2.55,3.9,18.83,18.83,0,0,0-1.16,6.3c-.16,3.56-.2,4.65-.2,13.7s0,10.13.2,13.71a19,19,0,0,0,1.16,6.29,11.26,11.26,0,0,0,6.43,6.44,18.83,18.83,0,0,0,6.3,1.16c3.57.16,4.65.2,13.7.2s10.13,0,13.71-.2a18.73,18.73,0,0,0,6.29-1.16,11.32,11.32,0,0,0,6.45-6.45,18.79,18.79,0,0,0,1.17-6.29c.15-3.58.2-4.64.2-13.7S351.18,233.11,351,229.53Z"
                      transform="translate(-281.33 -201.59)"/>
                <circle id="Ellipse_114" data-name="Ellipse 114" class="cls-1" cx="42.06" cy="41.62" r="17.43"/>
                <path id="Path_2216" data-name="Path 2216" class="cls-1"
                      d="M341.52,229.16a4.08,4.08,0,1,1,4.07-4.08h0A4.09,4.09,0,0,1,341.52,229.16Z"
                      transform="translate(-281.33 -201.59)"/>
            </g>
            <g id="Group_893" data-name="Group 893">
                <circle id="Ellipse_115" data-name="Ellipse 115" cx="42.06" cy="41.62" r="17.43"/>
                <circle id="Ellipse_116" data-name="Ellipse 116" cx="42.06" cy="41.62" r="11.31"/>
            </g>
            <circle id="Ellipse_117" data-name="Ellipse 117" class="cls-1" cx="42.06" cy="41.62" r="11.31"/>
            <path id="Path_2217" data-name="Path 2217"
                  d="M345.59,225.09a4.07,4.07,0,1,1-4.07-4.08,4.08,4.08,0,0,1,4.07,4.08Z"
                  transform="translate(-281.33 -201.59)"/>
        </g>
        <g id="Group_898" data-name="Group 898">
            <g id="Group_895" data-name="Group 895">
                <path id="Path_2218" data-name="Path 2218"
                      d="M356.68,228.8a25.09,25.09,0,0,0-1.57-8.23,17.13,17.13,0,0,0-3.92-6,17.35,17.35,0,0,0-6-3.91,25.46,25.46,0,0,0-8.23-1.58c-3.63-.16-4.79-.21-14-.21s-10.37,0-14,.2a25.27,25.27,0,0,0-8.25,1.58,17.38,17.38,0,0,0-9.92,9.93,25.2,25.2,0,0,0-1.58,8.23c-.17,3.63-.21,4.79-.21,14s0,10.36.2,14a25.2,25.2,0,0,0,1.57,8.24,17.45,17.45,0,0,0,9.94,9.93,25.1,25.1,0,0,0,8.23,1.58c3.62.16,4.77.2,14,.2s10.37,0,14-.2a24.74,24.74,0,0,0,8.24-1.58,17.33,17.33,0,0,0,9.92-9.93,24.4,24.4,0,0,0,1.58-8.24c.16-3.62.2-4.77.2-14S356.85,232.41,356.68,228.8Z"
                      transform="translate(-281.33 -201.59)"/>
                <path id="Path_2219" data-name="Path 2219"
                      d="M350.57,256.5a18.83,18.83,0,0,1-1.16,6.3,11.27,11.27,0,0,1-6.45,6.44,18.5,18.5,0,0,1-6.29,1.17c-3.58.16-4.65.2-13.71.2s-10.14,0-13.7-.2a18.84,18.84,0,0,1-6.3-1.17,11.22,11.22,0,0,1-6.43-6.43,19.1,19.1,0,0,1-1.17-6.3c-.16-3.58-.2-4.65-.2-13.71s0-10.14.2-13.7a18.84,18.84,0,0,1,1.17-6.3,10.5,10.5,0,0,1,2.54-3.9,11,11,0,0,1,3.9-2.53,19.09,19.09,0,0,1,6.3-1.16c3.58-.16,4.65-.2,13.71-.2s10.14,0,13.7.2a19.09,19.09,0,0,1,6.3,1.16,10.61,10.61,0,0,1,3.89,2.53,10.75,10.75,0,0,1,2.54,3.9,19.1,19.1,0,0,1,1.17,6.3c.15,3.58.2,4.66.2,13.7S350.73,252.92,350.57,256.5Z"
                      transform="translate(-281.33 -201.59)"/>
            </g>
            <g id="Group_896" data-name="Group 896">
                <path id="Path_2220" data-name="Path 2220" class="cls-1"
                      d="M350.57,229.1a19.09,19.09,0,0,0-1.16-6.3,10.75,10.75,0,0,0-2.54-3.9,10.61,10.61,0,0,0-3.89-2.53,18.83,18.83,0,0,0-6.3-1.16c-3.57-.16-4.64-.2-13.7-.2s-10.13,0-13.71.2a19.09,19.09,0,0,0-6.3,1.16,10.73,10.73,0,0,0-3.9,2.53,10.57,10.57,0,0,0-2.55,3.9,19.1,19.1,0,0,0-1.17,6.3c-.15,3.57-.2,4.65-.2,13.7s.05,10.13.2,13.71a19.36,19.36,0,0,0,1.17,6.3,11.22,11.22,0,0,0,6.43,6.43,18.84,18.84,0,0,0,6.3,1.17c3.57.15,4.65.2,13.7.2s10.13,0,13.71-.2a18.74,18.74,0,0,0,6.29-1.17,11.26,11.26,0,0,0,6.45-6.45,18.49,18.49,0,0,0,1.16-6.29c.16-3.58.2-4.64.2-13.7S350.73,232.68,350.57,229.1Z"
                      transform="translate(-281.33 -201.59)"/>
                <circle id="Ellipse_118" data-name="Ellipse 118" class="cls-1" cx="41.62" cy="41.19" r="17.44"/>
                <path id="Path_2221" data-name="Path 2221" class="cls-1"
                      d="M341.07,228.73a4.07,4.07,0,1,1,4.07-4.08h0A4.08,4.08,0,0,1,341.07,228.73Z"
                      transform="translate(-281.33 -201.59)"/>
            </g>
            <g id="Group_897" data-name="Group 897">
                <circle id="Ellipse_119" data-name="Ellipse 119" cx="41.61" cy="41.19" r="17.43"/>
                <circle id="Ellipse_120" data-name="Ellipse 120" cx="41.61" cy="41.19" r="11.31"/>
            </g>
            <circle id="Ellipse_121" data-name="Ellipse 121" class="cls-1" cx="41.61" cy="41.19" r="11.31"/>
            <path id="Path_2222" data-name="Path 2222"
                  d="M345.14,224.66a4.07,4.07,0,1,1-4.07-4.07,4.08,4.08,0,0,1,4.07,4.07Z"
                  transform="translate(-281.33 -201.59)"/>
        </g>
        <g id="Group_902" data-name="Group 902">
            <g id="Group_899" data-name="Group 899">
                <path id="Path_2223" data-name="Path 2223"
                      d="M356.23,228.37a24.84,24.84,0,0,0-1.58-8.23,17,17,0,0,0-3.92-6,17.26,17.26,0,0,0-6-3.91,25.41,25.41,0,0,0-8.23-1.58c-3.63-.16-4.78-.21-14-.21s-10.37,0-14,.2a25,25,0,0,0-8.24,1.58,17.37,17.37,0,0,0-9.93,9.93,25.46,25.46,0,0,0-1.58,8.23c-.16,3.63-.21,4.79-.21,14s0,10.36.2,14a25,25,0,0,0,1.58,8.24,17.4,17.4,0,0,0,9.93,9.93,25.15,25.15,0,0,0,8.23,1.58c3.62.16,4.77.2,14,.2s10.36,0,14-.2a24.7,24.7,0,0,0,8.24-1.58,17.37,17.37,0,0,0,9.93-9.93,24.64,24.64,0,0,0,1.57-8.24c.16-3.62.2-4.77.2-14S356.39,232,356.23,228.37Z"
                      transform="translate(-281.33 -201.59)"/>
                <path id="Path_2224" data-name="Path 2224"
                      d="M350.12,256.08a18.73,18.73,0,0,1-1.16,6.29,11.32,11.32,0,0,1-6.45,6.45,18.73,18.73,0,0,1-6.29,1.16c-3.58.16-4.65.2-13.71.2s-10.14,0-13.7-.2a18.83,18.83,0,0,1-6.3-1.16,11.24,11.24,0,0,1-6.43-6.44,19.3,19.3,0,0,1-1.17-6.29c-.15-3.58-.2-4.65-.2-13.71s.05-10.14.2-13.7a19.1,19.1,0,0,1,1.17-6.3,10.49,10.49,0,0,1,2.55-3.9,10.73,10.73,0,0,1,3.9-2.53,19.1,19.1,0,0,1,6.3-1.17c3.58-.16,4.65-.2,13.71-.2s10.14,0,13.7.2a18.84,18.84,0,0,1,6.3,1.17,10.48,10.48,0,0,1,3.89,2.53,10.6,10.6,0,0,1,2.53,3.9,18.84,18.84,0,0,1,1.17,6.3c.16,3.58.2,4.65.2,13.7S350.28,252.5,350.12,256.08Z"
                      transform="translate(-281.33 -201.59)"/>
            </g>
            <g id="Group_900" data-name="Group 900">
                <path id="Path_2225" data-name="Path 2225" class="cls-1"
                      d="M350.12,228.68a18.84,18.84,0,0,0-1.17-6.3,10.64,10.64,0,0,0-2.53-3.9,10.48,10.48,0,0,0-3.9-2.53,18.84,18.84,0,0,0-6.3-1.17c-3.56-.16-4.64-.2-13.7-.2s-10.13,0-13.71.2a19.09,19.09,0,0,0-6.29,1.17,10.73,10.73,0,0,0-3.9,2.53,10.49,10.49,0,0,0-2.55,3.9,19,19,0,0,0-1.16,6.3c-.16,3.56-.2,4.65-.2,13.7s0,10.13.2,13.71a19.07,19.07,0,0,0,1.16,6.29,11.26,11.26,0,0,0,6.43,6.44,19.09,19.09,0,0,0,6.3,1.16c3.57.16,4.65.2,13.7.2s10.13,0,13.71-.2a18.6,18.6,0,0,0,6.3-1.17,11.27,11.27,0,0,0,6.45-6.44,18.83,18.83,0,0,0,1.16-6.3c.16-3.58.2-4.64.2-13.7S350.28,232.26,350.12,228.68Z"
                      transform="translate(-281.33 -201.59)"/>
                <circle id="Ellipse_122" data-name="Ellipse 122" class="cls-1" cx="41.16" cy="40.76" r="17.44"/>
                <path id="Path_2226" data-name="Path 2226" class="cls-1"
                      d="M340.62,228.3a4.07,4.07,0,1,1,4.06-4.07h0A4.06,4.06,0,0,1,340.62,228.3Z"
                      transform="translate(-281.33 -201.59)"/>
            </g>
            <g id="Group_901" data-name="Group 901">
                <circle id="Ellipse_123" data-name="Ellipse 123" cx="41.16" cy="40.77" r="17.43"/>
                <circle id="Ellipse_124" data-name="Ellipse 124" cx="41.16" cy="40.77" r="11.31"/>
            </g>
            <circle id="Ellipse_125" data-name="Ellipse 125" class="cls-1" cx="41.16" cy="40.77" r="11.31"/>
            <path id="Path_2227" data-name="Path 2227"
                  d="M344.68,224.23a4.07,4.07,0,1,1-4.06-4.07,4.07,4.07,0,0,1,4.06,4.07Z"
                  transform="translate(-281.33 -201.59)"/>
        </g>
        <g id="Group_906" data-name="Group 906">
            <g id="Group_903" data-name="Group 903">
                <path id="Path_2228" data-name="Path 2228"
                      d="M355.78,227.94a25.14,25.14,0,0,0-1.57-8.23,17.38,17.38,0,0,0-9.94-9.94,25.08,25.08,0,0,0-8.22-1.57c-3.63-.17-4.79-.22-14-.22s-10.37,0-14,.2a25.26,25.26,0,0,0-8.24,1.58,17.36,17.36,0,0,0-9.92,9.93,25.2,25.2,0,0,0-1.58,8.23c-.17,3.64-.21,4.79-.21,14s0,10.37.2,14a25.25,25.25,0,0,0,1.57,8.24,17.41,17.41,0,0,0,9.93,9.92,24.94,24.94,0,0,0,8.23,1.58c3.62.16,4.78.2,14,.2s10.37,0,14-.2a24.5,24.5,0,0,0,8.24-1.58,17.31,17.31,0,0,0,9.92-9.92,24.74,24.74,0,0,0,1.58-8.24c.16-3.62.2-4.78.2-14S355.94,231.56,355.78,227.94Z"
                      transform="translate(-281.33 -201.59)"/>
                <path id="Path_2229" data-name="Path 2229"
                      d="M349.67,255.65a18.83,18.83,0,0,1-1.16,6.3,11.32,11.32,0,0,1-6.45,6.45,18.83,18.83,0,0,1-6.3,1.16c-3.58.16-4.65.2-13.71.2s-10.14,0-13.7-.2a19.09,19.09,0,0,1-6.3-1.16,11.26,11.26,0,0,1-6.43-6.44,19.07,19.07,0,0,1-1.16-6.29c-.16-3.58-.2-4.66-.2-13.71s0-10.15.2-13.7a18.83,18.83,0,0,1,1.16-6.3,10.49,10.49,0,0,1,2.55-3.9,10.6,10.6,0,0,1,3.9-2.53,18.83,18.83,0,0,1,6.29-1.17c3.58-.16,4.66-.2,13.71-.2s10.15,0,13.7.2a18.84,18.84,0,0,1,6.3,1.17,10.48,10.48,0,0,1,3.9,2.53,10.64,10.64,0,0,1,2.53,3.9,19.1,19.1,0,0,1,1.17,6.3c.16,3.58.2,4.65.2,13.7S349.83,252.07,349.67,255.65Z"
                      transform="translate(-281.33 -201.59)"/>
            </g>
            <g id="Group_904" data-name="Group 904">
                <path id="Path_2230" data-name="Path 2230" class="cls-1"
                      d="M349.67,228.25a19.09,19.09,0,0,0-1.16-6.3,11.22,11.22,0,0,0-6.43-6.43,19.1,19.1,0,0,0-6.3-1.17c-3.57-.15-4.64-.2-13.7-.2s-10.13,0-13.71.2a19.1,19.1,0,0,0-6.3,1.17,10.73,10.73,0,0,0-3.9,2.53,10.57,10.57,0,0,0-2.55,3.9,18.83,18.83,0,0,0-1.16,6.3c-.16,3.57-.2,4.65-.2,13.7s0,10.13.2,13.71a19,19,0,0,0,1.16,6.29,11.24,11.24,0,0,0,6.43,6.44,19.1,19.1,0,0,0,6.3,1.17c3.57.15,4.65.2,13.7.2s10.13-.05,13.71-.2a18.84,18.84,0,0,0,6.3-1.17,11.27,11.27,0,0,0,6.44-6.45,18.55,18.55,0,0,0,1.17-6.3c.16-3.58.2-4.64.2-13.7S349.83,231.83,349.67,228.25Z"
                      transform="translate(-281.33 -201.59)"/>
                <circle id="Ellipse_126" data-name="Ellipse 126" class="cls-1" cx="40.71" cy="40.34" r="17.43"/>
                <path id="Path_2231" data-name="Path 2231" class="cls-1"
                      d="M340.17,227.88a4.08,4.08,0,1,1,4.06-4.08h0A4.08,4.08,0,0,1,340.17,227.88Z"
                      transform="translate(-281.33 -201.59)"/>
            </g>
            <g id="Group_905" data-name="Group 905">
                <circle id="Ellipse_127" data-name="Ellipse 127" cx="40.71" cy="40.34" r="17.43"/>
                <circle id="Ellipse_128" data-name="Ellipse 128" cx="40.71" cy="40.34" r="11.31"/>
            </g>
            <circle id="Ellipse_129" data-name="Ellipse 129" class="cls-1" cx="40.71" cy="40.34" r="11.31"/>
            <path id="Path_2232" data-name="Path 2232"
                  d="M344.23,223.81a4.07,4.07,0,1,1-4.06-4.08,4.07,4.07,0,0,1,4.06,4.08Z"
                  transform="translate(-281.33 -201.59)"/>
        </g>
        <g id="Group_910" data-name="Group 910">
            <g id="Group_907" data-name="Group 907">
                <path id="Path_2233" data-name="Path 2233"
                      d="M355.33,227.51a24.94,24.94,0,0,0-1.58-8.23,17,17,0,0,0-3.92-6,17.37,17.37,0,0,0-6-3.92,25.45,25.45,0,0,0-8.23-1.57c-3.63-.17-4.78-.22-14-.22s-10.37,0-14,.2a25.47,25.47,0,0,0-8.24,1.58,17.42,17.42,0,0,0-9.93,9.94,25.36,25.36,0,0,0-1.58,8.23c-.16,3.63-.21,4.78-.21,14s0,10.36.2,14a25,25,0,0,0,1.58,8.24,17.4,17.4,0,0,0,9.93,9.93,25.19,25.19,0,0,0,8.23,1.57c3.62.16,4.77.2,14,.2s10.36,0,14-.2a24.69,24.69,0,0,0,8.24-1.57,17.37,17.37,0,0,0,9.93-9.93,25,25,0,0,0,1.58-8.24c.15-3.62.2-4.77.2-14S355.49,231.13,355.33,227.51Z"
                      transform="translate(-281.33 -201.59)"/>
                <path id="Path_2234" data-name="Path 2234"
                      d="M349.22,255.22a18.6,18.6,0,0,1-1.17,6.3,11.22,11.22,0,0,1-6.44,6.44,18.6,18.6,0,0,1-6.3,1.17c-3.58.16-4.65.2-13.7.2s-10.15,0-13.7-.2a18.75,18.75,0,0,1-6.3-1.17,11.19,11.19,0,0,1-6.43-6.43,18.84,18.84,0,0,1-1.17-6.3c-.16-3.57-.2-4.65-.2-13.7s0-10.15.2-13.7a18.75,18.75,0,0,1,1.17-6.3,10.34,10.34,0,0,1,2.54-3.9,10.6,10.6,0,0,1,3.9-2.53,18.84,18.84,0,0,1,6.3-1.17c3.58-.16,4.65-.2,13.71-.2s10.14,0,13.7.2a18.84,18.84,0,0,1,6.3,1.17,11.2,11.2,0,0,1,6.43,6.42,19.09,19.09,0,0,1,1.16,6.3c.16,3.58.2,4.66.2,13.7S349.38,251.64,349.22,255.22Z"
                      transform="translate(-281.33 -201.59)"/>
            </g>
            <g id="Group_908" data-name="Group 908">
                <path id="Path_2235" data-name="Path 2235" class="cls-1"
                      d="M349.22,227.82a19.09,19.09,0,0,0-1.16-6.3,11.25,11.25,0,0,0-6.43-6.43,19.09,19.09,0,0,0-6.3-1.16c-3.57-.16-4.64-.2-13.7-.2s-10.13,0-13.71.2a19.09,19.09,0,0,0-6.3,1.16,11,11,0,0,0-3.9,2.53,10.5,10.5,0,0,0-2.54,3.9,18.84,18.84,0,0,0-1.17,6.3c-.16,3.57-.2,4.65-.2,13.7s0,10.13.2,13.71a18.84,18.84,0,0,0,1.17,6.3,11.22,11.22,0,0,0,6.43,6.43,18.75,18.75,0,0,0,6.3,1.17c3.56.16,4.65.2,13.7.2s10.12,0,13.7-.2a18.84,18.84,0,0,0,6.3-1.17,11.22,11.22,0,0,0,6.44-6.44,18.6,18.6,0,0,0,1.17-6.3c.16-3.58.2-4.64.2-13.7S349.38,231.4,349.22,227.82Z"
                      transform="translate(-281.33 -201.59)"/>
                <circle id="Ellipse_130" data-name="Ellipse 130" class="cls-1" cx="40.26" cy="39.91" r="17.44"/>
                <path id="Path_2236" data-name="Path 2236" class="cls-1"
                      d="M339.71,227.45a4.07,4.07,0,1,1,4.07-4.07h0A4.07,4.07,0,0,1,339.71,227.45Z"
                      transform="translate(-281.33 -201.59)"/>
            </g>
            <g id="Group_909" data-name="Group 909">
                <circle id="Ellipse_131" data-name="Ellipse 131" cx="40.26" cy="39.91" r="17.43"/>
                <circle id="Ellipse_132" data-name="Ellipse 132" cx="40.26" cy="39.91" r="11.31"/>
            </g>
            <circle id="Ellipse_133" data-name="Ellipse 133" class="cls-1" cx="40.26" cy="39.91" r="11.31"/>
            <path id="Path_2237" data-name="Path 2237"
                  d="M343.78,223.38a4.07,4.07,0,1,1-4.07-4.07,4.05,4.05,0,0,1,4.07,4.07Z"
                  transform="translate(-281.33 -201.59)"/>
        </g>
        <g id="Group_914" data-name="Group 914">
            <g id="Group_911" data-name="Group 911">
                <path id="Path_2238" data-name="Path 2238"
                      d="M354.88,227.09a24.84,24.84,0,0,0-1.58-8.23,17,17,0,0,0-3.92-6,17.26,17.26,0,0,0-6-3.91,25.41,25.41,0,0,0-8.23-1.58c-3.63-.16-4.78-.21-14-.21s-10.37,0-14,.2a25,25,0,0,0-8.24,1.58,17.37,17.37,0,0,0-9.93,9.93,25.46,25.46,0,0,0-1.58,8.23c-.16,3.63-.21,4.79-.21,14s0,10.36.2,14a24.9,24.9,0,0,0,1.58,8.24,17.4,17.4,0,0,0,9.93,9.93,25.2,25.2,0,0,0,8.23,1.58c3.62.16,4.77.2,14,.2s10.36,0,14-.2a24.7,24.7,0,0,0,8.24-1.58,17.37,17.37,0,0,0,9.93-9.93,24.64,24.64,0,0,0,1.57-8.24c.16-3.62.21-4.77.21-14S355,230.71,354.88,227.09Z"
                      transform="translate(-281.33 -201.59)"/>
                <path id="Path_2239" data-name="Path 2239"
                      d="M348.77,254.79a18.84,18.84,0,0,1-1.17,6.3,11.21,11.21,0,0,1-6.45,6.44,18.75,18.75,0,0,1-6.3,1.17c-3.57.16-4.65.2-13.7.2s-10.15,0-13.7-.2a18.75,18.75,0,0,1-6.3-1.17,11.22,11.22,0,0,1-6.43-6.43,18.84,18.84,0,0,1-1.17-6.3c-.16-3.58-.2-4.65-.2-13.71s0-10.14.2-13.7a18.84,18.84,0,0,1,1.17-6.3,10.5,10.5,0,0,1,2.54-3.9,10.86,10.86,0,0,1,3.9-2.53,19.09,19.09,0,0,1,6.3-1.16c3.58-.16,4.65-.2,13.71-.2s10.14,0,13.7.2a19.09,19.09,0,0,1,6.3,1.16,11.25,11.25,0,0,1,6.43,6.43,19.09,19.09,0,0,1,1.16,6.3c.16,3.58.2,4.65.2,13.7S348.93,251.22,348.77,254.79Z"
                      transform="translate(-281.33 -201.59)"/>
            </g>
            <g id="Group_912" data-name="Group 912">
                <path id="Path_2240" data-name="Path 2240" class="cls-1"
                      d="M348.77,227.39a19.1,19.1,0,0,0-1.17-6.3,11.22,11.22,0,0,0-6.43-6.43,18.83,18.83,0,0,0-6.3-1.16c-3.57-.16-4.64-.2-13.7-.2s-10.13,0-13.71.2a19,19,0,0,0-6.29,1.16,10.73,10.73,0,0,0-3.9,2.53,10.57,10.57,0,0,0-2.55,3.9,19.1,19.1,0,0,0-1.17,6.3c-.15,3.57-.2,4.65-.2,13.7s0,10.13.2,13.71a19.1,19.1,0,0,0,1.17,6.3,11.22,11.22,0,0,0,6.43,6.43,18.84,18.84,0,0,0,6.3,1.17c3.57.15,4.65.2,13.7.2s10.13,0,13.71-.2a18.84,18.84,0,0,0,6.3-1.17,11.22,11.22,0,0,0,6.44-6.44,18.6,18.6,0,0,0,1.17-6.3c.16-3.58.2-4.64.2-13.7S348.92,231,348.77,227.39Z"
                      transform="translate(-281.33 -201.59)"/>
                <circle id="Ellipse_134" data-name="Ellipse 134" class="cls-1" cx="39.81" cy="39.48" r="17.44"/>
                <path id="Path_2241" data-name="Path 2241" class="cls-1"
                      d="M339.26,227a4.07,4.07,0,1,1,4.07-4.07h0A4.07,4.07,0,0,1,339.26,227Z"
                      transform="translate(-281.33 -201.59)"/>
            </g>
            <g id="Group_913" data-name="Group 913">
                <circle id="Ellipse_135" data-name="Ellipse 135" cx="39.81" cy="39.49" r="17.43"/>
                <circle id="Ellipse_136" data-name="Ellipse 136" cx="39.81" cy="39.49" r="11.31"/>
            </g>
            <circle id="Ellipse_137" data-name="Ellipse 137" class="cls-1" cx="39.81" cy="39.49" r="11.31"/>
            <path id="Path_2242" data-name="Path 2242"
                  d="M343.33,223a4.07,4.07,0,1,1-4.07-4.07,4.07,4.07,0,0,1,4.07,4.07Z"
                  transform="translate(-281.33 -201.59)"/>
        </g>
        <g id="Group_918" data-name="Group 918">
            <g id="Group_915" data-name="Group 915">
                <path id="Path_2243" data-name="Path 2243"
                      d="M354.42,226.66a25.19,25.19,0,0,0-1.57-8.23,17,17,0,0,0-3.92-6,17.37,17.37,0,0,0-6-3.92,25.45,25.45,0,0,0-8.23-1.57c-3.63-.17-4.79-.21-14-.21s-10.37,0-14,.2a25.25,25.25,0,0,0-8.25,1.57,17.4,17.4,0,0,0-9.92,9.94,25.15,25.15,0,0,0-1.58,8.23c-.17,3.63-.21,4.78-.21,14s0,10.36.2,14a25.2,25.2,0,0,0,1.57,8.24,17.42,17.42,0,0,0,9.94,9.93,25.35,25.35,0,0,0,8.22,1.58c3.62.15,4.78.2,14,.2s10.37-.05,14-.2a25,25,0,0,0,8.25-1.58,17.36,17.36,0,0,0,9.92-9.93,24.7,24.7,0,0,0,1.58-8.24c.16-3.62.2-4.77.2-14S354.58,230.28,354.42,226.66Z"
                      transform="translate(-281.33 -201.59)"/>
                <path id="Path_2244" data-name="Path 2244"
                      d="M348.32,254.37a18.84,18.84,0,0,1-1.17,6.3,11.24,11.24,0,0,1-6.45,6.44,18.74,18.74,0,0,1-6.29,1.17c-3.58.16-4.65.2-13.71.2s-10.14,0-13.7-.2a18.84,18.84,0,0,1-6.3-1.17,11.25,11.25,0,0,1-6.43-6.43,19.09,19.09,0,0,1-1.16-6.3c-.16-3.58-.2-4.65-.2-13.71s0-10.14.2-13.7a19.09,19.09,0,0,1,1.16-6.3,10.57,10.57,0,0,1,2.55-3.9,10.73,10.73,0,0,1,3.9-2.53,19.09,19.09,0,0,1,6.3-1.16c3.58-.16,4.65-.2,13.71-.2s10.14,0,13.7.2a18.83,18.83,0,0,1,6.3,1.16,10.61,10.61,0,0,1,3.89,2.53,10.75,10.75,0,0,1,2.54,3.9,19.1,19.1,0,0,1,1.17,6.3c.15,3.58.2,4.65.2,13.7S348.47,250.79,348.32,254.37Z"
                      transform="translate(-281.33 -201.59)"/>
            </g>
            <g id="Group_916" data-name="Group 916">
                <path id="Path_2245" data-name="Path 2245" class="cls-1"
                      d="M348.32,227a19.1,19.1,0,0,0-1.17-6.3,10.62,10.62,0,0,0-2.54-3.9,10.48,10.48,0,0,0-3.89-2.53,19.1,19.1,0,0,0-6.3-1.17c-3.57-.15-4.64-.2-13.7-.2s-10.13,0-13.71.2a19.1,19.1,0,0,0-6.3,1.17,10.73,10.73,0,0,0-3.9,2.53,10.42,10.42,0,0,0-2.54,3.9,18.84,18.84,0,0,0-1.17,6.3c-.16,3.57-.2,4.65-.2,13.7s0,10.13.2,13.71a18.74,18.74,0,0,0,1.17,6.29,11.21,11.21,0,0,0,6.43,6.44,19,19,0,0,0,6.3,1.17c3.56.15,4.65.2,13.7.2s10.13-.05,13.7-.2a18.84,18.84,0,0,0,6.3-1.17,11.27,11.27,0,0,0,6.44-6.45,18.5,18.5,0,0,0,1.17-6.29c.16-3.58.2-4.64.2-13.7S348.47,230.55,348.32,227Z"
                      transform="translate(-281.33 -201.59)"/>
                <circle id="Ellipse_138" data-name="Ellipse 138" class="cls-1" cx="39.35" cy="39.06" r="17.43"/>
                <path id="Path_2246" data-name="Path 2246" class="cls-1"
                      d="M338.81,226.6a4.07,4.07,0,1,1,4.07-4.08h0A4.08,4.08,0,0,1,338.81,226.6Z"
                      transform="translate(-281.33 -201.59)"/>
            </g>
            <g id="Group_917" data-name="Group 917">
                <circle id="Ellipse_139" data-name="Ellipse 139" cx="39.35" cy="39.06" r="17.43"/>
                <circle id="Ellipse_140" data-name="Ellipse 140" cx="39.35" cy="39.06" r="11.31"/>
            </g>
            <circle id="Ellipse_141" data-name="Ellipse 141" class="cls-1" cx="39.35" cy="39.06" r="11.31"/>
            <path id="Path_2247" data-name="Path 2247"
                  d="M342.87,222.53a4.07,4.07,0,1,1-4.07-4.07,4.07,4.07,0,0,1,4.07,4.07Z"
                  transform="translate(-281.33 -201.59)"/>
        </g>
        <g id="Group_922" data-name="Group 922">
            <g id="Group_919" data-name="Group 919">
                <path id="Path_2248" data-name="Path 2248"
                      d="M354,226.23A25.19,25.19,0,0,0,352.4,218a17.09,17.09,0,0,0-3.92-6,17.37,17.37,0,0,0-6-3.92,25.45,25.45,0,0,0-8.23-1.57c-3.63-.17-4.79-.21-14-.21s-10.37,0-14,.2a25.15,25.15,0,0,0-8.24,1.57,17.39,17.39,0,0,0-9.93,9.94,25.1,25.1,0,0,0-1.58,8.23c-.17,3.63-.21,4.78-.21,14s0,10.36.2,14a25.25,25.25,0,0,0,1.57,8.24,17.45,17.45,0,0,0,9.94,9.93,25.09,25.09,0,0,0,8.23,1.57c3.62.16,4.77.2,14,.2s10.36,0,14-.2a24.69,24.69,0,0,0,8.24-1.57,17.36,17.36,0,0,0,9.92-9.93A24.45,24.45,0,0,0,354,254.2c.16-3.62.2-4.77.2-14S354.14,229.85,354,226.23Z"
                      transform="translate(-281.33 -201.59)"/>
                <path id="Path_2249" data-name="Path 2249"
                      d="M347.87,253.94a18.84,18.84,0,0,1-1.17,6.3,11.32,11.32,0,0,1-6.45,6.45,18.73,18.73,0,0,1-6.29,1.16c-3.58.16-4.65.2-13.71.2s-10.14,0-13.7-.2a19.09,19.09,0,0,1-6.3-1.16,11.24,11.24,0,0,1-6.43-6.44,19.09,19.09,0,0,1-1.17-6.29c-.15-3.58-.2-4.66-.2-13.71s0-10.14.2-13.7a19.1,19.1,0,0,1,1.17-6.3,10.37,10.37,0,0,1,2.55-3.9,10.73,10.73,0,0,1,3.9-2.53,18.75,18.75,0,0,1,6.3-1.17c3.57-.16,4.65-.2,13.7-.2s10.15,0,13.7.2a18.8,18.8,0,0,1,6.3,1.17,11.15,11.15,0,0,1,6.43,6.43,19.1,19.1,0,0,1,1.17,6.3c.16,3.58.2,4.65.2,13.7S348,250.37,347.87,253.94Z"
                      transform="translate(-281.33 -201.59)"/>
            </g>
            <g id="Group_920" data-name="Group 920">
                <path id="Path_2250" data-name="Path 2250" class="cls-1"
                      d="M347.87,226.54a19.1,19.1,0,0,0-1.17-6.3,11.23,11.23,0,0,0-6.43-6.43,19.09,19.09,0,0,0-6.3-1.16c-3.57-.16-4.64-.2-13.7-.2s-10.13,0-13.71.2a19.09,19.09,0,0,0-6.3,1.16,10.86,10.86,0,0,0-3.9,2.53,10.5,10.5,0,0,0-2.54,3.9,18.84,18.84,0,0,0-1.17,6.3c-.16,3.57-.2,4.66-.2,13.7s0,10.13.2,13.71a19.1,19.1,0,0,0,1.17,6.3,11.22,11.22,0,0,0,6.43,6.43,18.8,18.8,0,0,0,6.3,1.17c3.56.16,4.65.2,13.7.2s10.13,0,13.71-.2a18.79,18.79,0,0,0,6.29-1.17,11.27,11.27,0,0,0,6.45-6.44,18.59,18.59,0,0,0,1.16-6.3c.16-3.58.2-4.64.2-13.7S348,230.12,347.87,226.54Z"
                      transform="translate(-281.33 -201.59)"/>
                <circle id="Ellipse_142" data-name="Ellipse 142" class="cls-1" cx="38.91" cy="38.63" r="17.44"/>
                <path id="Path_2251" data-name="Path 2251" class="cls-1"
                      d="M338.36,226.17a4.07,4.07,0,1,1,4.07-4.07h0A4.07,4.07,0,0,1,338.36,226.17Z"
                      transform="translate(-281.33 -201.59)"/>
            </g>
            <g id="Group_921" data-name="Group 921">
                <circle id="Ellipse_143" data-name="Ellipse 143" cx="38.9" cy="38.63" r="17.43"/>
                <circle id="Ellipse_144" data-name="Ellipse 144" cx="38.9" cy="38.63" r="11.31"/>
            </g>
            <circle id="Ellipse_145" data-name="Ellipse 145" class="cls-1" cx="38.9" cy="38.63" r="11.31"/>
            <path id="Path_2252" data-name="Path 2252"
                  d="M342.43,222.1a4.07,4.07,0,1,1-4.07-4.07,4.07,4.07,0,0,1,4.07,4.07Z"
                  transform="translate(-281.33 -201.59)"/>
        </g>
        <g id="Group_926" data-name="Group 926">
            <g id="Group_923" data-name="Group 923">
                <path id="Path_2253" data-name="Path 2253"
                      d="M353.52,225.81a25.09,25.09,0,0,0-1.57-8.23,17.13,17.13,0,0,0-3.92-6,17.35,17.35,0,0,0-6-3.91,25.46,25.46,0,0,0-8.23-1.58c-3.64-.16-4.79-.21-14-.21s-10.37,0-14,.2a25.26,25.26,0,0,0-8.24,1.58,17.36,17.36,0,0,0-9.92,9.93,25.2,25.2,0,0,0-1.58,8.23c-.17,3.63-.21,4.78-.21,14s0,10.36.2,14a25.2,25.2,0,0,0,1.57,8.24,17.45,17.45,0,0,0,9.94,9.93,25.1,25.1,0,0,0,8.23,1.58c3.62.15,4.77.2,14,.2s10.36,0,14-.2a24.7,24.7,0,0,0,8.24-1.58,17.33,17.33,0,0,0,9.92-9.93,24.4,24.4,0,0,0,1.58-8.24c.16-3.62.2-4.77.2-14S353.68,229.43,353.52,225.81Z"
                      transform="translate(-281.33 -201.59)"/>
                <path id="Path_2254" data-name="Path 2254"
                      d="M347.41,253.52a18.49,18.49,0,0,1-1.16,6.29,11.32,11.32,0,0,1-6.45,6.45,18.49,18.49,0,0,1-6.29,1.16c-3.58.16-4.66.2-13.71.2s-10.15,0-13.7-.2a18.79,18.79,0,0,1-6.3-1.16,11.21,11.21,0,0,1-6.43-6.44,18.74,18.74,0,0,1-1.17-6.29c-.16-3.58-.2-4.65-.2-13.71s0-10.14.2-13.7a18.84,18.84,0,0,1,1.17-6.3,10.34,10.34,0,0,1,2.54-3.9,10.73,10.73,0,0,1,3.9-2.53,19.1,19.1,0,0,1,6.3-1.17c3.58-.15,4.65-.2,13.71-.2s10.14,0,13.7.2a19.1,19.1,0,0,1,6.3,1.17,11.22,11.22,0,0,1,6.43,6.43,19.09,19.09,0,0,1,1.16,6.3c.16,3.58.2,4.65.2,13.7S347.57,249.94,347.41,253.52Z"
                      transform="translate(-281.33 -201.59)"/>
            </g>
            <g id="Group_924" data-name="Group 924">
                <path id="Path_2255" data-name="Path 2255" class="cls-1"
                      d="M347.41,226.12a19.09,19.09,0,0,0-1.16-6.3,10.67,10.67,0,0,0-2.54-3.9,10.36,10.36,0,0,0-3.89-2.53,18.84,18.84,0,0,0-6.3-1.17c-3.57-.16-4.64-.2-13.7-.2s-10.13,0-13.71.2a18.84,18.84,0,0,0-6.3,1.17,10.6,10.6,0,0,0-3.9,2.53,10.34,10.34,0,0,0-2.54,3.9,18.8,18.8,0,0,0-1.17,6.3c-.16,3.56-.2,4.65-.2,13.7s0,10.13.2,13.71a18.83,18.83,0,0,0,1.17,6.29,11.21,11.21,0,0,0,6.43,6.44,19,19,0,0,0,6.3,1.16c3.56.16,4.65.2,13.7.2s10.13,0,13.7-.2a18.83,18.83,0,0,0,6.3-1.16,11.32,11.32,0,0,0,6.45-6.45,18.83,18.83,0,0,0,1.16-6.3c.16-3.57.2-4.63.2-13.7S347.57,229.7,347.41,226.12Z"
                      transform="translate(-281.33 -201.59)"/>
                <circle id="Ellipse_146" data-name="Ellipse 146" class="cls-1" cx="38.46" cy="38.2" r="17.44"/>
                <path id="Path_2256" data-name="Path 2256" class="cls-1"
                      d="M337.91,225.74a4.07,4.07,0,1,1,4.06-4.07h0A4.07,4.07,0,0,1,337.91,225.74Z"
                      transform="translate(-281.33 -201.59)"/>
            </g>
            <g id="Group_925" data-name="Group 925">
                <circle id="Ellipse_147" data-name="Ellipse 147" cx="38.45" cy="38.21" r="17.43"/>
                <circle id="Ellipse_148" data-name="Ellipse 148" cx="38.45" cy="38.21" r="11.31"/>
            </g>
            <circle id="Ellipse_149" data-name="Ellipse 149" class="cls-1" cx="38.45" cy="38.21" r="11.31"/>
            <path id="Path_2257" data-name="Path 2257"
                  d="M342,221.67a4.07,4.07,0,1,1-4.07-4.07,4.08,4.08,0,0,1,4.07,4.07Z"
                  transform="translate(-281.33 -201.59)"/>
        </g>
        <g id="Group_930" data-name="Group 930">
            <g id="Group_927" data-name="Group 927">
                <path id="Path_2258" data-name="Path 2258"
                      d="M353.07,225.38a25.19,25.19,0,0,0-1.57-8.23,17.11,17.11,0,0,0-3.93-6,17.36,17.36,0,0,0-6-3.91,25.19,25.19,0,0,0-8.23-1.57c-3.64-.17-4.79-.22-14-.22s-10.37,0-14,.2a25.52,25.52,0,0,0-8.24,1.58,17.37,17.37,0,0,0-9.92,9.94,25.09,25.09,0,0,0-1.58,8.22c-.17,3.64-.21,4.79-.21,14s0,10.37.2,14a25.25,25.25,0,0,0,1.57,8.24,17.41,17.41,0,0,0,9.93,9.92,24.94,24.94,0,0,0,8.23,1.58c3.62.16,4.78.2,14,.2s10.36,0,14-.2a24.4,24.4,0,0,0,8.24-1.58,17.33,17.33,0,0,0,9.93-9.92,24.74,24.74,0,0,0,1.58-8.24c.16-3.62.2-4.78.2-14S353.23,229,353.07,225.38Z"
                      transform="translate(-281.33 -201.59)"/>
                <path id="Path_2259" data-name="Path 2259"
                      d="M347,253.09a18.6,18.6,0,0,1-1.17,6.3,11.22,11.22,0,0,1-6.44,6.44,18.84,18.84,0,0,1-6.3,1.17c-3.57.16-4.65.2-13.7.2s-10.15,0-13.7-.2a18.75,18.75,0,0,1-6.3-1.17,11.22,11.22,0,0,1-6.43-6.43,18.84,18.84,0,0,1-1.17-6.3c-.16-3.58-.2-4.65-.2-13.71s0-10.14.2-13.7a18.84,18.84,0,0,1,1.17-6.3,10.5,10.5,0,0,1,2.54-3.9,10.86,10.86,0,0,1,3.9-2.53,19.09,19.09,0,0,1,6.3-1.16c3.58-.16,4.65-.2,13.71-.2s10.14,0,13.7.2a19.09,19.09,0,0,1,6.3,1.16,11.22,11.22,0,0,1,6.43,6.43,19.1,19.1,0,0,1,1.17,6.3c.15,3.58.2,4.65.2,13.7S347.12,249.52,347,253.09Z"
                      transform="translate(-281.33 -201.59)"/>
            </g>
            <g id="Group_928" data-name="Group 928">
                <path id="Path_2260" data-name="Path 2260" class="cls-1"
                      d="M347,225.69a19.09,19.09,0,0,0-1.16-6.3,11.25,11.25,0,0,0-6.43-6.43,18.83,18.83,0,0,0-6.3-1.16c-3.57-.16-4.64-.2-13.7-.2s-10.13,0-13.71.2a19.09,19.09,0,0,0-6.3,1.16,10.73,10.73,0,0,0-3.9,2.53,10.5,10.5,0,0,0-2.54,3.9,18.84,18.84,0,0,0-1.17,6.3c-.16,3.57-.2,4.65-.2,13.7s0,10.13.2,13.71a19.1,19.1,0,0,0,1.17,6.3,11.22,11.22,0,0,0,6.43,6.43,18.75,18.75,0,0,0,6.3,1.17c3.56.16,4.65.2,13.7.2s10.13,0,13.7-.2a18.75,18.75,0,0,0,6.3-1.17,11.27,11.27,0,0,0,6.45-6.44,18.84,18.84,0,0,0,1.17-6.3c.15-3.58.2-4.64.2-13.7S347.12,229.27,347,225.69Z"
                      transform="translate(-281.33 -201.59)"/>
                <circle id="Ellipse_150" data-name="Ellipse 150" class="cls-1" cx="38" cy="37.78" r="17.43"/>
                <path id="Path_2261" data-name="Path 2261" class="cls-1"
                      d="M337.45,225.32a4.07,4.07,0,1,1,4.07-4.08h0A4.08,4.08,0,0,1,337.45,225.32Z"
                      transform="translate(-281.33 -201.59)"/>
            </g>
            <g id="Group_929" data-name="Group 929">
                <circle id="Ellipse_151" data-name="Ellipse 151" cx="38" cy="37.78" r="17.43"/>
                <circle id="Ellipse_152" data-name="Ellipse 152" cx="38" cy="37.78" r="11.31"/>
            </g>
            <circle id="Ellipse_153" data-name="Ellipse 153" class="cls-1" cx="38" cy="37.78" r="11.31"/>
            <path id="Path_2262" data-name="Path 2262"
                  d="M341.53,221.25a4.07,4.07,0,1,1-4.07-4.07,4.07,4.07,0,0,1,4.07,4.07Z"
                  transform="translate(-281.33 -201.59)"/>
        </g>
        <g id="Group_934" data-name="Group 934">
            <g id="Group_931" data-name="Group 931">
                <path id="Path_2263" data-name="Path 2263"
                      d="M352.62,225a24.94,24.94,0,0,0-1.58-8.23,17,17,0,0,0-3.92-6,17.26,17.26,0,0,0-6-3.91,25.46,25.46,0,0,0-8.23-1.58c-3.63-.16-4.78-.21-14-.21s-10.37,0-14,.2a25,25,0,0,0-8.24,1.58,17.37,17.37,0,0,0-9.93,9.93,25.41,25.41,0,0,0-1.58,8.23c-.16,3.63-.2,4.78-.2,14s0,10.36.2,14a24.94,24.94,0,0,0,1.57,8.24,17.43,17.43,0,0,0,9.93,9.93,25.2,25.2,0,0,0,8.23,1.58c3.62.15,4.78.2,14,.2s10.36,0,14-.2a24.65,24.65,0,0,0,8.24-1.58,17.34,17.34,0,0,0,9.93-9.93,25,25,0,0,0,1.58-8.24c.15-3.62.2-4.77.2-14S352.78,228.57,352.62,225Z"
                      transform="translate(-281.33 -201.59)"/>
                <path id="Path_2264" data-name="Path 2264"
                      d="M346.51,252.66a18.83,18.83,0,0,1-1.16,6.3,11.27,11.27,0,0,1-6.45,6.44,18.84,18.84,0,0,1-6.3,1.17c-3.58.15-4.65.2-13.7.2s-10.15,0-13.7-.2a18.8,18.8,0,0,1-6.3-1.17,11.22,11.22,0,0,1-6.43-6.43,19.1,19.1,0,0,1-1.17-6.3c-.15-3.58-.2-4.65-.2-13.71s0-10.14.2-13.7a18.84,18.84,0,0,1,1.17-6.3,10.5,10.5,0,0,1,2.54-3.9,10.81,10.81,0,0,1,3.9-2.53,19.09,19.09,0,0,1,6.3-1.16c3.58-.16,4.65-.2,13.71-.2s10.14,0,13.7.2a19.09,19.09,0,0,1,6.3,1.16,11.25,11.25,0,0,1,6.43,6.43,19.09,19.09,0,0,1,1.16,6.3c.16,3.58.2,4.65.2,13.7S346.67,249.09,346.51,252.66Z"
                      transform="translate(-281.33 -201.59)"/>
            </g>
            <g id="Group_932" data-name="Group 932">
                <path id="Path_2265" data-name="Path 2265" class="cls-1"
                      d="M346.51,225.26a18.84,18.84,0,0,0-1.17-6.3,11.16,11.16,0,0,0-6.42-6.42,18.84,18.84,0,0,0-6.3-1.17c-3.57-.16-4.64-.2-13.7-.2s-10.14,0-13.71.2a18.84,18.84,0,0,0-6.3,1.17,10.6,10.6,0,0,0-3.9,2.53,10.34,10.34,0,0,0-2.54,3.9,18.75,18.75,0,0,0-1.17,6.3c-.16,3.56-.2,4.65-.2,13.7s0,10.13.2,13.7a18.84,18.84,0,0,0,1.17,6.3,11.2,11.2,0,0,0,6.42,6.43,18.84,18.84,0,0,0,6.3,1.17c3.57.16,4.65.2,13.7.2s10.13,0,13.71-.2a18.6,18.6,0,0,0,6.3-1.17,11.22,11.22,0,0,0,6.44-6.44,18.84,18.84,0,0,0,1.17-6.3c.16-3.58.2-4.64.2-13.7S346.67,228.84,346.51,225.26Z"
                      transform="translate(-281.33 -201.59)"/>
                <circle id="Ellipse_154" data-name="Ellipse 154" class="cls-1" cx="37.55" cy="37.35" r="17.44"/>
                <path id="Path_2266" data-name="Path 2266" class="cls-1"
                      d="M337,224.89a4.07,4.07,0,1,1,4.06-4.07h0A4.07,4.07,0,0,1,337,224.89Z"
                      transform="translate(-281.33 -201.59)"/>
            </g>
            <g id="Group_933" data-name="Group 933">
                <circle id="Ellipse_155" data-name="Ellipse 155" cx="37.55" cy="37.35" r="17.43"/>
                <circle id="Ellipse_156" data-name="Ellipse 156" cx="37.55" cy="37.35" r="11.31"/>
            </g>
            <circle id="Ellipse_157" data-name="Ellipse 157" class="cls-1" cx="37.55" cy="37.36" r="11.31"/>
            <path id="Path_2267" data-name="Path 2267"
                  d="M341.07,220.82a4.07,4.07,0,1,1-4.06-4.07,4.07,4.07,0,0,1,4.06,4.07Z"
                  transform="translate(-281.33 -201.59)"/>
        </g>
        <g id="Group_938" data-name="Group 938">
            <g id="Group_935" data-name="Group 935">
                <path id="Path_2268" data-name="Path 2268"
                      d="M352.17,224.53a24.94,24.94,0,0,0-1.58-8.23,17,17,0,0,0-3.92-6,17.26,17.26,0,0,0-6-3.91,25.36,25.36,0,0,0-8.23-1.58c-3.63-.17-4.78-.21-14-.21s-10.37,0-14,.2a25,25,0,0,0-8.24,1.58,17.37,17.37,0,0,0-9.93,9.93,25.08,25.08,0,0,0-1.57,8.22c-.17,3.63-.21,4.79-.21,14s0,10.37.2,14a25,25,0,0,0,1.57,8.24,17.44,17.44,0,0,0,9.93,9.92,24.94,24.94,0,0,0,8.23,1.58c3.62.16,4.78.2,14,.2s10.36,0,14-.2a24.4,24.4,0,0,0,8.24-1.58,17.33,17.33,0,0,0,9.93-9.92,25,25,0,0,0,1.58-8.24c.16-3.62.2-4.78.2-14S352.33,228.15,352.17,224.53Z"
                      transform="translate(-281.33 -201.59)"/>
                <path id="Path_2269" data-name="Path 2269"
                      d="M346.06,252.24a18.6,18.6,0,0,1-1.17,6.3,11.22,11.22,0,0,1-6.44,6.44,18.6,18.6,0,0,1-6.3,1.17c-3.58.16-4.65.2-13.71.2s-10.14,0-13.7-.2a18.84,18.84,0,0,1-6.3-1.17,11.25,11.25,0,0,1-6.43-6.43,19.09,19.09,0,0,1-1.16-6.3c-.16-3.58-.2-4.65-.2-13.71s0-10.14.2-13.7a19.09,19.09,0,0,1,1.16-6.3,10.65,10.65,0,0,1,2.55-3.9,10.86,10.86,0,0,1,3.9-2.53,19.09,19.09,0,0,1,6.3-1.16c3.58-.16,4.65-.2,13.71-.2s10.14,0,13.7.2a19.09,19.09,0,0,1,6.3,1.16,11.2,11.2,0,0,1,6.42,6.43,18.84,18.84,0,0,1,1.17,6.3c.16,3.58.2,4.66.2,13.7S346.22,248.66,346.06,252.24Z"
                      transform="translate(-281.33 -201.59)"/>
            </g>
            <g id="Group_936" data-name="Group 936">
                <path id="Path_2270" data-name="Path 2270" class="cls-1"
                      d="M346.06,224.84a18.84,18.84,0,0,0-1.17-6.3,11.16,11.16,0,0,0-6.43-6.43,19,19,0,0,0-6.3-1.17c-3.56-.15-4.63-.2-13.7-.2s-10.12,0-13.7.2a19.1,19.1,0,0,0-6.3,1.17,10.73,10.73,0,0,0-3.9,2.53,10.49,10.49,0,0,0-2.55,3.9,19.09,19.09,0,0,0-1.16,6.3c-.16,3.57-.2,4.65-.2,13.7s0,10.13.2,13.71a19,19,0,0,0,1.16,6.29,11.24,11.24,0,0,0,6.43,6.44,18.83,18.83,0,0,0,6.3,1.16c3.57.16,4.65.2,13.7.2s10.13,0,13.71-.2a18.59,18.59,0,0,0,6.3-1.16,11.32,11.32,0,0,0,6.45-6.45,18.49,18.49,0,0,0,1.16-6.29c.16-3.58.2-4.64.2-13.7S346.21,228.42,346.06,224.84Z"
                      transform="translate(-281.33 -201.59)"/>
                <circle id="Ellipse_158" data-name="Ellipse 158" class="cls-1" cx="37.1" cy="36.92" r="17.44"/>
                <path id="Path_2271" data-name="Path 2271" class="cls-1"
                      d="M336.55,224.46a4.07,4.07,0,1,1,4.07-4.07h0A4.07,4.07,0,0,1,336.55,224.46Z"
                      transform="translate(-281.33 -201.59)"/>
            </g>
            <g id="Group_937" data-name="Group 937">
                <circle id="Ellipse_159" data-name="Ellipse 159" cx="37.1" cy="36.93" r="17.43"/>
                <circle id="Ellipse_160" data-name="Ellipse 160" cx="37.1" cy="36.93" r="11.31"/>
            </g>
            <circle id="Ellipse_161" data-name="Ellipse 161" class="cls-1" cx="37.1" cy="36.93" r="11.31"/>
            <path id="Path_2272" data-name="Path 2272"
                  d="M340.62,220.4a4.07,4.07,0,1,1-4.06-4.07,4.07,4.07,0,0,1,4.06,4.07Z"
                  transform="translate(-281.33 -201.59)"/>
        </g>
        <g id="Group_942" data-name="Group 942">
            <g id="Group_939" data-name="Group 939">
                <path id="Path_2273" data-name="Path 2273"
                      d="M351.72,224.1a25.2,25.2,0,0,0-1.58-8.23,17.08,17.08,0,0,0-3.92-6,17.49,17.49,0,0,0-6-3.91,25.45,25.45,0,0,0-8.23-1.57c-3.63-.17-4.78-.22-14-.22s-10.37.05-14,.2a25.47,25.47,0,0,0-8.24,1.58,17.42,17.42,0,0,0-9.93,9.94,25.36,25.36,0,0,0-1.58,8.23c-.16,3.63-.21,4.78-.21,14s0,10.36.2,14a25,25,0,0,0,1.58,8.24,17.4,17.4,0,0,0,9.93,9.93,25.41,25.41,0,0,0,8.23,1.58c3.62.15,4.77.2,14,.2s10.36,0,14-.2a25,25,0,0,0,8.24-1.58,17.37,17.37,0,0,0,9.93-9.93,25,25,0,0,0,1.58-8.24c.15-3.62.2-4.77.2-14S351.88,227.72,351.72,224.1Z"
                      transform="translate(-281.33 -201.59)"/>
                <path id="Path_2274" data-name="Path 2274"
                      d="M345.61,251.81a18.84,18.84,0,0,1-1.17,6.3,11.22,11.22,0,0,1-6.44,6.44,18.84,18.84,0,0,1-6.3,1.17c-3.58.16-4.65.2-13.71.2s-10.14,0-13.7-.2a18.84,18.84,0,0,1-6.3-1.17,11.25,11.25,0,0,1-6.43-6.43,19.09,19.09,0,0,1-1.16-6.3c-.16-3.58-.2-4.65-.2-13.71s0-10.14.2-13.7a19.09,19.09,0,0,1,1.16-6.3,10.65,10.65,0,0,1,2.55-3.9,10.86,10.86,0,0,1,3.9-2.53,19.09,19.09,0,0,1,6.3-1.16c3.57-.16,4.65-.2,13.7-.2s10.15,0,13.7.2a19,19,0,0,1,6.3,1.16,11.19,11.19,0,0,1,6.43,6.43,18.84,18.84,0,0,1,1.17,6.3c.16,3.58.2,4.66.2,13.7S345.77,248.23,345.61,251.81Z"
                      transform="translate(-281.33 -201.59)"/>
            </g>
            <g id="Group_940" data-name="Group 940">
                <path id="Path_2275" data-name="Path 2275" class="cls-1"
                      d="M345.61,224.41a19.1,19.1,0,0,0-1.17-6.3,11.19,11.19,0,0,0-6.43-6.43,18.83,18.83,0,0,0-6.3-1.16c-3.56-.16-4.64-.2-13.7-.2s-10.13,0-13.71.2a19,19,0,0,0-6.29,1.16,10.73,10.73,0,0,0-3.9,2.53,10.57,10.57,0,0,0-2.55,3.9,18.83,18.83,0,0,0-1.16,6.3c-.16,3.57-.2,4.65-.2,13.7s0,10.13.2,13.71a19,19,0,0,0,1.16,6.29,11.24,11.24,0,0,0,6.43,6.44,19.1,19.1,0,0,0,6.3,1.17c3.57.15,4.65.2,13.7.2s10.13-.05,13.71-.2a18.74,18.74,0,0,0,6.29-1.17,11.32,11.32,0,0,0,6.45-6.45,18.49,18.49,0,0,0,1.16-6.29c.16-3.58.2-4.64.2-13.7S345.77,228,345.61,224.41Z"
                      transform="translate(-281.33 -201.59)"/>
                <circle id="Ellipse_162" data-name="Ellipse 162" class="cls-1" cx="36.65" cy="36.5" r="17.44"/>
                <path id="Path_2276" data-name="Path 2276" class="cls-1"
                      d="M336.1,224a4.08,4.08,0,1,1,4.07-4.08h0A4.08,4.08,0,0,1,336.1,224Z"
                      transform="translate(-281.33 -201.59)"/>
            </g>
            <g id="Group_941" data-name="Group 941">
                <circle id="Ellipse_163" data-name="Ellipse 163" cx="36.65" cy="36.5" r="17.43"/>
                <circle id="Ellipse_164" data-name="Ellipse 164" cx="36.65" cy="36.5" r="11.31"/>
            </g>
            <circle id="Ellipse_165" data-name="Ellipse 165" class="cls-1" cx="36.65" cy="36.5" r="11.31"/>
            <path id="Path_2277" data-name="Path 2277"
                  d="M340.17,220a4.07,4.07,0,1,1-4.07-4.07,4.07,4.07,0,0,1,4.07,4.07Z"
                  transform="translate(-281.33 -201.59)"/>
        </g>
        <g id="Group_946" data-name="Group 946">
            <g id="Group_943" data-name="Group 943">
                <path id="Path_2278" data-name="Path 2278"
                      d="M351.26,223.68a25.2,25.2,0,0,0-1.57-8.24,17,17,0,0,0-3.92-6,17.35,17.35,0,0,0-6-3.91,25.46,25.46,0,0,0-8.23-1.58c-3.63-.16-4.79-.21-14-.21s-10.37,0-14,.2a25,25,0,0,0-8.24,1.58,17.37,17.37,0,0,0-9.93,9.93,25.46,25.46,0,0,0-1.58,8.23c-.16,3.63-.21,4.79-.21,14s0,10.36.2,14a25,25,0,0,0,1.58,8.24,17.4,17.4,0,0,0,9.93,9.93,25.15,25.15,0,0,0,8.23,1.58c3.62.15,4.77.2,14,.2s10.36,0,14-.2a25,25,0,0,0,8.24-1.58,17.37,17.37,0,0,0,9.93-9.93,24.9,24.9,0,0,0,1.58-8.24c.15-3.62.2-4.77.2-14S351.43,227.3,351.26,223.68Z"
                      transform="translate(-281.33 -201.59)"/>
                <path id="Path_2279" data-name="Path 2279"
                      d="M345.16,251.39a18.79,18.79,0,0,1-1.17,6.29,11.27,11.27,0,0,1-6.44,6.45,18.83,18.83,0,0,1-6.3,1.16c-3.58.16-4.65.2-13.71.2s-10.14,0-13.7-.2a18.83,18.83,0,0,1-6.3-1.16,11.26,11.26,0,0,1-6.43-6.44A19,19,0,0,1,290,251.4c-.16-3.58-.2-4.66-.2-13.71s0-10.14.2-13.7a18.83,18.83,0,0,1,1.16-6.3,10.49,10.49,0,0,1,2.55-3.9,10.73,10.73,0,0,1,3.9-2.53,19.1,19.1,0,0,1,6.3-1.17c3.58-.16,4.65-.2,13.71-.2s10.14,0,13.7.2a18.84,18.84,0,0,1,6.3,1.17,10.48,10.48,0,0,1,3.89,2.53,10.75,10.75,0,0,1,2.54,3.9,19.09,19.09,0,0,1,1.16,6.3c.16,3.58.2,4.65.2,13.7S345.32,247.81,345.16,251.39Z"
                      transform="translate(-281.33 -201.59)"/>
            </g>
            <g id="Group_944" data-name="Group 944">
                <path id="Path_2280" data-name="Path 2280" class="cls-1"
                      d="M345.16,224a19,19,0,0,0-1.17-6.3,10.54,10.54,0,0,0-2.54-3.9,10.36,10.36,0,0,0-3.89-2.53,18.84,18.84,0,0,0-6.3-1.17c-3.57-.16-4.64-.2-13.7-.2s-10.13,0-13.71.2a18.74,18.74,0,0,0-6.29,1.17,10.6,10.6,0,0,0-3.9,2.53,10.25,10.25,0,0,0-2.55,3.9,19,19,0,0,0-1.17,6.3c-.16,3.56-.2,4.65-.2,13.7s0,10.13.2,13.7a19.1,19.1,0,0,0,1.17,6.3,11.19,11.19,0,0,0,6.43,6.43,18.84,18.84,0,0,0,6.3,1.17c3.56.16,4.65.2,13.7.2s10.13,0,13.71-.2a18.5,18.5,0,0,0,6.29-1.17,11.27,11.27,0,0,0,6.45-6.44,18.83,18.83,0,0,0,1.16-6.3c.16-3.57.2-4.64.2-13.7S345.31,227.56,345.16,224Z"
                      transform="translate(-281.33 -201.59)"/>
                <circle id="Ellipse_166" data-name="Ellipse 166" class="cls-1" cx="36.2" cy="36.07" r="17.44"/>
                <path id="Path_2281" data-name="Path 2281" class="cls-1"
                      d="M335.65,223.61a4.07,4.07,0,1,1,4.07-4.07h0A4.07,4.07,0,0,1,335.65,223.61Z"
                      transform="translate(-281.33 -201.59)"/>
            </g>
            <g id="Group_945" data-name="Group 945">
                <circle id="Ellipse_167" data-name="Ellipse 167" cx="36.19" cy="36.07" r="17.43"/>
                <circle id="Ellipse_168" data-name="Ellipse 168" cx="36.19" cy="36.08" r="11.31"/>
            </g>
            <circle id="Ellipse_169" data-name="Ellipse 169" class="cls-1" cx="36.19" cy="36.08" r="11.31"/>
            <path id="Path_2282" data-name="Path 2282"
                  d="M339.72,219.54a4.07,4.07,0,1,1-4.07-4.07,4.06,4.06,0,0,1,4.07,4.07Z"
                  transform="translate(-281.33 -201.59)"/>
        </g>
        <g id="Group_950" data-name="Group 950">
            <g id="Group_947" data-name="Group 947">
                <path id="Path_2283" data-name="Path 2283"
                      d="M350.81,223.25a25.14,25.14,0,0,0-1.57-8.23,17.13,17.13,0,0,0-3.92-6,17.35,17.35,0,0,0-6-3.91,25.19,25.19,0,0,0-8.23-1.57c-3.63-.17-4.79-.22-14-.22s-10.37,0-14,.2a25.27,25.27,0,0,0-8.25,1.58,17.38,17.38,0,0,0-9.92,9.93,25.2,25.2,0,0,0-1.58,8.23c-.17,3.63-.21,4.79-.21,14s0,10.37.2,14a25,25,0,0,0,1.58,8.25,17.41,17.41,0,0,0,9.93,9.92,24.89,24.89,0,0,0,8.23,1.58c3.62.16,4.77.2,14,.2s10.37,0,14-.2a24.74,24.74,0,0,0,8.24-1.58,17.31,17.31,0,0,0,9.92-9.92,24.51,24.51,0,0,0,1.58-8.25c.16-3.62.2-4.77.2-14S351,226.87,350.81,223.25Z"
                      transform="translate(-281.33 -201.59)"/>
                <path id="Path_2284" data-name="Path 2284"
                      d="M344.71,251a18.74,18.74,0,0,1-1.17,6.29,11.32,11.32,0,0,1-6.45,6.45,18.49,18.49,0,0,1-6.29,1.16c-3.58.16-4.65.2-13.71.2s-10.14,0-13.7-.2a18.83,18.83,0,0,1-6.3-1.16,11.24,11.24,0,0,1-6.43-6.44A19,19,0,0,1,289.5,251c-.16-3.58-.2-4.65-.2-13.71s0-10.14.2-13.7a18.83,18.83,0,0,1,1.16-6.3,10.49,10.49,0,0,1,2.55-3.9,10.73,10.73,0,0,1,3.9-2.53,19,19,0,0,1,6.29-1.17c3.58-.15,4.66-.2,13.71-.2s10.15,0,13.7.2a19.1,19.1,0,0,1,6.3,1.17,10.6,10.6,0,0,1,3.9,2.53,10.73,10.73,0,0,1,2.53,3.9,19.1,19.1,0,0,1,1.17,6.3c.16,3.58.2,4.65.2,13.7S344.86,247.38,344.71,251Z"
                      transform="translate(-281.33 -201.59)"/>
            </g>
            <g id="Group_948" data-name="Group 948">
                <path id="Path_2285" data-name="Path 2285" class="cls-1"
                      d="M344.71,223.55a19.1,19.1,0,0,0-1.17-6.3,11.23,11.23,0,0,0-6.43-6.43,18.83,18.83,0,0,0-6.3-1.16c-3.57-.16-4.64-.2-13.7-.2s-10.13,0-13.71.2a19,19,0,0,0-6.29,1.16,10.73,10.73,0,0,0-3.9,2.53,10.57,10.57,0,0,0-2.55,3.9,19.1,19.1,0,0,0-1.17,6.3c-.15,3.57-.2,4.65-.2,13.7s0,10.13.2,13.71a19.1,19.1,0,0,0,1.17,6.3,11.22,11.22,0,0,0,6.43,6.43,18.84,18.84,0,0,0,6.3,1.17c3.57.15,4.65.2,13.7.2s10.13,0,13.71-.2a18.74,18.74,0,0,0,6.29-1.17,11.27,11.27,0,0,0,6.45-6.44,18.84,18.84,0,0,0,1.17-6.3c.15-3.58.2-4.64.2-13.7S344.86,227.14,344.71,223.55Z"
                      transform="translate(-281.33 -201.59)"/>
                <circle id="Ellipse_170" data-name="Ellipse 170" class="cls-1" cx="35.74" cy="35.65" r="17.43"/>
                <path id="Path_2286" data-name="Path 2286" class="cls-1"
                      d="M335.2,223.18a4.07,4.07,0,1,1,4.07-4.07h0A4.07,4.07,0,0,1,335.2,223.18Z"
                      transform="translate(-281.33 -201.59)"/>
            </g>
            <g id="Group_949" data-name="Group 949">
                <circle id="Ellipse_171" data-name="Ellipse 171" cx="35.74" cy="35.65" r="17.43"/>
                <circle id="Ellipse_172" data-name="Ellipse 172" cx="35.74" cy="35.65" r="11.31"/>
            </g>
            <circle id="Ellipse_173" data-name="Ellipse 173" class="cls-1" cx="35.74" cy="35.65" r="11.31"/>
            <path id="Path_2287" data-name="Path 2287"
                  d="M339.27,219.12a4.07,4.07,0,1,1-4.07-4.07,4.08,4.08,0,0,1,4.07,4.07Z"
                  transform="translate(-281.33 -201.59)"/>
        </g>
        <g id="Group_954" data-name="Group 954">
            <g id="Group_951" data-name="Group 951">
                <path id="Path_2288" data-name="Path 2288"
                      d="M350.36,222.82a25.19,25.19,0,0,0-1.57-8.23,17.22,17.22,0,0,0-3.92-6,17.49,17.49,0,0,0-6-3.91,25.45,25.45,0,0,0-8.23-1.57c-3.63-.17-4.79-.22-14-.22s-10.37,0-14,.2a25.53,25.53,0,0,0-8.25,1.58,17.4,17.4,0,0,0-9.92,9.94,25.1,25.1,0,0,0-1.58,8.23c-.17,3.63-.21,4.78-.21,14s0,10.36.2,14a25.25,25.25,0,0,0,1.57,8.24,17.46,17.46,0,0,0,9.93,9.93,25.19,25.19,0,0,0,8.23,1.57c3.62.16,4.78.2,14,.2s10.37,0,14-.2a24.73,24.73,0,0,0,8.24-1.57,17.36,17.36,0,0,0,9.92-9.93,24.7,24.7,0,0,0,1.58-8.24c.16-3.62.2-4.77.2-14S350.53,226.44,350.36,222.82Z"
                      transform="translate(-281.33 -201.59)"/>
                <path id="Path_2289" data-name="Path 2289"
                      d="M344.25,250.53a18.59,18.59,0,0,1-1.16,6.3,11.32,11.32,0,0,1-6.45,6.45,18.73,18.73,0,0,1-6.29,1.16c-3.58.16-4.65.2-13.71.2s-10.14,0-13.7-.2a18.83,18.83,0,0,1-6.3-1.16,11.21,11.21,0,0,1-6.43-6.44,19.25,19.25,0,0,1-1.17-6.29c-.15-3.58-.2-4.65-.2-13.71s.05-10.14.2-13.7a19.1,19.1,0,0,1,1.17-6.3,10.49,10.49,0,0,1,2.55-3.9,10.73,10.73,0,0,1,3.9-2.53,19,19,0,0,1,6.29-1.17c3.58-.15,4.65-.2,13.71-.2s10.14,0,13.7.2a19.1,19.1,0,0,1,6.3,1.17,10.48,10.48,0,0,1,3.89,2.53,10.75,10.75,0,0,1,2.54,3.9,19.1,19.1,0,0,1,1.17,6.3c.15,3.58.2,4.65.2,13.7S344.41,247,344.25,250.53Z"
                      transform="translate(-281.33 -201.59)"/>
            </g>
            <g id="Group_952" data-name="Group 952">
                <path id="Path_2290" data-name="Path 2290" class="cls-1"
                      d="M344.25,223.13a19.09,19.09,0,0,0-1.16-6.3,10.75,10.75,0,0,0-2.54-3.9,10.61,10.61,0,0,0-3.89-2.53,18.83,18.83,0,0,0-6.3-1.16c-3.57-.16-4.64-.2-13.7-.2s-10.13,0-13.71.2a19.09,19.09,0,0,0-6.3,1.16,10.81,10.81,0,0,0-3.9,2.53,10.42,10.42,0,0,0-2.54,3.9,19.1,19.1,0,0,0-1.17,6.3c-.16,3.57-.2,4.65-.2,13.7s0,10.13.2,13.71a19.1,19.1,0,0,0,1.17,6.3,11.22,11.22,0,0,0,6.43,6.43,18.84,18.84,0,0,0,6.3,1.17c3.56.15,4.65.2,13.7.2s10.13,0,13.71-.2a18.74,18.74,0,0,0,6.29-1.17,11.26,11.26,0,0,0,6.45-6.45,18.73,18.73,0,0,0,1.16-6.29c.16-3.58.2-4.64.2-13.7S344.41,226.71,344.25,223.13Z"
                      transform="translate(-281.33 -201.59)"/>
                <circle id="Ellipse_174" data-name="Ellipse 174" class="cls-1" cx="35.3" cy="35.22" r="17.44"/>
                <path id="Path_2291" data-name="Path 2291" class="cls-1"
                      d="M334.75,222.76a4.07,4.07,0,1,1,4.07-4.07h0A4.07,4.07,0,0,1,334.75,222.76Z"
                      transform="translate(-281.33 -201.59)"/>
            </g>
            <g id="Group_953" data-name="Group 953">
                <circle id="Ellipse_175" data-name="Ellipse 175" cx="35.29" cy="35.22" r="17.43"/>
                <circle id="Ellipse_176" data-name="Ellipse 176" cx="35.29" cy="35.22" r="11.31"/>
            </g>
            <circle id="Ellipse_177" data-name="Ellipse 177" class="cls-1" cx="35.29" cy="35.22" r="11.31"/>
            <path id="Path_2292" data-name="Path 2292"
                  d="M338.82,218.69a4.08,4.08,0,1,1-4.07-4.07,4.08,4.08,0,0,1,4.07,4.07Z"
                  transform="translate(-281.33 -201.59)"/>
        </g>
        <g id="Group_958" data-name="Group 958">
            <g id="Group_955" data-name="Group 955">
                <path id="Path_2293" data-name="Path 2293"
                      d="M349.91,222.39a25.08,25.08,0,0,0-1.57-8.22,17.38,17.38,0,0,0-9.94-9.94,25.35,25.35,0,0,0-8.22-1.58c-3.64-.16-4.79-.21-14-.21s-10.37,0-14,.2a25.26,25.26,0,0,0-8.24,1.58,17.36,17.36,0,0,0-9.92,9.93,24.94,24.94,0,0,0-1.58,8.23c-.17,3.63-.21,4.79-.21,14s0,10.36.2,14A24.89,24.89,0,0,0,284,258.6a17.43,17.43,0,0,0,9.93,9.93,25.2,25.2,0,0,0,8.23,1.58c3.62.16,4.78.2,14,.2s10.37,0,14-.2a24.75,24.75,0,0,0,8.25-1.58,17.33,17.33,0,0,0,9.92-9.93,24.65,24.65,0,0,0,1.58-8.24c.16-3.62.2-4.77.2-14S350.07,226,349.91,222.39Z"
                      transform="translate(-281.33 -201.59)"/>
                <path id="Path_2294" data-name="Path 2294"
                      d="M343.8,250.1a18.83,18.83,0,0,1-1.16,6.3,11.27,11.27,0,0,1-6.45,6.44,18.6,18.6,0,0,1-6.3,1.17c-3.58.16-4.65.2-13.71.2s-10.14,0-13.7-.2a18.84,18.84,0,0,1-6.3-1.17,11.22,11.22,0,0,1-6.43-6.43,19.09,19.09,0,0,1-1.16-6.3c-.16-3.57-.2-4.65-.2-13.7s0-10.15.2-13.7a19,19,0,0,1,1.16-6.3,10.49,10.49,0,0,1,2.55-3.9,10.6,10.6,0,0,1,3.9-2.53,18.84,18.84,0,0,1,6.3-1.17c3.58-.16,4.65-.2,13.7-.2s10.15,0,13.7.2a18.75,18.75,0,0,1,6.3,1.17,11.15,11.15,0,0,1,6.43,6.42,18.84,18.84,0,0,1,1.17,6.3c.16,3.58.2,4.66.2,13.7S344,246.53,343.8,250.1Z"
                      transform="translate(-281.33 -201.59)"/>
            </g>
            <g id="Group_956" data-name="Group 956">
                <path id="Path_2295" data-name="Path 2295" class="cls-1"
                      d="M343.8,222.7a19.09,19.09,0,0,0-1.16-6.3,11.25,11.25,0,0,0-6.43-6.43,19.09,19.09,0,0,0-6.3-1.16c-3.57-.16-4.64-.2-13.7-.2s-10.13,0-13.71.2a19.09,19.09,0,0,0-6.3,1.16,10.86,10.86,0,0,0-3.9,2.53,10.5,10.5,0,0,0-2.54,3.9,18.84,18.84,0,0,0-1.17,6.3c-.16,3.57-.2,4.66-.2,13.7s0,10.13.2,13.71a19.1,19.1,0,0,0,1.17,6.3,11.22,11.22,0,0,0,6.43,6.43,18.8,18.8,0,0,0,6.3,1.17c3.56.16,4.65.2,13.7.2s10.13,0,13.71-.2a18.84,18.84,0,0,0,6.3-1.17,11.22,11.22,0,0,0,6.44-6.44,18.84,18.84,0,0,0,1.17-6.3c.15-3.58.2-4.64.2-13.7S344,226.28,343.8,222.7Z"
                      transform="translate(-281.33 -201.59)"/>
                <circle id="Ellipse_178" data-name="Ellipse 178" class="cls-1" cx="34.85" cy="34.79" r="17.44"/>
                <path id="Path_2296" data-name="Path 2296" class="cls-1"
                      d="M334.3,222.33a4.07,4.07,0,1,1,4.07-4.07h0A4.07,4.07,0,0,1,334.3,222.33Z"
                      transform="translate(-281.33 -201.59)"/>
            </g>
            <g id="Group_957" data-name="Group 957">
                <circle id="Ellipse_179" data-name="Ellipse 179" cx="34.84" cy="34.79" r="17.43"/>
                <circle id="Ellipse_180" data-name="Ellipse 180" cx="34.84" cy="34.8" r="11.31"/>
            </g>
            <circle id="Ellipse_181" data-name="Ellipse 181" class="cls-1" cx="34.84" cy="34.8" r="11.31"/>
            <path id="Path_2297" data-name="Path 2297"
                  d="M338.36,218.26a4.07,4.07,0,1,1-4.07-4.07,4.07,4.07,0,0,1,4.07,4.07Z"
                  transform="translate(-281.33 -201.59)"/>
        </g>
        <g id="Group_962" data-name="Group 962">
            <g id="Group_959" data-name="Group 959">
                <path id="Path_2298" data-name="Path 2298"
                      d="M349.46,222a25.19,25.19,0,0,0-1.57-8.23A17.38,17.38,0,0,0,338,203.8a25.35,25.35,0,0,0-8.23-1.57c-3.63-.17-4.78-.21-14-.21s-10.36,0-14,.2a25,25,0,0,0-8.24,1.58,17.33,17.33,0,0,0-9.92,9.93A25.16,25.16,0,0,0,282,222c-.16,3.63-.2,4.78-.2,14s0,10.36.2,14a25.2,25.2,0,0,0,1.57,8.24,17.43,17.43,0,0,0,9.93,9.93,25.46,25.46,0,0,0,8.23,1.58c3.62.15,4.78.2,14,.2s10.36-.05,14-.2a25,25,0,0,0,8.25-1.58,17.36,17.36,0,0,0,9.92-9.93,24.7,24.7,0,0,0,1.58-8.24c.16-3.62.2-4.77.2-14S349.62,225.59,349.46,222Z"
                      transform="translate(-281.33 -201.59)"/>
                <path id="Path_2299" data-name="Path 2299"
                      d="M343.35,249.68a18.5,18.5,0,0,1-1.17,6.29,11.27,11.27,0,0,1-6.44,6.45,18.59,18.59,0,0,1-6.3,1.16c-3.57.16-4.65.2-13.7.2s-10.15,0-13.7-.2a18.74,18.74,0,0,1-6.3-1.16,11.21,11.21,0,0,1-6.43-6.44,19,19,0,0,1-1.17-6.29c-.16-3.58-.2-4.65-.2-13.71s0-10.14.2-13.7a18.84,18.84,0,0,1,1.17-6.3,10.42,10.42,0,0,1,2.54-3.9,10.73,10.73,0,0,1,3.9-2.53,19.1,19.1,0,0,1,6.3-1.17c3.58-.15,4.65-.2,13.71-.2s10.14,0,13.7.2a19.1,19.1,0,0,1,6.3,1.17,11.15,11.15,0,0,1,6.43,6.43,19.1,19.1,0,0,1,1.17,6.3c.16,3.58.2,4.65.2,13.7S343.51,246.1,343.35,249.68Z"
                      transform="translate(-281.33 -201.59)"/>
            </g>
            <g id="Group_960" data-name="Group 960">
                <path id="Path_2300" data-name="Path 2300" class="cls-1"
                      d="M343.35,222.28a19.09,19.09,0,0,0-1.16-6.3,11.22,11.22,0,0,0-6.43-6.43,19.1,19.1,0,0,0-6.3-1.17c-3.57-.15-4.64-.2-13.7-.2s-10.13,0-13.71.2a19.1,19.1,0,0,0-6.3,1.17,10.73,10.73,0,0,0-3.9,2.53,10.57,10.57,0,0,0-2.55,3.9,18.83,18.83,0,0,0-1.16,6.3c-.16,3.57-.2,4.65-.2,13.7s0,10.13.2,13.71A19,19,0,0,0,289.3,256a11.24,11.24,0,0,0,6.43,6.44,18.83,18.83,0,0,0,6.3,1.16c3.57.16,4.65.2,13.7.2s10.13,0,13.71-.2a18.73,18.73,0,0,0,6.29-1.16,11.32,11.32,0,0,0,6.45-6.45,18.74,18.74,0,0,0,1.17-6.29c.15-3.58.2-4.64.2-13.7S343.51,225.86,343.35,222.28Z"
                      transform="translate(-281.33 -201.59)"/>
                <circle id="Ellipse_182" data-name="Ellipse 182" class="cls-1" cx="34.39" cy="34.37" r="17.43"/>
                <path id="Path_2301" data-name="Path 2301" class="cls-1"
                      d="M333.85,221.91a4.08,4.08,0,1,1,4.07-4.08h0A4.09,4.09,0,0,1,333.85,221.91Z"
                      transform="translate(-281.33 -201.59)"/>
            </g>
            <g id="Group_961" data-name="Group 961">
                <circle id="Ellipse_183" data-name="Ellipse 183" cx="34.39" cy="34.37" r="17.43"/>
                <circle id="Ellipse_184" data-name="Ellipse 184" cx="34.39" cy="34.37" r="11.31"/>
            </g>
            <circle id="Ellipse_185" data-name="Ellipse 185" class="cls-1" cx="34.39" cy="34.37" r="11.31"/>
            <path id="Path_2302" data-name="Path 2302"
                  d="M337.91,217.84a4.07,4.07,0,1,1-4.06-4.08,4.07,4.07,0,0,1,4.06,4.08Z"
                  transform="translate(-281.33 -201.59)"/>
        </g>
        <g id="Group_963" data-name="Group 963">
            <path id="Path_2303" data-name="Path 2303"
                  d="M349,221.54a25.19,25.19,0,0,0-1.57-8.23,17.4,17.4,0,0,0-9.94-9.93,24.84,24.84,0,0,0-8.23-1.58c-3.63-.17-4.78-.21-14-.21s-10.37,0-14,.2a25,25,0,0,0-8.24,1.58,17.37,17.37,0,0,0-9.93,9.93,24.89,24.89,0,0,0-1.58,8.23c-.17,3.63-.21,4.78-.21,14s0,10.36.21,14a24.69,24.69,0,0,0,1.57,8.24,17.43,17.43,0,0,0,9.93,9.93,24.94,24.94,0,0,0,8.23,1.58c3.62.15,4.78.2,14,.2s10.36,0,14-.2a24.75,24.75,0,0,0,8.25-1.58,17.33,17.33,0,0,0,9.92-9.93,24.65,24.65,0,0,0,1.58-8.24c.16-3.62.2-4.77.2-14S349.17,225.16,349,221.54Zm-6.11,27.71a18.6,18.6,0,0,1-1.17,6.3,11.22,11.22,0,0,1-6.44,6.44,18.84,18.84,0,0,1-6.3,1.17c-3.57.16-4.65.2-13.7.2s-10.15,0-13.71-.2a18.5,18.5,0,0,1-6.29-1.17,11.21,11.21,0,0,1-6.44-6.43,18.83,18.83,0,0,1-1.16-6.3c-.16-3.57-.2-4.65-.2-13.7s0-10.15.2-13.7a18.74,18.74,0,0,1,1.16-6.3,11.26,11.26,0,0,1,6.45-6.43,18.6,18.6,0,0,1,6.3-1.17c3.57-.16,4.65-.2,13.7-.2s10.15,0,13.7.2a18.51,18.51,0,0,1,6.3,1.17,11.15,11.15,0,0,1,6.43,6.42,18.84,18.84,0,0,1,1.17,6.3c.16,3.58.2,4.66.2,13.7s0,10.12-.2,13.7Z"
                  transform="translate(-281.33 -201.59)"/>
            <path id="Path_2304" data-name="Path 2304" class="cls-2"
                  d="M342.9,221.85a18.84,18.84,0,0,0-1.17-6.3,11.15,11.15,0,0,0-6.43-6.43A18.54,18.54,0,0,0,329,208c-3.56-.16-4.64-.2-13.7-.2s-10.13,0-13.71.2a18.53,18.53,0,0,0-6.29,1.16,10.52,10.52,0,0,0-3.9,2.53,10.37,10.37,0,0,0-2.55,3.9,18.59,18.59,0,0,0-1.16,6.3c-.16,3.57-.2,4.65-.2,13.7s0,10.13.2,13.71a18.83,18.83,0,0,0,1.16,6.3,11.25,11.25,0,0,0,6.43,6.43,18.84,18.84,0,0,0,6.3,1.17c3.57.15,4.65.2,13.7.2s10.13-.05,13.71-.2a18.84,18.84,0,0,0,6.3-1.17,11.32,11.32,0,0,0,6.45-6.45,18.73,18.73,0,0,0,1.16-6.29c.16-3.58.2-4.64.2-13.7S343.06,225.43,342.9,221.85ZM315.27,253a17.44,17.44,0,1,1,17.44-17.43A17.43,17.43,0,0,1,315.27,253Zm18.12-31.49a4.07,4.07,0,1,1,4.07-4.07h0a4.07,4.07,0,0,1-4.07,4.06Z"
                  transform="translate(-281.33 -201.59)"/>
            <path id="Path_2305" data-name="Path 2305" class="cls-1"
                  d="M315.27,218.1a17.44,17.44,0,1,0,17.44,17.43,17.43,17.43,0,0,0-17.44-17.43Zm0,28.74a11.31,11.31,0,1,1,11.31-11.31h0a11.31,11.31,0,0,1-11.31,11.31Z"
                  transform="translate(-281.33 -201.59)"/>
            <circle id="Ellipse_186" data-name="Ellipse 186" class="cls-3" cx="33.94" cy="33.94" r="11.31"/>
            <path id="Path_2306" data-name="Path 2306" class="cls-1"
                  d="M337.46,217.41a4.07,4.07,0,1,1-4.07-4.07,4.07,4.07,0,0,1,4.07,4.07Z"
                  transform="translate(-281.33 -201.59)"/>
        </g>
    </g>
</svg>
