<svg xmlns="http://www.w3.org/2000/svg" viewBox="0 0 263.38 57.84"><defs><style>.cls-1{fill:#1d1d1b;}.cls-2{fill:#fff;}</style></defs><g id="Layer_2" data-name="Layer 2"><g id="Calque_1" data-name="Calque 1"><path class="cls-1" d="M9.31,32.46A14.46,14.46,0,0,0,14.79,43.6,20.48,20.48,0,0,0,28,48.22l233.06-1.48L241.2,14.69a.94.94,0,0,1-.4-.73V0h1.46V14.07l21.12,33.69H263l.24.17h-.41l.24.17h-.41l.24.17h-.41l.24.17h-.41l.24.17h-.41l.24.17H262l.24.17h-.41l.24.17h-.41l.24.16h-.41l.24.17h-.41l.24.17h-.41l.24.17h-.41l.24.17h-.42l.25.17h-.41l.24.17h-.41l.24.17h-.41l.24.17h-.41l.24.17h-.41l.24.17h-.41l.24.17h-.41l.24.17h-.41l.24.17h-.41l.24.17h-.41l.24.17h-.41l.24.17h-.41l.24.17h-.41l.24.17h-.4l.23.17h-.41l.24.17H258l.24.17h-.41l.24.17h-.41l.24.17h-.41l.24.17h-.41l.24.17h-.4l.23.17H257l.23.17h-.4l.23.17h-.41l.24.17h-.41l.24.17h-.41l.24.17h-.41l.24.17H256l.24.17h-.41l.24.17h-.4l.23.17h-.4l.23.17h-.4l.24.17h-.41l.24.17H255l.24.17h-.41l.24.17h-.41l.23.17-235,1.59C8.88,57.84,0,50.35,0,41.1V0H9.31Z"/><path class="cls-2" d="M240.8,14a.94.94,0,0,0,.4.73l19.88,32.05L28,48.22A20.48,20.48,0,0,1,14.79,43.6,14.46,14.46,0,0,1,9.31,32.46V0H240.8Z"/></g></g></svg>