<svg xmlns="http://www.w3.org/2000/svg" viewBox="0 0 242.26 84.15"><defs><style>.cls-1{fill:#1d1d1b;}.cls-2{fill:#fff;}</style></defs><g id="Layer_2" data-name="Layer 2"><g id="Calque_1" data-name="Calque 1"><path class="cls-1" d="M240.8,16.89a14.52,14.52,0,0,0-5.48-11.14,20.48,20.48,0,0,0-13.23-4.62H28A20.48,20.48,0,0,0,14.79,5.75,14.46,14.46,0,0,0,9.31,16.89V84.15H0V25.23A15.23,15.23,0,0,1,4.64,14.48l.17-.17L5,14.14,5.14,14l.18-.18.17-.17.18-.17.15-.16L6,13.13,6.17,13c.06-.06.12-.11.17-.17l.17-.17.17-.16.18-.19L7,12.11l.18-.18c.06,0,.11-.11.16-.16s.12-.11.17-.17l.17-.17.17-.17.19-.19a1.85,1.85,0,0,0,.14-.14l.19-.19.17-.17.16-.16.18-.17.16-.17.17-.17.18-.18.16-.16.17-.17.18-.18.17-.16.16-.17.17-.17.17-.17.17-.17.19-.18L11.1,8a1.21,1.21,0,0,1,.16-.16l.17-.18.17-.17.17-.17L12,7.17c.05,0,.11-.1.16-.16l.17-.17.18-.18.16-.15.18-.18A1.21,1.21,0,0,1,13,6.17,21.33,21.33,0,0,1,28.33,0H222.41c11,0,19.85,7.5,19.85,16.74V84.15H240.8Z"/><path class="cls-2" d="M14.79,5.75A20.48,20.48,0,0,1,28,1.13H222.09a20.48,20.48,0,0,1,13.23,4.62,14.52,14.52,0,0,1,5.48,11.14V84.15H9.31V16.89A14.46,14.46,0,0,1,14.79,5.75Z"/></g></g></svg>