<svg id="Layer_1" data-name="Layer 1" xmlns="http://www.w3.org/2000/svg" viewBox="0 0 74.43 75.15"><defs><style>.cls-1,.cls-10,.cls-11,.cls-12,.cls-13,.cls-14,.cls-15,.cls-16,.cls-17,.cls-18,.cls-19,.cls-2,.cls-20,.cls-21,.cls-22,.cls-23,.cls-24,.cls-25,.cls-26,.cls-27,.cls-28,.cls-29,.cls-3,.cls-30,.cls-31,.cls-32,.cls-33,.cls-34,.cls-35,.cls-36,.cls-37,.cls-38,.cls-39,.cls-4,.cls-40,.cls-41,.cls-42,.cls-43,.cls-44,.cls-5,.cls-6,.cls-7,.cls-8,.cls-9{fill-rule:evenodd;}.cls-2,.cls-43{fill:#fff;}.cls-3,.cls-42{fill:#0c0c0c;}.cls-11,.cls-13,.cls-15,.cls-17,.cls-19,.cls-21,.cls-23,.cls-25,.cls-27,.cls-29,.cls-3,.cls-31,.cls-33,.cls-35,.cls-37,.cls-39,.cls-41,.cls-43,.cls-5,.cls-7,.cls-9{stroke:#000;stroke-miterlimit:10;}.cls-3{stroke-width:0.2px;}.cls-4,.cls-41{fill:#f3f3f3;}.cls-40,.cls-5{fill:#181818;}.cls-5{stroke-width:0.4px;}.cls-39,.cls-6{fill:#e7e7e7;}.cls-38,.cls-7{fill:#242424;}.cls-7{stroke-width:0.6px;}.cls-37,.cls-8{fill:#dbdbdb;}.cls-36,.cls-9{fill:#313131;}.cls-9{stroke-width:0.8px;}.cls-10,.cls-35{fill:#cecece;}.cls-11,.cls-34{fill:#3d3d3d;}.cls-11{stroke-width:1.01px;}.cls-12,.cls-33{fill:#c2c2c2;}.cls-13,.cls-32{fill:#494949;}.cls-13{stroke-width:1.21px;}.cls-14,.cls-31{fill:#b6b6b6;}.cls-15,.cls-30{fill:#555;}.cls-15{stroke-width:1.41px;}.cls-16,.cls-29{fill:#aaa;}.cls-17,.cls-28{fill:#616161;}.cls-17{stroke-width:1.61px;}.cls-18,.cls-27{fill:#9e9e9e;}.cls-19,.cls-26{fill:#6d6d6d;}.cls-19{stroke-width:1.81px;}.cls-20,.cls-25{fill:#929292;}.cls-21,.cls-24{fill:#797979;}.cls-21{stroke-width:2.01px;}.cls-22,.cls-23{fill:#868686;}.cls-23{stroke-width:2.21px;}.cls-25{stroke-width:2.41px;}.cls-27{stroke-width:2.62px;}.cls-29{stroke-width:2.82px;}.cls-31{stroke-width:3.02px;}.cls-33{stroke-width:3.22px;}.cls-35{stroke-width:3.42px;}.cls-37{stroke-width:3.62px;}.cls-39{stroke-width:3.82px;}.cls-41{stroke-width:4.02px;}.cls-44{fill:#009afc;}</style></defs><g id="Messanger"><g id="logo"><path id="Path" class="cls-1" d="M325.57,214.26c-17.82,0-31.65,13.06-31.65,30.7a30,30,0,0,0,9.94,22.71,2.5,2.5,0,0,1,.84,1.8l.18,5.63a2.53,2.53,0,0,0,2.6,2.45,2.58,2.58,0,0,0,.95-.21l6.29-2.77a2.52,2.52,0,0,1,1.69-.13,34.5,34.5,0,0,0,9.16,1.21c17.82,0,31.64-13,31.64-30.7S343.39,214.26,325.57,214.26Z" transform="translate(-282.79 -202.41)"/><path id="Path-2" class="cls-2" d="M306.56,253.94l9.3-14.75a4.75,4.75,0,0,1,6.55-1.48l.32.22,7.4,5.54a1.89,1.89,0,0,0,2.28,0l10-7.58a1.5,1.5,0,0,1,2.17,2l-9.3,14.74a4.75,4.75,0,0,1-6.55,1.49l-.31-.22-7.4-5.54a1.91,1.91,0,0,0-2.29,0l-10,7.58a1.5,1.5,0,0,1-2.17-2Z" transform="translate(-282.79 -202.41)"/></g><g id="Group_997" data-name="Group 997"><path id="Path_2367" data-name="Path 2367" class="cls-3" d="M325.11,213.77c-17.82,0-31.64,13-31.64,30.7a30.06,30.06,0,0,0,9.93,22.71,2.5,2.5,0,0,1,.85,1.8l.18,5.63a2.53,2.53,0,0,0,2.6,2.46,2.59,2.59,0,0,0,1-.22l6.28-2.77A2.61,2.61,0,0,1,316,274a34.5,34.5,0,0,0,9.16,1.21c17.82,0,31.64-13.05,31.64-30.7S342.94,213.77,325.11,213.77Z" transform="translate(-282.79 -202.41)"/><path id="Path_2368" data-name="Path 2368" class="cls-4" d="M306.11,253.44l9.29-14.74a4.76,4.76,0,0,1,6.56-1.48l.31.21,7.4,5.55a1.91,1.91,0,0,0,2.29,0l10-7.58a1.51,1.51,0,0,1,2.11.32,1.53,1.53,0,0,1,.07,1.68l-9.3,14.74a4.75,4.75,0,0,1-6.55,1.49,3.62,3.62,0,0,1-.32-.22l-7.4-5.55a1.91,1.91,0,0,0-2.29,0l-10,7.58a1.5,1.5,0,0,1-2.17-2Z" transform="translate(-282.79 -202.41)"/></g><g id="Group_998" data-name="Group 998"><path id="Path_2369" data-name="Path 2369" class="cls-5" d="M324.66,213.28c-17.83,0-31.65,13.05-31.65,30.7a30,30,0,0,0,9.94,22.7,2.54,2.54,0,0,1,.85,1.8l.17,5.64a2.53,2.53,0,0,0,2.6,2.45,2.58,2.58,0,0,0,.95-.21l6.29-2.77a2.52,2.52,0,0,1,1.69-.13,34.6,34.6,0,0,0,9.16,1.21c17.83,0,31.65-13.05,31.65-30.7S342.48,213.28,324.66,213.28Z" transform="translate(-282.79 -202.41)"/><path id="Path_2370" data-name="Path 2370" class="cls-6" d="M305.65,253l9.3-14.74a4.75,4.75,0,0,1,6.55-1.49l.31.22,7.4,5.55a1.91,1.91,0,0,0,2.29,0l10-7.58a1.5,1.5,0,0,1,2.17,2l-9.3,14.74a4.75,4.75,0,0,1-6.55,1.48,2.92,2.92,0,0,1-.32-.21l-7.4-5.55a1.89,1.89,0,0,0-2.28,0l-10,7.58a1.5,1.5,0,0,1-2.18-2Z" transform="translate(-282.79 -202.41)"/></g><g id="Group_999" data-name="Group 999"><path id="Path_2371" data-name="Path 2371" class="cls-7" d="M324.2,212.79c-17.82,0-31.65,13.05-31.65,30.7a30,30,0,0,0,9.94,22.7,2.5,2.5,0,0,1,.85,1.8l.17,5.63a2.54,2.54,0,0,0,2.61,2.46,2.44,2.44,0,0,0,.95-.22l6.28-2.77A2.58,2.58,0,0,1,315,273a34.6,34.6,0,0,0,9.16,1.21c17.83,0,31.65-13.05,31.65-30.7S342,212.79,324.2,212.79Z" transform="translate(-282.79 -202.41)"/><path id="Path_2372" data-name="Path 2372" class="cls-8" d="M305.2,252.46l9.29-14.74a4.75,4.75,0,0,1,6.55-1.49,3.62,3.62,0,0,1,.32.22l7.4,5.54a1.89,1.89,0,0,0,2.28,0l10-7.58a1.5,1.5,0,0,1,2.17,2l-9.3,14.75a4.75,4.75,0,0,1-6.55,1.48,3,3,0,0,1-.31-.22l-7.4-5.54a1.91,1.91,0,0,0-2.29,0l-10,7.58a1.5,1.5,0,0,1-2.17-2Z" transform="translate(-282.79 -202.41)"/></g><g id="Group_1000" data-name="Group 1000"><path id="Path_2373" data-name="Path 2373" class="cls-9" d="M323.74,212.3c-17.82,0-31.64,13-31.64,30.7A30,30,0,0,0,302,265.7a2.5,2.5,0,0,1,.85,1.8l.18,5.63a2.53,2.53,0,0,0,2.6,2.46,2.4,2.4,0,0,0,.95-.22l6.28-2.77a2.55,2.55,0,0,1,1.7-.12,34.91,34.91,0,0,0,9.16,1.21c17.82,0,31.64-13.06,31.64-30.7S341.57,212.3,323.74,212.3Z" transform="translate(-282.79 -202.41)"/><path id="Path_2374" data-name="Path 2374" class="cls-10" d="M304.74,252,314,237.22a4.76,4.76,0,0,1,6.56-1.48h0l.31.22,7.4,5.54a1.91,1.91,0,0,0,2.29,0l10-7.58a1.52,1.52,0,0,1,2.11.33,1.5,1.5,0,0,1,.07,1.67l-9.3,14.75a4.75,4.75,0,0,1-6.55,1.48,3.62,3.62,0,0,1-.32-.22l-7.4-5.54a1.89,1.89,0,0,0-2.28,0l-10,7.58a1.5,1.5,0,0,1-2.17-2Z" transform="translate(-282.79 -202.41)"/></g><g id="Group_1001" data-name="Group 1001"><path id="Path_2375" data-name="Path 2375" class="cls-11" d="M323.29,211.8c-17.82,0-31.65,13-31.65,30.7a30,30,0,0,0,9.94,22.71,2.49,2.49,0,0,1,.85,1.8l.17,5.63a2.54,2.54,0,0,0,3.55,2.24l6.29-2.77a2.58,2.58,0,0,1,1.69-.13,34.6,34.6,0,0,0,9.16,1.21c17.83,0,31.65-13.05,31.65-30.7S341.11,211.8,323.29,211.8Z" transform="translate(-282.79 -202.41)"/><path id="Path_2376" data-name="Path 2376" class="cls-12" d="M304.28,251.48l9.3-14.75a4.75,4.75,0,0,1,6.55-1.48c.11.06.21.14.32.21l7.4,5.55a1.89,1.89,0,0,0,2.28,0l10-7.58a1.5,1.5,0,0,1,2.17,2L333,250.17a4.75,4.75,0,0,1-6.55,1.49l-.32-.22-7.4-5.55a1.89,1.89,0,0,0-2.28,0l-10,7.58a1.5,1.5,0,0,1-2.18-2Z" transform="translate(-282.79 -202.41)"/></g><g id="Group_1002" data-name="Group 1002"><path id="Path_2377" data-name="Path 2377" class="cls-13" d="M322.83,211.31c-17.82,0-31.64,13.05-31.64,30.7a30.06,30.06,0,0,0,9.93,22.71,2.47,2.47,0,0,1,.85,1.8l.18,5.63a2.53,2.53,0,0,0,2.6,2.45,2.58,2.58,0,0,0,.95-.21l6.28-2.77a2.53,2.53,0,0,1,1.69-.13,34.6,34.6,0,0,0,9.16,1.21c17.83,0,31.65-13.05,31.65-30.7S340.65,211.31,322.83,211.31Z" transform="translate(-282.79 -202.41)"/><path id="Path_2378" data-name="Path 2378" class="cls-14" d="M303.83,251l9.29-14.74a4.76,4.76,0,0,1,6.56-1.48,2.11,2.11,0,0,1,.31.21l7.4,5.55a1.91,1.91,0,0,0,2.29,0l10-7.58a1.5,1.5,0,0,1,2.17,2l-9.31,14.74a4.75,4.75,0,0,1-6.55,1.48l-.32-.22-7.4-5.54a1.89,1.89,0,0,0-2.28,0L306,253a1.51,1.51,0,0,1-2.11-.29,1.49,1.49,0,0,1-.07-1.71Z" transform="translate(-282.79 -202.41)"/></g><g id="Group_1003" data-name="Group 1003"><path id="Path_2379" data-name="Path 2379" class="cls-15" d="M322.38,210.82c-17.83,0-31.65,13.05-31.65,30.7a30,30,0,0,0,9.94,22.7,2.49,2.49,0,0,1,.84,1.8l.18,5.64a2.53,2.53,0,0,0,2.61,2.45,2.58,2.58,0,0,0,.94-.22l6.29-2.77a2.52,2.52,0,0,1,1.69-.12,34.49,34.49,0,0,0,9.16,1.2c17.82,0,31.64-13.05,31.64-30.7S340.2,210.82,322.38,210.82Z" transform="translate(-282.79 -202.41)"/><path id="Path_2380" data-name="Path 2380" class="cls-16" d="M303.37,250.49l9.29-14.74a4.76,4.76,0,0,1,6.56-1.49h0l.31.22,7.4,5.54a1.91,1.91,0,0,0,2.29,0l10-7.57a1.49,1.49,0,0,1,2.1.32,1.51,1.51,0,0,1,.07,1.68l-9.3,14.74a4.76,4.76,0,0,1-6.55,1.49h0c-.11-.06-.21-.14-.32-.21l-7.4-5.55a1.89,1.89,0,0,0-2.28,0l-10,7.58a1.5,1.5,0,0,1-2.17-2Z" transform="translate(-282.79 -202.41)"/></g><g id="Group_1004" data-name="Group 1004"><path id="Path_2381" data-name="Path 2381" class="cls-17" d="M321.92,210.33c-17.82,0-31.65,13-31.65,30.7a30,30,0,0,0,9.94,22.7,2.5,2.5,0,0,1,.85,1.8l.17,5.63a2.53,2.53,0,0,0,2.6,2.46,2.45,2.45,0,0,0,1-.22l6.28-2.77a2.52,2.52,0,0,1,1.69-.12,35,35,0,0,0,9.16,1.21c17.83,0,31.65-13.06,31.65-30.7S339.74,210.33,321.92,210.33Z" transform="translate(-282.79 -202.41)"/><path id="Path_2382" data-name="Path 2382" class="cls-18" d="M302.91,250l9.3-14.74a4.75,4.75,0,0,1,6.55-1.49l.31.22,7.4,5.54a1.91,1.91,0,0,0,2.29,0l10-7.58a1.5,1.5,0,0,1,2.17,2l-9.3,14.75a4.75,4.75,0,0,1-6.55,1.48l-.32-.21-7.4-5.55a1.89,1.89,0,0,0-2.28,0l-10,7.58a1.51,1.51,0,0,1-2.11-.29,1.52,1.52,0,0,1-.07-1.71Z" transform="translate(-282.79 -202.41)"/></g><g id="Group_1005" data-name="Group 1005"><path id="Path_2383" data-name="Path 2383" class="cls-19" d="M321.46,209.83c-17.82,0-31.64,13.06-31.64,30.7a30.06,30.06,0,0,0,9.93,22.71,2.5,2.5,0,0,1,.85,1.8l.18,5.63a2.52,2.52,0,0,0,2.6,2.45,2.39,2.39,0,0,0,.95-.21l6.28-2.77a2.55,2.55,0,0,1,1.7-.12,34.49,34.49,0,0,0,9.16,1.2c17.82,0,31.64-13.05,31.64-30.7S339.29,209.83,321.46,209.83Z" transform="translate(-282.79 -202.41)"/><path id="Path_2384" data-name="Path 2384" class="cls-20" d="M302.45,249.51l9.3-14.75a4.76,4.76,0,0,1,6.56-1.48l.31.22L326,239a1.91,1.91,0,0,0,2.29,0l10-7.58a1.5,1.5,0,0,1,2.17,2l-9.3,14.74a4.75,4.75,0,0,1-6.55,1.49h0l-.32-.22-7.4-5.54a1.89,1.89,0,0,0-2.28,0l-10,7.58a1.51,1.51,0,0,1-2.11-.29,1.53,1.53,0,0,1-.07-1.71Z" transform="translate(-282.79 -202.41)"/></g><g id="Group_1006" data-name="Group 1006"><path id="Path_2385" data-name="Path 2385" class="cls-21" d="M321,209.34c-17.83,0-31.65,13-31.65,30.7a30,30,0,0,0,9.94,22.71,2.52,2.52,0,0,1,.85,1.8l.17,5.63a2.53,2.53,0,0,0,2.6,2.45,2.39,2.39,0,0,0,.95-.21l6.29-2.77a2.58,2.58,0,0,1,1.69-.13,34.5,34.5,0,0,0,9.16,1.21c17.82,0,31.64-13.05,31.64-30.7S338.83,209.34,321,209.34Z" transform="translate(-282.79 -202.41)"/><path id="Path_2386" data-name="Path 2386" class="cls-22" d="M302,249l9.3-14.74a4.75,4.75,0,0,1,6.55-1.48h0a3.37,3.37,0,0,1,.31.21l7.4,5.55a1.91,1.91,0,0,0,2.29,0l10-7.58a1.5,1.5,0,0,1,2.17,2l-9.3,14.74a4.76,4.76,0,0,1-6.55,1.49l-.32-.22-7.4-5.55a1.89,1.89,0,0,0-2.28,0l-10,7.58a1.5,1.5,0,0,1-2.17-2Z" transform="translate(-282.79 -202.41)"/></g><g id="Group_1007" data-name="Group 1007"><path id="Path_2387" data-name="Path 2387" class="cls-23" d="M320.55,208.85c-17.82,0-31.64,13.05-31.64,30.7a30,30,0,0,0,9.93,22.7,2.5,2.5,0,0,1,.85,1.8l.18,5.64a2.53,2.53,0,0,0,2.6,2.45,2.58,2.58,0,0,0,.95-.21l6.28-2.77a2.55,2.55,0,0,1,1.7-.13,34.5,34.5,0,0,0,9.16,1.21c17.82,0,31.64-13.05,31.64-30.7S338.37,208.85,320.55,208.85Z" transform="translate(-282.79 -202.41)"/><path id="Path_2388" data-name="Path 2388" class="cls-24" d="M301.55,248.52l9.29-14.74a4.75,4.75,0,0,1,6.55-1.49l.31.22,7.4,5.54a1.91,1.91,0,0,0,2.29,0l10-7.58a1.5,1.5,0,0,1,2.17,2l-9.3,14.75a4.75,4.75,0,0,1-6.55,1.48,3.05,3.05,0,0,1-.32-.22l-7.4-5.54a1.89,1.89,0,0,0-2.28,0l-10,7.58a1.51,1.51,0,0,1-2.11-.29,1.49,1.49,0,0,1-.07-1.71Z" transform="translate(-282.79 -202.41)"/></g><g id="Group_1008" data-name="Group 1008"><path id="Path_2389" data-name="Path 2389" class="cls-25" d="M320.09,208.36c-17.82,0-31.64,13-31.64,30.7a30,30,0,0,0,9.94,22.7,2.53,2.53,0,0,1,.84,1.8l.18,5.63a2.53,2.53,0,0,0,2.6,2.46,2.4,2.4,0,0,0,.95-.22l6.29-2.77a2.58,2.58,0,0,1,1.69-.12,34.5,34.5,0,0,0,9.16,1.21c17.82,0,31.64-13.05,31.64-30.7S337.92,208.36,320.09,208.36Z" transform="translate(-282.79 -202.41)"/><path id="Path_2390" data-name="Path 2390" class="cls-26" d="M301.09,248l9.29-14.75a4.77,4.77,0,0,1,6.56-1.48l.31.22,7.4,5.54a1.91,1.91,0,0,0,2.29,0l10-7.58a1.52,1.52,0,0,1,2.11.33,1.5,1.5,0,0,1,.07,1.67l-9.3,14.75a4.75,4.75,0,0,1-6.55,1.48h0a3.62,3.62,0,0,1-.32-.22l-7.4-5.54a1.89,1.89,0,0,0-2.28,0l-10,7.58a1.5,1.5,0,0,1-2.17-2Z" transform="translate(-282.79 -202.41)"/></g><g id="Group_1009" data-name="Group 1009"><path id="Path_2391" data-name="Path 2391" class="cls-27" d="M319.64,207.86c-17.82,0-31.65,13.06-31.65,30.7a30,30,0,0,0,9.94,22.71,2.5,2.5,0,0,1,.85,1.8l.17,5.63a2.52,2.52,0,0,0,3.55,2.24l6.29-2.77a2.52,2.52,0,0,1,1.69-.12,34.59,34.59,0,0,0,9.16,1.2c17.83,0,31.65-13.05,31.65-30.7S337.46,207.86,319.64,207.86Z" transform="translate(-282.79 -202.41)"/><path id="Path_2392" data-name="Path 2392" class="cls-28" d="M300.63,247.54l9.3-14.75a4.75,4.75,0,0,1,6.55-1.48h0l.32.22,7.4,5.54a1.89,1.89,0,0,0,2.28,0l10-7.58a1.5,1.5,0,0,1,2.17,2l-9.3,14.74a4.75,4.75,0,0,1-6.55,1.49h0l-.31-.22-7.4-5.54a1.91,1.91,0,0,0-2.29,0l-10,7.58a1.5,1.5,0,0,1-2.18-2Z" transform="translate(-282.79 -202.41)"/></g><g id="Group_1010" data-name="Group 1010"><path id="Path_2393" data-name="Path 2393" class="cls-29" d="M319.18,207.37c-17.82,0-31.64,13-31.64,30.7a30,30,0,0,0,9.93,22.7,2.5,2.5,0,0,1,.85,1.8l.18,5.63a2.53,2.53,0,0,0,2.6,2.46,2.58,2.58,0,0,0,.95-.21l6.28-2.77a2.55,2.55,0,0,1,1.7-.13,34.5,34.5,0,0,0,9.16,1.21c17.82,0,31.64-13,31.64-30.7S337,207.37,319.18,207.37Z" transform="translate(-282.79 -202.41)"/><path id="Path_2394" data-name="Path 2394" class="cls-30" d="M300.18,247l9.29-14.74a4.75,4.75,0,0,1,6.55-1.48l.32.21,7.4,5.55a1.91,1.91,0,0,0,2.29,0L336,229a1.51,1.51,0,0,1,2.11.32,1.53,1.53,0,0,1,.07,1.68l-9.3,14.74a4.75,4.75,0,0,1-6.55,1.49L322,247l-7.4-5.55a1.91,1.91,0,0,0-2.29,0l-10,7.58a1.5,1.5,0,0,1-2.17-2Z" transform="translate(-282.79 -202.41)"/></g><g id="Group_1011" data-name="Group 1011"><path id="Path_2395" data-name="Path 2395" class="cls-31" d="M318.73,206.88c-17.83,0-31.65,13.05-31.65,30.7a30,30,0,0,0,9.94,22.7,2.54,2.54,0,0,1,.85,1.8l.17,5.63a2.54,2.54,0,0,0,2.61,2.46,2.58,2.58,0,0,0,.94-.22l6.29-2.77a2.52,2.52,0,0,1,1.69-.12,34.91,34.91,0,0,0,9.16,1.21c17.82,0,31.64-13.06,31.64-30.7S336.55,206.88,318.73,206.88Z" transform="translate(-282.79 -202.41)"/><path id="Path_2396" data-name="Path 2396" class="cls-32" d="M299.72,246.55,309,231.81a4.76,4.76,0,0,1,6.56-1.49l.31.22,7.4,5.55a1.91,1.91,0,0,0,2.29,0l10-7.58a1.49,1.49,0,0,1,2.1.32,1.51,1.51,0,0,1,.07,1.68l-9.3,14.74a4.75,4.75,0,0,1-6.55,1.48l-.32-.22-7.4-5.54a1.89,1.89,0,0,0-2.28,0l-10,7.58a1.51,1.51,0,0,1-2.11-.29,1.49,1.49,0,0,1-.07-1.71Z" transform="translate(-282.79 -202.41)"/></g><g id="Group_1012" data-name="Group 1012"><path id="Path_2397" data-name="Path 2397" class="cls-33" d="M318.27,206.39c-17.82,0-31.65,13.05-31.65,30.7a30,30,0,0,0,9.94,22.7,2.5,2.5,0,0,1,.85,1.8l.17,5.64a2.53,2.53,0,0,0,2.61,2.45,2.58,2.58,0,0,0,.95-.21l6.28-2.77a2.52,2.52,0,0,1,1.69-.13,34.6,34.6,0,0,0,9.16,1.21c17.83,0,31.65-13,31.65-30.7S336.09,206.39,318.27,206.39Z" transform="translate(-282.79 -202.41)"/><path id="Path_2398" data-name="Path 2398" class="cls-34" d="M299.27,246.06l9.29-14.75a4.75,4.75,0,0,1,6.55-1.48h0a3.62,3.62,0,0,1,.32.22l7.4,5.54a1.89,1.89,0,0,0,2.28,0l10-7.58a1.5,1.5,0,0,1,2.17,2L328,244.76a4.75,4.75,0,0,1-6.55,1.48l-.31-.22-7.4-5.54a1.91,1.91,0,0,0-2.29,0l-10,7.58a1.5,1.5,0,0,1-2.17-2Z" transform="translate(-282.79 -202.41)"/></g><g id="Group_1013" data-name="Group 1013"><path id="Path_2399" data-name="Path 2399" class="cls-35" d="M317.81,205.89c-17.82,0-31.64,13.06-31.64,30.7a30.06,30.06,0,0,0,9.93,22.71,2.5,2.5,0,0,1,.85,1.8l.18,5.63a2.53,2.53,0,0,0,2.6,2.46,2.59,2.59,0,0,0,.95-.22L307,266.2a2.52,2.52,0,0,1,1.69-.12,34.49,34.49,0,0,0,9.16,1.2c17.82,0,31.64-13,31.64-30.7S335.64,205.89,317.81,205.89Z" transform="translate(-282.79 -202.41)"/><path id="Path_2400" data-name="Path 2400" class="cls-36" d="M298.81,245.57l9.29-14.75a4.77,4.77,0,0,1,6.56-1.48l.31.22,7.4,5.54a1.91,1.91,0,0,0,2.29,0l10-7.58a1.51,1.51,0,0,1,2.18,2l-9.3,14.75a4.75,4.75,0,0,1-6.55,1.48,3.62,3.62,0,0,1-.32-.22l-7.4-5.54a1.91,1.91,0,0,0-2.29,0l-10,7.58a1.5,1.5,0,0,1-2.17-2Z" transform="translate(-282.79 -202.41)"/></g><g id="Group_1014" data-name="Group 1014"><path id="Path_2401" data-name="Path 2401" class="cls-37" d="M317.36,205.4c-17.82,0-31.65,13-31.65,30.7a30,30,0,0,0,9.94,22.71,2.52,2.52,0,0,1,.85,1.8l.17,5.63a2.52,2.52,0,0,0,2.6,2.45,2.58,2.58,0,0,0,1-.21l6.29-2.77a2.58,2.58,0,0,1,1.69-.13,34.6,34.6,0,0,0,9.16,1.21c17.83,0,31.65-13.05,31.65-30.7S335.18,205.4,317.36,205.4Z" transform="translate(-282.79 -202.41)"/><path id="Path_2402" data-name="Path 2402" class="cls-38" d="M298.35,245.07l9.3-14.74a4.75,4.75,0,0,1,6.55-1.48l.32.21,7.4,5.55a1.89,1.89,0,0,0,2.28,0l10-7.58a1.5,1.5,0,0,1,2.17,2l-9.3,14.74a4.75,4.75,0,0,1-6.55,1.49h0l-.31-.22-7.4-5.55a1.91,1.91,0,0,0-2.29,0l-10,7.58a1.5,1.5,0,0,1-2.17-2Z" transform="translate(-282.79 -202.41)"/></g><g id="Group_1015" data-name="Group 1015"><path id="Path_2403" data-name="Path 2403" class="cls-39" d="M316.9,204.91c-17.82,0-31.64,13.05-31.64,30.7a30.06,30.06,0,0,0,9.93,22.7,2.49,2.49,0,0,1,.85,1.8l.18,5.63a2.52,2.52,0,0,0,2.6,2.45,2.43,2.43,0,0,0,.95-.21l6.28-2.77a2.55,2.55,0,0,1,1.7-.13,34.5,34.5,0,0,0,9.16,1.21c17.82,0,31.64-13.05,31.64-30.7S334.72,204.91,316.9,204.91Z" transform="translate(-282.79 -202.41)"/><path id="Path_2404" data-name="Path 2404" class="cls-40" d="M297.9,244.58l9.29-14.74a4.76,4.76,0,0,1,6.55-1.49h0a2.2,2.2,0,0,1,.32.21l7.4,5.55a1.91,1.91,0,0,0,2.29,0l10-7.58a1.51,1.51,0,0,1,2.11.31,1.53,1.53,0,0,1,.07,1.69l-9.3,14.74a4.76,4.76,0,0,1-6.55,1.49h0l-.32-.22-7.4-5.55a1.91,1.91,0,0,0-2.29,0l-10,7.58a1.5,1.5,0,0,1-2.17-2Z" transform="translate(-282.79 -202.41)"/></g><g id="Group_1016" data-name="Group 1016"><path id="Path_2405" data-name="Path 2405" class="cls-41" d="M316.45,204.42c-17.83,0-31.65,13.05-31.65,30.7a30,30,0,0,0,9.94,22.7,2.54,2.54,0,0,1,.85,1.8l.17,5.63a2.53,2.53,0,0,0,2.6,2.46,2.4,2.4,0,0,0,.95-.22l6.29-2.77a2.52,2.52,0,0,1,1.69-.12,35,35,0,0,0,9.16,1.21c17.82,0,31.65-13.05,31.65-30.7S334.27,204.42,316.45,204.42Z" transform="translate(-282.79 -202.41)"/><path id="Path_2406" data-name="Path 2406" class="cls-42" d="M297.44,244.09l9.29-14.74a4.76,4.76,0,0,1,6.56-1.49l.31.22,7.4,5.55a1.91,1.91,0,0,0,2.29,0l10-7.58a1.51,1.51,0,0,1,2.18,2l-9.3,14.74a4.75,4.75,0,0,1-6.55,1.48h0a2.92,2.92,0,0,1-.32-.21l-7.4-5.55a1.89,1.89,0,0,0-2.28,0l-10,7.58a1.5,1.5,0,0,1-2.17-2Z" transform="translate(-282.79 -202.41)"/></g><g id="logo-2"><path id="Path-2-2" class="cls-43" d="M316,203.93c-17.82,0-31.65,13-31.65,30.7a30,30,0,0,0,9.94,22.7,2.5,2.5,0,0,1,.85,1.8l.17,5.63a2.54,2.54,0,0,0,2.61,2.46,2.59,2.59,0,0,0,.95-.22l6.28-2.77a2.52,2.52,0,0,1,1.69-.12,34.59,34.59,0,0,0,9.16,1.2c17.83,0,31.65-13.05,31.65-30.7S333.82,203.93,316,203.93Z" transform="translate(-282.79 -202.41)"/><path id="Path-2-3" class="cls-44" d="M297,243.6l9.3-14.75a4.75,4.75,0,0,1,6.55-1.48,3.62,3.62,0,0,1,.32.22l7.4,5.54a1.89,1.89,0,0,0,2.28,0l10-7.58a1.5,1.5,0,0,1,2.17,2l-9.3,14.75a4.75,4.75,0,0,1-6.55,1.48l-.31-.22-7.4-5.54a1.91,1.91,0,0,0-2.29,0l-10,7.58a1.5,1.5,0,0,1-2.17-2Z" transform="translate(-282.79 -202.41)"/></g></g></svg>