<?xml version="1.0" encoding="utf-8"?>
<!-- Generator: Adobe Illustrator 25.0.1, SVG Export Plug-In . SVG Version: 6.00 Build 0)  -->
<svg version="1.1" id="Layer_1" xmlns="http://www.w3.org/2000/svg" xmlns:xlink="http://www.w3.org/1999/xlink" x="0px" y="0px"
	 viewBox="0 0 500 500" style="enable-background:new 0 0 500 500;" xml:space="preserve">
<style type="text/css">
	.st0{fill:#FFFFFF;stroke:#000000;stroke-width:1.3858;stroke-miterlimit:10;}
	.st1{fill:#AC00BF;stroke:#000000;stroke-width:2.0294;stroke-miterlimit:10;}
</style>
<g>
	<g>
		<path d="M296.1,468.2c97.7-6.4,174.9-87.5,174.9-186.7c0-103.4-83.8-187.2-187.2-187.2c-4.2,0-8.4,0.2-12.5,0.5
			c0.3-0.2,0.7-0.3,1-0.5c-9.8,0.7-19.6,1.9-29.6,4.2C141.7,121,78,221,100.4,322.1c14.4,64.7,60.8,114.1,118.8,135.3h0.2
			c2.7,1,5.4,1.9,8.1,2.7c0.3,0,0.5,0.2,0.8,0.2c2.5,0.8,5.2,1.5,7.8,2.2c0.3,0.2,0.8,0.2,1.2,0.3c2.5,0.7,5.1,1.2,7.8,1.9
			c0.5,0.2,1,0.2,1.4,0.3c2.5,0.5,5.1,1,7.6,1.4c0.5,0,1,0.2,1.5,0.2c2.5,0.3,5.1,0.7,7.6,1c0.7,0,1.4,0.2,1.9,0.2
			c2.4,0.2,4.7,0.3,7.1,0.5c0.8,0,1.9,0.2,2.7,0.2c2,0.2,3.9,0.2,5.9,0.2c1,0,1.9,0,2.9,0c0.5,0,1,0,1.5,0c1.2,0,2.4,0,3.7-0.2
			c2.2,0,4.6-0.2,6.8-0.3C295.8,468.2,295.9,468.2,296.1,468.2z"/>
		<path d="M294.8,467.2c97.7-6.4,174.9-87.5,174.9-186.7c0-103.4-83.8-187.2-187.2-187.2c-4.2,0-8.4,0.2-12.5,0.5
			c0.3-0.2,0.7-0.3,1-0.5c-9.8,0.7-19.6,1.9-29.6,4.2C140.3,120,76.6,220,99.1,321.1c14.4,64.7,60.8,114.1,118.8,135.3h0.2
			c2.7,1,5.4,1.9,8.1,2.7c0.3,0,0.5,0.2,0.8,0.2c2.5,0.8,5.2,1.5,7.8,2.2c0.3,0.2,0.8,0.2,1.2,0.3c2.5,0.7,5.1,1.2,7.8,1.9
			c0.5,0.2,1,0.2,1.4,0.3c2.5,0.5,5.1,1,7.6,1.4c0.5,0,1,0.2,1.5,0.2c2.5,0.3,5.1,0.7,7.6,1c0.7,0,1.4,0.2,1.9,0.2
			c2.4,0.2,4.7,0.3,7.1,0.5c0.8,0,1.9,0.2,2.7,0.2c2,0.2,3.9,0.2,5.9,0.2c1,0,1.9,0,2.9,0c0.5,0,1,0,1.5,0c1.2,0,2.4,0,3.7-0.2
			c2.2,0,4.6-0.2,6.8-0.3C294.4,467.2,294.6,467.2,294.8,467.2z"/>
		<path d="M293.4,466c97.7-6.4,174.9-87.5,174.9-186.7c0-103.4-83.8-187.2-187.2-187.2c-4.2,0-8.4,0.2-12.5,0.5
			c0.3-0.2,0.7-0.3,1-0.5c-9.8,0.7-19.6,1.9-29.6,4.2C139,118.8,75.3,218.8,97.7,319.9c14.4,64.7,60.8,114.1,118.8,135.3h0.2
			c2.7,1,5.4,1.9,8.1,2.7c0.3,0,0.5,0.2,0.8,0.2c2.5,0.8,5.2,1.5,7.8,2.2c0.3,0.2,0.8,0.2,1.2,0.3c2.5,0.7,5.1,1.2,7.8,1.9
			c0.5,0.2,1,0.2,1.4,0.3c2.5,0.5,5.1,1,7.6,1.4c0.5,0,1,0.2,1.5,0.2c2.5,0.3,5.1,0.7,7.6,1c0.7,0,1.4,0.2,1.9,0.2
			c2.4,0.2,4.7,0.3,7.1,0.5c0.8,0,1.9,0.2,2.7,0.2c2,0.2,3.9,0.2,5.9,0.2c1,0,1.9,0,2.9,0c0.5,0,1,0,1.5,0c1.2,0,2.4,0,3.7-0.2
			c2.2,0,4.6-0.2,6.8-0.3C293.2,466,293.2,466,293.4,466z"/>
		<path d="M292.2,464.9c97.7-6.4,174.9-87.5,174.9-186.7c0-103.4-83.8-187.2-187.2-187.2c-4.2,0-8.4,0.2-12.5,0.5
			c0.3-0.2,0.7-0.3,1-0.5c-9.8,0.7-19.6,1.9-29.6,4.2c-101,22.5-164.7,122.5-142.3,223.5c14.4,64.7,60.8,114.1,118.8,135.3h0.2
			c2.7,1,5.4,1.9,8.1,2.7c0.3,0,0.5,0.2,0.8,0.2c2.5,0.8,5.2,1.5,7.8,2.2c0.3,0.2,0.8,0.2,1.2,0.3c2.5,0.7,5.1,1.2,7.8,1.9
			c0.5,0.2,1,0.2,1.4,0.3c2.5,0.5,5.1,1,7.6,1.4c0.5,0,1,0.2,1.5,0.2c2.5,0.3,5.1,0.7,7.6,1c0.7,0,1.4,0.2,1.9,0.2
			c2.4,0.2,4.7,0.3,7.1,0.5c0.8,0,1.9,0.2,2.7,0.2c2,0.2,3.9,0.2,5.9,0.2c1,0,1.9,0,2.9,0c0.5,0,1,0,1.5,0c1.2,0,2.4,0,3.7-0.2
			c2.2,0,4.6-0.2,6.8-0.3C291.9,464.9,292.1,464.9,292.2,464.9z"/>
		<path d="M290.9,463.8c97.7-6.4,174.9-87.5,174.9-186.7c0-103.4-83.8-187.2-187.2-187.2c-4.2,0-8.4,0.2-12.5,0.5
			c0.3-0.2,0.7-0.3,1-0.5c-9.8,0.7-19.6,1.9-29.6,4.2c-101,22.5-164.7,122.5-142.3,223.5C109.6,382.4,156,431.7,214,453h0.2
			c2.7,1,5.4,1.9,8.1,2.7c0.3,0,0.5,0.2,0.8,0.2c2.5,0.8,5.2,1.5,7.8,2.2c0.3,0.2,0.8,0.2,1.2,0.3c2.5,0.7,5.1,1.2,7.8,1.9
			c0.5,0.2,1,0.2,1.4,0.3c2.5,0.5,5.1,1,7.6,1.4c0.5,0,1,0.2,1.5,0.2c2.5,0.3,5.1,0.7,7.6,1c0.7,0,1.4,0.2,1.9,0.2
			c2.4,0.2,4.7,0.3,7.1,0.5c0.8,0,1.9,0.2,2.7,0.2c2,0.2,3.9,0.2,5.9,0.2c1,0,1.9,0,2.9,0c0.5,0,1,0,1.5,0c1.2,0,2.4,0,3.7-0.2
			c2.2,0,4.6-0.2,6.8-0.3C290.5,463.8,290.7,463.8,290.9,463.8z"/>
		<path d="M289.5,462.7c97.7-6.4,174.9-87.5,174.9-186.7c0-103.4-83.8-187.2-187.2-187.2c-4.2,0-8.4,0.2-12.5,0.5
			c0.3-0.2,0.7-0.3,1-0.5c-9.8,0.7-19.6,1.9-29.6,4.2c-101,22.5-164.7,122.5-142.3,223.5c14.4,64.7,60.8,114.1,118.8,135.3h0.2
			c2.7,1,5.4,1.9,8.1,2.7c0.3,0,0.5,0.2,0.8,0.2c2.5,0.8,5.2,1.5,7.8,2.2c0.3,0.2,0.8,0.2,1.2,0.3c2.5,0.7,5.1,1.2,7.8,1.9
			c0.5,0.2,1,0.2,1.4,0.3c2.5,0.5,5.1,1,7.6,1.4c0.5,0,1,0.2,1.5,0.2c2.5,0.3,5.1,0.7,7.6,1c0.7,0,1.4,0.2,1.9,0.2
			c2.4,0.2,4.7,0.3,7.1,0.5c0.8,0,1.9,0.2,2.7,0.2c2,0.2,3.9,0.2,5.9,0.2c1,0,1.9,0,2.9,0c0.5,0,1,0,1.5,0c1.2,0,2.4,0,3.7-0.2
			c2.2,0,4.6-0.2,6.8-0.3C289.2,462.7,289.4,462.7,289.5,462.7z"/>
		<path d="M288.2,461.6c97.7-6.4,174.9-87.5,174.9-186.7c0-103.4-83.8-187.2-187.2-187.2c-4.2,0-8.4,0.2-12.5,0.5
			c0.3-0.2,0.7-0.3,1-0.5c-9.8,0.7-19.6,1.9-29.6,4.2C133.7,114.4,70,214.4,92.5,315.5c14.4,64.7,60.8,114.1,118.8,135.3h0.2
			c2.7,1,5.4,1.9,8.1,2.7c0.3,0,0.5,0.2,0.8,0.2c2.5,0.8,5.2,1.5,7.8,2.2c0.3,0.2,0.8,0.2,1.2,0.3c2.5,0.7,5.1,1.2,7.8,1.9
			c0.5,0.2,1,0.2,1.4,0.3c2.5,0.5,5.1,1,7.6,1.4c0.5,0,1,0.2,1.5,0.2c2.5,0.3,5.1,0.7,7.6,1c0.7,0,1.4,0.2,1.9,0.2
			c2.4,0.2,4.7,0.3,7.1,0.5c0.8,0,1.9,0.2,2.7,0.2c2,0.2,3.9,0.2,5.9,0.2c1,0,1.9,0,2.9,0c0.5,0,1,0,1.5,0c1.2,0,2.4,0,3.7-0.2
			c2.2,0,4.6-0.2,6.8-0.3C288,461.6,288.2,461.6,288.2,461.6z"/>
		<path d="M287,460.5c97.7-6.4,174.9-87.5,174.9-186.7c0-103.4-83.8-187.2-187.2-187.2c-4.2,0-8.4,0.2-12.5,0.5
			c0.3-0.2,0.7-0.3,1-0.5c-9.8,0.7-19.6,1.9-29.6,4.2c-101,22.5-164.7,122.5-142.3,223.5c14.4,64.7,60.8,114.1,118.8,135.3h0.2
			c2.7,1,5.4,1.9,8.1,2.7c0.3,0,0.5,0.2,0.8,0.2c2.5,0.8,5.2,1.5,7.8,2.2c0.3,0.2,0.8,0.2,1.2,0.3c2.5,0.7,5.1,1.2,7.8,1.9
			c0.5,0.2,1,0.2,1.4,0.3c2.5,0.5,5.1,1,7.6,1.4c0.5,0,1,0.2,1.5,0.2c2.5,0.3,5.1,0.7,7.6,1c0.7,0,1.4,0.2,1.9,0.2
			c2.4,0.2,4.7,0.3,7.1,0.5c0.8,0,1.9,0.2,2.7,0.2c2,0.2,3.9,0.2,5.9,0.2c1,0,1.9,0,2.9,0c0.5,0,1,0,1.5,0c1.2,0,2.4,0,3.7-0.2
			c2.2,0,4.6-0.2,6.8-0.3C286.7,460.5,286.8,460.5,287,460.5z"/>
		<path d="M285.6,459.3c97.7-6.4,174.9-87.5,174.9-186.7c0-103.4-83.8-187.2-187.2-187.2c-4.2,0-8.4,0.2-12.5,0.5
			c0.3-0.2,0.7-0.3,1-0.5c-9.8,0.7-19.6,1.9-29.6,4.2C131.2,112,67.5,212.1,90,313.1c14.4,64.7,60.8,114.1,118.8,135.3h0.2
			c2.7,1,5.4,1.9,8.1,2.7c0.3,0,0.5,0.2,0.8,0.2c2.5,0.8,5.2,1.5,7.8,2.2c0.3,0.2,0.8,0.2,1.2,0.3c2.5,0.7,5.1,1.2,7.8,1.9
			c0.5,0.2,1,0.2,1.4,0.3c2.5,0.5,5.1,1,7.6,1.4c0.5,0,1,0.2,1.5,0.2c2.5,0.3,5.1,0.7,7.6,1c0.7,0,1.4,0.2,1.9,0.2
			c2.4,0.2,4.7,0.3,7.1,0.5c0.8,0,1.9,0.2,2.7,0.2c2,0.2,3.9,0.2,5.9,0.2c1,0,1.9,0,2.9,0c0.5,0,1,0,1.5,0c1.2,0,2.4,0,3.7-0.2
			c2.2,0,4.6-0.2,6.8-0.3C285.3,459.3,285.5,459.3,285.6,459.3z"/>
		<path d="M284.3,458.3c97.7-6.4,174.9-87.5,174.9-186.7c0-103.4-83.8-187.2-187.2-187.2c-4.2,0-8.4,0.2-12.5,0.5
			c0.3-0.2,0.7-0.3,1-0.5c-9.8,0.7-19.6,1.9-29.6,4.2C129.8,111,66.1,211.1,88.6,312.1c14.4,64.7,60.8,114.1,118.8,135.3h0.2
			c2.7,1,5.4,1.9,8.1,2.7c0.3,0,0.5,0.2,0.8,0.2c2.5,0.8,5.2,1.5,7.8,2.2c0.3,0.2,0.8,0.2,1.2,0.3c2.5,0.7,5.1,1.2,7.8,1.9
			c0.5,0.2,1,0.2,1.4,0.3c2.5,0.5,5.1,1,7.6,1.4c0.5,0,1,0.2,1.5,0.2c2.5,0.3,5.1,0.7,7.6,1c0.7,0,1.4,0.2,1.9,0.2
			c2.4,0.2,4.7,0.3,7.1,0.5c0.8,0,1.9,0.2,2.7,0.2c2,0.2,3.9,0.2,5.9,0.2c1,0,1.9,0,2.9,0c0.5,0,1,0,1.5,0c1.2,0,2.4,0,3.7-0.2
			c2.2,0,4.6-0.2,6.8-0.3C284.1,458.3,284.3,458.3,284.3,458.3z"/>
		<path d="M283.1,457.1c97.7-6.4,174.9-87.5,174.9-186.7C458,167,374.2,83.1,270.8,83.1c-4.2,0-8.4,0.2-12.5,0.5
			c0.3-0.2,0.7-0.3,1-0.5c-9.8,0.7-19.6,1.9-29.6,4.2C128.7,109.8,65,209.9,87.4,310.9c14.4,64.7,60.8,114.1,118.8,135.3h0.2
			c2.7,1,5.4,1.9,8.1,2.7c0.3,0,0.5,0.2,0.8,0.2c2.5,0.8,5.2,1.5,7.8,2.2c0.3,0.2,0.8,0.2,1.2,0.3c2.5,0.7,5.1,1.2,7.8,1.9
			c0.5,0.2,1,0.2,1.4,0.3c2.5,0.5,5.1,1,7.6,1.4c0.5,0,1,0.2,1.5,0.2c2.5,0.3,5.1,0.7,7.6,1c0.7,0,1.4,0.2,1.9,0.2
			c2.4,0.2,4.7,0.3,7.1,0.5c0.8,0,1.9,0.2,2.7,0.2c2,0.2,3.9,0.2,5.9,0.2c1,0,1.9,0,2.9,0c0.5,0,1,0,1.5,0c1.2,0,2.4,0,3.7-0.2
			c2.2,0,4.6-0.2,6.8-0.3C282.8,457.1,282.9,457.1,283.1,457.1z"/>
		<path d="M281.8,456.1c97.7-6.4,174.9-87.5,174.9-186.7c0-103.4-83.8-187.2-187.2-187.2c-4.2,0-8.4,0.2-12.5,0.5
			c0.3-0.2,0.7-0.3,1-0.5c-9.8,0.7-19.6,1.9-29.6,4.2c-101,22.5-164.7,122.5-142.3,223.5c14.4,64.7,60.8,114.1,118.8,135.3h0.2
			c2.7,1,5.4,1.9,8.1,2.7c0.3,0,0.5,0.2,0.8,0.2c2.5,0.8,5.2,1.5,7.8,2.2c0.3,0.2,0.8,0.2,1.2,0.3c2.5,0.7,5.1,1.2,7.8,1.9
			c0.5,0.2,1,0.2,1.4,0.3c2.5,0.5,5.1,1,7.6,1.4c0.5,0,1,0.2,1.5,0.2c2.5,0.3,5.1,0.7,7.6,1c0.7,0,1.4,0.2,1.9,0.2
			c2.4,0.2,4.7,0.3,7.1,0.5c0.8,0,1.9,0.2,2.7,0.2c2,0.2,3.9,0.2,5.9,0.2c1,0,1.9,0,2.9,0c0.5,0,1,0,1.5,0c1.2,0,2.4,0,3.7-0.2
			c2.2,0,4.6-0.2,6.8-0.3C281.4,456.1,281.6,456.1,281.8,456.1z"/>
		<path d="M280.4,454.9c97.7-6.4,174.9-87.5,174.9-186.7C455.3,164.8,371.5,81,268.1,81c-4.2,0-8.4,0.2-12.5,0.5
			c0.3-0.2,0.7-0.3,1-0.5c-9.8,0.7-19.6,1.9-29.6,4.2C126,107.7,62.3,207.7,84.7,308.7c14.4,64.7,60.8,114.1,118.8,135.3h0.2
			c2.7,1,5.4,1.9,8.1,2.7c0.3,0,0.5,0.2,0.8,0.2c2.5,0.8,5.2,1.5,7.8,2.2c0.3,0.2,0.8,0.2,1.2,0.3c2.5,0.7,5.1,1.2,7.8,1.9
			c0.5,0.2,1,0.2,1.4,0.3c2.5,0.5,5.1,1,7.6,1.4c0.5,0,1,0.2,1.5,0.2c2.5,0.3,5.1,0.7,7.6,1c0.7,0,1.4,0.2,1.9,0.2
			c2.4,0.2,4.7,0.3,7.1,0.5c0.8,0,1.9,0.2,2.7,0.2c2,0.2,3.9,0.2,5.9,0.2c1,0,1.9,0,2.9,0c0.5,0,1,0,1.5,0c1.2,0,2.4,0,3.7-0.2
			c2.2,0,4.6-0.2,6.8-0.3C280.2,454.9,280.2,454.9,280.4,454.9z"/>
		<path d="M279.2,453.7c97.7-6.4,174.9-87.5,174.9-186.7c0-103.4-83.8-187.2-187.2-187.2c-4.2,0-8.4,0.2-12.5,0.5
			c0.3-0.2,0.7-0.3,1-0.5c-9.8,0.7-19.6,1.9-29.6,4.2c-101,22.5-164.7,122.5-142.3,223.5c14.4,64.7,60.8,114.1,118.8,135.3h0.2
			c2.7,1,5.4,1.9,8.1,2.7c0.3,0,0.5,0.2,0.8,0.2c2.5,0.8,5.2,1.5,7.8,2.2c0.3,0.2,0.8,0.2,1.2,0.3c2.5,0.7,5.1,1.2,7.8,1.9
			c0.5,0.2,1,0.2,1.4,0.3c2.5,0.5,5.1,1,7.6,1.4c0.5,0,1,0.2,1.5,0.2c2.5,0.3,5.1,0.7,7.6,1c0.7,0,1.4,0.2,1.9,0.2
			c2.4,0.2,4.7,0.3,7.1,0.5c0.8,0,1.9,0.2,2.7,0.2c2,0.2,3.9,0.2,5.9,0.2c1,0,1.9,0,2.9,0c0.5,0,1,0,1.5,0c1.2,0,2.4,0,3.7-0.2
			c2.2,0,4.6-0.2,6.8-0.3C278.9,453.9,279,453.7,279.2,453.7z"/>
		<path d="M277.9,452.7c97.7-6.4,174.9-87.5,174.9-186.7c0-103.4-83.8-187.2-187.2-187.2c-4.2,0-8.4,0.2-12.5,0.5
			c0.3-0.2,0.7-0.3,1-0.5c-9.8,0.7-19.6,1.9-29.6,4.2c-101,22.5-164.7,122.5-142.3,223.5C96.6,371.2,143,420.6,201,441.9h0.2
			c2.7,1,5.4,1.9,8.1,2.7c0.3,0,0.5,0.2,0.8,0.2c2.5,0.8,5.2,1.5,7.8,2.2c0.3,0.2,0.8,0.2,1.2,0.3c2.5,0.7,5.1,1.2,7.8,1.9
			c0.5,0.2,1,0.2,1.4,0.3c2.5,0.5,5.1,1,7.6,1.4c0.5,0,1,0.2,1.5,0.2c2.5,0.3,5.1,0.7,7.6,1c0.7,0,1.4,0.2,1.9,0.2
			c2.4,0.2,4.7,0.3,7.1,0.5c0.8,0,1.9,0.2,2.7,0.2c2,0.2,3.9,0.2,5.9,0.2c1,0,1.9,0,2.9,0c0.5,0,1,0,1.5,0c1.2,0,2.4,0,3.7-0.2
			c2.2,0,4.6-0.2,6.8-0.3C277.5,452.7,277.7,452.7,277.9,452.7z"/>
		<path d="M276.5,451.5c97.7-6.4,174.9-87.5,174.9-186.7c0-103.4-83.8-187.2-187.2-187.2c-4.2,0-8.4,0.2-12.5,0.5
			c0.3-0.2,0.7-0.3,1-0.5c-9.8,0.7-19.6,1.9-29.6,4.2c-101,22.5-164.7,122.5-142.3,223.5c14.4,64.7,60.8,114.1,118.8,135.3h0.2
			c2.7,1,5.4,1.9,8.1,2.7c0.3,0,0.5,0.2,0.8,0.2c2.5,0.8,5.2,1.5,7.8,2.2c0.3,0.2,0.8,0.2,1.2,0.3c2.5,0.7,5.1,1.2,7.8,1.9
			c0.5,0.2,1,0.2,1.4,0.3c2.5,0.5,5.1,1,7.6,1.4c0.5,0,1,0.2,1.5,0.2c2.5,0.3,5.1,0.7,7.6,1c0.7,0,1.4,0.2,1.9,0.2
			c2.4,0.2,4.7,0.3,7.1,0.5c0.8,0,1.9,0.2,2.7,0.2c2,0.2,3.9,0.2,5.9,0.2c1,0,1.9,0,2.9,0c0.5,0,1,0,1.5,0c1.2,0,2.4,0,3.7-0.2
			c2.2,0,4.6-0.2,6.8-0.3C276.2,451.5,276.3,451.5,276.5,451.5z"/>
		<path d="M275.2,450.5C372.8,444.1,450,363,450,263.8c0-103.4-83.8-187.2-187.2-187.2c-4.2,0-8.4,0.2-12.5,0.5
			c0.3-0.2,0.7-0.3,1-0.5c-9.8,0.7-19.6,1.9-29.6,4.2C120.7,103.3,57,203.3,79.5,304.3c14.4,64.7,60.8,114.1,118.8,135.3h0.2
			c2.7,1,5.4,1.9,8.1,2.7c0.3,0,0.5,0.2,0.8,0.2c2.5,0.8,5.2,1.5,7.8,2.2c0.3,0.2,0.8,0.2,1.2,0.3c2.5,0.7,5.1,1.2,7.8,1.9
			c0.5,0.2,1,0.2,1.4,0.3c2.5,0.5,5.1,1,7.6,1.4c0.5,0,1,0.2,1.5,0.2c2.5,0.3,5.1,0.7,7.6,1c0.7,0,1.4,0.2,1.9,0.2
			c2.4,0.2,4.7,0.3,7.1,0.5c0.8,0,1.9,0.2,2.7,0.2c2,0.2,3.9,0.2,5.9,0.2c1,0,1.9,0,2.9,0c0.5,0,1,0,1.5,0c1.2,0,2.4,0,3.7-0.2
			c2.2,0,4.6-0.2,6.8-0.3C275,450.5,275.2,450.5,275.2,450.5z"/>
		<path d="M274,449.3c97.7-6.4,174.9-87.5,174.9-186.7c0-103.4-83.8-187.2-187.2-187.2c-4.2,0-8.4,0.2-12.5,0.5
			c0.3-0.2,0.7-0.3,1-0.5c-9.8,0.7-19.6,1.9-29.6,4.2c-101,22.5-164.7,122.5-142.3,223.5c14.4,64.7,60.8,114.1,118.8,135.3h0.2
			c2.7,1,5.4,1.9,8.1,2.7c0.3,0,0.5,0.2,0.8,0.2c2.5,0.8,5.2,1.5,7.8,2.2c0.3,0.2,0.8,0.2,1.2,0.3c2.5,0.7,5.1,1.2,7.8,1.9
			c0.5,0.2,1,0.2,1.4,0.3c2.5,0.5,5.1,1,7.6,1.4c0.5,0,1,0.2,1.5,0.2c2.5,0.3,5.1,0.7,7.6,1c0.7,0,1.4,0.2,1.9,0.2
			c2.4,0.2,4.7,0.3,7.1,0.5c0.8,0,1.9,0.2,2.7,0.2c2,0.2,3.9,0.2,5.9,0.2c1,0,1.9,0,2.9,0c0.5,0,1,0,1.5,0c1.2,0,2.4,0,3.7-0.2
			c2.2,0,4.6-0.2,6.8-0.3C273.6,449.3,273.8,449.3,274,449.3z"/>
		<path d="M272.6,448.1c97.7-6.3,174.9-87.5,174.9-186.7c0-103.4-83.8-187.2-187.2-187.2c-4.2,0-8.4,0.2-12.5,0.5
			c0.3-0.2,0.7-0.3,1-0.5c-9.8,0.7-19.6,1.9-29.6,4.2C118.2,100.9,54.5,200.9,77,302c14.4,64.7,60.8,114.1,118.8,135.3h0.2
			c2.7,1,5.4,1.9,8.1,2.7c0.3,0,0.5,0.2,0.8,0.2c2.5,0.8,5.2,1.5,7.8,2.2c0.3,0.2,0.8,0.2,1.2,0.3c2.5,0.7,5.1,1.2,7.8,1.9
			c0.5,0.2,1,0.2,1.4,0.3c2.5,0.5,5.1,1,7.6,1.4c0.5,0,1,0.2,1.5,0.2c2.5,0.3,5.1,0.7,7.6,1c0.7,0,1.4,0.2,1.9,0.2
			c2.4,0.2,4.7,0.3,7.1,0.5c0.8,0,1.9,0.2,2.7,0.2c2,0.2,3.9,0.2,5.9,0.2c1,0,1.9,0,2.9,0c0.5,0,1,0,1.5,0c1.2,0,2.4,0,3.7-0.2
			c2.2,0,4.6-0.2,6.8-0.3C272.3,448.3,272.5,448.1,272.6,448.1z"/>
		<path d="M271.3,447.1c97.7-6.4,174.9-87.5,174.9-186.7c0-103.4-83.8-187.2-187.2-187.2c-4.2,0-8.4,0.2-12.5,0.5
			c0.3-0.2,0.7-0.3,1-0.5c-9.8,0.7-19.6,1.9-29.6,4.2C116.8,99.9,53.1,199.9,75.6,301C90,365.7,136.4,415,194.4,436.3h0.2
			c2.7,1,5.4,1.9,8.1,2.7c0.3,0,0.5,0.2,0.8,0.2c2.5,0.8,5.2,1.5,7.8,2.2c0.3,0.2,0.8,0.2,1.2,0.3c2.5,0.7,5.1,1.2,7.8,1.9
			c0.5,0.2,1,0.2,1.4,0.3c2.5,0.5,5.1,1,7.6,1.4c0.5,0,1,0.2,1.5,0.2c2.5,0.3,5.1,0.7,7.6,1c0.7,0,1.4,0.2,1.9,0.2
			c2.4,0.2,4.7,0.3,7.1,0.5c0.8,0,1.9,0.2,2.7,0.2c2,0.2,3.9,0.2,5.9,0.2c1,0,1.9,0,2.9,0c0.5,0,1,0,1.5,0c1.2,0,2.4,0,3.7-0.2
			c2.2,0,4.6-0.2,6.8-0.3C271.1,447.1,271.1,447.1,271.3,447.1z"/>
		<path d="M270.1,445.9c97.7-6.4,174.9-87.5,174.9-186.7C445,155.8,361.2,72,257.8,72c-4.2,0-8.4,0.2-12.5,0.5
			c0.3-0.2,0.7-0.3,1-0.5c-9.8,0.7-19.6,1.9-29.6,4.2C115.7,98.7,52,198.7,74.4,299.8c14.4,64.7,60.8,114.1,118.8,135.3h0.2
			c2.7,1,5.4,1.9,8.1,2.7c0.3,0,0.5,0.2,0.8,0.2c2.5,0.8,5.2,1.5,7.8,2.2c0.3,0.2,0.8,0.2,1.2,0.3c2.5,0.7,5.1,1.2,7.8,1.9
			c0.5,0.2,1,0.2,1.4,0.3c2.5,0.5,5.1,1,7.6,1.4c0.5,0,1,0.2,1.5,0.2c2.5,0.3,5.1,0.7,7.6,1c0.7,0,1.4,0.2,1.9,0.2
			c2.4,0.2,4.7,0.3,7.1,0.5c0.8,0,1.9,0.2,2.7,0.2c2,0.2,3.9,0.2,5.9,0.2c1,0,1.9,0,2.9,0c0.5,0,1,0,1.5,0c1.2,0,2.4,0,3.7-0.2
			c2.2,0,4.6-0.2,6.8-0.3C269.8,445.9,269.9,445.9,270.1,445.9z"/>
		<path d="M268.7,444.9c97.7-6.4,174.9-87.5,174.9-186.7C443.6,154.8,359.8,71,256.4,71c-4.2,0-8.4,0.2-12.5,0.5
			c0.3-0.2,0.7-0.3,1-0.5c-9.8,0.7-19.6,1.9-29.6,4.2C114.3,97.7,50.6,197.7,73.1,298.8c14.4,64.7,60.8,114.1,118.8,135.3h0.2
			c2.7,1,5.4,1.9,8.1,2.7c0.3,0,0.5,0.2,0.8,0.2c2.5,0.8,5.2,1.5,7.8,2.2c0.3,0.2,0.8,0.2,1.2,0.3c2.5,0.7,5.1,1.2,7.8,1.9
			c0.5,0.2,1,0.2,1.4,0.3c2.5,0.5,5.1,1,7.6,1.4c0.5,0,1,0.2,1.5,0.2c2.5,0.3,5.1,0.7,7.6,1c0.7,0,1.4,0.2,1.9,0.2
			c2.4,0.2,4.7,0.3,7.1,0.5c0.8,0,1.9,0.2,2.7,0.2c2,0.2,3.9,0.2,5.9,0.2c1,0,1.9,0,2.9,0c0.5,0,1,0,1.5,0c1.2,0,2.4,0,3.7-0.2
			c2.2,0,4.6-0.2,6.8-0.3C268.4,444.9,268.6,444.9,268.7,444.9z"/>
		<path d="M267.4,443.7c97.7-6.4,174.9-87.5,174.9-186.7c0-103.4-83.8-187.2-187.2-187.2c-4.2,0-8.4,0.2-12.5,0.5
			c0.3-0.2,0.7-0.3,1-0.5c-9.8,0.7-19.6,1.9-29.6,4.2C113,96.5,49.2,196.5,71.7,297.6c14.4,64.7,60.8,114.1,118.8,135.3h0.2
			c2.7,1,5.4,1.9,8.1,2.7c0.3,0,0.5,0.2,0.8,0.2c2.5,0.8,5.2,1.5,7.8,2.2c0.3,0.2,0.8,0.2,1.2,0.3c2.5,0.7,5.1,1.2,7.8,1.9
			c0.5,0.2,1,0.2,1.4,0.3c2.5,0.5,5.1,1,7.6,1.4c0.5,0,1,0.2,1.5,0.2c2.5,0.3,5.1,0.7,7.6,1c0.7,0,1.4,0.2,1.9,0.2
			c2.4,0.2,4.7,0.3,7.1,0.5c0.8,0,1.9,0.2,2.7,0.2c2,0.2,3.9,0.2,5.9,0.2c1,0,1.9,0,2.9,0c0.5,0,1,0,1.5,0c1.2,0,2.4,0,3.7-0.2
			c2.2,0,4.6-0.2,6.8-0.3C267.2,443.7,267.2,443.7,267.4,443.7z"/>
		<path d="M266,442.6c97.7-6.4,174.9-87.5,174.9-186.7c0-103.4-83.8-187.2-187.2-187.2c-4.2,0-8.4,0.2-12.5,0.5
			c0.3-0.2,0.7-0.3,1-0.5c-9.8,0.7-19.6,1.9-29.6,4.2C111.6,95.3,47.9,195.3,70.4,296.4c14.4,64.7,60.8,114.1,118.8,135.3h0.2
			c2.7,1,5.4,1.9,8.1,2.7c0.3,0,0.5,0.2,0.8,0.2c2.5,0.8,5.2,1.5,7.8,2.2c0.3,0.2,0.8,0.2,1.2,0.3c2.5,0.7,5.1,1.2,7.8,1.9
			c0.5,0.2,1,0.2,1.4,0.3c2.5,0.5,5.1,1,7.6,1.4c0.5,0,1,0.2,1.5,0.2c2.5,0.3,5.1,0.7,7.6,1c0.7,0,1.4,0.2,1.9,0.2
			c2.4,0.2,4.7,0.3,7.1,0.5c0.8,0,1.9,0.2,2.7,0.2c2,0.2,3.9,0.2,5.9,0.2c1,0,1.9,0,2.9,0c0.5,0,1,0,1.5,0c1.2,0,2.4,0,3.7-0.2
			c2.2,0,4.6-0.2,6.8-0.3C265.9,442.7,266,442.6,266,442.6z"/>
		<path d="M264.9,441.5c97.7-6.4,174.9-87.5,174.9-186.7c0-103.4-83.8-187.2-187.2-187.2c-4.2,0-8.4,0.2-12.5,0.5
			c0.3-0.2,0.7-0.3,1-0.5c-9.8,0.7-19.6,1.9-29.6,4.2C110.4,94.3,46.7,194.3,69.2,295.4C83.5,360.1,130,409.4,188,430.7h0.2
			c2.7,1,5.4,1.9,8.1,2.7c0.3,0,0.5,0.2,0.8,0.2c2.5,0.8,5.2,1.5,7.8,2.2c0.3,0.2,0.8,0.2,1.2,0.3c2.5,0.7,5.1,1.2,7.8,1.9
			c0.5,0.2,1,0.2,1.4,0.3c2.5,0.5,5.1,1,7.6,1.4c0.5,0,1,0.2,1.5,0.2c2.5,0.3,5.1,0.7,7.6,1c0.7,0,1.4,0.2,1.9,0.2
			c2.4,0.2,4.7,0.3,7.1,0.5c0.8,0,1.9,0.2,2.7,0.2c2,0.2,3.9,0.2,5.9,0.2c1,0,1.9,0,2.9,0c0.5,0,1,0,1.5,0c1.2,0,2.4,0,3.7-0.2
			c2.2,0,4.6-0.2,6.8-0.3C264.5,441.5,264.7,441.5,264.9,441.5z"/>
		<path d="M263.5,440.4c97.7-6.4,174.9-87.5,174.9-186.7c0-103.4-83.8-187.2-187.2-187.2c-4.2,0-8.4,0.2-12.5,0.5
			c0.3-0.2,0.7-0.3,1-0.5c-9.8,0.7-19.6,1.9-29.6,4.2C109.1,93.1,45.4,193.1,67.8,294.2c14.4,64.7,60.8,114.1,118.8,135.3h0.2
			c2.7,1,5.4,1.9,8.1,2.7c0.3,0,0.5,0.2,0.8,0.2c2.5,0.8,5.2,1.5,7.8,2.2c0.3,0.2,0.8,0.2,1.2,0.3c2.5,0.7,5.1,1.2,7.8,1.9
			c0.5,0.2,1,0.2,1.4,0.3c2.5,0.5,5.1,1,7.6,1.4c0.5,0,1,0.2,1.5,0.2c2.5,0.3,5.1,0.7,7.6,1c0.7,0,1.4,0.2,1.9,0.2
			c2.4,0.2,4.7,0.3,7.1,0.5c0.8,0,1.9,0.2,2.7,0.2c2,0.2,3.9,0.2,5.9,0.2c1,0,1.9,0,2.9,0c0.5,0,1,0,1.5,0c1.2,0,2.4,0,3.7-0.2
			c2.2,0,4.6-0.2,6.8-0.3C263.2,440.4,263.3,440.4,263.5,440.4z"/>
		<path d="M262.2,439.3c97.7-6.4,174.9-87.5,174.9-186.7c0-103.4-83.8-187.2-187.2-187.2c-4.2,0-8.4,0.2-12.5,0.5
			c0.3-0.2,0.7-0.3,1-0.5c-9.8,0.7-19.6,1.9-29.6,4.2C107.7,92.1,44,192.1,66.5,293.2c14.4,64.7,60.8,114.1,118.8,135.3h0.2
			c2.7,1,5.4,1.9,8.1,2.7c0.3,0,0.5,0.2,0.8,0.2c2.5,0.8,5.2,1.5,7.8,2.2c0.3,0.2,0.8,0.2,1.2,0.3c2.5,0.7,5.1,1.2,7.8,1.9
			c0.5,0.2,1,0.2,1.4,0.3c2.5,0.5,5.1,1,7.6,1.4c0.5,0,1,0.2,1.5,0.2c2.5,0.3,5.1,0.7,7.6,1c0.7,0,1.4,0.2,1.9,0.2
			c2.4,0.2,4.7,0.3,7.1,0.5c0.8,0,1.9,0.2,2.7,0.2c2,0.2,3.9,0.2,5.9,0.2c1,0,1.9,0,2.9,0c0.5,0,1,0,1.5,0c1.2,0,2.4,0,3.7-0.2
			c2.2,0,4.6-0.2,6.8-0.3C262,439.3,262.2,439.3,262.2,439.3z"/>
		<path d="M261,438.2c97.7-6.4,174.9-87.5,174.9-186.7C435.9,148,352,64.2,248.6,64.2c-4.2,0-8.4,0.2-12.5,0.5
			c0.3-0.2,0.7-0.3,1-0.5c-9.8,0.7-19.6,1.9-29.6,4.2C106.5,90.9,42.8,191,65.3,292c14.4,64.7,60.8,114.1,118.8,135.3h0.2
			c2.7,1,5.4,1.9,8.1,2.7c0.3,0,0.5,0.2,0.8,0.2c2.5,0.8,5.2,1.5,7.8,2.2c0.3,0.2,0.8,0.2,1.2,0.3c2.5,0.7,5.1,1.2,7.8,1.9
			c0.5,0.2,1,0.2,1.4,0.3c2.5,0.5,5.1,1,7.6,1.4c0.5,0,1,0.2,1.5,0.2c2.5,0.3,5.1,0.7,7.6,1c0.7,0,1.4,0.2,1.9,0.2
			c2.4,0.2,4.7,0.3,7.1,0.5c0.8,0,1.9,0.2,2.7,0.2c2,0.2,3.9,0.2,5.9,0.2c1,0,1.9,0,2.9,0c0.5,0,1,0,1.5,0c1.2,0,2.4,0,3.7-0.2
			c2.2,0,4.6-0.2,6.8-0.3C260.6,438.2,260.8,438.2,261,438.2z"/>
		<path d="M259.6,437c97.7-6.4,174.9-87.5,174.9-186.7C434.5,146.9,350.7,63,247.3,63c-4.2,0-8.4,0.2-12.5,0.5
			c0.3-0.2,0.7-0.3,1-0.5c-9.8,0.7-19.6,1.9-29.6,4.2C105.2,89.7,41.5,189.8,63.9,290.8c14.4,64.7,60.8,114.1,118.8,135.3h0.2
			c2.7,1,5.4,1.9,8.1,2.7c0.3,0,0.5,0.2,0.8,0.2c2.5,0.8,5.2,1.5,7.8,2.2c0.3,0.2,0.8,0.2,1.2,0.3c2.5,0.7,5.1,1.2,7.8,1.9
			c0.5,0.2,1,0.2,1.4,0.3c2.5,0.5,5.1,1,7.6,1.4c0.5,0,1,0.2,1.5,0.2c2.5,0.3,5.1,0.7,7.6,1c0.7,0,1.4,0.2,1.9,0.2
			c2.4,0.2,4.7,0.3,7.1,0.5c0.8,0,1.9,0.2,2.7,0.2c2,0.2,3.9,0.2,5.9,0.2c1,0,1.9,0,2.9,0c0.5,0,1,0,1.5,0c1.2,0,2.4,0,3.7-0.2
			c2.2,0,4.6-0.2,6.8-0.3C259.3,437.1,259.4,437.1,259.6,437z"/>
		<path d="M258.3,436c97.7-6.4,174.9-87.5,174.9-186.7C433.2,145.8,349.3,62,245.9,62c-4.2,0-8.4,0.2-12.5,0.5
			c0.3-0.2,0.7-0.3,1-0.5c-9.8,0.7-19.6,1.9-29.6,4.2C103.8,88.7,40.1,188.8,62.6,289.8c14.4,64.7,60.8,114.1,118.8,135.3h0.2
			c2.7,1,5.4,1.9,8.1,2.7c0.3,0,0.5,0.2,0.8,0.2c2.5,0.8,5.2,1.5,7.8,2.2c0.3,0.2,0.8,0.2,1.2,0.3c2.5,0.7,5.1,1.2,7.8,1.9
			c0.5,0.2,1,0.2,1.4,0.3c2.5,0.5,5.1,1,7.6,1.4c0.5,0,1,0.2,1.5,0.2c2.5,0.3,5.1,0.7,7.6,1c0.7,0,1.4,0.2,1.9,0.2
			c2.4,0.2,4.7,0.3,7.1,0.5c0.8,0,1.9,0.2,2.7,0.2c2,0.2,3.9,0.2,5.9,0.2c1,0,1.9,0,2.9,0c0.5,0,1,0,1.5,0c1.2,0,2.4,0,3.7-0.2
			c2.2,0,4.6-0.2,6.8-0.3C258.1,436,258.1,436,258.3,436z"/>
		<path d="M257.1,434.8c97.7-6.4,174.9-87.5,174.9-186.7c0-103.4-83.8-187.2-187.2-187.2c-4.2,0-8.4,0.2-12.5,0.5
			c0.3-0.2,0.7-0.3,1-0.5c-9.8,0.7-19.6,1.9-29.6,4.2C102.6,87.5,38.9,187.6,61.4,288.6c14.4,64.7,60.8,114.1,118.8,135.3h0.2
			c2.7,1,5.4,1.9,8.1,2.7c0.3,0,0.5,0.2,0.8,0.2c2.5,0.8,5.2,1.5,7.8,2.2c0.3,0.2,0.8,0.2,1.2,0.3c2.5,0.7,5.1,1.2,7.8,1.9
			c0.5,0.2,1,0.2,1.4,0.3c2.5,0.5,5.1,1,7.6,1.4c0.5,0,1,0.2,1.5,0.2c2.5,0.3,5.1,0.7,7.6,1c0.7,0,1.4,0.2,1.9,0.2
			c2.4,0.2,4.7,0.3,7.1,0.5c0.8,0,1.9,0.2,2.7,0.2c2,0.2,3.9,0.2,5.9,0.2c1,0,1.9,0,2.9,0c0.5,0,1,0,1.5,0c1.2,0,2.4,0,3.7-0.2
			c2.2,0,4.6-0.2,6.8-0.3C256.7,434.8,256.9,434.8,257.1,434.8z"/>
		<path d="M255.7,433.8c97.7-6.4,174.9-87.5,174.9-186.7c0-103.4-83.8-187.2-187.2-187.2c-4.2,0-8.4,0.2-12.5,0.5
			c0.3-0.2,0.7-0.3,1-0.5c-9.8,0.7-19.6,1.9-29.6,4.2C101.3,86.5,37.6,186.6,60.1,287.6c14.4,64.7,60.8,114.1,118.8,135.3h0.2
			c2.7,1,5.4,1.9,8.1,2.7c0.3,0,0.5,0.2,0.8,0.2c2.5,0.8,5.2,1.5,7.8,2.2c0.3,0.2,0.8,0.2,1.2,0.3c2.5,0.7,5.1,1.2,7.8,1.9
			c0.5,0.2,1,0.2,1.4,0.3c2.5,0.5,5.1,1,7.6,1.4c0.5,0,1,0.2,1.5,0.2c2.5,0.3,5.1,0.7,7.6,1c0.7,0,1.4,0.2,1.9,0.2
			c2.4,0.2,4.7,0.3,7.1,0.5c0.8,0,1.9,0.2,2.7,0.2c2,0.2,3.9,0.2,5.9,0.2c1,0,1.9,0,2.9,0c0.5,0,1,0,1.5,0c1.2,0,2.4,0,3.7-0.2
			c2.2,0,4.6-0.2,6.8-0.3C255.4,433.8,255.6,433.8,255.7,433.8z"/>
		<path d="M254.4,432.6c97.7-6.4,174.9-87.5,174.9-186.7c0-103.4-83.8-187.2-187.2-187.2c-4.2,0-8.4,0.2-12.5,0.5
			c0.3-0.2,0.7-0.3,1-0.5c-9.8,0.7-19.6,1.9-29.6,4.2C99.9,85.3,36.2,185.4,58.7,286.4c14.4,64.7,60.8,114.1,118.8,135.3h0.2
			c2.7,1,5.4,1.9,8.1,2.7c0.3,0,0.5,0.2,0.8,0.2c2.5,0.8,5.2,1.5,7.8,2.2c0.3,0.2,0.8,0.2,1.2,0.3c2.5,0.7,5.1,1.2,7.8,1.9
			c0.5,0.2,1,0.2,1.4,0.3c2.5,0.5,5.1,1,7.6,1.4c0.5,0,1,0.2,1.5,0.2c2.5,0.3,5.1,0.7,7.6,1c0.7,0,1.4,0.2,1.9,0.2
			c2.4,0.2,4.7,0.3,7.1,0.5c0.8,0,1.9,0.2,2.7,0.2c2,0.2,3.9,0.2,5.9,0.2c1,0,1.9,0,2.9,0c0.5,0,1,0,1.5,0c1.2,0,2.4,0,3.7-0.2
			c2.2,0,4.6-0.2,6.8-0.3C254,432.6,254.2,432.6,254.4,432.6z"/>
		<path d="M253,431.4c97.7-6.4,174.9-87.5,174.9-186.7c0-103.4-83.8-187.2-187.2-187.2c-4.2,0-8.4,0.2-12.5,0.5
			c0.3-0.2,0.7-0.3,1-0.5c-9.8,0.7-19.6,1.9-29.6,4.2C98.6,84.2,34.9,184.2,57.4,285.2c14.4,64.7,60.8,114.1,118.8,135.3h0.2
			c2.7,1,5.4,1.9,8.1,2.7c0.3,0,0.5,0.2,0.8,0.2c2.5,0.8,5.2,1.5,7.8,2.2c0.3,0.2,0.8,0.2,1.2,0.3c2.5,0.7,5.1,1.2,7.8,1.9
			c0.5,0.2,1,0.2,1.4,0.3c2.5,0.5,5.1,1,7.6,1.4c0.5,0,1,0.2,1.5,0.2c2.5,0.3,5.1,0.7,7.6,1c0.7,0,1.4,0.2,1.9,0.2
			c2.4,0.2,4.7,0.3,7.1,0.5c0.8,0,1.9,0.2,2.7,0.2c2,0.2,3.9,0.2,5.9,0.2c1,0,1.9,0,2.9,0c0.5,0,1,0,1.5,0c1.2,0,2.4,0,3.7-0.2
			c2.2,0,4.6-0.2,6.8-0.3C252.9,431.6,253,431.6,253,431.4z"/>
		<path d="M251.8,430.4c97.7-6.4,174.9-87.5,174.9-186.7c0-103.4-83.8-187.2-187.2-187.2c-4.2,0-8.4,0.2-12.5,0.5
			c0.3-0.2,0.7-0.3,1-0.5c-9.8,0.7-19.6,1.9-29.6,4.2C97.4,83.1,33.7,183.2,56.2,284.2C70.5,348.9,117,398.3,175,419.6h0.2
			c2.7,1,5.4,1.9,8.1,2.7c0.3,0,0.5,0.2,0.8,0.2c2.5,0.8,5.2,1.5,7.8,2.2c0.3,0.2,0.8,0.2,1.2,0.3c2.5,0.7,5.1,1.2,7.8,1.9
			c0.5,0.2,1,0.2,1.4,0.3c2.5,0.5,5.1,1,7.6,1.4c0.5,0,1,0.2,1.5,0.2c2.5,0.3,5.1,0.7,7.6,1c0.7,0,1.4,0.2,1.9,0.2
			c2.4,0.2,4.7,0.3,7.1,0.5c0.8,0,1.9,0.2,2.7,0.2c2,0.2,3.9,0.2,5.9,0.2c1,0,1.9,0,2.9,0c0.5,0,1,0,1.5,0c1.2,0,2.4,0,3.7-0.2
			c2.2,0,4.6-0.2,6.8-0.3C251.5,430.4,251.7,430.4,251.8,430.4z"/>
		<path d="M250.5,429.2c97.7-6.4,174.9-87.5,174.9-186.7c0-103.4-83.8-187.2-187.2-187.2c-4.2,0-8.4,0.2-12.5,0.5
			c0.3-0.2,0.7-0.3,1-0.5c-9.8,0.7-19.6,1.9-29.6,4.2C96.1,82,32.4,182,54.8,283c14.4,64.7,60.8,114.1,118.8,135.3h0.2
			c2.7,1,5.4,1.9,8.1,2.7c0.3,0,0.5,0.2,0.8,0.2c2.5,0.8,5.2,1.5,7.8,2.2c0.3,0.2,0.8,0.2,1.2,0.3c2.5,0.7,5.1,1.2,7.8,1.9
			c0.5,0.2,1,0.2,1.4,0.3c2.5,0.5,5.1,1,7.6,1.4c0.5,0,1,0.2,1.5,0.2c2.5,0.3,5.1,0.7,7.6,1c0.7,0,1.4,0.2,1.9,0.2
			c2.4,0.2,4.7,0.3,7.1,0.5c0.8,0,1.9,0.2,2.7,0.2c2,0.2,3.9,0.2,5.9,0.2c1,0,1.9,0,2.9,0c0.5,0,1,0,1.5,0c1.2,0,2.4,0,3.7-0.2
			c2.2,0,4.6-0.2,6.8-0.3C250.2,429.2,250.3,429.2,250.5,429.2z"/>
		<path d="M249.1,428.2c97.7-6.4,174.9-87.5,174.9-186.7c0-103.4-83.8-187.2-187.2-187.2c-4.2,0-8.4,0.2-12.5,0.5
			c0.3-0.2,0.7-0.3,1-0.5c-9.8,0.7-19.6,1.9-29.6,4.2C94.7,81,31,181,53.5,282c14.4,64.7,60.8,114.1,118.8,135.3h0.2
			c2.7,1,5.4,1.9,8.1,2.7c0.3,0,0.5,0.2,0.8,0.2c2.5,0.8,5.2,1.5,7.8,2.2c0.3,0.2,0.8,0.2,1.2,0.3c2.5,0.7,5.1,1.2,7.8,1.9
			c0.5,0.2,1,0.2,1.4,0.3c2.5,0.5,5.1,1,7.6,1.4c0.5,0,1,0.2,1.5,0.2c2.5,0.3,5.1,0.7,7.6,1c0.7,0,1.4,0.2,1.9,0.2
			c2.4,0.2,4.7,0.3,7.1,0.5c0.8,0,1.9,0.2,2.7,0.2c2,0.2,3.9,0.2,5.9,0.2c1,0,1.9,0,2.9,0c0.5,0,1,0,1.5,0c1.2,0,2.4,0,3.7-0.2
			c2.2,0,4.6-0.2,6.8-0.3C249,428.2,249,428.2,249.1,428.2z"/>
		<path d="M248,427c97.7-6.4,174.9-87.5,174.9-186.7c0-103.4-83.8-187.2-187.2-187.2c-4.2,0-8.4,0.2-12.5,0.5c0.3-0.2,0.7-0.3,1-0.5
			c-9.8,0.7-19.6,1.9-29.6,4.2C93.5,79.8,29.8,179.8,52.3,280.8c14.4,64.7,60.8,114.1,118.8,135.3h0.2c2.7,1,5.4,1.9,8.1,2.7
			c0.3,0,0.5,0.2,0.8,0.2c2.5,0.8,5.2,1.5,7.8,2.2c0.3,0.2,0.8,0.2,1.2,0.3c2.5,0.7,5.1,1.2,7.8,1.9c0.5,0.2,1,0.2,1.4,0.3
			c2.5,0.5,5.1,1,7.6,1.4c0.5,0,1,0.2,1.5,0.2c2.5,0.3,5.1,0.7,7.6,1c0.7,0,1.4,0.2,1.9,0.2c2.4,0.2,4.7,0.3,7.1,0.5
			c0.8,0,1.9,0.2,2.7,0.2c2,0.2,3.9,0.2,5.9,0.2c1,0,1.9,0,2.9,0c0.5,0,1,0,1.5,0c1.2,0,2.4,0,3.7-0.2c2.2,0,4.6-0.2,6.8-0.3
			C247.6,427,247.8,427,248,427z"/>
		<path d="M246.6,425.8c97.7-6.4,174.9-87.5,174.9-186.7c0-103.4-83.8-187.2-187.2-187.2c-4.2,0-8.4,0.2-12.5,0.5
			c0.3-0.2,0.7-0.3,1-0.5c-9.8,0.7-19.6,1.9-29.6,4.2C92.2,78.6,28.5,178.6,50.9,279.7c14.4,64.7,60.8,114.1,118.8,135.3h0.2
			c2.7,1,5.4,1.9,8.1,2.7c0.3,0,0.5,0.2,0.8,0.2c2.5,0.8,5.2,1.5,7.8,2.2c0.3,0.2,0.8,0.2,1.2,0.3c2.5,0.7,5.1,1.2,7.8,1.9
			c0.5,0.2,1,0.2,1.4,0.3c2.5,0.5,5.1,1,7.6,1.4c0.5,0,1,0.2,1.5,0.2c2.5,0.3,5.1,0.7,7.6,1c0.7,0,1.4,0.2,1.9,0.2
			c2.4,0.2,4.7,0.3,7.1,0.5c0.8,0,1.9,0.2,2.7,0.2c2,0.2,3.9,0.2,5.9,0.2c1,0,1.9,0,2.9,0c0.5,0,1,0,1.5,0c1.2,0,2.4,0,3.7-0.2
			c2.2,0,4.6-0.2,6.8-0.3C246.3,426,246.4,426,246.6,425.8z"/>
		<path d="M245.3,424.8c97.7-6.4,174.9-87.5,174.9-186.7c0-103.4-83.8-187.2-187.2-187.2c-4.2,0-8.4,0.2-12.5,0.5
			c0.3-0.2,0.7-0.3,1-0.5c-9.8,0.7-19.6,1.9-29.6,4.2C90.8,77.6,27.1,177.6,49.6,278.6c14.4,64.7,60.8,114.1,118.8,135.3h0.2
			c2.7,1,5.4,1.9,8.1,2.7c0.3,0,0.5,0.2,0.8,0.2c2.5,0.8,5.2,1.5,7.8,2.2c0.3,0.2,0.8,0.2,1.2,0.3c2.5,0.7,5.1,1.2,7.8,1.9
			c0.5,0.2,1,0.2,1.4,0.3c2.5,0.5,5.1,1,7.6,1.4c0.5,0,1,0.2,1.5,0.2c2.5,0.3,5.1,0.7,7.6,1c0.7,0,1.4,0.2,1.9,0.2
			c2.4,0.2,4.7,0.3,7.1,0.5c0.8,0,1.9,0.2,2.7,0.2c2,0.2,3.9,0.2,5.9,0.2c1,0,1.9,0,2.9,0c0.5,0,1,0,1.5,0c1.2,0,2.4,0,3.7-0.2
			c2.2,0,4.6-0.2,6.8-0.3C245.1,424.8,245.1,424.8,245.3,424.8z"/>
		<path d="M244.1,423.6c97.7-6.4,174.9-87.5,174.9-186.7c0-103.4-83.8-187.2-187.2-187.2c-4.2,0-8.4,0.2-12.5,0.5
			c0.3-0.2,0.7-0.3,1-0.5c-9.8,0.7-19.6,1.9-29.6,4.2C89.6,76.4,25.9,176.4,48.4,277.5c14.4,64.7,60.8,114.1,118.8,135.3h0.2
			c2.7,1,5.4,1.9,8.1,2.7c0.3,0,0.5,0.2,0.8,0.2c2.5,0.8,5.2,1.5,7.8,2.2c0.3,0.2,0.8,0.2,1.2,0.3c2.5,0.7,5.1,1.2,7.8,1.9
			c0.5,0.2,1,0.2,1.4,0.3c2.5,0.5,5.1,1,7.6,1.4c0.5,0,1,0.2,1.5,0.2c2.5,0.3,5.1,0.7,7.6,1c0.7,0,1.4,0.2,1.9,0.2
			c2.4,0.2,4.7,0.3,7.1,0.5c0.8,0,1.9,0.2,2.7,0.2c2,0.2,3.9,0.2,5.9,0.2c1,0,1.9,0,2.9,0c0.5,0,1,0,1.5,0c1.2,0,2.4,0,3.7-0.2
			c2.2,0,4.6-0.2,6.8-0.3C243.7,423.6,243.9,423.6,244.1,423.6z"/>
		<path d="M242.7,422.6c97.7-6.4,174.9-87.5,174.9-186.7c0-103.4-83.8-187.2-187.2-187.2c-4.2,0-8.4,0.2-12.5,0.5
			c0.3-0.2,0.7-0.3,1-0.5c-9.8,0.7-19.6,1.9-29.6,4.2C88.3,75.4,24.6,175.4,47.1,276.5c14.4,64.7,60.8,114.1,118.8,135.3h0.2
			c2.7,1,5.4,1.9,8.1,2.7c0.3,0,0.5,0.2,0.8,0.2c2.5,0.8,5.2,1.5,7.8,2.2c0.3,0.2,0.8,0.2,1.2,0.3c2.5,0.7,5.1,1.2,7.8,1.9
			c0.5,0.2,1,0.2,1.4,0.3c2.5,0.5,5.1,1,7.6,1.4c0.5,0,1,0.2,1.5,0.2c2.5,0.3,5.1,0.7,7.6,1c0.7,0,1.4,0.2,1.9,0.2
			c2.4,0.2,4.7,0.3,7.1,0.5c0.8,0,1.9,0.2,2.7,0.2c2,0.2,3.9,0.2,5.9,0.2c1,0,1.9,0,2.9,0c0.5,0,1,0,1.5,0c1.2,0,2.4,0,3.7-0.2
			c2.2,0,4.6-0.2,6.8-0.3C242.4,422.6,242.6,422.6,242.7,422.6z"/>
		<path d="M241.4,421.4c97.7-6.4,174.9-87.5,174.9-186.7c0-103.4-83.8-187.2-187.2-187.2c-4.2,0-8.4,0.2-12.5,0.5
			c0.3-0.2,0.7-0.3,1-0.5c-9.8,0.7-19.6,1.9-29.6,4.2C86.9,74.2,23.2,174.2,45.7,275.3c14.4,64.7,60.8,114.1,118.8,135.3h0.2
			c2.7,1,5.4,1.9,8.1,2.7c0.3,0,0.5,0.2,0.8,0.2c2.5,0.8,5.2,1.5,7.8,2.2c0.3,0.2,0.8,0.2,1.2,0.3c2.5,0.7,5.1,1.2,7.8,1.9
			c0.5,0.2,1,0.2,1.4,0.3c2.5,0.5,5.1,1,7.6,1.4c0.5,0,1,0.2,1.5,0.2c2.5,0.3,5.1,0.7,7.6,1c0.7,0,1.4,0.2,1.9,0.2
			c2.4,0.2,4.7,0.3,7.1,0.5c0.8,0,1.9,0.2,2.7,0.2c2,0.2,3.9,0.2,5.9,0.2c1,0,1.9,0,2.9,0c0.5,0,1,0,1.5,0c1.2,0,2.4,0,3.7-0.2
			c2.2,0,4.6-0.2,6.8-0.3C241,421.4,241.2,421.4,241.4,421.4z"/>
		<path d="M240,420.4c97.7-6.4,174.9-87.5,174.9-186.7c0-103.4-83.8-187.2-187.2-187.2c-4.2,0-8.4,0.2-12.5,0.5
			c0.3-0.2,0.7-0.3,1-0.5c-9.8,0.7-19.6,1.9-29.6,4.2C85.6,73.2,21.9,173.2,44.3,274.3c14.4,64.7,60.8,114.1,118.8,135.3h0.2
			c2.7,1,5.4,1.9,8.1,2.7c0.3,0,0.5,0.2,0.8,0.2c2.5,0.8,5.2,1.5,7.8,2.2c0.3,0.2,0.8,0.2,1.2,0.3c2.5,0.7,5.1,1.2,7.8,1.9
			c0.5,0.2,1,0.2,1.4,0.3c2.5,0.5,5.1,1,7.6,1.4c0.5,0,1,0.2,1.5,0.2c2.5,0.3,5.1,0.7,7.6,1c0.7,0,1.4,0.2,1.9,0.2
			c2.4,0.2,4.7,0.3,7.1,0.5c0.8,0,1.9,0.2,2.7,0.2c2,0.2,3.9,0.2,5.9,0.2c1,0,1.9,0,2.9,0c0.5,0,1,0,1.5,0c1.2,0,2.4,0,3.7-0.2
			c2.2,0,4.6-0.2,6.8-0.3C239.8,420.4,240,420.4,240,420.4z"/>
		<path d="M238.8,419.2c97.7-6.4,174.9-87.5,174.9-186.7c0-103.4-83.8-187.2-187.2-187.2c-4.2,0-8.4,0.2-12.5,0.5
			c0.3-0.2,0.7-0.3,1-0.5c-9.8,0.7-19.6,1.9-29.6,4.2C84.4,72,20.7,172,43.2,273.1C57.5,337.8,104,387.1,162,408.4h0.2
			c2.7,1,5.4,1.9,8.1,2.7c0.3,0,0.5,0.2,0.8,0.2c2.5,0.8,5.2,1.5,7.8,2.2c0.3,0.2,0.8,0.2,1.2,0.3c2.5,0.7,5.1,1.2,7.8,1.9
			c0.5,0.2,1,0.2,1.4,0.3c2.5,0.5,5.1,1,7.6,1.4c0.5,0,1,0.2,1.5,0.2c2.5,0.3,5.1,0.7,7.6,1c0.7,0,1.4,0.2,1.9,0.2
			c2.4,0.2,4.7,0.3,7.1,0.5c0.8,0,1.9,0.2,2.7,0.2c2,0.2,3.9,0.2,5.9,0.2c1,0,1.9,0,2.9,0c0.5,0,1,0,1.5,0c1.2,0,2.4,0,3.7-0.2
			c2.2,0,4.6-0.2,6.8-0.3C238.5,419.2,238.7,419.2,238.8,419.2z"/>
		<path d="M237.5,418.1c97.7-6.4,174.9-87.5,174.9-186.7c0-103.4-83.8-187.2-187.2-187.2c-4.2,0-8.4,0.2-12.5,0.5
			c0.3-0.2,0.7-0.3,1-0.5c-9.8,0.7-19.6,1.9-29.6,4.2C83,70.8,19.3,170.8,41.8,271.9c14.4,64.7,60.8,114.1,118.8,135.3h0.2
			c2.7,1,5.4,1.9,8.1,2.7c0.3,0,0.5,0.2,0.8,0.2c2.5,0.8,5.2,1.5,7.8,2.2c0.3,0.2,0.8,0.2,1.2,0.3c2.5,0.7,5.1,1.2,7.8,1.9
			c0.5,0.2,1,0.2,1.4,0.3c2.5,0.5,5.1,1,7.6,1.4c0.5,0,1,0.2,1.5,0.2c2.5,0.3,5.1,0.7,7.6,1c0.7,0,1.4,0.2,1.9,0.2
			c2.4,0.2,4.7,0.3,7.1,0.5c0.8,0,1.9,0.2,2.7,0.2c2,0.2,3.9,0.2,5.9,0.2c1,0,1.9,0,2.9,0c0.5,0,1,0,1.5,0c1.2,0,2.4,0,3.7-0.2
			c2.2,0,4.6-0.2,6.8-0.3C237.1,418.1,237.3,418.1,237.5,418.1z"/>
		<path d="M236.1,417c97.7-6.4,174.9-87.5,174.9-186.7c0-103.4-83.8-187.2-187.2-187.2c-4.2,0-8.4,0.2-12.5,0.5
			c0.3-0.2,0.7-0.3,1-0.5c-9.8,0.7-19.6,1.9-29.6,4.2C81.7,69.8,18,169.8,40.5,270.9c14.4,64.7,60.8,114.1,118.8,135.3h0.2
			c2.7,1,5.4,1.9,8.1,2.7c0.3,0,0.5,0.2,0.8,0.2c2.5,0.8,5.2,1.5,7.8,2.2c0.3,0.2,0.8,0.2,1.2,0.3c2.5,0.7,5.1,1.2,7.8,1.9
			c0.5,0.2,1,0.2,1.4,0.3c2.5,0.5,5.1,1,7.6,1.4c0.5,0,1,0.2,1.5,0.2c2.5,0.3,5.1,0.7,7.6,1c0.7,0,1.4,0.2,1.9,0.2
			c2.4,0.2,4.7,0.3,7.1,0.5c0.8,0,1.9,0.2,2.7,0.2c2,0.2,3.9,0.2,5.9,0.2c1,0,1.9,0,2.9,0c0.5,0,1,0,1.5,0c1.2,0,2.4,0,3.7-0.2
			c2.2,0,4.6-0.2,6.8-0.3C236,417,236,417,236.1,417z"/>
		<path d="M234.9,415.9c97.7-6.4,174.9-87.5,174.9-186.7c0-103.4-83.8-187.2-187.2-187.2c-4.2,0-8.4,0.2-12.5,0.5
			c0.3-0.2,0.7-0.3,1-0.5c-9.8,0.7-19.6,1.9-29.6,4.2C80.5,68.6,16.8,168.6,39.3,269.7c14.4,64.7,60.8,114.1,118.8,135.3h0.2
			c2.7,1,5.4,1.9,8.1,2.7c0.3,0,0.5,0.2,0.8,0.2c2.5,0.8,5.2,1.5,7.8,2.2c0.3,0.2,0.8,0.2,1.2,0.3c2.5,0.7,5.1,1.2,7.8,1.9
			c0.5,0.2,1,0.2,1.4,0.3c2.5,0.5,5.1,1,7.6,1.4c0.5,0,1,0.2,1.5,0.2c2.5,0.3,5.1,0.7,7.6,1c0.7,0,1.4,0.2,1.9,0.2
			c2.4,0.2,4.7,0.3,7.1,0.5c0.8,0,1.9,0.2,2.7,0.2c2,0.2,3.9,0.2,5.9,0.2c1,0,1.9,0,2.9,0c0.5,0,1,0,1.5,0c1.2,0,2.4,0,3.7-0.2
			c2.2,0,4.6-0.2,6.8-0.3C234.6,415.9,234.8,415.9,234.9,415.9z"/>
		<path d="M233.6,414.8c97.7-6.4,174.9-87.5,174.9-186.7c0-103.4-83.8-187.2-187.2-187.2c-4.2,0-8.4,0.2-12.5,0.5
			c0.3-0.2,0.7-0.3,1-0.5c-9.8,0.7-19.6,1.9-29.6,4.2C79.2,67.6,15.5,167.6,37.9,268.7C52.3,333.4,98.8,382.7,156.7,404h0.2
			c2.7,1,5.4,1.9,8.1,2.7c0.3,0,0.5,0.2,0.8,0.2c2.5,0.8,5.2,1.5,7.8,2.2c0.3,0.2,0.8,0.2,1.2,0.3c2.5,0.7,5.1,1.2,7.8,1.9
			c0.5,0.2,1,0.2,1.4,0.3c2.5,0.5,5.1,1,7.6,1.4c0.5,0,1,0.2,1.5,0.2c2.5,0.3,5.1,0.7,7.6,1c0.7,0,1.4,0.2,1.9,0.2
			c2.4,0.2,4.7,0.3,7.1,0.5c0.8,0,1.9,0.2,2.7,0.2c2,0.2,3.9,0.2,5.9,0.2c1,0,1.9,0,2.9,0c0.5,0,1,0,1.5,0c1.2,0,2.4,0,3.7-0.2
			c2.2,0,4.6-0.2,6.8-0.3C233.3,414.8,233.4,414.8,233.6,414.8z"/>
		<path d="M232.2,413.7c97.7-6.4,174.9-87.5,174.9-186.7c0-103.4-83.8-187.2-187.2-187.2c-4.2,0-8.4,0.2-12.5,0.5
			c0.3-0.2,0.7-0.3,1-0.5c-9.8,0.7-19.6,1.9-29.6,4.2C77.8,66.4,14.1,166.5,36.6,267.5c14.4,64.7,60.8,114.1,118.8,135.3h0.2
			c2.7,1,5.4,1.9,8.1,2.7c0.3,0,0.5,0.2,0.8,0.2c2.5,0.8,5.2,1.5,7.8,2.2c0.3,0.2,0.8,0.2,1.2,0.3c2.5,0.7,5.1,1.2,7.8,1.9
			c0.5,0.2,1,0.2,1.4,0.3c2.5,0.5,5.1,1,7.6,1.4c0.5,0,1,0.2,1.5,0.2c2.5,0.3,5.1,0.7,7.6,1c0.7,0,1.4,0.2,1.9,0.2
			c2.4,0.2,4.7,0.3,7.1,0.5c0.8,0,1.9,0.2,2.7,0.2c2,0.2,3.9,0.2,5.9,0.2c1,0,1.9,0,2.9,0c0.5,0,1,0,1.5,0c1.2,0,2.4,0,3.7-0.2
			c2.2,0,4.6-0.2,6.8-0.3C231.9,413.7,232.1,413.7,232.2,413.7z"/>
		<path d="M230.9,412.5c97.7-6.4,174.9-87.5,174.9-186.7c0-103.4-83.8-187.2-187.2-187.2c-4.2,0-8.4,0.2-12.5,0.5
			c0.3-0.2,0.7-0.3,1-0.5c-9.8,0.7-19.6,1.9-29.6,4.2C76.5,65.2,12.8,165.3,35.2,266.3C49.6,331,96.1,380.4,154,401.7h0.2
			c2.7,1,5.4,1.9,8.1,2.7c0.3,0,0.5,0.2,0.8,0.2c2.5,0.8,5.2,1.5,7.8,2.2c0.3,0.2,0.8,0.2,1.2,0.3c2.5,0.7,5.1,1.2,7.8,1.9
			c0.5,0.2,1,0.2,1.4,0.3c2.5,0.5,5.1,1,7.6,1.4c0.5,0,1,0.2,1.5,0.2c2.5,0.3,5.1,0.7,7.6,1c0.7,0,1.4,0.2,1.9,0.2
			c2.4,0.2,4.7,0.3,7.1,0.5c0.8,0,1.9,0.2,2.7,0.2c2,0.2,3.9,0.2,5.9,0.2c1,0,1.9,0,2.9,0c0.5,0,1,0,1.5,0c1.2,0,2.4,0,3.7-0.2
			c2.2,0,4.6-0.2,6.8-0.3C230.7,412.5,230.9,412.5,230.9,412.5z"/>
		<path d="M229.7,411.5c97.7-6.4,174.9-87.5,174.9-186.7c0-103.4-83.8-187.2-187.2-187.2c-4.2,0-8.4,0.2-12.5,0.5
			c0.3-0.2,0.7-0.3,1-0.5c-9.8,0.7-19.6,1.9-29.6,4.2C75.3,64.2,11.6,164.3,34,265.3C48.4,330,94.9,379.4,152.8,400.6h0.2
			c2.7,1,5.4,1.9,8.1,2.7c0.3,0,0.5,0.2,0.8,0.2c2.5,0.8,5.2,1.5,7.8,2.2c0.3,0.2,0.8,0.2,1.2,0.3c2.5,0.7,5.1,1.2,7.8,1.9
			c0.5,0.2,1,0.2,1.4,0.3c2.5,0.5,5.1,1,7.6,1.4c0.5,0,1,0.2,1.5,0.2c2.5,0.3,5.1,0.7,7.6,1c0.7,0,1.4,0.2,1.9,0.2
			c2.4,0.2,4.7,0.3,7.1,0.5c0.8,0,1.9,0.2,2.7,0.2c2,0.2,3.9,0.2,5.9,0.2c1,0,1.9,0,2.9,0c0.5,0,1,0,1.5,0c1.2,0,2.4,0,3.7-0.2
			c2.2,0,4.6-0.2,6.8-0.3C229.4,411.5,229.5,411.5,229.7,411.5z"/>
	</g>
	<path class="st0" d="M229.7,411.5c97.7-6.4,174.9-87.5,174.9-186.7c0-103.4-83.8-187.2-187.2-187.2c-4.2,0-8.4,0.2-12.5,0.5
		c0.3-0.2,0.7-0.3,1-0.5c-9.8,0.7-19.6,1.9-29.6,4.2C75.3,64.2,11.6,164.3,34,265.3C48.4,330,94.9,379.4,152.8,400.6h0.2
		c2.7,1,5.4,1.9,8.1,2.7c0.3,0,0.5,0.2,0.8,0.2c2.5,0.8,5.2,1.5,7.8,2.2c0.3,0.2,0.8,0.2,1.2,0.3c2.5,0.7,5.1,1.2,7.8,1.9
		c0.5,0.2,1,0.2,1.4,0.3c2.5,0.5,5.1,1,7.6,1.4c0.5,0,1,0.2,1.5,0.2c2.5,0.3,5.1,0.7,7.6,1c0.7,0,1.4,0.2,1.9,0.2
		c2.4,0.2,4.7,0.3,7.1,0.5c0.8,0,1.9,0.2,2.7,0.2c2,0.2,3.9,0.2,5.9,0.2c1,0,1.9,0,2.9,0c0.5,0,1,0,1.5,0c1.2,0,2.4,0,3.7-0.2
		c2.2,0,4.6-0.2,6.8-0.3C229.4,411.5,229.5,411.5,229.7,411.5z"/>
	<g>
		<g>
			<path class="st1" d="M105.2,248.7C87.4,169,131,89.9,204.7,60.7c-8.6,0.5-17.2,1.7-25.9,3.5C90.5,83.8,34.7,171.5,54.3,259.9
				C73.9,348.3,161.6,404,250,384.4c8.6-1.9,17.1-4.6,25-7.8C196.1,381.7,122.9,328.5,105.2,248.7z"/>
			<polygon class="st1" points="269.2,145.2 238.2,149.2 223.6,177.1 210.3,148.7 179.2,143.5 202.2,122 197.4,90.9 225,106.1 
				253,91.9 247.3,122.9 			"/>
			<polygon class="st1" points="342.4,180.6 317.7,183.9 306.3,206 295.8,183.3 271.1,179.3 289.4,162.4 285.5,137.7 307.4,149.7 
				329.6,138.6 325,163.1 			"/>
			<polygon class="st1" points="203.7,233.5 179,236.6 167.7,258.7 157.1,236.2 132.6,232.2 150.6,215.1 146.9,190.6 168.7,202.6 
				191,191.5 186.3,215.8 			"/>
			<polygon class="st1" points="227.2,309.6 211,311.6 203.5,326.1 196.6,311.4 180.4,308.7 192.4,297.6 189.8,281.5 204.2,289.3 
				218.7,282 215.7,298.1 			"/>
			<polygon class="st1" points="298.8,269.7 279.7,272.2 270.8,289.3 262.5,271.9 243.4,268.7 257.6,255.5 254.7,236.2 271.6,245.7 
				288.8,236.9 285.3,256 			"/>
		</g>
	</g>
</g>
</svg>
