<?xml version="1.0" encoding="utf-8"?>
<!-- Generator: Adobe Illustrator 25.0.1, SVG Export Plug-In . SVG Version: 6.00 Build 0)  -->
<svg version="1.1" id="Layer_1" xmlns="http://www.w3.org/2000/svg" xmlns:xlink="http://www.w3.org/1999/xlink" x="0px" y="0px"
	 viewBox="0 0 196.8 197.2" style="enable-background:new 0 0 196.8 197.2;" xml:space="preserve">
<style type="text/css">
	.st0{fill:#00D959;}
</style>
<g>
	<g id="Layer_2_5_">
		<g id="Calque_1_4_">
			<path id="Path_5983_4_" d="M187,144.3l-20.6-20.6c-5.3-5.4-14-5.5-19.4-0.3l0,0l0,0c-1.6,1.5-2.7,3.4-3.5,5.4
				c-2.4,6.6-9.3,10.4-16.2,8.9c-17.8-6.5-32-20.5-38.3-38.3c-1.9-6.9,2-14,8.9-16.2c7.1-2.4,11.1-10.2,8.6-17.4
				c-0.7-2-1.9-3.9-3.4-5.4L82.3,39.5c-5.7-5.3-14.3-5.3-20,0l-14,14c-14,14.7,1.5,53.9,36.3,88.6s73.9,51,88.6,36.3l14-14
				C192.3,158.6,192.3,150,187,144.3z"/>
		</g>
	</g>
	<path d="M186.4,144l-20.6-20.6c-5.3-5.4-14-5.5-19.4-0.3l0,0l0,0c-1.6,1.5-2.7,3.4-3.5,5.4c-2.4,6.6-9.3,10.4-16.2,8.9
		c-17.8-6.5-32-20.5-38.3-38.3c-1.9-6.9,2-14,8.9-16.2c7.1-2.4,11.1-10.2,8.6-17.4c-0.7-2-1.9-3.9-3.4-5.4L81.6,39.2
		c-5.7-5.3-14.3-5.3-20,0l-14,14c-14,14.7,1.5,53.9,36.3,88.6s73.9,51,88.6,36.3l14-14C191.6,158.3,191.6,149.7,186.4,144z"/>
	<path d="M185.7,143.8l-20.6-20.6c-5.3-5.4-14-5.5-19.4-0.3l0,0l0,0c-1.6,1.5-2.7,3.4-3.5,5.4c-2.4,6.6-9.3,10.4-16.2,8.9
		c-17.8-6.5-32-20.5-38.3-38.3c-1.9-6.9,2-14,8.9-16.2c7.1-2.4,11.1-10.2,8.6-17.4c-0.7-2-1.9-3.9-3.4-5.4L80.9,39
		c-5.7-5.3-14.3-5.3-20,0l-14,14c-14,14.7,1.5,53.9,36.3,88.6s73.9,51,88.6,36.3l14-14C191.1,158.2,190.9,149.4,185.7,143.8z"/>
	<path d="M185,143.6L164.4,123c-5.3-5.4-14-5.5-19.4-0.3l0,0l0,0c-1.6,1.5-2.7,3.4-3.5,5.4c-2.4,6.6-9.3,10.4-16.2,8.9
		c-17.8-6.5-32-20.5-38.3-38.3c-1.9-6.9,2-14,8.9-16.2c7.1-2.4,11.1-10.2,8.6-17.4c-0.7-2-1.9-3.9-3.4-5.4l-20.9-21
		c-5.7-5.3-14.3-5.3-20,0l-13.9,14c-14,14.7,1.5,53.9,36.3,88.6s73.9,51,88.6,36.3l14-14C190.4,157.9,190.3,149.2,185,143.6z"/>
	<path d="M184.3,143.4l-20.6-20.6c-5.3-5.4-14-5.5-19.4-0.3l0,0l0,0c-1.6,1.5-2.7,3.4-3.5,5.4c-2.4,6.6-9.3,10.4-16.2,8.9
		c-17.8-6.5-32-20.5-38.3-38.3c-1.9-6.9,2-14,8.9-16.2c7.1-2.4,11.1-10.2,8.6-17.4c-0.7-2-1.9-3.9-3.4-5.4l-20.8-21
		c-5.7-5.3-14.3-5.3-20,0l-14,14.2c-14,14.7,1.5,53.9,36.3,88.6s73.9,51,88.6,36.3l14-14C189.7,157.6,189.7,148.9,184.3,143.4z"/>
	<path d="M183.8,143.1l-20.6-20.8c-5.3-5.4-14-5.5-19.4-0.3l0,0l0,0c-1.6,1.5-2.7,3.4-3.5,5.4c-2.4,6.6-9.3,10.4-16.2,8.9
		c-17.8-6.5-32-20.5-38.3-38.3c-1.9-6.9,2-14,8.9-16.2c7.1-2.4,11.1-10.2,8.6-17.4c-0.7-2-1.9-3.9-3.4-5.4L79,38.3
		c-5.7-5.3-14.3-5.3-20,0l-14,14c-14,14.7,1.5,53.9,36.3,88.6s73.8,50.8,88.6,36.1l14-14C189.1,157.4,189.1,148.6,183.8,143.1z"/>
	<path d="M183.1,142.8l-20.6-20.6c-5.3-5.4-14-5.5-19.4-0.3l0,0l0,0c-1.6,1.5-2.7,3.4-3.5,5.4c-2.4,6.6-9.3,10.4-16.2,8.9
		c-17.8-6.5-32-20.5-38.3-38.3c-1.9-6.9,2-14,8.9-16.2c7.1-2.4,11.1-10.2,8.6-17.4c-0.7-2-1.9-3.9-3.4-5.4L78.3,38
		c-5.7-5.3-14.3-5.3-20,0l-14,14c-14,14.7,1.5,53.9,36.3,88.6s73.9,51,88.6,36.3l14-14C188.4,157.1,188.4,148.5,183.1,142.8z"/>
	<path d="M182.5,142.5l-20.6-20.6c-5.3-5.4-14-5.5-19.4-0.3l0,0l0,0c-1.6,1.5-2.7,3.4-3.5,5.4c-2.4,6.6-9.3,10.4-16.2,8.9
		c-17.8-6.5-32-20.5-38.3-38.3c-1.9-6.9,2-14,8.9-16.2c7.1-2.4,11.1-10.2,8.6-17.4c-0.7-2-1.9-3.9-3.4-5.4L77.7,37.8
		c-5.7-5.3-14.3-5.3-20,0l-13.9,14c-14,14.7,1.5,53.9,36.3,88.6s73.9,51,88.6,36.3l14-14C187.8,156.8,187.7,148.2,182.5,142.5z"/>
	<path d="M181.8,142.3l-20.6-20.6c-5.3-5.4-14-5.5-19.4-0.3l0,0l0,0c-1.6,1.5-2.7,3.4-3.5,5.4c-2.4,6.6-9.3,10.4-16.2,8.9
		c-17.8-6.5-32-20.5-38.3-38.3c-1.9-6.9,2-14,8.9-16.2c7.1-2.4,11.1-10.2,8.6-17.4c-0.7-2-1.9-3.9-3.4-5.4L77,37.5
		c-5.7-5.3-14.3-5.3-20,0l-13.9,14c-14,14.7,1.5,53.9,36.3,88.6s73.9,51,88.6,36.3l14-14C187.2,156.7,187,147.9,181.8,142.3z"/>
	<path d="M181.2,142l-20.6-20.6c-5.3-5.4-14-5.5-19.4-0.3l0,0l0,0c-1.6,1.5-2.7,3.4-3.5,5.4c-2.4,6.6-9.3,10.4-16.2,8.9
		c-17.8-6.5-32-20.5-38.3-38.3c-1.9-6.9,2-14,8.9-16.2c7.1-2.4,11.1-10.2,8.6-17.4c-0.7-2-1.9-3.9-3.4-5.4L76.5,37.2
		c-5.7-5.3-14.3-5.3-20,0l-14,14c-14,14.7,1.5,53.9,36.3,88.6s73.9,51,88.6,36.3l14-14C186.5,156.4,186.5,147.7,181.2,142z"/>
	<path d="M180.6,141.9l-20.6-20.6c-5.3-5.4-14-5.5-19.4-0.3l0,0l0,0c-1.6,1.5-2.7,3.4-3.5,5.4c-2.4,6.6-9.3,10.4-16.2,8.9
		c-17.8-6.5-32-20.5-38.3-38.3c-1.9-6.9,2-14,8.9-16.2c7.1-2.4,11.1-10.2,8.6-17.4c-0.7-2-1.9-3.9-3.4-5.4L75.8,37
		c-5.7-5.3-14.3-5.3-20,0l-14,14c-14,14.7,1.5,53.9,36.3,88.6s73.9,51,88.6,36.3l14-14C185.8,156.2,185.8,147.4,180.6,141.9z"/>
	<path d="M179.9,141.6L159.3,121c-5.3-5.4-14-5.5-19.4-0.3l0,0l0,0c-1.6,1.5-2.7,3.4-3.5,5.4c-2.4,6.6-9.3,10.4-16.2,8.9
		c-17.8-6.5-32-20.5-38.3-38.3c-1.9-6.9,2-14,8.9-16.2c7.1-2.4,11.1-10.2,8.6-17.4c-0.7-2-1.9-3.9-3.4-5.4L75.1,36.8
		c-5.7-5.3-14.3-5.3-20,0l-14,14c-14,14.7,1.5,53.9,36.3,88.6s73.9,51,88.6,36.3l14-14C185.3,155.9,185.2,147.1,179.9,141.6z"/>
	<path d="M179.2,141.3l-20.6-20.6c-5.3-5.4-14-5.5-19.4-0.3l0,0l0,0c-1.6,1.5-2.7,3.4-3.5,5.4c-2.4,6.6-9.3,10.4-16.2,8.9
		c-17.8-6.5-32-20.5-38.3-38.3c-1.9-6.9,2-14,8.9-16.2c7.1-2.4,11.1-10.2,8.6-17.4c-0.7-2-1.9-3.9-3.4-5.4L74.4,36.5
		c-5.7-5.3-14.3-5.3-20,0l-13.9,14c-14,14.7,1.5,53.9,36.3,88.6s73.9,51,88.6,36.3l14-14C184.6,155.6,184.5,146.9,179.2,141.3z"/>
	<path d="M178.5,141.1l-20.6-20.6c-5.3-5.4-14-5.5-19.4-0.3l0,0l0,0c-1.6,1.5-2.7,3.4-3.5,5.4c-2.4,6.6-9.3,10.4-16.2,8.9
		C101,128,86.8,114,80.5,96.2c-1.9-6.9,2-14,8.9-16.2c7.1-2.4,11.1-10.2,8.6-17.4c-0.7-2-1.9-3.9-3.4-5.4L73.9,36.3
		c-5.7-5.3-14.3-5.3-20,0l-14,14c-14,14.7,1.5,53.9,36.3,88.6s73.9,51,88.6,36.3l14-14C183.9,155.4,183.9,146.7,178.5,141.1z"/>
	<path d="M178,140.8l-20.6-20.6c-5.3-5.4-14-5.5-19.4-0.3l0,0l0,0c-1.6,1.5-2.7,3.4-3.5,5.4c-2.4,6.6-9.3,10.4-16.2,8.9
		c-17.8-6.5-32-20.5-38.3-38.3c-1.9-6.9,2-14,8.9-16.2c7.1-2.4,11.1-10.2,8.6-17.4c-0.7-2-1.9-3.9-3.4-5.4L73.2,36
		c-5.7-5.3-14.3-5.3-20,0l-14,14c-14,14.7,1.5,53.9,36.3,88.6s73.9,51,88.6,36.3l14-14C183.3,155.1,183.3,146.5,178,140.8z"/>
	<path d="M177.3,140.5l-20.6-20.6c-5.3-5.4-14-5.5-19.4-0.3l0,0l0,0c-1.6,1.5-2.7,3.4-3.5,5.4c-2.4,6.6-9.3,10.4-16.2,8.9
		c-17.8-6.5-32-20.5-38.3-38.3c-1.9-6.9,2-14,8.9-16.2C95.3,77,99.2,69.2,96.8,62c-0.7-2-1.9-3.9-3.4-5.4L72.5,35.7
		c-5.7-5.3-14.3-5.3-20,0l-14,14c-14,14.7,1.5,53.9,36.3,88.6s73.9,51,88.6,36.3l14-14C182.6,155,182.6,146.2,177.3,140.5z"/>
	<path d="M176.7,140.3L156,119.6c-5.3-5.4-14-5.5-19.4-0.3l0,0l0,0c-1.6,1.5-2.7,3.4-3.5,5.4c-2.4,6.6-9.3,10.4-16.2,8.9
		c-17.8-6.5-32-20.5-38.4-38.3c-1.9-6.9,2-14,8.9-16.2c7.1-2.4,11.1-10.2,8.6-17.4c-0.7-2-1.9-3.9-3.4-5.4L71.9,35.5
		c-5.7-5.3-14.3-5.3-20,0l-14,14c-14,14.7,1.5,53.9,36.3,88.6s73.9,51,88.6,36.3l14-14C182,154.7,181.9,145.9,176.7,140.3z"/>
	<path d="M176,140.1l-20.6-20.6c-5.3-5.4-14-5.5-19.4-0.3l0,0l0,0c-1.6,1.5-2.7,3.4-3.5,5.4c-2.4,6.6-9.3,10.4-16.2,8.9
		c-17.8-6.5-32-20.5-38.3-38.3c-1.9-6.9,2-14,8.9-16.2c7.1-2.4,11.1-10.2,8.6-17.4c-0.7-2-1.9-3.9-3.4-5.4l-20.9-21
		c-5.5-5.1-14.3-5.1-20,0l-13.9,14c-14,14.7,1.5,53.9,36.3,88.6s73.9,51,88.6,36.3l14-14C181.4,154.4,181.2,145.6,176,140.1z"/>
	<path d="M175.4,139.8l-20.6-20.8c-5.3-5.4-14-5.5-19.4-0.3l0,0l0,0c-1.6,1.5-2.7,3.4-3.5,5.4c-2.4,6.6-9.3,10.4-16.2,8.9
		c-17.8-6.5-32-20.5-38.3-38.3c-1.9-6.9,2-14,8.9-16.2c7.1-2.4,11.1-10.2,8.6-17.4c-0.7-2-1.9-3.9-3.4-5.4L70.7,35.1
		c-5.7-5.3-14.3-5.3-20,0l-14,14c-14,14.7,1.5,53.8,36.1,88.6s73.9,51,88.6,36.3l14-14C180.7,154.1,180.7,145.4,175.4,139.8z"/>
	<path d="M174.8,139.6l-20.6-20.6c-5.3-5.4-14-5.5-19.4-0.3l0,0l0,0c-1.6,1.5-2.7,3.4-3.5,5.4c-2.4,6.6-9.3,10.4-16.2,8.9
		c-17.8-6.5-32-20.5-38.3-38.3c-1.9-6.9,2-14,8.9-16.2c7.1-2.4,11.1-10.2,8.6-17.4c-0.7-2-1.9-3.9-3.4-5.4L70,34.8
		c-5.7-5.3-14.3-5.3-20,0l-14,14c-14,14.7,1.5,53.9,36.3,88.6s73.9,51,88.6,36.3l14-14C180,153.9,180,145.1,174.8,139.6z"/>
	<path d="M174.1,139.3l-20.6-20.6c-5.3-5.4-14-5.5-19.4-0.3l0,0l0,0c-1.6,1.5-2.7,3.4-3.5,5.4c-2.4,6.6-9.3,10.4-16.2,8.9
		c-17.8-6.5-32-20.5-38.3-38.3c-1.9-6.9,2-14,8.9-16.2C92.1,75.8,96,68,93.6,60.8c-0.7-2-1.9-3.9-3.4-5.4L69.3,34.5
		c-5.7-5.3-14.3-5.3-20,0l-14,14c-14,14.7,1.5,53.9,36.3,88.6s73.9,51,88.6,36.3l14-14C179.5,153.6,179.4,145,174.1,139.3z"/>
	<path d="M173.4,139l-20.6-20.6c-5.3-5.4-14-5.5-19.4-0.3l0,0l0,0c-1.6,1.5-2.7,3.4-3.5,5.4c-2.4,6.6-9.3,10.4-16.2,8.9
		c-17.8-6.5-32-20.5-38.3-38.3c-1.9-6.9,2-14,8.9-16.2c7.1-2.4,11.1-10.2,8.6-17.4c-0.7-2-1.9-3.9-3.4-5.4L68.6,34.3
		c-5.7-5.3-14.3-5.3-20,0l-13.9,14c-14,14.7,1.5,53.9,36.3,88.6s73.9,51,88.6,36.3l14-14C178.8,153.3,178.7,144.7,173.4,139z"/>
	<path d="M172.7,138.8l-20.6-20.6c-5.3-5.4-14-5.5-19.4-0.3l0,0l0,0c-1.6,1.5-2.7,3.4-3.5,5.4c-2.4,6.6-9.3,10.4-16.2,8.9
		c-17.8-6.5-32-20.5-38.3-38.3c-1.9-6.9,2-14,8.9-16.2c7.1-2.4,11.1-10.2,8.6-17.4c-0.7-2-1.9-3.9-3.4-5.4L68,34
		c-5.7-5.3-14.3-5.3-20,0L34.1,48c-14,14.7,1.5,53.9,36.3,88.6s73.9,51,88.6,36.3l14-14C178.1,153.2,178,144.4,172.7,138.8z"/>
	<path d="M172.2,138.5l-20.6-20.6c-5.3-5.4-14-5.5-19.4-0.3l0,0l0,0c-1.6,1.5-2.7,3.4-3.5,5.4c-2.4,6.6-9.3,10.4-16.2,8.9
		c-17.8-6.5-32-20.5-38.3-38.3c-1.9-6.9,2-14,8.9-16.2C90.2,75,94.1,67.2,91.7,60c-0.7-2-1.9-3.9-3.4-5.4L67.4,33.7
		c-5.7-5.3-14.3-5.3-20,0l-14,14c-14,14.7,1.5,53.9,36.3,88.6s73.9,51,88.6,36.3l14-14C177.5,152.9,177.5,144.2,172.2,138.5z"/>
	<path d="M171.5,138.4l-20.6-20.6c-5.3-5.4-14-5.5-19.4-0.3l0,0l0,0c-1.6,1.5-2.7,3.4-3.5,5.4c-2.4,6.6-9.3,10.4-16.2,8.9
		c-17.8-6.5-32-20.5-38.3-38.3c-1.9-6.9,2-14,8.9-16.2C89.5,74.8,93.4,67,91,59.9c-0.7-2-1.9-3.9-3.4-5.4l-20.9-21
		c-5.7-5.3-14.3-5.3-20,0l-14,14.2c-14,14.7,1.5,53.9,36.3,88.6s73.9,51,88.6,36.3l14-14C176.8,152.7,176.8,143.9,171.5,138.4z"/>
	<path d="M170.9,138.1l-20.6-20.6c-5.3-5.4-14-5.5-19.4-0.3l0,0l0,0c-1.6,1.5-2.7,3.4-3.5,5.4c-2.4,6.6-9.3,10.4-16.2,8.9
		c-17.8-6.5-32-20.5-38.3-38.3c-1.9-6.9,2-14,8.9-16.2c7.1-2.4,11.1-10.2,8.6-17.4c-0.7-2-1.9-3.9-3.4-5.4L66.1,33.3
		c-5.7-5.3-14.3-5.3-20,0l-14,14c-14,14.7,1.5,53.9,36.3,88.6s73.9,51,88.6,36.3l14-14C176.2,152.4,176.1,143.6,170.9,138.1z"/>
	<path d="M170.2,137.8l-20.6-20.6c-5.3-5.4-14-5.5-19.4-0.3l0,0l0,0c-1.6,1.5-2.7,3.4-3.5,5.4c-2.4,6.6-9.3,10.4-16.2,8.9
		c-17.8-6.5-32-20.5-38.3-38.3c-1.9-6.9,2-14,8.9-16.2c7.1-2.4,11.1-10.2,8.6-17.4c-0.7-2-1.9-3.9-3.4-5.4L65.4,33
		c-5.7-5.3-14.3-5.3-20,0l-13.9,14c-14,14.7,1.5,53.9,36.3,88.6s73.9,51,88.6,36.3l14-14C175.6,152.1,175.4,143.4,170.2,137.8z"/>
	<path d="M169.5,137.6l-20.6-20.6c-5.3-5.4-14-5.5-19.4-0.3l0,0l0,0c-1.6,1.5-2.7,3.4-3.5,5.4c-2.4,6.6-9.3,10.4-16.2,8.9
		c-17.8-6.5-31.8-20.5-38.3-38.4c-1.9-6.9,2-14,8.9-16.2c7.1-2.4,11.1-10.2,8.6-17.4c-0.7-2-1.9-3.9-3.4-5.4L64.9,32.8
		c-5.7-5.3-14.3-5.3-20,0l-14,14c-14,14.7,1.5,53.9,36.3,88.6s73.9,51,88.6,36.3l14-14C174.9,151.9,174.9,143.2,169.5,137.6z"/>
	<path d="M169,137.3l-20.6-20.6c-5.3-5.4-14-5.5-19.4-0.3l0,0l0,0c-1.6,1.5-2.7,3.4-3.5,5.4c-2.4,6.6-9.3,10.4-16.2,8.9
		c-17.8-6.5-32-20.5-38.3-38.3c-1.9-6.9,2-14,8.9-16.2c7.1-2.4,11.1-10.2,8.6-17.4c-0.7-2-1.9-3.9-3.4-5.4L64.2,32.5
		c-5.7-5.1-14.3-5.1-20,0l-14,14c-14,14.7,1.5,53.9,36.3,88.6s73.9,51,88.6,36.3l14-14C174.2,151.6,174.2,143,169,137.3z"/>
	<path d="M168.3,137l-20.6-20.6c-5.3-5.4-14-5.5-19.4-0.3l0,0l0,0c-1.6,1.5-2.7,3.4-3.5,5.4c-2.4,6.6-9.3,10.4-16.2,8.9
		c-17.9-6.5-32-20.5-38.4-38.3c-1.9-6.9,2-14,8.9-16.2c7.1-2.4,11.1-10.2,8.6-17.4c-0.7-2-1.9-3.9-3.4-5.4L63.5,32.2
		c-5.7-5.3-14.3-5.3-20,0l-14,14c-14,14.8,1.5,53.9,36.3,88.6s73.9,51,88.6,36.3l14-14C173.6,151.4,173.6,142.7,168.3,137z"/>
	<path d="M167.6,136.9L147,116.1c-5.3-5.4-14-5.5-19.4-0.3l0,0l0,0c-1.6,1.5-2.7,3.4-3.5,5.4c-2.4,6.6-9.3,10.4-16.2,8.9
		c-17.8-6.5-32-20.5-38.3-38.3c-1.9-6.9,2-14,8.9-16.2c7.1-2.4,11.1-10.2,8.6-17.4c-0.7-2-1.9-3.9-3.4-5.4L62.8,32
		c-5.7-5.3-14.3-5.3-20,0l-14,14c-14,14.7,1.5,53.9,36.3,88.6s73.9,51,88.6,36.3l14-14C173,151.2,172.9,142.4,167.6,136.9z"/>
	<path d="M166.9,136.6L146.3,116c-5.3-5.4-14-5.5-19.4-0.3l0,0l0,0c-1.6,1.5-2.7,3.4-3.5,5.4c-2.4,6.6-9.3,10.4-16.2,8.9
		c-17.8-6.5-32-20.5-38.3-38.3c-1.9-6.9,2-14,8.9-16.2c7.1-2.4,11.1-10.2,8.6-17.4c-0.7-2-1.9-3.9-3.4-5.4l-20.9-21
		c-5.7-5.3-14.3-5.3-20,0L28.3,45.9c-14,14.7,1.5,53.9,36.3,88.6s73.9,51,88.6,36.3l14-14C172.3,150.9,172.2,142.1,166.9,136.6z"/>
	<path d="M166.4,136.3l-20.6-20.6c-5.3-5.4-14-5.5-19.4-0.3l0,0l0,0c-1.6,1.5-2.7,3.4-3.5,5.4c-2.4,6.6-9.3,10.4-16.2,8.9
		c-17.8-6.5-32-20.5-38.3-38.3c-1.9-6.9,2-14,8.9-16.2c7.1-2.4,11.1-10.2,8.6-17.4c-0.7-2-1.9-3.9-3.4-5.4L61.6,31.6
		c-5.7-5.3-14.3-5.3-20,0l-14,14c-14,14.7,1.5,53.9,36.3,88.6s73.9,51,88.6,36.3l14-14C171.7,150.6,171.7,141.9,166.4,136.3z"/>
	<path d="M165.7,136.1l-20.6-20.6c-5.3-5.4-14-5.5-19.4-0.3l0,0l0,0c-1.6,1.5-2.7,3.4-3.5,5.4c-2.4,6.6-9.3,10.4-16.2,8.9
		C88.2,123,74,109,67.7,91.2c-1.9-6.9,2-14,8.9-16.2c7.1-2.4,11.1-10.2,8.6-17.4c-0.7-2-1.9-3.9-3.4-5.4L60.9,31.3
		c-5.7-5.3-14.3-5.3-20,0l-14,14c-14,14.7,1.5,53.9,36.3,88.6s73.9,51,88.6,36.3l14-14C171,150.4,171,141.7,165.7,136.1z"/>
	<path d="M165.1,135.8l-20.6-20.6c-5.3-5.4-14-5.5-19.4-0.3l0,0l0,0c-1.6,1.5-2.7,3.4-3.5,5.4c-2.4,6.6-9.3,10.4-16.2,8.9
		c-17.8-6.5-32-20.5-38.3-38.3c-1.9-6.9,2-14,8.9-16.2c7.1-2.4,11.1-10.2,8.6-17.4c-0.7-2-1.9-3.9-3.4-5.4L60.3,31
		c-5.7-5.3-14.3-5.3-20,0l-14,14c-14,14.7,1.5,53.9,36.3,88.6s73.9,51,88.6,36.3l14-14C170.5,150.1,170.3,141.5,165.1,135.8z"/>
	<path d="M164.4,135.5l-20.6-20.6c-5.3-5.4-14-5.5-19.4-0.3l0,0l0,0c-1.6,1.5-2.7,3.4-3.5,5.4c-2.4,6.6-9.3,10.4-16.2,8.9
		c-17.8-6.5-32-20.5-38.3-38.3c-1.9-6.9,2-14,8.9-16.2C82.4,72,86.3,64.2,83.9,57c-0.7-2-1.9-3.9-3.4-5.4L59.6,30.8
		c-5.7-5.3-14.3-5.3-20,0l-13.9,14c-14,14.7,1.5,53.9,36.3,88.6s73.9,51,88.6,36.3l14-14C169.8,150,169.6,141.2,164.4,135.5z"/>
	<path d="M163.7,135.3l-20.6-20.6c-5.3-5.4-14-5.5-19.4-0.3l0,0l0,0c-1.6,1.5-2.7,3.4-3.5,5.4c-2.4,6.6-9.3,10.4-16.2,8.9
		c-17.8-6.5-32-20.5-38.3-38.3c-1.9-6.9,2-14,8.9-16.2c7.1-2.4,11.1-10.2,8.6-17.4c-0.7-2-1.9-3.9-3.4-5.4L58.9,30.5
		c-5.7-5.3-14.3-5.3-20,0l-13.9,14c-14,14.7,1.5,53.9,36.3,88.6s73.9,51,88.6,36.3l14-14C169.1,149.7,169.1,140.9,163.7,135.3z"/>
	<path d="M163.2,135.1l-20.6-20.6c-5.3-5.4-14-5.5-19.4-0.3l0,0l0,0c-1.6,1.5-2.7,3.4-3.5,5.4c-2.4,6.6-9.3,10.4-16.2,8.9
		c-17.8-6.5-32-20.5-38.3-38.3c-1.9-6.9,2-14,8.9-16.2c7.1-2.4,11.1-10.2,8.6-17.4c-0.7-2-1.9-3.9-3.4-5.4l-20.9-21
		c-5.7-5.3-14.3-5.3-20,0l-14,14c-14,14.7,1.5,53.9,36.3,88.6s73.9,51,88.6,36.3l14-14C168.4,149.4,168.4,140.7,163.2,135.1z"/>
	<path d="M162.5,134.9l-20.6-20.6c-5.3-5.4-14-5.5-19.4-0.3l0,0l0,0c-1.6,1.5-2.7,3.4-3.5,5.4c-2.4,6.6-9.3,10.4-16.2,8.9
		c-17.8-6.5-32-20.5-38.3-38.3c-1.9-6.9,2-14,8.9-16.2c7.1-2.4,11.1-10.2,8.6-17.4c-0.7-2-1.9-3.9-3.4-5.4L57.7,30.1
		c-5.7-5.3-14.3-5.3-20,0l-14,14C9.7,58.8,25.2,98,60,132.7s73.9,51,88.6,36.3l14-14C167.8,149.2,167.8,140.4,162.5,134.9z"/>
	<path d="M161.8,134.6L141.2,114c-5.3-5.4-14-5.5-19.4-0.3l0,0l0,0c-1.6,1.5-2.7,3.4-3.5,5.4c-2.4,6.6-9.3,10.4-16.2,8.9
		c-17.8-6.5-32-20.5-38.3-38.3c-1.9-6.9,2-14,8.9-16.2c7.1-2.4,11.1-10.2,8.6-17.4c-0.7-2-1.9-3.9-3.4-5.4L57,29.8
		c-5.7-5.3-14.3-5.3-20,0l-14,14c-14,14.7,1.5,53.9,36.3,88.6s73.9,51,88.6,36.3l14-14C167.2,148.9,167.1,140.1,161.8,134.6z"/>
	<path d="M161.1,134.3l-20.6-20.6c-5.3-5.4-14-5.5-19.4-0.3l0,0l0,0c-1.6,1.5-2.7,3.4-3.5,5.4c-2.4,6.6-9.3,10.4-16.2,8.9
		c-17.8-6.5-32-20.5-38.3-38.3c-1.9-6.9,2-14,8.9-16.2c7.1-2.4,11.1-10.2,8.6-17.4c-0.7-2-1.9-3.9-3.4-5.4L56.4,29.5
		c-5.7-5.3-14.3-5.3-20,0l-13.9,14c-14,14.7,1.5,53.9,36.3,88.6s73.9,51,88.6,36.3l14-14C166.5,148.6,166.4,140,161.1,134.3z"/>
	<path d="M160.5,134l-20.6-20.6c-5.3-5.4-14-5.5-19.4-0.3l0,0l0,0c-1.6,1.5-2.7,3.4-3.5,5.4c-2.4,6.6-9.3,10.4-16.2,8.9
		c-17.8-6.5-32-20.5-38.3-38.3c-1.9-6.9,2-14,8.9-16.2c7.1-2.4,11.1-10.2,8.6-17.4c-0.7-2-1.9-3.9-3.4-5.4L55.8,29.3
		c-5.7-5.3-14.3-5.3-20,0l-14,14c-14,14.7,1.5,53.9,36.3,88.6s73.9,51,88.6,36.3l14-14C165.9,148.3,165.9,139.7,160.5,134z"/>
	<path d="M159.9,133.8l-20.6-20.6c-5.3-5.4-14-5.5-19.4-0.3l0,0l0,0c-1.6,1.5-2.7,3.4-3.5,5.4c-2.4,6.6-9.3,10.4-16.2,8.9
		c-17.8-6.5-32-20.5-38.3-38.3c-1.9-6.9,2-14,8.9-16.2c7.1-2.4,11.1-10.2,8.6-17.4c-0.7-2-1.9-3.9-3.4-5.4L55.1,29
		c-5.7-5.3-14.3-5.3-20,0l-14,14c-14,14.7,1.5,53.9,36.3,88.6s73.9,51,88.6,36.3l14-14C165.2,148.2,165.2,139.4,159.9,133.8z"/>
	<path d="M159.3,133.5l-20.6-20.6c-5.3-5.4-14-5.5-19.4-0.3l0,0l0,0c-1.6,1.5-2.7,3.4-3.5,5.4c-2.4,6.6-9.3,10.4-16.2,8.9
		c-17.8-6.5-32-20.5-38.3-38.3c-1.9-6.9,2-14,8.9-16.2C77.3,70,81.2,62.2,78.7,55c-0.7-2-1.9-3.9-3.4-5.4L54.5,28.7
		c-5.7-5.3-14.3-5.3-20,0l-14,14c-14,14.7,1.5,53.9,36.3,88.6s73.9,51,88.6,36.3l14-14C164.5,147.9,164.5,139.2,159.3,133.5z"/>
	<path d="M158.6,133.4L138,112.7c-5.3-5.4-14-5.5-19.4-0.3l0,0l0,0c-1.6,1.5-2.7,3.4-3.5,5.4c-2.4,6.6-9.3,10.4-16.2,8.9
		c-17.8-6.5-32-20.5-38.3-38.3c-1.9-6.9,2-14,8.9-16.2c7.1-2.4,11.1-10.2,8.6-17.4c-0.7-2-1.9-3.9-3.4-5.4l-20.9-21
		c-5.7-5.3-14.3-5.3-20,0L20,42.5c-14,14.7,1.5,53.9,36.3,88.6s73.9,51,88.6,36.3l14-14C164,147.7,163.8,138.9,158.6,133.4z"/>
	<path d="M157.9,133.1l-20.6-20.8c-5.3-5.4-14-5.5-19.4-0.3l0,0l0,0c-1.6,1.5-2.7,3.4-3.5,5.4c-2.4,6.6-9.3,10.4-16.2,8.9
		c-17.8-6.5-32-20.5-38.3-38.3c-1.9-6.9,2-14,8.9-16.2c7.1-2.4,11.1-10.2,8.6-17.4c-0.7-2-1.9-3.9-3.4-5.4L53.1,28.3
		c-5.7-5.3-14.3-5.3-20,0l-13.9,14c-14,14.7,1.5,53.8,36.1,88.6s73.9,51,88.6,36.3l14-14C163.3,147.4,163.2,138.6,157.9,133.1z"/>
	<path d="M157.4,132.8l-20.6-20.6c-5.3-5.4-14-5.5-19.4-0.3l0,0l0,0c-1.6,1.5-2.7,3.4-3.5,5.4c-2.4,6.6-9.3,10.4-16.2,8.9
		c-17.8-6.5-32-20.5-38.3-38.3c-1.9-6.9,2-14,8.9-16.2c7.1-2.4,11.1-10.2,8.6-17.4c-0.7-2-1.9-3.9-3.4-5.4L52.6,28.1
		c-5.7-5.3-14.3-5.3-20,0l-14,14c-14,14.7,1.5,53.9,36.3,88.6s73.9,51,88.6,36.3l14-14C162.6,147.1,162.6,138.4,157.4,132.8z"/>
	<path d="M156.7,132.6l-20.6-20.6c-5.3-5.4-14-5.5-19.4-0.3l0,0l0,0c-1.6,1.5-2.7,3.4-3.5,5.4c-2.4,6.6-9.3,10.4-16.2,8.9
		c-17.8-6.5-32-20.5-38.3-38.3c-1.9-6.9,2-14,8.9-16.2c7.1-2.4,11.1-10.2,8.6-17.4c-0.7-2-1.9-3.9-3.4-5.4L51.9,27.8
		c-5.7-5.3-14.3-5.3-20,0l-14,14c-14,14.7,1.5,53.9,36.3,88.6s73.9,51,88.6,36.3l14-14C162,146.9,162,138.2,156.7,132.6z"/>
	<path d="M156,132.3l-20.6-20.6c-5.3-5.4-14-5.5-19.4-0.3l0,0l0,0c-1.6,1.5-2.7,3.4-3.5,5.4c-2.4,6.6-9.3,10.4-16.2,8.9
		c-17.8-6.5-32-20.5-38.3-38.3c-1.9-6.9,2-14,8.9-16.2C74,68.8,77.9,61,75.5,53.8c-0.7-2-1.9-3.9-3.4-5.4L51.2,27.5
		c-5.7-5.3-14.3-5.3-20,0l-14,14c-14,14.7,1.5,53.9,36.3,88.6s73.9,51,88.6,36.3l14-14C161.4,146.6,161.3,138,156,132.3z"/>
	<path d="M155.3,132l-20.6-20.6c-5.3-5.4-14-5.5-19.4-0.3l0,0l0,0c-1.6,1.5-2.7,3.4-3.5,5.4c-2.4,6.6-9.3,10.4-16.2,8.9
		c-17.8-6.5-32-20.5-38.3-38.3c-1.9-6.9,2-14,8.9-16.2c7.1-2.4,11.1-10.2,8.6-17.4c-0.7-2-1.9-3.9-3.4-5.4L50.6,27.2
		c-5.7-5.3-14.3-5.3-20,0l-13.9,14c-14,14.8,1.3,53.9,36.1,88.6s73.9,51,88.6,36.3l14-14C160.7,146.5,160.6,137.7,155.3,132z"/>
	<path d="M154.7,131.8L134,111.1c-5.3-5.4-14-5.5-19.4-0.3l0,0l0,0c-1.6,1.5-2.7,3.4-3.5,5.4c-2.4,6.6-9.3,10.4-16.2,8.9
		c-17.8-6.5-32-20.5-38.3-38.3c-1.9-6.9,2-14,8.9-16.2c7.1-2.4,11.1-10.2,8.6-17.4c-0.7-2-1.9-3.9-3.4-5.4L50,27
		c-5.7-5.3-14.3-5.3-20,0L16,41c-14,14.7,1.5,53.9,36.3,88.6s73.9,51,88.6,36.3l14-14C160.1,146.2,160.1,137.4,154.7,131.8z"/>
	<g id="Layer_2_4_">
		<g id="Calque_1_3_">
			<path id="Path_5983_3_" d="M154.1,131.6l-20.6-20.8c-5.3-5.4-14-5.5-19.4-0.3l0,0l0,0c-1.6,1.5-2.7,3.4-3.5,5.4
				c-2.4,6.6-9.3,10.4-16.2,8.9c-17.8-6.5-32-20.5-38.3-38.3c-1.9-6.9,2-14,8.9-16.2C72.1,68,76.1,60.1,73.6,53
				c-0.7-2-1.9-3.9-3.4-5.4L49.4,26.7c-5.7-5.3-14.3-5.3-20,0l-14,14.2c-14,14.7,1.5,53.9,36.3,88.6s73.9,51,88.6,36.3l14-14
				C159.4,145.9,159.4,137.2,154.1,131.6z"/>
		</g>
	</g>
</g>
<g id="Layer_2_2_">
	<g id="Calque_1_1_">
		<g id="Path_5983_1_">
			<path class="st0" d="M125,170.3c-19.1,0-47.7-16.3-73-41.4C18.2,95.2,2,55.8,15.9,41.3l14-14c2.6-2.4,5.9-3.6,9.4-3.6
				c3.5,0,6.9,1.3,9.6,3.8L69.6,48c1.5,1.5,2.6,3.2,3.2,5.3c2.3,6.9-1.3,14.3-8.2,16.6c-7.1,2.3-11.2,9.8-9.3,17
				c6.6,18.2,20.6,32.2,38.8,38.8c1.1,0.3,2.2,0.4,3.2,0.4c6.2,0,11.7-3.9,13.8-9.6c0.7-1.9,1.8-3.6,3.2-5.1l0.1-0.1
				c2.4-2.4,5.7-3.6,9-3.6c3.5,0,6.9,1.3,9.4,3.9l20.6,20.6c5,5.3,5,13.6,0.1,19l-14,14C136.2,168.6,131.3,170.3,125,170.3
				L125,170.3z"/>
			<path d="M39.4,24.3c3.4,0,6.6,1.2,9,3.5L69,48.4c1.3,1.3,2.4,3.1,3.1,4.9c2.2,6.5-1.3,13.5-7.8,15.8c-7.6,2.4-11.7,10.2-9.7,17.8
				l0,0l0,0c6.6,18.3,20.9,32.5,39.1,39.1h0.1H94c1.1,0.3,2.2,0.4,3.4,0.4c6.5,0,12.3-4,14.4-10.1c0.7-1.9,1.8-3.5,3.1-4.9
				c2.3-2.3,5.4-3.5,8.6-3.5c3.4,0,6.6,1.3,8.9,3.8l20.6,20.6c4.7,5.1,4.9,13.1,0.1,18.1l-14,14c-3.4,3.4-8.1,5-14.3,5
				c-18.9,0-47.3-16.2-72.4-41.3C19,94.9,2.7,56,16.3,41.8l13.9-14C32.8,25.5,36,24.3,39.4,24.3 M39.4,22.9c-3.6,0-7.1,1.3-10,3.9
				l-14,14c-14,14.7,1.5,53.9,36.3,88.6c26,26,54.6,41.7,73.4,41.7c6.3,0,11.5-1.8,15.2-5.4l14-14c5.3-5.7,5.1-14.4-0.1-20
				l-20.6-20.9c-2.7-2.8-6.3-4.2-9.8-4.2c-3.5,0-6.9,1.3-9.6,3.9l0,0c-1.6,1.5-2.7,3.4-3.5,5.4c-2,5.7-7.4,9.2-13.2,9.2
				c-0.9,0-2-0.1-3.1-0.3c-17.8-6.5-32-20.5-38.3-38.3c-1.9-6.9,2-14,8.9-16.2C72,68,75.9,60.1,73.5,53c-0.7-2-1.9-3.9-3.4-5.4
				L49.4,26.7C46.5,24.1,42.9,22.9,39.4,22.9L39.4,22.9z"/>
		</g>
	</g>
</g>
</svg>
