<?xml version="1.0" encoding="utf-8"?>
<!-- Generator: Adobe Illustrator 26.2.1, SVG Export Plug-In . SVG Version: 6.00 Build 0)  -->
<svg version="1.1" id="Layer_1" xmlns="http://www.w3.org/2000/svg" xmlns:xlink="http://www.w3.org/1999/xlink" x="0px" y="0px"
	 viewBox="0 0 289 197.2" style="enable-background:new 0 0 289 197.2;" xml:space="preserve">
<style type="text/css">
	.st0{fill:#00D959;}
</style>
<g>
	<g id="Layer_2_5_">
		<g id="Calque_1_4_">
			<path id="Path_5983_4_" d="M219.3,146.5L195,122.2c-6.3-6.4-16.5-6.5-22.9-0.4l0,0l0,0c-1.9,1.8-3.2,4-4.1,6.4
				c-2.8,7.8-11,12.3-19.1,10.5c-21-7.7-37.8-24.2-45.2-45.2c-2.2-8.1,2.4-16.5,10.5-19.1c8.4-2.8,13.1-12,10.1-20.5
				c-0.8-2.4-2.2-4.6-4-6.4L95.7,22.8c-6.7-6.3-16.9-6.3-23.6,0L55.6,39.3c-16.5,17.3,1.8,63.6,42.8,104.5S185.6,204,203,186.7
				l16.5-16.5C225.5,163.3,225.5,153.2,219.3,146.5z"/>
		</g>
	</g>
	<path d="M218.6,146.1l-24.3-24.3c-6.3-6.4-16.5-6.5-22.9-0.4l0,0l0,0c-1.9,1.8-3.2,4-4.1,6.4c-2.8,7.8-11,12.3-19.1,10.5
		c-21-7.7-37.8-24.2-45.2-45.2c-2.2-8.1,2.4-16.5,10.5-19.1c8.4-2.8,13.1-12,10.1-20.5c-0.8-2.4-2.2-4.6-4-6.4L94.9,22.4
		c-6.7-6.3-16.9-6.3-23.6,0L54.8,39c-16.5,17.3,1.8,63.6,42.8,104.5s87.2,60.2,104.5,42.8l16.5-16.5
		C224.7,163,224.7,152.8,218.6,146.1z"/>
	<path d="M217.7,145.9l-24.3-24.3c-6.3-6.4-16.5-6.5-22.9-0.4l0,0l0,0c-1.9,1.8-3.2,4-4.1,6.4c-2.8,7.8-11,12.3-19.1,10.5
		c-21-7.7-37.8-24.2-45.2-45.2c-2.2-8.1,2.4-16.5,10.5-19.1c8.4-2.8,13.1-12,10.1-20.5c-0.8-2.4-2.2-4.6-4-6.4L94.1,22.2
		c-6.7-6.3-16.9-6.3-23.6,0L53.9,38.7c-16.5,17.3,1.8,63.6,42.8,104.5s87.2,60.2,104.5,42.8l16.5-16.5
		C224.1,162.9,223.9,152.5,217.7,145.9z"/>
	<path d="M216.9,145.6l-24.3-24.3c-6.3-6.4-16.5-6.5-22.9-0.4l0,0l0,0c-1.9,1.8-3.2,4-4.1,6.4c-2.8,7.8-11,12.3-19.1,10.5
		c-21-7.7-37.8-24.2-45.2-45.2c-2.2-8.1,2.4-16.5,10.5-19.1c8.4-2.8,13.1-12,10.1-20.5c-0.8-2.4-2.2-4.6-4-6.4L93.2,21.9
		c-6.7-6.3-16.9-6.3-23.6,0L53.2,38.4C36.7,55.7,55,102,96.1,142.9s87.2,60.2,104.5,42.8l16.5-16.5
		C223.3,162.5,223.2,152.2,216.9,145.6z"/>
	<path d="M216.1,145.4l-24.3-24.3c-6.3-6.4-16.5-6.5-22.9-0.4l0,0l0,0c-1.9,1.8-3.2,4-4.1,6.4c-2.8,7.8-11,12.3-19.1,10.5
		c-21-7.7-37.8-24.2-45.2-45.2c-2.2-8.1,2.4-16.5,10.5-19.1c8.4-2.8,13.1-12,10.1-20.5c-0.8-2.4-2.2-4.6-4-6.4L92.5,21.6
		c-6.7-6.3-16.9-6.3-23.6,0L52.4,38.4C35.9,55.7,54.2,102,95.2,142.9s87.2,60.2,104.5,42.8l16.5-16.5
		C222.5,162.2,222.5,151.9,216.1,145.4z"/>
	<path d="M215.5,145l-24.3-24.5c-6.3-6.4-16.5-6.5-22.9-0.4l0,0l0,0c-1.9,1.8-3.2,4-4.1,6.4c-2.8,7.8-11,12.3-19.1,10.5
		c-21-7.7-37.8-24.2-45.2-45.2c-2.2-8.1,2.4-16.5,10.5-19.1c8.4-2.8,13.1-12,10.1-20.5c-0.8-2.4-2.2-4.6-4-6.4L91.8,21.4
		c-6.7-6.3-16.9-6.3-23.6,0L51.7,37.9c-16.5,17.3,1.8,63.6,42.8,104.5s87.1,59.9,104.5,42.6l16.5-16.5
		C221.7,161.9,221.7,151.5,215.5,145z"/>
	<path d="M214.7,144.7l-24.3-24.3c-6.3-6.4-16.5-6.5-22.9-0.4l0,0l0,0c-1.9,1.8-3.2,4-4.1,6.4c-2.8,7.8-11,12.3-19.1,10.5
		c-21-7.7-37.8-24.2-45.2-45.2c-2.2-8.1,2.4-16.5,10.5-19.1c8.4-2.8,13.1-12,10.1-20.5c-0.8-2.4-2.2-4.6-4-6.4L91,21
		c-6.7-6.3-16.9-6.3-23.6,0L50.9,37.5c-16.5,17.3,1.8,63.6,42.8,104.5s87.2,60.2,104.5,42.8l16.5-16.5
		C220.9,161.6,220.9,151.4,214.7,144.7z"/>
	<path d="M214,144.3L189.6,120c-6.3-6.4-16.5-6.5-22.9-0.4l0,0l0,0c-1.9,1.8-3.2,4-4.1,6.4c-2.8,7.8-11,12.3-19.1,10.5
		c-21-7.7-37.8-24.2-45.2-45.2c-2.2-8.1,2.4-16.5,10.5-19.1c8.4-2.8,13.1-12,10.1-20.5c-0.8-2.4-2.2-4.6-4-6.4L90.3,20.8
		c-6.7-6.3-16.9-6.3-23.6,0L50.3,37.3c-16.5,17.3,1.8,63.6,42.8,104.5s87.2,60.2,104.5,42.8l16.5-16.5
		C220.2,161.2,220.1,151.1,214,144.3z"/>
	<path d="M213.1,144.1l-24.3-24.3c-6.3-6.4-16.5-6.5-22.9-0.4l0,0l0,0c-1.9,1.8-3.2,4-4.1,6.4c-2.8,7.8-11,12.3-19.1,10.5
		c-21-7.7-37.8-24.2-45.2-45.2C95.2,83,99.8,74.6,108,72c8.4-2.8,13.1-12,10.1-20.5c-0.8-2.4-2.2-4.6-4-6.4L89.5,20.4
		c-6.7-6.3-16.9-6.3-23.6,0L49.5,37c-16.5,17.3,1.8,63.6,42.8,104.5s87.2,60.2,104.5,42.8l16.5-16.5
		C219.5,161.1,219.3,150.7,213.1,144.1z"/>
	<path d="M212.4,143.7l-24.3-24.3c-6.3-6.4-16.5-6.5-22.9-0.4l0,0l0,0c-1.9,1.8-3.2,4-4.1,6.4c-2.8,7.8-11,12.3-19.1,10.5
		c-21-7.7-37.8-24.2-45.2-45.2c-2.2-8.1,2.4-16.5,10.5-19.1c8.4-2.8,13.1-12,10.1-20.5c-0.8-2.4-2.2-4.6-4-6.4L88.9,20.1
		c-6.7-6.3-16.9-6.3-23.6,0L48.8,36.6c-16.5,17.3,1.8,63.6,42.8,104.5s87.2,60.2,104.5,42.8l16.5-16.5
		C218.7,160.7,218.7,150.5,212.4,143.7z"/>
	<path d="M211.7,143.6l-24.3-24.3c-6.3-6.4-16.5-6.5-22.9-0.4l0,0l0,0c-1.9,1.8-3.2,4-4.1,6.4c-2.8,7.8-11,12.3-19.1,10.5
		c-21-7.7-37.8-24.2-45.2-45.2c-2.2-8.1,2.4-16.5,10.5-19.1c8.4-2.8,13.1-12,10.1-20.5c-0.8-2.4-2.2-4.6-4-6.4L88,19.8
		c-6.7-6.3-16.9-6.3-23.6,0L47.9,36.4C31.4,53.7,49.7,100,90.8,140.9s87.2,60.2,104.5,42.8l16.5-16.5
		C217.8,160.5,217.8,150.1,211.7,143.6z"/>
	<path d="M210.9,143.3L186.6,119c-6.3-6.4-16.5-6.5-22.9-0.4l0,0l0,0c-1.9,1.8-3.2,4-4.1,6.4c-2.8,7.8-11,12.3-19.1,10.5
		c-21-7.7-37.8-24.2-45.2-45.2c-2.2-8.1,2.4-16.5,10.5-19.1c8.4-2.8,13.1-12,10.1-20.5c-0.8-2.4-2.2-4.6-4-6.4L87.2,19.6
		c-6.7-6.3-16.9-6.3-23.6,0L47.1,36.1c-16.5,17.3,1.8,63.6,42.8,104.5s87.2,60.2,104.5,42.8L211,167
		C217.3,160.1,217.1,149.8,210.9,143.3z"/>
	<path d="M210.1,142.9l-24.3-24.3c-6.3-6.4-16.5-6.5-22.9-0.4l0,0l0,0c-1.9,1.8-3.2,4-4.1,6.4c-2.8,7.8-11,12.3-19.1,10.5
		c-21-7.7-37.8-24.2-45.2-45.2c-2.2-8.1,2.4-16.5,10.5-19.1c8.4-2.8,13.1-12,10.1-20.5c-0.8-2.4-2.2-4.6-4-6.4L86.4,19.3
		c-6.7-6.3-16.9-6.3-23.6,0L46.4,35.8c-16.5,17.3,1.8,63.6,42.8,104.5s87.2,60.2,104.5,42.8l16.5-16.5
		C216.4,159.8,216.3,149.5,210.1,142.9z"/>
	<path d="M209.2,142.7l-24.3-24.3c-6.3-6.4-16.5-6.5-22.9-0.4l0,0l0,0c-1.9,1.8-3.2,4-4.1,6.4c-2.8,7.8-11,12.3-19.1,10.5
		c-21-7.7-37.8-24.2-45.2-45.2c-2.2-8.1,2.4-16.5,10.5-19.1c8.4-2.8,13.1-12,10.1-20.5c-0.8-2.4-2.2-4.6-4-6.4L85.8,19
		c-6.7-6.3-16.9-6.3-23.6,0L45.7,35.5c-16.5,17.3,1.8,63.6,42.8,104.5s87.2,60.2,104.5,42.8l16.5-16.5
		C215.6,159.6,215.6,149.3,209.2,142.7z"/>
	<path d="M208.6,142.3L184.3,118c-6.3-6.4-16.5-6.5-22.9-0.4l0,0l0,0c-1.9,1.8-3.2,4-4.1,6.4c-2.8,7.8-11,12.3-19.1,10.5
		c-21-7.7-37.8-24.2-45.2-45.2c-2.2-8.1,2.4-16.5,10.5-19.1c8.4-2.8,13.1-12,10.1-20.5c-0.8-2.4-2.2-4.6-4-6.4L85,18.7
		c-6.7-6.3-16.9-6.3-23.6,0L44.9,35.2c-16.5,17.3,1.8,63.6,42.8,104.5s87.2,60.2,104.5,42.8l16.5-16.5
		C214.9,159.2,214.9,149.1,208.6,142.3z"/>
	<path d="M207.8,142l-24.3-24.3c-6.3-6.4-16.5-6.5-22.9-0.4l0,0l0,0c-1.9,1.8-3.2,4-4.1,6.4c-2.8,7.8-11,12.3-19.1,10.5
		c-21-7.7-37.8-24.2-45.2-45.2c-2.2-8.1,2.4-16.5,10.5-19.1c8.4-2.8,13-12,10.1-20.5c-0.8-2.4-2.2-4.6-4-6.4L84.2,18.3
		c-6.7-6.3-16.9-6.3-23.6,0L44,34.8c-16.5,17.3,1.8,63.6,42.8,104.5s87.2,60.2,104.5,42.8l16.5-16.5
		C214.1,159.1,214.1,148.7,207.8,142z"/>
	<path d="M207.1,141.7l-24.4-24.4c-6.3-6.4-16.5-6.5-22.9-0.4l0,0l0,0c-1.9,1.8-3.2,4-4.1,6.4c-2.8,7.8-11,12.3-19.1,10.5
		c-21-7.7-37.8-24.2-45.3-45.2c-2.2-8.1,2.4-16.5,10.5-19.1c8.4-2.8,13.1-12,10.1-20.5c-0.8-2.4-2.2-4.6-4-6.4L83.4,18.1
		c-6.7-6.3-16.9-6.3-23.6,0L43.3,34.6c-16.5,17.3,1.8,63.6,42.8,104.5s87.2,60.2,104.5,42.8l16.5-16.5
		C213.4,158.7,213.2,148.3,207.1,141.7z"/>
	<path d="M206.3,141.5L182,117.2c-6.3-6.4-16.5-6.5-22.9-0.4l0,0l0,0c-1.9,1.8-3.2,4-4.1,6.4c-2.8,7.8-11,12.3-19.1,10.5
		c-21-7.7-37.8-24.2-45.2-45.2C88.4,80.4,93,72,101.1,69.4c8.4-2.8,13.1-12,10.1-20.5c-0.8-2.4-2.2-4.6-4-6.4L82.6,17.7
		c-6.5-6-16.9-6-23.6,0L42.6,34.2c-16.5,17.3,1.8,63.6,42.8,104.5S172.7,199,190,181.6l16.5-16.5C212.7,158.4,212.4,148,206.3,141.5
		z"/>
	<path d="M205.6,141.1l-24.3-24.5c-6.3-6.4-16.5-6.5-22.9-0.4l0,0l0,0c-1.9,1.8-3.2,4-4.1,6.4c-2.8,7.8-11,12.3-19.1,10.5
		c-21-7.7-37.8-24.2-45.2-45.2c-2.2-8.1,2.4-16.5,10.5-19.1c8.4-2.8,13.1-12,10.1-20.5c-0.8-2.4-2.2-4.6-4-6.4L82,17.6
		c-6.7-6.3-16.9-6.3-23.6,0L41.9,34.1c-16.5,17.3,1.8,63.5,42.6,104.5s87.2,60.2,104.5,42.8l16.5-16.5
		C211.8,158,211.8,147.8,205.6,141.1z"/>
	<path d="M204.9,140.9l-24.3-24.3c-6.3-6.4-16.5-6.5-22.9-0.4l0,0l0,0c-1.9,1.8-3.2,4-4.1,6.4c-2.8,7.8-11,12.3-19.1,10.5
		c-21-7.7-37.8-24.2-45.2-45.2c-2.2-8.1,2.4-16.5,10.5-19.1c8.4-2.8,13.1-12,10.1-20.5c-0.8-2.4-2.2-4.6-4-6.4L81.2,17.2
		c-6.7-6.3-16.9-6.3-23.6,0L41.1,33.8c-16.5,17.3,1.8,63.6,42.8,104.5s87.2,60.2,104.5,42.8l16.5-16.5
		C211,157.8,211,147.4,204.9,140.9z"/>
	<path d="M204,140.6l-24.3-24.3c-6.3-6.4-16.5-6.5-22.9-0.4l0,0l0,0c-1.9,1.8-3.2,4-4.1,6.4c-2.8,7.8-11,12.3-19.1,10.5
		c-21-7.7-37.8-24.2-45.2-45.2c-2.2-8.1,2.4-16.5,10.5-19.1c8.4-2.8,13-12,10.1-20.5c-0.8-2.4-2.2-4.6-4-6.4L80.4,16.9
		c-6.7-6.3-16.9-6.3-23.6,0L40.3,33.4C23.7,50.8,42,97,83.1,138s87.2,60.2,104.5,42.8l16.5-16.5C210.4,157.4,210.3,147.3,204,140.6z
		"/>
	<path d="M203.2,140.2l-24.3-24.3c-6.3-6.4-16.5-6.5-22.9-0.4l0,0l0,0c-1.9,1.8-3.2,4-4.1,6.4c-2.8,7.8-11,12.3-19.1,10.5
		c-21-7.7-37.8-24.2-45.2-45.2c-2.2-8.1,2.4-16.5,10.5-19.1c8.4-2.8,13.1-12,10.1-20.5c-0.8-2.4-2.2-4.6-4-6.4L79.6,16.7
		c-6.7-6.3-16.9-6.3-23.6,0L39.6,33.2C23,50.5,41.3,96.8,82.4,137.7s87.2,60.2,104.5,42.8l16.5-16.5
		C209.6,157.1,209.5,146.9,203.2,140.2z"/>
	<path d="M202.4,140l-24.3-24.3c-6.3-6.4-16.5-6.5-22.9-0.4l0,0l0,0c-1.9,1.8-3.2,4-4.1,6.4c-2.8,7.8-11,12.3-19.1,10.5
		c-21-7.7-37.8-24.2-45.2-45.2c-2.2-8.1,2.4-16.5,10.5-19.1c8.4-2.8,13.1-12,10.1-20.5c-0.8-2.4-2.2-4.6-4-6.4L78.8,16.3
		c-6.7-6.3-16.9-6.3-23.6,0L38.8,32.8c-16.5,17.3,1.8,63.6,42.8,104.5s87.2,60.2,104.5,42.8l16.5-16.5
		C208.8,157,208.6,146.6,202.4,140z"/>
	<path d="M201.8,139.6l-24.3-24.3c-6.3-6.4-16.5-6.5-22.9-0.4l0,0l0,0c-1.9,1.8-3.2,4-4.1,6.4c-2.8,7.8-11,12.3-19.1,10.5
		c-21-7.7-37.8-24.2-45.2-45.2c-2.2-8.1,2.4-16.5,10.5-19.1c8.4-2.8,13-12,10.1-20.5c-0.8-2.4-2.2-4.6-4-6.4L78.1,16
		c-6.7-6.3-16.9-6.3-23.6,0L38,32.5C21.5,49.8,39.8,96.1,80.9,137s87.2,60.2,104.5,42.8l16.5-16.5
		C208.1,156.6,208.1,146.3,201.8,139.6z"/>
	<path d="M201,139.5l-24.3-24.3c-6.3-6.4-16.5-6.5-22.9-0.4l0,0l0,0c-1.9,1.8-3.2,4-4.1,6.4c-2.8,7.8-11,12.3-19.1,10.5
		c-21-7.7-37.8-24.2-45.2-45.2c-2.2-8.1,2.4-16.5,10.5-19.1c8.4-2.9,13-12.2,10.1-20.5c-0.8-2.4-2.2-4.6-4-6.4L77.3,15.7
		c-6.7-6.3-16.9-6.3-23.6,0L37.2,32.5C20.7,49.8,39,96.1,80,137s87.2,60.2,104.5,42.8l16.5-16.5C207.2,156.4,207.2,146,201,139.5z"
		/>
	<path d="M200.3,139.1L176,114.8c-6.3-6.4-16.5-6.5-22.9-0.4l0,0l0,0c-1.9,1.8-3.2,4-4.1,6.4c-2.8,7.8-11,12.3-19.1,10.5
		c-21-7.7-37.8-24.2-45.2-45.2C82.4,78,87,69.6,95.1,67c8.4-2.8,13.1-12,10.1-20.5c-0.8-2.4-2.2-4.6-4-6.4L76.6,15.5
		c-6.7-6.3-16.9-6.3-23.6,0L36.5,32C20,49.3,38.3,95.6,79.3,136.5s87.2,60.2,104.5,42.8l16.5-16.5
		C206.5,156,206.4,145.6,200.3,139.1z"/>
	<path d="M199.4,138.8l-24.3-24.3c-6.3-6.4-16.5-6.5-22.9-0.4l0,0l0,0c-1.9,1.8-3.2,4-4.1,6.4c-2.8,7.8-11,12.3-19.1,10.5
		c-21-7.7-37.8-24.2-45.2-45.2c-2.2-8.1,2.4-16.5,10.5-19.1c8.4-2.8,13.1-12,10.1-20.5c-0.8-2.4-2.2-4.6-4-6.4L75.8,15.1
		c-6.7-6.3-16.9-6.3-23.6,0L35.8,31.6C19.3,49,37.5,95.2,78.6,136.2s87.2,60.2,104.5,42.8l16.5-16.5
		C205.8,155.7,205.6,145.4,199.4,138.8z"/>
	<path d="M198.6,138.6l-24.3-24.3c-6.3-6.4-16.5-6.5-22.9-0.4l0,0l0,0c-1.9,1.8-3.2,4-4.1,6.4c-2.8,7.8-11,12.3-19.1,10.5
		c-21-7.7-37.5-24.2-45.2-45.3c-2.2-8.1,2.4-16.5,10.5-19.1c8.4-2.8,13.1-12,10.1-20.5c-0.8-2.4-2.2-4.6-4-6.4L75.2,14.9
		c-6.7-6.3-16.9-6.3-23.6,0L35.1,31.4C18.5,48.8,36.8,95,77.9,136s87.2,60.2,104.5,42.8l16.5-16.5C205,155.4,205,145.2,198.6,138.6z
		"/>
	<path d="M198,138.2l-24.3-24.3c-6.3-6.4-16.5-6.5-22.9-0.4l0,0l0,0c-1.9,1.8-3.2,4-4.1,6.4c-2.8,7.8-11,12.3-19.1,10.5
		c-21-7.7-37.8-24.2-45.2-45.2c-2.2-8.1,2.4-16.5,10.5-19.1c8.4-2.8,13.1-12,10.1-20.5c-0.8-2.4-2.2-4.6-4-6.4L74.4,14.5
		c-6.7-6-16.9-6-23.6,0L34.2,31.1C17.7,48.4,36,94.7,77.1,135.6s87.2,60.2,104.5,42.8l16.5-16.5C204.2,155.1,204.2,144.9,198,138.2z
		"/>
	<path d="M197.2,137.8l-24.3-24.3c-6.3-6.4-16.5-6.5-22.9-0.4l0,0l0,0c-1.9,1.8-3.2,4-4.1,6.4c-2.8,7.8-11,12.3-19.1,10.5
		c-21.1-7.7-37.8-24.2-45.3-45.2c-2.2-8.1,2.4-16.5,10.5-19.1c8.4-2.8,13.1-12,10.1-20.5c-0.8-2.4-2.2-4.6-4-6.4L73.5,14.2
		c-6.7-6.3-16.9-6.3-23.6,0L33.4,30.7c-16.5,17.5,1.8,63.6,42.8,104.5s87.2,60.2,104.5,42.8l16.5-16.5
		C203.5,154.8,203.5,144.6,197.2,137.8z"/>
	<path d="M196.4,137.7l-24.3-24.5c-6.3-6.4-16.5-6.5-22.9-0.4l0,0l0,0c-1.9,1.8-3.2,4-4.1,6.4c-2.8,7.8-11,12.3-19.1,10.5
		c-21-7.7-37.8-24.2-45.2-45.2c-2.2-8.1,2.4-16.5,10.5-19.1c8.4-2.8,13.1-12,10.1-20.5c-0.8-2.4-2.2-4.6-4-6.4L72.7,13.9
		c-6.7-6.3-16.9-6.3-23.6,0L32.6,30.5C16.1,47.8,34.4,94.1,75.4,135s87.2,60.2,104.5,42.8l16.5-16.5
		C202.7,154.6,202.6,144.2,196.4,137.7z"/>
	<path d="M195.5,137.4l-24.3-24.3c-6.3-6.4-16.5-6.5-22.9-0.4l0,0l0,0c-1.9,1.8-3.2,4-4.1,6.4c-2.8,7.8-11,12.3-19.1,10.5
		c-21-7.7-37.8-24.2-45.2-45.2c-2.2-8.1,2.4-16.5,10.5-19.1c8.4-2.8,13.1-12,10.1-20.5c-0.8-2.4-2.2-4.6-4-6.4L71.9,13.6
		c-6.7-6.3-16.9-6.3-23.6,0L32,30.3c-16.5,17.3,1.8,63.6,42.8,104.5s87.2,60.2,104.5,42.8l16.5-16.5
		C201.9,154.2,201.8,143.9,195.5,137.4z"/>
	<path d="M195,137l-24.3-24.3c-6.3-6.4-16.5-6.5-22.9-0.4l0,0l0,0c-1.9,1.8-3.2,4-4.1,6.4c-2.8,7.8-11,12.3-19.1,10.5
		c-21-7.7-37.8-24.2-45.2-45.2c-2.2-8.1,2.4-16.5,10.5-19.1c8.4-2.8,13.1-12,10.1-20.5c-0.8-2.4-2.2-4.6-4-6.4L71.3,13.5
		c-6.7-6.3-16.9-6.3-23.6,0L31.2,30C14.7,47.3,32.9,93.6,74,134.5s87.2,60.2,104.5,42.8l16.5-16.5C201.2,153.9,201.2,143.6,195,137z
		"/>
	<path d="M194.1,136.8l-24.3-24.3c-6.3-6.4-16.5-6.5-22.9-0.4l0,0l0,0c-1.9,1.8-3.2,4-4.1,6.4c-2.8,7.8-11,12.3-19.1,10.5
		c-21-7.7-37.8-24.2-45.2-45.2c-2.2-8.1,2.4-16.5,10.5-19.1c8.4-2.8,13.1-12,10.1-20.5c-0.8-2.4-2.2-4.6-4-6.4L70.5,13.1
		c-6.7-6.3-16.9-6.3-23.6,0L30.3,29.6C13.8,47,32.1,93.2,73.2,134.2s87.2,60.2,104.5,42.8l16.5-16.5
		C200.4,153.7,200.4,143.4,194.1,136.8z"/>
	<path d="M193.4,136.4l-24.3-24.3c-6.3-6.4-16.5-6.5-22.9-0.4l0,0l0,0c-1.9,1.8-3.2,4-4.1,6.4c-2.8,7.8-11,12.3-19.1,10.5
		c-21-7.7-37.8-24.2-45.2-45.2c-2.2-8.1,2.4-16.5,10.5-19.1c8.4-2.8,13.1-12,10.1-20.5c-0.8-2.4-2.2-4.6-4-6.4L69.8,12.8
		c-6.7-6.3-16.9-6.3-23.6,0L29.6,29.3c-16.5,17.3,1.8,63.6,42.8,104.5S159.7,194,177,176.7l16.5-16.5
		C199.8,153.3,199.6,143.2,193.4,136.4z"/>
	<path d="M192.6,136.1l-24.3-24.3c-6.3-6.4-16.5-6.5-22.9-0.4l0,0l0,0c-1.9,1.8-3.2,4-4.1,6.4c-2.8,7.8-11,12.3-19.1,10.5
		c-21-7.7-37.8-24.2-45.2-45.2C74.7,75,79.3,66.6,87.5,64c8.4-2.8,13-12,10.1-20.5c-0.8-2.4-2.2-4.6-4-6.4L68.9,12.5
		c-6.7-6.3-16.9-6.3-23.6,0L28.9,29c-16.5,17.3,1.8,63.6,42.8,104.5s87.2,60.2,104.5,42.8l16.5-16.5
		C199,153.2,198.7,142.8,192.6,136.1z"/>
	<path d="M191.8,135.8l-24.3-24.3c-6.3-6.4-16.5-6.5-22.9-0.4l0,0l0,0c-1.9,1.8-3.2,4-4.1,6.4c-2.8,7.8-11,12.3-19.1,10.5
		c-21-7.7-37.8-24.2-45.2-45.2c-2.2-8.1,2.4-16.5,10.5-19.1c8.4-2.8,13.1-12,10.1-20.5c-0.8-2.4-2.2-4.6-4-6.4L68.1,12.2
		c-6.7-6.3-16.9-6.3-23.6,0L28.1,28.7C11.6,46,29.9,92.3,70.9,133.2s87.2,60.2,104.5,42.8l16.5-16.5
		C198.1,152.8,198.1,142.4,191.8,135.8z"/>
	<path d="M191.2,135.6l-24.3-24.3c-6.3-6.4-16.5-6.5-22.9-0.4l0,0l0,0c-1.9,1.8-3.2,4-4.1,6.4c-2.8,7.8-11,12.3-19.1,10.5
		c-21-7.7-37.8-24.2-45.2-45.2c-2.2-8.1,2.4-16.5,10.5-19.1c8.4-2.8,13.1-12,10.1-20.5c-0.8-2.4-2.2-4.6-4-6.4L67.5,11.8
		c-6.7-6.3-16.9-6.3-23.6,0L27.4,28.3c-16.5,17.3,1.8,63.6,42.8,104.5s87.2,60.2,104.5,42.8l16.5-16.5
		C197.3,152.5,197.3,142.2,191.2,135.6z"/>
	<path d="M190.4,135.4L166,111.1c-6.3-6.4-16.5-6.5-22.9-0.4l0,0l0,0c-1.9,1.8-3.2,4-4.1,6.4c-2.8,7.8-11,12.3-19.1,10.5
		c-21-7.7-37.8-24.2-45.2-45.2c-2.2-8.1,2.4-16.5,10.5-19.1c8.4-2.8,13.1-12,10.1-20.5c-0.8-2.4-2.2-4.6-4-6.4L66.7,11.7
		c-6.7-6.3-16.9-6.3-23.6,0L26.6,28.2c-16.5,17.3,1.8,63.6,42.8,104.5S156.6,193,174,175.6l16.5-16.5
		C196.6,152.2,196.6,141.9,190.4,135.4z"/>
	<path d="M189.5,135l-24.3-24.3c-6.3-6.4-16.5-6.5-22.9-0.4l0,0l0,0c-1.9,1.8-3.2,4-4.1,6.4c-2.8,7.8-11,12.3-19.1,10.5
		c-21-7.7-37.8-24.2-45.2-45.2c-2.2-8.1,2.4-16.5,10.5-19.1c8.4-2.8,13.1-12,10.1-20.5c-0.8-2.4-2.2-4.6-4-6.4L65.9,11.3
		c-6.7-6.3-16.9-6.3-23.6,0L25.7,27.9C9.2,45.2,27.5,91.5,68.6,132.4s87.2,60.2,104.5,42.8l16.5-16.5
		C195.9,151.9,195.8,141.5,189.5,135z"/>
	<path d="M188.7,134.7l-24.3-24.3c-6.3-6.4-16.5-6.5-22.9-0.4l0,0l0,0c-1.9,1.8-3.2,4-4.1,6.4c-2.8,7.8-11,12.3-19.1,10.5
		c-21-7.7-37.8-24.2-45.2-45.2c-2.2-8.1,2.4-16.5,10.5-19.1c8.4-2.8,13.1-12,10.1-20.5c-0.8-2.4-2.2-4.6-4-6.4L65.2,11
		c-6.7-6.3-16.9-6.3-23.6,0L25.2,27.5C8.6,44.9,26.9,91.1,68,132.1s87.2,60.2,104.5,42.8l16.5-16.5
		C195.1,151.5,195,141.4,188.7,134.7z"/>
	<path d="M188,134.3L163.7,110c-6.3-6.4-16.5-6.5-22.9-0.4l0,0l0,0c-1.9,1.8-3.2,4-4.1,6.4c-2.8,7.8-11,12.3-19.1,10.5
		c-21-7.7-37.8-24.2-45.2-45.2c-2.2-8.1,2.4-16.5,10.5-19.1c8.4-2.8,13.1-12,10.1-20.5c-0.8-2.4-2.2-4.6-4-6.4L64.4,10.8
		c-6.7-6.3-16.9-6.3-23.6,0L24.3,27.3C7.8,44.6,26.1,90.9,67.2,131.8s87.2,60.2,104.5,42.8l16.5-16.5
		C194.4,151.2,194.4,141,188,134.3z"/>
	<path d="M187.3,134.1L163,109.8c-6.3-6.4-16.5-6.5-22.9-0.4l0,0l0,0c-1.9,1.8-3.2,4-4.1,6.4c-2.8,7.8-11,12.3-19.1,10.5
		c-21-7.7-37.8-24.2-45.2-45.2C69.4,72.9,74,64.6,82.1,62c8.4-2.8,13.1-12,10.1-20.5c-0.8-2.4-2.2-4.6-4-6.4L63.6,10.4
		c-6.7-6.3-16.9-6.3-23.6,0L23.5,26.9C7,44.3,25.3,90.5,66.3,131.5s87.2,60.2,104.5,42.8l16.5-16.5
		C193.5,151.1,193.5,140.7,187.3,134.1z"/>
	<path d="M186.6,133.7l-24.3-24.3c-6.3-6.4-16.5-6.5-22.9-0.4l0,0l0,0c-1.9,1.8-3.2,4-4.1,6.4c-2.8,7.8-11,12.3-19.1,10.5
		c-21-7.7-37.8-24.2-45.2-45.2c-2.2-8.1,2.4-16.5,10.5-19.1c8.4-2.8,13-12,10-20.5c-0.8-2.4-2.2-4.6-4-6.4L62.9,10.1
		c-6.7-6.3-16.9-6.3-23.6,0L22.8,26.6C6.3,43.9,24.6,90.2,65.6,131.1s87.2,60.2,104.5,42.8l16.5-16.5
		C192.7,150.7,192.7,140.4,186.6,133.7z"/>
	<path d="M185.8,133.6l-24.3-24.4c-6.3-6.4-16.5-6.5-22.9-0.4l0,0l0,0c-1.9,1.8-3.2,4-4.1,6.4c-2.8,7.8-11,12.3-19.1,10.5
		c-21-7.7-37.8-24.2-45.2-45.2c-2.2-8.1,2.4-16.5,10.5-19.1c8.4-2.8,13.1-12,10.1-20.5c-0.8-2.4-2.2-4.6-4-6.4L62.1,9.7
		c-6.7-6.3-16.9-6.3-23.6,0L22.2,26.3C5.7,43.7,24,89.9,65,130.9s87.2,60.2,104.5,42.8l16.5-16.5
		C192.1,150.5,191.9,140.1,185.8,133.6z"/>
	<path d="M184.9,133.2l-24.3-24.5c-6.3-6.4-16.5-6.5-22.9-0.4l0,0l0,0c-1.9,1.8-3.2,4-4.1,6.4c-2.8,7.8-11,12.3-19.1,10.5
		c-21-7.7-37.8-24.2-45.2-45.2c-2.2-8.1,2.4-16.5,10.5-19.1c8.4-2.8,13.1-12,10.1-20.5c-0.8-2.4-2.2-4.6-4-6.4L61.3,9.6
		c-6.7-6.3-16.9-6.3-23.6,0L21.3,26.1C4.7,43.4,23,89.6,63.9,130.6s87.2,60.2,104.5,42.8l16.5-16.5
		C191.3,150.1,191.2,139.7,184.9,133.2z"/>
	<path d="M184.3,132.9L160,108.6c-6.3-6.4-16.5-6.5-22.9-0.4l0,0l0,0c-1.9,1.8-3.2,4-4.1,6.4c-2.8,7.8-11,12.3-19.1,10.5
		c-21-7.7-37.8-24.2-45.2-45.2c-2.2-8.1,2.4-16.5,10.5-19.1c8.4-2.8,13.1-12,10.1-20.5c-0.8-2.4-2.2-4.6-4-6.4L60.7,9.3
		c-6.7-6.3-16.9-6.3-23.6,0L20.6,25.9C4,43.2,22.3,89.5,63.4,130.4s87.2,60.2,104.5,42.8l16.5-16.5
		C190.5,149.8,190.5,139.5,184.3,132.9z"/>
	<path d="M183.5,132.7l-24.3-24.3c-6.3-6.4-16.5-6.5-22.9-0.4l0,0l0,0c-1.9,1.8-3.2,4-4.1,6.4c-2.8,7.8-11,12.3-19.1,10.5
		c-21-7.7-37.8-24.2-45.2-45.2c-2.2-8.1,2.4-16.5,10.5-19.1c8.4-2.8,13.1-12,10.1-20.5c-0.8-2.4-2.2-4.6-4-6.4L59.8,9
		C53.1,2.7,43,2.7,36.2,9L19.7,25.5C3.2,42.9,21.5,89.1,62.6,130.1s87.2,60.2,104.5,42.8l16.5-16.5
		C189.8,149.5,189.8,139.3,183.5,132.7z"/>
	<path d="M182.7,132.3L158.4,108c-6.3-6.4-16.5-6.5-22.9-0.4l0,0l0,0c-1.9,1.8-3.2,4-4.1,6.4c-2.8,7.8-11,12.3-19.1,10.5
		c-21-7.7-37.8-24.2-45.2-45.2c-2.2-8.1,2.4-16.5,10.5-19.1c8.4-2.8,13-12,10.1-20.5c-0.8-2.4-2.2-4.6-4-6.4L59,8.6
		c-6.7-6.3-16.9-6.3-23.6,0L18.9,25.2C2.4,42.5,20.7,88.8,61.7,129.7s87.2,60.2,104.5,42.8l16.5-16.5
		C189.1,149.2,188.9,139,182.7,132.3z"/>
	<path d="M181.9,131.9l-24.3-24.3c-6.3-6.4-16.5-6.5-22.9-0.4l0,0l0,0c-1.9,1.8-3.2,4-4.1,6.4c-2.8,7.8-11,12.3-19.1,10.5
		c-21-7.7-37.8-24.2-45.2-45.2c-2.2-8.1,2.4-16.5,10.5-19.1c8.4-2.8,13.1-12,10.1-20.5c-0.8-2.4-2.2-4.6-4-6.4L58.3,8.3
		C51.6,2,41.4,2,34.7,8.3L18.3,24.8C1.8,42.3,19.8,88.4,60.9,129.3s87.2,60.2,104.5,42.8l16.5-16.5
		C188.2,149.1,188.1,138.7,181.9,131.9z"/>
	<path d="M181.2,131.7l-24.4-24.4c-6.3-6.4-16.5-6.5-22.9-0.4l0,0l0,0c-1.9,1.8-3.2,4-4.1,6.4c-2.8,7.8-11,12.3-19.1,10.5
		c-21-7.7-37.8-24.2-45.2-45.2c-2.2-8.1,2.4-16.5,10.5-19.1C84.3,56.7,89,47.5,86,39c-0.8-2.4-2.2-4.6-4-6.4L57.6,8
		C50.9,1.8,40.7,1.8,34,8L17.5,24.6C1,41.9,19.3,88.2,60.3,129.1s87.2,60.2,104.5,42.8l16.5-16.5
		C187.5,148.7,187.5,138.3,181.2,131.7z"/>
	<g id="Layer_2_4_">
		<g id="Calque_1_3_">
			<path id="Path_5983_3_" d="M180.4,131.5l-24.3-24.5c-6.3-6.4-16.5-6.5-22.9-0.4l0,0l0,0c-1.9,1.8-3.2,4-4.1,6.4
				c-2.8,7.8-11,12.3-19.1,10.5c-21-7.7-37.8-24.2-45.2-45.2c-2.2-8.1,2.4-16.5,10.5-19.1c8.4-2.7,13.1-12,10.1-20.4
				c-0.8-2.4-2.2-4.6-4-6.4L56.9,7.7c-6.7-6.3-16.9-6.3-23.6,0L16.8,24.4C0.3,41.8,18.5,88,59.6,129s87.2,60.2,104.5,42.8l16.5-16.5
				C186.7,148.3,186.7,138.1,180.4,131.5z"/>
		</g>
	</g>
</g>
<g id="Layer_2_2_">
	<g id="Calque_1_1_">
		<g id="Path_5983_1_">
			<path class="st0" d="M146.1,177.1c-22.5,0-56.3-19.2-86.1-48.9C20.1,88.5,1,42,17.4,24.9L33.9,8.4c3.1-2.8,7-4.2,11.1-4.2
				s8.1,1.5,11.3,4.5l24.4,24.2c1.8,1.8,3.1,3.8,3.8,6.3c2.7,8.1-1.5,16.9-9.7,19.6c-8.4,2.7-13.2,11.6-11,20.1
				c7.8,21.5,24.3,38,45.8,45.8c1.3,0.4,2.6,0.5,3.8,0.5c7.3,0,13.8-4.6,16.3-11.3c0.8-2.2,2.1-4.2,3.8-6l0.1-0.1
				c2.8-2.8,6.7-4.2,10.6-4.2c4.1,0,8.1,1.5,11.1,4.6l24.3,24.3c5.9,6.3,5.9,16,0.1,22.4l-16.5,16.5
				C159.3,175.1,153.5,177.1,146.1,177.1L146.1,177.1z"/>
			<path d="M45.1,4.9c4,0,7.8,1.4,10.6,4.1L80,33.3c1.5,1.5,2.8,3.7,3.7,5.8c2.6,7.7-1.5,15.9-9.2,18.6c-9,2.8-13.8,12-11.4,21l0,0
				l0,0c7.8,21.6,24.7,38.4,46.1,46.1h0.1h0.2c1.3,0.4,2.6,0.5,4,0.5c7.7,0,14.5-4.7,17-11.9c0.8-2.2,2.1-4.1,3.7-5.8
				c2.7-2.7,6.4-4.1,10.1-4.1c4,0,7.8,1.5,10.5,4.5l24.3,24.3c5.5,6,5.8,15.5,0.1,21.4l-16.5,16.5c-4,4-9.6,5.9-16.9,5.9
				c-22.3,0-55.8-19.1-85.4-48.7C21,88.2,1.8,42.3,17.8,25.5L34.2,9C37.3,6.3,41.1,4.9,45.1,4.9 M45.1,3.2c-4.2,0-8.4,1.5-11.8,4.6
				L16.8,24.3C0.3,41.7,18.5,87.9,59.6,128.9c30.7,30.7,64.4,49.2,86.6,49.2c7.4,0,13.6-2.1,17.9-6.4l16.5-16.5
				c6.3-6.7,6-17-0.1-23.6l-24.3-24.7c-3.2-3.3-7.4-5-11.6-5c-4.1,0-8.1,1.5-11.3,4.6l0,0c-1.9,1.8-3.2,4-4.1,6.4
				c-2.4,6.7-8.7,10.9-15.6,10.9c-1.1,0-2.4-0.1-3.7-0.4c-21-7.7-37.8-24.2-45.2-45.2c-2.2-8.1,2.4-16.5,10.5-19.1
				c8.3-2.7,12.9-12,10-20.4c-0.8-2.4-2.2-4.6-4-6.4L56.9,7.7C53.5,4.6,49.2,3.2,45.1,3.2L45.1,3.2z"/>
		</g>
	</g>
</g>
<g>
	<path d="M133.9,69.5l10.3-5.9c1.9,3.2,4.3,4.8,7.3,4.8c2.2,0,4-0.8,5.5-2.3c1.6-1.6,2.3-3.4,2.3-5.5v-2.8c0-2.2-0.8-4-2.3-5.5
		c-1.5-1.5-3.4-2.3-5.5-2.3c-3.2,0-5.6,1.6-7.3,4.9l-8.9-2.4l3.9-34.9h28.9v11.9h-18.2l-0.8,8.7c0.9-0.1,1.7-0.2,2.4-0.2
		c5.4,0,10.1,1.9,14,5.8c3.9,3.9,5.8,8.5,5.8,14v2.8c0,5.4-1.9,10.1-5.8,14c-3.9,3.9-8.5,5.8-14,5.8C144,80.2,138.1,76.6,133.9,69.5
		z"/>
	<path d="M212.1,21.9c3.9,3.9,5.8,8.5,5.8,14v24.6c0,5.4-1.9,10.1-5.8,14c-3.9,3.9-8.5,5.8-14,5.8s-10.1-1.9-14-5.8
		c-3.9-3.9-5.8-8.5-5.8-14V35.9c0-5.4,1.9-10.1,5.8-14c3.9-3.9,8.5-5.8,14-5.8S208.2,18.1,212.1,21.9z M192.6,30.4
		c-1.6,1.5-2.3,3.4-2.3,5.5v24.6c0,2.1,0.8,4,2.3,5.5c1.5,1.5,3.4,2.3,5.5,2.3c2.2,0,4-0.8,5.5-2.3c1.6-1.6,2.3-3.4,2.3-5.5V35.9
		c0-2.2-0.8-4-2.3-5.5c-1.5-1.5-3.4-2.3-5.5-2.3C196,28.1,194.1,28.8,192.6,30.4z"/>
	<path d="M247,48.8v30.2h-5.9V63.8L235,78h-1.8l-6.2-14.3v15.2h-5.8V48.8h5.7l7.3,16.7l7.3-16.7H247z"/>
	<path d="M251.8,48.8h5.9v30.2h-5.9V48.8z"/>
	<path d="M282.4,48.8v30.2h-5.7l-8.4-16.8v16.8h-5.8V48.8h5.7l8.4,16.8V48.8H282.4z"/>
</g>
</svg>
