<?xml version="1.0" encoding="utf-8"?>
<!-- Generator: Adobe Illustrator 26.2.1, SVG Export Plug-In . SVG Version: 6.00 Build 0)  -->
<svg version="1.1" id="Layer_1" xmlns="http://www.w3.org/2000/svg" xmlns:xlink="http://www.w3.org/1999/xlink" x="0px" y="0px"
	 viewBox="0 0 300 197.2" style="enable-background:new 0 0 300 197.2;" xml:space="preserve">
<style type="text/css">
	.st0{fill:url(#SVGID_1_);}
	.st1{fill:#FDBC02;}
	.st2{fill:#FFFFFF;}
</style>
<g>
	<path d="M75.1,42.8c1.5,1,3.4,1.5,5.9,1.5c5.7,0,10.4,1.8,14.2,5.2c4,3.7,6.1,8.6,6.1,14.6c0,5.8-2.1,10.8-6.2,14.8
		c-4,4-8.7,5.9-14,5.9c-8,0-14.2-4.1-18.6-12.3l5-3.2l5-3.2c2.1,4,4.9,5.9,8.4,5.9c2.2,0,4.1-0.8,5.8-2.2c1.9-1.6,2.7-3.5,2.7-5.8
		c0-2.5-0.9-4.4-2.6-5.6c-1.5-1-3.4-1.5-5.9-1.5c-5.7,0-10.4-1.8-14.2-5.2c-4-3.7-6.1-8.6-6.1-14.6c0-5.8,2.1-10.8,6.2-14.8
		c4-4,8.7-6,14-6c8,0,14.2,4.1,18.6,12.3L89.3,35c-2.1-3.9-4.9-5.8-8.4-5.8c-2.2,0-4.1,0.8-5.8,2.2c-1.9,1.6-2.8,3.5-2.8,5.8
		C72.5,39.7,73.3,41.6,75.1,42.8z"/>
	<path d="M144.4,17.8l-16.9,32l17.9,33.9h-13.5l-11.2-21.1l-2.3,4.3v16.8h-11.6V17.8h11.6v23.5l12.6-23.5H144.4z"/>
	<path d="M149.3,17.8H161v65.9h-11.7V17.8z"/>
	<path d="M210.4,17.8v65.9h-11.3L182.2,47v36.7h-11.6V17.8h11.3l16.8,36.7V17.8H210.4z"/>
	<path d="M231.1,42.8c1.5,1,3.4,1.5,5.9,1.5c5.7,0,10.4,1.8,14.2,5.2c4,3.7,6.1,8.6,6.1,14.6c0,5.8-2.1,10.8-6.2,14.8
		c-4,4-8.7,5.9-14,5.9c-8,0-14.2-4.1-18.6-12.3l5-3.2l5-3.2c2.1,4,4.9,5.9,8.4,5.9c2.2,0,4.1-0.8,5.8-2.2c1.9-1.6,2.7-3.5,2.7-5.8
		c0-2.5-0.9-4.4-2.6-5.6c-1.5-1-3.4-1.5-5.9-1.5c-5.7,0-10.4-1.8-14.2-5.2c-4-3.7-6.1-8.6-6.1-14.6c0-5.8,2.1-10.8,6.2-14.8
		c4-4,8.7-6,14-6c8,0,14.2,4.1,18.6,12.3L245.3,35c-2.1-3.9-4.9-5.8-8.4-5.8c-2.2,0-4.1,0.8-5.8,2.2c-1.9,1.6-2.8,3.5-2.8,5.8
		C228.4,39.7,229.3,41.6,231.1,42.8z"/>
</g>
<g>
	
		<linearGradient id="SVGID_1_" gradientUnits="userSpaceOnUse" x1="2.1025" y1="93.5582" x2="32.2771" y2="45.7404" gradientTransform="matrix(1 0 0 -1 0 200)">
		<stop  offset="0" style="stop-color:#636362"/>
		<stop  offset="1" style="stop-color:#000000"/>
	</linearGradient>
	<ellipse class="st0" cx="23.1" cy="139.8" rx="23.1" ry="25.2"/>
	<g>
		<path class="st1" d="M19.2,135.5v-8.1h7.8v8.1h7.5v8.5h-7.5v8.1h-7.8v-8.1h-7.5v-8.5H19.2z"/>
	</g>
</g>
<g>
	<path d="M91,126.3c-0.4,1.1-1,2.5-1.9,4L68.8,169h22.6v10.6H55.7v-7.4l25.1-48v-14.9H67.2v15H56.4v-17.9c0-2.3,0.5-4.1,1.7-5.4
		c1.2-1.3,2.9-1.9,5-1.9h21.7c2.1,0,3.8,0.6,5,1.9c1.2,1.3,1.8,3,1.8,5.4v15.6C91.6,123.7,91.4,125.1,91,126.3z"/>
	<path d="M129.3,179.6h-23.2c-4.3,0-6.6-2.5-6.6-7.4v-65.8c0-4.9,2.3-7.4,6.7-7.4h23.1c4.5,0,6.8,2.5,6.8,7.3v17.1H125v-14.2h-14.4
		v60.1H125v-22.7h-8.2v-10.2h19.3v35.7C136.1,177.1,133.8,179.6,129.3,179.6z"/>
	<path d="M169.8,179.6h-19.3c-4,0-6.1-2.1-6.1-6.4V134c0-4.3,2-6.4,6.1-6.4h19.3c4,0,6,2.1,6,6.4v39.1
		C175.7,177.3,173.7,179.6,169.8,179.6z M165.2,137.3h-10.2v32.3h10.2V137.3z"/>
</g>
<g>
	<path d="M190.9,148.8c-0.6,0-1.2,0-1.9,0c-0.7,0-1.3,0-2-0.1c-0.2,0-0.3-0.3-0.5-0.4c-0.1,0-0.2,0.1-0.4,0.2
		c-0.3-0.8-0.5-1.5-0.3-2.4c0.1-0.5,0-1,0-1.5s0.2-0.9,0-1.4c-0.1-0.5,0.2-0.8,0.7-0.9c0.1,0,0.1,0,0.2-0.1c0.4-0.4,0.9-0.5,1.6-0.5
		c0.5,0,1,0,1.6,0c0.4,0,0.7-0.1,1.1-0.1c0-0.2,0.1-0.4,0.1-0.6c0-0.1,0.1-0.2,0.1-0.3c0-0.5-0.1-1-0.2-1.5c0-0.3,0-0.5,0-0.8
		c0-1.2,0-2.4,0-3.6c0-0.2,0.1-0.3,0.1-0.5c0-0.3,0-0.6,0-0.8c0-0.3,0-0.6,0-0.8c0-0.6,0.5-1.1,0-1.7c0-0.1,0-0.2,0-0.3
		c0-0.3,0.1-0.8,0.1-1.1c0-0.6,0-1.1,0-1.7v-0.1c-0.2-1.4,0.2-2.6,0.2-3.9c0-0.9-0.2-1.8-0.2-2.7c0-0.3,0.1-0.5,0.1-0.7
		c0-2.5,0-5,0-7.5c0,0,0-0.1,0-0.2c-1.5,0-2.9-0.1-4.6-0.1c0.3-0.5,0.1-0.7-0.2-0.8c-0.1-0.1-0.2-0.3-0.2-0.4c0-0.3,0-0.5,0-0.7
		c0-0.5,0.1-1.1,0.1-1.6c0-0.3-0.1-0.4-0.1-0.7c0-0.5,0-1,0.1-1.4c0-0.3,0-0.5,0.3-0.7c0.1,0,0.1-0.2,0.1-0.3
		c0.4-0.1,0.7-0.2,1.2-0.3c0.2,0.5,0.6,0.2,1,0.3h0.1c0.4-0.5,0.9-0.2,1.3-0.1c0.3,0.1,0.5,0.2,0.9,0.3c0.1-0.3,0.2-0.6,0.2-0.8
		c-0.2-1.1,0.2-2.2,0-3.3c-0.1-0.5,0-1.1,0-1.7c0-0.3-0.1-0.7-0.2-1.1c0-0.1-0.1-0.1,0-0.2c0.2-0.6,0-1.2,0-1.9c0-0.4,0-0.9,0.2-1.2
		c0.3-0.4,0.2-0.8,0.4-1.3c0.4-0.8,0.9-1.2,1.7-1.4c1.1-0.3,2.1-0.3,3.2-0.3c2.1,0,4.2,0,6.3,0c0.4,0,0.9,0.2,1.2,0.3
		c0.1,0,0.2,0.1,0.2,0.1c0.6-0.3,1.2,0.1,1.8,0c0.6-0.1,1.2-0.1,1.8-0.1c0.8,0,1.6,0,2.4,0c1.6,0,3,0,4.6,0c0.7,0,1.4,0.1,2.2,0.1
		c0.9,0,1.9-0.1,2.8-0.2c0.1,0,0.2,0,0.2,0c0.4,0.3,0.7,0.1,1.1,0.1c0.2,0,0.5,0.1,0.8,0c0.3,0,0.5-0.1,0.9-0.1
		c0.6,0,1.3-0.1,1.9,0.2c0.1,0.1,0.2,0,0.4,0c0.5-0.1,1.2-0.2,1.7-0.2c0.2,0,0.4,0.2,0.6,0.2c0.4,0,0.7-0.1,1.1-0.1
		c0.2,0,0.5,0.1,0.8,0.1c0.2,0,0.4,0,0.5,0c0.6,0,1.2-0.1,1.9-0.1c1.6,0,3.1,0.1,4.7,0c0.6,0,1.2,0,1.9,0.1c0.5,0.1,1.2-0.1,1.8-0.1
		c1.6,0,3.1-0.1,4.7-0.1c1,0,2.1,0,3.1,0c2.3,0,4.5,0.1,6.8,0c0.5,0,0.9,0.3,1.4,0.4c0.3,0.1,0.9,0.1,1.2,0c0.6-0.3,1.2-0.3,1.9-0.2
		h0.1c0.5-0.2,1.2-0.1,1.7-0.1c0.4,0,0.8-0.1,1.2-0.1c1,0,2,0,3,0c0.6,0,1.2-0.1,1.8-0.2c0.3,0,0.7,0.2,1,0.2c0.4,0,0.7-0.1,1.1-0.1
		c1,0,1.9-0.1,2.9,0c1.3,0.1,2.6-0.1,4,0c0.7,0.1,1.4,0.1,2.1,0.2c0.2,0,0.4,0.1,0.6,0c0.7-0.3,1.4,0.2,2.1,0.1c0.1,0,0.2,0.1,0.3,0
		c0.6-0.4,1.3,0,1.9-0.2s1.3-0.1,1.9-0.1c0.9,0.1,1.8,0.2,2.7,0.3c0.6,0,1.2,0,1.8,0c0.2,0,0.3,0.1,0.5,0.1s0.5,0,0.8,0.1
		c0.1,0,0.2,0,0.3,0c0.3,0.1,0.5,0.3,0.9,0.3c0.1,0,0.2,0.1,0.3,0c0.8-0.3,1.6-0.1,2.4-0.1c0.5,0,0.9,0.2,1.2,0.4
		c0.4,0.3,0.8,0.6,0.9,0.9c0.2,0.4,0.2,0.9,0.5,1.4c0.3,0.8,0.2,1.7,0.2,2.6c0,0.8,0.1,1.6,0.2,2.4c0,0.2,0.2,0.3,0.2,0.5
		c-0.5,0.3-0.1,0.8-0.1,1.4c-0.1,0.5,0,1.1-0.1,1.7c0,0.3,0.1,0.5,0.3,0.6c0.3,0.1,0.6,0.1,0.9,0c0.3-0.1,0.6-0.3,0.9-0.3
		c0.1,0,0.2,0,0.2,0c0.5,0.5,1,0.2,1.5-0.2c0.1,0.1,0.1,0.3,0.2,0.3c0.2,0,0.5,0,0.8,0c0.1,0.3,0.5,0.4,0.6,0.8
		c0,0.1,0.1,0.2,0.1,0.3c0,0.7-0.1,1.4-0.1,2c0,0.3,0.1,0.8,0.1,1.1c0,0.5,0,0.9,0,1.4c0,0.1-0.1,0.1-0.2,0.2
		c-0.3,0.2-0.5,0.3-0.2,0.8c-1,0-1.9,0.1-2.8,0.1c-0.7,0-1.3,0-2,0c-0.1,0-0.2,0.2-0.2,0.3c-0.1,0.7-0.1,1.3-0.2,1.9
		c0,0.1,0.1,0.2,0.2,0.3c0.1,0.1,0.2,0.2,0.2,0.3c-0.2,0.8,0.2,1.4,0.2,2.2c0,0.2,0,0.3-0.1,0.5c-0.3,0.8-0.1,1.7-0.2,2.5
		c0,0.1,0.1,0.3,0.1,0.4c0,0.3,0.1,0.5,0,0.8c-0.1,0.3-0.1,0.6-0.1,0.8c0.1,0.8,0,1.7,0,2.5c0,0.2-0.1,0.4-0.1,0.6c0,1.4,0,2.7,0,4
		c0,0.3,0.1,0.7,0.1,1c0,0.2-0.1,0.3-0.1,0.5c0,0.8,0.1,1.4,0.1,2.2c0,0.3-0.1,0.6-0.1,0.9c0,0.1-0.1,0.2-0.1,0.3
		c0,0.5,0,1.1,0.1,1.6c0.1,0.5-0.2,1.1,0.2,1.5c0,0,0,0.2,0,0.3c-0.3,0.4-0.2,0.8-0.1,1.4c0.1,0.3,0.1,0.5-0.1,0.8
		c-0.2,0.4-0.1,1,0,1.5c0,0.1,0.3,0.2,0.5,0.3c0.6,0,1.2,0,1.8,0c0.9,0,1.6,0.1,2.6,0.2c-0.3,0.5,0,0.7,0.3,0.8
		c0.1,0,0.1,0.3,0.1,0.3c0,0.5,0.1,0.9,0,1.4c-0.1,0.3,0,0.8,0,1.1c0,0.7,0.1,1.4,0,1.9c-0.1,0.3-0.4,0.7-0.6,1
		c-0.2,0-0.5,0-0.8-0.1c0,0.1-0.1,0.2-0.1,0.3c-0.4-0.2-0.8-0.3-1.2-0.4c-0.4,0.5-0.9,0.4-1.2,0.2c-0.2-0.1-0.3-0.2-0.4-0.3
		c-0.4-0.2-0.6,0-0.7,0.4c0,0.3,0.1,0.6,0,0.8c-0.2,0.4,0.3,0.8,0,1.3c0.2,0.8-0.2,1.6,0.2,2.5c0.2,0.3,0,0.8,0,1.3
		c0,0.3,0,0.4,0.1,0.7l0.1,0.1c-0.1,0.8-0.1,1.8-0.2,2.6c-0.2,1.3-1.1,2.1-2.3,2.5c-0.6,0.3-1.2,0.3-1.9,0.3s-1.2-0.1-1.8,0.1
		c-0.2,0.1-0.5-0.1-0.9,0c-0.7,0.2-1.4,0-2.1,0c-0.5,0-0.9,0-1.3,0c-0.3,0-0.6-0.1-0.9-0.2c-0.2,0-0.2-0.1-0.4,0
		c-0.9,0.1-1.7,0.2-2.6,0.3c-0.2,0-0.4-0.1-0.6-0.1c-0.6,0-1.3,0.1-1.9,0.1c-0.4,0-0.8,0-1.1,0c-0.9,0-1.9-0.1-2.7-0.1
		c-1.1,0-2.2,0-3.3,0c-0.9,0-1.8,0-2.6,0c-1.2,0-2.3,0-3.4,0c-1,0-2,0.1-3.1,0c-0.6,0-1.2-0.1-1.8-0.2c-0.4,0-0.8,0.1-1.2,0.1
		c-1.2,0-2.4,0-3.6,0c-0.1,0-0.2,0-0.2,0c-0.2,0.1-0.4,0.2-0.5,0.2c-2.1,0-4.2,0-6.3,0c-0.6,0-1.3-0.1-1.9-0.1c-0.2,0-0.3,0-0.5,0
		c-0.6,0.2-1.3,0.1-1.9,0c-0.7-0.1-1.3,0-2,0c-0.2,0-0.4,0-0.6,0c-0.5,0-1.1,0-1.6-0.1c-0.5,0-1,0-1.5,0c-0.3,0-0.6,0.1-0.9,0.1
		c-0.3,0-0.6-0.1-0.9-0.1h-0.1c-0.5,0-1,0.1-1.5,0.1c-1,0-2,0-3,0c-0.1,0-0.2,0-0.3-0.1c-0.3-0.1-0.5-0.1-0.7,0.3
		c-0.3-0.1-0.5-0.3-0.8-0.3c-0.3-0.1-0.5,0-0.7,0.3c-0.6-0.4-1.2-0.3-1.8-0.1c-0.2,0-0.3,0-0.4-0.1c-0.2,0-0.4,0-0.6,0
		c0-0.1-0.1-0.3-0.2-0.5c-0.4,0.2-0.8,0.3-1.2,0.5c-0.4,0.3-0.8,0.3-1.2,0.2c-0.5-0.1-1-0.1-1.6-0.1c-0.3,0-0.7-0.1-1-0.1
		c-0.9,0-1.8,0.1-2.6,0.1c-0.5,0-1-0.1-1.6-0.1c-0.1,0-0.2,0.1-0.3,0.1c-0.2,0-0.5,0-0.7,0c-0.2,0-0.5-0.1-0.7,0
		c-0.6,0-1.2,0.1-1.8,0.1c-0.4,0-0.7,0-1.1,0c-0.2,0-0.4-0.2-0.5-0.1c-0.5,0.3-1,0-1.6,0c-0.5,0-0.9,0-1.4,0.1
		c-0.7,0.1-1.4,0.2-2-0.1c-0.1,0-0.2-0.1-0.3,0c-0.6,0.3-1.2,0-1.9,0c-0.6,0-1.2-0.3-1.9-0.1c-0.1,0-0.2,0-0.2,0
		c-1.6-0.1-3.3,0-4.9-0.2c-0.8-0.1-1.6,0.1-2.3-0.1c-0.3,0-0.6,0.1-0.9,0.1c-1.1-0.1-2.2-0.2-3.3-0.2c-1.1,0-1.9-0.5-2.6-1.2
		c-0.6-0.6-0.9-1.4-0.9-2.4c0-0.3-0.1-0.6-0.1-0.8c0-0.1,0.1-0.7,0.1-0.8c0-0.2-0.1-0.4-0.1-0.6c0-0.5,0.1-1,0.2-1.5
		c0-0.2,0-0.3,0-0.4c0-0.5,0-0.9,0-1.4c0-0.5,0-1-0.1-1.5C190.9,149.7,190.9,149.2,190.9,148.8z M290.5,147.6c0-0.1,0.2-0.3,0.2-0.4
		c0-1-0.1-2-0.1-3c0-0.8,0-1.7,0-2.6c0-1.4,0-2.9,0-4.3c0-0.3,0.1-0.6,0.1-0.8c0-0.8-0.1-1.4-0.2-2.2c-0.1-0.8,0.1-1.5,0-2.4
		c-0.1-1.7,0-3.4,0-5.2c0-0.5-0.1-1,0-1.6c0-0.4,0-0.9,0.2-1.4c0.1-0.3,0.2-0.5,0-0.8c-0.1-0.2-0.1-0.3-0.1-0.5c0-1.9,0-3.7,0.1-5.6
		c0-0.3,0.1-0.6-0.2-0.8c-0.1,0-0.1-0.2,0-0.3c0-0.4,0.1-0.9,0.1-1.4c0-0.6-0.1-1.3-0.1-1.9c0-0.8,0.1-1.4,0.2-2.2
		c0.1-1.2-0.2-2.3,0-3.5c0.1-0.7-0.2-1.4,0-2.1v-0.1c0-0.3-0.1-0.5-0.1-0.8c0-0.6,0.2-1.4-0.4-1.7c0.2-0.3,0.2-0.6,0.3-0.8
		c0.1-0.2,0-0.4,0-0.6c0-0.3-0.1-0.4-0.5-0.4c-0.5,0-1.2,0-1.7,0c-0.1,0-0.2,0-0.2,0c-0.6,0.2-1.2,0.1-1.7-0.1
		c-0.2-0.1-0.4-0.1-0.6-0.1c-0.3,0-0.6,0-0.9,0c-0.3,0-0.7,0-1,0c-0.4,0-0.8,0-1.2,0c-0.1,0-0.2,0-0.2,0c-0.3,0-0.7,0-1,0
		c-0.1,0-0.2,0-0.2,0c-0.2,0-0.5,0.1-0.7,0.1c-0.8,0-1.5,0-2.3,0c-0.5,0-0.9-0.1-1.4-0.1c-0.2,0-0.2,0-0.4,0c-0.4,0-0.9,0.1-1.2,0.1
		c-0.7,0-1.4,0-2.1-0.1h-0.1c-0.8,0.1-1.5,0.2-2.3,0.2c-0.9,0-1.7-0.1-2.6-0.1s-1.8,0.1-2.6,0.1c-2.2,0-4.3,0-6.5,0
		c-0.5,0-1,0.2-1.5,0.1c-0.6-0.2-1.2,0.3-1.9-0.2h-0.1c-0.5,0.1-1.2,0.2-1.7,0.1c-0.3,0-0.7,0.2-0.9,0.1c-0.4-0.1-0.8,0-1.2,0.1
		c-0.1,0-0.2-0.1-0.2-0.1c-0.2,0-0.3-0.1-0.4-0.1c-1.4,0-2.8,0-4.2,0c-0.2,0-0.4,0.1-0.6,0.1c-0.2,0-0.4,0-0.6,0
		c-0.1,0-0.2-0.1-0.3-0.1c-0.5,0.3-0.9-0.2-1.5-0.1c-0.5,0.2-1.1-0.1-1.6-0.1c-1.9,0-3.6-0.1-5.5,0c-0.9,0-1.7-0.3-2.5,0.1h-0.1
		c-0.4-0.3-0.8-0.1-1.2-0.1c-0.5,0-0.9-0.1-1.4-0.1c-0.6,0.1-1.2,0.1-1.8,0.1c-1.4-0.1-2.9,0.1-4.3,0c-0.1,0-0.2,0-0.2,0
		c-1.1,0.1-2.2,0.1-3.2,0.2c-0.5,0-0.9,0.1-1.4,0.2c-0.2,0-0.3,0-0.4,0c-0.2,0-0.5-0.1-0.6-0.1c-1.2,0-2.3,0.1-3.5,0.2
		c-0.7,0-1.3-0.1-2-0.1c-0.3,0-0.6,0.1-0.9,0.1c-0.4,0-0.8-0.1-1.2-0.1c-0.8,0.1-1.5,0.1-2.2-0.2c-0.1,0-0.2,0-0.4,0
		c-0.3,0-0.7,0.1-1,0.2c-0.5,0.1-0.9,0.1-1.3,0.2c-0.2,0-0.4,0-0.5-0.1c-0.2,0-0.5-0.1-0.7-0.1c-0.9,0-1.6,0-2.5,0
		c-0.3,0-0.7-0.2-1-0.2c-0.2,0-0.3-0.1-0.5,0c-0.5,0-0.9,0.2-1.3,0.1c-0.2,0-0.4-0.2-0.6,0.1c-0.2-0.3-0.9-0.4-1.6-0.2
		c0.1,1.1,0.2,2.2,0.2,3.2c0,0.1,0,0.2,0,0.2c-0.3,0.4-0.2,0.9-0.1,1.4c0.1,0.3,0.1,0.6-0.2,0.8c-0.3,0.3-0.3,0.8-0.1,1.2
		c0.2,0.4,0.4,0.8,0.3,1.4c-0.1,0.7-0.2,1.4-0.1,1.9c0,0.4,0,0.8,0,1.2c0,1,0,2.1,0,3.1c0,0.3,0,0.6,0,0.9c0.1,0.1,0.2,0.1,0.2,0.1
		c0,0.4,0.1,0.8,0.1,1.1c0,0.1,0,0.1,0,0.2c0,0.6-0.2,1.2-0.1,1.7c0.1,0.4,0.2,0.9,0,1.4c0,0.1,0,0.3,0.1,0.3c0,0.2,0.1,0.3,0.1,0.3
		c0,1.4,0,2.6,0,4c0,0.4-0.2,0.8-0.2,1.2c0,0.2,0,0.3,0,0.5c0,0.1,0.1,0.3,0.1,0.3c-0.2,0.7-0.1,1.3,0.1,1.9c0.1,0.3,0,0.4,0,0.7
		c0,0.5-0.1,1-0.1,1.5c0,0.4,0.1,0.9,0,1.4c0,0.3-0.1,0.6-0.1,0.9c0,1,0.1,2,0.1,3c0,0.4-0.1,0.8-0.2,1.2c-0.1,0.6,0.3,1.1,0,1.7
		l0,0c0.3,0.5,0,1.1,0.2,1.7c0.1,0.3,0,0.6,0,0.8c0,0.8-0.1,1.5-0.2,2.2v0.1c0.1,0.4,0.1,0.8,0.2,1.3c0,0.1,0,0.2,0,0.2
		c-0.1,0.3-0.1,0.6-0.2,0.9c-0.1,0.6,0.1,1.1,0,1.7c-0.1,0.3,0,0.8-0.1,1.2c0,0.1,0,0.3,0,0.3c0,0.6,0,1.2,0.1,1.9
		c0,0.2,0.1,0.3,0.1,0.4c0,0.3,0,0.8,0,1.1c0,0.2,0,0.4,0.2,0.6c0.1,0.2,0.4,0.2,0.5,0.2c0.1,0,0.2-0.1,0.3-0.1c0.6,0,1.2,0.1,1.8,0
		c0.5-0.1,1,0.1,1.6,0.2c0.7,0.1,1.5,0,2.2-0.2c0.1,0.1,0.2,0.2,0.2,0.3c-0.2,0.1-0.2,0.2-0.3,0.3l0.1,0.1c0.2-0.1,0.4-0.2,0.4-0.3
		c-0.1-0.4,0.2-0.3,0.5-0.3c0.3,0,0.6,0,0.9,0c0.1,0.2,0.1,0.3,0.2,0.4c0.1,0,0.2,0,0.2,0c0.4-0.1,0.7-0.2,1.1-0.2
		c0.5,0,1.1,0,1.7,0c0.8,0,1.5-0.1,2.3,0c0.4,0,0.9-0.1,1.2-0.1c0.8,0,1.5-0.1,2.3-0.1c0.6,0,1.2,0.1,1.8,0.1c3.2,0,6.4,0,9.6,0
		c0.2,0,0.5,0,0.8-0.1c0.5-0.1,0.9-0.3,1.2,0c0.1,0,0.2,0,0.2,0c0.3,0,0.6-0.1,0.9,0c0.4,0.1,0.8,0.1,1.2,0c0.2-0.1,0.4-0.1,0.5-0.1
		c0.6,0.1,1.2,0.3,1.8,0.3c0.5,0,0.9-0.3,1.4-0.1c0.2,0.1,0.6,0,0.9,0.1c0.2,0.1,0.3,0.1,0.5,0c0.6-0.3,1.2-0.1,1.8-0.1
		c1,0,2,0.3,3-0.1c0.1,0,0.2,0.1,0.3,0.1c0.7,0,1.5,0.1,2.2,0.1c0.5,0,1-0.3,1.6-0.1c0.1,0,0.2,0,0.4-0.1c0.1,0,0.2,0,0.3,0
		c0.3,0,0.5,0,0.9,0c0.2,0,0.4,0,0.5,0c0.4,0,0.8,0.1,1.2,0.1c0.5,0,1-0.1,1.6-0.1c0.1-0.3,0.2-0.3,0.5-0.2c0.2,0.1,0.5,0,0.8,0
		c0.2,0,0.2-0.1,0.4,0c0.4,0,0.7,0.1,1.1,0.1c0.2,0,0.3,0,0.5,0c0.5,0,1,0.1,1.6,0.1c0.1,0,0.2-0.1,0.2-0.1c0.7,0,1.3-0.1,2-0.1
		c0.5,0,0.9,0.2,1.3,0.2c1.1,0,2.3,0,3.3,0c1.6,0,3.2,0,4.8,0c0.4,0,0.8-0.1,1.2-0.2c0.1,0,0.2,0.1,0.3,0.1c0.2,0,0.3,0,0.5,0
		c0.1,0,0.2-0.1,0.3-0.1c0.4,0,0.7,0,1.1,0c0.5,0,0.9-0.1,1.4-0.1c2.7,0,5.5,0,8.2,0c0.2,0,0.5-0.1,0.8-0.1c0.6,0.1,1.2,0.4,1.9,0.1
		c0.1,0,0.2,0,0.2,0c1.5,0,2.9,0,4.3,0c0.8,0,1.6,0.2,2.3,0.3c0.1,0,0.2,0.1,0.2,0c0.3-0.3,0.6-0.2,0.9-0.2c0.2,0,0.5,0,0.7,0
		c0-0.2,0-0.3,0-0.5c0-1.5,0-3,0-4.7C290.7,148.4,290.6,148.1,290.5,147.6z"/>
	<path d="M209.3,179.8c-0.7,0-1.3,0-1.9,0c-0.8,0-1.6,0-2.3,0c-0.4,0-0.5-0.2-0.5-0.5c0-0.3,0.1-0.7,0-1.1c0-0.4-0.2-0.8-0.2-1.3
		c0-0.7,0.1-1.3,0.1-1.9c0-0.4-0.2-0.9,0-1.3c0.4-0.6-0.2-1.2,0.1-1.8c0.1-0.1-0.1-0.3-0.1-0.3c0-0.5,0-0.9,0-1.4c0-0.6,0-1.1,0-1.7
		v-0.1c0.2-0.8,0.1-1.7,0-2.6c0.3,0,0.6,0,0.9,0c1.1,0,2.3,0,3.3,0c0.2,0,0.3,0.1,0.5,0.3c0.7,1.4,1.3,2.9,2,4.4
		c0.2,0.5,0.5,1.1,0.8,1.6c0.1,0.2,0.2,0.3,0.4,0.5c0.6-1.6,1.2-3,1.8-4.6c0.1-0.2,0.2-0.3,0.2-0.4c0.2-0.3,0.3-0.6,0.4-0.9
		c0.2-0.6,0.5-0.9,1.2-0.9c1,0,1.9,0,2.9,0c0.3,0,0.6,0.1,0.9,0.1c0,2.4-0.1,4.7,0,7.1c0.2,2.3-0.3,4.6,0.2,6.9c-1.6,0-3.2,0-4.7,0
		c0-1.8,0-3.6,0-5.3h-0.1c-0.1,0.1-0.1,0.1-0.2,0.2c-0.7,1.4-1.4,2.7-2.2,4.1c-0.2,0.3-0.3,0.4-0.5,0.7c-0.2,0.2-0.3,0.2-0.5,0
		c-0.2-0.5-0.5-0.9-0.8-1.4c-0.6-1-1.2-2-1.9-3c0-0.1-0.1-0.1-0.2-0.1C209.2,176.4,209.3,178.1,209.3,179.8z"/>
	<path d="M238.5,173.5c0-0.6-0.1-1.1-0.1-1.6c0-0.3,0.1-0.5,0.4-0.6c0.2-0.1,0.3-0.3,0.3-0.5c0.1-0.5,0.1-1,0-1.5
		c-0.1-0.6,0-1.2,0-1.8c0-0.4,0-0.8,0-1.4c0.4-0.5,1-0.3,1.6-0.4c0.6,0,1.2,0,1.9,0c1.4,0,2.7,0,4.1,0c0.7,0,1.3,0,2,0
		c0.4,0,0.7,0.1,1,0.2c0.5,0.1,0.6,0.4,0.6,0.8c0,0.4,0.1,0.8,0.1,1.3c0,0.5,0,1.1-0.1,1.6c0,0.4,0.1,0.8,0,1.2s-0.2,0.8-0.5,1
		c-0.1,0.2-0.3,0.3-0.5,0.3c0.3,0.3,0.7,0.5,1,0.8c0.2,0.2,0.2,0.3,0.2,0.6c0,1.3,0,2.5,0,3.7c0,0.3,0,0.8,0,1.1c0,0.1,0,0.1,0,0.2
		c-0.4,0.3-0.6,0.8-1.2,0.8c-0.9,0.2-1.9,0.3-2.8,0.3c-2.3,0-4.6,0-6.8,0c-0.4,0-0.5-0.1-0.5-0.4c-0.1-0.5-0.2-0.9,0-1.4
		c0.1-0.3-0.1-0.8-0.1-1.1c0-0.4,0.1-0.9,0.1-1.4c0-0.2-0.1-0.3-0.1-0.5c0-0.3-0.1-0.4-0.1-0.7C239.1,173.7,239.1,173.6,238.5,173.5
		z M245.6,177.4c0.1-1.3,0.2-2.6-0.1-3.8c-0.4,0-0.7,0.1-0.9,0c-0.4-0.2-0.6,0-0.9,0.2c0,1.2,0,2.4,0,3.6
		C244.2,177.4,244.9,177.4,245.6,177.4z M243.6,168.4c0,0.9,0.1,1.9,0.1,2.7c0,0.1,0.2,0.3,0.2,0.3c0.6,0.1,1.2,0.1,1.7,0.1
		c0-1.1,0-2,0-3C245,168.4,244.3,168.4,243.6,168.4z"/>
	<path d="M229.4,165.8c1.3,0,2.6,0,4,0c0.5,0,0.9,0.1,1.3,0.3c0.2,0.2,0.5,0.5,0.5,0.8c0.2,0.5,0.2,1,0.2,1.5c0,0.3,0,0.5,0,0.8
		c0,0.8-0.1,1.6-0.1,2.5c0,0.1-0.1,0.2,0,0.3c0.2,0.8-0.1,1.7,0,2.5c0,0.6,0.1,1.1,0.1,1.7c0,0.9-0.2,1.8-0.3,2.7
		c0,0.3-0.2,0.4-0.5,0.6c-0.5,0.4-1.1,0.6-1.7,0.6c-2.4,0-4.7,0-7.1,0c-0.6,0-1.2-0.3-1.8-0.5c-0.5-0.2-0.7-0.6-0.7-1.1
		c0-1.7,0-3.5,0-5.2c0-0.3-0.1-0.6-0.1-0.9c-0.1-0.7-0.1-1.4-0.1-2.1c0-0.4,0.1-0.9,0.1-1.4c0-0.1,0.1-0.1,0-0.2
		c-0.3-0.7,0-1.3,0.1-1.9c0-0.2,0.2-0.3,0.2-0.3c0.6-0.5,1.3-0.6,2.1-0.6C227,165.8,228.3,165.8,229.4,165.8z M228,168.5
		c0,2.9,0,5.8,0,8.6c0.9,0,1.9,0,2.6,0c0-3,0-5.9,0-9C229.7,168.3,229,168.5,228,168.5z"/>
	<path d="M284,171.3c0,0.8,0,1.4,0,2.2c-0.3,0.1-0.6,0.2-1,0.2c-1.2,0-2.4,0-3.6,0c-0.2,0-0.2,0-0.5,0c0,1.2,0,2.4,0,3.5
		c0,0.3,0.3,0.3,0.6,0.3c1.2,0,2.6,0,3.8,0c0.7,0,0.9,0.2,0.9,0.8c0,0.3-0.1,0.7-0.1,1c0,0.2,0.1,0.3,0.1,0.4c-0.2,0-0.3,0-0.4,0
		c-2.9,0-5.9,0-8.8,0c-0.1,0-0.2,0-0.2,0c-0.6,0-0.6-0.1-0.7-0.7c0-0.7-0.1-1.4-0.1-2c0-0.1,0-0.2,0-0.3c0.2-0.9,0.1-1.9,0.1-2.9
		c0-0.3-0.1-0.4-0.4-0.5c-0.2-0.1-0.3-0.5-0.3-0.8c-0.1-0.3,0.1-0.6,0.1-0.8c0-0.3,0-0.5,0.3-0.5c0.2-0.1,0.3-0.2,0.2-0.4
		c-0.1-0.2,0-0.4,0-0.7c0-1.2-0.1-2.5-0.1-3.6c0-0.2-0.1-0.3-0.2-0.6c0.5-0.1,1-0.2,1.5-0.2c1.6,0,3.1,0,4.7,0
		c0.5,0,0.9,0.1,1.4,0.2c0.1,0,0.2,0.1,0.3,0c0.7-0.3,1.3,0,2,0c0.2,0,0.4,0,0.5,0.1c0.1,0.1,0.2,0.2,0.2,0.3c0,0.3,0,0.6,0,0.9
		s-0.1,0.7-0.2,1.1c-1.7,0-3.4,0-5.1,0c-0.1,0-0.1,0.1-0.1,0.1c-0.1,0.6-0.2,1.1-0.2,1.6c0,0.3,0,0.6,0,0.8c0,0.3,0.1,0.3,0.4,0.3
		c0.6,0,1.2,0,1.8,0c0.1,0,0.2,0,0.3,0c0.1,0,0.2,0,0.2,0C282.4,171.3,283.2,171.3,284,171.3z"/>
	<path d="M267.2,177.3c1.3,0,2.5,0,3.7,0c0,0.7,0,1.3,0,1.9c0,0.3-0.7,0.7-1.1,0.6c-0.2,0-0.4,0-0.6,0c-0.1,0-0.2,0-0.3,0
		c-1,0-1.9,0-2.9,0c-0.9,0-1.9-0.1-2.8-0.1c-0.3,0-0.5-0.2-0.5-0.5c0-0.9,0-1.8,0-2.7c0-3.3,0-6.5,0-9.8c0-0.2-0.1-0.3-0.2-0.5
		c0.2-0.3,0.5-0.4,0.9-0.4c1,0,2.1,0,3.1-0.1c0.3,0,0.6,0.1,0.6,0.5c0,0.3,0.1,0.5,0.1,0.8c0,1.1,0.1,2.1,0.1,3.2
		c0,0.5-0.1,1.1-0.1,1.6c0,0.7,0.1,1.4,0.2,2c0,0.3,0,0.5,0,0.8C267.3,175.5,267.2,176.4,267.2,177.3z"/>
	<path d="M258.9,167.7c0,3.5,0,6.9,0,10.3c0,0.3-0.1,0.7-0.1,1c0,0.1,0.1,0.3,0.1,0.3c0,0.2-0.1,0.3-0.2,0.5c-0.1,0.1-0.3,0.1-0.4,0
		c-0.5-0.3-1,0-1.5-0.1c-0.5,0-1.1,0-1.6,0c-0.2,0-0.5,0-0.8-0.1c-0.1,0-0.2-0.2-0.3-0.3c-0.1-0.4-0.2-0.8-0.2-1.3
		c0.2-0.7,0-1.4,0-2.1c0-0.3,0-0.7,0-0.9c0-1.1,0.1-2.2,0.1-3.3c0-0.6-0.1-1.3-0.1-1.9s0.1-1.1-0.1-1.7c-0.2-0.6,0-1.4,0.1-1.9
		c0-0.2,0.3-0.4,0.5-0.4c0.4-0.1,0.7-0.1,1.1-0.1c0.7,0,1.4,0,2.2,0c0.1,0,0.2,0,0.2,0c0.6,0.1,0.7,0.2,0.7,0.8
		C258.9,166.9,258.9,167.4,258.9,167.7C258.9,167.7,258.9,167.7,258.9,167.7z"/>
	<path d="M301.2,93.9c0.8-0.1,0.8-0.1,1,0.6c0.1,0.2,0.2,0.3,0.2,0.7c0.1-0.3,0.2-0.6,0.2-0.8c0.1-0.3,0.2-0.5,0.6-0.4
		c0.1,0,0.2,0,0.4,0c0,0.8,0,1.7,0,2.6c-0.2,0-0.3,0-0.5,0c0-0.4,0-0.8,0-1.2h-0.1c-0.1,0.3-0.2,0.6-0.2,0.8s-0.2,0.3-0.4,0.4
		c-0.2,0-0.4-0.1-0.4-0.3c0-0.2-0.1-0.3-0.2-0.5c0,0.3,0,0.5,0,0.8c-0.2,0-0.4,0-0.6,0C301.2,95.6,301.2,94.7,301.2,93.9z"/>
	<path d="M299.5,96.4c0-0.7,0-1.3,0-1.9c-0.2,0-0.4,0-0.6,0c0-0.2,0-0.3,0-0.6c0.7,0,1.4,0,2.2,0c0,0.2,0,0.3,0,0.5
		c-0.2,0-0.4,0.1-0.6,0.1c0,0.7,0,1.3,0,1.9C300.1,96.4,299.8,96.4,299.5,96.4z"/>
	<path d="M261.6,125.5c0.2,0.2,0.3,0.3,0.5,0.4c0.2,0.2,0.5,0.3,0.6,0.7c0.1,0.3,0.4,0.6,0.6,0.8c0.2,0.2,0.4,0.4,0.4,0.8
		c0.1,1,0.1,2,0.1,3c0,0.6,0,1.2,0,1.8c0,2.9,0,5.8,0,8.7c0,0.5-0.2,1,0,1.5c0.3,1.1-0.1,2-0.5,3c-0.6,1-1.5,1.5-2.6,1.6
		c-1.2,0.1-2.4,0.2-3.6,0.2c-0.3,0-0.6-0.1-0.9-0.1c-0.5,0-0.9,0.1-1.5,0.1c-0.1,0-0.2,0-0.2,0c-0.5,0-1.1-0.1-1.6-0.1
		c-0.3,0-0.6-0.1-0.9-0.1c-0.3,0-0.7-0.1-1,0c-0.5,0.1-1,0-1.5,0s-0.9-0.1-1.5-0.1c-0.1-0.3-0.2-0.8-0.1-1.3c0-0.1,0-0.2,0-0.3
		s-0.1-0.1-0.1-0.2c0-0.5,0-1,0-1.5c0-0.1,0-0.3,0-0.3c0-1,0-1.9,0-3c0-1.5,0-3,0-4.5c0-0.9,0-1.8,0.1-2.7c0-1.1,0.1-2.2,0.1-3.3
		c0-0.6,0.1-1.2-0.4-1.7c-0.3-0.3-0.5-0.8-0.7-1.1c-0.1-0.1-0.1-0.2-0.1-0.3c0-1.4,0-2.7,0.1-4.1c0-0.1,0.1-0.3,0.1-0.3
		c0.1-0.2,0.2-0.3,0.3-0.5c0.3-0.1,0.7,0.1,0.9-0.4c0.1-0.3,0.1-0.3-0.1-0.5c-0.2-0.3-0.3-0.4-0.2-0.8c0.1-0.8,0.1-1.5,0.1-2.3
		c0-0.1,0-0.2,0-0.2c0.4-0.2,0.2-0.5,0.2-0.8c0-0.4-0.2-0.8-0.2-1.3c0-1.6,0-3.3,0-4.9c0-0.9-0.2-1.9,0-2.7c0.1-0.7-0.2-1.4,0.1-2.1
		c0.1-0.2,0.2-0.3,0.4-0.3c1.5,0,3,0,4.5,0c0.1,0,0.1,0,0.2,0c0.5,0.3,1,0,1.5-0.1c0.2,0,0.2-0.1,0.4,0c1,0.2,2,0,3.1,0.1
		c0.9,0,1.7-0.1,2.6,0c0.8,0,1.6,0.1,2.2,0.5c0.4,0.3,0.7,0.7,0.9,1.1c0.1,0.2,0,0.5,0,0.8c0,2,0,4,0,6c0,0.6,0.1,1.1,0,1.7
		c0,0.4-0.2,0.8-0.3,1.2c0,0.1,0.1,0.3,0.1,0.4l0.1,0.1c0,0.6-0.1,1.3-0.1,1.9c0,0.1,0,0.3,0,0.3c0.4,0.7,0.2,1.4,0.2,2.1
		c-0.5,0.6-0.2,1.5-0.7,2.1c-0.4,0.4-0.5,1-1.3,0.9C261.6,125.4,261.6,125.5,261.6,125.5z M257.3,137.6c-0.2-0.1-0.2-0.3-0.2-0.6
		c0-0.4-0.1-0.8-0.1-1.3c0-0.3-0.1-0.6-0.1-0.9c0-0.6,0.1-1.2,0.1-1.8c0-0.9-0.1-1.9-0.1-2.8c0-0.1,0-0.2,0-0.3
		c0.2-0.4-0.1-0.8-0.2-1c-0.3,0.1-0.5,0.1-0.9,0.2c0,0-0.1,0.1-0.2,0.3c-0.2-0.1-0.3-0.2-0.5-0.3c-0.3-0.2-1,0.1-1,0.5
		c-0.1,0.5-0.2,1,0,1.5c0.1,0.2,0,0.3-0.1,0.5c-0.2,0.5-0.2,1,0,1.5c0.1,0.2,0,0.3,0,0.5c-0.1,0.4-0.1,0.8-0.2,1.4
		c0,0.1,0.1,0.2,0.1,0.3s0,0.2,0,0.3c0,0.3-0.1,0.8-0.1,1.1c0,0.8,0,1.4,0,2.2c0,0.3,0,0.4,0,0.7c0,0.3,0,0.8-0.1,1.1
		c0,0.3-0.1,0.5-0.2,0.7c-0.2,0.6,0.3,0.7,0.6,0.8c0.2,0.1,0.4,0,0.7-0.1c0.2,0,0.6,0,1,0c0.2,0.3,0.5,0.3,0.7,0.2
		c0.2-0.2,0.3-0.6,0.4-0.8c0-0.2-0.1-0.3-0.1-0.5c0-0.8,0-1.6,0-2.5C257.1,138,257.2,137.8,257.3,137.6z M254,118.7
		C254,118.7,254,118.7,254,118.7c0.1,0.3,0.1,0.5,0.2,0.8c0,0.2,0.1,0.3,0.1,0.4c0,0.8,0,1.6,0,2.5c0,0.3,0.2,0.3,0.4,0.3
		c0.3,0,0.5,0.2,0.9,0.2c0.2,0.1,0.5,0,0.7,0c0.5,0.2,0.9-0.1,1.2-0.3c-0.1-0.8-0.2-1.8-0.3-2.6c0-0.1,0-0.2,0-0.3
		c0.1-0.3,0.2-0.6,0.2-0.8c0-1.4,0.2-2.8,0.1-4.1c0-0.7,0-1.4,0.1-2.1c0-0.1,0-0.3-0.1-0.3c-0.3-0.3-0.7-0.4-1.1-0.3
		c-0.5,0.1-0.9,0.2-1.3,0.1c-0.4,0-0.5,0.2-0.5,0.4c0,0.2,0,0.4,0,0.7c0,0.6,0.1,1.2,0,1.9c-0.1,1.1-0.2,2.2-0.4,3.3
		C253.7,118.3,253.9,118.5,254,118.7z"/>
	<path d="M233.1,141.7c0.5-0.4,1.2-0.5,1.8-0.4c0.2,0,0.3,0,0.5,0c0.2,0,0.5-0.1,0.5,0.3c0,0.1,0.3,0.2,0.5,0.2
		c0.1,0,0.2-0.2,0.2-0.3c0.1-0.5,0.2-0.9,0.2-1.4c0-0.7,0-1.4,0-2c0-0.7,0.1-1.4,0.2-2.1c0-0.3-0.1-0.8-0.1-1.1
		c-0.1-0.5-0.1-0.5,0.5-0.4c-0.3-0.3-0.7-0.5-0.6-1c0.1-0.4,0-0.8,0.4-0.9c0-0.4,0-0.8,0-1.3c0-0.2-0.2-0.3-0.1-0.5
		c0.2-0.7,0-1.3-0.2-1.9c-0.1-0.3,0-0.6,0.1-0.9c0-0.3,0.1-0.6,0.1-0.8c0-0.6-0.1-1.2-0.2-1.8c0-0.3-0.2-0.4-0.2-0.7
		c0.2-2.1,0.2-4.3,0.1-6.4c0-0.6,0.1-1.3,0-1.9c0-1-0.2-2,0.1-3c0.1-0.2,0-0.4,0-0.6c-0.1-0.7-0.1-1.4-0.2-2.1
		c0-0.2,0.1-0.4,0.1-0.6c0-0.1,0.1-0.2,0-0.3c-0.3-0.7-0.1-1.3-0.1-1.9c0-0.3,0-0.7,0.1-1.1c0.2,0,0.3,0.1,0.5,0.2l0.1-0.1
		c-0.1-0.1-0.2-0.2-0.3-0.3c0.1-0.1,0.2-0.2,0.2-0.3v0.1c0.5,0,0.9-0.1,1.4,0c0.9,0.2,1.8-0.1,2.6,0.1c0.5,0.1,0.9,0,1.3,0.1
		c0.2,0.1,0.4,0.3,0.7,0.4c0.1,0.3-0.4,0.7,0.2,0.8c-0.1,0.3-0.2,0.7-0.2,1c0,0.3,0.2,0.7,0.3,1c-0.1,0.1-0.2,0.2-0.3,0.3
		c0.1,0.1,0.1,0.3,0.2,0.3c-0.4,0.3-0.5,0.6-0.2,1c0.4,0.6,0.4,1.1,0.2,1.8c0,0.1,0,0.3,0,0.3c0,0.6,0,1.2,0,1.8
		c0,1.4,0,2.7,0.1,4.1c0.1,0.9,0.1,1.8,0,2.7c0,0.1,0,0.2,0,0.3c0.1,0.3,0.2,0.8,0.2,1.1c0,0.5,0,1,0,1.4c0,0.7,0,1.4,0,2.1
		c0,0.5,0.2,1,0,1.5c-0.2,0.4,0,0.8,0,1.2c-0.1,0.8-0.2,1.5-0.3,2.3v0.1c0.2,0.5,0.2,1,0.1,1.6c0,0.2,0,0.3,0,0.5
		c0,0.6,0,1.2-0.1,1.8c-0.1,0.8-0.2,1.7-0.2,2.5v0.1c0.1,0.4,0.2,0.9,0.1,1.4s0.1,0.8,0.1,1.2c0,1,0,2-0.2,3.1
		c-0.2,1.6-1.7,2.8-3.1,2.8c-0.4,0-0.7,0.1-1.1,0.1H239c-0.5-0.6-1.2,0-1.7-0.1c-0.6-0.1-1.2-0.1-1.9-0.2c-0.1,0-0.1,0-0.2,0
		c-0.8,0.1-1.6,0.2-2.4,0.3c-0.1,0-0.2,0-0.2,0c-0.5-0.1-1.1-0.2-1.3,0.3c-0.4,0.1-0.7,0.1-0.9,0.1c-0.4,0-0.7,0-1.1,0
		s-0.9,0-1.2-0.1c-0.1,0-0.2-0.1-0.3-0.1c-0.4-0.3-0.8-0.5-1.1-0.8c-0.2-0.3-0.5-0.5-0.5-0.8c-0.4-1.4-0.5-2.8-0.4-4.2
		c0-1.8,0-3.6,0-5.4c0-0.3,0.2-0.6,0.2-0.8c0-0.1,0.1-0.2,0.1-0.3c0-0.8-0.1-1.6-0.2-2.4c0-0.7,0.1-1.4,0.1-2c0-0.3-0.1-0.5-0.1-0.8
		c0-1.1-0.1-2.2,0-3.3c0.1-0.6-0.2-1.3,0-1.8c0.2-0.8-0.1-1.4,0.1-2.1c0.2-0.8,0-1.6-0.1-2.4c0-0.3,0.1-0.4,0.1-0.7
		c0-0.1,0.1-0.3,0-0.3c-0.2-0.3-0.1-0.7,0-1c0.1-0.3,0-0.7,0-1c0-0.5,0.1-1,0.1-1.5c0-0.3,0-0.7-0.1-1.1c0-0.3,0.1-0.5,0-0.7
		c-0.2-0.5,0.2-0.9,0.1-1.4c-0.1-0.3-0.2-0.6-0.2-0.9c0.1-0.8,0.2-1.7,0.2-2.5c0-0.6-0.1-1.1-0.1-1.7c0-0.3,0.1-0.7,0.2-1
		c0.1-0.2,0.2-0.3,0.5-0.3c0.5,0.1,1.1,0.2,1.6,0.3c0.1,0,0.2,0,0.2-0.1c0.4-0.3,0.5-0.3,0.7,0.2c0.5-0.6,1.2-0.3,1.8-0.2
		c0.1,0,0.2,0.1,0.3,0c0.6-0.3,1,0.1,1.5,0.4c-0.5,0.1-0.4,0.3-0.4,0.7c0.1,0.6,0,1.3,0,1.9c0,0.3,0.1,0.8,0.1,1.1
		c0,0.4-0.1,0.9-0.1,1.4c0,0.3,0.1,0.6,0.1,0.8c0,1.6,0,3.2,0,4.8c0,0.4,0.1,0.8,0.1,1.2c0,0.8,0,1.6,0,2.4c0,0.5,0.1,0.9,0.1,1.4
		c0,1.5,0.1,3.1,0,4.7c0,1-0.2,1.9-0.2,3c0,0.1,0,0.2,0,0.2c0.1,0.5,0.2,1.1,0.2,1.6c0,1.4-0.1,2.8-0.1,4.2c0,0.8,0,1.6-0.1,2.5
		c-0.1,0.5,0.1,1-0.2,1.5c-0.2,0.3-0.1,0.8,0.1,1C232.5,141.4,232.9,141.5,233.1,141.7z"/>
	<path d="M267.6,125c0-0.3-0.1-0.6-0.1-0.9c0-0.3,0.1-0.6,0.1-0.8c-0.1-1.3-0.2-2.6-0.2-3.9c0-0.8,0-1.4-0.1-2.2
		c-0.1-0.5,0-0.9-0.1-1.4c0-0.2-0.1-0.4-0.1-0.6s-0.1-0.3-0.1-0.5c0-0.9,0.1-1.9,0.2-2.8c0.1-0.9,0.2-1.9,0.3-2.9
		c0.1-0.3,0.2-0.6,0.4-0.8c0.5-0.8,1.2-1.2,1.9-1.6c0.1,0,0.2-0.1,0.2-0.1c0.5,0.3,1-0.1,1.6,0c0.5,0.1,1.1,0,1.6,0
		c0.5,0,1,0.1,1.5,0.2c0.1,0,0.2,0,0.3,0c0.5-0.1,1-0.1,1.5-0.2c0.1,0,0.1,0,0.2,0c0.5,0.3,1.1,0,1.6,0c0.9,0.1,1.9,0.1,2.7,0.2
		c0.5,0,1.1,0.1,1.6,0.4c0.9,0.6,1.2,1.4,1.2,2.4c-0.1,0.7-0.1,1.4-0.2,2.1c0,0.3,0.1,0.5,0.1,0.8c0,0.1,0.1,0.2,0,0.2
		c-0.1,0.6-0.1,1.2-0.2,1.8c0,0.4,0,0.8,0,1.3s-0.1,0.8-0.2,1.3c-1.1,0-2.1,0-3,0c-0.7,0-1.3-0.1-2-0.2c-0.4,0-0.5-0.2-0.4-0.6
		c0-0.2,0.1-0.3,0.1-0.3c-0.1-1.1-0.1-2.2-0.1-3.2c-0.2-0.1-0.5-0.3-0.7-0.3c-0.1,0-0.2,0-0.2,0c-0.8,0.4-1.6,0.3-2.3,0.2
		c-0.9-0.2-1.2,0.2-0.9,1c0.2,0.7,0.3,1.3,0.2,1.9c-0.1,0.3,0.1,0.5,0.1,0.8s0,0.6-0.1,0.8c0,0.1-0.1,0.2,0,0.3
		c0.3,0.7,0.2,1.4,0.1,2.1c-0.1,0.8,0,1.7,0,2.5c0,0.5,0,1.1,0.1,1.6c0.1,0.7,0,1.4-0.1,1.9c-0.1,0.4,0.1,0.8,0.1,1.3
		c0,0.1,0.1,0.1,0,0.2c-0.1,0.6-0.1,1.1-0.2,1.7c0,0.1-0.1,0.2,0,0.3c0.2,0.7,0,1.3,0,1.9c0,0.6,0,1.2,0.1,1.8
		c0,0.3-0.1,0.5-0.1,0.7c0,0.5,0.1,1,0.1,1.5c0,0.7,0,1.4,0,2c0,0.6,0.1,1.2,0.1,1.8c0,0.5,0,0.9-0.1,1.4c0,0.4-0.1,0.8-0.1,1.2
		c0,0.2-0.1,0.3-0.2,0.4c-0.1,0.2-0.2,0.3-0.4,0.5c0.2-0.1,0.2-0.1,0.3-0.1c0.5,0.1,1.1,0.2,1.6,0.3c0.1,0,0.2,0,0.2,0
		c0.2-0.3,0.5-0.1,0.8-0.3c0.1,0,0.2,0,0.2,0.1c0.2,0.4,0.7,0.3,1,0.3c0.2,0,0.4-0.3,0.5-0.5c0.1-0.3,0.1-0.5,0.1-0.8
		c0-0.1,0-0.2,0-0.2c-0.5-0.4-0.2-0.9-0.2-1.4c0-0.3-0.1-0.5-0.1-0.8c0-0.1-0.1-0.2,0-0.3c0.2-0.4,0-0.9,0-1.4c0-0.5,0-1,0-1.5
		c0-0.8,0.1-1.8,0.1-2.6c0-0.3-0.1-0.4-0.1-0.7c0-0.3,0-0.7,0-1c0-0.1,0-0.2,0-0.2c0-0.3-0.1-0.7-0.1-1.1c0-0.3,0-0.4-0.1-0.7
		c0-0.1-0.2-0.1-0.2-0.2c-0.4-0.3-0.8-0.5-1.1-0.8c-0.1-0.1,0-0.4,0-0.7c0-0.4,0-0.8,0.1-1.3c0-0.1,0-0.2,0-0.2
		c-0.2-0.9,0.2-1.8,0.2-2.7c0-0.3,0.2-0.4,0.5-0.4c0.3,0.1,0.7-0.1,1.1-0.1c0.2,0,0.5,0.1,0.7,0.1c0.1,0,0.2,0,0.2,0
		c0.2-0.3,0.5-0.2,0.8-0.1c0,0,0.1,0,0.2,0c0.5,0,1.2-0.1,1.7-0.1c0.7,0,1.4,0,2,0c0.1,0.3,0.2,0.5,0.3,0.8c0.2,0.4,0.3,0.9,0.2,1.4
		c-0.1,0.5,0,1,0.1,1.6c0,0.2,0.1,0.3,0.1,0.5c0,0.5,0,1-0.1,1.5c0,0.3-0.2,0.7-0.2,1.1c0,0.2,0,0.3,0,0.4c0.1,0.3,0.2,0.7,0.2,1
		c0,1,0.1,2,0,3c-0.1,0.8-0.1,1.5-0.1,2.4c0,0.3,0.1,0.6,0.1,0.8c0,0.4-0.1,0.8-0.1,1.3c0,0.5-0.3,1.1,0,1.6
		c0.1,0.1,0.1,0.2,0.1,0.3c0,0.7-0.1,1.4-0.1,2.1c0,0.2,0.1,0.3,0.1,0.5c0,0.9-0.1,1.9-0.4,2.7c-0.3,0.8-0.8,1.4-1.6,1.7
		c-1,0.4-2.1,0.6-3.3,0.5c-0.5-0.1-1,0-1.5,0c-0.3,0-0.5,0.1-0.8-0.1c-0.1-0.1-0.2,0-0.3,0c-0.3,0.1-0.6,0.2-0.9,0
		c-0.2-0.1-0.5,0-0.8,0c-0.2,0-0.3,0-0.5,0c-0.5,0-1,0-1.5,0c-0.5,0-1.2-0.1-1.7,0c-0.4,0-0.8-0.1-1.2-0.2c-0.7-0.3-1.4-0.6-1.6-1.4
		c0,0,0-0.1-0.1-0.1c-0.6-0.3-0.5-1-0.6-1.5c-0.1-0.3-0.1-0.5-0.2-0.8c0-0.2,0-0.3,0.1-0.5c0-0.2,0.1-0.3,0-0.4
		c-0.2-0.7-0.2-1.4,0-2.1c0-0.1,0-0.2,0-0.3c0-0.8,0-1.7,0-2.5c0-0.6-0.1-1.2-0.2-1.8c0-0.3,0-0.4,0-0.7c0-0.8,0.2-1.4,0.1-2.2
		c-0.1-0.6-0.1-1.3,0-1.9c0.1-0.8,0.2-1.6,0.2-2.5c0-0.3-0.1-0.4-0.1-0.7c0-0.3,0-0.7,0-1c-0.1-0.6,0.2-1.2,0.2-1.8
		C267.9,125.4,267.7,125.2,267.6,125z"/>
	<path d="M211.8,131.6c-0.1,0.7,0.3,1.2,0.2,1.8c0,0.1,0,0.2,0,0.3c0,0.4,0.1,0.8,0.1,1.2c0,0.8,0,1.6,0,2.5c0,1.1,0,2.1,0,3.2
		c0,0.3-0.1,0.5-0.2,0.8c0,0.2-0.1,0.3,0,0.4c0.3,0.4,0.2,0.9,0.2,1.4c0.1,0.8,0,1.7,0,2.5c0,0.3,0,0.7,0,1.1
		c-0.5,0.1-0.5,0.3-0.3,0.8c-0.7,0.2-1.2,0.5-1.9,0.3c-0.6-0.1-1.2,0-1.9,0c-0.5,0-1.2-0.1-1.7-0.1c-0.1,0-0.2,0-0.2-0.1
		c-0.1-0.5-0.7-0.8-0.7-1.4c0-1.6,0-3.3,0-4.9c0-1.9,0.1-3.8,0.1-5.7c0-0.7-0.2-1.4-0.2-1.9c0-0.1,0-0.3,0-0.3
		c0.2-0.4,0.2-0.8,0-1.4c0-0.2,0.1-0.3,0.2-0.5c0.1-0.2,0.2-0.4,0.2-0.5c-0.2-0.2-0.4-0.4-0.7-0.3c-0.1,0-0.2,0.1-0.3,0.1
		c-0.1-0.6-0.2-1.1-0.2-1.6c0-1-0.1-2,0-3c0.1-0.7,0.2-1.4,0.8-1.9c0.1-0.1,0.1-0.3,0.1-0.3c0-1.9,0-3.9,0-5.8c0-1.5,0-3,0-4.6
		c0-0.7,0-1.3,0-1.9c0-0.9,0-1.9,0-2.8c0-0.3-0.1-0.4-0.1-0.7c0-0.1,0-0.3,0-0.3c0-0.3,0.1-0.6,0.1-0.9c0-0.4,0.4-0.8,0.9-0.8
		c0.8,0.1,1.6,0.3,2.4,0.1c0.7-0.2,1.5,0.3,2.1-0.1c0.5,0.3,1.2-0.1,1.8,0.1c0.5,0.2,1.2,0,1.9-0.1c0.5-0.1,1.1,0,1.6,0.1
		c0.4,0.1,0.8,0.1,1.2,0.1c0.1-0.3,0.2-0.3,0.5-0.2c0.3,0.1,0.6,0.1,0.9,0.1c0.2,0,0.5,0.1,0.8,0.1c0.2,0,0.3-0.1,0.5,0
		c1.3,0.3,2,0.9,2.1,2.4c0.1,0.8,0.1,1.5,0.1,2.4c0,1.3-0.1,2.5-0.1,3.8c0,0.3,0,0.8,0,1.1c0,0.5,0,1,0,1.5c0,0.3,0.1,0.5,0.1,0.8
		c0,1.7,0,3.3,0,5c0,0.5-0.1,1.1-0.2,1.6c0,0.1,0,0.1,0,0.2c0.4,1.1,0.2,2.3,0.2,3.4c-0.1,0.8-0.4,1.7-1.2,2.1
		c-0.1,0-0.2,0.2-0.2,0.1c-0.3-0.2-0.4,0-0.5,0.3c0,0.1-0.2,0.1-0.2,0.1c-0.5,0.1-1,0.2-1.6,0.2c-0.5,0-0.9,0-1.5,0
		c-1.4,0-2.8,0-4.1,0C212.1,131.4,212,131.5,211.8,131.6z M215,121.7c0.1-0.1,0.2-0.3,0.2-0.3c0-0.6-0.1-1.2-0.1-1.8
		c0-0.2-0.1-0.3-0.1-0.5c0-0.3,0-0.8,0-1.1c0-0.2,0-0.3,0-0.4c0-0.3-0.1-0.7-0.1-1c0-0.8,0-1.6,0-2.5c0-0.3-0.2-0.8,0.2-1.1
		c0,0,0-0.1,0-0.2c-0.1-0.3-0.2-0.4-0.2-0.6c-0.4-0.1-0.6-0.2-0.9-0.2c-0.5-0.1-1.1-0.1-1.6-0.1c-0.3,0-0.7,0.6-0.5,0.8
		c0.4,0.6,0.1,1.2,0.1,1.8c0,0.4,0,0.9,0,1.4s0.2,0.9,0.1,1.4c-0.2,0.6-0.1,1.2-0.1,1.8c0,1.3,0.1,2.5,0.1,3.9c0,0.3,0,0.4-0.2,0.6
		c-0.2,0.1-0.2,0.3-0.3,0.6c0.4,0.3,0.8,0.4,1.2,0.6c0.3,0.1,0.6,0,0.9,0c0.5,0,1-0.1,1.5-0.1c0-0.3,0-0.6,0.1-0.9
		c0.2,0.3,0.5,0.4,0.6,0.6c0,0,0.1,0,0.1-0.1c-0.1-0.3-0.2-0.7-0.2-1.1c-0.1,0.3-0.2,0.3-0.2,0.4C214.9,123.2,214.9,122.5,215,121.7
		z M205.8,117.3c0.1-0.2,0.1-0.4,0.2-0.7C205.5,116.8,205.6,117.1,205.8,117.3z"/>
	<path class="st2" d="M205.8,117.3c-0.2-0.3-0.4-0.5,0.2-0.7C205.9,116.9,205.9,117.2,205.8,117.3z"/>
</g>
</svg>
