<?xml version="1.0" encoding="utf-8"?>
<!-- Generator: Adobe Illustrator 26.2.1, SVG Export Plug-In . SVG Version: 6.00 Build 0)  -->
<svg version="1.1" id="Layer_1" xmlns="http://www.w3.org/2000/svg" xmlns:xlink="http://www.w3.org/1999/xlink" x="0px" y="0px"
	 viewBox="0 0 300 197.2" style="enable-background:new 0 0 300 197.2;" xml:space="preserve">
<style type="text/css">
	.st0{fill:url(#SVGID_1_);}
	.st1{fill:#FDBC02;}
	.st2{fill:#FFFFFF;}
</style>
<path d="M40.3,27.1v144.3H14.9V55.1H0V27.2h40.3V27.1z"/>
<path d="M56,108.1c-4.9-5.3-7.3-11.6-7.3-19.1V61.5c0-7.5,2.4-13.7,7.3-19.1s10.6-8,17.4-8c9.4,0,16.8,4.8,21.8,14.6l-5.9,3.8
	l-5.9,3.8c-2.5-4.6-5.7-7-10-7c-2.9,0-5.5,1.2-7.6,3.5c-2.2,2.4-3.2,5.1-3.2,8.3v27.4c0,3.2,1.1,6,3.2,8.3c2.2,2.4,4.6,3.5,7.6,3.5
	c0.8,0,1.6-0.1,2.8-0.3c1.3-0.3,2.5-0.6,3.6-0.9c2.9-1.1,4.4-2.5,4.4-4.2V82.5H70.1V67.4h27.8V114h-6.2l-4-2.3
	c-4.3,2.6-9.2,3.9-14.4,3.9C66.6,116.1,60.9,113.4,56,108.1z"/>
<path d="M146.7,42.4c4.7,5.3,7.1,11.6,7.1,19.1V89c0,7.5-2.4,13.7-7.1,19.1c-4.9,5.3-10.6,8-17.4,8c-6.7,0-12.5-2.6-17.4-8
	c-4.9-5.3-7.3-11.6-7.3-19.1V61.5c0-7.5,2.4-13.7,7.3-19.1c4.9-5.3,10.6-8,17.4-8C136.1,34.5,141.8,37.2,146.7,42.4z M121.6,53.1
	c-2.2,2.4-3.2,5.1-3.2,8.3v27.5c0,3.2,1.1,6,3.2,8.3c2.2,2.4,4.6,3.5,7.6,3.5c3,0,5.5-1.2,7.6-3.5c2.2-2.3,3.2-5.1,3.2-8.3V61.5
	c0-3.2-1.1-6-3.2-8.3c-2.1-2.3-4.6-3.5-7.6-3.5C126.3,49.7,123.7,50.9,121.6,53.1z"/>
<g>
	
		<linearGradient id="SVGID_1_" gradientUnits="userSpaceOnUse" x1="115.2368" y1="1013.7154" x2="139.0224" y2="1049.4465" gradientTransform="matrix(1 0 0 1 0 -880)">
		<stop  offset="0" style="stop-color:#636362"/>
		<stop  offset="1" style="stop-color:#000000"/>
	</linearGradient>
	<ellipse class="st0" cx="131.2" cy="157.6" rx="16.8" ry="18.5"/>
	<g>
		<path class="st1" d="M128.2,154.5v-6h5.7v6h5.5v6.3h-5.5v5.9h-5.7v-5.9h-5.5v-6.3H128.2z"/>
	</g>
</g>
<g>
	<path d="M176.4,85.8c-0.7,0-1.5,0-2,0c-0.7,0-1.5,0-2.2,0c-0.2,0-0.3-0.3-0.5-0.5c-0.2,0-0.3,0.2-0.5,0.2c-0.3-0.9-0.5-1.9-0.5-2.9
		c0.2-0.6,0-1.3,0-1.9c0-0.6,0.2-1.1,0-1.8c-0.2-0.6,0.2-0.9,0.7-1.1h0.2c0.5-0.5,1-0.6,1.7-0.6c0.5,0,1.2,0,1.7,0
		c0.5,0,0.7-0.2,1.2-0.2c0-0.3,0-0.5,0.2-0.6c0-0.2,0-0.3,0-0.3c0-0.6-0.2-1.3-0.2-1.8c0-0.3,0-0.6,0-0.9c0-1.4,0-2.9,0-4.4
		c0-0.2,0.2-0.5,0.2-0.6c0-0.3,0-0.6,0-1.1c0-0.3,0-0.6,0-0.9c0-0.6,0.5-1.4,0-2c0,0,0-0.2,0-0.3c0-0.5,0.2-0.9,0.2-1.4
		c0-0.6,0-1.4,0-2v-0.2c-0.3-1.6,0.2-3.1,0.2-4.8c0-1.1-0.2-2.2-0.2-3.3c0-0.3,0.2-0.6,0.2-0.8c0-3,0-6.2,0-9.2v-0.2
		c-1.6,0-3.3-0.2-5-0.2c0.3-0.6,0.2-0.8-0.3-1.1c-0.2,0-0.2-0.3-0.2-0.5c0-0.3,0-0.6,0-0.8c0-0.6,0-1.3,0-2c0-0.3-0.2-0.5-0.2-0.8
		c0-0.6,0-1.1,0.2-1.8c0-0.3,0-0.6,0.5-0.8l0.2-0.3c0.5-0.2,0.8-0.2,1.3-0.3c0.2,0.6,0.7,0.2,1.2,0.3h0.2c0.5-0.6,0.8-0.2,1.5,0
		c0.3,0.2,0.5,0.2,1,0.3c0-0.3,0.3-0.6,0.2-0.9c-0.3-1.3,0.2-2.7,0-4c0-0.6,0-1.3,0-2c0-0.5-0.2-0.9-0.2-1.3v-0.2
		c0.3-0.8,0-1.4,0-2.2c0-0.5,0-1.1,0.2-1.4c0.3-0.5,0.2-0.9,0.5-1.4c0.5-0.9,1-1.4,1.9-1.6c1.2-0.3,2.3-0.5,3.5-0.5c2.3,0,4.6,0,7,0
		c0.5,0,0.8,0.2,1.5,0.3c0.2,0,0.3,0.2,0.3,0c0.7-0.5,1.3,0.2,2,0c0.7-0.2,1.3-0.2,2-0.2c0.8,0,1.7,0,2.6,0c1.7,0,3.3,0,5,0
		c0.7,0,1.6,0.2,2.3,0.2c1,0,2-0.2,3.2-0.2h0.2c0.5,0.3,0.8,0.2,1.2,0c0.3,0,0.5,0,0.8,0c0.3,0,0.5,0,0.8,0c0.7,0,1.5-0.2,2.2,0.2
		c0.2,0,0.3,0,0.5,0c0.5,0,1.3-0.2,1.9-0.2c0.3,0,0.5,0.2,0.7,0.2c0.5,0,0.7-0.2,1.2-0.2c0.3,0,0.5,0.2,0.8,0.2c0.2,0,0.5,0,0.5,0
		c0.7,0,1.3,0,2,0c1.7,0,3.5,0,5.2,0c0.7,0,1.5,0,2,0.2s1.3-0.2,2-0.2c1.7,0,3.5,0,5.2,0c1.2,0,2.3,0,3.5,0c2.5,0,4.9,0.2,7.3,0
		c0.5,0,1,0.3,1.5,0.5c0.5,0.2,0.8,0.2,1.3,0c0.7-0.3,1.5-0.5,2.2-0.2c0,0,0,0,0.2,0c0.5-0.2,1.3-0.2,1.9,0c0.5,0,0.8-0.2,1.3-0.2
		c1.2,0,2.2,0,3.3,0c0.7,0,1.3-0.2,2-0.2c0.5,0,0.7,0.2,1.2,0.2c0.5,0,0.8-0.2,1.2-0.2c1.2,0,2.2-0.2,3.3,0c1.5,0.2,2.9-0.2,4.5,0
		c0.7,0,1.6,0.2,2.3,0.2c0.3,0,0.5,0.2,0.7,0c0.8-0.3,1.6,0.2,2.3,0.2c0.2,0,0.3,0,0.3,0c0.7-0.5,1.5,0,2.2-0.2
		c0.7-0.2,1.5-0.2,2.2-0.2c1,0,2,0.2,3,0.3c0.7,0,1.3,0,2,0c0.2,0,0.5,0,0.5,0c0.3,0,0.5,0,0.8,0c0.2,0,0.3,0,0.5,0
		c0.3,0.2,0.5,0.3,0.8,0.3c0.2,0,0.3,0.2,0.3,0c0.8-0.3,1.7,0,2.6-0.2c0.5,0,1,0.2,1.3,0.6c0.5,0.3,0.8,0.6,1,1.1
		c0.3,0.5,0.3,1.1,0.5,1.8c0.5,1.1,0.2,2,0.2,3.1c0,0.9,0.2,1.9,0.2,2.9c0,0.2,0.2,0.3,0.3,0.6c-0.5,0.5,0,1.1-0.2,1.6
		c0,0.6,0,1.3,0,2c0,0.3,0,0.6,0.3,0.6s0.5,0.2,1,0c0.5,0,0.7-0.3,1-0.3c0.2,0,0.3,0,0.3,0c0.5,0.6,1.2,0.2,1.6-0.3
		c0,0.2,0.2,0.3,0.2,0.5c0.3,0,0.5,0,0.8,0c0.2,0.5,0.5,0.6,0.5,1.1c0,0.2,0,0.2,0,0.3c0,0.8-0.2,1.6-0.2,2.4c0,0.5,0.2,0.9,0.2,1.3
		c0,0.6,0,1.1,0,1.8l-0.2,0.2c-0.3,0.2-0.5,0.5-0.3,0.9c-1.2,0-2,0.2-3,0.2c-0.7,0-1.5,0-2.2,0c-0.2,0-0.3,0.2-0.3,0.3
		c0,0.8-0.2,1.6-0.2,2.4c0,0.2,0.2,0.2,0.2,0.3c0,0.2,0.2,0.2,0.2,0.3c-0.2,0.9,0.3,1.8,0.2,2.7c0,0.2,0,0.5,0,0.6
		c-0.3,0.9-0.2,2-0.2,3c0,0.2,0.2,0.3,0.2,0.5c0,0.3,0.2,0.6,0,0.9s-0.2,0.6-0.2,1.1c0,0.9,0,2,0,3.1c0,0.3,0,0.5,0,0.8
		c0,1.6,0,3.1,0,4.9c0,0.5,0,0.8,0.2,1.3c0,0.2,0,0.5,0,0.6c0,0.9,0.2,1.8,0.2,2.7c0,0.3,0,0.8-0.2,1.1c0,0.2,0,0.3,0,0.3
		c0,0.6,0,1.3,0,1.9s-0.3,1.3,0.3,1.9c0,0,0,0.2,0,0.3c-0.5,0.5-0.2,1.1-0.2,1.6c0,0.3,0.2,0.6,0,0.9c-0.2,0.5,0,1.3,0,1.9
		c0,0.2,0.3,0.3,0.5,0.3c0.5,0,1.3,0,1.9,0c0.8,0,1.9,0.2,2.9,0.2c-0.3,0.6,0,0.8,0.5,1.1c0.2,0,0.2,0.3,0.2,0.5
		c0,0.6,0.2,1.1,0,1.8c-0.2,0.5,0,0.9,0,1.4c0,0.8,0.2,1.6,0,2.4c0,0.5-0.5,0.8-0.7,1.3c-0.3,0-0.5,0-0.8,0c0,0.2-0.2,0.3-0.2,0.3
		c-0.5-0.2-0.8-0.3-1.3-0.5c-0.5,0.6-0.8,0.5-1.5,0.2c-0.2-0.2-0.3-0.2-0.5-0.3c-0.5-0.2-0.7,0-0.7,0.5c0,0.3,0.2,0.6,0,0.9
		c-0.3,0.5,0.3,0.9,0,1.4c0.3,0.9-0.2,1.9,0.2,3c0.2,0.5,0,0.9,0,1.6c0,0.3,0,0.5,0,0.8v0.2c-0.2,1.1-0.2,2.2-0.3,3.1
		c-0.3,1.6-1.2,2.5-2.5,3.1c-0.7,0.3-1.3,0.3-2,0.3s-1.3,0-2,0.2c-0.3,0.2-0.5-0.2-0.8,0c-0.7,0.2-1.6,0-2.3,0c-0.5,0-1,0-1.5,0
		c-0.3,0-0.7-0.2-1-0.2c-0.2,0-0.3,0-0.5,0c-1,0.2-1.9,0.2-2.9,0.3c-0.3,0-0.5-0.2-0.7-0.2c-0.7,0-1.5,0.2-2.2,0.2
		c-0.5,0-0.8,0-1.3,0c-1,0-2-0.2-3-0.2c-1.2,0-2.5,0-3.6,0c-1,0-2,0-2.9,0c-1.3,0-2.5,0-3.8,0c-1.2,0-2.3,0-3.5,0
		c-0.7,0-1.3-0.2-2-0.2c-0.5,0-0.8,0.2-1.3,0.2c-1.3,0-2.6,0-3.9,0c-0.2,0-0.2,0-0.3,0c-0.2,0-0.5,0.2-0.5,0.2c-2.3,0-4.6,0-7,0
		c-0.7,0-1.5-0.2-2.2-0.2c-0.2,0-0.3,0-0.5,0c-0.7,0.2-1.5,0.2-2.2,0c-0.7,0-1.5,0-2.2,0c-0.3,0-0.5,0-0.7,0c-0.5,0-1.2,0-1.7,0
		c-0.5,0-1,0-1.6,0c-0.3,0-0.7,0.2-1,0.2c-0.3,0-0.7-0.2-1-0.2H230c-0.5,0-1.2,0.2-1.7,0.2c-1.2,0-2.2,0-3.3,0c-0.2,0-0.3,0-0.3,0
		c-0.3-0.2-0.5-0.2-0.7,0.3c-0.3-0.2-0.5-0.3-0.8-0.5c-0.3-0.2-0.5,0-0.7,0.3c-0.7-0.5-1.3-0.3-2-0.2c-0.2,0-0.3,0-0.5,0
		c-0.3,0-0.5,0-0.7,0c0-0.2,0-0.3-0.2-0.6c-0.5,0.2-0.8,0.3-1.3,0.6c-0.5,0.3-0.8,0.3-1.3,0.2c-0.5-0.2-1.2-0.2-1.7-0.2
		c-0.5,0-0.7,0-1.2,0c-1,0-1.9,0.2-2.9,0.2c-0.5,0-1.2,0-1.7-0.2c-0.2,0-0.3,0-0.3,0c-0.3,0-0.5,0-0.7,0c-0.2,0-0.5,0-0.7,0
		c-0.7,0-1.3,0.2-2,0.2c-0.5,0-0.7,0-1.2,0c-0.2,0-0.5-0.2-0.5-0.2c-0.5,0.3-1.2,0-1.7,0c-0.5,0-1,0-1.6,0.2c-0.7,0-1.5,0.2-2.3,0
		c-0.2,0-0.3,0-0.3,0c-0.7,0.3-1.3,0-2,0s-1.3-0.3-2-0.2c-0.2,0-0.2,0-0.3,0c-1.7,0-3.6,0-5.3-0.2c-0.8-0.2-1.7,0-2.6,0
		c-0.3,0-0.7,0.2-1,0.2c-1.2,0-2.3-0.3-3.6-0.3c-1.2,0-2-0.6-2.7-1.4c-0.7-0.8-1-1.8-1-2.9c0-0.3,0-0.6-0.2-0.9
		c0-0.2,0.2-0.8,0.2-0.9s0-0.5,0-0.6c0-0.6,0.2-1.3,0.2-1.9c0-0.2,0-0.3,0-0.6c0-0.6,0-1.1,0-1.8c0-0.6,0-1.3,0-1.8
		C176.4,86.7,176.4,86.2,176.4,85.8z M286.3,84.3c0-0.2,0.2-0.3,0.2-0.5c0-1.3-0.2-2.4-0.2-3.6c0-1.1,0-2,0-3.1c0-1.8,0-3.5,0-5.3
		c0-0.3,0.2-0.6,0.2-1.1c0-0.9-0.2-1.8-0.2-2.7c-0.2-0.9,0-1.9,0-2.9c-0.2-2,0-4.2,0-6.2c0-0.6,0-1.3,0-1.9c0-0.5,0-1.1,0.2-1.6
		c0.2-0.3,0.2-0.6,0-0.9c-0.2-0.2-0.2-0.5-0.2-0.6c0-2.2,0-4.6,0.2-6.8c0-0.3,0.2-0.6-0.2-0.9c0,0,0-0.2,0-0.3
		c0-0.5,0.2-1.1,0.2-1.6c0-0.8-0.2-1.6-0.2-2.2c0-0.9,0.2-1.8,0.2-2.7c0.2-1.4-0.2-2.9,0-4.2c0.2-0.8-0.2-1.8,0-2.5v-0.2
		c0-0.3-0.2-0.6-0.2-0.9c0-0.8,0.2-1.6-0.5-2c0.2-0.5,0.3-0.8,0.3-1.1s0-0.5,0-0.8c0-0.3-0.2-0.5-0.5-0.5c-0.5,0-1.3,0-1.9,0
		c-0.2,0-0.2,0-0.3,0c-0.5,0.2-1.3,0.2-1.9-0.2c-0.3-0.2-0.5-0.2-0.7-0.2s-0.5,0-1,0c-0.5,0-0.7,0-1.2,0c-0.5,0-0.8,0-1.3,0h-0.2
		c-0.5,0-0.7,0-1.2,0c-0.2,0-0.2,0-0.3,0c-0.3,0-0.5,0.2-0.7,0.2c-0.8,0-1.6,0-2.5,0c-0.5,0-1-0.2-1.6-0.2c-0.2,0-0.3,0-0.5,0
		c-0.5,0-0.8,0.2-1.3,0.2c-0.7,0-1.6,0-2.3,0h-0.2c-0.8,0-1.7,0.2-2.5,0.2c-0.8,0-1.9-0.2-2.7-0.2c-1,0-1.9,0.2-2.9,0.2
		c-2.5,0-4.8,0-7.2,0c-0.5,0-1.2,0.2-1.6,0c-0.7-0.2-1.5,0.3-2-0.2c0,0,0,0-0.2,0c-0.5,0.2-1.3,0.2-1.9,0.2c-0.3,0-0.7,0.2-1,0.2
		c-0.5-0.2-0.8,0-1.3,0.2c0,0-0.2,0-0.2-0.2c-0.2,0-0.3-0.2-0.5-0.2c-1.6,0-3,0-4.6,0c-0.3,0-0.5,0-0.7,0.2c-0.3,0-0.5,0-0.7,0
		c-0.2,0-0.3-0.2-0.5-0.2c-0.5,0.3-1-0.3-1.6,0c-0.5,0.2-1.2,0-1.7,0c-2,0-4,0-6,0c-0.8,0-1.9-0.3-2.7,0.2h-0.2
		c-0.5-0.3-0.8-0.2-1.3-0.2c-0.5,0-1-0.2-1.6,0c-0.7,0-1.3,0.2-2,0c-1.6,0-3.2,0.2-4.8,0c-0.2,0-0.2,0-0.3,0c-1.2,0-2.3,0.2-3.6,0.2
		c-0.5,0-1,0.2-1.6,0.2c-0.2,0-0.3,0-0.5,0c-0.3,0-0.5-0.2-0.7-0.2c-1.3,0-2.6,0.2-3.9,0.2c-0.7,0-1.5,0-2.2-0.2c-0.3,0-0.7,0.2-1,0
		c-0.5,0-0.8-0.2-1.3,0c-0.8,0.2-1.6,0.2-2.5-0.2c-0.2,0-0.3,0-0.5,0c-0.5,0-0.7,0.2-1.2,0.2c-0.5,0-1,0.2-1.5,0.2
		c-0.2,0-0.5,0-0.5,0c-0.3,0-0.5-0.2-0.8-0.2c-0.8,0-1.9,0-2.7,0c-0.5,0-0.7-0.2-1.2-0.3c-0.2,0-0.3,0-0.5,0c-0.5,0-1,0.2-1.5,0.2
		c-0.3,0-0.5-0.2-0.5,0.2c-0.3-0.5-1-0.5-1.9-0.2c0,1.3,0.2,2.7,0.2,4v0.2c-0.3,0.6-0.2,1.1,0,1.8c0.2,0.5,0,0.8-0.2,1.1
		c-0.3,0.5-0.3,0.9-0.2,1.4c0.3,0.5,0.5,1.1,0.5,1.6c0,0.8-0.2,1.6-0.2,2.4c0,0.5,0,0.9,0,1.4c0,1.3,0,2.5,0,3.8c0,0.3,0,0.8,0,1.1
		c0.2,0,0.2,0.2,0.2,0.2c0,0.5,0,0.9,0,1.3v0.2c0,0.6-0.2,1.4-0.2,2c0,0.6,0.2,1.1,0,1.6c0,0.2,0,0.3,0,0.5c0,0.2,0.2,0.3,0.2,0.5
		c0,1.6,0,3.1,0,4.8c0,0.5-0.2,0.9-0.3,1.4c0,0.2,0,0.5,0,0.6s0.2,0.3,0,0.3c-0.2,0.8-0.2,1.6,0,2.2c0,0.3,0,0.5,0,0.8
		c0,0.6-0.2,1.3-0.2,1.9c0,0.5,0,1.1,0,1.6c0,0.3-0.2,0.8-0.2,1.1c0,1.3,0.2,2.4,0.2,3.6c0,0.5-0.2,0.9-0.2,1.4
		c-0.2,0.6,0.3,1.4,0,2l0,0c0.3,0.6,0,1.3,0.2,2c0.2,0.3,0,0.6,0,1.1c0,0.9-0.2,1.8-0.2,2.7v0.2c0,0.5,0.2,1.1,0.2,1.6v0.2
		c0,0.3-0.2,0.8-0.2,1.1c-0.2,0.6,0.2,1.4,0,2c0,0.5,0,0.9-0.2,1.4c0,0.2,0,0.3,0,0.5c0,0.8,0,1.4,0,2.2c0,0.2,0,0.3,0,0.5
		c0,0.5,0,0.9,0,1.4c0,0.3,0,0.6,0.2,0.8c0.2,0.2,0.5,0.2,0.5,0.2c0.1,0,0.3,0,0.3,0c0.5,0,1.3,0.2,1.9,0s1.2,0.2,1.7,0.2
		c0.8,0.2,1.6,0,2.5-0.2c0.2,0.2,0.2,0.2,0.3,0.3c-0.2,0.2-0.3,0.2-0.5,0.3c0,0,0,0.2,0.2,0.2c0.2-0.2,0.5-0.3,0.5-0.3
		c-0.2-0.5,0.3-0.5,0.5-0.5s0.7,0,1,0c0,0.2,0.2,0.3,0.2,0.5c0.2,0,0.2,0,0.3,0c0.5,0,0.7-0.2,1.2-0.2c0.5,0,1.3,0,1.9,0
		c0.8,0,1.6-0.2,2.5,0c0.5,0,0.8-0.2,1.3-0.2c0.8,0,1.6-0.2,2.5-0.2c0.7,0,1.3,0.2,2,0.2c3.6,0,7,0,10.7,0c0.3,0,0.5,0,0.8,0
		c0.5-0.2,0.8-0.3,1.5,0c0,0,0.2,0,0.3,0c0.3,0,0.7,0,1,0c0.5,0.2,0.8,0.2,1.3,0c0.2-0.2,0.5-0.2,0.5,0c0.7,0.2,1.3,0.3,2,0.3
		c0.5,0,1-0.3,1.5-0.2c0.3,0,0.7,0,1,0.2c0.2,0,0.3,0,0.5,0c0.7-0.3,1.3,0,2,0c1.2,0,2.3,0.3,3.3-0.2c0.2,0,0.3,0,0.3,0
		c0.8,0,1.6,0.2,2.5,0.2c0.5,0,1.2-0.3,1.7-0.2c0.2,0,0.3,0,0.5,0c0.2,0,0.3,0,0.5,0c0.3,0,0.5,0,1,0c0.2,0,0.5,0,0.5,0
		c0.5,0,0.8,0.2,1.3,0.2c0.5,0,1.2,0,1.7-0.2c0-0.3,0.3-0.3,0.5-0.3c0.2,0,0.5,0,0.8,0c0.2,0,0.3,0,0.5,0c0.5,0,0.8,0,1.2,0.2
		c0.2,0,0.3,0,0.5,0c0.5,0,1.2,0.2,1.7,0.2c0.2,0,0.2,0,0.3,0c0.7,0,1.5-0.2,2.2-0.2c0.5,0,1,0.2,1.5,0.2c1.2,0,2.5,0,3.6,0
		c1.7,0,3.6,0,5.3,0c0.5,0,0.8-0.2,1.3-0.2c0.2,0,0.3,0,0.3,0c0.2,0,0.3,0,0.5,0c0.2,0,0.3,0,0.3,0c0.5,0,0.8,0,1.2,0
		c0.5,0,1-0.2,1.6-0.2c3,0,6,0,9.1,0c0.3,0,0.5-0.2,0.8-0.2c0.7,0.2,1.5,0.5,2.2,0.2c0,0,0.2,0,0.3,0c1.6,0,3.2,0,4.8,0
		c0.8,0,1.7,0.2,2.6,0.3c0.2,0,0.3,0,0.3,0c0.3-0.3,0.7-0.2,1-0.2s0.5,0,0.8,0c0-0.3,0-0.5,0-0.6c0-1.9,0-3.8,0-5.5
		C286.5,85.1,286.3,84.8,286.3,84.3z"/>
	<path d="M196.8,123.3c-0.7,0-1.5,0-2.2,0c-0.8,0-1.7,0-2.6,0c-0.5,0-0.5-0.2-0.5-0.6s0-0.8,0-1.3c0-0.5-0.2-0.9-0.2-1.6
		c0-0.8,0-1.6,0-2.4c0-0.5-0.2-1.1,0-1.6c0.5-0.8-0.3-1.4,0-2c0-0.2,0-0.3,0-0.5c0-0.6,0-1.1,0-1.8c0-0.6,0-1.4,0-2c0,0,0,0,0-0.2
		c0.3-0.9,0-2,0-3.1c0.3,0,0.7,0,1,0c1.3,0,2.5,0,3.8,0c0.3,0,0.5,0.2,0.5,0.3c0.7,1.8,1.5,3.5,2.2,5.3c0.3,0.6,0.5,1.3,0.8,1.9
		c0.2,0.2,0.3,0.3,0.5,0.6c0.7-1.9,1.3-3.6,1.9-5.5c0-0.2,0.2-0.3,0.3-0.5c0.2-0.3,0.3-0.8,0.5-1.1c0.2-0.6,0.5-1.1,1.3-1.1
		c1.2,0,2.2,0,3.3,0c0.3,0,0.7,0,1,0.2c0,2.9-0.2,5.7,0,8.6c0.2,2.7-0.3,5.5,0.2,8.4c-1.7,0-3.5,0-5.2,0c0-2.2,0-4.2,0-6.5h-0.2
		l-0.2,0.2c-0.7,1.6-1.6,3.3-2.3,4.9c-0.2,0.3-0.3,0.5-0.5,0.8c-0.2,0.3-0.3,0.3-0.5,0c-0.3-0.6-0.5-1.1-0.8-1.8
		c-0.7-1.3-1.3-2.5-2-3.6c0,0-0.2-0.2-0.3-0.2C196.7,119.2,196.7,121.2,196.8,123.3z"/>
	<path d="M228.9,115.7c0-0.6,0-1.3-0.2-2c0-0.3,0.2-0.6,0.5-0.8c0.2-0.2,0.3-0.3,0.3-0.6c0.2-0.6,0.2-1.3,0-1.9
		c-0.2-0.6,0-1.4,0-2.2c0-0.5,0-1.1,0-1.6c0.5-0.6,1.2-0.5,1.7-0.5c0.7,0,1.3,0,2,0c1.5,0,3,0,4.5,0c0.7,0,1.5,0,2.2,0
		c0.5,0,0.7,0.2,1.2,0.2c0.5,0.2,0.7,0.5,0.7,1.1c0,0.5,0.2,0.9,0.2,1.6c0,0.6,0,1.3,0,1.9c0,0.5,0,0.9,0,1.4
		c-0.2,0.5-0.3,0.9-0.5,1.3c-0.2,0.2-0.5,0.3-0.5,0.5c0.5,0.3,0.7,0.6,1,0.9c0.2,0.2,0.3,0.5,0.3,0.6c0,1.6,0,3,0,4.6
		c0,0.5,0,0.9,0,1.4v0.2c-0.5,0.3-0.7,0.9-1.3,0.9c-1,0.2-2,0.3-3,0.3c-2.5,0-5,0-7.5,0c-0.5,0-0.5-0.2-0.5-0.6
		c-0.2-0.6-0.2-1.1,0-1.8c0.2-0.5,0-0.9,0-1.3c0-0.5,0.2-1.1,0.2-1.6c0-0.2,0-0.5-0.2-0.6c0-0.3-0.2-0.5-0.2-0.8
		C229.6,115.9,229.5,115.7,228.9,115.7z M236.7,120.5c0-1.6,0.2-3.1,0-4.6c-0.5,0-0.8,0.2-1,0c-0.5-0.3-0.7,0-1,0.2
		c0,1.4,0,2.9,0,4.2C235.3,120.3,236,120.5,236.7,120.5z M234.6,109.4c0,1.1,0,2.2,0.2,3.3c0,0.2,0.2,0.3,0.3,0.3
		c0.5,0,1.3,0.2,1.9,0.2c0-1.3,0-2.5,0-3.6C236.1,109.4,235.4,109.4,234.6,109.4z"/>
	<path d="M219,106.2c1.5,0,2.9,0,4.3,0c0.5,0,1,0,1.5,0.3c0.3,0.2,0.5,0.6,0.5,1.1c0.2,0.6,0.2,1.3,0.2,1.8c0,0.3,0,0.6,0,0.9
		c0,0.9,0,2-0.2,3c0,0.2,0,0.2,0,0.3c0.2,0.9,0,2,0,3c0,0.6,0.2,1.4,0.2,2c0,1.1-0.2,2.2-0.3,3.1c0,0.3-0.3,0.5-0.5,0.8
		c-0.5,0.5-1.2,0.6-1.9,0.6c-2.6,0-5.2,0-8,0c-0.7,0-1.3-0.3-2-0.6c-0.5-0.2-0.7-0.8-0.7-1.4c0-2,0-4.2,0-6.4c0-0.3-0.2-0.8-0.2-1.1
		c0-0.8-0.2-1.8-0.2-2.5c0-0.6,0-1.1,0.2-1.8v-0.2c-0.3-0.8,0-1.6,0-2.4c0-0.2,0.2-0.3,0.3-0.5c0.7-0.6,1.5-0.6,2.3-0.6
		C216.3,106.3,217.7,106.2,219,106.2z M217.4,109.7c0,3.5,0,7,0,10.4c1,0,2,0,2.9,0c0-3.6,0-7.3,0-10.9
		C219.3,109.4,218.4,109.5,217.4,109.7z"/>
	<path d="M279.1,113c0,0.9,0,1.8,0,2.7c-0.3,0-0.7,0.2-1.2,0.2c-1.3,0-2.6,0-4,0c-0.2,0-0.3,0-0.5,0c0,1.4,0,2.9,0,4.2
		c0,0.3,0.5,0.5,0.7,0.5c1.5,0,2.7,0,4.2,0c0.7,0,1,0.2,1,1.1c0,0.5,0,0.8-0.2,1.3c0,0.2,0,0.3,0.2,0.6c-0.2,0-0.3,0-0.5,0
		c-3.2,0-6.5,0-9.7,0c-0.2,0-0.2,0-0.3,0c-0.7,0-0.7,0-0.7-0.8s-0.2-1.6-0.2-2.5c0-0.2,0-0.2,0-0.3c0.3-1.1,0.2-2.4,0-3.5
		c0-0.3-0.2-0.5-0.5-0.6c-0.2,0-0.3-0.6-0.5-0.9c0-0.3,0.2-0.6,0.2-1.1c0-0.3,0-0.6,0.5-0.6c0.3,0,0.3-0.2,0.3-0.5
		c0-0.3,0-0.5,0-0.8c0-1.4,0-3-0.2-4.4c0-0.2-0.2-0.5-0.2-0.6c0.5,0,1.2-0.2,1.6-0.2c1.7,0,3.5,0,5.2,0c0.5,0,1,0.2,1.6,0.2
		c0.2,0,0.3,0,0.3,0c0.7-0.3,1.5,0,2.2,0c0.2,0,0.5,0,0.5,0.2c0.2,0,0.2,0.3,0.2,0.3c0,0.3,0,0.8,0,1.1c0,0.5-0.2,0.8-0.2,1.3
		c-1.9,0-3.8,0-5.6,0h-0.2c0,0.6-0.2,1.3-0.2,1.9c0,0.3,0,0.6,0,0.9c0,0.3,0.2,0.5,0.5,0.5c0.7,0,1.3,0,2,0c0.2,0,0.3,0,0.3,0
		c0.2,0,0.2,0,0.2,0C277.4,113,278.3,113,279.1,113z"/>
	<path d="M260.7,120.3c1.5,0,2.7,0,4,0c0,0.8,0,1.6,0,2.4c0,0.3-0.7,0.8-1.2,0.8c-0.3,0-0.5,0-0.7,0c-0.2,0-0.3,0-0.3,0
		c-1.2,0-2.2,0-3.3,0c-1,0-2,0-3-0.2c-0.3,0-0.5-0.3-0.5-0.6c0-1.1,0-2.2,0-3.1c0-4,0-7.9,0-11.9c0-0.2-0.2-0.3-0.2-0.6
		c0.2-0.3,0.5-0.6,1-0.5c1.2,0,2.3,0,3.5,0c0.3,0,0.7,0.2,0.7,0.6c0,0.3,0,0.6,0.2,0.9c0,1.3,0,2.5,0,3.8c0,0.6-0.2,1.3,0,1.9
		c0,0.8,0.2,1.8,0.2,2.5c0,0.3,0,0.6,0,0.9C260.8,118.1,260.7,119.2,260.7,120.3z"/>
	<path d="M251.4,108.6c0,4.2,0,8.2,0,12.6c0,0.5-0.2,0.8-0.2,1.3c0,0.2,0.2,0.3,0,0.5c0,0.2-0.2,0.5-0.2,0.6s-0.3,0.2-0.5,0
		c-0.5-0.3-1,0-1.6,0c-0.5,0-1.2,0-1.7,0c-0.3,0-0.5,0-0.8,0c-0.2,0-0.3-0.2-0.3-0.3c-0.2-0.5-0.3-0.9-0.2-1.6c0.2-0.8,0-1.8,0-2.5
		c0-0.3,0-0.8,0-1.1c0-1.3,0.2-2.7,0.2-4c0-0.8,0-1.6-0.2-2.2c0-0.6,0-1.4,0-2c-0.2-0.8,0-1.6,0.2-2.4c0-0.2,0.3-0.5,0.5-0.5
		c0.5-0.2,0.8-0.2,1.2-0.2c0.7,0,1.6,0,2.3,0c0.2,0,0.2,0,0.3,0c0.7,0,0.8,0.2,0.8,0.9C251.4,107.6,251.4,108.1,251.4,108.6
		L251.4,108.6z"/>
	<path d="M298.1,19.1c0.8-0.2,0.8-0.2,1.2,0.8c0,0.2,0.2,0.5,0.3,0.8c0.2-0.5,0.3-0.6,0.3-0.9c0-0.5,0.3-0.6,0.5-0.5
		c0.2,0,0.3,0,0.5,0c0,1.1,0,2,0,3.1c-0.2,0-0.3,0-0.5,0c0-0.5,0-0.9,0-1.4h-0.2c0,0.3-0.2,0.6-0.2,0.9c0,0.3-0.2,0.5-0.5,0.5
		s-0.5,0-0.5-0.3c0-0.2-0.2-0.5-0.3-0.6c0,0.3,0,0.6,0,0.9c-0.3,0-0.5,0-0.7,0C298.1,21.1,298.1,20.2,298.1,19.1z"/>
	<path d="M296.3,22.2c0-0.8,0-1.6,0-2.4c-0.3,0-0.5,0-0.7,0c0-0.3,0-0.5,0-0.6c0.8,0,1.6,0,2.3,0c0,0.2,0,0.5,0,0.6
		c-0.3,0-0.5,0-0.7,0.2c0,0.8,0,1.6,0,2.4C296.8,22.2,296.6,22.2,296.3,22.2z"/>
	<path d="M254.4,57.4c0.2,0.2,0.3,0.3,0.5,0.5c0.3,0.2,0.5,0.3,0.7,0.8c0,0.3,0.5,0.6,0.7,0.9c0.2,0.3,0.5,0.5,0.5,0.9
		c0,1.3,0.2,2.5,0.2,3.6c0,0.6,0,1.4,0,2c0,3.5,0,7,0,10.6c0,0.6-0.2,1.3,0,1.9c0.3,1.3,0,2.5-0.5,3.6c-0.5,1.3-1.6,1.9-2.9,1.9
		c-1.3,0-2.6,0.2-3.9,0.3c-0.3,0-0.7-0.2-1,0c-0.5,0-1,0-1.6,0.2c-0.2,0-0.2,0-0.3,0c-0.5,0-1.2,0-1.7-0.2c-0.3,0-0.7,0-1-0.2
		c-0.5,0-0.7-0.2-1.2,0c-0.5,0.2-1.2,0-1.6,0c-0.5,0-1,0-1.6-0.2c-0.2-0.5-0.3-0.9,0-1.4c0,0,0-0.2,0-0.3v-0.2c0-0.6,0-1.3,0-1.8
		c0-0.2,0-0.3,0-0.5c0-1.3,0-2.4,0-3.6c0-1.8,0-3.6,0-5.3c0-1.1,0-2.2,0-3.3c0-1.3,0.2-2.7,0-4c0-0.6,0-1.4-0.5-2
		c-0.3-0.5-0.5-0.9-0.7-1.4c0-0.2,0-0.2,0-0.3c0-1.6,0-3.3,0-4.9c0-0.2,0-0.3,0.2-0.3c0.2-0.2,0.2-0.3,0.3-0.6c0.3-0.2,0.8,0,1-0.5
		c0.2-0.3,0.2-0.5,0-0.6c-0.2-0.3-0.3-0.5-0.3-0.9c0.2-0.9,0-1.9,0.2-2.7v-0.2c0.5-0.3,0.2-0.6,0.2-0.9c0-0.5-0.2-1.1-0.2-1.6
		c0-1.9,0-4,0-5.9c0-1.1-0.2-2.2,0-3.3c0.2-0.8-0.3-1.8,0.2-2.5c0.2-0.3,0.2-0.3,0.5-0.3c1.6,0,3.3,0,4.9,0h0.2c0.5,0.3,1.2,0,1.6,0
		c0.2,0,0.3,0,0.5,0c1.2,0.2,2.3,0,3.5,0c0.8,0,1.9-0.2,2.7,0c0.8,0,1.7,0.2,2.5,0.6c0.5,0.3,0.7,0.8,1,1.3c0.2,0.2,0,0.6,0,0.9
		c0,2.4,0,4.9,0,7.3c0,0.6,0,1.4,0,2c0,0.5-0.3,0.9-0.3,1.4c0,0.2,0,0.3,0.2,0.5V49c0,0.8,0,1.6-0.2,2.2c0,0.2,0,0.3,0,0.5
		c0.5,0.8,0.2,1.8,0.3,2.5c-0.5,0.8-0.2,1.8-0.8,2.5C255.4,56.6,255.4,57.4,254.4,57.4C254.4,57.3,254.4,57.4,254.4,57.4z
		 M249.7,72.1c-0.3,0-0.3-0.3-0.3-0.6c0-0.5,0-0.9-0.2-1.6c0-0.3,0-0.8,0-1.1c0-0.8,0.2-1.4,0-2.2c0-1.1,0-2.2-0.2-3.3
		c0-0.2,0-0.3,0-0.3c0.3-0.5-0.2-0.9-0.3-1.3c-0.3,0-0.5,0.2-1,0.2c0,0-0.2,0.2-0.2,0.3c-0.2-0.2-0.5-0.2-0.5-0.3
		c-0.3-0.2-1,0.2-1.2,0.6c-0.2,0.6-0.3,1.3,0,1.9c0,0.2,0,0.5,0,0.6c-0.2,0.6-0.2,1.3,0,1.8c0,0.2,0,0.3,0,0.6
		c0,0.5-0.2,1.1-0.2,1.6c0,0.2,0,0.2,0.2,0.3c0,0.2,0,0.2,0,0.3c0,0.5,0,0.9-0.2,1.3c0,0.9,0,1.8,0,2.7c0,0.3,0,0.5,0,0.8
		c0,0.5,0,0.9,0,1.4c0,0.3,0,0.6-0.2,0.8c-0.3,0.8,0.5,0.8,0.7,1.1c0.2,0.2,0.5,0,0.7,0c0.2,0,0.7,0,1.2,0c0.2,0.3,0.5,0.5,0.7,0.2
		c0.3-0.2,0.3-0.6,0.5-1.1c0-0.2-0.2-0.5-0.2-0.6c0-0.9,0-1.9,0-3C249.6,72.6,249.7,72.5,249.7,72.1z M246.1,49.1L246.1,49.1
		c0.2,0.3,0.2,0.6,0.2,0.9c0,0.2,0,0.3,0,0.5c0,0.9,0,1.9,0,2.9c0,0.3,0.2,0.5,0.5,0.5c0.3,0,0.5,0.2,0.8,0.3c0.3,0,0.5,0,0.7,0
		c0.5,0.2,0.8-0.2,1.3-0.5c-0.2-1.1-0.3-2-0.3-3.1c0-0.2,0-0.2,0-0.3c0-0.3,0.2-0.6,0.2-1.1c0-1.8,0.2-3.3,0-5.1
		c0-0.8,0-1.8,0.2-2.5c0-0.2,0-0.3-0.2-0.3c-0.5-0.3-0.7-0.5-1.2-0.5c-0.5,0.2-1,0.2-1.5,0.2c-0.5,0-0.5,0.2-0.5,0.5s0,0.5,0,0.8
		c0,0.8,0,1.4,0,2.2c-0.2,1.3-0.3,2.7-0.5,4C245.8,48.9,245.9,49,246.1,49.1z"/>
	<path d="M223,77.2c0.5-0.5,1.3-0.6,2-0.5c0.2,0,0.3,0,0.5,0c0.3,0,0.5-0.2,0.5,0.3c0,0.2,0.3,0.2,0.5,0.3c0,0,0.2-0.2,0.3-0.3
		c0.2-0.6,0.2-1.1,0.2-1.8c0-0.8,0-1.6,0-2.4s0.2-1.8,0.2-2.5c0-0.5,0-0.9-0.2-1.4c0-0.6,0-0.6,0.5-0.5c-0.3-0.3-0.7-0.6-0.7-1.1
		s0-0.9,0.5-1.1c0-0.5,0-1.1,0-1.6c0-0.2-0.2-0.5-0.2-0.6c0.2-0.8,0-1.4-0.2-2.2c0-0.3,0-0.8,0-1.1c0-0.3,0.2-0.6,0.2-1.1
		c0-0.6,0-1.4-0.2-2c0-0.3-0.2-0.5-0.2-0.8c0.2-2.5,0.2-5.3,0.2-7.7c0-0.8,0-1.6,0-2.2c0-1.3-0.3-2.4,0-3.6c0-0.2,0-0.5,0-0.8
		c0-0.8-0.2-1.8-0.2-2.5c0-0.3,0.2-0.5,0.2-0.8c0-0.2,0-0.2,0-0.3c-0.3-0.8-0.2-1.6,0-2.4c0-0.5,0-0.8,0-1.3c0.2,0,0.5,0.2,0.5,0.2
		c0,0,0,0,0-0.2c-0.2-0.2-0.2-0.2-0.3-0.3c0-0.2,0.2-0.3,0.3-0.3v0.2c0.5,0,1-0.2,1.5,0c1,0.2,1.9-0.2,2.9,0c0.5,0.2,1,0,1.5,0.2
		c0.3,0,0.5,0.3,0.7,0.5c0.2,0.3-0.5,0.8,0.2,0.9c-0.2,0.5-0.3,0.8-0.3,1.3s0.3,0.8,0.3,1.3c-0.2,0.2-0.2,0.2-0.3,0.3
		c0,0.2,0.2,0.3,0.2,0.3c-0.5,0.3-0.5,0.8-0.2,1.3c0.5,0.6,0.5,1.4,0.3,2c0,0.2,0,0.3,0,0.5c0,0.6,0,1.4,0,2c0,1.6,0,3.3,0.2,4.9
		c0,1.1,0,2.2,0,3.1c0,0.2,0,0.2,0,0.3c0,0.5,0.2,0.9,0.2,1.4c0,0.6,0,1.1,0,1.8c0,0.8,0,1.8,0,2.5c0,0.6,0.2,1.3,0,1.8
		c-0.2,0.5,0,0.9,0,1.4c-0.2,0.9-0.2,1.9-0.3,2.9c0,0,0,0,0,0.2c0.3,0.6,0.2,1.3,0.2,1.9c0,0.2,0,0.5,0,0.6c0,0.6,0,1.4,0,2
		c0,1.1-0.2,2-0.2,3.1c0,0,0,0,0,0.2c0.2,0.5,0.2,1.1,0.2,1.8c0,0.5,0.2,0.9,0.2,1.4c0,1.3,0,2.5-0.2,3.8c-0.2,1.9-1.9,3.3-3.5,3.5
		c-0.5,0-0.7,0-1.2,0.2c0,0,0,0-0.2,0c-0.5-0.6-1.3,0-1.9-0.2c-0.7-0.2-1.3-0.2-2-0.2h-0.2c-0.8,0.2-1.7,0.2-2.6,0.3
		c-0.2,0-0.2,0-0.3,0c-0.5-0.2-1.2-0.3-1.5,0.5c-0.5,0-0.7,0.2-1,0.2c-0.5,0-0.7,0-1.2,0s-0.8,0-1.3,0c-0.2,0-0.3,0-0.3-0.2
		c-0.5-0.3-0.8-0.6-1.2-0.9c-0.3-0.3-0.5-0.6-0.5-0.9c-0.5-1.8-0.5-3.5-0.5-5.3c0-2.2,0-4.4,0-6.5c0-0.3,0.2-0.6,0.3-0.9
		c0-0.2,0.2-0.2,0.2-0.3c0-0.9-0.2-1.9-0.2-2.9c0-0.8,0-1.6,0-2.5c0-0.3-0.2-0.6-0.2-0.9c0-1.3-0.2-2.7,0-4c0-0.8-0.2-1.4,0-2.2
		c0.3-0.9-0.2-1.8,0-2.5c0.2-0.9,0-1.9,0-2.9c0-0.3,0-0.6,0.2-0.8c0-0.2,0-0.3,0-0.5c-0.2-0.5-0.2-0.8,0-1.3c0-0.3,0-0.8,0-1.3
		c0-0.6,0-1.3,0-1.9c0-0.5,0-0.8,0-1.3c0-0.3,0-0.6,0-0.8c-0.2-0.6,0.2-1.1,0.2-1.6c0-0.3-0.3-0.6-0.3-1.1c0-1.1,0.2-2,0.2-3.1
		c0-0.6,0-1.4,0-2c0-0.5,0.2-0.8,0.2-1.3c0.2-0.3,0.3-0.5,0.5-0.3c0.5,0.2,1.2,0.2,1.9,0.3c0.2,0,0.2,0,0.3-0.2
		c0.5-0.3,0.5-0.3,0.7,0.2c0.5-0.8,1.3-0.3,2-0.2c0.2,0,0.3,0.2,0.3,0c0.7-0.3,1.2,0.2,1.6,0.5c-0.5,0.2-0.5,0.3-0.5,0.8
		c0,0.8,0,1.4,0,2.2c0,0.5,0.2,0.9,0,1.3c0,0.5-0.2,1.1-0.2,1.6c0,0.3,0,0.6,0,1.1c0,1.9,0,4,0,5.9c0,0.5,0.2,0.9,0.2,1.4
		c0,0.9,0,1.9,0,2.9c0,0.6,0.2,1.1,0.2,1.8c0,1.9,0,3.8,0,5.7c0,1.1-0.2,2.4-0.3,3.5v0.2c0.2,0.6,0.2,1.3,0.2,2
		c0,1.8-0.2,3.3-0.2,5.1c0,0.9,0,2,0,3c0,0.6,0.2,1.3-0.2,1.8c-0.2,0.3-0.2,0.9,0,1.3C222.3,76.7,222.8,76.9,223,77.2z"/>
	<path d="M261.1,56.8c0-0.3-0.2-0.8-0.2-1.1s0.2-0.6,0.2-1.1c0-1.6-0.2-3.1-0.2-4.8c0-0.9,0-1.8-0.2-2.7c-0.2-0.6,0-1.1,0-1.8
		c0-0.3-0.2-0.5-0.2-0.8c0-0.2-0.2-0.5-0.2-0.6c0-1.1,0.2-2.2,0.2-3.3c0.2-1.1,0.2-2.4,0.3-3.5c0-0.3,0.3-0.8,0.5-1.1
		c0.5-0.9,1.3-1.4,2.2-2c0,0,0.2-0.2,0.2,0c0.5,0.3,1.2-0.2,1.7,0c0.5,0,1.2,0,1.7,0c0.5,0,1,0.2,1.6,0.2c0.2,0,0.2,0,0.3,0
		c0.5,0,1-0.2,1.6-0.2h0.2c0.5,0.5,1.2,0,1.9,0c1,0,2,0.2,3,0.2c0.5,0,1.2,0.2,1.7,0.5c1,0.8,1.3,1.8,1.3,2.9c0,0.8-0.2,1.8-0.2,2.5
		c0,0.3,0.2,0.6,0.2,0.9v0.2c0,0.8-0.2,1.4-0.2,2.2c0,0.5,0,0.9,0,1.4c0,0.5-0.2,0.9-0.2,1.6c-1.2,0-2.3,0-3.3,0
		c-0.7,0-1.5-0.2-2.2-0.2c-0.5,0-0.5-0.3-0.5-0.6c0-0.2,0.2-0.3,0.2-0.5c0-1.4-0.2-2.7-0.2-4c-0.3-0.2-0.5-0.3-0.7-0.5h-0.2
		c-0.8,0.5-1.7,0.3-2.6,0.2c-0.9-0.2-1.3,0.2-1,1.1c0.2,0.8,0.3,1.6,0.2,2.4c0,0.3,0,0.6,0,0.9s0,0.6,0,0.9c0,0.2,0,0.2,0,0.3
		c0.3,0.8,0.2,1.8,0.2,2.5c0,0.9,0,2,0,3c0,0.6,0,1.3,0.2,1.9c0.2,0.8,0,1.6-0.2,2.4c0,0.5,0.2,1.1,0.2,1.6v0.2c0,0.6-0.2,1.4-0.2,2
		c0,0.2-0.2,0.3,0,0.3c0.3,0.8,0,1.6,0,2.4c0,0.6,0,1.4,0,2.2c0,0.3-0.2,0.6,0,0.8c0,0.6,0.2,1.3,0.2,1.9c0,0.8,0,1.6,0,2.4
		s0,1.4,0.2,2.2c0,0.6,0,1.1,0,1.8c0,0.5,0,0.9-0.2,1.4c0,0.2-0.2,0.3-0.2,0.5c-0.2,0.2-0.2,0.3-0.5,0.6c0.2,0,0.3-0.2,0.3-0.2
		c0.5,0.2,1.2,0.2,1.7,0.3c0.2,0,0.3,0,0.3,0c0.2-0.5,0.5-0.2,0.8-0.3c0,0,0.2,0,0.3,0c0.3,0.5,0.7,0.3,1.2,0.3
		c0.2,0,0.5-0.3,0.5-0.6c0.2-0.3,0.2-0.6,0.2-0.9v-0.2c-0.5-0.5-0.3-1.1-0.3-1.8c0-0.3,0-0.6-0.2-0.9c0-0.2,0-0.2,0-0.3
		c0.3-0.5,0-1.1,0-1.6c0-0.6,0-1.3,0-1.9c0-1.1,0.2-2.2,0.2-3.1c0-0.3-0.2-0.5-0.2-0.8c0-0.5,0-0.8,0-1.3v-0.2c0-0.5,0-0.8-0.2-1.3
		c0-0.3,0-0.5-0.2-0.8c0-0.2-0.2-0.2-0.3-0.2c-0.5-0.3-0.8-0.6-1.2-1.1c-0.2-0.2,0-0.5,0-0.8c0-0.5,0-0.9,0-1.6c0-0.2,0-0.2,0-0.2
		c-0.3-1.1,0.2-2.2,0.3-3.3c0-0.3,0.2-0.6,0.5-0.5c0.5,0,0.7-0.2,1.2-0.2c0.3,0,0.5,0.2,0.7,0.2h0.2c0.3-0.3,0.5-0.2,0.8,0h0.2
		c0.5,0,1.3,0,1.9-0.2c0.7,0,1.6,0,2.2,0c0.2,0.3,0.2,0.6,0.3,0.9c0.3,0.5,0.3,1.1,0.3,1.8c0,0.6,0,1.3,0,1.9c0,0.2,0,0.3,0,0.6
		c0,0.6,0,1.3,0,1.9c0,0.5-0.2,0.8-0.2,1.3c0,0.2,0,0.3,0,0.6c0,0.5,0.2,0.8,0.2,1.3c0,1.3,0.2,2.5,0,3.6c-0.2,0.9-0.2,1.9-0.2,2.9
		c0,0.3,0.2,0.6,0.2,1.1s0,0.9-0.2,1.6c0,0.6-0.3,1.3,0,2c0,0.2,0.2,0.2,0,0.3c0,0.8-0.2,1.8-0.2,2.5c0,0.2,0.2,0.5,0.2,0.6
		c0,1.1,0,2.2-0.5,3.1c-0.3,0.9-0.8,1.6-1.7,2c-1.2,0.5-2.3,0.8-3.6,0.6c-0.5-0.2-1,0-1.6,0c-0.3,0-0.5,0.2-0.8,0
		c-0.2,0-0.3,0-0.5,0c-0.3,0-0.7,0.2-1,0c-0.3-0.2-0.5,0-0.8,0c-0.2,0-0.3,0-0.5,0c-0.5,0-1,0-1.6,0c-0.5,0-1.3-0.2-1.9,0
		c-0.5,0-0.8,0-1.3-0.2c-0.8-0.3-1.5-0.8-1.9-1.8c0,0,0,0,0-0.2c-0.7-0.5-0.5-1.3-0.7-1.9c0-0.3-0.2-0.6-0.2-0.9c0-0.2,0-0.5,0-0.6
		c0-0.2,0-0.3,0-0.5c-0.2-0.8-0.2-1.8,0-2.5c0-0.2,0-0.2,0-0.3c0-1.1,0-2,0-3.1c0-0.8-0.2-1.4-0.2-2.2c0-0.3,0-0.5,0-0.8
		c0-0.9,0.2-1.8,0-2.7c-0.2-0.8-0.2-1.4,0-2.2c0.2-0.9,0.2-2,0.2-3c0-0.3-0.2-0.5-0.2-0.8c0-0.5,0-0.8,0-1.3c-0.2-0.8,0.2-1.4,0.3-2
		C261.4,57.3,261.1,57.1,261.1,56.8z"/>
	<path d="M199.5,64.6c0,0.8,0.3,1.4,0.2,2.2c0,0.2,0,0.3,0,0.3c0,0.5,0.2,0.9,0.2,1.4c0,0.9,0,1.9,0,2.9c0,1.3,0,2.5,0,3.8
		c0,0.3-0.2,0.6-0.2,0.9c0,0.2-0.2,0.5,0,0.6c0.3,0.5,0.2,1.1,0.2,1.8c0,0.9,0,2,0,3.1c0,0.5,0,0.8,0,1.3c-0.5,0-0.5,0.5-0.5,0.9
		c-0.7,0.2-1.5,0.6-2.2,0.5c-0.7-0.2-1.5,0-2.2,0c-0.5,0-1.3,0-1.9-0.2c-0.2,0-0.3,0-0.3-0.2c-0.2-0.6-0.7-0.9-0.7-1.6c0-2,0-4,0-6
		c0-2.2,0.2-4.6,0.2-6.8c0-0.8-0.2-1.6-0.3-2.4c0-0.2,0-0.3,0-0.5c0.2-0.5,0.2-1.1,0-1.6c0-0.2,0.2-0.5,0.2-0.6
		c0-0.2,0.3-0.5,0.2-0.6c-0.3-0.2-0.5-0.5-0.7-0.3c0,0-0.2,0-0.3,0.2c0-0.6-0.2-1.3-0.2-1.9c0-1.3,0-2.4,0-3.6
		c0-0.8,0.3-1.6,0.8-2.2c0.2-0.2,0.2-0.3,0.2-0.5c0-2.4,0-4.8,0-7.1c0-1.9,0-3.6,0-5.5c0-0.8,0-1.6,0-2.4c0-1.1,0-2.2,0-3.3
		c0-0.3,0-0.5-0.2-0.8c0-0.2,0-0.3,0-0.5c0-0.3,0.2-0.8,0.2-1.1c0-0.5,0.5-0.9,0.8-0.9c0.8,0.2,1.9,0.3,2.6,0.2
		c0.8-0.2,1.6,0.3,2.3-0.2c0.5,0.3,1.3,0,2,0.2c0.5,0.2,1.3,0,2,0c0.5-0.2,1.2,0,1.9,0.2c0.5,0.2,0.8,0.2,1.3,0.2
		c0.2-0.3,0.3-0.3,0.5-0.3c0.3,0.2,0.7,0,1,0.2c0.3,0,0.5,0.2,0.8,0.2c0.2,0,0.5-0.2,0.5,0c1.5,0.3,2.3,1.1,2.3,2.9
		c0,0.9,0.2,1.9,0.2,2.9c0,1.6,0,3.1-0.2,4.6c0,0.5,0,0.9,0,1.3c0,0.6,0,1.3,0,1.9c0,0.3,0.2,0.6,0.2,0.9c0,2,0,4,0,6
		c0,0.6-0.2,1.3-0.2,1.9V57c0.5,1.4,0.2,2.7,0.2,4.2c0,0.9-0.5,2-1.3,2.5c-0.2,0-0.2,0.2-0.3,0.2c-0.3-0.2-0.5,0-0.5,0.3
		c0,0-0.2,0.2-0.3,0.2c-0.5,0-1.2,0.2-1.7,0.2c-0.5,0-1,0-1.6,0c-1.6,0-3,0-4.6,0C200,64.6,199.7,64.6,199.5,64.6z M203,52.9
		c0-0.2,0.2-0.3,0.2-0.5c0-0.6,0-1.4-0.2-2c0-0.2,0-0.3,0-0.6c0-0.5,0-0.9,0-1.4c0-0.2,0-0.3,0-0.5c0-0.3-0.2-0.8-0.2-1.1
		c0-0.9,0-1.9,0-3c0-0.5-0.2-0.9,0.2-1.3v-0.2c-0.2-0.3-0.2-0.5-0.3-0.6c-0.5-0.2-0.7-0.2-1-0.2c-0.5,0-1.2,0-1.7-0.2
		c-0.3,0-0.8,0.8-0.5,1.1c0.5,0.6,0.2,1.4,0.2,2c0,0.5,0,1.1,0,1.6c0,0.6,0.3,1.1,0.2,1.6c-0.3,0.8,0,1.4,0,2c0,1.6,0,3.1,0.2,4.8
		c0,0.3,0,0.5-0.3,0.8c-0.2,0.2-0.2,0.5-0.3,0.6c0.5,0.3,0.8,0.6,1.3,0.6c0.3,0.2,0.7,0,1,0c0.5,0,1.2,0,1.6-0.2c0-0.3,0-0.6,0-1.1
		c0.3,0.3,0.5,0.5,0.7,0.6c0,0,0,0,0.2,0c0-0.5-0.2-0.8-0.3-1.3c-0.2,0.3-0.2,0.5-0.3,0.5C203,54.7,203,53.8,203,52.9z M193,47.6
		c0-0.3,0.2-0.5,0.2-0.8C192.6,46.9,192.7,47.3,193,47.6z"/>
	<path class="st2" d="M193,47.6c-0.3-0.3-0.5-0.6,0.2-0.8C193,47.1,193,47.3,193,47.6z"/>
</g>
<g>
	<path d="M167.4,149.3c1.1,0.7,2.5,1.2,4.3,1.2c4.2,0,7.6,1.3,10.4,3.9c2.9,2.7,4.4,6.4,4.4,10.9c0,4.2-1.5,7.9-4.5,10.9
		c-2.9,3-6.3,4.3-10.4,4.3c-5.9,0-10.4-3.1-13.5-9.1l3.8-2.4l3.6-2.4c1.5,3,3.6,4.3,6.1,4.3c1.6,0,3-0.6,4.3-1.6
		c1.3-1.2,2-2.6,2-4.2c0-1.9-0.6-3.2-1.9-4.2c-1.1-0.7-2.5-1.2-4.3-1.2c-4.2,0-7.6-1.3-10.4-3.9c-2.9-2.7-4.4-6.4-4.4-10.9
		c0-4.2,1.5-7.9,4.5-10.9c2.9-3,6.3-4.3,10.4-4.3c5.9,0,10.4,3.1,13.5,9.1l-7.4,4.8c-1.5-3-3.6-4.3-6.1-4.3c-1.6,0-3,0.6-4.3,1.6
		c-1.4,1.2-2,2.6-2,4.2C165.4,147.1,166.1,148.4,167.4,149.3z"/>
	<path d="M218.2,130.8l-12.4,23.6l13.2,25h-9.9l-8.2-15.6l-1.7,3.2v12.4h-8.6v-48.6h8.6v17.5l9.1-17.5H218.2z"/>
	<path d="M221.8,130.8h8.6v48.6h-8.6V130.8z"/>
	<path d="M266.6,130.8v48.6h-8.3L246,152.3v27.1h-8.6v-48.6h8.3l12.4,27.1v-27.1H266.6z"/>
	<path d="M281.8,149.3c1.1,0.7,2.5,1.2,4.3,1.2c4.2,0,7.6,1.3,10.4,3.9c2.9,2.7,4.4,6.4,4.4,10.9c0,4.2-1.5,7.9-4.5,10.9
		c-2.9,3-6.3,4.3-10.4,4.3c-5.9,0-10.4-3.1-13.5-9.1l3.8-2.4l3.6-2.4c1.5,3,3.6,4.3,6.1,4.3c1.6,0,3-0.6,4.3-1.6
		c1.3-1.2,2-2.6,2-4.2c0-1.9-0.6-3.2-1.9-4.2c-1.1-0.7-2.5-1.2-4.3-1.2c-4.2,0-7.6-1.3-10.4-3.9c-2.9-2.7-4.4-6.4-4.4-10.9
		c0-4.2,1.5-7.9,4.5-10.9c2.9-3,6.3-4.3,10.4-4.3c5.9,0,10.4,3.1,13.5,9.1l-7.4,4.8c-1.5-3-3.6-4.3-6.1-4.3c-1.6,0-3,0.6-4.3,1.6
		c-1.4,1.2-2,2.6-2,4.2C279.8,147.1,280.5,148.4,281.8,149.3z"/>
</g>
</svg>
