<?xml version="1.0" encoding="utf-8"?>
<!-- Generator: Adobe Illustrator 26.2.1, SVG Export Plug-In . SVG Version: 6.00 Build 0)  -->
<svg version="1.1" id="Layer_1" xmlns="http://www.w3.org/2000/svg" xmlns:xlink="http://www.w3.org/1999/xlink" x="0px" y="0px"
	 viewBox="0 0 300 197.2" style="enable-background:new 0 0 300 197.2;" xml:space="preserve">
<style type="text/css">
	.st0{fill:url(#SVGID_1_);}
	.st1{fill:#FDBC02;}
	.st2{fill:#FFFFFF;}
</style>
<path d="M84.1,109c-3.8-4.1-5.6-9-5.6-14.7V72.9c0-5.8,1.9-10.6,5.6-14.7s8.2-6.1,13.6-6.1c7.3,0,13.1,3.8,17,11.3l-4.6,2.9
	l-4.6,2.9c-1.9-3.6-4.5-5.4-7.8-5.4c-2.3,0-4.3,0.9-5.9,2.7c-1.7,1.8-2.5,3.9-2.5,6.4v21.2c0,2.5,0.8,4.7,2.5,6.4
	c1.7,1.8,3.6,2.7,5.9,2.7c0.6,0,1.2-0.1,2.2-0.3c1-0.2,1.9-0.4,2.8-0.8c2.3-0.8,3.5-1.9,3.5-3.2v-10H95.1V77.5h21.8v36.1h-4.8
	l-3.2-1.8c-3.4,2-7.2,3-11.3,3C92.4,115.1,88,113.1,84.1,109z"/>
<path d="M155.1,58.2c3.7,4.1,5.6,9,5.6,14.7v21.2c0,5.8-1.9,10.6-5.6,14.7c-3.8,4.1-8.2,6.1-13.6,6.1c-5.2,0-9.8-2-13.6-6.1
	c-3.8-4.1-5.6-9-5.6-14.7V72.9c0-5.8,1.9-10.6,5.6-14.7c3.8-4.1,8.2-6.1,13.6-6.1C146.8,52.1,151.2,54.2,155.1,58.2z M135.4,66.5
	c-1.7,1.8-2.5,3.9-2.5,6.4v21.2c0,2.5,0.8,4.7,2.5,6.4c1.7,1.8,3.6,2.7,5.9,2.7c2.4,0,4.3-0.9,5.9-2.7c1.7-1.8,2.5-3.9,2.5-6.4V72.9
	c0-2.5-0.8-4.7-2.5-6.4c-1.6-1.8-3.6-2.7-5.9-2.7C139.1,63.8,137.1,64.7,135.4,66.5z"/>
<g>
	
		<linearGradient id="SVGID_1_" gradientUnits="userSpaceOnUse" x1="115.5679" y1="1012.3181" x2="139.0973" y2="1047.6646" gradientTransform="matrix(1 0 0 1 0 -880)">
		<stop  offset="0" style="stop-color:#636362"/>
		<stop  offset="1" style="stop-color:#000000"/>
	</linearGradient>
	<ellipse class="st0" cx="131.3" cy="155.9" rx="16.8" ry="18.2"/>
	<g>
		<path class="st1" d="M128.4,152.9V147h5.7v5.9h5.5v6.2h-5.5v5.9h-5.7v-5.9H123v-6.2H128.4z"/>
	</g>
</g>
<g>
	<path d="M176.5,85.1c-0.7,0-1.5,0-2,0c-0.7,0-1.5,0-2.2,0c-0.2,0-0.3-0.3-0.5-0.5c-0.2,0-0.3,0.2-0.5,0.2c-0.3-0.9-0.5-1.8-0.5-2.8
		c0.2-0.6,0-1.3,0-1.8s0.2-1.1,0-1.8c-0.2-0.6,0.2-0.9,0.7-1.1h0.2c0.5-0.5,1-0.6,1.7-0.6c0.5,0,1.2,0,1.7,0c0.5,0,0.7-0.2,1.2-0.2
		c0-0.3,0-0.5,0.2-0.6c0-0.2,0-0.3,0-0.3c0-0.6-0.2-1.3-0.2-1.8c0-0.3,0-0.6,0-0.9c0-1.4,0-2.8,0-4.3c0-0.2,0.2-0.5,0.2-0.6
		c0-0.3,0-0.6,0-1.1c0-0.3,0-0.6,0-0.9c0-0.6,0.5-1.4,0-2c0,0,0-0.2,0-0.3c0-0.5,0.2-0.9,0.2-1.4c0-0.6,0-1.4,0-2V60
		c-0.3-1.6,0.2-3.1,0.2-4.7c0-1.1-0.2-2.2-0.2-3.3c0-0.3,0.2-0.6,0.2-0.8c0-2.9,0-6.1,0-9v-0.2c-1.6,0-3.3-0.2-5-0.2
		c0.3-0.6,0.2-0.8-0.3-1.1c-0.2,0-0.2-0.3-0.2-0.5c0-0.3,0-0.6,0-0.8c0-0.6,0-1.3,0-2c0-0.3-0.2-0.5-0.2-0.8c0-0.6,0-1.1,0.2-1.8
		c0-0.3,0-0.6,0.5-0.8L172,34c0.5-0.2,0.8-0.2,1.3-0.3c0.2,0.6,0.7,0.2,1.2,0.3h0.2c0.5-0.6,0.8-0.2,1.5,0c0.3,0.2,0.5,0.2,1,0.3
		c0-0.3,0.3-0.6,0.2-0.9c-0.3-1.3,0.2-2.7,0-3.9c0-0.6,0-1.3,0-2c0-0.5-0.2-0.9-0.2-1.3V26c0.3-0.8,0-1.4,0-2.2c0-0.5,0-1.1,0.2-1.4
		c0.3-0.5,0.2-0.9,0.5-1.4c0.5-0.9,1-1.4,1.9-1.6c1.2-0.3,2.3-0.5,3.5-0.5c2.3,0,4.6,0,6.9,0c0.5,0,0.8,0.2,1.5,0.3
		c0.2,0,0.3,0.2,0.3,0c0.7-0.5,1.3,0.2,2,0c0.7-0.2,1.3-0.2,2-0.2c0.8,0,1.7,0,2.6,0c1.7,0,3.3,0,5,0c0.7,0,1.6,0.2,2.3,0.2
		c1,0,2-0.2,3.2-0.2h0.2c0.5,0.3,0.8,0.2,1.2,0c0.3,0,0.5,0,0.8,0s0.5,0,0.8,0c0.7,0,1.5-0.2,2.2,0.2c0.2,0,0.3,0,0.5,0
		c0.5,0,1.3-0.2,1.9-0.2c0.3,0,0.5,0.2,0.7,0.2c0.5,0,0.7-0.2,1.2-0.2c0.3,0,0.5,0.2,0.8,0.2c0.2,0,0.5,0,0.5,0c0.7,0,1.3,0,2,0
		c1.7,0,3.5,0,5.2,0c0.7,0,1.5,0,2,0.2c0.5,0.2,1.3-0.2,2-0.2c1.7,0,3.5,0,5.2,0c1.2,0,2.3,0,3.5,0c2.5,0,4.9,0.2,7.3,0
		c0.5,0,1,0.3,1.5,0.5c0.5,0.2,0.8,0.2,1.3,0c0.7-0.3,1.5-0.5,2.2-0.2c0,0,0,0,0.2,0c0.5-0.2,1.3-0.2,1.9,0c0.5,0,0.8-0.2,1.3-0.2
		c1.2,0,2.2,0,3.3,0c0.7,0,1.3-0.2,2-0.2c0.5,0,0.7,0.2,1.2,0.2s0.8-0.2,1.2-0.2c1.2,0,2.2-0.2,3.3,0c1.5,0.2,2.9-0.2,4.5,0
		c0.7,0,1.6,0.2,2.3,0.2c0.3,0,0.5,0.2,0.7,0c0.8-0.3,1.6,0.2,2.3,0.2c0.2,0,0.3,0,0.3,0c0.7-0.5,1.5,0,2.2-0.2
		c0.7-0.2,1.5-0.2,2.2-0.2c1,0,2,0.2,3,0.3c0.7,0,1.3,0,2,0c0.2,0,0.5,0,0.5,0c0.3,0,0.5,0,0.8,0c0.2,0,0.3,0,0.5,0
		c0.3,0.2,0.5,0.3,0.8,0.3c0.2,0,0.3,0.2,0.3,0c0.8-0.3,1.7,0,2.6-0.2c0.5,0,1,0.2,1.3,0.6c0.5,0.3,0.8,0.6,1,1.1
		c0.3,0.5,0.3,1.1,0.5,1.8c0.5,1.1,0.2,2,0.2,3.1c0,0.9,0.2,1.8,0.2,2.8c0,0.2,0.2,0.3,0.3,0.6c-0.5,0.5,0,1.1-0.2,1.6
		c0,0.6,0,1.3,0,2c0,0.3,0,0.6,0.3,0.6c0.3,0,0.5,0.2,1,0c0.5,0,0.7-0.3,1-0.3c0.2,0,0.3,0,0.3,0c0.5,0.6,1.2,0.2,1.6-0.3
		c0,0.2,0.2,0.3,0.2,0.5c0.3,0,0.5,0,0.8,0c0.2,0.5,0.5,0.6,0.5,1.1c0,0.2,0,0.2,0,0.3c0,0.8-0.2,1.6-0.2,2.3c0,0.5,0.2,0.9,0.2,1.3
		c0,0.6,0,1.1,0,1.8l-0.2,0.2c-0.3,0.2-0.5,0.5-0.3,0.9c-1.2,0-2,0.2-3,0.2c-0.7,0-1.5,0-2.2,0c-0.2,0-0.3,0.2-0.3,0.3
		c0,0.8-0.2,1.6-0.2,2.3c0,0.2,0.2,0.2,0.2,0.3c0,0.2,0.2,0.2,0.2,0.3c-0.2,0.9,0.3,1.8,0.2,2.7c0,0.2,0,0.5,0,0.6
		c-0.3,0.9-0.2,2-0.2,2.9c0,0.2,0.2,0.3,0.2,0.5c0,0.3,0.2,0.6,0,0.9c-0.2,0.3-0.2,0.6-0.2,1.1c0,0.9,0,2,0,3.1c0,0.3,0,0.5,0,0.8
		c0,1.6,0,3.1,0,4.9c0,0.5,0,0.8,0.2,1.3c0,0.2,0,0.5,0,0.6c0,0.9,0.2,1.8,0.2,2.7c0,0.3,0,0.8-0.2,1.1c0,0.2,0,0.3,0,0.3
		c0,0.6,0,1.3,0,1.8c0,0.6-0.3,1.3,0.3,1.8c0,0,0,0.2,0,0.3c-0.5,0.5-0.2,1.1-0.2,1.6c0,0.3,0.2,0.6,0,0.9c-0.2,0.5,0,1.3,0,1.8
		c0,0.2,0.3,0.3,0.5,0.3c0.5,0,1.3,0,1.9,0c0.8,0,1.9,0.2,2.9,0.2c-0.3,0.6,0,0.8,0.5,1.1c0.2,0,0.2,0.3,0.2,0.5
		c0,0.6,0.2,1.1,0,1.8c-0.2,0.5,0,0.9,0,1.4c0,0.8,0.2,1.6,0,2.3c0,0.5-0.5,0.8-0.7,1.3c-0.3,0-0.5,0-0.8,0c0,0.2-0.2,0.3-0.2,0.3
		c-0.5-0.2-0.8-0.3-1.3-0.5c-0.5,0.6-0.8,0.5-1.5,0.2c-0.2-0.2-0.3-0.2-0.5-0.3c-0.5-0.2-0.7,0-0.7,0.5c0,0.3,0.2,0.6,0,0.9
		c-0.3,0.5,0.3,0.9,0,1.4c0.3,0.9-0.2,1.8,0.2,2.9c0.2,0.5,0,0.9,0,1.6c0,0.3,0,0.5,0,0.8v0.2c-0.2,1.1-0.2,2.2-0.3,3.1
		c-0.3,1.6-1.2,2.5-2.5,3.1c-0.7,0.3-1.3,0.3-2,0.3s-1.3,0-2,0.2c-0.3,0.2-0.5-0.2-0.8,0c-0.7,0.2-1.6,0-2.3,0c-0.5,0-1,0-1.5,0
		c-0.3,0-0.7-0.2-1-0.2c-0.2,0-0.3,0-0.5,0c-1,0.2-1.9,0.2-2.9,0.3c-0.3,0-0.5-0.2-0.7-0.2c-0.7,0-1.5,0.2-2.2,0.2
		c-0.5,0-0.8,0-1.3,0c-1,0-2-0.2-3-0.2c-1.2,0-2.5,0-3.6,0c-1,0-2,0-2.9,0c-1.3,0-2.5,0-3.8,0c-1.2,0-2.3,0-3.5,0
		c-0.7,0-1.3-0.2-2-0.2c-0.5,0-0.8,0.2-1.3,0.2c-1.3,0-2.6,0-3.9,0c-0.2,0-0.2,0-0.3,0s-0.5,0.2-0.5,0.2c-2.3,0-4.6,0-6.9,0
		c-0.7,0-1.5-0.2-2.2-0.2c-0.2,0-0.3,0-0.5,0c-0.7,0.2-1.5,0.2-2.2,0c-0.7,0-1.5,0-2.2,0c-0.3,0-0.5,0-0.7,0c-0.5,0-1.2,0-1.7,0
		c-0.5,0-1,0-1.6,0c-0.3,0-0.7,0.2-1,0.2c-0.3,0-0.7-0.2-1-0.2H230c-0.5,0-1.2,0.2-1.7,0.2c-1.2,0-2.2,0-3.3,0c-0.2,0-0.3,0-0.3,0
		c-0.3-0.2-0.5-0.2-0.7,0.3c-0.3-0.2-0.5-0.3-0.8-0.5c-0.3-0.2-0.5,0-0.7,0.3c-0.7-0.5-1.3-0.3-2-0.2c-0.2,0-0.3,0-0.5,0
		c-0.3,0-0.5,0-0.7,0c0-0.2,0-0.3-0.2-0.6c-0.5,0.2-0.8,0.3-1.3,0.6c-0.5,0.3-0.8,0.3-1.3,0.2c-0.5-0.2-1.2-0.2-1.7-0.2
		c-0.5,0-0.7,0-1.2,0c-1,0-1.9,0.2-2.9,0.2c-0.5,0-1.2,0-1.7-0.2c-0.2,0-0.3,0-0.3,0c-0.3,0-0.5,0-0.7,0c-0.3,0-0.5,0-0.7,0
		c-0.7,0-1.3,0.2-2,0.2c-0.5,0-0.7,0-1.2,0c-0.2,0-0.5-0.2-0.5-0.2c-0.5,0.3-1.2,0-1.7,0s-1,0-1.6,0.2c-0.7,0-1.5,0.2-2.3,0
		c-0.2,0-0.3,0-0.3,0c-0.7,0.3-1.3,0-2,0s-1.3-0.3-2-0.2c-0.2,0-0.2,0-0.3,0c-1.7,0-3.6,0-5.3-0.2c-0.8-0.2-1.7,0-2.6,0
		c-0.3,0-0.7,0.2-1,0.2c-1.2,0-2.3-0.3-3.6-0.3c-1.2,0-2-0.6-2.7-1.4c-0.7-0.8-1-1.8-1-2.8c0-0.3,0-0.6-0.2-0.9
		c0-0.2,0.2-0.8,0.2-0.9c0-0.2,0-0.5,0-0.6c0-0.6,0.2-1.3,0.2-1.8c0-0.2,0-0.3,0-0.6c0-0.6,0-1.1,0-1.8c0-0.6,0-1.3,0-1.8
		C176.5,86,176.5,85.6,176.5,85.1z M286.2,83.7c0-0.2,0.2-0.3,0.2-0.5c0-1.3-0.2-2.3-0.2-3.6c0-1.1,0-2,0-3.1c0-1.8,0-3.4,0-5.2
		c0-0.3,0.2-0.6,0.2-1.1c0-0.9-0.2-1.8-0.2-2.7c-0.2-0.9,0-1.8,0-2.8c-0.2-2,0-4.1,0-6.1c0-0.6,0-1.3,0-1.8c0-0.5,0-1.1,0.2-1.6
		c0.2-0.3,0.2-0.6,0-0.9c-0.2-0.2-0.2-0.5-0.2-0.6c0-2.2,0-4.5,0.2-6.7c0-0.3,0.2-0.6-0.2-0.9c0,0,0-0.2,0-0.3
		c0-0.5,0.2-1.1,0.2-1.6c0-0.8-0.2-1.6-0.2-2.2c0-0.9,0.2-1.8,0.2-2.7c0.2-1.4-0.2-2.8,0-4.2c0.2-0.8-0.2-1.8,0-2.5v-0.2
		c0-0.3-0.2-0.6-0.2-0.9c0-0.8,0.2-1.6-0.5-2c0.2-0.5,0.3-0.8,0.3-1.1c0-0.3,0-0.5,0-0.8c0-0.3-0.2-0.5-0.5-0.5c-0.5,0-1.3,0-1.9,0
		c-0.2,0-0.2,0-0.3,0c-0.5,0.2-1.3,0.2-1.9-0.2c-0.3-0.2-0.5-0.2-0.7-0.2s-0.5,0-1,0c-0.5,0-0.7,0-1.2,0c-0.5,0-0.8,0-1.3,0h-0.2
		c-0.5,0-0.7,0-1.2,0c-0.2,0-0.2,0-0.3,0c-0.3,0-0.5,0.2-0.7,0.2c-0.8,0-1.6,0-2.5,0c-0.5,0-1-0.2-1.6-0.2c-0.2,0-0.3,0-0.5,0
		c-0.5,0-0.8,0.2-1.3,0.2c-0.7,0-1.6,0-2.3,0h-0.2c-0.8,0-1.7,0.2-2.5,0.2c-0.8,0-1.9-0.2-2.7-0.2c-1,0-1.9,0.2-2.9,0.2
		c-2.5,0-4.8,0-7.2,0c-0.5,0-1.2,0.2-1.6,0c-0.7-0.2-1.5,0.3-2-0.2c0,0,0,0-0.2,0c-0.5,0.2-1.3,0.2-1.9,0.2c-0.3,0-0.7,0.2-1,0.2
		c-0.5-0.2-0.8,0-1.3,0.2c0,0-0.2,0-0.2-0.2c-0.2,0-0.3-0.2-0.5-0.2c-1.6,0-3,0-4.6,0c-0.3,0-0.5,0-0.7,0.2c-0.3,0-0.5,0-0.7,0
		c-0.2,0-0.3-0.2-0.5-0.2c-0.5,0.3-1-0.3-1.6,0c-0.5,0.2-1.2,0-1.7,0c-2,0-4,0-6,0c-0.8,0-1.9-0.3-2.7,0.2h-0.2
		c-0.5-0.3-0.8-0.2-1.3-0.2c-0.5,0-1-0.2-1.6,0c-0.7,0-1.3,0.2-2,0c-1.6,0-3.2,0.2-4.8,0c-0.2,0-0.2,0-0.3,0c-1.2,0-2.3,0.2-3.6,0.2
		c-0.5,0-1,0.2-1.6,0.2c-0.2,0-0.3,0-0.5,0c-0.3,0-0.5-0.2-0.7-0.2c-1.3,0-2.6,0.2-3.9,0.2c-0.7,0-1.5,0-2.2-0.2c-0.3,0-0.7,0.2-1,0
		c-0.5,0-0.8-0.2-1.3,0c-0.8,0.2-1.6,0.2-2.5-0.2c-0.2,0-0.3,0-0.5,0c-0.5,0-0.7,0.2-1.2,0.2c-0.5,0-1,0.2-1.5,0.2
		c-0.2,0-0.5,0-0.5,0c-0.3,0-0.5-0.2-0.8-0.2c-0.8,0-1.9,0-2.7,0c-0.5,0-0.7-0.2-1.2-0.3c-0.2,0-0.3,0-0.5,0c-0.5,0-1,0.2-1.5,0.2
		c-0.3,0-0.5-0.2-0.5,0.2c-0.3-0.5-1-0.5-1.9-0.2c0,1.3,0.2,2.7,0.2,3.9v0.2c-0.3,0.6-0.2,1.1,0,1.8c0.2,0.5,0,0.8-0.2,1.1
		c-0.3,0.5-0.3,0.9-0.2,1.4c0.3,0.5,0.5,1.1,0.5,1.6c0,0.8-0.2,1.6-0.2,2.3c0,0.5,0,0.9,0,1.4c0,1.3,0,2.5,0,3.8c0,0.3,0,0.8,0,1.1
		c0.2,0,0.2,0.2,0.2,0.2c0,0.5,0,0.9,0,1.3l0,0c0,0.6-0.2,1.4-0.2,2c0,0.6,0.2,1.1,0,1.6c0,0.2,0,0.3,0,0.5c0,0.2,0.2,0.3,0.2,0.5
		c0,1.6,0,3.1,0,4.7c0,0.5-0.2,0.9-0.3,1.4c0,0.2,0,0.5,0,0.6c0,0.1,0.2,0.3,0,0.3c-0.2,0.8-0.2,1.6,0,2.2c0,0.3,0,0.5,0,0.8
		c0,0.6-0.2,1.3-0.2,1.8c0,0.5,0,1.1,0,1.6c0,0.3-0.2,0.8-0.2,1.1c0,1.3,0.2,2.3,0.2,3.6c0,0.5-0.2,0.9-0.2,1.4
		c-0.2,0.6,0.3,1.4,0,2l0,0c0.3,0.6,0,1.3,0.2,2c0.2,0.3,0,0.6,0,1.1c0,0.9-0.2,1.8-0.2,2.7v0.2c0,0.5,0.2,1.1,0.2,1.6v0.2
		c0,0.3-0.2,0.8-0.2,1.1c-0.2,0.6,0.2,1.4,0,2c0,0.5,0,0.9-0.2,1.4c0,0.2,0,0.3,0,0.5c0,0.8,0,1.4,0,2.2c0,0.2,0,0.3,0,0.5
		c0,0.5,0,0.9,0,1.4c0,0.3,0,0.6,0.2,0.8c0.2,0.2,0.5,0.2,0.5,0.2c0.1,0,0.3,0,0.3,0c0.5,0,1.3,0.2,1.9,0c0.5-0.2,1.2,0.2,1.7,0.2
		c0.8,0.2,1.6,0,2.5-0.2c0.2,0.2,0.2,0.2,0.3,0.3c-0.2,0.2-0.3,0.2-0.5,0.3c0,0,0,0.2,0.2,0.2c0.2-0.2,0.5-0.3,0.5-0.3
		c-0.2-0.5,0.3-0.5,0.5-0.5c0.3,0,0.7,0,1,0c0,0.2,0.2,0.3,0.2,0.5c0.2,0,0.2,0,0.3,0c0.5,0,0.7-0.2,1.2-0.2c0.5,0,1.3,0,1.9,0
		c0.8,0,1.6-0.2,2.5,0c0.5,0,0.8-0.2,1.3-0.2c0.8,0,1.6-0.2,2.5-0.2c0.7,0,1.3,0.2,2,0.2c3.6,0,7,0,10.6,0c0.3,0,0.5,0,0.8,0
		c0.5-0.2,0.8-0.3,1.5,0c0,0,0.2,0,0.3,0c0.3,0,0.7,0,1,0c0.5,0.2,0.8,0.2,1.3,0c0.2-0.2,0.5-0.2,0.5,0c0.7,0.2,1.3,0.3,2,0.3
		c0.5,0,1-0.3,1.5-0.2c0.3,0,0.7,0,1,0.2c0.2,0,0.3,0,0.5,0c0.7-0.3,1.3,0,2,0c1.2,0,2.3,0.3,3.3-0.2c0.2,0,0.3,0,0.3,0
		c0.8,0,1.6,0.2,2.5,0.2c0.5,0,1.2-0.3,1.7-0.2c0.2,0,0.3,0,0.5,0c0.2,0,0.3,0,0.5,0c0.3,0,0.5,0,1,0c0.2,0,0.5,0,0.5,0
		c0.5,0,0.8,0.2,1.3,0.2c0.5,0,1.2,0,1.7-0.2c0-0.3,0.3-0.3,0.5-0.3c0.3,0,0.5,0,0.8,0c0.2,0,0.3,0,0.5,0c0.5,0,0.8,0,1.2,0.2
		c0.2,0,0.3,0,0.5,0c0.5,0,1.2,0.2,1.7,0.2c0.2,0,0.2,0,0.3,0c0.7,0,1.5-0.2,2.2-0.2c0.5,0,1,0.2,1.5,0.2c1.2,0,2.5,0,3.6,0
		c1.7,0,3.6,0,5.3,0c0.5,0,0.8-0.2,1.3-0.2c0.2,0,0.3,0,0.3,0c0.2,0,0.3,0,0.5,0c0.2,0,0.3,0,0.3,0c0.5,0,0.8,0,1.2,0
		c0.5,0,1-0.2,1.6-0.2c3,0,6,0,9.1,0c0.3,0,0.5-0.2,0.8-0.2c0.7,0.2,1.5,0.5,2.2,0.2c0,0,0.2,0,0.3,0c1.6,0,3.2,0,4.8,0
		c0.8,0,1.7,0.2,2.6,0.3c0.2,0,0.3,0,0.3,0c0.3-0.3,0.7-0.2,1-0.2s0.5,0,0.8,0c0-0.3,0-0.5,0-0.6c0-1.8,0-3.8,0-5.4
		C286.4,84.5,286.2,84.2,286.2,83.7z"/>
	<path d="M196.8,122.1c-0.7,0-1.5,0-2.2,0c-0.8,0-1.7,0-2.6,0c-0.5,0-0.5-0.2-0.5-0.6c0-0.5,0-0.8,0-1.3s-0.2-0.9-0.2-1.6
		c0-0.8,0-1.6,0-2.3c0-0.5-0.2-1.1,0-1.6c0.5-0.8-0.3-1.4,0-2c0-0.2,0-0.3,0-0.5c0-0.6,0-1.1,0-1.8c0-0.6,0-1.4,0-2c0,0,0,0,0-0.2
		c0.3-0.9,0-2,0-3.1c0.3,0,0.7,0,1,0c1.3,0,2.5,0,3.8,0c0.3,0,0.5,0.2,0.5,0.3c0.7,1.8,1.5,3.4,2.2,5.2c0.3,0.6,0.5,1.3,0.8,1.8
		c0.2,0.2,0.3,0.3,0.5,0.6c0.7-1.8,1.3-3.6,1.9-5.4c0-0.2,0.2-0.3,0.3-0.5c0.2-0.3,0.3-0.8,0.5-1.1c0.2-0.6,0.5-1.1,1.3-1.1
		c1.2,0,2.2,0,3.3,0c0.3,0,0.7,0,1,0.2c0,2.8-0.2,5.6,0,8.4c0.2,2.7-0.3,5.4,0.2,8.3c-1.7,0-3.5,0-5.2,0c0-2.2,0-4.2,0-6.4h-0.2
		l-0.2,0.2c-0.7,1.6-1.6,3.3-2.3,4.9c-0.2,0.3-0.3,0.5-0.5,0.8c-0.2,0.3-0.3,0.3-0.5,0c-0.3-0.6-0.5-1.1-0.8-1.8
		c-0.7-1.3-1.3-2.5-2-3.6c0,0-0.2-0.2-0.3-0.2C196.7,118,196.7,120.1,196.8,122.1z"/>
	<path d="M228.9,114.6c0-0.6,0-1.3-0.2-2c0-0.3,0.2-0.6,0.5-0.8c0.2-0.2,0.3-0.3,0.3-0.6c0.2-0.6,0.2-1.3,0-1.8
		c-0.2-0.6,0-1.4,0-2.2c0-0.5,0-1.1,0-1.6c0.5-0.6,1.2-0.5,1.7-0.5c0.7,0,1.3,0,2,0c1.5,0,3,0,4.5,0c0.7,0,1.5,0,2.2,0
		c0.5,0,0.7,0.2,1.2,0.2c0.5,0.2,0.7,0.5,0.7,1.1c0,0.5,0.2,0.9,0.2,1.6c0,0.6,0,1.3,0,1.8c0,0.5,0,0.9,0,1.4
		c-0.2,0.5-0.3,0.9-0.5,1.3c-0.2,0.2-0.5,0.3-0.5,0.5c0.5,0.3,0.7,0.6,1,0.9c0.2,0.2,0.3,0.5,0.3,0.6c0,1.6,0,2.9,0,4.5
		c0,0.5,0,0.9,0,1.4v0.2c-0.5,0.3-0.7,0.9-1.3,0.9c-1,0.2-2,0.3-3,0.3c-2.5,0-5,0-7.5,0c-0.5,0-0.5-0.2-0.5-0.6
		c-0.2-0.6-0.2-1.1,0-1.8c0.2-0.5,0-0.9,0-1.3c0-0.5,0.2-1.1,0.2-1.6c0-0.2,0-0.5-0.2-0.6c0-0.3-0.2-0.5-0.2-0.8
		C229.6,114.8,229.5,114.6,228.9,114.6z M236.7,119.3c0-1.6,0.2-3.1,0-4.5c-0.5,0-0.8,0.2-1,0c-0.5-0.3-0.7,0-1,0.2
		c0,1.4,0,2.8,0,4.2C235.3,119.1,236,119.3,236.7,119.3z M234.5,108.3c0,1.1,0,2.2,0.2,3.3c0,0.2,0.2,0.3,0.3,0.3
		c0.5,0,1.3,0.2,1.9,0.2c0-1.3,0-2.5,0-3.6C236.1,108.3,235.4,108.3,234.5,108.3z"/>
	<path d="M219,105.2c1.5,0,2.9,0,4.3,0c0.5,0,1,0,1.5,0.3c0.3,0.2,0.5,0.6,0.5,1.1c0.2,0.6,0.2,1.3,0.2,1.8c0,0.3,0,0.6,0,0.9
		c0,0.9,0,2-0.2,2.9c0,0.2,0,0.2,0,0.3c0.2,0.9,0,2,0,2.9c0,0.6,0.2,1.4,0.2,2c0,1.1-0.2,2.2-0.3,3.1c0,0.3-0.3,0.5-0.5,0.8
		c-0.5,0.5-1.2,0.6-1.9,0.6c-2.6,0-5.2,0-7.9,0c-0.7,0-1.3-0.3-2-0.6c-0.5-0.2-0.7-0.8-0.7-1.4c0-2,0-4.1,0-6.3
		c0-0.3-0.2-0.8-0.2-1.1c0-0.8-0.2-1.8-0.2-2.5c0-0.6,0-1.1,0.2-1.8v-0.2c-0.3-0.8,0-1.6,0-2.3c0-0.2,0.2-0.3,0.3-0.5
		c0.7-0.6,1.5-0.6,2.3-0.6C216.2,105.4,217.7,105.2,219,105.2z M217.4,108.7c0,3.4,0,6.9,0,10.3c1,0,2,0,2.9,0c0-3.6,0-7.2,0-10.8
		C219.2,108.3,218.4,108.5,217.4,108.7z"/>
	<path d="M279,111.9c0,0.9,0,1.8,0,2.7c-0.3,0-0.7,0.2-1.2,0.2c-1.3,0-2.6,0-4,0c-0.2,0-0.3,0-0.5,0c0,1.4,0,2.8,0,4.2
		c0,0.3,0.5,0.5,0.7,0.5c1.5,0,2.7,0,4.2,0c0.7,0,1,0.2,1,1.1c0,0.5,0,0.8-0.2,1.3c0,0.2,0,0.3,0.2,0.6c-0.2,0-0.3,0-0.5,0
		c-3.2,0-6.5,0-9.6,0c-0.2,0-0.2,0-0.3,0c-0.7,0-0.7,0-0.7-0.8s-0.2-1.6-0.2-2.5c0-0.2,0-0.2,0-0.3c0.3-1.1,0.2-2.3,0-3.4
		c0-0.3-0.2-0.5-0.5-0.6c-0.2,0-0.3-0.6-0.5-0.9c0-0.3,0.2-0.6,0.2-1.1c0-0.3,0-0.6,0.5-0.6c0.3,0,0.3-0.2,0.3-0.5
		c0-0.3,0-0.5,0-0.8c0-1.4,0-2.9-0.2-4.3c0-0.2-0.2-0.5-0.2-0.6c0.5,0,1.2-0.2,1.6-0.2c1.7,0,3.5,0,5.2,0c0.5,0,1,0.2,1.6,0.2
		c0.2,0,0.3,0,0.3,0c0.7-0.3,1.5,0,2.2,0c0.2,0,0.5,0,0.5,0.2c0.2,0,0.2,0.3,0.2,0.3c0,0.3,0,0.8,0,1.1c0,0.5-0.2,0.8-0.2,1.3
		c-1.9,0-3.8,0-5.6,0h-0.2c0,0.6-0.2,1.3-0.2,1.8c0,0.3,0,0.6,0,0.9c0,0.3,0.2,0.5,0.5,0.5c0.7,0,1.3,0,2,0c0.2,0,0.3,0,0.3,0
		c0.2,0,0.2,0,0.2,0C277.3,111.9,278.1,111.9,279,111.9z"/>
	<path d="M260.6,119.1c1.5,0,2.7,0,4,0c0,0.8,0,1.6,0,2.3c0,0.3-0.7,0.8-1.2,0.8c-0.3,0-0.5,0-0.7,0c-0.2,0-0.3,0-0.3,0
		c-1.2,0-2.2,0-3.3,0c-1,0-2,0-3-0.2c-0.3,0-0.5-0.3-0.5-0.6c0-1.1,0-2.2,0-3.1c0-3.9,0-7.8,0-11.7c0-0.2-0.2-0.3-0.2-0.6
		c0.2-0.3,0.5-0.6,1-0.5c1.2,0,2.3,0,3.5,0c0.3,0,0.7,0.2,0.7,0.6c0,0.3,0,0.6,0.2,0.9c0,1.3,0,2.5,0,3.8c0,0.6-0.2,1.3,0,1.8
		c0,0.8,0.2,1.8,0.2,2.5c0,0.3,0,0.6,0,0.9C260.7,116.9,260.6,118,260.6,119.1z"/>
	<path d="M251.4,107.6c0,4.1,0,8.1,0,12.4c0,0.5-0.2,0.8-0.2,1.3c0,0.2,0.2,0.3,0,0.5c0,0.2-0.2,0.5-0.2,0.6s-0.3,0.2-0.5,0
		c-0.5-0.3-1,0-1.6,0c-0.5,0-1.2,0-1.7,0c-0.3,0-0.5,0-0.8,0c-0.2,0-0.3-0.2-0.3-0.3c-0.2-0.5-0.3-0.9-0.2-1.6c0.2-0.8,0-1.8,0-2.5
		c0-0.3,0-0.8,0-1.1c0-1.3,0.2-2.7,0.2-3.9c0-0.8,0-1.6-0.2-2.2c0-0.6,0-1.4,0-2c-0.2-0.8,0-1.6,0.2-2.3c0-0.2,0.3-0.5,0.5-0.5
		c0.5-0.2,0.8-0.2,1.2-0.2c0.7,0,1.6,0,2.3,0c0.2,0,0.2,0,0.3,0c0.7,0,0.8,0.2,0.8,0.9C251.4,106.7,251.4,107.2,251.4,107.6
		L251.4,107.6z"/>
	<path d="M298,19.3c0.8-0.2,0.8-0.2,1.2,0.8c0,0.2,0.2,0.5,0.3,0.8c0.2-0.5,0.3-0.6,0.3-0.9c0-0.5,0.3-0.6,0.5-0.5
		c0.2,0,0.3,0,0.5,0c0,1.1,0,2,0,3.1c-0.2,0-0.3,0-0.5,0c0-0.5,0-0.9,0-1.4h-0.2c0,0.3-0.2,0.6-0.2,0.9c0,0.3-0.2,0.5-0.5,0.5
		s-0.5,0-0.5-0.3c0-0.2-0.2-0.5-0.3-0.6c0,0.3,0,0.6,0,0.9c-0.3,0-0.5,0-0.7,0C298,21.3,298,20.4,298,19.3z"/>
	<path d="M296.1,22.4c0-0.8,0-1.6,0-2.3c-0.3,0-0.5,0-0.7,0c0-0.3,0-0.5,0-0.6c0.8,0,1.6,0,2.3,0c0,0.2,0,0.5,0,0.6
		c-0.3,0-0.5,0-0.7,0.2c0,0.8,0,1.6,0,2.3C296.7,22.4,296.4,22.4,296.1,22.4z"/>
	<path d="M254.4,57.1c0.2,0.2,0.3,0.3,0.5,0.5c0.3,0.2,0.5,0.3,0.7,0.8c0,0.3,0.5,0.6,0.7,0.9c0.3,0.3,0.5,0.5,0.5,0.9
		c0,1.3,0.2,2.5,0.2,3.6c0,0.6,0,1.4,0,2c0,3.4,0,6.9,0,10.5c0,0.6-0.2,1.3,0,1.8c0.3,1.3,0,2.5-0.5,3.6c-0.5,1.3-1.6,1.8-2.9,1.8
		c-1.3,0-2.6,0.2-3.9,0.3c-0.3,0-0.7-0.2-1,0c-0.5,0-1,0-1.6,0.2c-0.2,0-0.2,0-0.3,0c-0.5,0-1.2,0-1.7-0.2c-0.3,0-0.7,0-1-0.2
		c-0.5,0-0.7-0.2-1.2,0c-0.5,0.2-1.2,0-1.6,0c-0.5,0-1,0-1.6-0.2c-0.2-0.5-0.3-0.9,0-1.4c0,0,0-0.2,0-0.3v-0.2c0-0.6,0-1.3,0-1.8
		c0-0.2,0-0.3,0-0.5c0-1.3,0-2.3,0-3.6c0-1.8,0-3.6,0-5.3c0-1.1,0-2.2,0-3.3c0-1.3,0.2-2.7,0-3.9c0-0.6,0-1.4-0.5-2
		c-0.3-0.5-0.5-0.9-0.7-1.4c0-0.2,0-0.2,0-0.3c0-1.6,0-3.3,0-4.9c0-0.2,0-0.3,0.2-0.3c0.2-0.2,0.2-0.3,0.3-0.6c0.3-0.2,0.8,0,1-0.5
		c0.2-0.3,0.2-0.5,0-0.6c-0.2-0.3-0.3-0.5-0.3-0.9c0.2-0.9,0-1.8,0.2-2.7v-0.2c0.5-0.3,0.2-0.6,0.2-0.9c0-0.5-0.2-1.1-0.2-1.6
		c0-1.8,0-3.9,0-5.8c0-1.1-0.2-2.2,0-3.3c0.2-0.8-0.3-1.8,0.2-2.5c0.2-0.3,0.2-0.3,0.5-0.3c1.6,0,3.3,0,4.9,0h0.2
		c0.5,0.3,1.2,0,1.6,0c0.2,0,0.3,0,0.5,0c1.2,0.2,2.3,0,3.5,0c0.8,0,1.9-0.2,2.7,0c0.8,0,1.7,0.2,2.5,0.6c0.5,0.3,0.7,0.8,1,1.3
		c0.2,0.2,0,0.6,0,0.9c0,2.3,0,4.9,0,7.2c0,0.6,0,1.4,0,2c0,0.5-0.3,0.9-0.3,1.4c0,0.2,0,0.3,0.2,0.5v0.2c0,0.8,0,1.6-0.2,2.2
		c0,0.2,0,0.3,0,0.5c0.5,0.8,0.2,1.8,0.3,2.5c-0.5,0.8-0.2,1.8-0.8,2.5C255.4,56.4,255.2,57.1,254.4,57.1
		C254.4,57,254.4,57.1,254.4,57.1z M249.6,71.7c-0.3,0-0.3-0.3-0.3-0.6c0-0.5,0-0.9-0.2-1.6c0-0.3,0-0.8,0-1.1c0-0.8,0.2-1.4,0-2.2
		c0-1.1,0-2.2-0.2-3.3c0-0.2,0-0.3,0-0.3c0.3-0.5-0.2-0.9-0.3-1.3c-0.3,0-0.5,0.2-1,0.2c0,0-0.2,0.2-0.2,0.3
		c-0.2-0.2-0.5-0.2-0.5-0.3c-0.3-0.2-1,0.2-1.2,0.6c-0.2,0.6-0.3,1.3,0,1.8c0,0.2,0,0.5,0,0.6c-0.2,0.6-0.2,1.3,0,1.8
		c0,0.2,0,0.3,0,0.6c0,0.5-0.2,1.1-0.2,1.6c0,0.2,0,0.2,0.2,0.3c0,0.2,0,0.2,0,0.3c0,0.5,0,0.9-0.2,1.3c0,0.9,0,1.8,0,2.7
		c0,0.3,0,0.5,0,0.8c0,0.5,0,0.9,0,1.4c0,0.3,0,0.6-0.2,0.8c-0.3,0.8,0.5,0.8,0.7,1.1c0.2,0.2,0.5,0,0.7,0c0.2,0,0.7,0,1.2,0
		c0.2,0.3,0.5,0.5,0.7,0.2c0.3-0.2,0.3-0.6,0.5-1.1c0-0.2-0.2-0.5-0.2-0.6c0-0.9,0-1.8,0-2.9C249.5,72.1,249.6,71.9,249.6,71.7z
		 M246.1,49L246.1,49c0.2,0.3,0.2,0.6,0.2,0.9c0,0.2,0,0.3,0,0.5c0,0.9,0,1.8,0,2.8c0,0.3,0.2,0.5,0.5,0.5s0.5,0.2,0.8,0.3
		c0.3,0,0.5,0,0.7,0c0.5,0.2,0.8-0.2,1.3-0.5c-0.2-1.1-0.3-2-0.3-3.1c0-0.2,0-0.2,0-0.3c0-0.3,0.2-0.6,0.2-1.1c0-1.8,0.2-3.3,0-5
		c0-0.8,0-1.8,0.2-2.5c0-0.2,0-0.3-0.2-0.3c-0.5-0.3-0.7-0.5-1.2-0.5c-0.5,0.2-1,0.2-1.5,0.2c-0.5,0-0.5,0.2-0.5,0.5s0,0.5,0,0.8
		c0,0.8,0,1.4,0,2.2c-0.2,1.3-0.3,2.7-0.5,3.9C245.8,48.7,245.9,48.9,246.1,49z"/>
	<path d="M223,76.6c0.5-0.5,1.3-0.6,2-0.5c0.2,0,0.3,0,0.5,0c0.3,0,0.5-0.2,0.5,0.3c0,0.2,0.3,0.2,0.5,0.3c0,0,0.2-0.2,0.3-0.3
		c0.2-0.6,0.2-1.1,0.2-1.8c0-0.8,0-1.6,0-2.3s0.2-1.8,0.2-2.5c0-0.5,0-0.9-0.2-1.4c0-0.6,0-0.6,0.5-0.5c-0.3-0.3-0.7-0.6-0.7-1.1
		s0-0.9,0.5-1.1c0-0.5,0-1.1,0-1.6c0-0.2-0.2-0.5-0.2-0.6c0.2-0.8,0-1.4-0.2-2.2c0-0.3,0-0.8,0-1.1s0.2-0.6,0.2-1.1
		c0-0.6,0-1.4-0.2-2c0-0.3-0.2-0.5-0.2-0.8c0.2-2.5,0.2-5.2,0.2-7.6c0-0.8,0-1.6,0-2.2c0-1.3-0.3-2.3,0-3.6c0-0.2,0-0.5,0-0.8
		c0-0.8-0.2-1.8-0.2-2.5c0-0.3,0.2-0.5,0.2-0.8c0-0.2,0-0.2,0-0.3c-0.3-0.8-0.2-1.6,0-2.3c0-0.5,0-0.8,0-1.3c0.2,0,0.5,0.2,0.5,0.2
		c0,0,0,0,0-0.2c-0.2-0.2-0.2-0.2-0.3-0.3c0-0.2,0.2-0.3,0.3-0.3v0.2c0.5,0,1-0.2,1.5,0c1,0.2,1.9-0.2,2.9,0c0.5,0.2,1,0,1.5,0.2
		c0.3,0,0.5,0.3,0.7,0.5c0.2,0.3-0.5,0.8,0.2,0.9c-0.2,0.5-0.3,0.8-0.3,1.3c0,0.5,0.3,0.8,0.3,1.3c-0.2,0.2-0.2,0.2-0.3,0.3
		c0,0.2,0.2,0.3,0.2,0.3c-0.5,0.3-0.5,0.8-0.2,1.3c0.5,0.6,0.5,1.4,0.3,2c0,0.2,0,0.3,0,0.5c0,0.6,0,1.4,0,2c0,1.6,0,3.3,0.2,4.9
		c0,1.1,0,2.2,0,3.1c0,0.2,0,0.2,0,0.3c0,0.5,0.2,0.9,0.2,1.4c0,0.6,0,1.1,0,1.8c0,0.8,0,1.8,0,2.5c0,0.6,0.2,1.3,0,1.8
		c-0.2,0.5,0,0.9,0,1.4c-0.2,0.9-0.2,1.8-0.3,2.8c0,0,0,0,0,0.2c0.3,0.6,0.2,1.3,0.2,1.8c0,0.2,0,0.5,0,0.6c0,0.6,0,1.4,0,2
		c0,1.1-0.2,2-0.2,3.1c0,0,0,0,0,0.2c0.2,0.5,0.2,1.1,0.2,1.8c0,0.5,0.2,0.9,0.2,1.4c0,1.3,0,2.5-0.2,3.8c-0.2,1.8-1.9,3.3-3.5,3.4
		c-0.5,0-0.7,0-1.2,0.2c0,0,0,0-0.2,0c-0.5-0.6-1.3,0-1.9-0.2c-0.7-0.2-1.3-0.2-2-0.2h-0.2c-0.8,0.2-1.7,0.2-2.6,0.3
		c-0.2,0-0.2,0-0.3,0c-0.5-0.2-1.2-0.3-1.5,0.5c-0.5,0-0.7,0.2-1,0.2c-0.5,0-0.7,0-1.2,0c-0.5,0-0.8,0-1.3,0c-0.2,0-0.3,0-0.3-0.2
		c-0.5-0.3-0.8-0.6-1.2-0.9c-0.3-0.3-0.5-0.6-0.5-0.9c-0.5-1.8-0.5-3.4-0.5-5.2c0-2.2,0-4.3,0-6.4c0-0.3,0.2-0.6,0.3-0.9
		c0-0.2,0.2-0.2,0.2-0.3c0-0.9-0.2-1.8-0.2-2.8c0-0.8,0-1.6,0-2.5c0-0.3-0.2-0.6-0.2-0.9c0-1.3-0.2-2.7,0-3.9c0-0.8-0.2-1.4,0-2.2
		c0.3-0.9-0.2-1.8,0-2.5c0.2-0.9,0-1.8,0-2.8c0-0.3,0-0.6,0.2-0.8c0-0.2,0-0.3,0-0.5c-0.2-0.5-0.2-0.8,0-1.3c0-0.3,0-0.8,0-1.3
		c0-0.6,0-1.3,0-1.8c0-0.5,0-0.8,0-1.3c0-0.3,0-0.6,0-0.8c-0.2-0.6,0.2-1.1,0.2-1.6c0-0.3-0.3-0.6-0.3-1.1c0-1.1,0.2-2,0.2-3.1
		c0-0.6,0-1.4,0-2c0-0.5,0.2-0.8,0.2-1.3c0.2-0.3,0.3-0.5,0.5-0.3c0.5,0.2,1.2,0.2,1.9,0.3c0.2,0,0.2,0,0.3-0.2
		c0.5-0.3,0.5-0.3,0.7,0.2c0.5-0.8,1.3-0.3,2-0.2c0.2,0,0.3,0.2,0.3,0c0.7-0.3,1.2,0.2,1.6,0.5c-0.5,0.2-0.5,0.3-0.5,0.8
		c0,0.8,0,1.4,0,2.2c0,0.5,0.2,0.9,0,1.3c0,0.5-0.2,1.1-0.2,1.6c0,0.3,0,0.6,0,1.1c0,1.8,0,3.9,0,5.8c0,0.5,0.2,0.9,0.2,1.4
		c0,0.9,0,1.8,0,2.8c0,0.6,0.2,1.1,0.2,1.8c0,1.8,0,3.8,0,5.6c0,1.1-0.2,2.3-0.3,3.4v0.2c0.2,0.6,0.2,1.3,0.2,2c0,1.8-0.2,3.3-0.2,5
		c0,0.9,0,2,0,2.9c0,0.6,0.2,1.3-0.2,1.8c-0.2,0.3-0.2,0.9,0,1.3C222.3,76.2,222.7,76.4,223,76.6z"/>
	<path d="M261,56.6c0-0.3-0.2-0.8-0.2-1.1c0-0.3,0.2-0.6,0.2-1.1c0-1.6-0.2-3.1-0.2-4.7c0-0.9,0-1.8-0.2-2.7c-0.2-0.6,0-1.1,0-1.8
		c0-0.3-0.2-0.5-0.2-0.8c0-0.2-0.2-0.5-0.2-0.6c0-1.1,0.2-2.2,0.2-3.3c0.2-1.1,0.2-2.3,0.3-3.4c0-0.3,0.3-0.8,0.5-1.1
		c0.5-0.9,1.3-1.4,2.2-2c0,0,0.2-0.2,0.2,0c0.5,0.3,1.2-0.2,1.7,0c0.5,0,1.2,0,1.7,0c0.5,0,1,0.2,1.6,0.2c0.2,0,0.2,0,0.3,0
		c0.5,0,1-0.2,1.6-0.2h0.2c0.5,0.5,1.2,0,1.9,0c1,0,2,0.2,3,0.2c0.5,0,1.2,0.2,1.7,0.5c1,0.8,1.3,1.8,1.3,2.8c0,0.8-0.2,1.8-0.2,2.5
		c0,0.3,0.2,0.6,0.2,0.9v0.2c0,0.8-0.2,1.4-0.2,2.2c0,0.5,0,0.9,0,1.4c0,0.5-0.2,0.9-0.2,1.6c-1.2,0-2.3,0-3.3,0
		c-0.7,0-1.5-0.2-2.2-0.2c-0.5,0-0.5-0.3-0.5-0.6c0-0.2,0.2-0.3,0.2-0.5c0-1.4-0.2-2.7-0.2-3.9c-0.3-0.2-0.5-0.3-0.7-0.5h-0.2
		c-0.8,0.5-1.7,0.3-2.6,0.2c-0.8-0.2-1.3,0.2-1,1.1c0.2,0.8,0.3,1.6,0.2,2.3c0,0.3,0,0.6,0,0.9c0,0.3,0,0.6,0,0.9c0,0.2,0,0.2,0,0.3
		c0.3,0.8,0.2,1.8,0.2,2.5c0,0.9,0,2,0,2.9c0,0.6,0,1.3,0.2,1.8c0.2,0.8,0,1.6-0.2,2.3c0,0.5,0.2,1.1,0.2,1.6v0.2
		c0,0.6-0.2,1.4-0.2,2c0,0.2-0.2,0.3,0,0.3c0.3,0.8,0,1.6,0,2.3c0,0.6,0,1.4,0,2.2c0,0.3-0.2,0.6,0,0.8c0,0.6,0.2,1.3,0.2,1.8
		c0,0.8,0,1.6,0,2.3c0,0.8,0,1.4,0.2,2.2c0,0.6,0,1.1,0,1.8c0,0.5,0,0.9-0.2,1.4c0,0.2-0.2,0.3-0.2,0.5c-0.2,0.2-0.2,0.3-0.5,0.6
		c0.2,0,0.3-0.2,0.3-0.2c0.5,0.2,1.2,0.2,1.7,0.3c0.2,0,0.3,0,0.3,0c0.2-0.5,0.5-0.2,0.8-0.3c0,0,0.2,0,0.3,0
		c0.3,0.5,0.7,0.3,1.2,0.3c0.2,0,0.5-0.3,0.5-0.6c0.2-0.3,0.2-0.6,0.2-0.9v-0.2c-0.5-0.5-0.3-1.1-0.3-1.8c0-0.3,0-0.6-0.2-0.9
		c0-0.2,0-0.2,0-0.3c0.3-0.5,0-1.1,0-1.6c0-0.6,0-1.3,0-1.8c0-1.1,0.2-2.2,0.2-3.1c0-0.3-0.2-0.5-0.2-0.8c0-0.5,0-0.8,0-1.3v-0.2
		c0-0.5,0-0.8-0.2-1.3c0-0.3,0-0.5-0.2-0.8c0-0.2-0.2-0.2-0.3-0.2c-0.5-0.3-0.8-0.6-1.2-1.1c-0.2-0.2,0-0.5,0-0.8c0-0.5,0-0.9,0-1.6
		c0-0.2,0-0.2,0-0.2c-0.3-1.1,0.2-2.2,0.3-3.3c0-0.3,0.2-0.6,0.5-0.5c0.5,0,0.7-0.2,1.2-0.2c0.3,0,0.5,0.2,0.7,0.2h0.2
		c0.3-0.3,0.5-0.2,0.8,0h0.2c0.5,0,1.3,0,1.9-0.2c0.7,0,1.6,0,2.2,0c0.2,0.3,0.2,0.6,0.3,0.9c0.3,0.5,0.3,1.1,0.3,1.8
		c0,0.6,0,1.3,0,1.8c0,0.2,0,0.3,0,0.6c0,0.6,0,1.3,0,1.8c0,0.5-0.2,0.8-0.2,1.3c0,0.2,0,0.3,0,0.6c0,0.5,0.2,0.8,0.2,1.3
		c0,1.3,0.2,2.5,0,3.6c-0.2,0.9-0.2,1.8-0.2,2.8c0,0.3,0.2,0.6,0.2,1.1c0,0.5,0,0.9-0.2,1.6c0,0.6-0.3,1.3,0,2c0,0.2,0.2,0.2,0,0.3
		c0,0.8-0.2,1.8-0.2,2.5c0,0.2,0.2,0.5,0.2,0.6c0,1.1,0,2.2-0.5,3.1c-0.3,0.9-0.8,1.6-1.7,2c-1.2,0.5-2.3,0.8-3.6,0.6
		c-0.5-0.2-1,0-1.6,0c-0.3,0-0.5,0.2-0.8,0c-0.2,0-0.3,0-0.5,0c-0.3,0-0.7,0.2-1,0c-0.3-0.2-0.5,0-0.8,0c-0.2,0-0.3,0-0.5,0
		c-0.5,0-1,0-1.6,0c-0.6,0-1.3-0.2-1.9,0c-0.5,0-0.8,0-1.3-0.2c-0.8-0.3-1.5-0.8-1.9-1.8c0,0,0,0,0-0.2c-0.7-0.5-0.5-1.3-0.7-1.8
		c0-0.3-0.2-0.6-0.2-0.9c0-0.2,0-0.5,0-0.6c0-0.2,0-0.3,0-0.5c-0.2-0.8-0.2-1.8,0-2.5c0-0.2,0-0.2,0-0.3c0-1.1,0-2,0-3.1
		c0-0.8-0.2-1.4-0.2-2.2c0-0.3,0-0.5,0-0.8c0-0.9,0.2-1.8,0-2.7c-0.2-0.8-0.2-1.4,0-2.2c0.2-0.9,0.2-2,0.2-2.9
		c0-0.3-0.2-0.5-0.2-0.8c0-0.5,0-0.8,0-1.3c-0.2-0.8,0.2-1.4,0.3-2C261.3,57,261,56.8,261,56.6z"/>
	<path d="M199.6,64.3c0,0.8,0.3,1.4,0.2,2.2c0,0.2,0,0.3,0,0.3c0,0.5,0.2,0.9,0.2,1.4c0,0.9,0,1.8,0,2.8c0,1.3,0,2.5,0,3.8
		c0,0.3-0.2,0.6-0.2,0.9c0,0.2-0.2,0.5,0,0.6c0.3,0.5,0.2,1.1,0.2,1.8c0,0.9,0,2,0,3.1c0,0.5,0,0.8,0,1.3c-0.5,0-0.5,0.5-0.5,0.9
		c-0.7,0.2-1.5,0.6-2.2,0.5c-0.7-0.2-1.5,0-2.2,0c-0.5,0-1.3,0-1.9-0.2c-0.2,0-0.3,0-0.3-0.2c-0.2-0.6-0.7-0.9-0.7-1.6
		c0-2,0-3.9,0-5.9c0-2.2,0.2-4.5,0.2-6.7c0-0.8-0.2-1.6-0.3-2.3c0-0.2,0-0.3,0-0.5c0.2-0.5,0.2-1.1,0-1.6c0-0.2,0.2-0.5,0.2-0.6
		c0-0.1,0.3-0.5,0.2-0.6c-0.3-0.2-0.5-0.5-0.7-0.3c0,0-0.2,0-0.3,0.2c0-0.6-0.2-1.3-0.2-1.8c0-1.3,0-2.3,0-3.6
		c0-0.8,0.3-1.6,0.8-2.2c0.2-0.2,0.2-0.3,0.2-0.5c0-2.3,0-4.7,0-7c0-1.8,0-3.6,0-5.4c0-0.8,0-1.6,0-2.3c0-1.1,0-2.2,0-3.3
		c0-0.3,0-0.5-0.2-0.8c0-0.2,0-0.3,0-0.5c0-0.3,0.2-0.8,0.2-1.1c0-0.5,0.5-0.9,0.8-0.9c0.8,0.2,1.9,0.3,2.6,0.2
		c0.8-0.2,1.6,0.3,2.3-0.2c0.5,0.3,1.3,0,2,0.2c0.5,0.2,1.3,0,2,0c0.5-0.2,1.2,0,1.9,0.2c0.5,0.2,0.8,0.2,1.3,0.2
		c0.2-0.3,0.3-0.3,0.5-0.3c0.3,0.2,0.7,0,1,0.2c0.3,0,0.5,0.2,0.8,0.2c0.2,0,0.5-0.2,0.5,0c1.5,0.3,2.3,1.1,2.3,2.8
		c0,0.9,0.2,1.8,0.2,2.8c0,1.6,0,3.1-0.2,4.5c0,0.5,0,0.9,0,1.3c0,0.6,0,1.3,0,1.8c0,0.3,0.2,0.6,0.2,0.9c0,2,0,3.9,0,5.9
		c0,0.6-0.2,1.3-0.2,1.8v0.2c0.5,1.4,0.2,2.7,0.2,4.1c0,0.9-0.5,2-1.3,2.5c-0.2,0-0.2,0.2-0.3,0.2c-0.3-0.2-0.5,0-0.5,0.3
		c0,0-0.2,0.2-0.3,0.2c-0.5,0-1.2,0.2-1.7,0.2s-1,0-1.6,0c-1.6,0-3,0-4.6,0C200,64.2,199.7,64.3,199.6,64.3z M203,52.8
		c0-0.2,0.2-0.3,0.2-0.5c0-0.6,0-1.4-0.2-2c0-0.2,0-0.3,0-0.6c0-0.5,0-0.9,0-1.4c0-0.2,0-0.3,0-0.5c0-0.3-0.2-0.8-0.2-1.1
		c0-0.9,0-1.8,0-2.9c0-0.5-0.2-0.9,0.2-1.3v-0.2c-0.2-0.3-0.2-0.5-0.3-0.6c-0.5-0.2-0.7-0.2-1-0.2c-0.5,0-1.2,0-1.7-0.2
		c-0.3,0-0.8,0.8-0.5,1.1c0.5,0.6,0.2,1.4,0.2,2c0,0.5,0,1.1,0,1.6c0,0.6,0.3,1.1,0.2,1.6c-0.3,0.8,0,1.4,0,2c0,1.6,0,3.1,0.2,4.7
		c0,0.3,0,0.5-0.3,0.8c-0.2,0.2-0.2,0.5-0.3,0.6c0.5,0.3,0.8,0.6,1.3,0.6c0.3,0.2,0.7,0,1,0c0.5,0,1.2,0,1.6-0.2c0-0.3,0-0.6,0-1.1
		c0.3,0.3,0.5,0.5,0.7,0.6c0,0,0,0,0.2,0c0-0.5-0.2-0.8-0.3-1.3c-0.2,0.3-0.2,0.5-0.3,0.5C203,54.5,203,53.5,203,52.8z M193.1,47.4
		c0-0.3,0.2-0.5,0.2-0.8C192.6,46.8,192.8,47.1,193.1,47.4z"/>
	<path class="st2" d="M193.1,47.4c-0.3-0.3-0.5-0.6,0.2-0.8C193.1,47,193.1,47.1,193.1,47.4z"/>
</g>
<g>
	<path d="M167.4,147.8c1.1,0.7,2.5,1.2,4.3,1.2c4.2,0,7.6,1.3,10.4,3.8c2.9,2.7,4.4,6.3,4.4,10.7c0,4.2-1.5,7.8-4.5,10.8
		c-2.9,2.9-6.3,4.3-10.3,4.3c-5.9,0-10.4-3-13.5-9l3.8-2.3l3.6-2.3c1.5,2.9,3.5,4.3,6.1,4.3c1.6,0,3-0.6,4.3-1.6
		c1.3-1.2,2-2.6,2-4.2c0-1.8-0.6-3.2-1.9-4.1c-1.1-0.7-2.5-1.2-4.3-1.2c-4.2,0-7.6-1.3-10.4-3.8c-2.9-2.7-4.4-6.3-4.4-10.7
		c0-4.2,1.5-7.8,4.5-10.8c2.9-2.9,6.3-4.3,10.3-4.3c5.9,0,10.4,3,13.5,9l-7.4,4.7c-1.5-2.9-3.5-4.3-6.1-4.3c-1.6,0-3,0.6-4.3,1.6
		c-1.4,1.2-2,2.6-2,4.2C165.5,145.5,166.2,146.9,167.4,147.8z"/>
	<path d="M218.2,129.5l-12.3,23.3l13.2,24.7h-9.9L201,162l-1.7,3.2v12.2h-8.6v-47.9h8.6v17.2l9.1-17.2L218.2,129.5L218.2,129.5z"/>
	<path d="M221.7,129.5h8.6v47.9h-8.6V129.5z"/>
	<path d="M266.6,129.5v47.9h-8.2L246,150.7v26.8h-8.6v-47.9h8.2l12.3,26.8v-26.8H266.6z"/>
	<path d="M281.7,147.8c1.1,0.7,2.5,1.2,4.3,1.2c4.2,0,7.6,1.3,10.4,3.8c2.9,2.7,4.4,6.3,4.4,10.7c0,4.2-1.5,7.8-4.5,10.8
		c-2.9,2.9-6.3,4.3-10.3,4.3c-5.9,0-10.4-3-13.5-9l3.8-2.3l3.6-2.3c1.5,2.9,3.5,4.3,6.1,4.3c1.6,0,3-0.6,4.3-1.6
		c1.3-1.2,2-2.6,2-4.2c0-1.8-0.6-3.2-1.9-4.1c-1.1-0.7-2.5-1.2-4.3-1.2c-4.2,0-7.6-1.3-10.4-3.8c-2.9-2.7-4.4-6.3-4.4-10.7
		c0-4.2,1.5-7.8,4.5-10.8c2.9-2.9,6.3-4.3,10.3-4.3c5.9,0,10.4,3,13.5,9l-7.4,4.7c-1.5-2.9-3.5-4.3-6.1-4.3c-1.6,0-3,0.6-4.3,1.6
		c-1.4,1.2-2,2.6-2,4.2C279.8,145.5,280.4,146.9,281.7,147.8z"/>
</g>
<path d="M21.2,61.8L0,46.8c8.6-18,20.6-27,36.2-27c10.7,0,19.4,4.1,26.3,12.4c6.9,8.3,10.4,18.8,10.4,31.6c0,11-2.5,20.6-7.6,28.8
	c-3.3,5.5-9.4,12.5-18.3,20.8c-5.7,5.4-10,10.3-12.9,14.9c-3.7,5.8-6.3,12.1-7.6,19.3h49.4v29.9H0.4l0.4-23.3
	c0-23.1,10.4-44.6,31.2-64.2l1.3-1.2l1.4-1.2l2.8-2.7c2.2-2.2,3.9-4.1,5.3-6c3.9-5,5.7-10,5.7-15c0-4.5-1.1-8.1-3.3-10.5
	c-2.2-2.3-5.1-3.5-8.9-3.5C30,49.8,25,53.8,21.2,61.8z"/>
</svg>
