<svg xmlns="http://www.w3.org/2000/svg" viewBox="0 0 263.38 57.84"><defs><style>.cls-1{fill:#1d1d1b;}.cls-2{fill:#fff;}</style></defs><g id="Layer_2" data-name="Layer 2"><g id="Calque_1" data-name="Calque 1"><path class="cls-1" d="M254.07,32.46a14.52,14.52,0,0,1-5.48,11.14,20.5,20.5,0,0,1-13.23,4.62L2.3,46.74,22.17,14.69a.89.89,0,0,0,.4-.73V0H21.12V14.07L0,47.76H.41l-.24.17H.58l-.24.17H.75l-.24.17H.92l-.24.17h.41l-.24.17h.41L1,48.78h.4L1.19,49H1.6l-.24.17h.41l-.24.16h.4l-.23.17h.4l-.23.17h.4L2,49.79h.4L2.21,50h.41l-.24.17h.41l-.24.17H3l-.23.17h.4l-.23.17H3.3l-.24.17h.4L3.23,51h.4l-.23.17h.4l-.23.17H4l-.23.17h.4l-.23.17h.4l-.23.17h.4L4.25,52h.4l-.23.17h.4l-.24.17H5l-.24.17h.41l-.24.17h.41l-.23.17h.4L5.27,53h.4l-.24.17h.41l-.24.17H6l-.24.17h.41l-.24.17h.41l-.24.17h.41L6.28,54h.41l-.24.17h.41l-.24.17H7l-.23.17h.4L7,54.72h.4l-.23.17h.4l-.24.17h.41l-.24.17h.41l-.24.17h.41l-.24.17h.41L8,55.74h.4l-.23.17h.4l-.23.17h.41l-.24.17,235,1.59c11,0,19.85-7.49,19.85-16.74V0h-9.31Z"/><path class="cls-2" d="M22.57,14a.89.89,0,0,1-.4.73L2.3,46.74l233.06,1.48a20.5,20.5,0,0,0,13.23-4.62,14.52,14.52,0,0,0,5.48-11.14V0H22.57Z"/></g></g></svg>