<svg xmlns="http://www.w3.org/2000/svg" viewBox="0 0 242.26 84.15"><defs><style>.cls-1{fill:#1d1d1b;}.cls-2{fill:#fff;}</style></defs><g id="Layer_2" data-name="Layer 2"><g id="Calque_1" data-name="Calque 1"><path class="cls-1" d="M1.45,16.89A14.52,14.52,0,0,1,6.93,5.75,20.5,20.5,0,0,1,20.16,1.13H214.24a20.5,20.5,0,0,1,13.23,4.62A14.52,14.52,0,0,1,233,16.89V84.15h9.31V25.23a15.23,15.23,0,0,0-4.64-10.75l-.17-.17-.18-.17-.16-.16-.17-.18-.18-.17a1.37,1.37,0,0,0-.17-.17l-.16-.16-.16-.17-.19-.18-.17-.17c0-.06-.11-.11-.17-.17l-.16-.16c-.06-.07-.13-.13-.19-.19l-.15-.15-.18-.18-.16-.16-.17-.17-.16-.17c-.06,0-.11-.11-.17-.17l-.19-.19-.15-.14-.19-.19-.17-.17-.15-.16-.18-.17-.17-.17c0-.06-.11-.11-.17-.17l-.18-.18a1.21,1.21,0,0,0-.16-.16l-.17-.17-.17-.18-.17-.16L232,8.88c0-.06-.11-.11-.17-.17l-.17-.17-.16-.17-.19-.18c0-.06-.11-.11-.16-.16s-.11-.11-.16-.16l-.17-.18-.18-.17-.16-.17-.19-.18L230.15,7,230,6.84l-.18-.18-.16-.15c-.06-.07-.12-.12-.18-.18l-.16-.16A21.36,21.36,0,0,0,213.92,0H19.84C8.88,0,0,7.5,0,16.74V84.15H1.45Z"/><path class="cls-2" d="M227.47,5.75a20.5,20.5,0,0,0-13.23-4.62H20.16A20.5,20.5,0,0,0,6.93,5.75,14.52,14.52,0,0,0,1.45,16.89V84.15H233V16.89A14.52,14.52,0,0,0,227.47,5.75Z"/></g></g></svg>