<?xml version="1.0" encoding="utf-8"?>
<!-- Generator: Adobe Illustrator 26.2.1, SVG Export Plug-In . SVG Version: 6.00 Build 0)  -->
<svg version="1.1" id="Layer_1" xmlns="http://www.w3.org/2000/svg" xmlns:xlink="http://www.w3.org/1999/xlink" x="0px" y="0px"
	 viewBox="0 0 71.2 71.2" style="enable-background:new 0 0 71.2 71.2;" xml:space="preserve">
<style type="text/css">
	.st0{fill:#FFFCBF;}
</style>
<path d="M66.3,7.9C64.6,3.2,60.8,0,56.4,0H11C4.9,0,0,6.2,0,13.8v26.7c0,5.1,2.3,9.6,5.6,12c3.1,9,11.7,7.4,33.9,7.3l21.5,11.4
	l-0.1-11.4c5.7-0.5,10.1-6.5,10.1-13.8C70,36.4,74,15,66.3,7.9z"/>
<path class="st0" d="M55,51.3l0.1,10.3L35.5,51.3H12.1c-5.3,0-9.7-5.5-9.7-12.2V13.9c0-6.7,4.3-12.2,9.7-12.2H55
	c5.3,0,9.7,5.5,9.7,12.2v25.2C64.6,45.8,60.3,51.3,55,51.3z"/>
<g>
	<path d="M9.4,42.1c-1.1-0.7-1.9-1.7-2.5-2.9C6.3,38,6,36.5,6,34.9v-1.2l4.2-0.5v1.3c0,1.2,0.2,2.2,0.7,2.9c0.5,0.7,1.2,1.1,2,1.1
		c0.8,0,1.5-0.3,2-0.9c0.5-0.6,0.8-1.4,0.8-2.4c0-1.1-0.3-2.1-0.8-3.1c-0.5-1-1.6-2.4-3.2-4.1c-2.1-2.4-3.6-4.3-4.3-5.9
		c-0.8-1.6-1.2-3.3-1.2-5.1c0-2.5,0.6-4.5,1.8-6c1.2-1.5,2.8-2.2,4.8-2.2c2,0,3.6,0.8,4.8,2.3c1.2,1.5,1.8,3.5,1.8,6.1v0.9l-4.2,0.5
		v-1c0-1.3-0.2-2.3-0.6-2.9c-0.4-0.7-1-1-1.8-1c-0.8,0-1.3,0.3-1.8,0.8c-0.4,0.5-0.6,1.3-0.6,2.4s0.3,2.1,0.8,3.1
		c0.5,1,1.6,2.4,3.1,4.2c2.1,2.5,3.6,4.5,4.3,6c0.8,1.5,1.2,3.2,1.2,5c0,1.6-0.3,3-0.9,4.3c-0.6,1.3-1.4,2.2-2.5,2.9
		c-1.1,0.7-2.3,1.1-3.6,1.1C11.7,43.2,10.5,42.8,9.4,42.1z"/>
	<path d="M43.3,9.1v33.7H39V19.6l-4,23.1h-3l-4-23.1v23.1h-4.2V9.1h6.1l3.8,21.5l3.6-21.5H43.3z"/>
	<path d="M50.4,42.1c-1.1-0.7-1.9-1.7-2.5-2.9c-0.6-1.3-0.9-2.7-0.9-4.3v-1.2l4.2-0.5v1.3c0,1.2,0.2,2.2,0.7,2.9
		c0.5,0.7,1.2,1.1,2,1.1c0.8,0,1.5-0.3,2-0.9c0.5-0.6,0.8-1.4,0.8-2.4c0-1.1-0.3-2.1-0.8-3.1c-0.5-1-1.6-2.4-3.2-4.1
		c-2.1-2.4-3.6-4.3-4.3-5.9c-0.8-1.6-1.2-3.3-1.2-5.1c0-2.5,0.6-4.5,1.8-6c1.2-1.5,2.8-2.2,4.8-2.2c2,0,3.6,0.8,4.8,2.3
		c1.2,1.5,1.8,3.5,1.8,6.1v0.9l-4.2,0.5v-1c0-1.3-0.2-2.3-0.6-2.9c-0.4-0.7-1-1-1.8-1c-0.8,0-1.3,0.3-1.8,0.8
		c-0.4,0.5-0.6,1.3-0.6,2.4s0.3,2.1,0.8,3.1c0.5,1,1.6,2.4,3.1,4.2c2.1,2.5,3.6,4.5,4.3,6c0.8,1.5,1.2,3.2,1.2,5
		c0,1.6-0.3,3-0.9,4.3c-0.6,1.3-1.4,2.2-2.5,2.9c-1.1,0.7-2.3,1.1-3.6,1.1C52.7,43.2,51.5,42.8,50.4,42.1z"/>
</g>
</svg>
