<?xml version="1.0" encoding="utf-8"?>
<!-- Generator: Adobe Illustrator 26.2.1, SVG Export Plug-In . SVG Version: 6.00 Build 0)  -->
<svg version="1.1" id="Layer_1" xmlns="http://www.w3.org/2000/svg" xmlns:xlink="http://www.w3.org/1999/xlink" x="0px" y="0px"
	 viewBox="0 0 149 71.2" style="enable-background:new 0 0 149 71.2;" xml:space="preserve">
<style type="text/css">
	.st0{fill:#FFFCBF;}
	.st1{fill:#00D959;}
</style>
<path d="M65,9.1c-1.6-4.5-5.3-7.6-9.6-7.6H11.6C5.7,1.5,1,7.5,1,14.8v25.8c0,4.9,2.2,9.3,5.4,11.6c3,8.7,11.3,7.1,32.7,7l20.7,11
	l-0.1-11c5.5-0.5,9.7-6.3,9.7-13.3C68.5,36.6,72.4,16,65,9.1z"/>
<path class="st0" d="M54.1,51l0.1,9.9L35.3,51H12.7c-5.1,0-9.4-5.3-9.4-11.8V14.9c0-6.5,4.1-11.8,9.4-11.8h41.4
	c5.1,0,9.4,5.3,9.4,11.8v24.3C63.3,45.7,59.2,51,54.1,51z"/>
<g>
	<path d="M10.1,42.1c-1.1-0.7-1.8-1.6-2.4-2.8c-0.6-1.2-0.9-2.6-0.9-4.1V34l4.1-0.5v1.3c0,1.2,0.2,2.1,0.7,2.8s1.2,1.1,1.9,1.1
		s1.4-0.3,1.9-0.9c0.5-0.6,0.8-1.4,0.8-2.3c0-1.1-0.3-2-0.8-3c-0.5-1-1.5-2.3-3.1-4c-2-2.3-3.5-4.1-4.1-5.7C7.4,21.3,7,19.6,7,17.9
		c0-2.4,0.6-4.3,1.7-5.8s2.7-2.1,4.6-2.1s3.5,0.8,4.6,2.2c1.2,1.4,1.7,3.4,1.7,5.9V19l-4.1,0.5v-1c0-1.3-0.2-2.2-0.6-2.8
		c-0.4-0.7-1-1-1.7-1s-1.3,0.3-1.7,0.8C11.2,16,11,16.7,11,17.8s0.3,2,0.8,3c0.5,1,1.5,2.3,3,4.1c2,2.4,3.5,4.3,4.1,5.8
		c0.8,1.4,1.2,3.1,1.2,4.8c0,1.5-0.3,2.9-0.9,4.1c-0.6,1.3-1.4,2.1-2.4,2.8c-1.1,0.7-2.2,1.1-3.5,1.1C12.3,43.2,11.1,42.8,10.1,42.1
		z"/>
	<path d="M42.8,10.3v32.5h-4.1V20.4l-3.9,22.3h-2.9L28,20.4v22.3H24V10.3h5.9L33.5,31L37,10.3H42.8z"/>
	<path d="M49.6,42.1c-1.1-0.7-1.8-1.6-2.4-2.8c-0.6-1.3-0.9-2.6-0.9-4.1V34l4.1-0.5v1.3c0,1.2,0.2,2.1,0.7,2.8
		c0.5,0.7,1.2,1.1,1.9,1.1c0.8,0,1.4-0.3,1.9-0.9c0.5-0.6,0.8-1.4,0.8-2.3c0-1.1-0.3-2-0.8-3c-0.5-1-1.5-2.3-3.1-4
		c-2-2.3-3.5-4.1-4.1-5.7c-0.8-1.5-1.2-3.2-1.2-4.9c0-2.4,0.6-4.3,1.7-5.8c1.2-1.4,2.7-2.1,4.6-2.1s3.5,0.8,4.6,2.2s1.7,3.4,1.7,5.9
		V19l-4.1,0.5v-1c0-1.3-0.2-2.2-0.6-2.8c-0.4-0.7-1-1-1.7-1c-0.8,0-1.3,0.3-1.7,0.8c-0.4,0.5-0.6,1.3-0.6,2.3s0.3,2,0.8,3
		s1.5,2.3,3,4.1c2,2.4,3.5,4.3,4.1,5.8c0.8,1.4,1.2,3.1,1.2,4.8c0,1.5-0.3,2.9-0.9,4.1s-1.4,2.1-2.4,2.8c-1.1,0.7-2.2,1.1-3.5,1.1
		C51.9,43.2,50.7,42.8,49.6,42.1z"/>
</g>
<g>
	<g id="Layer_2_5_">
		<g id="Calque_1_4_">
			<path id="Path_5983_4_" d="M145.9,47.9l-7.8-7.8c-2-2-5.3-2.1-7.3-0.1l0,0l0,0c-0.6,0.6-1,1.3-1.3,2c-0.9,2.5-3.5,3.9-6.1,3.4
				c-6.7-2.5-12.1-7.8-14.5-14.5c-0.7-2.6,0.8-5.3,3.4-6.1c2.7-0.9,4.2-3.9,3.3-6.6c-0.3-0.8-0.7-1.5-1.3-2l-7.9-7.9
				c-2.2-2-5.4-2-7.6,0l-5.3,5.3c-5.3,5.6,0.6,20.4,13.7,33.5s28,19.3,33.5,13.7l5.3-5.3C147.9,53.3,147.9,50.1,145.9,47.9z"/>
		</g>
	</g>
	<path d="M145.6,47.8l-7.8-7.8c-2-2-5.3-2.1-7.3-0.1l0,0l0,0c-0.6,0.6-1,1.3-1.3,2c-0.9,2.5-3.5,3.9-6.1,3.4
		c-6.7-2.5-12.1-7.8-14.5-14.5c-0.7-2.6,0.8-5.3,3.4-6.1c2.7-0.9,4.2-3.9,3.3-6.6c-0.3-0.8-0.7-1.5-1.3-2L106,8.1
		c-2.2-2-5.4-2-7.6,0l-5.3,5.3C87.8,19,93.7,33.8,106.8,47s28,19.3,33.5,13.7l5.3-5.3C147.6,53.2,147.6,49.9,145.6,47.8z"/>
	<path d="M145.4,47.7l-7.8-7.8c-2-2-5.3-2.1-7.3-0.1l0,0l0,0c-0.6,0.6-1,1.3-1.3,2c-0.9,2.5-3.5,3.9-6.1,3.4
		c-6.7-2.5-12.1-7.8-14.5-14.5c-0.7-2.6,0.8-5.3,3.4-6.1c2.7-0.9,4.2-3.9,3.3-6.6c-0.3-0.8-0.7-1.5-1.3-2L105.7,8
		c-2.2-2-5.4-2-7.6,0l-5.3,5.3c-5.3,5.6,0.6,20.4,13.7,33.5s28,19.3,33.5,13.7l5.3-5.3C147.4,53.2,147.3,49.8,145.4,47.7z"/>
	<path d="M145.1,47.6l-7.8-7.8c-2-2-5.3-2.1-7.3-0.1l0,0l0,0c-0.6,0.6-1,1.3-1.3,2c-0.9,2.5-3.5,3.9-6.1,3.4
		c-6.7-2.5-12.1-7.8-14.5-14.5c-0.7-2.6,0.8-5.3,3.4-6.1c2.7-0.9,4.2-3.9,3.3-6.6c-0.3-0.8-0.7-1.5-1.3-2l-7.9-7.9
		c-2.2-2-5.4-2-7.6,0l-5.3,5.3c-5.3,5.6,0.6,20.4,13.7,33.5s28,19.3,33.5,13.7l5.3-5.3C147.1,53,147.1,49.8,145.1,47.6z"/>
	<path d="M144.8,47.6l-7.8-7.8c-2-2-5.3-2.1-7.3-0.1l0,0l0,0c-0.6,0.6-1,1.3-1.3,2c-0.9,2.5-3.5,3.9-6.1,3.4
		c-6.7-2.5-12.1-7.8-14.5-14.5c-0.7-2.6,0.8-5.3,3.4-6.1c2.7-0.9,4.2-3.9,3.3-6.6c-0.3-0.8-0.7-1.5-1.3-2l-7.9-7.9
		c-2.2-2-5.4-2-7.6,0l-5.3,5.4c-5.3,5.6,0.6,20.4,13.7,33.5s28,19.3,33.5,13.7l5.3-5.3C146.9,52.9,146.9,49.6,144.8,47.6z"/>
	<path d="M144.7,47.4l-7.8-7.9c-2-2-5.3-2.1-7.3-0.1l0,0l0,0c-0.6,0.6-1,1.3-1.3,2c-0.9,2.5-3.5,3.9-6.1,3.4
		c-6.7-2.5-12.1-7.8-14.5-14.5c-0.7-2.6,0.8-5.3,3.4-6.1c2.7-0.9,4.2-3.9,3.3-6.6c-0.3-0.8-0.7-1.5-1.3-2L105,7.8
		c-2.2-2-5.4-2-7.6,0l-5.3,5.3c-5.3,5.6,0.6,20.4,13.7,33.5s27.9,19.2,33.5,13.7l5.3-5.3C146.7,52.9,146.7,49.5,144.7,47.4z"/>
	<path d="M144.4,47.3l-7.8-7.8c-2-2-5.3-2.1-7.3-0.1l0,0l0,0c-0.6,0.6-1,1.3-1.3,2c-0.9,2.5-3.5,3.9-6.1,3.4
		c-6.7-2.5-12.1-7.8-14.5-14.5c-0.7-2.6,0.8-5.3,3.4-6.1c2.7-0.9,4.2-3.9,3.3-6.6c-0.3-0.8-0.7-1.5-1.3-2l-7.9-7.9
		c-2.2-2-5.4-2-7.6,0L91.8,13c-5.3,5.6,0.6,20.4,13.7,33.5s28,19.3,33.5,13.7l5.3-5.3C146.4,52.7,146.4,49.5,144.4,47.3z"/>
	<path d="M144.2,47.2l-7.8-7.8c-2-2-5.3-2.1-7.3-0.1l0,0l0,0c-0.6,0.6-1,1.3-1.3,2c-0.9,2.5-3.5,3.9-6.1,3.4
		c-6.7-2.5-12.1-7.8-14.5-14.5c-0.7-2.6,0.8-5.3,3.4-6.1c2.7-0.9,4.2-3.9,3.3-6.6c-0.3-0.8-0.7-1.5-1.3-2l-7.9-7.9
		c-2.2-2-5.4-2-7.6,0l-5.3,5.3c-5.3,5.6,0.6,20.4,13.7,33.5s28,19.3,33.5,13.7l5.3-5.3C146.2,52.6,146.1,49.4,144.2,47.2z"/>
	<path d="M143.9,47.1l-7.8-7.8c-2-2-5.3-2.1-7.3-0.1l0,0l0,0c-0.6,0.6-1,1.3-1.3,2c-0.9,2.5-3.5,3.9-6.1,3.4
		c-6.7-2.5-12.1-7.8-14.5-14.5c-0.7-2.6,0.8-5.3,3.4-6.1c2.7-0.9,4.2-3.9,3.3-6.6c-0.3-0.8-0.7-1.5-1.3-2l-7.9-7.9
		c-2.2-2-5.4-2-7.6,0l-5.3,5.3c-5.3,5.6,0.6,20.4,13.7,33.5s28,19.3,33.5,13.7l5.3-5.3C145.9,52.6,145.9,49.3,143.9,47.1z"/>
	<path d="M143.7,47l-7.8-7.8c-2-2-5.3-2.1-7.3-0.1l0,0l0,0c-0.6,0.6-1,1.3-1.3,2c-0.9,2.5-3.5,3.9-6.1,3.4
		c-6.7-2.5-12.1-7.8-14.5-14.5c-0.7-2.6,0.8-5.3,3.4-6.1c2.7-0.9,4.2-3.9,3.3-6.6c-0.3-0.8-0.7-1.5-1.3-2L104,7.4
		c-2.2-2-5.4-2-7.6,0l-5.3,5.3c-5.3,5.6,0.6,20.4,13.7,33.5s28,19.3,33.5,13.7l5.3-5.3C145.7,52.5,145.7,49.2,143.7,47z"/>
	<path d="M143.4,47l-7.8-7.8c-2-2-5.3-2.1-7.3-0.1l0,0l0,0c-0.6,0.6-1,1.3-1.3,2c-0.9,2.5-3.5,3.9-6.1,3.4
		c-6.7-2.5-12.1-7.8-14.5-14.5c-0.7-2.6,0.8-5.3,3.4-6.1c2.7-0.9,4.2-3.9,3.3-6.6c-0.3-0.8-0.7-1.5-1.3-2l-7.9-7.9
		c-2.2-2-5.4-2-7.6,0l-5.3,5.3c-5.3,5.6,0.6,20.4,13.7,33.5s28,19.3,33.5,13.7l5.3-5.3C145.4,52.4,145.4,49.1,143.4,47z"/>
	<path d="M143.2,46.9l-7.8-7.8c-2-2-5.3-2.1-7.3-0.1l0,0l0,0c-0.6,0.6-1,1.3-1.3,2c-0.9,2.5-3.5,3.9-6.1,3.4
		c-6.7-2.5-12.1-7.8-14.5-14.5c-0.7-2.6,0.8-5.3,3.4-6.1c2.7-0.9,4.2-3.9,3.3-6.6c-0.3-0.8-0.7-1.5-1.3-2l-7.9-7.9
		c-2.2-2-5.4-2-7.6,0l-5.3,5.3c-5.3,5.6,0.6,20.4,13.7,33.5s28,19.3,33.5,13.7l5.3-5.3C145.2,52.3,145.2,49,143.2,46.9z"/>
	<path d="M142.9,46.8l-7.8-7.8c-2-2-5.3-2.1-7.3-0.1l0,0l0,0c-0.6,0.6-1,1.3-1.3,2c-0.9,2.5-3.5,3.9-6.1,3.4
		c-6.7-2.5-12.1-7.8-14.5-14.5c-0.7-2.6,0.8-5.3,3.4-6.1c2.7-0.9,4.2-3.9,3.3-6.6c-0.3-0.8-0.7-1.5-1.3-2l-7.9-7.9
		c-2.2-2-5.4-2-7.6,0l-5.3,5.3C85.1,18,91,32.8,104.1,45.9s28,19.3,33.5,13.7l5.3-5.3C145,52.2,144.9,48.9,142.9,46.8z"/>
	<path d="M142.6,46.7l-7.8-7.8c-2-2-5.3-2.1-7.3-0.1l0,0l0,0c-0.6,0.6-1,1.3-1.3,2c-0.9,2.5-3.5,3.9-6.1,3.4
		c-6.7-2.5-12.1-7.8-14.5-14.5c-0.7-2.6,0.8-5.3,3.4-6.1c2.7-0.9,4.2-3.9,3.3-6.6c-0.3-0.8-0.7-1.5-1.3-2L103,7c-2.2-2-5.4-2-7.6,0
		l-5.3,5.3c-5.3,5.6,0.6,20.4,13.7,33.5s28,19.3,33.5,13.7l5.3-5.3C144.7,52.1,144.7,48.8,142.6,46.7z"/>
	<path d="M142.5,46.6l-7.8-7.8c-2-2-5.3-2.1-7.3-0.1l0,0l0,0c-0.6,0.6-1,1.3-1.3,2c-0.9,2.5-3.5,3.9-6.1,3.4
		c-6.7-2.5-12.1-7.8-14.5-14.5c-0.7-2.6,0.8-5.3,3.4-6.1c2.7-0.9,4.2-3.9,3.3-6.6c-0.3-0.8-0.7-1.5-1.3-2l-7.9-7.9
		c-2.2-2-5.4-2-7.6,0l-5.3,5.3c-5.3,5.6,0.6,20.4,13.7,33.5s28,19.3,33.5,13.7l5.3-5.3C144.5,52,144.5,48.7,142.5,46.6z"/>
	<path d="M142.2,46.5l-7.8-7.8c-2-2-5.3-2.1-7.3-0.1l0,0l0,0c-0.6,0.6-1,1.3-1.3,2c-0.9,2.5-3.5,3.9-6.1,3.4
		c-6.7-2.5-12.1-7.8-14.5-14.5c-0.7-2.6,0.8-5.3,3.4-6.1c2.7-0.9,4.2-3.9,3.3-6.6c-0.3-0.8-0.7-1.5-1.3-2l-7.9-7.9
		c-2.2-2-5.4-2-7.6,0l-5.3,5.3c-5.3,5.6,0.6,20.4,13.7,33.5s28,19.3,33.5,13.7l5.3-5.3C144.2,51.9,144.2,48.6,142.2,46.5z"/>
	<path d="M142,46.4l-7.8-7.8c-2-2-5.3-2.1-7.3-0.1l0,0l0,0c-0.6,0.6-1,1.3-1.3,2c-0.9,2.5-3.5,3.9-6.1,3.4
		c-6.7-2.5-12.1-7.8-14.5-14.5c-0.7-2.6,0.8-5.3,3.4-6.1c2.7-0.9,4.2-3.9,3.3-6.6c-0.3-0.8-0.7-1.5-1.3-2l-7.8-7.9
		c-2.2-2-5.4-2-7.6,0L89.4,12c-5.3,5.6,0.6,20.4,13.7,33.5s28,19.3,33.5,13.7L142,54C144,51.8,143.9,48.5,142,46.4z"/>
	<path d="M141.7,46.3l-7.8-7.8c-2-2-5.3-2.1-7.3-0.1l0,0l0,0c-0.6,0.6-1,1.3-1.3,2c-0.9,2.5-3.5,3.9-6.1,3.4
		c-6.7-2.5-12.1-7.8-14.5-14.5c-0.7-2.6,0.8-5.3,3.4-6.1c2.7-0.9,4.2-3.9,3.3-6.6c-0.3-0.8-0.7-1.5-1.3-2L102,6.6
		c-2.1-1.9-5.4-1.9-7.6,0l-5.3,5.3c-5.3,5.6,0.6,20.4,13.7,33.5s28,19.3,33.5,13.7l5.3-5.3C143.7,51.7,143.7,48.4,141.7,46.3z"/>
	<path d="M141.5,46.2l-7.8-7.9c-2-2-5.3-2.1-7.3-0.1l0,0l0,0c-0.6,0.6-1,1.3-1.3,2c-0.9,2.5-3.5,3.9-6.1,3.4
		c-6.7-2.5-12.1-7.8-14.5-14.5c-0.7-2.6,0.8-5.3,3.4-6.1c2.7-0.9,4.2-3.9,3.3-6.6c-0.3-0.8-0.7-1.5-1.3-2l-7.9-7.8
		c-2.2-2-5.4-2-7.6,0L89,11.9c-5.3,5.6,0.6,20.4,13.7,33.5s28,19.3,33.5,13.7l5.3-5.3C143.5,51.6,143.5,48.3,141.5,46.2z"/>
	<path d="M141.2,46.1l-7.8-7.8c-2-2-5.3-2.1-7.3-0.1l0,0l0,0c-0.6,0.6-1,1.3-1.3,2c-0.9,2.5-3.5,3.9-6.1,3.4
		c-6.7-2.5-12.1-7.8-14.5-14.5c-0.7-2.6,0.8-5.3,3.4-6.1c2.7-0.9,4.2-3.9,3.3-6.6c-0.3-0.8-0.7-1.5-1.3-2l-7.9-7.9
		c-2.2-2-5.4-2-7.6,0l-5.3,5.3c-5.3,5.6,0.6,20.4,13.7,33.5s28,19.3,33.5,13.7l5.3-5.3C143.2,51.5,143.2,48.2,141.2,46.1z"/>
	<path d="M141,46l-7.8-7.8c-2-2-5.3-2.1-7.3-0.1l0,0l0,0c-0.6,0.6-1,1.3-1.3,2c-0.9,2.5-3.5,3.9-6.1,3.4
		c-6.7-2.5-12.1-7.8-14.5-14.5c-0.7-2.6,0.8-5.3,3.4-6.1c2.7-0.9,4.2-3.9,3.3-6.6c-0.3-0.8-0.7-1.5-1.3-2l-7.9-7.9
		c-2.2-2-5.4-2-7.6,0l-5.3,5.3C83.1,17.2,89,32,102.2,45.2s28,19.3,33.5,13.7l5.3-5.3C143,51.4,143,48.2,141,46z"/>
	<path d="M140.7,45.9l-7.8-7.8c-2-2-5.3-2.1-7.3-0.1l0,0l0,0c-0.6,0.6-1,1.3-1.3,2c-0.9,2.5-3.5,3.9-6.1,3.4
		c-6.7-2.5-12.1-7.8-14.5-14.5c-0.7-2.6,0.8-5.3,3.4-6.1c2.7-0.9,4.2-3.9,3.3-6.6c-0.3-0.8-0.7-1.5-1.3-2L101,6.3
		c-2.2-2-5.4-2-7.6,0l-5.3,5.3c-5.3,5.6,0.6,20.4,13.7,33.5s28,19.3,33.5,13.7l5.3-5.3C142.8,51.3,142.7,48,140.7,45.9z"/>
	<path d="M140.4,45.8l-7.8-7.8c-2-2-5.3-2.1-7.3-0.1l0,0l0,0c-0.6,0.6-1,1.3-1.3,2c-0.9,2.5-3.5,3.9-6.1,3.4
		c-6.7-2.5-12.1-7.8-14.5-14.5c-0.7-2.6,0.8-5.3,3.4-6.1c2.7-0.9,4.2-3.9,3.3-6.6c-0.3-0.8-0.7-1.5-1.3-2l-7.9-7.9
		c-2.2-2-5.4-2-7.6,0L88,11.4C82.7,17,88.5,31.8,101.7,45s28,19.3,33.5,13.7l5.3-5.3C142.5,51.3,142.5,47.9,140.4,45.8z"/>
	<path d="M140.3,45.7l-7.8-7.8c-2-2-5.3-2.1-7.3-0.1l0,0l0,0c-0.6,0.6-1,1.3-1.3,2c-0.9,2.5-3.5,3.9-6.1,3.4
		c-6.7-2.5-12.1-7.8-14.5-14.5c-0.7-2.6,0.8-5.3,3.4-6.1c2.7-0.9,4.2-3.9,3.3-6.6c-0.3-0.8-0.7-1.5-1.3-2L100.6,6
		c-2.2-2-5.4-2-7.6,0l-5.3,5.3c-5.3,5.6,0.6,20.4,13.7,33.5s28,19.3,33.5,13.7l5.3-5.3C142.3,51.2,142.3,47.9,140.3,45.7z"/>
	<path d="M140,45.7l-7.8-7.8c-2-2-5.3-2.1-7.3-0.1l0,0l0,0c-0.6,0.6-1,1.3-1.3,2c-0.9,2.5-3.5,3.9-6.1,3.4
		c-6.7-2.5-12.1-7.8-14.5-14.5c-0.7-2.6,0.8-5.3,3.4-6.1c2.7-0.9,4.2-3.9,3.3-6.6c-0.3-0.8-0.7-1.5-1.3-2L100.3,6
		c-2.2-2-5.4-2-7.6,0l-5.3,5.4c-5.3,5.6,0.6,20.4,13.7,33.5s28,19.3,33.5,13.7l5.3-5.3C142,51.1,142,47.7,140,45.7z"/>
	<path d="M139.8,45.5l-7.8-7.8c-2-2-5.3-2.1-7.3-0.1l0,0l0,0c-0.6,0.6-1,1.3-1.3,2c-0.9,2.5-3.5,3.9-6.1,3.4
		c-6.7-2.5-12.1-7.8-14.5-14.5c-0.7-2.6,0.8-5.3,3.4-6.1c2.7-0.9,4.2-3.9,3.3-6.6c-0.3-0.8-0.7-1.5-1.3-2l-7.9-7.9
		c-2.2-2-5.4-2-7.6,0l-5.3,5.3c-5.3,5.6,0.6,20.4,13.7,33.5s28,19.3,33.5,13.7l5.3-5.3C141.8,51,141.7,47.6,139.8,45.5z"/>
	<path d="M139.5,45.4l-7.8-7.8c-2-2-5.3-2.1-7.3-0.1l0,0l0,0c-0.6,0.6-1,1.3-1.3,2c-0.9,2.5-3.5,3.9-6.1,3.4
		c-6.7-2.5-12.1-7.8-14.5-14.5c-0.7-2.6,0.8-5.3,3.4-6.1c2.7-0.9,4.2-3.9,3.3-6.6c-0.3-0.8-0.7-1.5-1.3-2l-7.9-7.9
		c-2.2-2-5.4-2-7.6,0L87,11.1c-5.3,5.6,0.6,20.4,13.7,33.5s28,19.3,33.5,13.7l5.3-5.3C141.5,50.8,141.5,47.6,139.5,45.4z"/>
	<path d="M139.2,45.4l-7.8-7.8c-2-2-5.3-2.1-7.3-0.1l0,0l0,0c-0.6,0.6-1,1.3-1.3,2c-0.9,2.5-3.5,3.9-6.1,3.4
		c-6.7-2.5-12-7.8-14.5-14.5c-0.7-2.6,0.8-5.3,3.4-6.1c2.7-0.9,4.2-3.9,3.3-6.6c-0.3-0.8-0.7-1.5-1.3-2l-7.8-7.9c-2.2-2-5.4-2-7.6,0
		L86.8,11c-5.3,5.6,0.6,20.4,13.7,33.5s28,19.3,33.5,13.7l5.3-5.3C141.3,50.8,141.3,47.5,139.2,45.4z"/>
	<path d="M139,45.2l-7.8-7.8c-2-2-5.3-2.1-7.3-0.1l0,0l0,0c-0.6,0.6-1,1.3-1.3,2c-0.9,2.5-3.5,3.9-6.1,3.4
		c-6.7-2.5-12.1-7.8-14.5-14.5c-0.7-2.6,0.8-5.3,3.4-6.1c2.7-0.9,4.2-3.9,3.3-6.6c-0.3-0.8-0.7-1.5-1.3-2l-7.9-7.9
		c-2.2-1.9-5.4-1.9-7.6,0l-5.3,5.3c-5.3,5.6,0.6,20.4,13.7,33.5s28,19.3,33.5,13.7l5.3-5.3C141,50.7,141,47.4,139,45.2z"/>
	<path d="M138.8,45.1l-7.8-7.8c-2-2-5.3-2.1-7.3-0.1l0,0l0,0c-0.6,0.6-1,1.3-1.3,2c-0.9,2.5-3.5,3.9-6.1,3.4
		c-6.8-2.5-12.1-7.8-14.5-14.5c-0.7-2.6,0.8-5.3,3.4-6.1c2.7-0.9,4.2-3.9,3.3-6.6c-0.3-0.8-0.7-1.5-1.3-2l-7.9-7.9
		c-2.2-2-5.4-2-7.6,0l-5.3,5.3c-5.3,5.6,0.6,20.4,13.7,33.5s28,19.3,33.5,13.7l5.3-5.3C140.8,50.6,140.8,47.3,138.8,45.1z"/>
	<path d="M138.5,45.1l-7.8-7.9c-2-2-5.3-2.1-7.3-0.1l0,0l0,0c-0.6,0.6-1,1.3-1.3,2c-0.9,2.5-3.5,3.9-6.1,3.4
		c-6.7-2.5-12.1-7.8-14.5-14.5c-0.7-2.6,0.8-5.3,3.4-6.1c2.7-0.9,4.2-3.9,3.3-6.6c-0.3-0.8-0.7-1.5-1.3-2l-7.9-7.9
		c-2.2-2-5.4-2-7.6,0L86,10.7c-5.3,5.6,0.6,20.4,13.7,33.5s28,19.3,33.5,13.7l5.3-5.3C140.6,50.5,140.5,47.2,138.5,45.1z"/>
	<path d="M138.3,45l-7.8-7.8c-2-2-5.3-2.1-7.3-0.1l0,0l0,0c-0.6,0.6-1,1.3-1.3,2c-0.9,2.5-3.5,3.9-6.1,3.4
		c-6.7-2.5-12.1-7.8-14.5-14.5c-0.7-2.6,0.8-5.3,3.4-6.1c2.7-0.9,4.2-3.9,3.3-6.6c-0.3-0.8-0.7-1.5-1.3-2l-7.9-7.9
		c-2.2-2-5.4-2-7.6,0l-5.2,5.4c-5.3,5.6,0.6,20.4,13.7,33.5s28,19.3,33.5,13.7l5.3-5.3C140.3,50.4,140.3,47.1,138.3,45z"/>
	<path d="M138.1,44.9l-7.8-7.8c-2-2-5.3-2.1-7.3-0.1l0,0l0,0c-0.6,0.6-1,1.3-1.3,2c-0.9,2.5-3.5,3.9-6.1,3.4
		c-6.7-2.5-12.1-7.8-14.5-14.5c-0.7-2.6,0.8-5.3,3.4-6.1c2.7-0.9,4.2-3.9,3.3-6.6c-0.3-0.8-0.7-1.5-1.3-2l-7.9-7.9
		c-2.2-2-5.4-2-7.6,0l-5.3,5.3c-5.3,5.6,0.6,20.4,13.7,33.5s28,19.3,33.5,13.7l5.3-5.3C140.1,50.3,140.1,47,138.1,44.9z"/>
	<path d="M137.8,44.8L130,37c-2-2-5.3-2.1-7.3-0.1l0,0l0,0c-0.6,0.6-1,1.3-1.3,2c-0.9,2.5-3.5,3.9-6.1,3.4
		c-6.7-2.5-12.1-7.8-14.5-14.5c-0.7-2.6,0.8-5.3,3.4-6.1c2.7-0.9,4.2-3.9,3.3-6.6c-0.3-0.8-0.7-1.5-1.3-2l-7.9-7.9
		c-2.2-2-5.4-2-7.6,0l-5.3,5.3C80,16,85.8,30.8,99,44s28,19.3,33.5,13.7l5.3-5.3C139.8,50.2,139.8,46.9,137.8,44.8z"/>
	<path d="M137.6,44.7l-7.8-7.8c-2-2-5.3-2.1-7.3-0.1l0,0l0,0c-0.6,0.6-1,1.3-1.3,2c-0.9,2.5-3.5,3.9-6.1,3.4
		c-6.7-2.5-12.1-7.8-14.5-14.5c-0.7-2.6,0.8-5.3,3.4-6.1c2.7-0.9,4.2-3.9,3.3-6.6c-0.3-0.8-0.7-1.5-1.3-2L97.9,5c-2.2-2-5.4-2-7.6,0
		L85,10.3c-5.3,5.6,0.6,20.4,13.7,33.5s28,19.3,33.5,13.7l5.3-5.3C139.6,50.1,139.5,46.8,137.6,44.7z"/>
	<path d="M137.3,44.6l-7.8-7.8c-2-2-5.3-2.1-7.3-0.1l0,0l0,0c-0.6,0.6-1,1.3-1.3,2c-0.9,2.5-3.5,3.9-6.1,3.4
		c-6.7-2.5-12.1-7.8-14.5-14.5c-0.7-2.6,0.8-5.3,3.4-6.1c2.7-0.9,4.2-3.9,3.3-6.6c-0.3-0.8-0.7-1.5-1.3-2l-7.9-7.9
		c-2.2-2-5.4-2-7.6,0l-5.3,5.3c-5.3,5.6,0.6,20.4,13.7,33.5s28,19.3,33.5,13.7l5.3-5.3C139.4,50.1,139.3,46.7,137.3,44.6z"/>
	<path d="M137,44.5l-7.8-7.8c-2-2-5.3-2.1-7.3-0.1l0,0l0,0c-0.6,0.6-1,1.3-1.3,2c-0.9,2.5-3.5,3.9-6.1,3.4
		c-6.7-2.5-12.1-7.8-14.5-14.5c-0.7-2.6,0.8-5.3,3.4-6.1c2.7-0.9,4.2-3.9,3.3-6.6c-0.3-0.8-0.7-1.5-1.3-2l-7.9-7.9
		c-2.2-2-5.4-2-7.6,0l-5.3,5.3c-5.3,5.6,0.6,20.4,13.7,33.5s28,19.3,33.5,13.7l5.3-5.3C139.1,49.9,139.1,46.6,137,44.5z"/>
	<path d="M136.9,44.4l-7.8-7.8c-2-2-5.3-2.1-7.3-0.1l0,0l0,0c-0.6,0.6-1,1.3-1.3,2c-0.9,2.5-3.5,3.9-6.1,3.4
		c-6.7-2.5-12.1-7.8-14.5-14.5c-0.7-2.6,0.8-5.3,3.4-6.1c2.7-0.9,4.2-3.9,3.3-6.6c-0.3-0.8-0.7-1.5-1.3-2l-7.9-7.9
		c-2.2-2-5.4-2-7.6,0L84.3,10c-5.3,5.6,0.6,20.4,13.7,33.5s28,19.3,33.5,13.7l5.3-5.3C138.8,49.8,138.8,46.5,136.9,44.4z"/>
	<path d="M136.6,44.3l-7.8-7.8c-2-2-5.3-2.1-7.3-0.1l0,0l0,0c-0.6,0.6-1,1.3-1.3,2c-0.9,2.5-3.5,3.9-6.1,3.4
		c-6.7-2.5-12.1-7.8-14.5-14.5c-0.7-2.6,0.8-5.3,3.4-6.1c2.7-0.9,4.2-3.9,3.3-6.6c-0.3-0.8-0.7-1.5-1.3-2l-7.9-7.9
		c-2.2-2-5.4-2-7.6,0L84,10c-5.3,5.6,0.6,20.4,13.7,33.5s28,19.3,33.5,13.7l5.3-5.3C138.6,49.8,138.6,46.4,136.6,44.3z"/>
	<path d="M136.3,44.2l-7.8-7.8c-2-2-5.3-2.1-7.3-0.1l0,0l0,0c-0.6,0.6-1,1.3-1.3,2c-0.9,2.5-3.5,3.9-6.1,3.4
		c-6.7-2.5-12.1-7.8-14.5-14.5c-0.7-2.6,0.8-5.3,3.4-6.1c2.7-0.9,4.2-3.9,3.3-6.6c-0.3-0.8-0.7-1.5-1.3-2l-7.9-7.9
		c-2.2-2-5.4-2-7.6,0l-5.3,5.3c-5.3,5.6,0.6,20.4,13.7,33.5s28,19.3,33.5,13.7l5.3-5.3C138.4,49.6,138.3,46.3,136.3,44.2z"/>
	<path d="M136.1,44.1l-7.8-7.8c-2-2-5.3-2.1-7.3-0.1l0,0l0,0c-0.6,0.6-1,1.3-1.3,2c-0.9,2.5-3.5,3.9-6.1,3.4
		c-6.7-2.5-12.1-7.8-14.5-14.5c-0.7-2.6,0.8-5.3,3.4-6.1c2.7-0.9,4.2-3.9,3.3-6.6c-0.3-0.8-0.7-1.5-1.3-2l-7.9-7.9
		c-2.2-2-5.4-2-7.6,0l-5.3,5.3c-5.3,5.6,0.6,20.4,13.7,33.5s28,19.3,33.5,13.7l5.3-5.3C138.1,49.5,138.1,46.3,136.1,44.1z"/>
	<path d="M135.8,44l-7.8-7.8c-2-2-5.3-2.1-7.3-0.1l0,0l0,0c-0.6,0.6-1,1.3-1.3,2c-0.9,2.5-3.5,3.9-6.1,3.4
		c-6.7-2.5-12.1-7.8-14.5-14.5c-0.7-2.6,0.8-5.3,3.4-6.1c2.7-0.9,4.2-3.9,3.3-6.6c-0.3-0.8-0.7-1.5-1.3-2l-7.9-7.9
		c-2.2-2-5.4-2-7.6,0l-5.3,5.3c-5.3,5.6,0.6,20.4,13.7,33.5s28,19.3,33.5,13.7l5.3-5.3C137.9,49.4,137.9,46.2,135.8,44z"/>
	<path d="M135.6,43.9l-7.8-7.8c-2-2-5.3-2.1-7.3-0.1l0,0l0,0c-0.6,0.6-1,1.3-1.3,2c-0.9,2.5-3.5,3.9-6.1,3.4
		c-6.7-2.5-12.1-7.8-14.5-14.5c-0.7-2.6,0.8-5.3,3.4-6.1c2.7-0.9,4.2-3.9,3.3-6.6c-0.3-0.8-0.7-1.5-1.3-2l-7.9-7.9
		c-2.2-2-5.4-2-7.6,0l-5.3,5.3c-5.3,5.6,0.6,20.4,13.7,33.5s28,19.3,33.5,13.7l5.3-5.3C137.6,49.4,137.6,46,135.6,43.9z"/>
	<path d="M135.4,43.8l-7.8-7.8c-2-2-5.3-2.1-7.3-0.1l0,0l0,0c-0.6,0.6-1,1.3-1.3,2c-0.9,2.5-3.5,3.9-6.1,3.4
		c-6.7-2.5-12.1-7.8-14.5-14.5c-0.7-2.6,0.8-5.3,3.4-6.1c2.7-0.9,4.2-3.9,3.2-6.6c-0.3-0.8-0.7-1.5-1.3-2l-7.9-7.9
		c-2.2-2-5.4-2-7.6,0l-5.3,5.3C77.5,15,83.4,29.8,96.6,43s28,19.3,33.5,13.7l5.3-5.3C137.3,49.3,137.3,46,135.4,43.8z"/>
	<path d="M135.1,43.8l-7.8-7.8c-2-2-5.3-2.1-7.3-0.1l0,0l0,0c-0.6,0.6-1,1.3-1.3,2c-0.9,2.5-3.5,3.9-6.1,3.4
		c-6.7-2.5-12.1-7.8-14.5-14.5c-0.7-2.6,0.8-5.3,3.4-6.1c2.7-0.9,4.2-3.9,3.3-6.6c-0.3-0.8-0.7-1.5-1.3-2L95.4,4c-2.2-2-5.4-2-7.6,0
		l-5.2,5.3c-5.3,5.6,0.6,20.4,13.7,33.5s28,19.3,33.5,13.7l5.3-5.3C137.2,49.2,137.1,45.9,135.1,43.8z"/>
	<path d="M134.8,43.7l-7.8-7.9c-2-2-5.3-2.1-7.3-0.1l0,0l0,0c-0.6,0.6-1,1.3-1.3,2c-0.9,2.5-3.5,3.9-6.1,3.4
		c-6.7-2.5-12.1-7.8-14.5-14.5c-0.7-2.6,0.8-5.3,3.4-6.1c2.7-0.9,4.2-3.9,3.3-6.6c-0.3-0.8-0.7-1.5-1.3-2L95.2,4c-2.2-2-5.4-2-7.6,0
		l-5.3,5.3C77,14.8,82.9,29.7,96,42.8s28,19.3,33.5,13.7l5.3-5.3C136.9,49.1,136.9,45.7,134.8,43.7z"/>
	<path d="M134.7,43.5l-7.8-7.8c-2-2-5.3-2.1-7.3-0.1l0,0l0,0c-0.6,0.6-1,1.3-1.3,2c-0.9,2.5-3.5,3.9-6.1,3.4
		c-6.7-2.5-12.1-7.8-14.5-14.5c-0.7-2.6,0.8-5.3,3.4-6.1c2.7-0.9,4.2-3.9,3.3-6.6c-0.3-0.8-0.7-1.5-1.3-2L95,3.9c-2.2-2-5.4-2-7.6,0
		l-5.3,5.3c-5.3,5.6,0.6,20.4,13.7,33.5s28,19.3,33.5,13.7l5.3-5.3C136.6,49,136.6,45.7,134.7,43.5z"/>
	<path d="M134.4,43.5l-7.8-7.8c-2-2-5.3-2.1-7.3-0.1l0,0l0,0c-0.6,0.6-1,1.3-1.3,2c-0.9,2.5-3.5,3.9-6.1,3.4
		c-6.7-2.5-12.1-7.8-14.5-14.5c-0.7-2.6,0.8-5.3,3.4-6.1c2.7-0.9,4.2-3.9,3.3-6.6c-0.3-0.8-0.7-1.5-1.3-2l-7.9-7.9
		c-2.2-2-5.4-2-7.6,0l-5.3,5.3c-5.3,5.6,0.6,20.4,13.7,33.5s28,19.3,33.5,13.7l5.3-5.3C136.4,48.9,136.4,45.6,134.4,43.5z"/>
	<path d="M134.1,43.4l-7.8-7.8c-2-2-5.3-2.1-7.3-0.1l0,0l0,0c-0.6,0.6-1,1.3-1.3,2c-0.9,2.5-3.5,3.9-6.1,3.4
		c-6.7-2.5-12.1-7.8-14.5-14.5c-0.7-2.6,0.8-5.3,3.4-6.1c2.7-0.9,4.2-3.9,3.3-6.6c-0.3-0.8-0.7-1.5-1.3-2l-7.9-7.9
		c-2.2-2-5.4-2-7.6,0L81.6,9c-5.3,5.6,0.6,20.4,13.7,33.5s28,19.3,33.5,13.7l5.3-5.3C136.2,48.8,136.1,45.5,134.1,43.4z"/>
	<path d="M133.9,43.2l-7.8-7.8c-2-2-5.3-2.1-7.3-0.1l0,0l0,0c-0.6,0.6-1,1.3-1.3,2c-0.9,2.5-3.5,3.9-6.1,3.4
		c-6.7-2.5-12.1-7.8-14.5-14.5c-0.7-2.6,0.8-5.3,3.4-6.1c2.7-0.9,4.2-3.9,3.3-6.6c-0.3-0.8-0.7-1.5-1.3-2l-7.9-7.9
		c-2.2-2-5.4-2-7.6,0l-5.3,5.3c-5.3,5.6,0.5,20.4,13.7,33.5s28,19.3,33.5,13.7l5.3-5.3C135.9,48.7,135.9,45.4,133.9,43.2z"/>
	<path d="M133.6,43.2l-7.8-7.8c-2-2-5.3-2.1-7.3-0.1l0,0l0,0c-0.6,0.6-1,1.3-1.3,2c-0.9,2.5-3.5,3.9-6.1,3.4
		c-6.7-2.5-12.1-7.8-14.5-14.5c-0.7-2.6,0.8-5.3,3.4-6.1c2.7-0.9,4.2-3.9,3.3-6.6c-0.3-0.8-0.7-1.5-1.3-2L94,3.5c-2.2-2-5.4-2-7.6,0
		l-5.3,5.3c-5.3,5.6,0.6,20.4,13.7,33.5s28,19.3,33.5,13.7l5.3-5.3C135.7,48.6,135.7,45.3,133.6,43.2z"/>
	<g id="Layer_2_4_">
		<g id="Calque_1_3_">
			<path id="Path_5983_3_" d="M133.4,43.1l-7.8-7.9c-2-2-5.3-2.1-7.3-0.1l0,0l0,0c-0.6,0.6-1,1.3-1.3,2c-0.9,2.5-3.5,3.9-6.1,3.4
				c-6.7-2.5-12.1-7.8-14.5-14.5c-0.7-2.6,0.8-5.3,3.4-6.1c2.7-0.9,4.2-3.9,3.3-6.5c-0.3-0.8-0.7-1.5-1.3-2l-7.9-7.9
				c-2.2-2-5.4-2-7.6,0l-5.3,5.4c-5.3,5.6,0.6,20.4,13.7,33.5s28,19.3,33.5,13.7l5.3-5.3C135.4,48.5,135.4,45.2,133.4,43.1z"/>
		</g>
	</g>
</g>
<g id="Layer_2_2_">
	<g id="Calque_1_1_">
		<g id="Path_5983_1_">
			<path class="st1" d="M122.4,57.7c-7.2,0-18.1-6.2-27.6-15.7C82,29.3,75.8,14.4,81.1,8.9l5.3-5.3c1-0.9,2.2-1.4,3.6-1.4
				c1.3,0,2.6,0.5,3.6,1.4l7.8,7.8c0.6,0.6,1,1.2,1.2,2c0.9,2.6-0.5,5.4-3.1,6.3c-2.7,0.9-4.2,3.7-3.5,6.4
				c2.5,6.9,7.8,12.2,14.7,14.7c0.4,0.1,0.8,0.2,1.2,0.2c2.3,0,4.4-1.5,5.2-3.6c0.3-0.7,0.7-1.4,1.2-1.9l0,0
				c0.9-0.9,2.2-1.4,3.4-1.4c1.3,0,2.6,0.5,3.6,1.5l7.8,7.8c1.9,2,1.9,5.1,0,7.2l-5.3,5.3C126.6,57.1,124.8,57.7,122.4,57.7
				L122.4,57.7z"/>
			<path d="M90,2.5c1.3,0,2.5,0.5,3.4,1.3l7.8,7.8c0.5,0.5,0.9,1.2,1.2,1.9c0.8,2.5-0.5,5.1-3,6c-2.9,0.9-4.4,3.9-3.7,6.7l0,0l0,0
				c2.5,6.9,7.9,12.3,14.8,14.8h0h0.1c0.4,0.1,0.8,0.2,1.3,0.2c2.5,0,4.7-1.5,5.5-3.8c0.3-0.7,0.7-1.3,1.2-1.9
				c0.9-0.9,2-1.3,3.3-1.3c1.3,0,2.5,0.5,3.4,1.4l7.8,7.8c1.8,1.9,1.9,5,0,6.9l-5.3,5.3c-1.3,1.3-3.1,1.9-5.4,1.9
				c-7.2,0-17.9-6.1-27.4-15.6C82.3,29.2,76.1,14.5,81.2,9.1l5.3-5.3C87.5,2.9,88.7,2.5,90,2.5 M90,1.9c-1.4,0-2.7,0.5-3.8,1.5
				l-5.3,5.3c-5.3,5.6,0.6,20.4,13.7,33.5c9.8,9.8,20.7,15.8,27.8,15.8c2.4,0,4.4-0.7,5.8-2l5.3-5.3c2-2.2,1.9-5.5,0-7.6l-7.8-7.9
				c-1-1.1-2.4-1.6-3.7-1.6s-2.6,0.5-3.6,1.5l0,0c-0.6,0.6-1,1.3-1.3,2c-0.8,2.2-2.8,3.5-5,3.5c-0.3,0-0.8,0-1.2-0.1
				c-6.7-2.5-12.1-7.8-14.5-14.5c-0.7-2.6,0.8-5.3,3.4-6.1c2.6-0.9,4.1-3.9,3.2-6.5c-0.3-0.8-0.7-1.5-1.3-2l-7.8-7.9
				C92.7,2.4,91.3,1.9,90,1.9L90,1.9z"/>
		</g>
	</g>
</g>
<g>
	<path d="M77.4,41.2h-5.5V38h5.5v-5.5h3.2V38h5.5v3.2h-5.5v5.6h-3.2V41.2z"/>
</g>
</svg>
