<?xml version="1.0" encoding="utf-8"?>
<!-- Generator: Adobe Illustrator 26.2.1, SVG Export Plug-In . SVG Version: 6.00 Build 0)  -->
<svg version="1.1" id="Layer_1" xmlns="http://www.w3.org/2000/svg" xmlns:xlink="http://www.w3.org/1999/xlink" x="0px" y="0px"
	 viewBox="0 0 140 71.2" style="enable-background:new 0 0 140 71.2;" xml:space="preserve">
<style type="text/css">
	.st0{fill:#FFFCBF;}
</style>
<path d="M56.9,10.1c-1.4-4.3-4.8-7.3-8.6-7.3H8.8c-5.3,0-9.5,5.7-9.5,12.8v24.8c0,4.7,2,8.9,4.9,11.2c2.7,8.4,10.2,6.8,29.5,6.7
	l18.6,10.6l-0.1-10.6c5-0.5,8.8-6.1,8.8-12.8C60.1,36.6,63.5,16.7,56.9,10.1z"/>
<path class="st0" d="M47.1,50.4l0.1,9.5l-17.1-9.5H9.8c-4.5,0-8.4-5.1-8.4-11.4V15.7C1.4,9.4,5,4.3,9.8,4.3H47
	c4.5,0,8.4,5.1,8.4,11.4v23.4C55.3,45.3,51.7,50.4,47.1,50.4z"/>
<g>
	<path d="M7.5,41.8c-1-0.7-1.7-1.5-2.2-2.7c-0.4-1.1-0.8-2.5-0.8-3.9V34l3.7-0.4v1.3c0,1.2,0.2,2,0.7,2.7c0.4,0.7,1.1,1.1,1.7,1.1
		s1.2-0.3,1.7-0.9c0.4-0.6,0.8-1.3,0.8-2.2c0-1.1-0.2-1.9-0.8-2.9c-0.4-1-1.3-2.2-2.8-3.8c-1.8-2.2-3.1-3.9-3.7-5.5
		c-0.8-1.4-1.1-3.1-1.1-4.7c0-2.3,0.6-4.1,1.6-5.6s2.4-2,4.1-2s3.1,0.8,4.1,2.1c1.1,1.3,1.6,3.3,1.6,5.7v0.9l-3.7,0.5v-1
		c0-1.3-0.2-2.1-0.6-2.7c-0.3-0.7-0.9-1-1.6-1c-0.7,0-1.2,0.3-1.6,0.8c-0.2,0.5-0.4,1.2-0.4,2.2c0,1.1,0.2,1.9,0.8,2.9
		c0.4,1,1.3,2.2,2.7,3.9c1.8,2.3,3.1,4.1,3.7,5.6c0.8,1.3,1.1,3,1.1,4.6c0,1.4-0.2,2.8-0.8,3.9c-0.6,1.3-1.2,2-2.2,2.7
		s-2,1.1-3.1,1.1C9.5,42.9,8.4,42.5,7.5,41.8z"/>
	<path d="M37,11.2v31.3h-3.7V21l-3.5,21.5h-2.7L23.5,21v21.5h-3.7V11.2h5.3l3.2,19.9l3.1-19.9C31.5,11.2,37,11.2,37,11.2z"/>
	<path d="M43,41.8c-1-0.7-1.7-1.5-2.2-2.7c-0.6-1.3-0.8-2.5-0.8-3.9V34l3.7-0.5v1.3c0,1.2,0.2,2,0.7,2.7c0.4,0.7,1.1,1.1,1.7,1.1
		c0.8,0,1.2-0.3,1.7-0.9c0.4-0.6,0.8-1.3,0.8-2.2c0-1.1-0.2-1.9-0.8-2.9c-0.4-1-1.3-2.2-2.8-3.8c-1.8-2.2-3.1-3.9-3.7-5.5
		c-0.8-1.4-1.1-3.1-1.1-4.7c0-2.3,0.6-4.1,1.6-5.6c1.1-1.3,2.4-2,4.1-2s3.1,0.8,4.1,2.1s1.6,3.3,1.6,5.7v0.9l-3.7,0.5v-1
		c0-1.3-0.2-2.1-0.6-2.7c-0.3-0.7-0.9-1-1.6-1c-0.8,0-1.2,0.3-1.6,0.8c-0.3,0.5-0.6,1.3-0.6,2.2c0,1,0.2,1.9,0.8,2.9
		c0.4,1,1.3,2.2,2.7,3.9c1.8,2.3,3.1,4.1,3.7,5.6c0.8,1.3,1.1,3,1.1,4.6c0,1.4-0.2,2.8-0.8,3.9c-0.6,1.2-1.2,2-2.2,2.7
		c-1,0.7-2,1.1-3.1,1.1C45.2,42.9,44,42.5,43,41.8z"/>
</g>
<g>
	<path d="M65.2,8.4h2.8v18h-2.8V8.4z"/>
	<path d="M73.4,8.4v14.5h4.7v3.5h-7.6v-18H73.4z"/>
	<path d="M81.8,8.4v14.5h4.7v3.5H79v-18H81.8z"/>
	<path d="M87.5,8.4h2.8v18h-2.8V8.4z"/>
	<path d="M105.5,8.4v18h-2.8v-9.1L99.5,26h-0.9l-3.1-8.6v9.1h-2.8v-18h2.7l3.6,9.9l3.5-9.9C102.7,8.4,105.5,8.4,105.5,8.4z"/>
	<path d="M107.8,8.4h2.8v18h-2.8V8.4z"/>
	<path d="M120.8,8.4v3.5h-2.9v14.5H115V11.8H112V8.4H120.8z"/>
	<path d="M129.7,8.4v3.5h-4.7v3.7h3.6v3.5h-3.6v3.7h4.7v3.5h-7.6V8.4H129.7z M128.5,2.5l-1.7,3.9h-1.9l1-3.9
		C126.1,2.5,128.5,2.5,128.5,2.5z"/>
	<path d="M133.6,15.3c0.4,0.3,0.9,0.4,1.4,0.4c1.4,0,2.6,0.5,3.5,1.4c1,1.1,1.4,2.3,1.4,4c0,1.6-0.6,2.9-1.5,4
		c-1,1.2-2.2,1.6-3.5,1.6c-2,0-3.5-1.2-4.5-3.4l1.2-0.9l1.2-0.9c0.6,1.2,1.2,1.6,2.1,1.6c0.6,0,1-0.2,1.4-0.7c0.5-0.5,0.7-1,0.7-1.6
		s-0.2-1.3-0.7-1.5c-0.4-0.3-0.9-0.4-1.4-0.4c-1.4,0-2.6-0.5-3.5-1.4c-1-1.1-1.4-2.3-1.4-4c0-1.6,0.6-2.9,1.5-4
		c0.9-1.1,2.2-1.6,3.5-1.6c1.9,0,3.5,1.2,4.5,3.4l-2.5,1.8c-0.6-1.1-1.1-1.6-2.1-1.6c-0.6,0-1,0.2-1.4,0.6c-0.5,0.5-0.7,1-0.7,1.6
		C133,14.4,133.2,14.9,133.6,15.3z"/>
</g>
<g>
	<path d="M72.8,31.6l-2.7,12.3h-2.3l-2.7-12.3h2l1.8,8.3l1.8-8.3C70.8,31.6,72.8,31.6,72.8,31.6z"/>
	<path d="M78.9,31.6v2.3h-3.2v2.5h2.5v2.3h-2.5v2.6h3.2v2.3h-5.1V31.6H78.9z"/>
	<path d="M82.1,38.9v5h-1.9V31.6h3.7c0.9,0,1.5,0.4,2.2,1.1c0.7,0.8,0.9,1.6,0.9,2.6c0,0.8-0.2,1.5-0.6,2C86,38,85.5,38.4,85,38.6
		l1.8,5.2h-2.1l-1.7-5L82.1,38.9L82.1,38.9z M82.1,33.9v2.5h1.8c0.3,0,0.6-0.1,0.8-0.4c0.2-0.3,0.3-0.6,0.3-1c0-0.4-0.1-0.7-0.3-1
		c-0.3-0.2-0.6-0.2-0.9-0.2H82.1L82.1,33.9z"/>
	<path d="M89.8,36.4c0.2,0.2,0.6,0.3,1,0.3c0.9,0,1.7,0.3,2.4,1s1,1.6,1,2.7c0,1.1-0.3,1.9-1,2.7c-0.7,0.8-1.4,1.2-2.3,1.2
		c-1.3,0-2.4-0.8-3.1-2.2l0.9-0.6l0.9-0.6c0.4,0.8,0.9,1.2,1.4,1.2c0.4,0,0.7-0.1,1-0.4c0.3-0.3,0.5-0.7,0.5-1.1
		c0-0.5-0.2-0.9-0.5-1.1c-0.2-0.2-0.6-0.3-1-0.3c-0.9,0-1.7-0.3-2.4-1c-0.7-0.7-1-1.6-1-2.7c0-1.1,0.3-1.9,1-2.7
		c0.7-0.8,1.4-1.2,2.3-1.2c1.3,0,2.4,0.8,3.1,2.2l-1.7,1.3c-0.4-0.8-0.9-1.2-1.5-1.2c-0.4,0-0.7,0.1-1,0.4c-0.3,0.3-0.5,0.7-0.5,1.1
		C89.3,35.7,89.5,36.1,89.8,36.4z"/>
	<path d="M103,31.6v2.3h-2v9.8h-1.9v-9.8h-2v-2.3H103z"/>
	<path d="M109.3,32.6c0.7,0.9,1,1.8,1,3v4.3c0,1.2-0.3,2.1-1,3c-0.7,0.9-1.4,1.3-2.5,1.3c-0.9,0-1.8-0.4-2.5-1.3c-0.7-0.9-1-1.8-1-3
		v-4.3c0-1.2,0.3-2.1,1-3c0.7-0.9,1.4-1.3,2.5-1.3C107.9,31.4,108.6,31.8,109.3,32.6z M105.8,34.2c-0.3,0.4-0.5,0.9-0.5,1.3v4.3
		c0,0.5,0.2,1,0.5,1.3c0.3,0.4,0.7,0.6,1,0.6s0.8-0.2,1-0.6c0.3-0.4,0.5-0.8,0.5-1.3v-4.3c0-0.5-0.2-1-0.5-1.3
		c-0.3-0.4-0.7-0.6-1-0.6C106.5,33.8,106.1,33.9,105.8,34.2z"/>
	<path d="M118.5,39.9c0,1.2-0.3,2.1-1,3c-0.7,0.9-1.4,1.3-2.5,1.3c-0.9,0-1.8-0.4-2.5-1.3c-0.7-0.9-1-1.8-1-3v-8.3h1.9v8.3
		c0,0.5,0.2,1,0.5,1.3c0.3,0.4,0.7,0.6,1,0.6c0.4,0,0.8-0.2,1-0.6c0.3-0.4,0.5-0.9,0.5-1.3v-8.3h1.9v8.3H118.5z"/>
	<path d="M121.9,36.4c0.2,0.2,0.6,0.3,1,0.3c0.9,0,1.7,0.3,2.4,1s1,1.6,1,2.7c0,1.1-0.3,1.9-1,2.7c-0.7,0.8-1.4,1.2-2.3,1.2
		c-1.3,0-2.4-0.8-3.1-2.2l0.9-0.6l0.9-0.6c0.4,0.8,0.9,1.2,1.4,1.2c0.4,0,0.7-0.1,1-0.4c0.3-0.3,0.5-0.7,0.5-1.1
		c0-0.5-0.2-0.9-0.5-1.1c-0.2-0.2-0.6-0.3-1-0.3c-0.9,0-1.7-0.3-2.4-1c-0.7-0.7-1-1.6-1-2.7c0-1.1,0.3-1.9,1-2.7
		c0.7-0.8,1.4-1.2,2.3-1.2c1.3,0,2.4,0.8,3.1,2.2l-1.7,1.3c-0.3-0.8-0.9-1.2-1.4-1.2c-0.4,0-0.7,0.1-1,0.4c-0.3,0.3-0.5,0.7-0.5,1.1
		C121.4,35.7,121.5,36.1,121.9,36.4z"/>
	<path d="M67.9,48.3v9.8h3.2v2.3H66V48.3H67.9z"/>
	<path d="M76.9,48.3v2.3h-3.2v2.5h2.5v2.3h-2.5v2.5h3.2v2.3h-5.1V48.3H76.9z"/>
	<path d="M79.5,53c0.2,0.2,0.6,0.3,1,0.3c0.9,0,1.7,0.3,2.4,1c0.7,0.7,1,1.6,1,2.7c0,1.1-0.3,1.9-1,2.7c-0.7,0.8-1.4,1.2-2.3,1.2
		c-1.3,0-2.4-0.8-3.1-2.2l0.9-0.6l0.9-0.6c0.4,0.8,0.9,1.2,1.4,1.2c0.4,0,0.7-0.1,1-0.4c0.3-0.3,0.5-0.7,0.5-1.1
		c0-0.5-0.2-0.9-0.5-1.1c-0.2-0.2-0.6-0.3-1-0.3c-0.9,0-1.7-0.3-2.4-1c-0.7-0.7-1-1.6-1-2.7c0-1.1,0.3-1.9,1-2.7
		c0.7-0.8,1.4-1.2,2.3-1.2c1.3,0,2.4,0.8,3.1,2.2L82,51.8c-0.3-0.8-0.9-1.2-1.4-1.2c-0.4,0-0.7,0.1-1,0.4c-0.3,0.3-0.5,0.7-0.5,1.1
		C79.2,52.4,79.3,52.7,79.5,53z"/>
	<path d="M89.4,55.6v5h-1.9V48.3h3.7c0.9,0,1.5,0.4,2.2,1.1c0.7,0.8,0.9,1.6,0.9,2.6c0,0.8-0.2,1.5-0.6,2c-0.4,0.7-0.9,1.1-1.4,1.3
		l1.8,5.2H92l-1.7-5L89.4,55.6L89.4,55.6z M89.4,50.7v2.5h1.8c0.3,0,0.6-0.1,0.8-0.4c0.2-0.3,0.3-0.6,0.3-1c0-0.4-0.1-0.7-0.3-1
		c-0.2-0.3-0.5-0.4-0.8-0.4L89.4,50.7L89.4,50.7z"/>
	<path d="M100.4,48.3v2.3h-3.2v2.5h2.5v2.3h-2.5v2.5h3.2v2.3h-5.1V48.3H100.4z M99.6,44.4L98.5,47h-1.2l0.8-2.6H99.6z"/>
	<path d="M103,53c0.2,0.2,0.6,0.3,1,0.3c0.9,0,1.7,0.3,2.4,1c0.7,0.7,1,1.6,1,2.7c0,1.1-0.3,1.9-1,2.7c-0.7,0.8-1.4,1.2-2.3,1.2
		c-1.3,0-2.4-0.8-3.1-2.2l0.9-0.6l0.9-0.6c0.4,0.8,0.9,1.2,1.4,1.2c0.4,0,0.7-0.1,1-0.4c0.3-0.3,0.5-0.7,0.5-1.1
		c0-0.5-0.2-0.9-0.5-1.1c-0.2-0.2-0.6-0.3-1-0.3c-0.9,0-1.7-0.3-2.4-1c-0.7-0.7-1-1.6-1-2.7c0-1.1,0.3-1.9,1-2.7
		c0.7-0.8,1.4-1.2,2.3-1.2c1.3,0,2.4,0.8,3.1,2.2l-1.7,1.3c-0.3-0.8-0.9-1.2-1.4-1.2c-0.4,0-0.7,0.1-1,0.4c-0.3,0.3-0.5,0.7-0.5,1.1
		C102.7,52.4,102.8,52.7,103,53z"/>
	<path d="M113.5,48.3v2.3h-3.2v2.5h2.5v2.3h-2.5v2.5h3.2v2.3h-5.1V48.3H113.5z"/>
	<path d="M118.9,48.3l2.7,12.3h-2l-0.4-1.8h-2.7l-0.4,1.8h-2l2.7-12.3C116.6,48.3,118.9,48.3,118.9,48.3z M116.9,56.3h1.7l-0.9-4
		L116.9,56.3z"/>
	<path d="M129.1,56.5c0,1.2-0.3,2.1-1,3c-0.7,0.9-1.4,1.3-2.5,1.3c-0.9,0-1.8-0.4-2.5-1.3c-0.7-0.9-1-1.8-1-3v-8.3h1.9v8.3
		c0,0.5,0.2,1,0.5,1.3c0.3,0.4,0.7,0.6,1,0.6s0.8-0.2,1-0.6c0.3-0.4,0.5-0.9,0.5-1.3v-8.3h1.9v8.3H129.1z"/>
	<path d="M136.7,48.3l-2.4,6l2.3,6.1h-2.2l-1.3-3.3l-1.3,3.3h-2.2l2.3-6.1l-2.3-6.1h2.2l1.3,3.3l1.3-3.3L136.7,48.3L136.7,48.3z"/>
</g>
</svg>
