<svg id="Layer_1" data-name="Layer 1" xmlns="http://www.w3.org/2000/svg" viewBox="0 0 75.68 71.21"><defs><style>.cls-1{fill:#fff;}.cls-2{fill:#fffa77;}</style></defs><g id="snapchat"><g id="Group_755" data-name="Group 755"><path id="Path_1987" data-name="Path 1987" d="M357.49,257.63a4.31,4.31,0,0,0-2.78-2.15l-2.94-1.14a12.85,12.85,0,0,1-7.3-7.35h3.12a6.23,6.23,0,1,0,0-12.46h-4.14l.17-2a21.16,21.16,0,1,0-42.16,0l.19,2H297.5a6.23,6.23,0,0,0,0,12.45h3.15a12.87,12.87,0,0,1-7.33,7.35l-2.84,1.12a4.29,4.29,0,0,0-2.58,6.68c1.72,2.62,5.45,3.55,8.31,4.11a7.85,7.85,0,0,0,1.07,2.79,4.25,4.25,0,0,0,4.38,1.76c6.24-1,6.94-.46,9.27,1.19a35.73,35.73,0,0,0,4.29,2.67,19.31,19.31,0,0,0,7.32,1.38,18.31,18.31,0,0,0,8-1.67c2.79-1.6,6.45-5.27,12.06-3.8a5.07,5.07,0,0,0,4.15-.42,5.49,5.49,0,0,0,2.18-3.92c3.19-.65,7.33-1.61,8.7-4.9A4.33,4.33,0,0,0,357.49,257.63Zm-3.71,2.09c-.58,1.4-4.16,2.12-6.08,2.51l-.69.14c-1.68.35-2,2.05-2.15,2.95a5,5,0,0,1-.36,1.32,2.1,2.1,0,0,1-.86-.1c-7.43-1.94-12.48,2.62-15.1,4.16a15.74,15.74,0,0,1-11.65.15,32.37,32.37,0,0,1-3.56-2.26c-3.05-2.17-4.72-3.07-12.3-1.9a1,1,0,0,1-.3,0,5,5,0,0,1-.49-1.52c-.2-.94-.54-2.51-2.16-2.82l-.15,0c-1.82-.34-5.61-1-6.55-2.49a.42.42,0,0,1-.1-.31,1,1,0,0,1,.35-.08l3.21-1.26a17.41,17.41,0,0,0,10.62-12.77l.56-2.6H297.5a2.08,2.08,0,0,1,0-4.15h8.69l-.59-6.5a17,17,0,0,1,33.89-2.69,17.26,17.26,0,0,1,0,2.69l-.59,6.5h8.69a2.08,2.08,0,1,1,0,4.15h-8.46l.53,2.5a17.22,17.22,0,0,0,10.62,12.88l3.22,1.25a.85.85,0,0,1,.31.09.33.33,0,0,1,0,.17Z" transform="translate(-282.28 -204.82)"/><path id="Path_1988" data-name="Path 1988" class="cls-1" d="M353.77,259.73c-.58,1.39-4.15,2.11-6.07,2.51l-.69.14c-1.69.35-2,2-2.15,2.94a5,5,0,0,1-.36,1.32,2.13,2.13,0,0,1-.87-.1c-7.42-1.94-12.47,2.62-15.09,4.17a15.79,15.79,0,0,1-11.65.14,32.37,32.37,0,0,1-3.56-2.26c-3.05-2.17-4.72-3.07-12.3-1.9a1.51,1.51,0,0,1-.3,0,5.16,5.16,0,0,1-.49-1.53c-.2-.94-.54-2.51-2.16-2.82l-.15,0c-1.82-.34-5.61-1-6.55-2.49a.43.43,0,0,1-.1-.31s.3-.08.35-.09l3.21-1.25a17.41,17.41,0,0,0,10.62-12.77l.56-2.6H297.5a2.08,2.08,0,0,1,0-4.15h8.69l-.59-6.5a17,17,0,1,1,33.89,0l-.59,6.5h8.69a2.08,2.08,0,1,1,0,4.15h-8.46l.53,2.5a17.24,17.24,0,0,0,10.62,12.88l3.22,1.25a.85.85,0,0,1,.31.09A.3.3,0,0,1,353.77,259.73Z" transform="translate(-282.28 -204.82)"/></g><g id="Group_757" data-name="Group 757"><g id="Group_756" data-name="Group 756"><path id="Path_1989" data-name="Path 1989" d="M357.26,257.41a4.36,4.36,0,0,0-2.78-2.16l-2.94-1.13a12.84,12.84,0,0,1-7.3-7.36h3.12a6.23,6.23,0,1,0,0-12.45h-4.14l.18-2a21.15,21.15,0,0,0-42.16-3.53,20.81,20.81,0,0,0,0,3.53l.18,2h-4.15a6.23,6.23,0,0,0,0,12.45h3.15a12.89,12.89,0,0,1-7.33,7.36l-2.84,1.11a4.29,4.29,0,0,0-2.58,6.68c1.72,2.62,5.45,3.55,8.31,4.11a7.78,7.78,0,0,0,1.07,2.79,4.26,4.26,0,0,0,4.38,1.77c6.24-1,6.94-.47,9.27,1.18a32.69,32.69,0,0,0,4.29,2.67,19.51,19.51,0,0,0,7.32,1.39,18.31,18.31,0,0,0,8-1.68c2.79-1.6,6.45-5.26,12.06-3.8a5.11,5.11,0,0,0,4.15-.41,5.53,5.53,0,0,0,2.18-3.93c3.19-.65,7.33-1.61,8.7-4.9A4.31,4.31,0,0,0,357.26,257.41Z" transform="translate(-282.28 -204.82)"/><path id="Path_1990" data-name="Path 1990" d="M353.55,259.5c-.58,1.39-4.16,2.12-6.08,2.51l-.69.14c-1.68.35-2,2-2.15,2.94a5,5,0,0,1-.36,1.32,2.15,2.15,0,0,1-.87-.1c-7.42-1.94-12.47,2.62-15.09,4.17a15.79,15.79,0,0,1-11.65.14,32.37,32.37,0,0,1-3.56-2.26c-3.05-2.16-4.72-3.07-12.3-1.9a1,1,0,0,1-.3,0A5.07,5.07,0,0,1,300,265c-.2-.94-.54-2.51-2.16-2.81l-.15,0c-1.82-.34-5.61-1-6.55-2.48a.46.46,0,0,1-.1-.32s.3-.07.35-.08l3.21-1.26a17.41,17.41,0,0,0,10.62-12.77l.56-2.6h-8.52a2.08,2.08,0,0,1,0-4.15H306l-.59-6.5a17,17,0,1,1,33.89-2.68,15,15,0,0,1,0,2.68l-.59,6.5h8.69a2.08,2.08,0,1,1,0,4.15H338.9l.53,2.5A17.22,17.22,0,0,0,350.05,258l3.22,1.25a1.11,1.11,0,0,1,.31.09A.38.38,0,0,1,353.55,259.5Z" transform="translate(-282.28 -204.82)"/></g><path id="Path_1991" data-name="Path 1991" class="cls-1" d="M353.55,259.5c-.58,1.39-4.16,2.12-6.08,2.51l-.69.14c-1.68.35-2,2-2.15,2.94a5,5,0,0,1-.36,1.32,2.15,2.15,0,0,1-.87-.1c-7.42-1.94-12.47,2.62-15.09,4.17a15.79,15.79,0,0,1-11.65.14,32.37,32.37,0,0,1-3.56-2.26c-3.05-2.16-4.72-3.07-12.3-1.9a1,1,0,0,1-.3,0A5.07,5.07,0,0,1,300,265c-.2-.94-.54-2.51-2.16-2.81l-.15,0c-1.82-.34-5.61-1-6.55-2.48a.46.46,0,0,1-.1-.32s.3-.07.35-.08l3.21-1.26a17.41,17.41,0,0,0,10.62-12.77l.56-2.6h-8.52a2.08,2.08,0,0,1,0-4.15H306l-.59-6.5a17,17,0,1,1,33.89-2.68,15,15,0,0,1,0,2.68l-.59,6.5h8.69a2.08,2.08,0,1,1,0,4.15H338.9l.53,2.5A17.22,17.22,0,0,0,350.05,258l3.22,1.25a1.11,1.11,0,0,1,.31.09A.38.38,0,0,1,353.55,259.5Z" transform="translate(-282.28 -204.82)"/></g><g id="Group_759" data-name="Group 759"><g id="Group_758" data-name="Group 758"><path id="Path_1992" data-name="Path 1992" d="M357,257.18a4.33,4.33,0,0,0-2.78-2.16l-2.94-1.14a12.8,12.8,0,0,1-7.3-7.35h3.12a6.23,6.23,0,1,0,0-12.45H343l.18-2A21.15,21.15,0,0,0,301,228.57a20.81,20.81,0,0,0,0,3.53l.18,2H297a6.23,6.23,0,0,0,0,12.45h3.15a13,13,0,0,1-7.33,7.36L290,255a4.27,4.27,0,0,0-3.28,5.1,4.16,4.16,0,0,0,.7,1.58c1.71,2.62,5.45,3.55,8.31,4.11a7.6,7.6,0,0,0,1.07,2.79,4.25,4.25,0,0,0,4.38,1.77c6.23-1,6.93-.47,9.26,1.18a34.07,34.07,0,0,0,4.29,2.67,19.57,19.57,0,0,0,7.33,1.39,18.41,18.41,0,0,0,8-1.68c2.79-1.6,6.45-5.27,12.07-3.8a5.09,5.09,0,0,0,4.14-.41,5.51,5.51,0,0,0,2.19-3.93c3.18-.65,7.32-1.61,8.7-4.9A4.31,4.31,0,0,0,357,257.18Z" transform="translate(-282.28 -204.82)"/><path id="Path_1993" data-name="Path 1993" d="M353.32,259.27c-.58,1.39-4.16,2.12-6.08,2.51l-.69.14c-1.68.35-2,2-2.15,2.95a5,5,0,0,1-.36,1.31,1.93,1.93,0,0,1-.86-.1c-7.43-1.94-12.48,2.62-15.1,4.17a15.69,15.69,0,0,1-11.65.14,32.37,32.37,0,0,1-3.56-2.26c-3.05-2.16-4.72-3.07-12.3-1.9a1,1,0,0,1-.3,0,5.07,5.07,0,0,1-.49-1.53c-.2-.94-.54-2.51-2.16-2.81l-.15,0c-1.82-.34-5.62-1-6.55-2.48a.46.46,0,0,1-.1-.32s.3-.07.35-.08l3.21-1.26A17.37,17.37,0,0,0,305,245l.57-2.6H297a2.08,2.08,0,0,1,0-4.15h8.69l-.59-6.5a17,17,0,1,1,33.89,0l-.59,6.5h8.69a2.08,2.08,0,1,1,0,4.15h-8.46l.53,2.5a17.22,17.22,0,0,0,10.62,12.88L353,259a1.11,1.11,0,0,1,.31.09A.38.38,0,0,1,353.32,259.27Z" transform="translate(-282.28 -204.82)"/></g><path id="Path_1994" data-name="Path 1994" class="cls-1" d="M353.32,259.27c-.58,1.39-4.16,2.12-6.08,2.51l-.69.14c-1.68.35-2,2-2.15,2.95a5,5,0,0,1-.36,1.31,1.93,1.93,0,0,1-.86-.1c-7.43-1.94-12.48,2.62-15.1,4.17a15.69,15.69,0,0,1-11.65.14,32.37,32.37,0,0,1-3.56-2.26c-3.05-2.16-4.72-3.07-12.3-1.9a1,1,0,0,1-.3,0,5.07,5.07,0,0,1-.49-1.53c-.2-.94-.54-2.51-2.16-2.81l-.15,0c-1.82-.34-5.62-1-6.55-2.48a.46.46,0,0,1-.1-.32s.3-.07.35-.08l3.21-1.26A17.37,17.37,0,0,0,305,245l.57-2.6H297a2.08,2.08,0,0,1,0-4.15h8.69l-.59-6.5a17,17,0,1,1,33.89,0l-.59,6.5h8.69a2.08,2.08,0,1,1,0,4.15h-8.46l.53,2.5a17.22,17.22,0,0,0,10.62,12.88L353,259a1.11,1.11,0,0,1,.31.09A.38.38,0,0,1,353.32,259.27Z" transform="translate(-282.28 -204.82)"/></g><g id="Group_761" data-name="Group 761"><g id="Group_760" data-name="Group 760"><path id="Path_1995" data-name="Path 1995" d="M356.8,257a4.31,4.31,0,0,0-2.77-2.16l-2.94-1.14a12.84,12.84,0,0,1-7.3-7.36h3.12a6.23,6.23,0,0,0,0-12.45h-4.15l.18-2a21.16,21.16,0,1,0-42.16,0l.18,2h-4.14a6.23,6.23,0,0,0,0,12.45H300a13,13,0,0,1-7.33,7.35l-2.84,1.11a4.29,4.29,0,0,0-3.28,5.1,4.16,4.16,0,0,0,.7,1.58c1.71,2.62,5.45,3.55,8.31,4.11a7.6,7.6,0,0,0,1.07,2.79A4.26,4.26,0,0,0,301,270.1c6.23-1,6.94-.46,9.27,1.18a32.69,32.69,0,0,0,4.29,2.67,19.48,19.48,0,0,0,7.32,1.39,18.27,18.27,0,0,0,8-1.68c2.79-1.6,6.46-5.26,12.07-3.8a5.11,5.11,0,0,0,4.15-.41,5.51,5.51,0,0,0,2.18-3.92c3.19-.66,7.32-1.61,8.7-4.9A4.35,4.35,0,0,0,356.8,257Z" transform="translate(-282.28 -204.82)"/><path id="Path_1996" data-name="Path 1996" d="M353.08,259c-.58,1.39-4.15,2.12-6.07,2.51l-.69.14c-1.69.35-2,2-2.15,2.95a4.66,4.66,0,0,1-.37,1.31,1.94,1.94,0,0,1-.86-.1c-7.43-1.94-12.48,2.62-15.09,4.17a15.69,15.69,0,0,1-11.65.14,30.94,30.94,0,0,1-3.56-2.26c-3.05-2.16-4.72-3.07-12.3-1.9a1,1,0,0,1-.3,0,5.1,5.1,0,0,1-.49-1.52c-.2-.95-.54-2.52-2.16-2.82l-.15,0c-1.82-.34-5.62-1-6.55-2.48a.45.45,0,0,1-.1-.31c0-.05.3-.08.35-.09l3.21-1.26a17.41,17.41,0,0,0,10.62-12.76l.56-2.6h-8.52a2.08,2.08,0,0,1,0-4.15h8.69l-.59-6.5a17,17,0,0,1,33.89-2.69,17.26,17.26,0,0,1,0,2.69l-.59,6.5h8.69a2.08,2.08,0,1,1,0,4.15h-8.46l.53,2.5a17.24,17.24,0,0,0,10.62,12.87l3.22,1.25a1.58,1.58,0,0,1,.31.09A.3.3,0,0,1,353.08,259Z" transform="translate(-282.28 -204.82)"/></g><path id="Path_1997" data-name="Path 1997" class="cls-1" d="M353.08,259c-.58,1.39-4.15,2.12-6.07,2.51l-.69.14c-1.69.35-2,2-2.15,2.95a4.66,4.66,0,0,1-.37,1.31,1.94,1.94,0,0,1-.86-.1c-7.43-1.94-12.48,2.62-15.09,4.17a15.69,15.69,0,0,1-11.65.14,30.94,30.94,0,0,1-3.56-2.26c-3.05-2.16-4.72-3.07-12.3-1.9a1,1,0,0,1-.3,0,5.1,5.1,0,0,1-.49-1.52c-.2-.95-.54-2.52-2.16-2.82l-.15,0c-1.82-.34-5.62-1-6.55-2.48a.45.45,0,0,1-.1-.31c0-.05.3-.08.35-.09l3.21-1.26a17.41,17.41,0,0,0,10.62-12.76l.56-2.6h-8.52a2.08,2.08,0,0,1,0-4.15h8.69l-.59-6.5a17,17,0,0,1,33.89-2.69,17.26,17.26,0,0,1,0,2.69l-.59,6.5h8.69a2.08,2.08,0,1,1,0,4.15h-8.46l.53,2.5a17.24,17.24,0,0,0,10.62,12.87l3.22,1.25a1.58,1.58,0,0,1,.31.09A.3.3,0,0,1,353.08,259Z" transform="translate(-282.28 -204.82)"/></g><g id="Group_763" data-name="Group 763"><g id="Group_762" data-name="Group 762"><path id="Path_1998" data-name="Path 1998" d="M356.57,256.72a4.36,4.36,0,0,0-2.78-2.16l-2.94-1.14a12.85,12.85,0,0,1-7.3-7.35h3.12a6.23,6.23,0,1,0,0-12.45h-4.14l.18-2a21.15,21.15,0,1,0-42.16,0l.18,2h-4.15a6.23,6.23,0,0,0,0,12.45h3.16a13,13,0,0,1-7.33,7.36l-2.84,1.11a4.29,4.29,0,0,0-3.29,5.1,4.4,4.4,0,0,0,.7,1.58c1.72,2.62,5.45,3.55,8.32,4.11a7.76,7.76,0,0,0,1.06,2.79,4.26,4.26,0,0,0,4.38,1.77c6.24-1,6.94-.47,9.27,1.18a33.36,33.36,0,0,0,4.29,2.67,19.55,19.55,0,0,0,7.32,1.39,18.46,18.46,0,0,0,8-1.68c2.79-1.6,6.45-5.27,12.06-3.8a5.11,5.11,0,0,0,4.15-.41A5.5,5.5,0,0,0,348,265.3c3.19-.65,7.33-1.61,8.7-4.9A4.31,4.31,0,0,0,356.57,256.72Z" transform="translate(-282.28 -204.82)"/><path id="Path_1999" data-name="Path 1999" d="M352.86,258.81c-.58,1.39-4.16,2.12-6.08,2.51l-.69.14c-1.68.35-2,2-2.15,3a5,5,0,0,1-.36,1.31,1.93,1.93,0,0,1-.86-.1c-7.43-1.94-12.48,2.62-15.1,4.17a15.67,15.67,0,0,1-11.64.14,31.5,31.5,0,0,1-3.57-2.25c-3.05-2.17-4.72-3.08-12.3-1.9a1.48,1.48,0,0,1-.3,0,5.1,5.1,0,0,1-.49-1.52c-.2-.94-.54-2.52-2.16-2.82l-.14,0c-1.83-.34-5.62-1-6.56-2.48a.45.45,0,0,1-.1-.31c0-.05.3-.08.35-.09l3.21-1.26a17.39,17.39,0,0,0,10.62-12.76l.56-2.6h-8.51a2.08,2.08,0,1,1,0-4.15h8.68l-.59-6.5a17,17,0,1,1,33.9,0l-.59,6.5h8.69a2.08,2.08,0,0,1,0,4.15h-8.46l.52,2.5a17.24,17.24,0,0,0,10.62,12.87l3.22,1.25a1.68,1.68,0,0,1,.32.09A.39.39,0,0,1,352.86,258.81Z" transform="translate(-282.28 -204.82)"/></g><path id="Path_2000" data-name="Path 2000" class="cls-1" d="M352.86,258.81c-.58,1.39-4.16,2.12-6.08,2.51l-.69.14c-1.68.35-2,2-2.15,3a5,5,0,0,1-.36,1.31,1.93,1.93,0,0,1-.86-.1c-7.43-1.94-12.48,2.62-15.1,4.17a15.67,15.67,0,0,1-11.64.14,31.5,31.5,0,0,1-3.57-2.25c-3.05-2.17-4.72-3.08-12.3-1.9a1.48,1.48,0,0,1-.3,0,5.1,5.1,0,0,1-.49-1.52c-.2-.94-.54-2.52-2.16-2.82l-.14,0c-1.83-.34-5.62-1-6.56-2.48a.45.45,0,0,1-.1-.31c0-.05.3-.08.35-.09l3.21-1.26a17.39,17.39,0,0,0,10.62-12.76l.56-2.6h-8.51a2.08,2.08,0,1,1,0-4.15h8.68l-.59-6.5a17,17,0,1,1,33.9,0l-.59,6.5h8.69a2.08,2.08,0,0,1,0,4.15h-8.46l.52,2.5a17.24,17.24,0,0,0,10.62,12.87l3.22,1.25a1.68,1.68,0,0,1,.32.09A.39.39,0,0,1,352.86,258.81Z" transform="translate(-282.28 -204.82)"/></g><g id="Group_765" data-name="Group 765"><g id="Group_764" data-name="Group 764"><path id="Path_2001" data-name="Path 2001" d="M356.34,256.49a4.31,4.31,0,0,0-2.78-2.15l-2.94-1.14a12.84,12.84,0,0,1-7.3-7.36h3.12a6.23,6.23,0,0,0,0-12.45H342.3l.17-2a21.15,21.15,0,0,0-42.16-3.53,20.81,20.81,0,0,0,0,3.53l.18,2h-4.14a6.23,6.23,0,0,0,0,12.45h3.19a12.92,12.92,0,0,1-7.33,7.36l-2.84,1.11a4.29,4.29,0,0,0-3.28,5.1,4.16,4.16,0,0,0,.7,1.58c1.71,2.62,5.45,3.55,8.31,4.11a7.6,7.6,0,0,0,1.07,2.79,4.26,4.26,0,0,0,4.38,1.77c6.24-1,6.94-.47,9.27,1.18a32.69,32.69,0,0,0,4.29,2.67,19.51,19.51,0,0,0,7.32,1.39,18.31,18.31,0,0,0,8-1.68c2.78-1.6,6.45-5.26,12.06-3.8a5.11,5.11,0,0,0,4.15-.41,5.53,5.53,0,0,0,2.18-3.92c3.19-.66,7.33-1.62,8.7-4.9A4.33,4.33,0,0,0,356.34,256.49Z" transform="translate(-282.28 -204.82)"/><path id="Path_2002" data-name="Path 2002" d="M352.63,258.58c-.58,1.39-4.15,2.12-6.07,2.51l-.7.14c-1.68.35-2,2-2.15,2.95a4.71,4.71,0,0,1-.36,1.32,2.28,2.28,0,0,1-.86-.1c-7.43-1.95-12.48,2.61-15.1,4.16a15.67,15.67,0,0,1-11.64.14,29.31,29.31,0,0,1-3.56-2.26c-3.06-2.16-4.73-3.07-12.3-1.9a1,1,0,0,1-.3,0,4.83,4.83,0,0,1-.49-1.52c-.21-1-.54-2.52-2.16-2.82l-.15,0c-1.82-.34-5.62-1-6.55-2.48a.41.41,0,0,1-.1-.32s.3-.07.34-.08l3.21-1.26a17.41,17.41,0,0,0,10.62-12.77l.56-2.6h-8.51a2.08,2.08,0,1,1,0-4.15H305l-.59-6.5a17,17,0,0,1,33.9-2.69,17.25,17.25,0,0,1,0,2.69l-.6,6.5h8.69a2.08,2.08,0,1,1,0,4.15H338l.53,2.5a17.24,17.24,0,0,0,10.62,12.88l3.22,1.25a1,1,0,0,1,.32.09A.39.39,0,0,1,352.63,258.58Z" transform="translate(-282.28 -204.82)"/></g><path id="Path_2003" data-name="Path 2003" class="cls-1" d="M352.63,258.58c-.58,1.39-4.15,2.12-6.07,2.51l-.7.14c-1.68.35-2,2-2.15,2.95a4.71,4.71,0,0,1-.36,1.32,2.28,2.28,0,0,1-.86-.1c-7.43-1.95-12.48,2.61-15.1,4.16a15.67,15.67,0,0,1-11.64.14,29.31,29.31,0,0,1-3.56-2.26c-3.06-2.16-4.73-3.07-12.3-1.9a1,1,0,0,1-.3,0,4.83,4.83,0,0,1-.49-1.52c-.21-1-.54-2.52-2.16-2.82l-.15,0c-1.82-.34-5.62-1-6.55-2.48a.41.41,0,0,1-.1-.32s.3-.07.34-.08l3.21-1.26a17.41,17.41,0,0,0,10.62-12.77l.56-2.6h-8.51a2.08,2.08,0,1,1,0-4.15H305l-.59-6.5a17,17,0,0,1,33.9-2.69,17.25,17.25,0,0,1,0,2.69l-.6,6.5h8.69a2.08,2.08,0,1,1,0,4.15H338l.53,2.5a17.24,17.24,0,0,0,10.62,12.88l3.22,1.25a1,1,0,0,1,.32.09A.39.39,0,0,1,352.63,258.58Z" transform="translate(-282.28 -204.82)"/></g><g id="Group_767" data-name="Group 767"><g id="Group_766" data-name="Group 766"><path id="Path_2004" data-name="Path 2004" d="M356.11,256.26a4.31,4.31,0,0,0-2.78-2.15L350.39,253a12.84,12.84,0,0,1-7.3-7.36h3.12a6.23,6.23,0,0,0,0-12.45h-4.15l.18-2a21.15,21.15,0,0,0-42.16-3.53,20.81,20.81,0,0,0,0,3.53l.18,2h-4.14a6.23,6.23,0,0,0,0,12.45h3.18a12.89,12.89,0,0,1-7.33,7.36l-2.83,1.11a4.28,4.28,0,0,0-2.59,6.68c1.72,2.62,5.45,3.55,8.31,4.11a7.78,7.78,0,0,0,1.07,2.79,4.26,4.26,0,0,0,4.38,1.77c6.24-1,6.94-.47,9.27,1.18a33.36,33.36,0,0,0,4.29,2.67,19.51,19.51,0,0,0,7.32,1.39,18.46,18.46,0,0,0,8-1.68c2.79-1.6,6.45-5.27,12.06-3.8a5.11,5.11,0,0,0,4.15-.41,5.5,5.5,0,0,0,2.18-3.93c3.19-.65,7.33-1.61,8.7-4.9A4.31,4.31,0,0,0,356.11,256.26Z" transform="translate(-282.28 -204.82)"/><path id="Path_2005" data-name="Path 2005" d="M352.4,258.35c-.58,1.39-4.15,2.12-6.08,2.51l-.69.14c-1.68.35-2,2.05-2.15,2.95a5.07,5.07,0,0,1-.36,1.32,2.28,2.28,0,0,1-.86-.1c-7.43-1.95-12.48,2.61-15.1,4.16a15.69,15.69,0,0,1-11.65.14,30.94,30.94,0,0,1-3.56-2.26c-3.05-2.16-4.72-3.07-12.3-1.9a1,1,0,0,1-.3,0,5.1,5.1,0,0,1-.49-1.52c-.2-.95-.54-2.52-2.16-2.82l-.15,0c-1.82-.34-5.61-1-6.55-2.48a.45.45,0,0,1-.1-.31c0-.05.3-.08.35-.09l3.21-1.26a17.39,17.39,0,0,0,10.62-12.76l.56-2.6h-8.52a2.08,2.08,0,0,1,0-4.15h8.69l-.59-6.5a17,17,0,1,1,33.89-2.7,15.22,15.22,0,0,1,0,2.7l-.59,6.5h8.69a2.08,2.08,0,1,1,0,4.15h-8.46l.53,2.5a17.24,17.24,0,0,0,10.62,12.87l3.22,1.25a1.68,1.68,0,0,1,.32.09A.34.34,0,0,1,352.4,258.35Z" transform="translate(-282.28 -204.82)"/></g><path id="Path_2006" data-name="Path 2006" class="cls-1" d="M352.4,258.35c-.58,1.39-4.15,2.12-6.08,2.51l-.69.14c-1.68.35-2,2.05-2.15,2.95a5.07,5.07,0,0,1-.36,1.32,2.28,2.28,0,0,1-.86-.1c-7.43-1.95-12.48,2.61-15.1,4.16a15.69,15.69,0,0,1-11.65.14,30.94,30.94,0,0,1-3.56-2.26c-3.05-2.16-4.72-3.07-12.3-1.9a1,1,0,0,1-.3,0,5.1,5.1,0,0,1-.49-1.52c-.2-.95-.54-2.52-2.16-2.82l-.15,0c-1.82-.34-5.61-1-6.55-2.48a.45.45,0,0,1-.1-.31c0-.05.3-.08.35-.09l3.21-1.26a17.39,17.39,0,0,0,10.62-12.76l.56-2.6h-8.52a2.08,2.08,0,0,1,0-4.15h8.69l-.59-6.5a17,17,0,1,1,33.89-2.7,15.22,15.22,0,0,1,0,2.7l-.59,6.5h8.69a2.08,2.08,0,1,1,0,4.15h-8.46l.53,2.5a17.24,17.24,0,0,0,10.62,12.87l3.22,1.25a1.68,1.68,0,0,1,.32.09A.34.34,0,0,1,352.4,258.35Z" transform="translate(-282.28 -204.82)"/></g><g id="Group_769" data-name="Group 769"><g id="Group_768" data-name="Group 768"><path id="Path_2007" data-name="Path 2007" d="M355.88,256a4.27,4.27,0,0,0-2.77-2.15l-2.94-1.14a12.84,12.84,0,0,1-7.3-7.36H346a6.23,6.23,0,1,0,0-12.45h-4.14l.17-2a21.15,21.15,0,1,0-42.16,0l.18,2h-4.14a6.23,6.23,0,0,0,0,12.45H299a12.92,12.92,0,0,1-7.33,7.36l-2.84,1.11a4.29,4.29,0,0,0-2.58,6.68c1.72,2.62,5.45,3.55,8.31,4.11a7.78,7.78,0,0,0,1.07,2.79,4.26,4.26,0,0,0,4.38,1.77c6.24-1,6.94-.47,9.27,1.18a33.36,33.36,0,0,0,4.29,2.67,19.51,19.51,0,0,0,7.32,1.39,18.46,18.46,0,0,0,8-1.68c2.79-1.6,6.45-5.26,12.06-3.8a5.11,5.11,0,0,0,4.15-.41,5.53,5.53,0,0,0,2.18-3.92c3.19-.66,7.33-1.62,8.7-4.9A4.33,4.33,0,0,0,355.88,256Z" transform="translate(-282.28 -204.82)"/><path id="Path_2008" data-name="Path 2008" d="M352.16,258.12c-.58,1.39-4.15,2.12-6.07,2.51l-.69.14c-1.69.35-2,2-2.16,3a4.33,4.33,0,0,1-.36,1.31,1.94,1.94,0,0,1-.86-.1c-7.43-1.94-12.48,2.62-15.1,4.17a15.67,15.67,0,0,1-11.64.14,30.22,30.22,0,0,1-3.57-2.26c-3-2.16-4.72-3.07-12.3-1.9a1,1,0,0,1-.3,0,5.1,5.1,0,0,1-.49-1.52c-.2-.94-.54-2.52-2.16-2.82l-.15,0c-1.81-.34-5.61-1-6.55-2.48a.45.45,0,0,1-.1-.31c0-.05.3-.08.35-.09l3.21-1.26a17.41,17.41,0,0,0,10.62-12.76l.56-2.6h-8.52a2.08,2.08,0,0,1,0-4.16h8.69l-.59-6.5a17,17,0,0,1,33.89-2.69,17.25,17.25,0,0,1,0,2.69l-.59,6.5H346a2.08,2.08,0,0,1,0,4.16h-8.46l.53,2.5a17.24,17.24,0,0,0,10.62,12.87l3.22,1.25a1.58,1.58,0,0,1,.31.09A.29.29,0,0,1,352.16,258.12Z" transform="translate(-282.28 -204.82)"/></g><path id="Path_2009" data-name="Path 2009" class="cls-1" d="M352.16,258.12c-.58,1.39-4.15,2.12-6.07,2.51l-.69.14c-1.69.35-2,2-2.16,3a4.33,4.33,0,0,1-.36,1.31,1.94,1.94,0,0,1-.86-.1c-7.43-1.94-12.48,2.62-15.1,4.17a15.67,15.67,0,0,1-11.64.14,30.22,30.22,0,0,1-3.57-2.26c-3-2.16-4.72-3.07-12.3-1.9a1,1,0,0,1-.3,0,5.1,5.1,0,0,1-.49-1.52c-.2-.94-.54-2.52-2.16-2.82l-.15,0c-1.81-.34-5.61-1-6.55-2.48a.45.45,0,0,1-.1-.31c0-.05.3-.08.35-.09l3.21-1.26a17.41,17.41,0,0,0,10.62-12.76l.56-2.6h-8.52a2.08,2.08,0,0,1,0-4.16h8.69l-.59-6.5a17,17,0,0,1,33.89-2.69,17.25,17.25,0,0,1,0,2.69l-.59,6.5H346a2.08,2.08,0,0,1,0,4.16h-8.46l.53,2.5a17.24,17.24,0,0,0,10.62,12.87l3.22,1.25a1.58,1.58,0,0,1,.31.09A.29.29,0,0,1,352.16,258.12Z" transform="translate(-282.28 -204.82)"/></g><g id="Group_771" data-name="Group 771"><g id="Group_770" data-name="Group 770"><path id="Path_2010" data-name="Path 2010" d="M355.65,255.8a4.31,4.31,0,0,0-2.78-2.15l-2.94-1.14a12.87,12.87,0,0,1-7.3-7.36h3.12a6.23,6.23,0,1,0,0-12.45h-4.14l.18-2a21.15,21.15,0,1,0-42.16,0l.18,2h-4.14a6.23,6.23,0,1,0,0,12.45h3.15a12.93,12.93,0,0,1-7.33,7.35l-2.84,1.11a4.29,4.29,0,0,0-3.28,5.1,4.16,4.16,0,0,0,.7,1.58c1.71,2.62,5.45,3.56,8.31,4.12a7.73,7.73,0,0,0,1.07,2.78,4.26,4.26,0,0,0,4.38,1.77c6.24-1,6.94-.46,9.27,1.19a34.43,34.43,0,0,0,4.29,2.66,19.13,19.13,0,0,0,7.32,1.39,18.31,18.31,0,0,0,8-1.68c2.79-1.6,6.45-5.26,12.06-3.8a5.11,5.11,0,0,0,4.15-.41,5.48,5.48,0,0,0,2.18-3.92c3.19-.65,7.33-1.61,8.7-4.9A4.33,4.33,0,0,0,355.65,255.8Z" transform="translate(-282.28 -204.82)"/><path id="Path_2011" data-name="Path 2011" d="M351.94,257.89c-.58,1.39-4.16,2.12-6.07,2.51l-.69.14c-1.69.35-2,2-2.16,2.95a4.71,4.71,0,0,1-.36,1.32,2.28,2.28,0,0,1-.86-.1c-7.43-1.94-12.48,2.62-15.1,4.16a15.69,15.69,0,0,1-11.65.14,32.28,32.28,0,0,1-3.56-2.25c-3.05-2.17-4.72-3.07-12.3-1.9a1,1,0,0,1-.3,0,5.1,5.1,0,0,1-.49-1.52c-.2-.94-.54-2.52-2.15-2.82l-.15,0c-1.82-.34-5.62-1-6.56-2.48a.45.45,0,0,1-.1-.31s.3-.08.35-.09l3.21-1.25a17.42,17.42,0,0,0,10.62-12.77l.56-2.6h-8.52a2.08,2.08,0,0,1,0-4.15h8.69l-.59-6.5a17,17,0,1,1,33.89-2.7,17.38,17.38,0,0,1,0,2.7l-.59,6.5h8.69a2.08,2.08,0,1,1,0,4.15h-8.46l.53,2.5a17.21,17.21,0,0,0,10.62,12.87l3.22,1.25a1.12,1.12,0,0,1,.31.1A.25.25,0,0,1,351.94,257.89Z" transform="translate(-282.28 -204.82)"/></g><path id="Path_2012" data-name="Path 2012" class="cls-1" d="M351.94,257.89c-.58,1.39-4.16,2.12-6.07,2.51l-.69.14c-1.69.35-2,2-2.16,2.95a4.71,4.71,0,0,1-.36,1.32,2.28,2.28,0,0,1-.86-.1c-7.43-1.94-12.48,2.62-15.1,4.16a15.69,15.69,0,0,1-11.65.14,32.28,32.28,0,0,1-3.56-2.25c-3.05-2.17-4.72-3.07-12.3-1.9a1,1,0,0,1-.3,0,5.1,5.1,0,0,1-.49-1.52c-.2-.94-.54-2.52-2.15-2.82l-.15,0c-1.82-.34-5.62-1-6.56-2.48a.45.45,0,0,1-.1-.31s.3-.08.35-.09l3.21-1.25a17.42,17.42,0,0,0,10.62-12.77l.56-2.6h-8.52a2.08,2.08,0,0,1,0-4.15h8.69l-.59-6.5a17,17,0,1,1,33.89-2.7,17.38,17.38,0,0,1,0,2.7l-.59,6.5h8.69a2.08,2.08,0,1,1,0,4.15h-8.46l.53,2.5a17.21,17.21,0,0,0,10.62,12.87l3.22,1.25a1.12,1.12,0,0,1,.31.1A.25.25,0,0,1,351.94,257.89Z" transform="translate(-282.28 -204.82)"/></g><g id="Group_773" data-name="Group 773"><g id="Group_772" data-name="Group 772"><path id="Path_2013" data-name="Path 2013" d="M355.42,255.57a4.29,4.29,0,0,0-2.78-2.15l-2.93-1.14a12.84,12.84,0,0,1-7.3-7.36h3.11a6.23,6.23,0,1,0,0-12.45h-4.14l.18-2a21.16,21.16,0,1,0-42.16,0l.18,2h-4.14a6.23,6.23,0,0,0,0,12.45h3.15a13,13,0,0,1-7.33,7.35l-2.84,1.11a4.28,4.28,0,0,0-3.28,5.1,4.16,4.16,0,0,0,.7,1.58c1.71,2.62,5.45,3.56,8.31,4.11a7.76,7.76,0,0,0,1.06,2.79,4.27,4.27,0,0,0,4.39,1.77c6.23-1,6.93-.47,9.26,1.18a34.07,34.07,0,0,0,4.29,2.67,19.55,19.55,0,0,0,7.32,1.39,18.28,18.28,0,0,0,8-1.68c2.79-1.6,6.45-5.26,12.06-3.8a5.11,5.11,0,0,0,4.15-.41,5.5,5.5,0,0,0,2.18-3.92c3.19-.66,7.33-1.62,8.7-4.9A4.33,4.33,0,0,0,355.42,255.57Z" transform="translate(-282.28 -204.82)"/><path id="Path_2014" data-name="Path 2014" d="M351.71,257.66c-.58,1.4-4.15,2.12-6.07,2.51l-.69.14c-1.69.35-2,2.05-2.16,2.95a4.31,4.31,0,0,1-.36,1.32,2.1,2.1,0,0,1-.86-.1c-7.43-1.94-12.48,2.62-15.1,4.16a15.72,15.72,0,0,1-11.64.15,33.05,33.05,0,0,1-3.57-2.26c-3.05-2.17-4.72-3.07-12.3-1.9a1,1,0,0,1-.3,0,5,5,0,0,1-.49-1.52c-.2-.94-.54-2.52-2.16-2.82l-.14,0c-1.82-.34-5.62-1-6.56-2.48a.43.43,0,0,1-.1-.31c0-.05.3-.08.35-.09l3.21-1.25a17.41,17.41,0,0,0,10.62-12.77l.56-2.6h-8.51a2.08,2.08,0,1,1,0-4.15h8.68l-.59-6.5a17,17,0,0,1,33.89-2.69,15.11,15.11,0,0,1,0,2.69l-.59,6.5h8.69a2.08,2.08,0,1,1,0,4.15h-8.46l.53,2.5a17.26,17.26,0,0,0,10.62,12.88l3.22,1.24a1.19,1.19,0,0,1,.32.1A.33.33,0,0,1,351.71,257.66Z" transform="translate(-282.28 -204.82)"/></g><path id="Path_2015" data-name="Path 2015" class="cls-1" d="M351.71,257.66c-.58,1.4-4.15,2.12-6.07,2.51l-.69.14c-1.69.35-2,2.05-2.16,2.95a4.31,4.31,0,0,1-.36,1.32,2.1,2.1,0,0,1-.86-.1c-7.43-1.94-12.48,2.62-15.1,4.16a15.72,15.72,0,0,1-11.64.15,33.05,33.05,0,0,1-3.57-2.26c-3.05-2.17-4.72-3.07-12.3-1.9a1,1,0,0,1-.3,0,5,5,0,0,1-.49-1.52c-.2-.94-.54-2.52-2.16-2.82l-.14,0c-1.82-.34-5.62-1-6.56-2.48a.43.43,0,0,1-.1-.31c0-.05.3-.08.35-.09l3.21-1.25a17.41,17.41,0,0,0,10.62-12.77l.56-2.6h-8.51a2.08,2.08,0,1,1,0-4.15h8.68l-.59-6.5a17,17,0,0,1,33.89-2.69,15.11,15.11,0,0,1,0,2.69l-.59,6.5h8.69a2.08,2.08,0,1,1,0,4.15h-8.46l.53,2.5a17.26,17.26,0,0,0,10.62,12.88l3.22,1.24a1.19,1.19,0,0,1,.32.1A.33.33,0,0,1,351.71,257.66Z" transform="translate(-282.28 -204.82)"/></g><g id="Group_775" data-name="Group 775"><g id="Group_774" data-name="Group 774"><path id="Path_2016" data-name="Path 2016" d="M355.2,255.34a4.31,4.31,0,0,0-2.78-2.15l-2.94-1.14a12.84,12.84,0,0,1-7.3-7.36h3.12a6.23,6.23,0,0,0,0-12.45h-4.15l.18-2a21.16,21.16,0,1,0-42.16,0l.18,2H295.2a6.23,6.23,0,0,0,0,12.45h3.16A12.92,12.92,0,0,1,291,252l-2.84,1.11a4.29,4.29,0,0,0-3.28,5.1,4.16,4.16,0,0,0,.7,1.58c1.72,2.62,5.45,3.56,8.32,4.12a7.71,7.71,0,0,0,1.06,2.78,4.26,4.26,0,0,0,4.38,1.77c6.24-1,6.94-.46,9.27,1.18a33.36,33.36,0,0,0,4.29,2.67,19.32,19.32,0,0,0,7.32,1.39,18.31,18.31,0,0,0,8-1.68c2.79-1.6,6.45-5.26,12.06-3.8a5.11,5.11,0,0,0,4.15-.41,5.48,5.48,0,0,0,2.18-3.92c3.19-.66,7.33-1.61,8.7-4.9A4.33,4.33,0,0,0,355.2,255.34Z" transform="translate(-282.28 -204.82)"/><path id="Path_2017" data-name="Path 2017" d="M351.48,257.43c-.58,1.4-4.15,2.12-6.07,2.51l-.7.14c-1.68.35-2,2.05-2.15,2.95a4.62,4.62,0,0,1-.36,1.32,2.1,2.1,0,0,1-.86-.1c-7.43-1.94-12.48,2.62-15.1,4.16a15.74,15.74,0,0,1-11.65.15A33.93,33.93,0,0,1,311,266.3c-3-2.17-4.72-3.07-12.3-1.9a1,1,0,0,1-.3,0,5,5,0,0,1-.49-1.52c-.2-.94-.54-2.52-2.16-2.82l-.15,0c-1.82-.34-5.61-1-6.55-2.48a.43.43,0,0,1-.1-.31c0-.05.3-.08.35-.09l3.21-1.25a17.42,17.42,0,0,0,10.62-12.77l.56-2.6h-8.51a2.08,2.08,0,0,1,0-4.15h8.69l-.59-6.5a17,17,0,1,1,33.89-2.71,17.51,17.51,0,0,1,0,2.71l-.59,6.5h8.69a2.08,2.08,0,1,1,0,4.15h-8.46l.53,2.5A17.23,17.23,0,0,0,348,255.91l3.22,1.25a1.12,1.12,0,0,1,.31.1A.25.25,0,0,1,351.48,257.43Z" transform="translate(-282.28 -204.82)"/></g><path id="Path_2018" data-name="Path 2018" class="cls-1" d="M351.48,257.43c-.58,1.4-4.15,2.12-6.07,2.51l-.7.14c-1.68.35-2,2.05-2.15,2.95a4.62,4.62,0,0,1-.36,1.32,2.1,2.1,0,0,1-.86-.1c-7.43-1.94-12.48,2.62-15.1,4.16a15.74,15.74,0,0,1-11.65.15A33.93,33.93,0,0,1,311,266.3c-3-2.17-4.72-3.07-12.3-1.9a1,1,0,0,1-.3,0,5,5,0,0,1-.49-1.52c-.2-.94-.54-2.52-2.16-2.82l-.15,0c-1.82-.34-5.61-1-6.55-2.48a.43.43,0,0,1-.1-.31c0-.05.3-.08.35-.09l3.21-1.25a17.42,17.42,0,0,0,10.62-12.77l.56-2.6h-8.51a2.08,2.08,0,0,1,0-4.15h8.69l-.59-6.5a17,17,0,1,1,33.89-2.71,17.51,17.51,0,0,1,0,2.71l-.59,6.5h8.69a2.08,2.08,0,1,1,0,4.15h-8.46l.53,2.5A17.23,17.23,0,0,0,348,255.91l3.22,1.25a1.12,1.12,0,0,1,.31.1A.25.25,0,0,1,351.48,257.43Z" transform="translate(-282.28 -204.82)"/></g><g id="Group_777" data-name="Group 777"><g id="Group_776" data-name="Group 776"><path id="Path_2019" data-name="Path 2019" d="M355,255.11a4.31,4.31,0,0,0-2.78-2.15l-2.94-1.14a12.84,12.84,0,0,1-7.3-7.36h3.11a6.23,6.23,0,1,0,0-12.45h-4.14l.18-2a21.15,21.15,0,1,0-42.16,0l.18,2H295a6.23,6.23,0,0,0,0,12.45h3.16a12.93,12.93,0,0,1-7.33,7.35L288,252.92a4.29,4.29,0,0,0-3.28,5.11,4.19,4.19,0,0,0,.7,1.57c1.71,2.62,5.44,3.56,8.31,4.12a7.55,7.55,0,0,0,1.07,2.78,4.25,4.25,0,0,0,4.38,1.77c6.23-1,6.93-.46,9.26,1.19a36.54,36.54,0,0,0,4.29,2.67,19.36,19.36,0,0,0,7.33,1.38,18.13,18.13,0,0,0,8-1.68c2.79-1.6,6.46-5.26,12.07-3.8a5.11,5.11,0,0,0,4.15-.41,5.51,5.51,0,0,0,2.18-3.92c3.19-.65,7.33-1.61,8.7-4.9A4.37,4.37,0,0,0,355,255.11Z" transform="translate(-282.28 -204.82)"/><path id="Path_2020" data-name="Path 2020" d="M351.25,257.2c-.58,1.4-4.15,2.12-6.07,2.51l-.7.14c-1.68.35-2,2-2.15,2.95a4.71,4.71,0,0,1-.36,1.32,2.28,2.28,0,0,1-.86-.1c-7.43-1.94-12.48,2.62-15.1,4.16a15.72,15.72,0,0,1-11.64.15,33.05,33.05,0,0,1-3.57-2.26c-3.05-2.17-4.72-3.07-12.3-1.9a1,1,0,0,1-.3,0,5,5,0,0,1-.49-1.52c-.2-.94-.54-2.52-2.15-2.82l-.15,0c-1.82-.34-5.62-1-6.55-2.48a.4.4,0,0,1-.1-.31s.3-.08.34-.09l3.21-1.25a17.42,17.42,0,0,0,10.62-12.77l.56-2.6H295a2.08,2.08,0,1,1,0-4.15h8.69l-.6-6.5A17,17,0,0,1,337,227a17.51,17.51,0,0,1,0,2.71l-.6,6.5h8.69a2.08,2.08,0,1,1,0,4.15h-8.45l.52,2.5a17.23,17.23,0,0,0,10.62,12.87l3.22,1.25a1.19,1.19,0,0,1,.32.1A.33.33,0,0,1,351.25,257.2Z" transform="translate(-282.28 -204.82)"/></g><path id="Path_2021" data-name="Path 2021" class="cls-1" d="M351.25,257.2c-.58,1.4-4.15,2.12-6.07,2.51l-.7.14c-1.68.35-2,2-2.15,2.95a4.71,4.71,0,0,1-.36,1.32,2.28,2.28,0,0,1-.86-.1c-7.43-1.94-12.48,2.62-15.1,4.16a15.72,15.72,0,0,1-11.64.15,33.05,33.05,0,0,1-3.57-2.26c-3.05-2.17-4.72-3.07-12.3-1.9a1,1,0,0,1-.3,0,5,5,0,0,1-.49-1.52c-.2-.94-.54-2.52-2.15-2.82l-.15,0c-1.82-.34-5.62-1-6.55-2.48a.4.4,0,0,1-.1-.31s.3-.08.34-.09l3.21-1.25a17.42,17.42,0,0,0,10.62-12.77l.56-2.6H295a2.08,2.08,0,1,1,0-4.15h8.69l-.6-6.5A17,17,0,0,1,337,227a17.51,17.51,0,0,1,0,2.71l-.6,6.5h8.69a2.08,2.08,0,1,1,0,4.15h-8.45l.52,2.5a17.23,17.23,0,0,0,10.62,12.87l3.22,1.25a1.19,1.19,0,0,1,.32.1A.33.33,0,0,1,351.25,257.2Z" transform="translate(-282.28 -204.82)"/></g><g id="Group_779" data-name="Group 779"><g id="Group_778" data-name="Group 778"><path id="Path_2022" data-name="Path 2022" d="M354.74,254.88a4.31,4.31,0,0,0-2.78-2.15L349,251.59a12.84,12.84,0,0,1-7.3-7.36h3.11a6.23,6.23,0,1,0,0-12.45h-4.14l.18-2a21.15,21.15,0,1,0-42.16-3.54,20.92,20.92,0,0,0,0,3.54l.18,2h-4.14a6.23,6.23,0,1,0,0,12.45h3.19a13,13,0,0,1-7.33,7.35l-2.84,1.11a4.29,4.29,0,0,0-3.28,5.1,4.16,4.16,0,0,0,.7,1.58c1.71,2.62,5.45,3.56,8.31,4.12a7.55,7.55,0,0,0,1.07,2.78,4.26,4.26,0,0,0,4.38,1.77c6.23-1,6.94-.46,9.26,1.19a34.55,34.55,0,0,0,4.3,2.66,19.09,19.09,0,0,0,7.32,1.39,18.27,18.27,0,0,0,8-1.68c2.79-1.6,6.46-5.26,12.07-3.8a5.11,5.11,0,0,0,4.15-.41,5.51,5.51,0,0,0,2.18-3.92c3.19-.65,7.33-1.61,8.7-4.9A4.37,4.37,0,0,0,354.74,254.88Z" transform="translate(-282.28 -204.82)"/><path id="Path_2023" data-name="Path 2023" d="M351,257c-.58,1.39-4.16,2.12-6.07,2.51l-.7.14c-1.68.35-2,2-2.15,2.95a4.64,4.64,0,0,1-.36,1.31,1.94,1.94,0,0,1-.86-.1c-7.43-1.94-12.48,2.62-15.1,4.17a15.67,15.67,0,0,1-11.64.14,30.58,30.58,0,0,1-3.56-2.26c-3.06-2.16-4.73-3.07-12.3-1.9a1,1,0,0,1-.3,0,4.83,4.83,0,0,1-.49-1.52c-.2-.95-.54-2.52-2.16-2.82l-.15,0c-1.82-.34-5.62-1-6.55-2.48a.41.41,0,0,1-.1-.32s.3-.07.35-.08l3.2-1.26a17.41,17.41,0,0,0,10.62-12.77l.56-2.6h-8.51a2.08,2.08,0,1,1,0-4.15h8.69l-.6-6.5a17,17,0,1,1,33.89-2.78,16.13,16.13,0,0,1,0,2.78l-.59,6.5h8.69a2.08,2.08,0,1,1,0,4.15h-8.46l.53,2.5a17.24,17.24,0,0,0,10.62,12.88l3.22,1.25a1.17,1.17,0,0,1,.32.09A.39.39,0,0,1,351,257Z" transform="translate(-282.28 -204.82)"/></g><path id="Path_2024" data-name="Path 2024" class="cls-1" d="M351,257c-.58,1.39-4.16,2.12-6.07,2.51l-.7.14c-1.68.35-2,2-2.15,2.95a4.64,4.64,0,0,1-.36,1.31,1.94,1.94,0,0,1-.86-.1c-7.43-1.94-12.48,2.62-15.1,4.17a15.67,15.67,0,0,1-11.64.14,30.58,30.58,0,0,1-3.56-2.26c-3.06-2.16-4.73-3.07-12.3-1.9a1,1,0,0,1-.3,0,4.83,4.83,0,0,1-.49-1.52c-.2-.95-.54-2.52-2.16-2.82l-.15,0c-1.82-.34-5.62-1-6.55-2.48a.41.41,0,0,1-.1-.32s.3-.07.35-.08l3.2-1.26a17.41,17.41,0,0,0,10.62-12.77l.56-2.6h-8.51a2.08,2.08,0,1,1,0-4.15h8.69l-.6-6.5a17,17,0,1,1,33.89-2.78,16.13,16.13,0,0,1,0,2.78l-.59,6.5h8.69a2.08,2.08,0,1,1,0,4.15h-8.46l.53,2.5a17.24,17.24,0,0,0,10.62,12.88l3.22,1.25a1.17,1.17,0,0,1,.32.09A.39.39,0,0,1,351,257Z" transform="translate(-282.28 -204.82)"/></g><g id="Group_781" data-name="Group 781"><g id="Group_780" data-name="Group 780"><path id="Path_2025" data-name="Path 2025" d="M354.51,254.65a4.31,4.31,0,0,0-2.78-2.15l-2.94-1.14a12.84,12.84,0,0,1-7.3-7.36h3.11a6.23,6.23,0,1,0,0-12.45h-4.14l.17-2A21.15,21.15,0,1,0,298.47,226a23.24,23.24,0,0,0,0,3.54l.18,2h-4.14a6.23,6.23,0,0,0,0,12.45h3.15a12.87,12.87,0,0,1-7.33,7.35l-2.84,1.11a4.3,4.3,0,0,0-3.28,5.11,4.35,4.35,0,0,0,.7,1.57c1.72,2.62,5.45,3.56,8.31,4.12a7.92,7.92,0,0,0,1.07,2.78,4.26,4.26,0,0,0,4.38,1.77c6.24-1,6.94-.46,9.27,1.19a35,35,0,0,0,4.29,2.67,19.31,19.31,0,0,0,7.32,1.38,18.17,18.17,0,0,0,8-1.68c2.79-1.6,6.45-5.26,12.06-3.8a5.11,5.11,0,0,0,4.15-.41,5.51,5.51,0,0,0,2.18-3.92c3.19-.65,7.33-1.61,8.7-4.9A4.37,4.37,0,0,0,354.51,254.65Z" transform="translate(-282.28 -204.82)"/><path id="Path_2026" data-name="Path 2026" d="M350.79,256.74c-.58,1.4-4.15,2.12-6.07,2.51l-.69.14c-1.69.36-2,2.05-2.16,2.95a4.31,4.31,0,0,1-.36,1.32,2.1,2.1,0,0,1-.86-.1c-7.43-1.94-12.48,2.62-15.1,4.16a15.72,15.72,0,0,1-11.64.15,33.05,33.05,0,0,1-3.57-2.26c-3-2.17-4.72-3.07-12.3-1.9a1.37,1.37,0,0,1-.29,0,4.91,4.91,0,0,1-.5-1.53c-.2-.94-.54-2.51-2.16-2.81l-.15,0c-1.82-.34-5.61-1.05-6.55-2.48a.46.46,0,0,1-.1-.32s.3-.07.35-.08l3.21-1.26a17.41,17.41,0,0,0,10.62-12.77l.56-2.6h-8.51a2.08,2.08,0,1,1,0-4.15h8.68l-.59-6.5a17,17,0,1,1,33.9,0l-.6,6.5h8.69a2.08,2.08,0,1,1,0,4.15h-8.46l.53,2.5a17.24,17.24,0,0,0,10.62,12.88l3.22,1.25a.9.9,0,0,1,.32.09A.33.33,0,0,1,350.79,256.74Z" transform="translate(-282.28 -204.82)"/></g><path id="Path_2027" data-name="Path 2027" class="cls-1" d="M350.79,256.74c-.58,1.4-4.15,2.12-6.07,2.51l-.69.14c-1.69.36-2,2.05-2.16,2.95a4.31,4.31,0,0,1-.36,1.32,2.1,2.1,0,0,1-.86-.1c-7.43-1.94-12.48,2.62-15.1,4.16a15.72,15.72,0,0,1-11.64.15,33.05,33.05,0,0,1-3.57-2.26c-3-2.17-4.72-3.07-12.3-1.9a1.37,1.37,0,0,1-.29,0,4.91,4.91,0,0,1-.5-1.53c-.2-.94-.54-2.51-2.16-2.81l-.15,0c-1.82-.34-5.61-1.05-6.55-2.48a.46.46,0,0,1-.1-.32s.3-.07.35-.08l3.21-1.26a17.41,17.41,0,0,0,10.62-12.77l.56-2.6h-8.51a2.08,2.08,0,1,1,0-4.15h8.68l-.59-6.5a17,17,0,1,1,33.9,0l-.6,6.5h8.69a2.08,2.08,0,1,1,0,4.15h-8.46l.53,2.5a17.24,17.24,0,0,0,10.62,12.88l3.22,1.25a.9.9,0,0,1,.32.09A.33.33,0,0,1,350.79,256.74Z" transform="translate(-282.28 -204.82)"/></g><g id="Group_783" data-name="Group 783"><g id="Group_782" data-name="Group 782"><path id="Path_2028" data-name="Path 2028" d="M354.28,254.42a4.31,4.31,0,0,0-2.78-2.15l-2.94-1.14a12.84,12.84,0,0,1-7.3-7.36h3.12a6.23,6.23,0,0,0,0-12.45h-4.15l.18-2a21.15,21.15,0,1,0-42.16-3.54,20.92,20.92,0,0,0,0,3.54l.18,2h-4.14a6.23,6.23,0,0,0,0,12.45h3.15a12.93,12.93,0,0,1-7.33,7.35l-2.84,1.11a4.28,4.28,0,0,0-3.28,5.1,4.16,4.16,0,0,0,.7,1.58c1.71,2.62,5.45,3.56,8.31,4.12a7.55,7.55,0,0,0,1.07,2.78,4.25,4.25,0,0,0,4.38,1.77c6.23-1,6.94-.46,9.26,1.19a36.54,36.54,0,0,0,4.29,2.67,19.36,19.36,0,0,0,7.33,1.38,18.13,18.13,0,0,0,8-1.68c2.79-1.6,6.46-5.26,12.07-3.8a5,5,0,0,0,4.15-.41A5.51,5.51,0,0,0,345.7,263c3.19-.65,7.32-1.61,8.7-4.9A4.37,4.37,0,0,0,354.28,254.42Z" transform="translate(-282.28 -204.82)"/><path id="Path_2029" data-name="Path 2029" d="M350.56,256.51c-.58,1.4-4.15,2.12-6.07,2.51l-.69.14c-1.69.36-2,2-2.16,2.95a4.31,4.31,0,0,1-.36,1.32,2.1,2.1,0,0,1-.86-.1c-7.43-1.94-12.48,2.62-15.1,4.16a15.72,15.72,0,0,1-11.64.15,33.05,33.05,0,0,1-3.57-2.26c-3.05-2.17-4.72-3.07-12.3-1.9a1.46,1.46,0,0,1-.3,0A5.16,5.16,0,0,1,297,262c-.2-.94-.54-2.51-2.16-2.81l-.15,0c-1.82-.34-5.61-1.05-6.55-2.49a.43.43,0,0,1-.1-.31s.3-.08.35-.09l3.21-1.25a17.41,17.41,0,0,0,10.62-12.77l.56-2.6h-8.51a2.08,2.08,0,1,1,0-4.15H303l-.59-6.5a17,17,0,1,1,33.9,0l-.6,6.5h8.69a2.08,2.08,0,1,1,0,4.15h-8.46l.53,2.5A17.24,17.24,0,0,0,347.06,255l3.22,1.25a1,1,0,0,1,.32.09A.33.33,0,0,1,350.56,256.51Z" transform="translate(-282.28 -204.82)"/></g><path id="Path_2030" data-name="Path 2030" class="cls-1" d="M350.56,256.51c-.58,1.4-4.15,2.12-6.07,2.51l-.69.14c-1.69.36-2,2-2.16,2.95a4.31,4.31,0,0,1-.36,1.32,2.1,2.1,0,0,1-.86-.1c-7.43-1.94-12.48,2.62-15.1,4.16a15.72,15.72,0,0,1-11.64.15,33.05,33.05,0,0,1-3.57-2.26c-3.05-2.17-4.72-3.07-12.3-1.9a1.46,1.46,0,0,1-.3,0A5.16,5.16,0,0,1,297,262c-.2-.94-.54-2.51-2.16-2.81l-.15,0c-1.82-.34-5.61-1.05-6.55-2.49a.43.43,0,0,1-.1-.31s.3-.08.35-.09l3.21-1.25a17.41,17.41,0,0,0,10.62-12.77l.56-2.6h-8.51a2.08,2.08,0,1,1,0-4.15H303l-.59-6.5a17,17,0,1,1,33.9,0l-.6,6.5h8.69a2.08,2.08,0,1,1,0,4.15h-8.46l.53,2.5A17.24,17.24,0,0,0,347.06,255l3.22,1.25a1,1,0,0,1,.32.09A.33.33,0,0,1,350.56,256.51Z" transform="translate(-282.28 -204.82)"/></g><g id="Group_785" data-name="Group 785"><g id="Group_784" data-name="Group 784"><path id="Path_2031" data-name="Path 2031" d="M354.05,254.19a4.31,4.31,0,0,0-2.78-2.15l-2.94-1.14a12.85,12.85,0,0,1-7.3-7.35h3.12a6.23,6.23,0,1,0,0-12.46H340l.17-2A21.15,21.15,0,1,0,298,225.59a23.11,23.11,0,0,0,0,3.53l.19,2h-4.15a6.23,6.23,0,0,0,0,12.45h3.18a12.9,12.9,0,0,1-7.33,7.35L287,252a4.29,4.29,0,0,0-3.28,5.1,4.48,4.48,0,0,0,.7,1.58c1.72,2.62,5.45,3.55,8.31,4.11a7.85,7.85,0,0,0,1.07,2.79,4.27,4.27,0,0,0,4.38,1.76c6.24-1,6.94-.46,9.27,1.19a35.73,35.73,0,0,0,4.29,2.67,19.31,19.31,0,0,0,7.32,1.38,18.31,18.31,0,0,0,8-1.67c2.78-1.6,6.45-5.27,12.06-3.8a5.11,5.11,0,0,0,4.15-.41,5.53,5.53,0,0,0,2.18-3.93c3.19-.65,7.33-1.61,8.7-4.9A4.34,4.34,0,0,0,354.05,254.19Z" transform="translate(-282.28 -204.82)"/><path id="Path_2032" data-name="Path 2032" d="M350.33,256.29c-.58,1.39-4.15,2.12-6.07,2.51l-.69.14c-1.69.35-2,2-2.15,2.94a5,5,0,0,1-.36,1.32,2,2,0,0,1-.87-.1c-7.42-1.94-12.48,2.62-15.1,4.17a15.72,15.72,0,0,1-11.64.14,30.58,30.58,0,0,1-3.56-2.26c-3.06-2.16-4.72-3.07-12.3-1.9a1.51,1.51,0,0,1-.3,0,4.89,4.89,0,0,1-.49-1.53c-.2-.94-.54-2.51-2.16-2.81l-.15,0c-1.82-.34-5.62-1-6.55-2.48a.46.46,0,0,1-.1-.32s.3-.07.35-.08l3.2-1.26A17.39,17.39,0,0,0,302,242l.57-2.6h-8.52a2.08,2.08,0,0,1,0-4.15h8.69l-.59-6.5a17,17,0,1,1,33.89,0l-.59,6.5h8.69a2.08,2.08,0,0,1,0,4.15h-8.46l.52,2.5a17.24,17.24,0,0,0,10.62,12.88l3.22,1.25a.9.9,0,0,1,.32.09A.39.39,0,0,1,350.33,256.29Z" transform="translate(-282.28 -204.82)"/></g><path id="Path_2033" data-name="Path 2033" class="cls-1" d="M350.33,256.29c-.58,1.39-4.15,2.12-6.07,2.51l-.69.14c-1.69.35-2,2-2.15,2.94a5,5,0,0,1-.36,1.32,2,2,0,0,1-.87-.1c-7.42-1.94-12.48,2.62-15.1,4.17a15.72,15.72,0,0,1-11.64.14,30.58,30.58,0,0,1-3.56-2.26c-3.06-2.16-4.72-3.07-12.3-1.9a1.51,1.51,0,0,1-.3,0,4.89,4.89,0,0,1-.49-1.53c-.2-.94-.54-2.51-2.16-2.81l-.15,0c-1.82-.34-5.62-1-6.55-2.48a.46.46,0,0,1-.1-.32s.3-.07.35-.08l3.2-1.26A17.39,17.39,0,0,0,302,242l.57-2.6h-8.52a2.08,2.08,0,0,1,0-4.15h8.69l-.59-6.5a17,17,0,1,1,33.89,0l-.59,6.5h8.69a2.08,2.08,0,0,1,0,4.15h-8.46l.52,2.5a17.24,17.24,0,0,0,10.62,12.88l3.22,1.25a.9.9,0,0,1,.32.09A.39.39,0,0,1,350.33,256.29Z" transform="translate(-282.28 -204.82)"/></g><g id="Group_787" data-name="Group 787"><g id="Group_786" data-name="Group 786"><path id="Path_2034" data-name="Path 2034" d="M353.82,254a4.31,4.31,0,0,0-2.78-2.15l-2.94-1.14a12.85,12.85,0,0,1-7.3-7.35h3.12a6.23,6.23,0,0,0,0-12.46h-4.15l.18-2a21.16,21.16,0,1,0-42.16,0l.18,2h-4.14a6.23,6.23,0,0,0,0,12.45H297a12.93,12.93,0,0,1-7.33,7.35l-2.84,1.12a4.29,4.29,0,0,0-2.58,6.68c1.71,2.62,5.45,3.55,8.31,4.11a7.85,7.85,0,0,0,1.07,2.79,4.25,4.25,0,0,0,4.38,1.76c6.24-1,6.94-.46,9.27,1.19a35,35,0,0,0,4.29,2.67,19.27,19.27,0,0,0,7.32,1.38,18.23,18.23,0,0,0,8-1.67c2.79-1.6,6.46-5.27,12.07-3.8a5.07,5.07,0,0,0,4.15-.42,5.51,5.51,0,0,0,2.18-3.92c3.19-.65,7.33-1.61,8.7-4.9A4.37,4.37,0,0,0,353.82,254Z" transform="translate(-282.28 -204.82)"/><path id="Path_2035" data-name="Path 2035" d="M350.1,256.06c-.58,1.39-4.15,2.12-6.07,2.51l-.69.14c-1.69.35-2,2-2.15,2.94a4.63,4.63,0,0,1-.37,1.32,2.1,2.1,0,0,1-.86-.1c-7.43-1.94-12.48,2.62-15.1,4.17a15.76,15.76,0,0,1-11.64.14,30.58,30.58,0,0,1-3.56-2.26c-3.06-2.17-4.73-3.07-12.3-1.9a1.51,1.51,0,0,1-.3,0,4.91,4.91,0,0,1-.5-1.53c-.2-.94-.53-2.51-2.15-2.81l-.15,0c-1.82-.34-5.62-1.05-6.55-2.48a.41.41,0,0,1-.1-.32s.3-.07.35-.08l3.2-1.26a17.39,17.39,0,0,0,10.62-12.77l.56-2.6h-8.51a2.08,2.08,0,1,1,0-4.15h8.69l-.6-6.5a17,17,0,0,1,33.9-2.71,17.51,17.51,0,0,1,0,2.71l-.59,6.5h8.69a2.08,2.08,0,0,1,0,4.15h-8.46l.52,2.5a17.24,17.24,0,0,0,10.62,12.88l3.22,1.25a.9.9,0,0,1,.32.09A.39.39,0,0,1,350.1,256.06Z" transform="translate(-282.28 -204.82)"/></g><path id="Path_2036" data-name="Path 2036" class="cls-1" d="M350.1,256.06c-.58,1.39-4.15,2.12-6.07,2.51l-.69.14c-1.69.35-2,2-2.15,2.94a4.63,4.63,0,0,1-.37,1.32,2.1,2.1,0,0,1-.86-.1c-7.43-1.94-12.48,2.62-15.1,4.17a15.76,15.76,0,0,1-11.64.14,30.58,30.58,0,0,1-3.56-2.26c-3.06-2.17-4.73-3.07-12.3-1.9a1.51,1.51,0,0,1-.3,0,4.91,4.91,0,0,1-.5-1.53c-.2-.94-.53-2.51-2.15-2.81l-.15,0c-1.82-.34-5.62-1.05-6.55-2.48a.41.41,0,0,1-.1-.32s.3-.07.35-.08l3.2-1.26a17.39,17.39,0,0,0,10.62-12.77l.56-2.6h-8.51a2.08,2.08,0,1,1,0-4.15h8.69l-.6-6.5a17,17,0,0,1,33.9-2.71,17.51,17.51,0,0,1,0,2.71l-.59,6.5h8.69a2.08,2.08,0,0,1,0,4.15h-8.46l.52,2.5a17.24,17.24,0,0,0,10.62,12.88l3.22,1.25a.9.9,0,0,1,.32.09A.39.39,0,0,1,350.1,256.06Z" transform="translate(-282.28 -204.82)"/></g><g id="Group_789" data-name="Group 789"><g id="Group_788" data-name="Group 788"><path id="Path_2037" data-name="Path 2037" d="M353.59,253.74a4.33,4.33,0,0,0-2.78-2.16l-2.94-1.14a12.8,12.8,0,0,1-7.3-7.35h3.12a6.23,6.23,0,1,0,0-12.46h-4.15l.18-2a21.16,21.16,0,1,0-42.16,0l.18,2H293.6a6.23,6.23,0,0,0,0,12.45h3.15a13,13,0,0,1-7.33,7.36l-2.84,1.11a4.29,4.29,0,0,0-2.58,6.68c1.71,2.62,5.45,3.55,8.31,4.11a7.78,7.78,0,0,0,1.07,2.79,4.26,4.26,0,0,0,4.38,1.77c6.24-1,6.94-.47,9.27,1.18a33.79,33.79,0,0,0,4.29,2.67,19.31,19.31,0,0,0,7.32,1.38,18.23,18.23,0,0,0,8-1.67c2.79-1.6,6.46-5.27,12.07-3.8a5.11,5.11,0,0,0,4.15-.41,5.53,5.53,0,0,0,2.18-3.93c3.19-.65,7.33-1.61,8.7-4.9A4.31,4.31,0,0,0,353.59,253.74Z" transform="translate(-282.28 -204.82)"/><path id="Path_2038" data-name="Path 2038" d="M349.88,255.82c-.58,1.4-4.16,2.12-6.08,2.51l-.69.14c-1.69.35-2,2-2.15,2.95a5,5,0,0,1-.36,1.32,2,2,0,0,1-.87-.1c-7.42-1.94-12.48,2.62-15.09,4.17A15.69,15.69,0,0,1,313,267a32.37,32.37,0,0,1-3.56-2.26c-3.05-2.16-4.72-3.07-12.3-1.9a1,1,0,0,1-.3,0,5.1,5.1,0,0,1-.49-1.52c-.2-.94-.54-2.52-2.16-2.82l-.14,0c-1.83-.34-5.62-1-6.56-2.48a.46.46,0,0,1-.1-.32s.3-.07.35-.08l3.21-1.26a17.41,17.41,0,0,0,10.62-12.77l.56-2.6h-8.51a2.08,2.08,0,1,1,0-4.15h8.68l-.59-6.5a17,17,0,1,1,33.9,0l-.6,6.5h8.69a2.08,2.08,0,1,1,0,4.15h-8.46l.53,2.5a17.24,17.24,0,0,0,10.62,12.88l3.22,1.25a1.11,1.11,0,0,1,.31.09A.32.32,0,0,1,349.88,255.82Z" transform="translate(-282.28 -204.82)"/></g><path id="Path_2039" data-name="Path 2039" class="cls-1" d="M349.88,255.82c-.58,1.4-4.16,2.12-6.08,2.51l-.69.14c-1.69.35-2,2-2.15,2.95a5,5,0,0,1-.36,1.32,2,2,0,0,1-.87-.1c-7.42-1.94-12.48,2.62-15.09,4.17A15.69,15.69,0,0,1,313,267a32.37,32.37,0,0,1-3.56-2.26c-3.05-2.16-4.72-3.07-12.3-1.9a1,1,0,0,1-.3,0,5.1,5.1,0,0,1-.49-1.52c-.2-.94-.54-2.52-2.16-2.82l-.14,0c-1.83-.34-5.62-1-6.56-2.48a.46.46,0,0,1-.1-.32s.3-.07.35-.08l3.21-1.26a17.41,17.41,0,0,0,10.62-12.77l.56-2.6h-8.51a2.08,2.08,0,1,1,0-4.15h8.68l-.59-6.5a17,17,0,1,1,33.9,0l-.6,6.5h8.69a2.08,2.08,0,1,1,0,4.15h-8.46l.53,2.5a17.24,17.24,0,0,0,10.62,12.88l3.22,1.25a1.11,1.11,0,0,1,.31.09A.32.32,0,0,1,349.88,255.82Z" transform="translate(-282.28 -204.82)"/></g><g id="Group_791" data-name="Group 791"><g id="Group_790" data-name="Group 790"><path id="Path_2040" data-name="Path 2040" d="M353.36,253.51a4.33,4.33,0,0,0-2.78-2.16l-2.94-1.14a12.8,12.8,0,0,1-7.3-7.35h3.12a6.23,6.23,0,0,0,0-12.46h-4.15l.18-2a21.15,21.15,0,0,0-42.16-3.53,20.81,20.81,0,0,0,0,3.53l.18,2h-4.14a6.23,6.23,0,0,0,0,12.45h3.15a13,13,0,0,1-7.33,7.36l-2.84,1.11a4.29,4.29,0,0,0-3.28,5.1,4.16,4.16,0,0,0,.7,1.58c1.71,2.62,5.45,3.55,8.31,4.11a7.6,7.6,0,0,0,1.07,2.79,4.28,4.28,0,0,0,4.38,1.77c6.24-1,6.94-.47,9.27,1.18a33.79,33.79,0,0,0,4.29,2.67,19.27,19.27,0,0,0,7.32,1.38,18.26,18.26,0,0,0,8-1.67c2.79-1.6,6.46-5.27,12.07-3.8a5.11,5.11,0,0,0,4.15-.41,5.53,5.53,0,0,0,2.18-3.93c3.19-.65,7.33-1.61,8.7-4.9A4.31,4.31,0,0,0,353.36,253.51Z" transform="translate(-282.28 -204.82)"/><path id="Path_2041" data-name="Path 2041" d="M349.65,255.59c-.58,1.39-4.16,2.12-6.08,2.51l-.69.14c-1.69.35-2,2.05-2.15,2.95a5,5,0,0,1-.36,1.32,2.13,2.13,0,0,1-.87-.1c-7.43-1.94-12.48,2.62-15.1,4.16a15.72,15.72,0,0,1-11.64.15,32,32,0,0,1-3.56-2.26c-3.06-2.17-4.72-3.07-12.3-1.9a1,1,0,0,1-.3,0,4.75,4.75,0,0,1-.49-1.52c-.2-.94-.54-2.52-2.16-2.82l-.15,0c-1.82-.34-5.62-1-6.55-2.48a.39.39,0,0,1-.1-.31s.3-.08.35-.09l3.2-1.25a17.42,17.42,0,0,0,10.62-12.77l.56-2.6h-8.51a2.08,2.08,0,1,1,0-4.15h8.69l-.6-6.5a17,17,0,1,1,33.9,0l-.59,6.5h8.69a2.08,2.08,0,0,1,0,4.15H335l.52,2.5a17.26,17.26,0,0,0,10.62,12.88l3.22,1.24a1.19,1.19,0,0,1,.32.1A.47.47,0,0,1,349.65,255.59Z" transform="translate(-282.28 -204.82)"/></g><path id="Path_2042" data-name="Path 2042" class="cls-1" d="M349.65,255.59c-.58,1.39-4.16,2.12-6.08,2.51l-.69.14c-1.69.35-2,2.05-2.15,2.95a5,5,0,0,1-.36,1.32,2.13,2.13,0,0,1-.87-.1c-7.43-1.94-12.48,2.62-15.1,4.16a15.72,15.72,0,0,1-11.64.15,32,32,0,0,1-3.56-2.26c-3.06-2.17-4.72-3.07-12.3-1.9a1,1,0,0,1-.3,0,4.75,4.75,0,0,1-.49-1.52c-.2-.94-.54-2.52-2.16-2.82l-.15,0c-1.82-.34-5.62-1-6.55-2.48a.39.39,0,0,1-.1-.31s.3-.08.35-.09l3.2-1.25a17.42,17.42,0,0,0,10.62-12.77l.56-2.6h-8.51a2.08,2.08,0,1,1,0-4.15h8.69l-.6-6.5a17,17,0,1,1,33.9,0l-.59,6.5h8.69a2.08,2.08,0,0,1,0,4.15H335l.52,2.5a17.26,17.26,0,0,0,10.62,12.88l3.22,1.24a1.19,1.19,0,0,1,.32.1A.47.47,0,0,1,349.65,255.59Z" transform="translate(-282.28 -204.82)"/></g><g id="Group_793" data-name="Group 793"><g id="Group_792" data-name="Group 792"><path id="Path_2043" data-name="Path 2043" d="M353.13,253.28a4.31,4.31,0,0,0-2.78-2.15L347.41,250a12.84,12.84,0,0,1-7.3-7.36h3.12a6.23,6.23,0,1,0,0-12.45h-4.14l.18-2a21.15,21.15,0,1,0-42.16,0l.18,2h-4.14a6.23,6.23,0,0,0,0,12.45h3.15A13,13,0,0,1,289,250l-2.84,1.11a4.29,4.29,0,0,0-3.29,5.1,4.34,4.34,0,0,0,.71,1.58c1.71,2.62,5.45,3.55,8.31,4.11a7.76,7.76,0,0,0,1.06,2.79,4.27,4.27,0,0,0,4.39,1.77c6.23-1,6.93-.47,9.26,1.18a34.07,34.07,0,0,0,4.29,2.67,19.57,19.57,0,0,0,7.33,1.39,18.41,18.41,0,0,0,8-1.68c2.79-1.6,6.46-5.26,12.07-3.8a5.11,5.11,0,0,0,4.15-.41,5.53,5.53,0,0,0,2.18-3.92c3.19-.66,7.32-1.62,8.7-4.9A4.33,4.33,0,0,0,353.13,253.28Z" transform="translate(-282.28 -204.82)"/><path id="Path_2044" data-name="Path 2044" d="M349.42,255.37c-.58,1.39-4.16,2.12-6.08,2.51l-.69.14c-1.68.35-2,2-2.15,3a5,5,0,0,1-.36,1.31,2,2,0,0,1-.87-.1c-7.42-1.94-12.47,2.62-15.1,4.17a15.67,15.67,0,0,1-11.64.14,30.58,30.58,0,0,1-3.56-2.26c-3.06-2.16-4.72-3.07-12.3-1.9a1,1,0,0,1-.3,0,4.83,4.83,0,0,1-.49-1.52c-.2-.95-.54-2.52-2.16-2.82l-.15,0c-1.82-.34-5.62-1-6.55-2.48a.45.45,0,0,1-.1-.31c0-.05.3-.08.35-.09l3.2-1.26a17.39,17.39,0,0,0,10.62-12.76l.57-2.6h-8.52a2.08,2.08,0,0,1,0-4.16h8.68l-.59-6.5a17,17,0,0,1,33.9-2.78,18.43,18.43,0,0,1,0,2.78l-.6,6.5h8.69a2.08,2.08,0,0,1,0,4.16h-8.46l.53,2.5a17.24,17.24,0,0,0,10.62,12.87l3.22,1.25a1.68,1.68,0,0,1,.32.09A.57.57,0,0,1,349.42,255.37Z" transform="translate(-282.28 -204.82)"/></g><path id="Path_2045" data-name="Path 2045" class="cls-1" d="M349.42,255.37c-.58,1.39-4.16,2.12-6.08,2.51l-.69.14c-1.68.35-2,2-2.15,3a5,5,0,0,1-.36,1.31,2,2,0,0,1-.87-.1c-7.42-1.94-12.47,2.62-15.1,4.17a15.67,15.67,0,0,1-11.64.14,30.58,30.58,0,0,1-3.56-2.26c-3.06-2.16-4.72-3.07-12.3-1.9a1,1,0,0,1-.3,0,4.83,4.83,0,0,1-.49-1.52c-.2-.95-.54-2.52-2.16-2.82l-.15,0c-1.82-.34-5.62-1-6.55-2.48a.45.45,0,0,1-.1-.31c0-.05.3-.08.35-.09l3.2-1.26a17.39,17.39,0,0,0,10.62-12.76l.57-2.6h-8.52a2.08,2.08,0,0,1,0-4.16h8.68l-.59-6.5a17,17,0,0,1,33.9-2.78,18.43,18.43,0,0,1,0,2.78l-.6,6.5h8.69a2.08,2.08,0,0,1,0,4.16h-8.46l.53,2.5a17.24,17.24,0,0,0,10.62,12.87l3.22,1.25a1.68,1.68,0,0,1,.32.09A.57.57,0,0,1,349.42,255.37Z" transform="translate(-282.28 -204.82)"/></g><g id="Group_795" data-name="Group 795"><g id="Group_794" data-name="Group 794"><path id="Path_2046" data-name="Path 2046" d="M352.9,253a4.31,4.31,0,0,0-2.78-2.15l-2.94-1.14a12.84,12.84,0,0,1-7.3-7.36H343a6.23,6.23,0,1,0,0-12.45h-4.14l.17-2a21.16,21.16,0,1,0-42.16,0l.19,2h-4.15a6.23,6.23,0,0,0,0,12.45h3.18a12.87,12.87,0,0,1-7.33,7.35l-2.84,1.11a4.3,4.3,0,0,0-3.28,5.11,4.48,4.48,0,0,0,.7,1.58c1.72,2.61,5.45,3.55,8.31,4.11a7.73,7.73,0,0,0,1.07,2.78,4.26,4.26,0,0,0,4.38,1.77c6.24-1,6.94-.46,9.27,1.19a35.73,35.73,0,0,0,4.29,2.67,19.31,19.31,0,0,0,7.32,1.38,18.31,18.31,0,0,0,8-1.67c2.79-1.6,6.45-5.27,12.06-3.8a5.11,5.11,0,0,0,4.15-.41,5.5,5.5,0,0,0,2.18-3.93c3.19-.65,7.33-1.61,8.7-4.9A4.34,4.34,0,0,0,352.9,253Z" transform="translate(-282.28 -204.82)"/><path id="Path_2047" data-name="Path 2047" d="M349.19,255.14c-.58,1.39-4.16,2.12-6.08,2.51l-.69.14c-1.68.35-2,2-2.15,2.95a5.07,5.07,0,0,1-.36,1.32,2.31,2.31,0,0,1-.87-.1c-7.43-1.95-12.48,2.61-15.09,4.16a15.69,15.69,0,0,1-11.65.14,30.94,30.94,0,0,1-3.56-2.26c-3.05-2.16-4.72-3.07-12.3-1.9a1,1,0,0,1-.3,0,5.1,5.1,0,0,1-.49-1.52c-.2-1-.54-2.52-2.16-2.82l-.15,0c-1.82-.34-5.62-1-6.55-2.48a.45.45,0,0,1-.1-.31c0-.05.3-.08.35-.09l3.21-1.26a17.41,17.41,0,0,0,10.62-12.76l.56-2.6h-8.52a2.08,2.08,0,0,1,0-4.16h8.69l-.59-6.5a17,17,0,1,1,33.89,0l-.59,6.5H343a2.08,2.08,0,1,1,0,4.16h-8.46l.53,2.5a17.21,17.21,0,0,0,10.61,12.87l3.22,1.25a1.68,1.68,0,0,1,.32.09A.38.38,0,0,1,349.19,255.14Z" transform="translate(-282.28 -204.82)"/></g><path id="Path_2048" data-name="Path 2048" class="cls-1" d="M349.19,255.14c-.58,1.39-4.16,2.12-6.08,2.51l-.69.14c-1.68.35-2,2-2.15,2.95a5.07,5.07,0,0,1-.36,1.32,2.31,2.31,0,0,1-.87-.1c-7.43-1.95-12.48,2.61-15.09,4.16a15.69,15.69,0,0,1-11.65.14,30.94,30.94,0,0,1-3.56-2.26c-3.05-2.16-4.72-3.07-12.3-1.9a1,1,0,0,1-.3,0,5.1,5.1,0,0,1-.49-1.52c-.2-1-.54-2.52-2.16-2.82l-.15,0c-1.82-.34-5.62-1-6.55-2.48a.45.45,0,0,1-.1-.31c0-.05.3-.08.35-.09l3.21-1.26a17.41,17.41,0,0,0,10.62-12.76l.56-2.6h-8.52a2.08,2.08,0,0,1,0-4.16h8.69l-.59-6.5a17,17,0,1,1,33.89,0l-.59,6.5H343a2.08,2.08,0,1,1,0,4.16h-8.46l.53,2.5a17.21,17.21,0,0,0,10.61,12.87l3.22,1.25a1.68,1.68,0,0,1,.32.09A.38.38,0,0,1,349.19,255.14Z" transform="translate(-282.28 -204.82)"/></g><g id="Group_796" data-name="Group 796"><path id="Path_2049" data-name="Path 2049" d="M352.67,252.82a4.33,4.33,0,0,0-2.78-2.16L347,249.52a12.8,12.8,0,0,1-7.3-7.35h3.12a6.23,6.23,0,1,0,0-12.45h-4.14l.18-2a21.15,21.15,0,0,0-42.16-3.53,20.81,20.81,0,0,0,0,3.53l.18,2h-4.15a6.23,6.23,0,0,0,0,12.45h3.19a13,13,0,0,1-7.33,7.36l-2.84,1.11a4.29,4.29,0,0,0-3.28,5.1,4.23,4.23,0,0,0,.7,1.58c1.71,2.62,5.45,3.55,8.31,4.11a7.6,7.6,0,0,0,1.07,2.79,4.28,4.28,0,0,0,4.38,1.77c6.24-1,6.94-.47,9.27,1.18a33.79,33.79,0,0,0,4.29,2.67,19.31,19.31,0,0,0,7.32,1.38,18.23,18.23,0,0,0,8-1.67c2.79-1.6,6.46-5.27,12.07-3.8a5.11,5.11,0,0,0,4.15-.41,5.53,5.53,0,0,0,2.18-3.93c3.19-.65,7.33-1.61,8.7-4.9A4.31,4.31,0,0,0,352.67,252.82ZM349,254.91c-.58,1.39-4.16,2.12-6.08,2.51l-.69.14c-1.68.35-2,2-2.15,2.95a5,5,0,0,1-.36,1.31,2,2,0,0,1-.87-.1c-7.42-1.94-12.47,2.62-15.1,4.17a15.67,15.67,0,0,1-11.64.14,30.58,30.58,0,0,1-3.56-2.26c-3.06-2.16-4.72-3.07-12.3-1.9a1,1,0,0,1-.3,0,4.83,4.83,0,0,1-.49-1.52c-.2-.95-.54-2.52-2.16-2.82l-.15,0c-1.82-.34-5.61-1-6.55-2.48a.45.45,0,0,1-.1-.31s.3-.08.35-.09l3.2-1.26a17.39,17.39,0,0,0,10.62-12.77l.56-2.6h-8.51a2.08,2.08,0,1,1,0-4.15h8.69l-.6-6.5a17,17,0,1,1,33.9,0l-.59,6.5h8.69a2.08,2.08,0,0,1,0,4.15h-8.46l.52,2.5a17.24,17.24,0,0,0,10.62,12.88l3.22,1.25a1.17,1.17,0,0,1,.32.09.33.33,0,0,1,0,.17Z" transform="translate(-282.28 -204.82)"/><path id="Path_2050" data-name="Path 2050" class="cls-2" d="M349,254.91c-.58,1.39-4.16,2.12-6.08,2.51l-.69.14c-1.68.35-2,2.05-2.15,2.95a5.07,5.07,0,0,1-.36,1.32,2.28,2.28,0,0,1-.86-.1c-7.43-2-12.48,2.61-15.1,4.16a15.69,15.69,0,0,1-11.65.14,32.28,32.28,0,0,1-3.56-2.25c-3.05-2.17-4.72-3.07-12.3-1.9a1,1,0,0,1-.3,0,5.1,5.1,0,0,1-.49-1.52c-.2-.94-.54-2.52-2.16-2.82l-.14,0c-1.82-.34-5.62-1-6.56-2.48a.45.45,0,0,1-.1-.31s.3-.08.35-.09l3.21-1.25a17.42,17.42,0,0,0,10.62-12.77l.56-2.6h-8.51a2.08,2.08,0,1,1,0-4.15h8.68l-.59-6.5a17,17,0,1,1,33.9,0l-.59,6.5h8.69a2.08,2.08,0,0,1,0,4.15h-8.46l.52,2.5a17.23,17.23,0,0,0,10.62,12.87l3.22,1.25a1.19,1.19,0,0,1,.32.1A.33.33,0,0,1,349,254.91Z" transform="translate(-282.28 -204.82)"/></g></g></svg>