<svg xmlns="http://www.w3.org/2000/svg" viewBox="0 0 263.38 274.57"><defs><style>.cls-1{fill:#1d1d1b;}.cls-2{fill:#fff;}</style></defs><g id="Layer_2" data-name="Layer 2"><g id="Calque_1" data-name="Calque 1"><g id="Groupe_4880" data-name="Groupe 4880"><path class="cls-1" d="M258.74,14.48l-.17-.17-.18-.17-.16-.16-.17-.18-.18-.17-.17-.17a1.21,1.21,0,0,0-.16-.16l-.16-.17-.18-.18-.18-.17c0-.06-.11-.11-.17-.17l-.16-.16-.19-.19-.15-.15-.18-.18-.16-.16c0-.06-.11-.11-.17-.17l-.16-.17c-.06,0-.11-.11-.17-.17s-.13-.12-.19-.19l-.15-.14-.19-.19-.17-.17-.15-.16-.18-.17-.16-.17-.18-.17L254,9.72l-.15-.16-.18-.17-.17-.18-.17-.16-.17-.17c0-.06-.11-.11-.17-.17l-.17-.17-.16-.17-.19-.18L252.28,8l-.16-.16L252,7.69l-.18-.17-.16-.17-.18-.18a1.21,1.21,0,0,1-.16-.16l-.17-.17-.18-.18-.16-.15-.18-.18-.16-.16A21.34,21.34,0,0,0,235,0H41C30,0,21.12,7.5,21.12,16.74V230.79L0,264.48H.41l-.24.17H.58l-.24.17H.75L.51,265H.92l-.24.17h.41l-.24.17h.41L1,265.5h.4l-.23.17H1.6l-.24.17h.41l-.24.17h.4l-.23.17h.4l-.23.17h.4l-.23.16h.4l-.23.17h.41l-.24.18h.41l-.24.17H3l-.23.17h.4l-.23.17H3.3l-.24.17h.4l-.23.17h.4l-.23.17h.4l-.23.17H4l-.23.17h.4l-.23.17h.4l-.23.16h.4l-.23.17h.4l-.23.17h.4l-.24.17H5l-.24.17h.41l-.24.17h.41l-.23.17h.4l-.23.17h.4l-.24.17h.41l-.24.17H6l-.24.17h.41l-.24.17h.41l-.24.17h.41l-.24.17h.41l-.24.17h.41l-.24.17H7l-.23.17h.4l-.23.17h.4l-.23.17h.4l-.24.17h.41l-.24.17h.41l-.24.17h.41l-.24.17h.41l-.24.17h.4l-.23.17h.4l-.23.17h.41l-.24.17,235,1.6c11,0,19.85-7.5,19.85-16.75V25.23A15.23,15.23,0,0,0,258.74,14.48Z"/><path id="Tracé_11494" data-name="Tracé 11494" class="cls-2" d="M2.3,263.47l19.87-32.06a.87.87,0,0,0,.4-.73V16.89A14.52,14.52,0,0,1,28.05,5.75,20.52,20.52,0,0,1,41.28,1.13H235.36a20.5,20.5,0,0,1,13.23,4.62,14.52,14.52,0,0,1,5.48,11.14v232.3a14.55,14.55,0,0,1-5.48,11.14,20.49,20.49,0,0,1-13.23,4.61Z"/></g></g></g></svg>