<svg id="Layer_1" data-name="Layer 1" xmlns="http://www.w3.org/2000/svg" viewBox="0 0 71.17 71.16"><defs><style>.cls-1{fill:#fff;}.cls-2{fill:#65d56f;}</style></defs><g id="Whatsapp"><g id="Group_880" data-name="Group 880"><g id="Group_798" data-name="Group 798"><path id="Path_2051" data-name="Path 2051" d="M320.68,208.26a32.62,32.62,0,0,0-27.79,49.36l-4.65,15.75L304,268.73a32.58,32.58,0,1,0,17.07-60.46h-.38Zm0,61.27a28.5,28.5,0,0,1-15.38-4.48l-.73-.47-10.68,3.15L297,257.05l-.47-.73a28.78,28.78,0,1,1,24.11,13.21Z" transform="translate(-282.24 -202.26)"/><path id="Path_2052" data-name="Path 2052" class="cls-1" d="M320.68,212.08a28.8,28.8,0,0,0-24.11,44.24l.47.73-3.15,10.68,10.68-3.15.73.47a28.73,28.73,0,1,0,15.42-53Zm20.05,42.39L339.21,256c-2.71,2.71-8.27,2.61-12.06,1.89a28.74,28.74,0,0,1-23.06-23.06,24.26,24.26,0,0,1-.45-4.5c0-3.31.81-6,2.33-7.57l1.51-1.51a4.06,4.06,0,0,1,5.73,0l6.06,6.06a4,4,0,0,1,0,5.72h0l-1.52,1.52a2.39,2.39,0,0,0,0,3.36l0,0,6,6.3a2.7,2.7,0,0,0,3.6,0l1.51-1.52a4.06,4.06,0,0,1,5.73,0l6.06,6.06a4,4,0,0,1,0,5.71h0Z" transform="translate(-282.24 -202.26)"/><path id="Path_2053" data-name="Path 2053" d="M340.73,248.74l-6.06-6.06a4.06,4.06,0,0,0-5.73,0l-1.51,1.52a2.7,2.7,0,0,1-3.6,0l-6-6.3,0,0a2.39,2.39,0,0,1,0-3.36l1.52-1.51a4,4,0,0,0,0-5.72h0l-6.06-6.06a4.07,4.07,0,0,0-5.73,0L306,222.75c-1.52,1.52-2.33,4.25-2.33,7.57a24.16,24.16,0,0,0,.45,4.49,28.73,28.73,0,0,0,23.06,23.06c3.78.72,9.34.83,12.06-1.89l1.51-1.51a4,4,0,0,0,0-5.72h0Zm-2.63,2.86a.21.21,0,0,1-.07.17l-1.51,1.52c-1,1-4.35,1.65-8.66.83a24.93,24.93,0,0,1-20-20c-.82-4.31-.2-7.62.84-8.65,1.58-1.55,1.5-1.59,1.68-1.59a.28.28,0,0,1,.17.07c6.38,6.42,6.12,6,6.12,6.22a.23.23,0,0,1-.07.17l-1.51,1.51a6.19,6.19,0,0,0,0,8.74l6,6.3,0,0a6.49,6.49,0,0,0,9,0l1.51-1.51a.24.24,0,0,1,.33,0h0c6.38,6.42,6.13,6,6.13,6.23Z" transform="translate(-282.24 -202.26)"/><path id="Path_2054" data-name="Path 2054" class="cls-1" d="M338.1,251.6a.21.21,0,0,1-.07.17l-1.51,1.51c-1,1-4.35,1.66-8.66.84a24.94,24.94,0,0,1-20-20c-.82-4.31-.2-7.62.84-8.66,1.58-1.55,1.5-1.58,1.68-1.58a.2.2,0,0,1,.16.07c6.39,6.41,6.13,6,6.13,6.22a.2.2,0,0,1-.07.16l-1.51,1.52a6.19,6.19,0,0,0,0,8.74l6.05,6.3,0,0a6.49,6.49,0,0,0,9,0l1.52-1.51a.22.22,0,0,1,.32,0h0C338.36,251.8,338.1,251.42,338.1,251.6Z" transform="translate(-282.24 -202.26)"/></g><g id="Group_802" data-name="Group 802"><g id="Group_799" data-name="Group 799"><path id="Path_2055" data-name="Path 2055" d="M320.4,208a32.62,32.62,0,0,0-27.8,49.36L288,273.09l15.74-4.65A32.58,32.58,0,1,0,320.78,208Z" transform="translate(-282.24 -202.26)"/><path id="Path_2056" data-name="Path 2056" d="M320.4,269.25A28.5,28.5,0,0,1,305,264.77l-.74-.47-10.68,3.15,3.15-10.68-.47-.74a28.78,28.78,0,1,1,24.11,13.22Z" transform="translate(-282.24 -202.26)"/></g><g id="Group_800" data-name="Group 800"><path id="Path_2057" data-name="Path 2057" class="cls-1" d="M320.4,211.79A28.8,28.8,0,0,0,296.29,256l.47.74-3.15,10.68,10.68-3.15.73.47a28.73,28.73,0,1,0,15.42-53Z" transform="translate(-282.24 -202.26)"/><path id="Path_2058" data-name="Path 2058" class="cls-1" d="M340.44,254.18l-1.51,1.51c-2.71,2.72-8.28,2.61-12.06,1.89a28.73,28.73,0,0,1-23.06-23.06,24.27,24.27,0,0,1-.46-4.5c0-3.31.81-6,2.34-7.57l1.51-1.51a4.06,4.06,0,0,1,5.73,0L319,227a4,4,0,0,1,0,5.72h0l-1.52,1.51a2.39,2.39,0,0,0,0,3.36l0,0,6,6.3a2.7,2.7,0,0,0,3.6,0l1.51-1.52a4.06,4.06,0,0,1,5.73,0l6.06,6.06a4,4,0,0,1,0,5.71h0Z" transform="translate(-282.24 -202.26)"/></g><g id="Group_801" data-name="Group 801"><path id="Path_2059" data-name="Path 2059" d="M340.44,248.46l-6.05-6.06a4.06,4.06,0,0,0-5.73,0l-1.51,1.52a2.69,2.69,0,0,1-3.6,0l-6-6.29,0,0a2.37,2.37,0,0,1,0-3.36l1.51-1.51a4,4,0,0,0,0-5.72h0L312.93,221a4,4,0,0,0-5.72,0l-1.51,1.51c-1.53,1.53-2.34,4.26-2.34,7.57a24.26,24.26,0,0,0,.45,4.5,28.73,28.73,0,0,0,23.06,23c3.79.73,9.35.83,12.07-1.88l1.51-1.52a4,4,0,0,0,0-5.71h0Z" transform="translate(-282.24 -202.26)"/><path id="Path_2060" data-name="Path 2060" d="M337.82,251.32a.28.28,0,0,1-.07.17L336.23,253c-1,1-4.34,1.66-8.65.84a24.94,24.94,0,0,1-20-20c-.82-4.31-.21-7.63.83-8.66,1.59-1.56,1.5-1.58,1.68-1.58a.21.21,0,0,1,.17.07c6.38,6.41,6.12,6,6.12,6.22a.19.19,0,0,1-.06.16l-1.52,1.52a6.17,6.17,0,0,0,0,8.73l6,6.3,0,0a6.5,6.5,0,0,0,9,0l1.51-1.51a.24.24,0,0,1,.33,0h0C338.07,251.51,337.82,251.13,337.82,251.32Z" transform="translate(-282.24 -202.26)"/></g><path id="Path_2061" data-name="Path 2061" class="cls-1" d="M337.82,251.32a.28.28,0,0,1-.07.17L336.23,253c-1,1-4.34,1.66-8.65.84a24.94,24.94,0,0,1-20-20c-.82-4.31-.21-7.63.83-8.66,1.59-1.56,1.5-1.58,1.68-1.58a.24.24,0,0,1,.17.06c6.38,6.42,6.13,6,6.13,6.23a.24.24,0,0,1-.07.16l-1.52,1.52a6.17,6.17,0,0,0,0,8.73l6,6.3,0,0a6.5,6.5,0,0,0,9,0l1.51-1.51a.23.23,0,0,1,.33,0h0C338.07,251.51,337.82,251.13,337.82,251.32Z" transform="translate(-282.24 -202.26)"/></g><g id="Group_806" data-name="Group 806"><g id="Group_803" data-name="Group 803"><path id="Path_2062" data-name="Path 2062" d="M320.11,207.69a32.62,32.62,0,0,0-27.79,49.36l-4.65,15.75,15.75-4.64a32.58,32.58,0,1,0,17.07-60.46h-.38Z" transform="translate(-282.24 -202.26)"/><path id="Path_2063" data-name="Path 2063" d="M320.11,269a28.5,28.5,0,0,1-15.38-4.48L304,264l-10.68,3.15,3.15-10.68-.46-.73A28.78,28.78,0,1,1,320.11,269Z" transform="translate(-282.24 -202.26)"/></g><g id="Group_804" data-name="Group 804"><path id="Path_2064" data-name="Path 2064" class="cls-1" d="M320.12,211.51A28.81,28.81,0,0,0,296,255.75l.47.73-3.15,10.68L304,264l.73.47a28.73,28.73,0,1,0,15.42-53Z" transform="translate(-282.24 -202.26)"/><path id="Path_2065" data-name="Path 2065" class="cls-1" d="M340.16,253.9l-1.52,1.51c-2.71,2.71-8.27,2.61-12.06,1.89a28.76,28.76,0,0,1-23.06-23.06,24.26,24.26,0,0,1-.45-4.5c0-3.32.81-6.05,2.33-7.57l1.52-1.51a4,4,0,0,1,5.72,0l6.06,6.05a4.05,4.05,0,0,1,0,5.72h0L317.18,234a2.39,2.39,0,0,0,0,3.36s0,0,0,0l6,6.29a2.69,2.69,0,0,0,3.6,0l1.52-1.51a4.06,4.06,0,0,1,5.73,0l6,6a4,4,0,0,1,0,5.72h0Z" transform="translate(-282.24 -202.26)"/></g><g id="Group_805" data-name="Group 805"><path id="Path_2066" data-name="Path 2066" d="M340.16,248.17l-6.06-6.06a4.06,4.06,0,0,0-5.73,0l-1.51,1.52a2.7,2.7,0,0,1-3.6,0l-6-6.3,0,0a2.39,2.39,0,0,1,0-3.36l1.52-1.52a4,4,0,0,0,0-5.72h0l-6.06-6.06a4.06,4.06,0,0,0-5.73,0l-1.51,1.51c-1.52,1.53-2.34,4.26-2.34,7.57a24.27,24.27,0,0,0,.46,4.5,28.73,28.73,0,0,0,23.06,23.06c3.78.72,9.34.83,12.06-1.89l1.51-1.51a4,4,0,0,0,0-5.71h0Z" transform="translate(-282.24 -202.26)"/><path id="Path_2067" data-name="Path 2067" d="M337.53,251a.22.22,0,0,1-.07.17L336,252.71c-1,1-4.35,1.66-8.65.84a24.93,24.93,0,0,1-20-20c-.83-4.31-.21-7.62.83-8.65,1.58-1.57,1.5-1.59,1.68-1.59a.23.23,0,0,1,.17.07c6.38,6.42,6.12,6,6.12,6.22a.23.23,0,0,1-.06.16l-1.52,1.52a6.19,6.19,0,0,0,0,8.74l6,6.3,0,0a6.49,6.49,0,0,0,9,0l1.52-1.51a.24.24,0,0,1,.33,0h0C337.79,251.23,337.53,250.85,337.53,251Z" transform="translate(-282.24 -202.26)"/></g><path id="Path_2068" data-name="Path 2068" class="cls-1" d="M337.53,251a.2.2,0,0,1-.07.16L336,252.72c-1,1-4.35,1.65-8.66.83a24.93,24.93,0,0,1-20-20c-.82-4.31-.2-7.62.84-8.65,1.58-1.56,1.5-1.59,1.68-1.59a.28.28,0,0,1,.17.07c6.38,6.42,6.12,6,6.12,6.22a.27.27,0,0,1-.06.17l-1.52,1.51a6.19,6.19,0,0,0,0,8.74l6,6.3,0,0a6.51,6.51,0,0,0,9,0l1.52-1.52a.24.24,0,0,1,.33,0h0C337.79,251.23,337.53,250.85,337.53,251Z" transform="translate(-282.24 -202.26)"/></g><g id="Group_810" data-name="Group 810"><g id="Group_807" data-name="Group 807"><path id="Path_2069" data-name="Path 2069" d="M319.82,207.41A32.62,32.62,0,0,0,292,256.77l-4.64,15.75,15.74-4.65a32.58,32.58,0,1,0,17.08-60.46Z" transform="translate(-282.24 -202.26)"/><path id="Path_2070" data-name="Path 2070" d="M319.82,268.68a28.42,28.42,0,0,1-15.38-4.49l-.73-.46L293,266.88l3.15-10.68-.47-.74a28.78,28.78,0,1,1,24.11,13.22Z" transform="translate(-282.24 -202.26)"/></g><g id="Group_808" data-name="Group 808"><path id="Path_2071" data-name="Path 2071" class="cls-1" d="M319.83,211.22a28.8,28.8,0,0,0-24.11,44.24l.46.73L293,266.87l10.68-3.15.74.47a28.73,28.73,0,1,0,15.42-53Z" transform="translate(-282.24 -202.26)"/><path id="Path_2072" data-name="Path 2072" class="cls-1" d="M339.87,253.61l-1.51,1.52c-2.72,2.71-8.28,2.61-12.07,1.88A28.73,28.73,0,0,1,303.24,234a23.35,23.35,0,0,1-.46-4.49c0-3.32.81-6.05,2.34-7.57l1.51-1.51a4,4,0,0,1,5.72,0l6.06,6.05a4,4,0,0,1,0,5.72h0l-1.51,1.51a2.37,2.37,0,0,0,0,3.36l0,0,6,6.29a2.69,2.69,0,0,0,3.6,0l1.51-1.51a4.06,4.06,0,0,1,5.73,0l6.05,6.06a4,4,0,0,1,0,5.71h0Z" transform="translate(-282.24 -202.26)"/></g><g id="Group_809" data-name="Group 809"><path id="Path_2073" data-name="Path 2073" d="M339.87,247.88l-6.05-6a4.06,4.06,0,0,0-5.73,0l-1.51,1.51a2.69,2.69,0,0,1-3.6,0l-6-6.29,0,0a2.37,2.37,0,0,1,0-3.36l1.51-1.51a4,4,0,0,0,0-5.72h0l-6.06-6.05a4,4,0,0,0-5.72,0l-1.51,1.51c-1.53,1.52-2.34,4.25-2.34,7.57a24.16,24.16,0,0,0,.45,4.49A28.74,28.74,0,0,0,326.3,257c3.79.72,9.35.83,12.07-1.88l1.51-1.52a4,4,0,0,0,0-5.71h0Z" transform="translate(-282.24 -202.26)"/><path id="Path_2074" data-name="Path 2074" d="M337.24,250.74a.24.24,0,0,1-.06.17l-1.52,1.51c-1,1-4.35,1.66-8.65.84a24.93,24.93,0,0,1-20-20c-.83-4.31-.21-7.62.83-8.65,1.59-1.56,1.5-1.59,1.68-1.59a.28.28,0,0,1,.17.07c6.38,6.42,6.12,6,6.12,6.22a.2.2,0,0,1-.07.16L314.21,231a6.2,6.2,0,0,0,0,8.74l6.05,6.3,0,0a6.49,6.49,0,0,0,9,0l1.52-1.51a.24.24,0,0,1,.33,0h0C337.5,250.94,337.24,250.56,337.24,250.74Z" transform="translate(-282.24 -202.26)"/></g><path id="Path_2075" data-name="Path 2075" class="cls-1" d="M337.24,250.75a.2.2,0,0,1-.07.16l-1.51,1.52c-1,1-4.35,1.65-8.65.83a24.92,24.92,0,0,1-20-20c-.82-4.31-.21-7.62.83-8.65,1.59-1.56,1.5-1.59,1.68-1.59a.28.28,0,0,1,.17.07c6.38,6.42,6.12,6,6.12,6.22a.27.27,0,0,1-.06.17L314.21,231a6.19,6.19,0,0,0,0,8.74l6,6.3,0,0a6.52,6.52,0,0,0,9,0l1.5-1.52a.24.24,0,0,1,.33,0h0C337.5,250.94,337.24,250.56,337.24,250.75Z" transform="translate(-282.24 -202.26)"/></g><g id="Group_814" data-name="Group 814"><g id="Group_811" data-name="Group 811"><path id="Path_2076" data-name="Path 2076" d="M319.54,207.12a32.61,32.61,0,0,0-27.79,49.36l-4.65,15.75,15.75-4.65a32.57,32.57,0,1,0,17.07-60.46Z" transform="translate(-282.24 -202.26)"/><path id="Path_2077" data-name="Path 2077" d="M319.54,268.39a28.5,28.5,0,0,1-15.38-4.48l-.74-.47-10.68,3.15,3.15-10.68-.46-.74a28.77,28.77,0,1,1,24.11,13.22Z" transform="translate(-282.24 -202.26)"/></g><g id="Group_812" data-name="Group 812"><path id="Path_2078" data-name="Path 2078" class="cls-1" d="M319.54,210.94a28.81,28.81,0,0,0-24.12,44.24l.47.73-3.15,10.68,10.68-3.15.74.47a28.73,28.73,0,1,0,15.42-53h0Z" transform="translate(-282.24 -202.26)"/><path id="Path_2079" data-name="Path 2079" class="cls-1" d="M339.58,253.33l-1.51,1.51c-2.71,2.71-8.28,2.61-12.06,1.89A28.74,28.74,0,0,1,303,233.67a24.26,24.26,0,0,1-.45-4.5c0-3.31.81-6,2.33-7.57l1.51-1.51a4.06,4.06,0,0,1,5.73,0l6.05,6.06a4,4,0,0,1,0,5.72h0l-1.51,1.51a2.39,2.39,0,0,0,0,3.36l0,0,6,6.3a2.7,2.7,0,0,0,3.6,0l1.51-1.52a4.06,4.06,0,0,1,5.73,0l6.06,6.06a4,4,0,0,1,0,5.72Z" transform="translate(-282.24 -202.26)"/></g><g id="Group_813" data-name="Group 813"><path id="Path_2080" data-name="Path 2080" d="M339.58,247.6l-6.05-6.06a4.06,4.06,0,0,0-5.73,0l-1.51,1.52a2.7,2.7,0,0,1-3.6,0l-6-6.3,0,0a2.37,2.37,0,0,1,0-3.36l1.51-1.52a4,4,0,0,0,0-5.72h0l-6.05-6.06a4.06,4.06,0,0,0-5.73,0l-1.51,1.51c-1.53,1.53-2.34,4.26-2.34,7.57a23.45,23.45,0,0,0,.46,4.5A28.73,28.73,0,0,0,326,256.72c3.79.73,9.35.84,12.07-1.88l1.51-1.52a4,4,0,0,0,0-5.71h0Z" transform="translate(-282.24 -202.26)"/><path id="Path_2081" data-name="Path 2081" d="M337,250.46a.23.23,0,0,1-.07.17l-1.51,1.51c-1,1-4.35,1.66-8.66.84a24.94,24.94,0,0,1-20-20c-.82-4.31-.2-7.62.84-8.66,1.58-1.56,1.5-1.58,1.68-1.58a.27.27,0,0,1,.17.06c6.38,6.42,6.12,6,6.12,6.22a.21.21,0,0,1-.07.17l-1.51,1.51a6.19,6.19,0,0,0,0,8.74l6,6.3,0,0a6.49,6.49,0,0,0,9,0l1.52-1.51a.24.24,0,0,1,.33,0h0C337.22,250.65,337,250.28,337,250.46Z" transform="translate(-282.24 -202.26)"/></g><path id="Path_2082" data-name="Path 2082" class="cls-1" d="M337,250.46a.21.21,0,0,1-.07.17l-1.51,1.51c-1,1-4.35,1.66-8.66.84a24.94,24.94,0,0,1-20-20c-.82-4.31-.2-7.62.84-8.65,1.58-1.56,1.5-1.59,1.68-1.59a.28.28,0,0,1,.17.07c6.38,6.42,6.12,6,6.12,6.22a.2.2,0,0,1-.07.16l-1.51,1.52a6.19,6.19,0,0,0,0,8.74l6,6.3s0,0,0,0a6.49,6.49,0,0,0,9,0l1.52-1.51a.24.24,0,0,1,.33,0h0C337.22,250.66,337,250.28,337,250.46Z" transform="translate(-282.24 -202.26)"/></g><g id="Group_818" data-name="Group 818"><g id="Group_815" data-name="Group 815"><path id="Path_2083" data-name="Path 2083" d="M319.25,206.84a32.62,32.62,0,0,0-27.79,49.35l-4.64,15.75,15.74-4.64a32.58,32.58,0,1,0,17.08-60.46Z" transform="translate(-282.24 -202.26)"/><path id="Path_2084" data-name="Path 2084" d="M319.25,268.11a28.5,28.5,0,0,1-15.38-4.48l-.73-.47-10.68,3.15,3.15-10.68-.47-.74a28.78,28.78,0,1,1,24.11,13.22Z" transform="translate(-282.24 -202.26)"/></g><g id="Group_816" data-name="Group 816"><path id="Path_2085" data-name="Path 2085" class="cls-1" d="M319.26,210.65a28.8,28.8,0,0,0-24.12,44.24l.47.73-3.15,10.69,10.68-3.15.73.46a28.73,28.73,0,1,0,15.42-53Z" transform="translate(-282.24 -202.26)"/><path id="Path_2086" data-name="Path 2086" class="cls-1" d="M339.3,253l-1.51,1.51c-2.72,2.72-8.28,2.61-12.07,1.89a28.72,28.72,0,0,1-23.05-23.06,23.45,23.45,0,0,1-.46-4.5c0-3.31.81-6,2.34-7.57l1.51-1.51a4,4,0,0,1,5.72,0l6.06,6a4.06,4.06,0,0,1,0,5.73h0l-1.51,1.51a2.37,2.37,0,0,0,0,3.36l0,0,6,6.3a2.7,2.7,0,0,0,3.6,0l1.51-1.52a4.06,4.06,0,0,1,5.73,0l6.05,6.06a4,4,0,0,1,0,5.72h0Z" transform="translate(-282.24 -202.26)"/></g><g id="Group_817" data-name="Group 817"><path id="Path_2087" data-name="Path 2087" d="M339.3,247.31l-6.06-6.05a4,4,0,0,0-5.72,0L326,242.77a2.68,2.68,0,0,1-3.6,0l-6-6.29,0,0a2.39,2.39,0,0,1,0-3.36l1.52-1.51a4,4,0,0,0,0-5.72h0l-6.06-6.06a4.06,4.06,0,0,0-5.72,0l-1.52,1.52c-1.52,1.52-2.33,4.25-2.33,7.57a24.16,24.16,0,0,0,.45,4.49,28.73,28.73,0,0,0,23.06,23.06c3.79.72,9.35.83,12.06-1.89l1.52-1.51a4,4,0,0,0,0-5.71h0Z" transform="translate(-282.24 -202.26)"/><path id="Path_2088" data-name="Path 2088" d="M336.67,250.18a.23.23,0,0,1-.06.16l-1.52,1.52c-1,1-4.35,1.66-8.65.84a24.93,24.93,0,0,1-20-20c-.83-4.31-.21-7.63.83-8.66,1.59-1.56,1.5-1.58,1.68-1.58a.27.27,0,0,1,.17.06c6.38,6.42,6.12,6,6.12,6.22a.24.24,0,0,1-.06.17l-1.52,1.52a6.17,6.17,0,0,0,0,8.73l6,6.3,0,0a6.5,6.5,0,0,0,9,0l1.51-1.51a.24.24,0,0,1,.33,0h0C336.93,250.37,336.67,250,336.67,250.18Z" transform="translate(-282.24 -202.26)"/></g><path id="Path_2089" data-name="Path 2089" class="cls-1" d="M336.67,250.18a.19.19,0,0,1-.06.16l-1.52,1.52c-1,1-4.34,1.66-8.65.84a24.93,24.93,0,0,1-20-20c-.83-4.32-.21-7.63.83-8.66,1.59-1.56,1.5-1.58,1.68-1.58a.27.27,0,0,1,.17.06c6.38,6.42,6.12,6,6.12,6.22a.24.24,0,0,1-.06.17l-1.52,1.51a6.19,6.19,0,0,0,0,8.74l6,6.3,0,0a6.5,6.5,0,0,0,9,0l1.51-1.51a.23.23,0,0,1,.33,0h0C336.93,250.37,336.67,250,336.67,250.18Z" transform="translate(-282.24 -202.26)"/></g><g id="Group_822" data-name="Group 822"><g id="Group_819" data-name="Group 819"><path id="Path_2090" data-name="Path 2090" d="M319,206.55a32.62,32.62,0,0,0-27.79,49.36l-4.65,15.75L302.28,267a32.57,32.57,0,1,0,17.07-60.46Z" transform="translate(-282.24 -202.26)"/><path id="Path_2091" data-name="Path 2091" d="M319,267.82a28.5,28.5,0,0,1-15.38-4.48l-.74-.47L292.17,266l3.15-10.68-.47-.74A28.78,28.78,0,1,1,319,267.82Z" transform="translate(-282.24 -202.26)"/></g><g id="Group_820" data-name="Group 820"><path id="Path_2092" data-name="Path 2092" class="cls-1" d="M319,210.37a28.8,28.8,0,0,0-24.11,44.24l.46.73L292.17,266l10.68-3.15.74.47a28.73,28.73,0,1,0,15.42-53h0Z" transform="translate(-282.24 -202.26)"/><path id="Path_2093" data-name="Path 2093" class="cls-1" d="M339,252.76l-1.52,1.51c-2.71,2.71-8.28,2.61-12.06,1.89a28.74,28.74,0,0,1-23.06-23.06,24.26,24.26,0,0,1-.45-4.5c0-3.31.81-6,2.33-7.57l1.52-1.51a4,4,0,0,1,5.72,0l6.06,6a4.06,4.06,0,0,1,0,5.73h0L316,232.81a2.4,2.4,0,0,0,0,3.37l0,0,6,6.3a2.7,2.7,0,0,0,3.6,0l1.52-1.52a4.06,4.06,0,0,1,5.73,0L339,247a4,4,0,0,1,0,5.71h0Z" transform="translate(-282.24 -202.26)"/></g><g id="Group_821" data-name="Group 821"><path id="Path_2094" data-name="Path 2094" d="M339,247,333,241a4.06,4.06,0,0,0-5.73,0l-1.51,1.52a2.69,2.69,0,0,1-3.6,0l-6-6.29,0,0a2.37,2.37,0,0,1,0-3.36l1.51-1.51a4,4,0,0,0,0-5.72h0l-6.06-6a4,4,0,0,0-5.72,0L304.27,221c-1.53,1.52-2.34,4.25-2.34,7.57a23.45,23.45,0,0,0,.46,4.5,28.74,28.74,0,0,0,23.05,23.06c3.79.72,9.35.83,12.07-1.89l1.51-1.51a4.05,4.05,0,0,0,0-5.72h0Z" transform="translate(-282.24 -202.26)"/><path id="Path_2095" data-name="Path 2095" d="M336.39,249.89a.28.28,0,0,1-.07.17l-1.52,1.51c-1,1-4.34,1.66-8.65.84a24.94,24.94,0,0,1-20-20c-.82-4.31-.21-7.63.84-8.66,1.58-1.56,1.5-1.58,1.68-1.58a.23.23,0,0,1,.16.06c6.39,6.42,6.13,6,6.13,6.23a.2.2,0,0,1-.07.16l-1.51,1.52a6.17,6.17,0,0,0,0,8.73l6,6.3,0,0a6.5,6.5,0,0,0,9,0l1.51-1.51a.24.24,0,0,1,.33,0h0C336.64,250.08,336.39,249.7,336.39,249.89Z" transform="translate(-282.24 -202.26)"/></g><path id="Path_2096" data-name="Path 2096" class="cls-1" d="M336.39,249.89a.28.28,0,0,1-.07.17l-1.52,1.51c-1,1-4.34,1.66-8.65.84a24.94,24.94,0,0,1-20-20c-.82-4.31-.21-7.62.84-8.66,1.58-1.56,1.5-1.58,1.68-1.58a.2.2,0,0,1,.16.07c6.38,6.41,6.13,6,6.13,6.22a.2.2,0,0,1-.07.16l-1.51,1.52a6.17,6.17,0,0,0,0,8.73l6,6.3,0,0a6.5,6.5,0,0,0,9,0l1.51-1.51a.24.24,0,0,1,.33,0h0C336.64,250.08,336.39,249.71,336.39,249.89Z" transform="translate(-282.24 -202.26)"/></g><g id="Group_826" data-name="Group 826"><g id="Group_823" data-name="Group 823"><path id="Path_2097" data-name="Path 2097" d="M318.68,206.27a32.62,32.62,0,0,0-27.79,49.35l-4.65,15.75L302,266.73a32.58,32.58,0,1,0,17.07-60.46Z" transform="translate(-282.24 -202.26)"/><path id="Path_2098" data-name="Path 2098" d="M318.68,267.53a28.5,28.5,0,0,1-15.38-4.48l-.73-.47-10.68,3.16L295,255.05l-.47-.73a28.75,28.75,0,1,1,24.11,13.22Z" transform="translate(-282.24 -202.26)"/></g><g id="Group_824" data-name="Group 824"><path id="Path_2099" data-name="Path 2099" class="cls-1" d="M318.68,210.08a28.8,28.8,0,0,0-24.11,44.24l.47.73-3.16,10.69,10.68-3.15.74.47a28.73,28.73,0,1,0,15.42-53h0Z" transform="translate(-282.24 -202.26)"/><path id="Path_2100" data-name="Path 2100" class="cls-1" d="M338.73,252.47,337.22,254c-2.72,2.72-8.28,2.61-12.07,1.89a28.74,28.74,0,0,1-23.06-23.06,24.16,24.16,0,0,1-.45-4.49c0-3.32.81-6,2.34-7.57l1.51-1.52a4.06,4.06,0,0,1,5.72,0l6.06,6.06a4,4,0,0,1,0,5.72h0l-1.51,1.51a2.37,2.37,0,0,0,0,3.36l0,0,6,6.29a2.69,2.69,0,0,0,3.6,0l1.52-1.51a4,4,0,0,1,5.72,0l6.06,6.05a4,4,0,0,1,0,5.72h0Z" transform="translate(-282.24 -202.26)"/></g><g id="Group_825" data-name="Group 825"><path id="Path_2101" data-name="Path 2101" d="M338.73,246.74l-6.06-6.05a4.06,4.06,0,0,0-5.73,0l-1.51,1.51a2.69,2.69,0,0,1-3.6,0l-6-6.29,0,0a2.39,2.39,0,0,1,0-3.36l1.52-1.51a4,4,0,0,0,0-5.72h0l-6.06-6a4,4,0,0,0-5.72,0L304,220.75c-1.52,1.52-2.33,4.25-2.33,7.57a24.16,24.16,0,0,0,.45,4.49,28.74,28.74,0,0,0,23.06,23.06c3.79.72,9.35.83,12.06-1.89l1.52-1.51a4,4,0,0,0,0-5.71h0Z" transform="translate(-282.24 -202.26)"/><path id="Path_2102" data-name="Path 2102" d="M336.1,249.61a.2.2,0,0,1-.07.16l-1.51,1.51c-1,1-4.35,1.66-8.65.84a24.93,24.93,0,0,1-20-20c-.83-4.31-.21-7.62.83-8.65,1.59-1.57,1.5-1.59,1.68-1.59a.23.23,0,0,1,.17.07c6.38,6.42,6.12,6,6.12,6.22a.23.23,0,0,1-.06.16l-1.52,1.52a6.19,6.19,0,0,0,0,8.74l6,6.3,0,0a6.49,6.49,0,0,0,9,0l1.52-1.51a.24.24,0,0,1,.33,0h0C336.36,249.8,336.1,249.42,336.1,249.61Z" transform="translate(-282.24 -202.26)"/></g><path id="Path_2103" data-name="Path 2103" class="cls-1" d="M336.1,249.61a.23.23,0,0,1-.06.16l-1.52,1.52c-1,1-4.34,1.65-8.65.83a24.93,24.93,0,0,1-20-20c-.83-4.31-.21-7.62.83-8.65,1.59-1.56,1.5-1.59,1.68-1.59a.23.23,0,0,1,.17.07c6.38,6.42,6.12,6,6.12,6.22a.23.23,0,0,1-.06.16l-1.52,1.52a6.19,6.19,0,0,0,0,8.74l6,6.3,0,0a6.49,6.49,0,0,0,9,0l1.52-1.51a.24.24,0,0,1,.33,0h0C336.36,249.8,336.1,249.42,336.1,249.61Z" transform="translate(-282.24 -202.26)"/></g><g id="Group_830" data-name="Group 830"><g id="Group_827" data-name="Group 827"><path id="Path_2104" data-name="Path 2104" d="M318.4,206a32.62,32.62,0,0,0-27.8,49.36L286,271.09l15.75-4.65A32.58,32.58,0,1,0,318.78,206Z" transform="translate(-282.24 -202.26)"/><path id="Path_2105" data-name="Path 2105" d="M318.4,267.25A28.48,28.48,0,0,1,303,262.76l-.73-.47-10.68,3.16,3.15-10.69-.47-.73a28.76,28.76,0,1,1,24.12,13.22Z" transform="translate(-282.24 -202.26)"/></g><g id="Group_828" data-name="Group 828"><path id="Path_2106" data-name="Path 2106" class="cls-1" d="M318.39,209.79A28.8,28.8,0,0,0,294.28,254l.47.73-3.15,10.69,10.68-3.15.73.46a28.73,28.73,0,1,0,15.42-53h0Z" transform="translate(-282.24 -202.26)"/><path id="Path_2107" data-name="Path 2107" class="cls-1" d="M338.44,252.18l-1.51,1.51c-2.72,2.72-8.28,2.61-12.07,1.89a28.73,28.73,0,0,1-23.05-23.06,23.45,23.45,0,0,1-.46-4.5c0-3.31.81-6,2.34-7.57l1.51-1.51a4,4,0,0,1,5.72,0L317,225a4,4,0,0,1,0,5.72h0l-1.51,1.51a2.37,2.37,0,0,0,0,3.36l0,0,6,6.3a2.69,2.69,0,0,0,3.6,0l1.51-1.52a4.06,4.06,0,0,1,5.73,0l6.05,6.06a4,4,0,0,1,0,5.72h0Z" transform="translate(-282.24 -202.26)"/></g><g id="Group_829" data-name="Group 829"><path id="Path_2108" data-name="Path 2108" d="M338.44,246.46l-6.05-6.06a4.06,4.06,0,0,0-5.73,0l-1.51,1.51a2.68,2.68,0,0,1-3.6,0l-6-6.29,0,0a2.37,2.37,0,0,1,0-3.36l1.51-1.51a4,4,0,0,0,0-5.72h0L310.93,219a4,4,0,0,0-5.72,0l-1.51,1.51c-1.53,1.52-2.34,4.25-2.34,7.57a24.26,24.26,0,0,0,.45,4.5,28.76,28.76,0,0,0,23.06,23.06c3.79.72,9.35.83,12.07-1.89l1.51-1.51a4.05,4.05,0,0,0,0-5.72h0Z" transform="translate(-282.24 -202.26)"/><path id="Path_2109" data-name="Path 2109" d="M335.82,249.32a.24.24,0,0,1-.07.16L334.23,251c-1,1-4.34,1.65-8.65.83a24.92,24.92,0,0,1-20-20c-.82-4.31-.21-7.62.84-8.65,1.58-1.56,1.5-1.59,1.67-1.59a.24.24,0,0,1,.17.07c6.38,6.42,6.12,6,6.12,6.22a.22.22,0,0,1-.06.17l-1.52,1.51a6.19,6.19,0,0,0,0,8.74l6,6.3,0,0a6.52,6.52,0,0,0,9,0l1.51-1.52a.24.24,0,0,1,.33,0h0C336.07,249.51,335.82,249.13,335.82,249.32Z" transform="translate(-282.24 -202.26)"/></g><path id="Path_2110" data-name="Path 2110" class="cls-1" d="M335.82,249.32a.24.24,0,0,1-.07.16L334.23,251c-1,1-4.34,1.66-8.65.84a24.94,24.94,0,0,1-20-20c-.82-4.31-.21-7.63.84-8.66,1.58-1.56,1.5-1.58,1.67-1.58a.24.24,0,0,1,.17.06c6.38,6.42,6.13,6,6.13,6.22a.24.24,0,0,1-.07.17l-1.51,1.52a6.17,6.17,0,0,0,0,8.73l6,6.3,0,0a6.5,6.5,0,0,0,9,0l1.51-1.51a.24.24,0,0,1,.33,0h0C336.07,249.51,335.82,249.13,335.82,249.32Z" transform="translate(-282.24 -202.26)"/></g><g id="Group_834" data-name="Group 834"><g id="Group_831" data-name="Group 831"><path id="Path_2111" data-name="Path 2111" d="M318.11,205.69a32.62,32.62,0,0,0-27.79,49.36l-4.65,15.75,15.75-4.65a32.57,32.57,0,1,0,17.07-60.45h-.38Z" transform="translate(-282.24 -202.26)"/><path id="Path_2112" data-name="Path 2112" d="M318.11,267a28.5,28.5,0,0,1-15.38-4.48L302,262l-10.68,3.15,3.15-10.68-.46-.73A28.78,28.78,0,1,1,318.11,267Z" transform="translate(-282.24 -202.26)"/></g><g id="Group_832" data-name="Group 832"><path id="Path_2113" data-name="Path 2113" class="cls-1" d="M318.11,209.51A28.79,28.79,0,0,0,294,253.74l.47.74-3.15,10.68L302,262l.74.47a28.73,28.73,0,1,0,15.42-53h0Z" transform="translate(-282.24 -202.26)"/><path id="Path_2114" data-name="Path 2114" class="cls-1" d="M338.15,251.9l-1.51,1.51c-2.71,2.71-8.28,2.61-12.06,1.89a28.74,28.74,0,0,1-23.06-23.06,24.26,24.26,0,0,1-.45-4.5c0-3.31.81-6,2.33-7.57l1.51-1.51a4.06,4.06,0,0,1,5.73,0l6.06,6.06a4,4,0,0,1,0,5.72h0L315.18,232a2.39,2.39,0,0,0,0,3.36l0,0,6,6.3a2.7,2.7,0,0,0,3.6,0l1.51-1.52a4.06,4.06,0,0,1,5.73,0l6.05,6.06a4,4,0,0,1,0,5.72h0Z" transform="translate(-282.24 -202.26)"/></g><g id="Group_833" data-name="Group 833"><path id="Path_2115" data-name="Path 2115" d="M338.15,246.17l-6-6.06a4.06,4.06,0,0,0-5.73,0l-1.51,1.52a2.7,2.7,0,0,1-3.6,0l-6-6.3,0,0a2.37,2.37,0,0,1,0-3.36l1.52-1.52a4,4,0,0,0,0-5.72h0l-6.06-6.06a4.06,4.06,0,0,0-5.73,0l-1.51,1.51c-1.52,1.53-2.33,4.26-2.33,7.57a24.26,24.26,0,0,0,.45,4.5,28.74,28.74,0,0,0,23.06,23.06c3.78.72,9.34.83,12.06-1.89l1.51-1.51a4,4,0,0,0,0-5.72h0Z" transform="translate(-282.24 -202.26)"/><path id="Path_2116" data-name="Path 2116" d="M335.53,249a.22.22,0,0,1-.07.17L334,250.71c-1,1-4.35,1.66-8.66.84a24.94,24.94,0,0,1-20-20c-.82-4.31-.2-7.62.84-8.65,1.58-1.57,1.5-1.59,1.68-1.59a.2.2,0,0,1,.16.07c6.38,6.42,6.13,6,6.13,6.22a.24.24,0,0,1-.07.16l-1.51,1.52a6.19,6.19,0,0,0,0,8.74l6,6.3,0,0a6.5,6.5,0,0,0,9,0l1.51-1.51a.24.24,0,0,1,.33,0h0C335.78,249.23,335.53,248.85,335.53,249Z" transform="translate(-282.24 -202.26)"/></g><path id="Path_2117" data-name="Path 2117" class="cls-1" d="M335.53,249a.2.2,0,0,1-.07.16L334,250.72c-1,1-4.35,1.65-8.66.83a24.93,24.93,0,0,1-20-20c-.82-4.31-.2-7.62.84-8.65,1.58-1.56,1.5-1.59,1.68-1.59a.28.28,0,0,1,.17.07c6.38,6.42,6.12,6,6.12,6.22a.2.2,0,0,1-.07.16l-1.51,1.52a6.2,6.2,0,0,0,0,8.74l6,6.3,0,0a6.49,6.49,0,0,0,9,0l1.51-1.51a.24.24,0,0,1,.33,0h0C335.79,249.23,335.53,248.85,335.53,249Z" transform="translate(-282.24 -202.26)"/></g><g id="Group_838" data-name="Group 838"><g id="Group_835" data-name="Group 835"><path id="Path_2118" data-name="Path 2118" d="M317.82,205.41A32.62,32.62,0,0,0,290,254.77l-4.64,15.75,15.74-4.65a32.58,32.58,0,1,0,17.07-60.46Z" transform="translate(-282.24 -202.26)"/><path id="Path_2119" data-name="Path 2119" d="M317.82,266.68a28.53,28.53,0,0,1-15.38-4.49l-.73-.47L291,264.87l3.15-10.68-.47-.73a28.75,28.75,0,1,1,24.11,13.22Z" transform="translate(-282.24 -202.26)"/></g><g id="Group_836" data-name="Group 836"><path id="Path_2120" data-name="Path 2120" class="cls-1" d="M317.82,209.22a28.8,28.8,0,0,0-24.11,44.24l.46.73L291,264.87l10.68-3.15.74.47a28.72,28.72,0,1,0,15.42-53Z" transform="translate(-282.24 -202.26)"/><path id="Path_2121" data-name="Path 2121" class="cls-1" d="M337.87,251.61l-1.51,1.51c-2.72,2.72-8.28,2.61-12.07,1.89A28.74,28.74,0,0,1,301.23,232a24.16,24.16,0,0,1-.45-4.49c0-3.32.81-6.05,2.34-7.57l1.51-1.51a4,4,0,0,1,5.72,0l6.06,6.05a4,4,0,0,1,0,5.72h0l-1.51,1.51a2.37,2.37,0,0,0,0,3.36l0,0,6,6.29a2.69,2.69,0,0,0,3.6,0l1.51-1.51a4.06,4.06,0,0,1,5.73,0l6.05,6a4,4,0,0,1,0,5.72h0Z" transform="translate(-282.24 -202.26)"/></g><g id="Group_837" data-name="Group 837"><path id="Path_2122" data-name="Path 2122" d="M337.87,245.89l-6.06-6.06a4,4,0,0,0-5.72,0l-1.52,1.51a2.68,2.68,0,0,1-3.6,0l-6-6.29,0,0a2.37,2.37,0,0,1,0-3.36l1.51-1.51a4.05,4.05,0,0,0,0-5.72h0l-6.06-6.05a4,4,0,0,0-5.72,0l-1.52,1.51c-1.52,1.52-2.33,4.25-2.33,7.57a24.16,24.16,0,0,0,.45,4.49A28.74,28.74,0,0,0,324.3,255c3.79.72,9.35.83,12.07-1.89l1.51-1.51a4,4,0,0,0,0-5.71h0Z" transform="translate(-282.24 -202.26)"/><path id="Path_2123" data-name="Path 2123" d="M335.24,248.75a.19.19,0,0,1-.06.16l-1.52,1.52c-1,1-4.34,1.65-8.65.84a24.94,24.94,0,0,1-20-20c-.82-4.32-.21-7.63.83-8.66,1.59-1.56,1.5-1.58,1.68-1.58a.21.21,0,0,1,.17.06c6.38,6.42,6.12,6,6.12,6.22a.22.22,0,0,1-.06.17L312.21,229a6.19,6.19,0,0,0,0,8.74l6,6.3,0,0a6.52,6.52,0,0,0,9,0l1.51-1.52a.24.24,0,0,1,.33,0h0C335.5,248.93,335.24,248.56,335.24,248.75Z" transform="translate(-282.24 -202.26)"/></g><path id="Path_2124" data-name="Path 2124" class="cls-1" d="M335.24,248.75a.19.19,0,0,1-.06.16l-1.52,1.52c-1,1-4.34,1.65-8.65.84a24.93,24.93,0,0,1-20-20c-.82-4.32-.21-7.63.83-8.66,1.59-1.56,1.5-1.58,1.68-1.58a.24.24,0,0,1,.17.06c6.38,6.42,6.12,6,6.12,6.22a.2.2,0,0,1-.06.17L312.21,229a6.19,6.19,0,0,0,0,8.74l6,6.3,0,0a6.5,6.5,0,0,0,9,0l1.51-1.51a.22.22,0,0,1,.33,0h0C335.5,248.93,335.24,248.56,335.24,248.75Z" transform="translate(-282.24 -202.26)"/></g><g id="Group_842" data-name="Group 842"><g id="Group_839" data-name="Group 839"><path id="Path_2125" data-name="Path 2125" d="M317.54,205.12a32.62,32.62,0,0,0-27.79,49.36l-4.65,15.75,15.75-4.65a32.57,32.57,0,1,0,17.07-60.46Z" transform="translate(-282.24 -202.26)"/><path id="Path_2126" data-name="Path 2126" d="M317.54,266.39a28.5,28.5,0,0,1-15.38-4.48l-.74-.47-10.68,3.15,3.15-10.68-.46-.74a28.75,28.75,0,1,1,24.11,13.22Z" transform="translate(-282.24 -202.26)"/></g><g id="Group_840" data-name="Group 840"><path id="Path_2127" data-name="Path 2127" class="cls-1" d="M317.54,208.94a28.8,28.8,0,0,0-24.12,44.24l.47.73-3.15,10.69,10.68-3.16.74.47a28.72,28.72,0,1,0,15.42-53Z" transform="translate(-282.24 -202.26)"/><path id="Path_2128" data-name="Path 2128" class="cls-1" d="M337.59,251.32l-1.51,1.52c-2.72,2.71-8.28,2.61-12.07,1.88A28.74,28.74,0,0,1,301,231.66a24.16,24.16,0,0,1-.45-4.49c0-3.31.81-6,2.34-7.57l1.51-1.51a4,4,0,0,1,5.72,0l6.06,6a4,4,0,0,1,0,5.72h0l-1.51,1.51a2.37,2.37,0,0,0,0,3.36l0,0,6,6.3a2.7,2.7,0,0,0,3.6,0l1.52-1.52a4.06,4.06,0,0,1,5.73,0l6.05,6.06a4,4,0,0,1,0,5.71h0Z" transform="translate(-282.24 -202.26)"/></g><g id="Group_841" data-name="Group 841"><path id="Path_2129" data-name="Path 2129" d="M337.59,245.6l-6.06-6.06a4.06,4.06,0,0,0-5.73,0l-1.51,1.52a2.7,2.7,0,0,1-3.6,0l-6-6.3,0,0a2.39,2.39,0,0,1,0-3.36l1.52-1.51a4,4,0,0,0,0-5.72h0l-6.06-6a4.06,4.06,0,0,0-5.73,0l-1.51,1.51c-1.52,1.53-2.33,4.25-2.33,7.57a24.16,24.16,0,0,0,.45,4.49A28.73,28.73,0,0,0,324,254.72c3.78.73,9.34.83,12.06-1.88l1.51-1.52a4,4,0,0,0,0-5.71h0Z" transform="translate(-282.24 -202.26)"/><path id="Path_2130" data-name="Path 2130" d="M335,248.46a.28.28,0,0,1-.07.17l-1.52,1.51c-1,1-4.34,1.66-8.65.84a24.94,24.94,0,0,1-20-20c-.82-4.31-.21-7.63.84-8.66,1.58-1.56,1.5-1.58,1.67-1.58a.21.21,0,0,1,.17.07c6.38,6.41,6.13,6,6.13,6.22a.2.2,0,0,1-.07.16l-1.51,1.52a6.17,6.17,0,0,0,0,8.73l6,6.3,0,0a6.5,6.5,0,0,0,9,0l1.51-1.51a.24.24,0,0,1,.33,0h0C335.22,248.65,335,248.28,335,248.46Z" transform="translate(-282.24 -202.26)"/></g><path id="Path_2131" data-name="Path 2131" class="cls-1" d="M335,248.46a.28.28,0,0,1-.07.17l-1.51,1.51c-1,1-4.35,1.66-8.66.84a24.94,24.94,0,0,1-20-20c-.82-4.31-.21-7.63.84-8.66,1.58-1.56,1.5-1.58,1.68-1.58a.2.2,0,0,1,.16.07c6.39,6.41,6.13,6,6.13,6.22a.2.2,0,0,1-.07.16l-1.51,1.52a6.17,6.17,0,0,0,0,8.73l6,6.3,0,0a6.5,6.5,0,0,0,9,0l1.51-1.51a.24.24,0,0,1,.33,0h0C335.22,248.65,335,248.28,335,248.46Z" transform="translate(-282.24 -202.26)"/></g><g id="Group_846" data-name="Group 846"><g id="Group_843" data-name="Group 843"><path id="Path_2132" data-name="Path 2132" d="M317.26,204.84a32.62,32.62,0,0,0-27.8,49.36L284.81,270l15.75-4.65a32.58,32.58,0,1,0,17.07-60.46h-.37Z" transform="translate(-282.24 -202.26)"/><path id="Path_2133" data-name="Path 2133" d="M317.25,266.11a28.51,28.51,0,0,1-15.38-4.49l-.73-.47-10.68,3.15,3.15-10.68-.47-.73a28.75,28.75,0,1,1,24.11,13.22Z" transform="translate(-282.24 -202.26)"/></g><g id="Group_844" data-name="Group 844"><path id="Path_2134" data-name="Path 2134" class="cls-1" d="M317.25,208.66a28.79,28.79,0,0,0-24.11,44.23l.47.74-3.15,10.68,10.68-3.15.74.46a28.73,28.73,0,1,0,15.42-53h-.05Z" transform="translate(-282.24 -202.26)"/><path id="Path_2135" data-name="Path 2135" class="cls-1" d="M337.3,251l-1.51,1.51c-2.72,2.72-8.28,2.61-12.07,1.89a28.73,28.73,0,0,1-23.05-23.06,25,25,0,0,1-.46-4.49c0-3.32.82-6,2.34-7.57l1.51-1.52a4.07,4.07,0,0,1,5.73,0l6,6.06a4,4,0,0,1,0,5.72h0l-1.51,1.51a2.37,2.37,0,0,0,0,3.36s0,0,0,0l6,6.29a2.7,2.7,0,0,0,3.6,0l1.51-1.52a4.06,4.06,0,0,1,5.73,0l6.05,6.06a4,4,0,0,1,0,5.72h0Z" transform="translate(-282.24 -202.26)"/></g><g id="Group_845" data-name="Group 845"><path id="Path_2136" data-name="Path 2136" d="M337.3,245.31l-6.06-6.05a4,4,0,0,0-5.72,0L324,240.77a2.69,2.69,0,0,1-3.6,0l-6-6.29,0,0a2.39,2.39,0,0,1,0-3.36l1.52-1.51a4,4,0,0,0,0-5.72h0l-6.06-6.05a4,4,0,0,0-5.72,0l-1.52,1.51c-1.52,1.52-2.33,4.25-2.33,7.57a24.16,24.16,0,0,0,.45,4.49,28.74,28.74,0,0,0,23.06,23.06c3.79.72,9.35.83,12.06-1.89l1.52-1.51a4,4,0,0,0,0-5.71h0Z" transform="translate(-282.24 -202.26)"/><path id="Path_2137" data-name="Path 2137" d="M334.67,248.18a.23.23,0,0,1-.06.16l-1.52,1.52c-1,1-4.35,1.65-8.65.83a24.92,24.92,0,0,1-20-20c-.83-4.31-.21-7.62.83-8.65,1.59-1.56,1.5-1.59,1.68-1.59a.28.28,0,0,1,.17.07c6.38,6.42,6.12,6,6.12,6.22a.27.27,0,0,1-.06.17l-1.52,1.51a6.19,6.19,0,0,0,0,8.74l6,6.3,0,0a6.52,6.52,0,0,0,9,0l1.51-1.52a.24.24,0,0,1,.33,0h0C334.93,248.37,334.67,248,334.67,248.18Z" transform="translate(-282.24 -202.26)"/></g><path id="Path_2138" data-name="Path 2138" class="cls-1" d="M334.67,248.18a.17.17,0,0,1-.07.16l-1.51,1.52c-1,1-4.34,1.66-8.65.84a24.93,24.93,0,0,1-20-20c-.82-4.32-.21-7.63.83-8.66,1.59-1.56,1.5-1.58,1.68-1.58a.27.27,0,0,1,.17.06c6.38,6.42,6.12,6,6.12,6.22a.27.27,0,0,1-.06.17l-1.52,1.51a6.19,6.19,0,0,0,0,8.74l6,6.3,0,0a6.52,6.52,0,0,0,9,0l1.51-1.51a.22.22,0,0,1,.33,0h0C334.93,248.37,334.67,248,334.67,248.18Z" transform="translate(-282.24 -202.26)"/></g><g id="Group_850" data-name="Group 850"><g id="Group_847" data-name="Group 847"><path id="Path_2139" data-name="Path 2139" d="M317,204.55a32.62,32.62,0,0,0-27.8,49.36l-4.64,15.75L300.28,265a32.57,32.57,0,1,0,17.07-60.46Z" transform="translate(-282.24 -202.26)"/><path id="Path_2140" data-name="Path 2140" d="M317,265.82a28.5,28.5,0,0,1-15.38-4.48l-.74-.47L290.17,264l3.15-10.68-.47-.74A28.76,28.76,0,1,1,317,265.82Z" transform="translate(-282.24 -202.26)"/></g><g id="Group_848" data-name="Group 848"><path id="Path_2141" data-name="Path 2141" class="cls-1" d="M317,208.37a28.8,28.8,0,0,0-24.11,44.24l.46.73L290.17,264l10.68-3.15.74.47a28.73,28.73,0,1,0,15.42-53Z" transform="translate(-282.24 -202.26)"/><path id="Path_2142" data-name="Path 2142" class="cls-1" d="M337,250.75l-1.51,1.52c-2.72,2.71-8.28,2.61-12.06,1.88a28.73,28.73,0,0,1-23.06-23.05,24.35,24.35,0,0,1-.45-4.5c0-3.31.81-6,2.33-7.57l1.51-1.51a4.06,4.06,0,0,1,5.73,0l6.06,6a4,4,0,0,1,0,5.72h0L314,230.81a2.39,2.39,0,0,0,0,3.36l0,0,6,6.29a2.7,2.7,0,0,0,3.6,0l1.51-1.52a4.06,4.06,0,0,1,5.73,0L337,245a4,4,0,0,1,0,5.71h0Z" transform="translate(-282.24 -202.26)"/></g><g id="Group_849" data-name="Group 849"><path id="Path_2143" data-name="Path 2143" d="M337,245,331,239a4.06,4.06,0,0,0-5.73,0l-1.51,1.52a2.69,2.69,0,0,1-3.6,0l-6-6.29,0,0a2.37,2.37,0,0,1,0-3.36l1.51-1.51a4,4,0,0,0,0-5.72h0l-6.05-6a4.06,4.06,0,0,0-5.73,0L302.27,219c-1.52,1.53-2.33,4.25-2.33,7.57a23.34,23.34,0,0,0,.45,4.49,28.73,28.73,0,0,0,23.06,23.06c3.78.73,9.34.83,12.06-1.88l1.51-1.52a4,4,0,0,0,0-5.71h0Z" transform="translate(-282.24 -202.26)"/><path id="Path_2144" data-name="Path 2144" d="M334.39,247.89a.28.28,0,0,1-.07.17l-1.52,1.51c-1,1-4.34,1.66-8.65.84a24.94,24.94,0,0,1-20-20c-.82-4.31-.21-7.62.84-8.66,1.58-1.56,1.5-1.58,1.68-1.58a.2.2,0,0,1,.16.07c6.38,6.41,6.13,6,6.13,6.22a.24.24,0,0,1-.07.16l-1.52,1.52a6.19,6.19,0,0,0,0,8.74l6,6.3,0,0a6.5,6.5,0,0,0,9,0l1.51-1.51a.24.24,0,0,1,.33,0h0C334.64,248.08,334.39,247.7,334.39,247.89Z" transform="translate(-282.24 -202.26)"/></g><path id="Path_2145" data-name="Path 2145" class="cls-1" d="M334.39,247.89a.28.28,0,0,1-.07.17l-1.52,1.51c-1,1-4.34,1.66-8.65.84a24.94,24.94,0,0,1-20-20c-.82-4.31-.21-7.62.84-8.66,1.58-1.56,1.5-1.58,1.68-1.58a.2.2,0,0,1,.16.07c6.38,6.41,6.13,6,6.13,6.22a.24.24,0,0,1-.07.16l-1.52,1.52a6.19,6.19,0,0,0,0,8.74l6,6.3,0,0a6.5,6.5,0,0,0,9,0l1.51-1.51a.24.24,0,0,1,.33,0h0C334.64,248.08,334.39,247.71,334.39,247.89Z" transform="translate(-282.24 -202.26)"/></g><g id="Group_854" data-name="Group 854"><g id="Group_851" data-name="Group 851"><path id="Path_2146" data-name="Path 2146" d="M316.68,204.27a32.63,32.63,0,0,0-27.8,49.35l-4.64,15.75L300,264.72a32.57,32.57,0,1,0,17.07-60.46h-.38Z" transform="translate(-282.24 -202.26)"/><path id="Path_2147" data-name="Path 2147" d="M316.68,265.54a28.51,28.51,0,0,1-15.38-4.49l-.74-.47-10.67,3.15L293,253.05l-.47-.73a28.75,28.75,0,1,1,24.11,13.22Z" transform="translate(-282.24 -202.26)"/></g><g id="Group_852" data-name="Group 852"><path id="Path_2148" data-name="Path 2148" class="cls-1" d="M316.68,208.08a28.8,28.8,0,0,0-24.11,44.24l.47.73-3.15,10.68,10.68-3.15.73.47a28.73,28.73,0,1,0,15.42-53Z" transform="translate(-282.24 -202.26)"/><path id="Path_2149" data-name="Path 2149" class="cls-1" d="M336.73,250.47,335.21,252c-2.71,2.72-8.27,2.61-12.06,1.89a28.74,28.74,0,0,1-23.06-23.06,24.16,24.16,0,0,1-.45-4.49c0-3.32.81-6,2.33-7.57l1.52-1.52a4.06,4.06,0,0,1,5.72,0l6.06,6.06a4,4,0,0,1,0,5.72h0l-1.52,1.51a2.39,2.39,0,0,0,0,3.36l0,0,6,6.29a2.69,2.69,0,0,0,3.6,0l1.51-1.51a4.06,4.06,0,0,1,5.73,0l6.06,6.05a4.05,4.05,0,0,1,0,5.72h0Z" transform="translate(-282.24 -202.26)"/></g><g id="Group_853" data-name="Group 853"><path id="Path_2150" data-name="Path 2150" d="M336.73,244.74l-6.06-6.05a4,4,0,0,0-5.73,0l-1.51,1.51a2.69,2.69,0,0,1-3.6,0l-6-6.29,0,0a2.39,2.39,0,0,1,0-3.36l1.52-1.51a4.06,4.06,0,0,0,0-5.73h0l-6.06-6.06a4.06,4.06,0,0,0-5.73,0L302,218.75c-1.52,1.52-2.33,4.25-2.33,7.57a24.24,24.24,0,0,0,.45,4.49,28.74,28.74,0,0,0,23.06,23.06c3.78.72,9.34.83,12.06-1.89l1.51-1.51a4,4,0,0,0,0-5.72Z" transform="translate(-282.24 -202.26)"/><path id="Path_2151" data-name="Path 2151" d="M334.1,247.61a.2.2,0,0,1-.07.16l-1.51,1.52c-1,1-4.35,1.65-8.66.83a24.93,24.93,0,0,1-20-20c-.82-4.31-.2-7.62.84-8.65,1.58-1.56,1.5-1.59,1.68-1.59a.28.28,0,0,1,.17.07c6.38,6.42,6.12,6,6.12,6.22a.23.23,0,0,1-.07.17l-1.51,1.51a6.2,6.2,0,0,0,0,8.74l6.05,6.3,0,0a6.51,6.51,0,0,0,9,0l1.51-1.52a.25.25,0,0,1,.34,0h0C334.36,247.8,334.1,247.42,334.1,247.61Z" transform="translate(-282.24 -202.26)"/></g><path id="Path_2152" data-name="Path 2152" class="cls-1" d="M334.1,247.6a.21.21,0,0,1-.07.17l-1.51,1.51c-1,1-4.35,1.66-8.66.84a24.94,24.94,0,0,1-20-20c-.82-4.31-.2-7.62.84-8.65,1.58-1.57,1.5-1.59,1.68-1.59a.23.23,0,0,1,.17.07c6.38,6.42,6.12,6,6.12,6.22a.2.2,0,0,1-.07.16l-1.51,1.52a6.19,6.19,0,0,0,0,8.74l6.05,6.3s0,0,0,0a6.49,6.49,0,0,0,9,0l1.51-1.51a.25.25,0,0,1,.34,0h0C334.36,247.8,334.1,247.42,334.1,247.6Z" transform="translate(-282.24 -202.26)"/></g><g id="Group_858" data-name="Group 858"><g id="Group_855" data-name="Group 855"><path id="Path_2153" data-name="Path 2153" d="M316.4,204a32.63,32.63,0,0,0-27.8,49.35L284,269.08l15.74-4.64A32.58,32.58,0,1,0,316.78,204Z" transform="translate(-282.24 -202.26)"/><path id="Path_2154" data-name="Path 2154" d="M316.4,265.25A28.48,28.48,0,0,1,301,260.76l-.73-.46-10.68,3.15,3.15-10.68-.47-.74a28.76,28.76,0,1,1,24.11,13.22Z" transform="translate(-282.24 -202.26)"/></g><g id="Group_856" data-name="Group 856"><path id="Path_2155" data-name="Path 2155" class="cls-1" d="M316.4,207.79A28.8,28.8,0,0,0,292.28,252l.47.74-3.15,10.68,10.68-3.16.73.47a28.73,28.73,0,1,0,15.43-53Z" transform="translate(-282.24 -202.26)"/><path id="Path_2156" data-name="Path 2156" class="cls-1" d="M336.44,250.18l-1.51,1.52c-2.71,2.71-8.28,2.61-12.06,1.88a28.73,28.73,0,0,1-23.06-23.05,24.27,24.27,0,0,1-.46-4.5c0-3.31.81-6,2.34-7.57L303.2,217a4,4,0,0,1,5.72,0L315,223a4,4,0,0,1,0,5.72h0l-1.51,1.51a2.37,2.37,0,0,0,0,3.36l0,0,6,6.3a2.7,2.7,0,0,0,3.6,0l1.51-1.52a4.06,4.06,0,0,1,5.73,0l6.05,6.06a4,4,0,0,1,0,5.71h0Z" transform="translate(-282.24 -202.26)"/></g><g id="Group_857" data-name="Group 857"><path id="Path_2157" data-name="Path 2157" d="M336.44,244.46l-6.05-6.06a4.06,4.06,0,0,0-5.73,0l-1.51,1.52a2.7,2.7,0,0,1-3.6,0l-6-6.3,0,0a2.37,2.37,0,0,1,0-3.36l1.51-1.52a4,4,0,0,0,0-5.72h0L308.93,217a4,4,0,0,0-5.72,0l-1.51,1.51c-1.53,1.53-2.34,4.26-2.34,7.57a23.45,23.45,0,0,0,.46,4.5,28.74,28.74,0,0,0,23.05,23.06c3.79.72,9.35.83,12.07-1.89l1.51-1.51a4,4,0,0,0,0-5.72h0Z" transform="translate(-282.24 -202.26)"/><path id="Path_2158" data-name="Path 2158" d="M333.82,247.32a.28.28,0,0,1-.07.17L332.23,249c-1,1-4.34,1.66-8.65.84a24.94,24.94,0,0,1-20-20c-.83-4.31-.21-7.63.84-8.66,1.58-1.56,1.5-1.58,1.67-1.58a.27.27,0,0,1,.17.06c6.38,6.42,6.12,6,6.12,6.23a.19.19,0,0,1-.06.16l-1.52,1.52a6.17,6.17,0,0,0,0,8.73l6,6.3,0,0a6.5,6.5,0,0,0,9,0l1.51-1.51a.24.24,0,0,1,.33,0h0C334.07,247.51,333.82,247.13,333.82,247.32Z" transform="translate(-282.24 -202.26)"/></g><path id="Path_2159" data-name="Path 2159" class="cls-1" d="M333.82,247.32a.28.28,0,0,1-.07.17L332.23,249c-1,1-4.34,1.66-8.65.84a24.94,24.94,0,0,1-20-20c-.82-4.31-.21-7.63.84-8.66,1.58-1.56,1.5-1.58,1.67-1.58a.24.24,0,0,1,.17.06c6.38,6.42,6.13,6,6.13,6.22a.24.24,0,0,1-.07.17l-1.52,1.52a6.18,6.18,0,0,0,0,8.73l6,6.3,0,0a6.52,6.52,0,0,0,9,0l1.51-1.51a.22.22,0,0,1,.33,0h0C334.07,247.51,333.82,247.13,333.82,247.32Z" transform="translate(-282.24 -202.26)"/></g><g id="Group_862" data-name="Group 862"><g id="Group_859" data-name="Group 859"><path id="Path_2160" data-name="Path 2160" d="M316.11,203.69a32.62,32.62,0,0,0-27.79,49.36l-4.65,15.75,15.75-4.65a32.57,32.57,0,1,0,17.07-60.45h-.38Z" transform="translate(-282.24 -202.26)"/><path id="Path_2161" data-name="Path 2161" d="M316.11,265a28.52,28.52,0,0,1-15.38-4.48L300,260l-10.68,3.15,3.15-10.68-.47-.73A28.79,28.79,0,1,1,316.11,265Z" transform="translate(-282.24 -202.26)"/></g><g id="Group_860" data-name="Group 860"><path id="Path_2162" data-name="Path 2162" class="cls-1" d="M316.11,207.51A28.8,28.8,0,0,0,292,251.75l.47.73-3.15,10.68L300,260l.73.47a28.73,28.73,0,1,0,15.42-53h0Z" transform="translate(-282.24 -202.26)"/><path id="Path_2163" data-name="Path 2163" class="cls-1" d="M336.16,249.9l-1.52,1.51c-2.71,2.71-8.27,2.61-12.06,1.89a28.76,28.76,0,0,1-23.06-23.06,24.26,24.26,0,0,1-.45-4.5c0-3.31.81-6,2.33-7.57l1.52-1.51a4,4,0,0,1,5.72,0l6.06,6.06a4,4,0,0,1,0,5.72h0L313.18,230a2.39,2.39,0,0,0,0,3.36l0,0,6,6.3a2.7,2.7,0,0,0,3.6,0l1.51-1.52a4.06,4.06,0,0,1,5.73,0l6.06,6.06a4.05,4.05,0,0,1,0,5.72h0Z" transform="translate(-282.24 -202.26)"/></g><g id="Group_861" data-name="Group 861"><path id="Path_2164" data-name="Path 2164" d="M336.15,244.17l-6-6.06a4.06,4.06,0,0,0-5.73,0l-1.51,1.52a2.7,2.7,0,0,1-3.6,0l-6-6.3,0,0a2.37,2.37,0,0,1,0-3.36l1.51-1.51a4.06,4.06,0,0,0,0-5.73h0l-6.05-6.06a4.06,4.06,0,0,0-5.73,0l-1.51,1.52c-1.53,1.52-2.34,4.25-2.34,7.57a23.43,23.43,0,0,0,.46,4.49,28.74,28.74,0,0,0,23.05,23.06c3.79.72,9.35.83,12.07-1.89l1.51-1.51a4,4,0,0,0,0-5.72h0Z" transform="translate(-282.24 -202.26)"/><path id="Path_2165" data-name="Path 2165" d="M333.53,247a.22.22,0,0,1-.07.17l-1.52,1.51c-1,1-4.34,1.66-8.65.84a24.94,24.94,0,0,1-20-20c-.82-4.31-.2-7.62.84-8.65,1.58-1.57,1.5-1.59,1.68-1.59a.24.24,0,0,1,.16.07c6.38,6.42,6.13,6,6.13,6.22a.24.24,0,0,1-.07.16l-1.52,1.52a6.19,6.19,0,0,0,0,8.74l6,6.3,0,0a6.52,6.52,0,0,0,9,0l1.51-1.52a.24.24,0,0,1,.33,0h0C333.78,247.23,333.53,246.85,333.53,247Z" transform="translate(-282.24 -202.26)"/></g><path id="Path_2166" data-name="Path 2166" class="cls-1" d="M333.53,247a.21.21,0,0,1-.07.17L332,248.71c-1,1-4.35,1.66-8.66.84a24.93,24.93,0,0,1-20-20c-.82-4.31-.2-7.62.84-8.65,1.58-1.56,1.5-1.59,1.68-1.59a.24.24,0,0,1,.16.07c6.38,6.42,6.13,6,6.13,6.22a.2.2,0,0,1-.07.16l-1.51,1.52a6.19,6.19,0,0,0,0,8.74l6,6.3,0,0a6.52,6.52,0,0,0,9,0l1.51-1.52a.24.24,0,0,1,.33,0h0C333.78,247.23,333.53,246.85,333.53,247Z" transform="translate(-282.24 -202.26)"/></g><g id="Group_866" data-name="Group 866"><g id="Group_863" data-name="Group 863"><path id="Path_2167" data-name="Path 2167" d="M315.82,203.41A32.62,32.62,0,0,0,288,252.77l-4.65,15.75,15.75-4.65a32.58,32.58,0,1,0,17.07-60.46Z" transform="translate(-282.24 -202.26)"/><path id="Path_2168" data-name="Path 2168" d="M315.83,264.68a28.54,28.54,0,0,1-15.39-4.49l-.73-.47L289,262.87l3.15-10.68-.47-.73a28.76,28.76,0,1,1,24.11,13.22Z" transform="translate(-282.24 -202.26)"/></g><g id="Group_864" data-name="Group 864"><path id="Path_2169" data-name="Path 2169" class="cls-1" d="M315.83,207.22a28.8,28.8,0,0,0-24.12,44.24l.47.74L289,262.88l10.68-3.15.73.47a28.73,28.73,0,1,0,15.43-53Z" transform="translate(-282.24 -202.26)"/><path id="Path_2170" data-name="Path 2170" class="cls-1" d="M335.87,249.61l-1.51,1.51c-2.72,2.72-8.28,2.61-12.06,1.89A28.73,28.73,0,0,1,299.24,230a24.16,24.16,0,0,1-.45-4.49c0-3.32.81-6.05,2.33-7.57l1.51-1.51a4.06,4.06,0,0,1,5.73,0l6.06,6.05a4,4,0,0,1,0,5.72h0l-1.52,1.51a2.39,2.39,0,0,0,0,3.36l0,0,6,6.29a2.69,2.69,0,0,0,3.6,0l1.51-1.51a4.06,4.06,0,0,1,5.73,0l6.06,6a4,4,0,0,1,0,5.72h0Z" transform="translate(-282.24 -202.26)"/></g><g id="Group_865" data-name="Group 865"><path id="Path_2171" data-name="Path 2171" d="M335.87,243.88l-6.05-6.06a4.06,4.06,0,0,0-5.73,0l-1.51,1.52a2.7,2.7,0,0,1-3.6,0l-6-6.3,0,0a2.37,2.37,0,0,1,0-3.36l1.51-1.51a4.06,4.06,0,0,0,0-5.73h0l-6.06-6.06a4,4,0,0,0-5.72,0l-1.52,1.51c-1.52,1.53-2.33,4.26-2.33,7.57a24.18,24.18,0,0,0,.45,4.5A28.74,28.74,0,0,0,322.3,253c3.79.72,9.35.83,12.06-1.89l1.52-1.51a4.05,4.05,0,0,0,0-5.72h0Z" transform="translate(-282.24 -202.26)"/><path id="Path_2172" data-name="Path 2172" d="M333.24,246.75a.2.2,0,0,1-.07.16l-1.51,1.52c-1,1-4.35,1.66-8.65.84a24.93,24.93,0,0,1-20-20c-.83-4.31-.21-7.63.83-8.66,1.59-1.56,1.5-1.58,1.68-1.58a.27.27,0,0,1,.17.06c6.38,6.42,6.12,6,6.12,6.23a.23.23,0,0,1-.06.16L310.21,227a6.17,6.17,0,0,0,0,8.73l6,6.31,0,0a6.49,6.49,0,0,0,9,0l1.52-1.51a.24.24,0,0,1,.33,0h0C333.5,246.94,333.24,246.56,333.24,246.75Z" transform="translate(-282.24 -202.26)"/></g><path id="Path_2173" data-name="Path 2173" class="cls-1" d="M333.24,246.75a.2.2,0,0,1-.07.16l-1.51,1.52c-1,1-4.35,1.66-8.65.84a24.93,24.93,0,0,1-20-20c-.83-4.32-.21-7.63.83-8.66,1.59-1.56,1.5-1.58,1.68-1.58a.27.27,0,0,1,.17.06c6.38,6.42,6.12,6,6.12,6.22a.24.24,0,0,1-.06.17L310.21,227a6.17,6.17,0,0,0,0,8.73l6,6.3,0,0a6.49,6.49,0,0,0,9,0l1.52-1.51a.24.24,0,0,1,.33,0h0C333.5,246.94,333.24,246.56,333.24,246.75Z" transform="translate(-282.24 -202.26)"/></g><g id="Group_870" data-name="Group 870"><g id="Group_867" data-name="Group 867"><path id="Path_2174" data-name="Path 2174" d="M315.54,203.12a32.62,32.62,0,0,0-27.79,49.36l-4.65,15.75,15.75-4.65a32.57,32.57,0,1,0,17.07-60.46Z" transform="translate(-282.24 -202.26)"/><path id="Path_2175" data-name="Path 2175" d="M315.54,264.39a28.5,28.5,0,0,1-15.38-4.48l-.74-.47-10.68,3.15,3.15-10.68-.46-.73a28.78,28.78,0,1,1,24.11,13.21Z" transform="translate(-282.24 -202.26)"/></g><g id="Group_868" data-name="Group 868"><path id="Path_2176" data-name="Path 2176" class="cls-1" d="M315.54,206.93a28.8,28.8,0,0,0-24.11,44.24l.46.73-3.15,10.69,10.68-3.15.74.46a28.73,28.73,0,1,0,15.42-53Z" transform="translate(-282.24 -202.26)"/><path id="Path_2177" data-name="Path 2177" class="cls-1" d="M335.58,249.32l-1.51,1.52c-2.71,2.71-8.28,2.61-12.06,1.88A28.72,28.72,0,0,1,299,229.67a24.26,24.26,0,0,1-.45-4.5c0-3.31.81-6,2.33-7.57l1.51-1.51a4.06,4.06,0,0,1,5.73,0l6.06,6.06a4,4,0,0,1,0,5.72h0l-1.52,1.52a2.38,2.38,0,0,0,0,3.35l0,0,6,6.3a2.7,2.7,0,0,0,3.6,0l1.52-1.52a4,4,0,0,1,5.72,0l6.06,6.06a4,4,0,0,1,0,5.71Z" transform="translate(-282.24 -202.26)"/></g><g id="Group_869" data-name="Group 869"><path id="Path_2178" data-name="Path 2178" d="M335.58,243.6l-6.05-6.06a4.06,4.06,0,0,0-5.73,0l-1.51,1.52a2.7,2.7,0,0,1-3.6,0l-6-6.3,0,0a2.37,2.37,0,0,1,0-3.36l1.51-1.51a4,4,0,0,0,0-5.72h0l-6.05-6a4.06,4.06,0,0,0-5.73,0l-1.51,1.51c-1.52,1.53-2.34,4.25-2.34,7.57a24.27,24.27,0,0,0,.46,4.5A28.73,28.73,0,0,0,322,252.72c3.78.73,9.34.83,12.06-1.88l1.51-1.52a4,4,0,0,0,0-5.71h0Z" transform="translate(-282.24 -202.26)"/><path id="Path_2179" data-name="Path 2179" d="M333,246.46a.28.28,0,0,1-.07.17l-1.52,1.51c-1,1-4.34,1.66-8.65.84a24.94,24.94,0,0,1-20-20c-.82-4.31-.21-7.62.84-8.66,1.58-1.56,1.5-1.58,1.68-1.58a.23.23,0,0,1,.16.06c6.38,6.42,6.13,6.05,6.13,6.23a.2.2,0,0,1-.07.16l-1.51,1.52a6.17,6.17,0,0,0,0,8.73l6,6.3,0,0a6.5,6.5,0,0,0,9,0l1.51-1.51a.24.24,0,0,1,.33,0h0C333.21,246.65,333,246.27,333,246.46Z" transform="translate(-282.24 -202.26)"/></g><path id="Path_2180" data-name="Path 2180" class="cls-1" d="M333,246.46a.23.23,0,0,1-.07.17l-1.52,1.51c-1,1-4.34,1.66-8.65.84a24.94,24.94,0,0,1-20-20c-.82-4.31-.21-7.62.84-8.66,1.58-1.56,1.5-1.58,1.68-1.58a.24.24,0,0,1,.16.07c6.38,6.42,6.13,6,6.13,6.22a.2.2,0,0,1-.07.16l-1.51,1.52a6.17,6.17,0,0,0,0,8.73l6,6.3,0,0a6.5,6.5,0,0,0,9,0l1.51-1.51a.24.24,0,0,1,.33,0h0C333.21,246.65,333,246.28,333,246.46Z" transform="translate(-282.24 -202.26)"/></g><g id="Group_874" data-name="Group 874"><g id="Group_871" data-name="Group 871"><path id="Path_2181" data-name="Path 2181" d="M315.25,202.84a32.62,32.62,0,0,0-27.79,49.35l-4.65,15.75,15.75-4.64a32.58,32.58,0,1,0,17.07-60.46Z" transform="translate(-282.24 -202.26)"/><path id="Path_2182" data-name="Path 2182" d="M315.25,264.11a28.51,28.51,0,0,1-15.38-4.49l-.73-.47-10.68,3.15,3.15-10.68-.47-.73a28.78,28.78,0,1,1,24.11,13.21Z" transform="translate(-282.24 -202.26)"/></g><g id="Group_872" data-name="Group 872"><path id="Path_2183" data-name="Path 2183" class="cls-1" d="M315.25,206.65a28.8,28.8,0,0,0-24.11,44.24l.47.73-3.15,10.68,10.68-3.15.73.47a28.73,28.73,0,1,0,15.42-53h0Z" transform="translate(-282.24 -202.26)"/><path id="Path_2184" data-name="Path 2184" class="cls-1" d="M335.3,249l-1.51,1.51c-2.72,2.72-8.28,2.61-12.07,1.89a28.74,28.74,0,0,1-23.06-23.06,24.26,24.26,0,0,1-.45-4.5c0-3.31.81-6,2.34-7.57l1.51-1.51a4,4,0,0,1,5.72,0l6.06,6.06a4.05,4.05,0,0,1,0,5.72h0l-1.52,1.52a2.39,2.39,0,0,0,0,3.36s0,0,0,0l6,6.3a2.7,2.7,0,0,0,3.6,0l1.52-1.52a4,4,0,0,1,5.72,0l6.06,6.06a4.05,4.05,0,0,1,0,5.72h0Z" transform="translate(-282.24 -202.26)"/></g><g id="Group_873" data-name="Group 873"><path id="Path_2185" data-name="Path 2185" d="M335.3,243.31l-6.06-6.05a4,4,0,0,0-5.72,0L322,238.77a2.69,2.69,0,0,1-3.6,0l-6-6.29,0,0a2.39,2.39,0,0,1,0-3.36l1.52-1.51a4.05,4.05,0,0,0,0-5.72h0l-6.06-6.05a4,4,0,0,0-5.72,0l-1.52,1.51c-1.52,1.52-2.33,4.25-2.33,7.57a24.16,24.16,0,0,0,.45,4.49,28.74,28.74,0,0,0,23.06,23.06c3.79.72,9.35.83,12.06-1.89l1.52-1.51a4,4,0,0,0,0-5.72h0Z" transform="translate(-282.24 -202.26)"/><path id="Path_2186" data-name="Path 2186" d="M332.67,246.17a.24.24,0,0,1-.06.17l-1.52,1.52c-1,1-4.35,1.65-8.65.83a24.92,24.92,0,0,1-20-20c-.83-4.31-.21-7.62.83-8.65,1.59-1.56,1.5-1.59,1.68-1.59a.28.28,0,0,1,.17.07c6.38,6.42,6.12,6,6.12,6.22a.22.22,0,0,1-.06.17l-1.52,1.51a6.19,6.19,0,0,0,0,8.74l6,6.3,0,0a6.52,6.52,0,0,0,9,0l1.51-1.52a.24.24,0,0,1,.33,0h0C332.93,246.37,332.67,246,332.67,246.17Z" transform="translate(-282.24 -202.26)"/></g><path id="Path_2187" data-name="Path 2187" class="cls-1" d="M332.67,246.17a.21.21,0,0,1-.07.17l-1.51,1.52c-1,1-4.34,1.65-8.65.83a24.93,24.93,0,0,1-20-20c-.83-4.31-.21-7.62.83-8.65,1.59-1.56,1.5-1.59,1.68-1.59a.28.28,0,0,1,.17.07c6.38,6.42,6.12,6,6.12,6.22a.22.22,0,0,1-.06.17l-1.52,1.51a6.19,6.19,0,0,0,0,8.74l6,6.3,0,0a6.51,6.51,0,0,0,9,0l1.52-1.52a.24.24,0,0,1,.33,0h0C332.93,246.37,332.67,246,332.67,246.17Z" transform="translate(-282.24 -202.26)"/></g><g id="Group_878" data-name="Group 878"><g id="Group_875" data-name="Group 875"><path id="Path_2188" data-name="Path 2188" d="M315,202.55a32.62,32.62,0,0,0-27.8,49.36l-4.64,15.75L298.28,263a32.58,32.58,0,1,0,17.07-60.46Z" transform="translate(-282.24 -202.26)"/><path id="Path_2189" data-name="Path 2189" d="M315,263.82a28.5,28.5,0,0,1-15.38-4.48l-.74-.47L288.17,262l3.15-10.68-.47-.74A28.78,28.78,0,1,1,315,263.82Z" transform="translate(-282.24 -202.26)"/></g><g id="Group_876" data-name="Group 876"><path id="Path_2190" data-name="Path 2190" class="cls-1" d="M315,206.37a28.8,28.8,0,0,0-24.11,44.24l.46.73L288.18,262l10.67-3.15.74.47a28.73,28.73,0,1,0,15.42-53h0Z" transform="translate(-282.24 -202.26)"/><path id="Path_2191" data-name="Path 2191" class="cls-1" d="M335,248.76l-1.51,1.51c-2.71,2.71-8.28,2.61-12.06,1.88a28.73,28.73,0,0,1-23.06-23.05,24.26,24.26,0,0,1-.45-4.5c0-3.31.81-6,2.33-7.57l1.51-1.51a4.06,4.06,0,0,1,5.73,0l6.06,6a4,4,0,0,1,0,5.72h0L312,228.81a2.4,2.4,0,0,0,0,3.37l0,0,6,6.3a2.7,2.7,0,0,0,3.6,0l1.52-1.52a4,4,0,0,1,5.72,0L335,243a4.05,4.05,0,0,1,0,5.72h0Z" transform="translate(-282.24 -202.26)"/></g><g id="Group_877" data-name="Group 877"><path id="Path_2192" data-name="Path 2192" d="M335,243,329,237a4.06,4.06,0,0,0-5.73,0l-1.51,1.52a2.7,2.7,0,0,1-3.6,0l-6-6.3,0,0a2.37,2.37,0,0,1,0-3.36l1.51-1.52a4,4,0,0,0,0-5.72h0l-6.06-6.06a4,4,0,0,0-5.72,0L300.27,217c-1.53,1.53-2.34,4.26-2.34,7.57a24.26,24.26,0,0,0,.45,4.5,28.73,28.73,0,0,0,23.06,23.05c3.79.73,9.35.84,12.07-1.88l1.51-1.51a4.05,4.05,0,0,0,0-5.72h0Z" transform="translate(-282.24 -202.26)"/><path id="Path_2193" data-name="Path 2193" d="M332.39,245.89a.28.28,0,0,1-.07.17l-1.52,1.51c-1,1-4.34,1.66-8.65.84a24.94,24.94,0,0,1-20-20c-.82-4.31-.21-7.62.84-8.66,1.58-1.56,1.5-1.58,1.67-1.58a.24.24,0,0,1,.17.06c6.38,6.42,6.13,6,6.13,6.22a.24.24,0,0,1-.07.17l-1.51,1.52a6.17,6.17,0,0,0,0,8.73l6,6.3,0,0a6.5,6.5,0,0,0,9,0l1.51-1.51a.24.24,0,0,1,.33,0h0C332.64,246.08,332.39,245.7,332.39,245.89Z" transform="translate(-282.24 -202.26)"/></g><path id="Path_2194" data-name="Path 2194" class="cls-1" d="M332.39,245.89a.28.28,0,0,1-.07.17l-1.52,1.51c-1,1-4.34,1.66-8.65.84a24.94,24.94,0,0,1-20-20c-.82-4.31-.21-7.62.84-8.66,1.58-1.56,1.5-1.58,1.68-1.58a.23.23,0,0,1,.17.07c6.38,6.41,6.12,6,6.12,6.22a.2.2,0,0,1-.07.16l-1.51,1.52a6.18,6.18,0,0,0,0,8.73l6.05,6.3,0,0a6.49,6.49,0,0,0,9,0l1.52-1.51a.22.22,0,0,1,.32,0h0C332.64,246.08,332.39,245.7,332.39,245.89Z" transform="translate(-282.24 -202.26)"/></g><g id="Group_879" data-name="Group 879"><path id="Path_2195" data-name="Path 2195" d="M314.68,202.26a32.62,32.62,0,0,0-27.79,49.36l-4.65,15.75L298,262.73a32.58,32.58,0,1,0,17.07-60.46h-.38Zm0,61.27a28.5,28.5,0,0,1-15.38-4.48l-.74-.47-10.67,3.15L291,251.05l-.46-.73a28.78,28.78,0,1,1,24.11,13.21Z" transform="translate(-282.24 -202.26)"/><path id="Path_2196" data-name="Path 2196" class="cls-2" d="M314.68,206.08a28.8,28.8,0,0,0-24.11,44.24l.47.73-3.15,10.68,10.68-3.15.73.47a28.73,28.73,0,1,0,15.42-53Zm20.05,42.39L333.22,250c-2.72,2.72-8.28,2.61-12.07,1.89a28.74,28.74,0,0,1-23.06-23.06,24.16,24.16,0,0,1-.45-4.49c0-3.32.81-6,2.33-7.57l1.52-1.51a4,4,0,0,1,5.72,0l6.06,6a4.05,4.05,0,0,1,0,5.72h0l-1.52,1.51a2.39,2.39,0,0,0,0,3.36l0,0,6,6.29a2.69,2.69,0,0,0,3.6,0l1.51-1.51a4.06,4.06,0,0,1,5.73,0l6.06,6.06a4,4,0,0,1,0,5.71h0Z" transform="translate(-282.24 -202.26)"/><path id="Path_2197" data-name="Path 2197" d="M334.73,242.74l-6.06-6.06a4.06,4.06,0,0,0-5.73,0l-1.51,1.52a2.7,2.7,0,0,1-3.6,0l-6-6.3,0,0a2.39,2.39,0,0,1,0-3.36l1.52-1.51a4.06,4.06,0,0,0,0-5.73h0l-6.06-6.06a4,4,0,0,0-5.72,0L300,216.75c-1.52,1.52-2.33,4.25-2.33,7.57a24.24,24.24,0,0,0,.45,4.49,28.74,28.74,0,0,0,23.06,23.06c3.78.72,9.34.83,12.06-1.89l1.51-1.51a4,4,0,0,0,0-5.72Zm-2.63,2.86a.21.21,0,0,1-.07.17l-1.51,1.51c-1,1-4.35,1.66-8.66.84a24.94,24.94,0,0,1-20-20c-.82-4.31-.2-7.62.84-8.65,1.58-1.56,1.5-1.59,1.68-1.59a.28.28,0,0,1,.17.07c6.38,6.42,6.12,6,6.12,6.22a.23.23,0,0,1-.06.16l-1.52,1.52a6.2,6.2,0,0,0,0,8.74l6.05,6.3,0,0a6.49,6.49,0,0,0,9,0l1.51-1.51a.25.25,0,0,1,.34,0h0c6.37,6.42,6.12,6,6.12,6.23Z" transform="translate(-282.24 -202.26)"/><path id="Path_2198" data-name="Path 2198" class="cls-1" d="M332.11,245.61a.24.24,0,0,1-.07.16l-1.52,1.52c-1,1-4.34,1.65-8.65.83a24.93,24.93,0,0,1-20-20c-.82-4.31-.2-7.61.84-8.65,1.58-1.55,1.5-1.58,1.67-1.58a.2.2,0,0,1,.17.06c6.38,6.42,6.12,6,6.12,6.22a.22.22,0,0,1-.06.17l-1.52,1.51a6.19,6.19,0,0,0,0,8.74l6,6.3,0,0a6.52,6.52,0,0,0,9,0l1.51-1.52a.24.24,0,0,1,.33,0h0C332.36,245.8,332.11,245.42,332.11,245.61Z" transform="translate(-282.24 -202.26)"/></g></g></g></svg>