<svg id="Layer_1" data-name="Layer 1" xmlns="http://www.w3.org/2000/svg" viewBox="0 0 97.21 69.65"><defs><style>.cls-1{fill:none;stroke-width:2px;}.cls-1,.cls-10,.cls-13,.cls-16,.cls-19,.cls-22,.cls-25,.cls-28,.cls-31,.cls-34,.cls-37,.cls-4,.cls-40,.cls-43,.cls-46,.cls-49,.cls-52,.cls-55,.cls-58,.cls-61,.cls-64,.cls-7{stroke:#000;stroke-miterlimit:10;}.cls-10,.cls-13,.cls-16,.cls-19,.cls-2,.cls-22,.cls-25,.cls-28,.cls-31,.cls-34,.cls-37,.cls-4,.cls-40,.cls-43,.cls-46,.cls-49,.cls-52,.cls-55,.cls-58,.cls-61,.cls-7{fill:#fff;}.cls-3{fill:#e6dfdf;}.cls-4{stroke-width:2.05px;}.cls-5{fill:#f3f3f3;}.cls-6{fill:#dbd4d4;}.cls-7{stroke-width:2.1px;}.cls-8{fill:#e7e7e7;}.cls-9{fill:#d0caca;}.cls-10{stroke-width:2.14px;}.cls-11{fill:#dbdbdb;}.cls-12{fill:#c5bfbf;}.cls-13{stroke-width:2.19px;}.cls-14{fill:#cecece;}.cls-15{fill:#bab5b5;}.cls-16{stroke-width:2.24px;}.cls-17{fill:#c2c2c2;}.cls-18{fill:#afaaaa;}.cls-19{stroke-width:2.29px;}.cls-20{fill:#b6b6b6;}.cls-21{fill:#a49f9f;}.cls-22{stroke-width:2.33px;}.cls-23{fill:#aaa;}.cls-24{fill:#999595;}.cls-25{stroke-width:2.38px;}.cls-26{fill:#9e9e9e;}.cls-27{fill:#8e8a8a;}.cls-28{stroke-width:2.43px;}.cls-29{fill:#929292;}.cls-30{fill:#837f7f;}.cls-31{stroke-width:2.48px;}.cls-32{fill:#868686;}.cls-33{fill:#787575;}.cls-34{stroke-width:2.52px;}.cls-35{fill:#797979;}.cls-36{fill:#6e6a6a;}.cls-37{stroke-width:2.57px;}.cls-38{fill:#6d6d6d;}.cls-39{fill:#636060;}.cls-40{stroke-width:2.62px;}.cls-41{fill:#616161;}.cls-42{fill:#585555;}.cls-43{stroke-width:2.67px;}.cls-44{fill:#555;}.cls-45{fill:#4d4a4a;}.cls-46{stroke-width:2.71px;}.cls-47{fill:#494949;}.cls-48{fill:#424040;}.cls-49{stroke-width:2.76px;}.cls-50{fill:#3d3d3d;}.cls-51{fill:#373535;}.cls-52{stroke-width:2.81px;}.cls-53{fill:#313131;}.cls-54{fill:#2c2a2a;}.cls-55{stroke-width:2.86px;}.cls-56{fill:#242424;}.cls-57{fill:#212020;}.cls-58{stroke-width:2.9px;}.cls-59{fill:#181818;}.cls-60{fill:#161515;}.cls-61{stroke-width:2.95px;}.cls-62{fill:#0c0c0c;}.cls-63{fill:#0b0b0b;}.cls-64{fill:#fe0811;stroke-width:3px;}</style></defs><g id="Youtube"><g id="Group_969" data-name="Group 969"><path id="Path_1123" data-name="Path 1123" class="cls-1" d="M345.6,273.82H305.39c-18.89,0-22-7-22-21.68V237.07c0-15.42,0-21.69,22-21.69H345.6c21.17,0,22,5.46,22,21.69v15.07C367.6,269.71,362.66,273.82,345.6,273.82Z" transform="translate(-271.4 -205.18)"/><path id="Path_1124" data-name="Path 1124" class="cls-2" d="M316.89,232.4l22.7,11.78-22.7,11.87Z" transform="translate(-271.4 -205.18)"/><path id="Path_1125" data-name="Path 1125" class="cls-3" d="M336.81,245.64l-19.92-13.25,22.7,11.79Z" transform="translate(-271.4 -205.18)"/></g><g id="Group_970" data-name="Group 970"><path id="Path_2307" data-name="Path 2307" class="cls-4" d="M345.1,273.41H304.89c-18.89,0-22-7-22-21.69V236.65c0-15.41,0-21.68,22-21.68H345.1c21.17,0,22,5.46,22,21.68v15.07C367.1,269.3,362.16,273.41,345.1,273.41Z" transform="translate(-271.4 -205.18)"/><path id="Path_2308" data-name="Path 2308" class="cls-5" d="M316.39,232l22.7,11.79-22.7,11.86Z" transform="translate(-271.4 -205.18)"/><path id="Path_2309" data-name="Path 2309" class="cls-6" d="M336.31,245.23,316.39,232l22.7,11.79Z" transform="translate(-271.4 -205.18)"/></g><g id="Group_971" data-name="Group 971"><path id="Path_2310" data-name="Path 2310" class="cls-7" d="M344.6,273H304.39c-18.89,0-22-7-22-21.69V236.24c0-15.42,0-21.69,22-21.69H344.6c21.17,0,22,5.46,22,21.69v15.07C366.6,268.88,361.66,273,344.6,273Z" transform="translate(-271.4 -205.18)"/><path id="Path_2311" data-name="Path 2311" class="cls-8" d="M315.89,231.57l22.7,11.79-22.7,11.86Z" transform="translate(-271.4 -205.18)"/><path id="Path_2312" data-name="Path 2312" class="cls-9" d="M335.81,244.81l-19.92-13.25,22.7,11.79Z" transform="translate(-271.4 -205.18)"/></g><g id="Group_972" data-name="Group 972"><path id="Path_2313" data-name="Path 2313" class="cls-10" d="M344.1,272.58H303.89c-18.89,0-22-7-22-21.69V235.82c0-15.41,0-21.68,22-21.68H344.1c21.17,0,22,5.46,22,21.68v15.07C366.1,268.47,361.16,272.58,344.1,272.58Z" transform="translate(-271.4 -205.18)"/><path id="Path_2314" data-name="Path 2314" class="cls-11" d="M315.39,231.15l22.7,11.79-22.7,11.86Z" transform="translate(-271.4 -205.18)"/><path id="Path_2315" data-name="Path 2315" class="cls-12" d="M335.31,244.4l-19.92-13.25,22.7,11.79Z" transform="translate(-271.4 -205.18)"/></g><g id="Group_973" data-name="Group 973"><path id="Path_2316" data-name="Path 2316" class="cls-13" d="M343.6,272.16H303.39c-18.89,0-22-7-22-21.68V235.41c0-15.42,0-21.69,22-21.69H343.6c21.17,0,22,5.46,22,21.69v15.07C365.6,268.06,360.66,272.16,343.6,272.16Z" transform="translate(-271.4 -205.18)"/><path id="Path_2317" data-name="Path 2317" class="cls-14" d="M314.89,230.74l22.7,11.79-22.7,11.86Z" transform="translate(-271.4 -205.18)"/><path id="Path_2318" data-name="Path 2318" class="cls-15" d="M334.81,244l-19.92-13.24,22.7,11.78Z" transform="translate(-271.4 -205.18)"/></g><g id="Group_974" data-name="Group 974"><path id="Path_2319" data-name="Path 2319" class="cls-16" d="M343.1,271.75H302.89c-18.89,0-22-7-22-21.69V235c0-15.42,0-21.69,22-21.69H343.1c21.17,0,22,5.46,22,21.69v15.06C365.1,267.64,360.16,271.75,343.1,271.75Z" transform="translate(-271.4 -205.18)"/><path id="Path_2320" data-name="Path 2320" class="cls-17" d="M314.39,230.32l22.7,11.79L314.39,254Z" transform="translate(-271.4 -205.18)"/><path id="Path_2321" data-name="Path 2321" class="cls-18" d="M334.32,243.57l-19.93-13.25,22.7,11.79Z" transform="translate(-271.4 -205.18)"/></g><g id="Group_975" data-name="Group 975"><path id="Path_2322" data-name="Path 2322" class="cls-19" d="M342.6,271.33H302.39c-18.89,0-22-7-22-21.68V234.58c0-15.42,0-21.69,22-21.69H342.6c21.18,0,22,5.47,22,21.69v15.07C364.61,267.23,359.66,271.33,342.6,271.33Z" transform="translate(-271.4 -205.18)"/><path id="Path_2323" data-name="Path 2323" class="cls-20" d="M313.89,229.91l22.7,11.79-22.7,11.86Z" transform="translate(-271.4 -205.18)"/><path id="Path_2324" data-name="Path 2324" class="cls-21" d="M333.82,243.15l-19.93-13.24,22.7,11.78Z" transform="translate(-271.4 -205.18)"/></g><g id="Group_976" data-name="Group 976"><path id="Path_2325" data-name="Path 2325" class="cls-22" d="M342.1,270.92H301.89c-18.89,0-22-7-22-21.69V234.17c0-15.42,0-21.69,22-21.69H342.1c21.17,0,22,5.46,22,21.69v15.06C364.11,266.81,359.16,270.92,342.1,270.92Z" transform="translate(-271.4 -205.18)"/><path id="Path_2326" data-name="Path 2326" class="cls-23" d="M313.39,229.49l22.7,11.79-22.7,11.86Z" transform="translate(-271.4 -205.18)"/><path id="Path_2327" data-name="Path 2327" class="cls-24" d="M333.32,242.74l-19.93-13.25,22.7,11.79Z" transform="translate(-271.4 -205.18)"/></g><g id="Group_977" data-name="Group 977"><path id="Path_2328" data-name="Path 2328" class="cls-25" d="M341.6,270.51H301.39c-18.89,0-22-7-22-21.69V233.75c0-15.42,0-21.68,22-21.68H341.6c21.18,0,22,5.45,22,21.68v15.07C363.61,266.4,358.67,270.51,341.6,270.51Z" transform="translate(-271.4 -205.18)"/><path id="Path_2329" data-name="Path 2329" class="cls-26" d="M312.89,229.08l22.7,11.79-22.7,11.86Z" transform="translate(-271.4 -205.18)"/><path id="Path_2330" data-name="Path 2330" class="cls-27" d="M332.82,242.32l-19.93-13.24,22.7,11.78Z" transform="translate(-271.4 -205.18)"/></g><g id="Group_978" data-name="Group 978"><path id="Path_2331" data-name="Path 2331" class="cls-28" d="M341.1,270.09H300.89c-18.89,0-22-7-22-21.69V233.34c0-15.42,0-21.69,22-21.69H341.1c21.18,0,22,5.46,22,21.69V248.4C363.11,266,358.17,270.09,341.1,270.09Z" transform="translate(-271.4 -205.18)"/><path id="Path_2332" data-name="Path 2332" class="cls-29" d="M312.39,228.66l22.7,11.79-22.7,11.87Z" transform="translate(-271.4 -205.18)"/><path id="Path_2333" data-name="Path 2333" class="cls-30" d="M332.32,241.91l-19.93-13.25,22.7,11.79Z" transform="translate(-271.4 -205.18)"/></g><g id="Group_979" data-name="Group 979"><path id="Path_2334" data-name="Path 2334" class="cls-31" d="M340.6,269.68H300.39c-18.89,0-22-7-22-21.69V232.92c0-15.42,0-21.68,22-21.68H340.6c21.18,0,22,5.45,22,21.68V248C362.61,265.57,357.67,269.68,340.6,269.68Z" transform="translate(-271.4 -205.18)"/><path id="Path_2335" data-name="Path 2335" class="cls-32" d="M311.9,228.25,334.6,240,311.9,251.9Z" transform="translate(-271.4 -205.18)"/><path id="Path_2336" data-name="Path 2336" class="cls-33" d="M331.82,241.5,311.9,228.25,334.6,240Z" transform="translate(-271.4 -205.18)"/></g><g id="Group_980" data-name="Group 980"><path id="Path_2337" data-name="Path 2337" class="cls-34" d="M340.11,269.26H299.89c-18.89,0-22-7-22-21.68V232.51c0-15.42,0-21.69,22-21.69h40.22c21.17,0,22,5.46,22,21.69v15.07C362.11,265.15,357.17,269.26,340.11,269.26Z" transform="translate(-271.4 -205.18)"/><path id="Path_2338" data-name="Path 2338" class="cls-35" d="M311.4,227.84l22.7,11.78-22.7,11.87Z" transform="translate(-271.4 -205.18)"/><path id="Path_2339" data-name="Path 2339" class="cls-36" d="M331.32,241.08,311.4,227.83l22.7,11.79Z" transform="translate(-271.4 -205.18)"/></g><g id="Group_981" data-name="Group 981"><path id="Path_2340" data-name="Path 2340" class="cls-37" d="M339.61,268.85H299.39c-18.89,0-22-7-22-21.69V232.09c0-15.42,0-21.69,22-21.69h40.22c21.17,0,22,5.46,22,21.69v15.07C361.61,264.74,356.67,268.85,339.61,268.85Z" transform="translate(-271.4 -205.18)"/><path id="Path_2341" data-name="Path 2341" class="cls-38" d="M310.9,227.42l22.7,11.79-22.7,11.86Z" transform="translate(-271.4 -205.18)"/><path id="Path_2342" data-name="Path 2342" class="cls-39" d="M330.82,240.67,310.9,227.42l22.7,11.79Z" transform="translate(-271.4 -205.18)"/></g><g id="Group_982" data-name="Group 982"><path id="Path_2343" data-name="Path 2343" class="cls-40" d="M339.11,268.43H298.9c-18.89,0-22-7-22-21.68V231.68c0-15.42,0-21.69,22-21.69h40.21c21.17,0,22,5.46,22,21.69v15.07C361.11,264.33,356.17,268.43,339.11,268.43Z" transform="translate(-271.4 -205.18)"/><path id="Path_2344" data-name="Path 2344" class="cls-41" d="M310.4,227l22.7,11.79-22.7,11.86Z" transform="translate(-271.4 -205.18)"/><path id="Path_2345" data-name="Path 2345" class="cls-42" d="M330.32,240.25,310.4,227l22.7,11.78Z" transform="translate(-271.4 -205.18)"/></g><g id="Group_983" data-name="Group 983"><path id="Path_2346" data-name="Path 2346" class="cls-43" d="M338.61,268H298.4c-18.89,0-22-7-22-21.69V231.27c0-15.42,0-21.69,22-21.69h40.21c21.17,0,22,5.46,22,21.69v15.06C360.61,263.91,355.66,268,338.61,268Z" transform="translate(-271.4 -205.18)"/><path id="Path_2347" data-name="Path 2347" class="cls-44" d="M309.89,226.59l22.7,11.79-22.7,11.86Z" transform="translate(-271.4 -205.18)"/><path id="Path_2348" data-name="Path 2348" class="cls-45" d="M329.82,239.84l-19.93-13.25,22.7,11.79Z" transform="translate(-271.4 -205.18)"/></g><g id="Group_984" data-name="Group 984"><path id="Path_2349" data-name="Path 2349" class="cls-46" d="M338.11,267.6H297.9c-18.89,0-22-7-22-21.68V230.85c0-15.42,0-21.68,22-21.68h40.21c21.17,0,22,5.45,22,21.68v15.07C360.11,263.5,355.17,267.6,338.11,267.6Z" transform="translate(-271.4 -205.18)"/><path id="Path_2350" data-name="Path 2350" class="cls-47" d="M309.4,226.18,332.1,238l-22.7,11.86Z" transform="translate(-271.4 -205.18)"/><path id="Path_2351" data-name="Path 2351" class="cls-48" d="M329.32,239.43,309.4,226.18,332.1,238Z" transform="translate(-271.4 -205.18)"/></g><g id="Group_985" data-name="Group 985"><path id="Path_2352" data-name="Path 2352" class="cls-49" d="M337.61,267.19H297.4c-18.89,0-22-7-22-21.69V230.44c0-15.42,0-21.69,22-21.69h40.21c21.17,0,22,5.46,22,21.69v15.07C359.61,263.08,354.67,267.19,337.61,267.19Z" transform="translate(-271.4 -205.18)"/><path id="Path_2353" data-name="Path 2353" class="cls-50" d="M308.9,225.76l22.7,11.79-22.7,11.87Z" transform="translate(-271.4 -205.18)"/><path id="Path_2354" data-name="Path 2354" class="cls-51" d="M328.82,239,308.9,225.76l22.7,11.79Z" transform="translate(-271.4 -205.18)"/></g><g id="Group_986" data-name="Group 986"><path id="Path_2355" data-name="Path 2355" class="cls-52" d="M337.11,266.78H296.9c-18.89,0-22-7-22-21.69V230c0-15.42,0-21.68,22-21.68h40.21c21.17,0,22,5.45,22,21.68v15.07C359.11,262.67,354.17,266.78,337.11,266.78Z" transform="translate(-271.4 -205.18)"/><path id="Path_2356" data-name="Path 2356" class="cls-53" d="M308.4,225.34l22.7,11.79L308.4,249Z" transform="translate(-271.4 -205.18)"/><path id="Path_2357" data-name="Path 2357" class="cls-54" d="M328.32,238.6,308.4,225.34l22.7,11.79Z" transform="translate(-271.4 -205.18)"/></g><g id="Group_987" data-name="Group 987"><path id="Path_2358" data-name="Path 2358" class="cls-55" d="M336.61,266.36H296.4c-18.89,0-22-7-22-21.68V229.61c0-15.42,0-21.69,22-21.69h40.21c21.17,0,22,5.46,22,21.69v15.07C358.61,262.25,353.67,266.36,336.61,266.36Z" transform="translate(-271.4 -205.18)"/><path id="Path_2359" data-name="Path 2359" class="cls-56" d="M307.9,224.94l22.7,11.78-22.7,11.86Z" transform="translate(-271.4 -205.18)"/><path id="Path_2360" data-name="Path 2360" class="cls-57" d="M327.83,238.18,307.9,224.93l22.7,11.79Z" transform="translate(-271.4 -205.18)"/></g><g id="Group_988" data-name="Group 988"><path id="Path_2361" data-name="Path 2361" class="cls-58" d="M336.11,266H295.9c-18.89,0-22-7-22-21.69V229.19c0-15.42,0-21.68,22-21.68h40.21c21.17,0,22,5.46,22,21.68v15.07C358.12,261.84,353.17,266,336.11,266Z" transform="translate(-271.4 -205.18)"/><path id="Path_2362" data-name="Path 2362" class="cls-59" d="M307.4,224.52l22.7,11.79-22.7,11.86Z" transform="translate(-271.4 -205.18)"/><path id="Path_2363" data-name="Path 2363" class="cls-60" d="M327.33,237.77,307.4,224.52l22.7,11.79Z" transform="translate(-271.4 -205.18)"/></g><g id="Group_989" data-name="Group 989"><path id="Path_2364" data-name="Path 2364" class="cls-61" d="M335.61,265.53H295.4c-18.89,0-22-7-22-21.69V228.78c0-15.42,0-21.69,22-21.69h40.21c21.18,0,22,5.46,22,21.69v15.07C357.62,261.42,352.67,265.53,335.61,265.53Z" transform="translate(-271.4 -205.18)"/><path id="Path_2365" data-name="Path 2365" class="cls-62" d="M306.9,224.1l22.7,11.79-22.7,11.87Z" transform="translate(-271.4 -205.18)"/><path id="Path_2366" data-name="Path 2366" class="cls-63" d="M326.83,237.35,306.9,224.1l22.7,11.79Z" transform="translate(-271.4 -205.18)"/></g><g id="Group_990" data-name="Group 990"><path id="Path_1123-2" data-name="Path 1123-2" class="cls-64" d="M335.11,265.12H294.9c-18.89,0-22-7-22-21.69V228.36c0-15.41,0-21.68,22-21.68h40.21c21.18,0,22,5.46,22,21.68v15.07C357.12,261,352.17,265.12,335.11,265.12Z" transform="translate(-271.4 -205.18)"/><path id="Path_1124-2" data-name="Path 1124-2" class="cls-2" d="M306.4,223.69l22.7,11.79-22.7,11.86Z" transform="translate(-271.4 -205.18)"/><path id="Path_1125-2" data-name="Path 1125-2" class="cls-2" d="M326.32,236.94,306.4,223.69l22.7,11.79Z" transform="translate(-271.4 -205.18)"/></g></g></svg>